solid AltAzTrackerSketchup
facet normal 1.0042218913622e-011 0.999999999947704 -1.02270117491997e-005
  outer loop
    vertex -18.9999426316252 16.2999769409189 186.099931725168
    vertex -14.9998546796139 16.2998889889648 177.499969584899
    vertex -18.9998546795564 16.2998889888498 177.49995441372
  endloop
endfacet
facet normal 1.0042218913622e-011 0.999999999947704 -1.02270117491997e-005
  outer loop
    vertex -14.9998546796139 16.2998889889648 177.499969584899
    vertex -18.9999426316252 16.2999769409189 186.099931725168
    vertex -14.9999426316827 16.2999769410338 186.099946896347
  endloop
endfacet
facet normal 1.0 0.0 1.04928985397131e-014
  outer loop
    vertex -25.9999999999704 2.3077839059096 177.499969671647
    vertex -25.9999999999705 -1.99221609409034 186.099969671647
    vertex -25.9999999999704 -1.99221609409034 177.499969671647
  endloop
endfacet
facet normal 0.000973522445012077 -0.999999526126912 -5.2515649121851e-015
  outer loop
    vertex -25.9999999999705 -1.99221609409034 186.099969671647
    vertex -33.9999999999706 -2.00000427734101 177.500000000006
    vertex -25.9999999999704 -1.99221609409034 177.499969671647
  endloop
endfacet
facet normal 0.000973522445012077 -0.999999526126912 -5.2515649121851e-015
  outer loop
    vertex -33.9999999999706 -2.00000427734101 177.500000000006
    vertex -25.9999999999705 -1.99221609409034 186.099969671647
    vertex -33.9999999999704 -2.0000042773411 186.100000000006
  endloop
endfacet
facet normal -1.17756264309147e-009 1.0 1.03961338089431e-010
  outer loop
    vertex -27.9799999999706 7.29999572265902 177.500000000006
    vertex 24.2500000000073 7.2999957833579 183.100000000006
    vertex 24.2500000000075 7.29999578335794 177.500000000006
  endloop
endfacet
facet normal -1.17756264309147e-009 1.0 1.03961338089431e-010
  outer loop
    vertex 24.2500000000073 7.2999957833579 183.100000000006
    vertex -27.9799999999706 7.29999572265902 177.500000000006
    vertex -25.9999999999704 7.29999572265898 183.100000000006
  endloop
endfacet
facet normal -1.17756264309147e-009 1.0 1.03961338089431e-010
  outer loop
    vertex -25.9999999999704 7.29999572265898 183.100000000006
    vertex -27.9799999999706 7.29999572265902 177.500000000006
    vertex -27.9799999999703 7.29999572265898 186.099969671647
  endloop
endfacet
facet normal -1.17756264309147e-009 1.0 1.03961338089431e-010
  outer loop
    vertex -25.9999999999704 7.29999572265898 183.100000000006
    vertex -27.9799999999703 7.29999572265898 186.099969671647
    vertex -25.9999999999704 7.29999572265898 186.099969671647
  endloop
endfacet
facet normal 9.79673585739814e-022 0.999999999893718 -1.45795983062926e-005
  outer loop
    vertex -31.9999999999705 -4.27129639950508e-006 186.100000000006
    vertex -28.0000000610028 -0.000129655400419093 177.500030277099
    vertex -32.000000061003 -0.000129655400419093 177.500030277099
  endloop
endfacet
facet normal 9.79673585739814e-022 0.999999999893718 -1.45795983062926e-005
  outer loop
    vertex -28.0000000610028 -0.000129655400419093 177.500030277099
    vertex -31.9999999999705 -4.27129639950508e-006 186.100000000006
    vertex -27.9999999999703 -4.27129639950508e-006 186.100000000006
  endloop
endfacet
facet normal 0.0 -1.0 0.0
  outer loop
    vertex -20.9998585744376 8.30002794096364 186.100000000006
    vertex -22.9999999999705 8.30002794096364 177.500000000006
    vertex -20.9998585744377 8.30002794096364 177.500000000006
  endloop
endfacet
facet normal 0.0 -1.0 0.0
  outer loop
    vertex -22.9999999999705 8.30002794096364 177.500000000006
    vertex -20.9998585744376 8.30002794096364 186.100000000006
    vertex -22.9999999999704 8.30002794096364 186.100000000006
  endloop
endfacet
facet normal -2.00599239989514e-011 -0.999999999947704 1.0227011746474e-005
  outer loop
    vertex -14.9998546796139 14.2998889890223 177.499984749079
    vertex -16.9999426316253 14.2999769409763 186.099946896347
    vertex -16.9998546795564 14.2998889889074 177.499969584899
  endloop
endfacet
facet normal -2.00599239989514e-011 -0.999999999947704 1.0227011746474e-005
  outer loop
    vertex -16.9999426316253 14.2999769409763 186.099946896347
    vertex -14.9998546796139 14.2998889890223 177.499984749079
    vertex -14.9999426316827 14.2999769410913 186.099962060526
  endloop
endfacet
facet normal 0.707781571399372 -0.706431346407728 -1.11460434017996e-014
  outer loop
    vertex -16.9998546795564 12.3076771721582 177.499969671647
    vertex -20.9998585744376 8.30002794096364 186.100000000006
    vertex -20.9998585744377 8.30002794096364 177.500000000006
  endloop
endfacet
facet normal 0.707781571399372 -0.706431346407728 -1.11460434017996e-014
  outer loop
    vertex -20.9998585744376 8.30002794096364 186.100000000006
    vertex -16.9998546795564 12.3076771721582 177.499969671647
    vertex -16.9998546795564 12.3076771721582 186.099969671647
  endloop
endfacet
facet normal 0.999999999947704 7.75421206720054e-011 1.02270117249003e-005
  outer loop
    vertex -14.9998546796139 16.2998889889648 177.499969584899
    vertex -14.9999426316827 14.2999769410913 186.099962060526
    vertex -14.9998546796139 14.2998889890223 177.499984749079
  endloop
endfacet
facet normal 0.999999999947704 7.75421206720054e-011 1.02270117249003e-005
  outer loop
    vertex -14.9999426316827 14.2999769410913 186.099962060526
    vertex -14.9998546796139 16.2998889889648 177.499969584899
    vertex -14.9999426316827 16.2999769410338 186.099946896347
  endloop
endfacet
facet normal -5.73754540593296e-010 0.599975785222016 0.800018160510888
  outer loop
    vertex 24.2500000000073 3.29978392108444 186.099969705697
    vertex -25.9999999999704 7.29999572265898 183.100000000006
    vertex -25.9999999999704 3.2997839059097 186.099969690522
  endloop
endfacet
facet normal -5.73754540593296e-010 0.599975785222016 0.800018160510888
  outer loop
    vertex -25.9999999999704 7.29999572265898 183.100000000006
    vertex 24.2500000000073 3.29978392108444 186.099969705697
    vertex 24.2500000000073 7.2999957833579 183.100000000006
  endloop
endfacet
facet normal 1.0 0.0 0.0
  outer loop
    vertex -25.9999999999704 5.79999578335797 177.500000000006
    vertex -25.9999999999704 4.79999578335797 178.500000000006
    vertex -25.9999999999704 3.79999578335797 177.500000000006
  endloop
endfacet
facet normal 1.0 0.0 0.0
  outer loop
    vertex -25.9999999999704 7.29999572265898 186.099969671647
    vertex -25.9999999999704 3.2997839059097 186.099969690522
    vertex -25.9999999999704 7.29999572265898 183.100000000006
  endloop
endfacet
facet normal -0.9999999999579 9.1266560332929e-006 9.50851296071019e-007
  outer loop
    vertex -33.9999053766539 7.47181015248816 186.100003138157
    vertex -33.9999999999706 -2.00000427734101 177.500000000006
    vertex -33.9999999999704 -2.0000042773411 186.100000000006
  endloop
endfacet
facet normal -0.9999999999579 9.1266560332929e-006 9.50851296071019e-007
  outer loop
    vertex -33.9999999999706 -2.00000427734101 177.500000000006
    vertex -33.9999053766539 7.47181015248816 186.100003138157
    vertex -33.9999217313126 7.47180833918681 177.500005250712
  endloop
endfacet
facet normal 6.59890825415831e-006 0.999999999974684 -2.66219453133878e-006
  outer loop
    vertex -29.1713510473482 12.3000147699919 177.499993235587
    vertex -20.9999426315868 12.2999837423739 186.099953970809
    vertex -20.9999837041482 12.299939766323 177.499972333984
  endloop
endfacet
facet normal 6.59890825415831e-006 0.999999999974684 -2.66219453133878e-006
  outer loop
    vertex -20.9999426315868 12.2999837423739 186.099953970809
    vertex -29.1713510473482 12.3000147699919 177.499993235587
    vertex -29.1713346926895 12.3000165832932 186.099991123031
  endloop
endfacet
facet normal -1.0 -4.40376798951496e-029 1.04928985397132e-014
  outer loop
    vertex -22.9999999999704 10.3000279409636 186.100000000006
    vertex -22.9999999999705 8.30002794096364 177.500000000006
    vertex -22.9999999999704 8.30002794096364 186.100000000006
  endloop
endfacet
facet normal -1.0 -4.40376798951496e-029 1.04928985397132e-014
  outer loop
    vertex -22.9999999999705 8.30002794096364 177.500000000006
    vertex -22.9999999999704 10.3000279409636 186.100000000006
    vertex -22.9999999999705 10.3000279409636 177.500000000006
  endloop
endfacet
facet normal 1.46900287528231e-006 -0.999999999998505 9.12651455339538e-007
  outer loop
    vertex -22.9999999999704 10.3000279409636 186.100000000006
    vertex -28.3429515517216 10.3000122433503 177.500003730025
    vertex -22.9999999999705 10.3000279409636 177.500000000006
  endloop
endfacet
facet normal 1.46900287528231e-006 -0.999999999998505 9.12651455339538e-007
  outer loop
    vertex -28.3429515517216 10.3000122433503 177.500003730025
    vertex -22.9999999999704 10.3000279409636 186.100000000006
    vertex -28.3429517695228 10.300027940955 186.099997399975
  endloop
endfacet
facet normal -3.17796064006574e-016 0.707106781186543 -0.707106781186552
  outer loop
    vertex 24.2500000000075 4.79999578335795 178.500000000006
    vertex -25.9999999999704 3.79999578335797 177.500000000006
    vertex -25.9999999999704 4.79999578335797 178.500000000006
  endloop
endfacet
facet normal -3.17796064006574e-016 0.707106781186543 -0.707106781186552
  outer loop
    vertex -25.9999999999704 3.79999578335797 177.500000000006
    vertex 24.2500000000075 4.79999578335795 178.500000000006
    vertex 24.2500000000075 3.79999578335795 177.500000000006
  endloop
endfacet
facet normal 0.999999999743296 2.20740046206055e-005 5.11337949096237e-006
  outer loop
    vertex -16.9998546795564 14.2998889889074 177.499969584899
    vertex -16.9998546795564 12.3076771721582 186.099969671647
    vertex -16.9998546795564 12.3076771721582 177.499969671647
  endloop
endfacet
facet normal 0.999999999743296 2.20740046206055e-005 5.11337949096237e-006
  outer loop
    vertex -16.9998546795564 12.3076771721582 186.099969671647
    vertex -16.9998546795564 14.2998889889074 177.499969584899
    vertex -16.9999426316253 14.2999769409763 186.099946896347
  endloop
endfacet
facet normal -0.999996247024778 0.00273969639920154 -1.6423422430795e-008
  outer loop
    vertex -27.9999999999703 -4.27129639950508e-006 186.100000000006
    vertex -27.9799999999706 7.29999572265902 177.500000000006
    vertex -28.0000000610028 -0.000129655400419093 177.500030277099
  endloop
endfacet
facet normal -0.999996247024778 0.00273969639920154 -1.6423422430795e-008
  outer loop
    vertex -27.9799999999706 7.29999572265902 177.500000000006
    vertex -27.9999999999703 -4.27129639950508e-006 186.100000000006
    vertex -27.9799999999703 7.29999572265898 186.099969671647
  endloop
endfacet
facet normal -0.999999999476055 3.22561501429578e-005 -2.72580477589116e-006
  outer loop
    vertex -18.9999426316252 14.2999769409476 186.099939307257
    vertex -18.9998546795564 16.2998889888498 177.49995441372
    vertex -18.9999837041867 14.2999329648966 177.499957670433
  endloop
endfacet
facet normal -0.999999999476055 3.22561501429578e-005 -2.72580477589116e-006
  outer loop
    vertex -18.9998546795564 16.2998889888498 177.49995441372
    vertex -18.9999426316252 14.2999769409476 186.099939307257
    vertex -18.9999426316252 16.2999769409189 186.099931725168
  endloop
endfacet
facet normal 1.0 -2.09879710015127e-008 9.11467107282716e-009
  outer loop
    vertex -31.9999997821575 6.64323988987479 177.500010338593
    vertex -31.9999999999705 -4.27129639950508e-006 186.100000000006
    vertex -32.000000061003 -0.000129655400419093 177.500030277099
  endloop
endfacet
facet normal 1.0 -2.09879710015127e-008 9.11467107282716e-009
  outer loop
    vertex -31.9999999999705 -4.27129639950508e-006 186.100000000006
    vertex -31.9999997821575 6.64323988987479 177.500010338593
    vertex -31.9999999999587 6.6432555874795 186.100004008543
  endloop
endfacet
facet normal -0.000138355129474443 -0.894427182439289 -0.447213591219645
  outer loop
    vertex 24.2500000000075 2.29999578335795 177.500000000006
    vertex -25.9999999999705 -1.99221609409034 186.099969671647
    vertex -25.9999999999704 2.3077839059096 177.499969671647
  endloop
endfacet
facet normal -0.000138355129474443 -0.894427182439289 -0.447213591219645
  outer loop
    vertex -25.9999999999705 -1.99221609409034 186.099969671647
    vertex 24.2500000000075 2.29999578335795 177.500000000006
    vertex 24.2500000000074 -2.00000421664208 186.100000000006
  endloop
endfacet
facet normal 3.68629843385941e-007 2.37239257126022e-006 0.999999999997118
  outer loop
    vertex 24.2500000000074 -2.00000421664208 186.100000000006
    vertex -25.9999999999704 3.2997839059097 186.099969690522
    vertex -25.9999999999705 -1.99221609409034 186.099969671647
  endloop
endfacet
facet normal 3.68629843385941e-007 2.37239257126022e-006 0.999999999997118
  outer loop
    vertex -25.9999999999704 3.2997839059097 186.099969690522
    vertex 24.2500000000074 -2.00000421664208 186.100000000006
    vertex 24.2500000000073 3.29978392108444 186.099969705697
  endloop
endfacet
facet normal 3.68629843385941e-007 2.37239257126022e-006 0.999999999997118
  outer loop
    vertex -33.9999999999704 -2.0000042773411 186.100000000006
    vertex -31.9999999999705 -4.27129639950508e-006 186.100000000006
    vertex -33.9999053766539 7.47181015248816 186.100003138157
  endloop
endfacet
facet normal 3.68629843385941e-007 2.37239257126022e-006 0.999999999997118
  outer loop
    vertex -31.9999999999705 -4.27129639950508e-006 186.100000000006
    vertex -33.9999999999704 -2.0000042773411 186.100000000006
    vertex -25.9999999999705 -1.99221609409034 186.099969671647
  endloop
endfacet
facet normal 3.68629843385941e-007 2.37239257126022e-006 0.999999999997118
  outer loop
    vertex -31.9999999999705 -4.27129639950508e-006 186.100000000006
    vertex -25.9999999999705 -1.99221609409034 186.099969671647
    vertex -27.9999999999703 -4.27129639950508e-006 186.100000000006
  endloop
endfacet
facet normal 3.68629843385941e-007 2.37239257126022e-006 0.999999999997118
  outer loop
    vertex -27.9999999999703 -4.27129639950508e-006 186.100000000006
    vertex -25.9999999999705 -1.99221609409034 186.099969671647
    vertex -27.9799999999703 7.29999572265898 186.099969671647
  endloop
endfacet
facet normal 3.68629843385941e-007 2.37239257126022e-006 0.999999999997118
  outer loop
    vertex -27.9799999999703 7.29999572265898 186.099969671647
    vertex -25.9999999999705 -1.99221609409034 186.099969671647
    vertex -25.9999999999704 7.29999572265898 186.099969671647
  endloop
endfacet
facet normal 3.68629843385941e-007 2.37239257126022e-006 0.999999999997118
  outer loop
    vertex -25.9999999999704 7.29999572265898 186.099969671647
    vertex -25.9999999999705 -1.99221609409034 186.099969671647
    vertex -25.9999999999704 3.2997839059097 186.099969690522
  endloop
endfacet
facet normal 3.68629843385941e-007 2.37239257126022e-006 0.999999999997118
  outer loop
    vertex -20.9998585744376 8.30002794096364 186.100000000006
    vertex -22.9999999999704 10.3000279409636 186.100000000006
    vertex -22.9999999999704 8.30002794096364 186.100000000006
  endloop
endfacet
facet normal 3.68629843385941e-007 2.37239257126022e-006 0.999999999997118
  outer loop
    vertex -22.9999999999704 10.3000279409636 186.100000000006
    vertex -20.9998585744376 8.30002794096364 186.100000000006
    vertex -20.9999426315868 12.2999837423739 186.099953970809
  endloop
endfacet
facet normal 3.68629843385941e-007 2.37239257126022e-006 0.999999999997118
  outer loop
    vertex -20.9999426315868 12.2999837423739 186.099953970809
    vertex -20.9998585744376 8.30002794096364 186.100000000006
    vertex -18.9999426316252 14.2999769409476 186.099939307257
  endloop
endfacet
facet normal 3.68629843385941e-007 2.37239257126022e-006 0.999999999997118
  outer loop
    vertex -18.9999426316252 14.2999769409476 186.099939307257
    vertex -20.9998585744376 8.30002794096364 186.100000000006
    vertex -16.9998546795564 12.3076771721582 186.099969671647
  endloop
endfacet
facet normal 3.68629843385941e-007 2.37239257126022e-006 0.999999999997118
  outer loop
    vertex -18.9999426316252 14.2999769409476 186.099939307257
    vertex -16.9998546795564 12.3076771721582 186.099969671647
    vertex -18.9999426316252 16.2999769409189 186.099931725168
  endloop
endfacet
facet normal 3.68629843385941e-007 2.37239257126022e-006 0.999999999997118
  outer loop
    vertex -18.9999426316252 16.2999769409189 186.099931725168
    vertex -16.9998546795564 12.3076771721582 186.099969671647
    vertex -16.9999426316253 14.2999769409763 186.099946896347
  endloop
endfacet
facet normal 3.68629843385941e-007 2.37239257126022e-006 0.999999999997118
  outer loop
    vertex -16.9999426316253 14.2999769409763 186.099946896347
    vertex -14.9999426316827 16.2999769410338 186.099946896347
    vertex -18.9999426316252 16.2999769409189 186.099931725168
  endloop
endfacet
facet normal 3.68629843385941e-007 2.37239257126022e-006 0.999999999997118
  outer loop
    vertex -14.9999426316827 16.2999769410338 186.099946896347
    vertex -16.9999426316253 14.2999769409763 186.099946896347
    vertex -14.9999426316827 14.2999769410913 186.099962060526
  endloop
endfacet
facet normal 3.68629843385941e-007 2.37239257126022e-006 0.999999999997118
  outer loop
    vertex -33.9999053766539 7.47181015248816 186.100003138157
    vertex -31.9999999999587 6.6432555874795 186.100004008543
    vertex -29.1713346926895 12.3000165832932 186.099991123031
  endloop
endfacet
facet normal 3.68629843385941e-007 2.37239257126022e-006 0.999999999997118
  outer loop
    vertex -31.9999999999587 6.6432555874795 186.100004008543
    vertex -33.9999053766539 7.47181015248816 186.100003138157
    vertex -31.9999999999705 -4.27129639950508e-006 186.100000000006
  endloop
endfacet
facet normal 3.68629843385941e-007 2.37239257126022e-006 0.999999999997118
  outer loop
    vertex -29.1713346926895 12.3000165832932 186.099991123031
    vertex -31.9999999999587 6.6432555874795 186.100004008543
    vertex -28.3429517695228 10.300027940955 186.099997399975
  endloop
endfacet
facet normal 3.68629843385941e-007 2.37239257126022e-006 0.999999999997118
  outer loop
    vertex -29.1713346926895 12.3000165832932 186.099991123031
    vertex -28.3429517695228 10.300027940955 186.099997399975
    vertex -20.9999426315868 12.2999837423739 186.099953970809
  endloop
endfacet
facet normal 3.68629843385941e-007 2.37239257126022e-006 0.999999999997118
  outer loop
    vertex -20.9999426315868 12.2999837423739 186.099953970809
    vertex -28.3429517695228 10.300027940955 186.099997399975
    vertex -22.9999999999704 10.3000279409636 186.100000000006
  endloop
endfacet
facet normal -3.51894109238242e-008 -2.05376752782557e-006 -0.99999999999789
  outer loop
    vertex -14.9998546796139 16.2998889889648 177.499969584899
    vertex -16.9998546795564 14.2998889889074 177.499969584899
    vertex -18.9998546795564 16.2998889888498 177.49995441372
  endloop
endfacet
facet normal -3.51894109238242e-008 -2.05376752782557e-006 -0.99999999999789
  outer loop
    vertex -16.9998546795564 14.2998889889074 177.499969584899
    vertex -14.9998546796139 16.2998889889648 177.499969584899
    vertex -14.9998546796139 14.2998889890223 177.499984749079
  endloop
endfacet
facet normal -3.51894109238242e-008 -2.05376752782557e-006 -0.99999999999789
  outer loop
    vertex -33.9999217313126 7.47180833918681 177.500005250712
    vertex -31.9999997821575 6.64323988987479 177.500010338593
    vertex -32.000000061003 -0.000129655400419093 177.500030277099
  endloop
endfacet
facet normal -3.51894109238242e-008 -2.05376752782557e-006 -0.99999999999789
  outer loop
    vertex -31.9999997821575 6.64323988987479 177.500010338593
    vertex -33.9999217313126 7.47180833918681 177.500005250712
    vertex -29.1713510473482 12.3000147699919 177.499993235587
  endloop
endfacet
facet normal -3.51894109238242e-008 -2.05376752782557e-006 -0.99999999999789
  outer loop
    vertex -31.9999997821575 6.64323988987479 177.500010338593
    vertex -29.1713510473482 12.3000147699919 177.499993235587
    vertex -28.3429515517216 10.3000122433503 177.500003730025
  endloop
endfacet
facet normal -3.51894109238242e-008 -2.05376752782557e-006 -0.99999999999789
  outer loop
    vertex -28.3429515517216 10.3000122433503 177.500003730025
    vertex -29.1713510473482 12.3000147699919 177.499993235587
    vertex -20.9999837041482 12.299939766323 177.499972333984
  endloop
endfacet
facet normal -3.51894109238242e-008 -2.05376752782557e-006 -0.99999999999789
  outer loop
    vertex -28.3429515517216 10.3000122433503 177.500003730025
    vertex -20.9999837041482 12.299939766323 177.499972333984
    vertex -22.9999999999705 10.3000279409636 177.500000000006
  endloop
endfacet
facet normal -3.51894109238242e-008 -2.05376752782557e-006 -0.99999999999789
  outer loop
    vertex -22.9999999999705 10.3000279409636 177.500000000006
    vertex -20.9999837041482 12.299939766323 177.499972333984
    vertex -22.9999999999705 8.30002794096364 177.500000000006
  endloop
endfacet
facet normal -3.51894109238242e-008 -2.05376752782557e-006 -0.99999999999789
  outer loop
    vertex -22.9999999999705 8.30002794096364 177.500000000006
    vertex -20.9999837041482 12.299939766323 177.499972333984
    vertex -20.9998585744377 8.30002794096364 177.500000000006
  endloop
endfacet
facet normal -3.51894109238242e-008 -2.05376752782557e-006 -0.99999999999789
  outer loop
    vertex -20.9998585744377 8.30002794096364 177.500000000006
    vertex -20.9999837041482 12.299939766323 177.499972333984
    vertex -18.9999837041867 14.2999329648966 177.499957670433
  endloop
endfacet
facet normal -3.51894109238242e-008 -2.05376752782557e-006 -0.99999999999789
  outer loop
    vertex -20.9998585744377 8.30002794096364 177.500000000006
    vertex -18.9999837041867 14.2999329648966 177.499957670433
    vertex -16.9998546795564 12.3076771721582 177.499969671647
  endloop
endfacet
facet normal -3.51894109238242e-008 -2.05376752782557e-006 -0.99999999999789
  outer loop
    vertex -16.9998546795564 12.3076771721582 177.499969671647
    vertex -18.9999837041867 14.2999329648966 177.499957670433
    vertex -18.9998546795564 16.2998889888498 177.49995441372
  endloop
endfacet
facet normal -3.51894109238242e-008 -2.05376752782557e-006 -0.99999999999789
  outer loop
    vertex -16.9998546795564 12.3076771721582 177.499969671647
    vertex -18.9998546795564 16.2998889888498 177.49995441372
    vertex -16.9998546795564 14.2998889889074 177.499969584899
  endloop
endfacet
facet normal -3.51894109238242e-008 -2.05376752782557e-006 -0.99999999999789
  outer loop
    vertex 24.2500000000075 7.29999578335794 177.500000000006
    vertex -25.9999999999704 5.79999578335797 177.500000000006
    vertex -27.9799999999706 7.29999572265902 177.500000000006
  endloop
endfacet
facet normal -3.51894109238242e-008 -2.05376752782557e-006 -0.99999999999789
  outer loop
    vertex -25.9999999999704 5.79999578335797 177.500000000006
    vertex 24.2500000000075 7.29999578335794 177.500000000006
    vertex 24.2500000000075 5.79999578335795 177.500000000006
  endloop
endfacet
facet normal -3.51894109238242e-008 -2.05376752782557e-006 -0.99999999999789
  outer loop
    vertex 24.2500000000075 3.79999578335795 177.500000000006
    vertex -25.9999999999704 2.3077839059096 177.499969671647
    vertex -25.9999999999704 3.79999578335797 177.500000000006
  endloop
endfacet
facet normal -3.51894109238242e-008 -2.05376752782557e-006 -0.99999999999789
  outer loop
    vertex -25.9999999999704 2.3077839059096 177.499969671647
    vertex 24.2500000000075 3.79999578335795 177.500000000006
    vertex 24.2500000000075 2.29999578335795 177.500000000006
  endloop
endfacet
facet normal -3.51894109238242e-008 -2.05376752782557e-006 -0.99999999999789
  outer loop
    vertex -33.9999999999706 -2.00000427734101 177.500000000006
    vertex -32.000000061003 -0.000129655400419093 177.500030277099
    vertex -25.9999999999704 -1.99221609409034 177.499969671647
  endloop
endfacet
facet normal -3.51894109238242e-008 -2.05376752782557e-006 -0.99999999999789
  outer loop
    vertex -32.000000061003 -0.000129655400419093 177.500030277099
    vertex -33.9999999999706 -2.00000427734101 177.500000000006
    vertex -33.9999217313126 7.47180833918681 177.500005250712
  endloop
endfacet
facet normal -3.51894109238242e-008 -2.05376752782557e-006 -0.99999999999789
  outer loop
    vertex -25.9999999999704 -1.99221609409034 177.499969671647
    vertex -32.000000061003 -0.000129655400419093 177.500030277099
    vertex -28.0000000610028 -0.000129655400419093 177.500030277099
  endloop
endfacet
facet normal -3.51894109238242e-008 -2.05376752782557e-006 -0.99999999999789
  outer loop
    vertex -25.9999999999704 -1.99221609409034 177.499969671647
    vertex -28.0000000610028 -0.000129655400419093 177.500030277099
    vertex -27.9799999999706 7.29999572265902 177.500000000006
  endloop
endfacet
facet normal -3.51894109238242e-008 -2.05376752782557e-006 -0.99999999999789
  outer loop
    vertex -25.9999999999704 -1.99221609409034 177.499969671647
    vertex -27.9799999999706 7.29999572265902 177.500000000006
    vertex -25.9999999999704 5.79999578335797 177.500000000006
  endloop
endfacet
facet normal -3.51894109238242e-008 -2.05376752782557e-006 -0.99999999999789
  outer loop
    vertex -25.9999999999704 -1.99221609409034 177.499969671647
    vertex -25.9999999999704 5.79999578335797 177.500000000006
    vertex -25.9999999999704 3.79999578335797 177.500000000006
  endloop
endfacet
facet normal -3.51894109238242e-008 -2.05376752782557e-006 -0.99999999999789
  outer loop
    vertex -25.9999999999704 -1.99221609409034 177.499969671647
    vertex -25.9999999999704 3.79999578335797 177.500000000006
    vertex -25.9999999999704 2.3077839059096 177.499969671647
  endloop
endfacet
facet normal 1.0 1.24332992018548e-014 2.27946191822829e-014
  outer loop
    vertex 24.2500000000075 2.29999578335795 177.500000000006
    vertex 24.2500000000073 3.29978392108444 186.099969705697
    vertex 24.2500000000074 -2.00000421664208 186.100000000006
  endloop
endfacet
facet normal 1.0 1.24332992018548e-014 2.27946191822829e-014
  outer loop
    vertex 24.2500000000073 3.29978392108444 186.099969705697
    vertex 24.2500000000075 2.29999578335795 177.500000000006
    vertex 24.2500000000075 3.79999578335795 177.500000000006
  endloop
endfacet
facet normal 1.0 1.24332992018548e-014 2.27946191822829e-014
  outer loop
    vertex 24.2500000000073 3.29978392108444 186.099969705697
    vertex 24.2500000000075 3.79999578335795 177.500000000006
    vertex 24.2500000000073 7.2999957833579 183.100000000006
  endloop
endfacet
facet normal 1.0 1.24332992018548e-014 2.27946191822829e-014
  outer loop
    vertex 24.2500000000073 7.2999957833579 183.100000000006
    vertex 24.2500000000075 3.79999578335795 177.500000000006
    vertex 24.2500000000075 4.79999578335795 178.500000000006
  endloop
endfacet
facet normal 1.0 1.24332992018548e-014 2.27946191822829e-014
  outer loop
    vertex 24.2500000000073 7.2999957833579 183.100000000006
    vertex 24.2500000000075 4.79999578335795 178.500000000006
    vertex 24.2500000000075 5.79999578335795 177.500000000006
  endloop
endfacet
facet normal 1.0 1.24332992018548e-014 2.27946191822829e-014
  outer loop
    vertex 24.2500000000073 7.2999957833579 183.100000000006
    vertex 24.2500000000075 5.79999578335795 177.500000000006
    vertex 24.2500000000075 7.29999578335794 177.500000000006
  endloop
endfacet
facet normal -0.707105578857449 0.707107983513561 -2.38742298164771e-007
  outer loop
    vertex -20.9999837041482 12.299939766323 177.499972333984
    vertex -18.9999426316252 14.2999769409476 186.099939307257
    vertex -18.9999837041867 14.2999329648966 177.499957670433
  endloop
endfacet
facet normal -0.707105578857449 0.707107983513561 -2.38742298164771e-007
  outer loop
    vertex -18.9999426316252 14.2999769409476 186.099939307257
    vertex -20.9999837041482 12.299939766323 177.499972333984
    vertex -20.9999426315868 12.2999837423739 186.099953970809
  endloop
endfacet
facet normal -0.707080108648423 0.707133452717593 1.19555933820755e-006
  outer loop
    vertex -33.9999217313126 7.47180833918681 177.500005250712
    vertex -29.1713346926895 12.3000165832932 186.099991123031
    vertex -29.1713510473482 12.3000147699919 177.499993235587
  endloop
endfacet
facet normal -0.707080108648423 0.707133452717593 1.19555933820755e-006
  outer loop
    vertex -29.1713346926895 12.3000165832932 186.099991123031
    vertex -33.9999217313126 7.47180833918681 177.500005250712
    vertex -33.9999053766539 7.47181015248816 186.100003138157
  endloop
endfacet
facet normal 0.707080108650358 -0.707133452715458 1.30864099387473e-006
  outer loop
    vertex -28.3429517695228 10.300027940955 186.099997399975
    vertex -31.9999997821575 6.64323988987479 177.500010338593
    vertex -28.3429515517216 10.3000122433503 177.500003730025
  endloop
endfacet
facet normal 0.707080108650358 -0.707133452715458 1.30864099387473e-006
  outer loop
    vertex -31.9999997821575 6.64323988987479 177.500010338593
    vertex -28.3429517695228 10.300027940955 186.099997399975
    vertex -31.9999999999587 6.6432555874795 186.100004008543
  endloop
endfacet
facet normal -9.52134558631117e-016 -0.707106781186549 -0.707106781186546
  outer loop
    vertex 24.2500000000075 4.79999578335795 178.500000000006
    vertex -25.9999999999704 5.79999578335797 177.500000000006
    vertex 24.2500000000075 5.79999578335795 177.500000000006
  endloop
endfacet
facet normal -9.52134558631117e-016 -0.707106781186549 -0.707106781186546
  outer loop
    vertex -25.9999999999704 5.79999578335797 177.500000000006
    vertex 24.2500000000075 4.79999578335795 178.500000000006
    vertex -25.9999999999704 4.79999578335797 178.500000000006
  endloop
endfacet
endsolid AltAzTrackerSketchup
