solid Remix of isaac879 Pan Tilt Camera Mount
facet normal 2.96697895320197e-014 -1.0 -4.71337254182125e-014
  outer loop
    vertex 150.199999922246 60.3999999859911 -4.37769144602771e-013
    vertex 148.199999922251 60.3999999859893 9.00000004503091
    vertex 107.999999922251 60.3999999859887 -1.15266129974145e-013
  endloop
endfacet
facet normal 2.96697895320197e-014 -1.0 -4.71337254182125e-014
  outer loop
    vertex 148.199999922251 60.3999999859893 9.00000004503091
    vertex 150.199999922246 60.3999999859911 -4.37769144602771e-013
    vertex 150.199999922251 60.3999999859886 28.0000000450309
  endloop
endfacet
facet normal 2.96697895320197e-014 -1.0 -4.71337254182125e-014
  outer loop
    vertex 148.199999922251 60.3999999859893 9.00000004503091
    vertex 150.199999922251 60.3999999859886 28.0000000450309
    vertex 148.199999922251 60.3999999859888 21.0000000450309
  endloop
endfacet
facet normal 2.96697895320197e-014 -1.0 -4.71337254182125e-014
  outer loop
    vertex 148.199999922251 60.3999999859888 21.0000000450309
    vertex 150.199999922251 60.3999999859886 28.0000000450309
    vertex 145.199999922251 60.3999999859893 21.0000000450309
  endloop
endfacet
facet normal 2.96697895320197e-014 -1.0 -4.71337254182125e-014
  outer loop
    vertex 107.999999922251 60.3999999859887 -1.15266129974145e-013
    vertex 145.199999922251 60.3999999859893 9.00000004503091
    vertex 107.999999922251 60.3999999859886 28.0000000450321
  endloop
endfacet
facet normal 2.96697895320197e-014 -1.0 -4.71337254182125e-014
  outer loop
    vertex 145.199999922251 60.3999999859893 9.00000004503091
    vertex 107.999999922251 60.3999999859887 -1.15266129974145e-013
    vertex 148.199999922251 60.3999999859893 9.00000004503091
  endloop
endfacet
facet normal 2.96697895320197e-014 -1.0 -4.71337254182125e-014
  outer loop
    vertex 107.999999922251 60.3999999859886 28.0000000450321
    vertex 145.199999922251 60.3999999859893 9.00000004503091
    vertex 145.199999922251 60.3999999859893 21.0000000450309
  endloop
endfacet
facet normal 2.96697895320197e-014 -1.0 -4.71337254182125e-014
  outer loop
    vertex 107.999999922251 60.3999999859886 28.0000000450321
    vertex 145.199999922251 60.3999999859893 21.0000000450309
    vertex 150.199999922251 60.3999999859886 28.0000000450309
  endloop
endfacet
facet normal -1.0 -7.87183649753382e-015 -1.86977742826233e-015
  outer loop
    vertex 107.999999922251 60.3999999859886 28.0000000450321
    vertex 107.999999922251 62.3999999859885 26.0000000450322
    vertex 107.999999922251 60.3999999859887 -1.15266129974145e-013
  endloop
endfacet
facet normal -1.0 -7.87183649753382e-015 -1.86977742826233e-015
  outer loop
    vertex 107.999999922251 62.3999999859885 26.0000000450322
    vertex 107.999999922251 60.3999999859886 28.0000000450321
    vertex 107.999999922251 71.9999999859886 28.0000000450324
  endloop
endfacet
facet normal -1.0 -7.87183649753382e-015 -1.86977742826233e-015
  outer loop
    vertex 107.999999922251 62.3999999859885 26.0000000450322
    vertex 107.999999922251 71.9999999859886 28.0000000450324
    vertex 107.999999922251 64.9999999859886 26.0000000450323
  endloop
endfacet
facet normal -1.0 -7.87183649753382e-015 -1.86977742826233e-015
  outer loop
    vertex 107.999999922251 64.9999999859886 26.0000000450323
    vertex 107.999999922251 71.9999999859886 28.0000000450324
    vertex 107.999999922251 64.9999999859886 4.0000000450323
  endloop
endfacet
facet normal -1.0 -7.87183649753382e-015 -1.86977742826233e-015
  outer loop
    vertex 107.999999922251 60.3999999859887 -1.15266129974145e-013
    vertex 107.999999922251 62.3999999859886 4.00000004503218
    vertex 107.999999922251 85.3999999865108 3.90725583211895e-013
  endloop
endfacet
facet normal -1.0 -7.87183649753382e-015 -1.86977742826233e-015
  outer loop
    vertex 107.999999922251 62.3999999859886 4.00000004503218
    vertex 107.999999922251 60.3999999859887 -1.15266129974145e-013
    vertex 107.999999922251 62.3999999859885 26.0000000450322
  endloop
endfacet
facet normal -1.0 -7.87183649753382e-015 -1.86977742826233e-015
  outer loop
    vertex 107.999999922251 85.3999999865108 3.90725583211895e-013
    vertex 107.999999922251 62.3999999859886 4.00000004503218
    vertex 107.999999922251 64.9999999859886 4.0000000450323
  endloop
endfacet
facet normal -1.0 -7.87183649753382e-015 -1.86977742826233e-015
  outer loop
    vertex 107.999999922251 85.3999999865108 3.90725583211895e-013
    vertex 107.999999922251 64.9999999859886 4.0000000450323
    vertex 107.999999922251 71.9999999859886 4.00000004503245
  endloop
endfacet
facet normal -1.0 -7.87183649753382e-015 -1.86977742826233e-015
  outer loop
    vertex 107.999999922251 71.9999999859886 4.00000004503245
    vertex 107.999999922251 64.9999999859886 4.0000000450323
    vertex 107.999999922251 71.9999999859886 28.0000000450324
  endloop
endfacet
facet normal -1.0 -7.87183649753382e-015 -1.86977742826233e-015
  outer loop
    vertex 107.999999922251 85.3999999865108 3.90725583211895e-013
    vertex 107.999999922251 71.9999999859886 4.00000004503245
    vertex 107.999999922251 85.3999999865108 4.00000004503266
  endloop
endfacet
facet normal -1.01942653105394e-013 -1.77272116761479e-013 -1.0
  outer loop
    vertex 107.999999922251 85.3999999865108 3.90725583211895e-013
    vertex 112.357926017559 79.8399923631843 -5.16905835460657e-012
    vertex 107.999999922251 60.3999999859887 -1.15266129974145e-013
  endloop
endfacet
facet normal -1.01942653105394e-013 -1.77272116761479e-013 -1.0
  outer loop
    vertex 112.357926017559 79.8399923631843 -5.16905835460657e-012
    vertex 107.999999922251 85.3999999865108 3.90725583211895e-013
    vertex 112.527756735817 80.24999998651 -5.27907190164913e-012
  endloop
endfacet
facet normal -1.01942653105394e-013 -1.77272116761479e-013 -1.0
  outer loop
    vertex 112.527756735817 80.24999998651 -5.27907190164913e-012
    vertex 107.999999922251 85.3999999865108 3.90725583211895e-013
    vertex 112.797918394233 80.6020815145272 -5.3912126369385e-012
  endloop
endfacet
facet normal -1.01942653105394e-013 -1.77272116761479e-013 -1.0
  outer loop
    vertex 112.797918394233 80.6020815145272 -5.3912126369385e-012
    vertex 107.999999922251 85.3999999865108 3.90725583211895e-013
    vertex 116.696331272769 85.399999986511 -7.01650990369813e-012
  endloop
endfacet
facet normal -1.01942653105394e-013 -1.77272116761479e-013 -1.0
  outer loop
    vertex 107.999999922251 60.3999999859887 -1.15266129974145e-013
    vertex 112.357926017559 79.8399923631843 -5.16905835460657e-012
    vertex 112.29999992225 79.3999999865101 -5.06866923723676e-012
  endloop
endfacet
facet normal -1.01942653105394e-013 -1.77272116761479e-013 -1.0
  outer loop
    vertex 112.797918394233 80.6020815145272 -5.3912126369385e-012
    vertex 116.696331272769 85.399999986511 -7.01650990369813e-012
    vertex 113.14999992225 80.8722431729436 -5.49783835468622e-012
  endloop
endfacet
facet normal -1.01942653105394e-013 -1.77272116761479e-013 -1.0
  outer loop
    vertex 113.14999992225 80.8722431729436 -5.49783835468622e-012
    vertex 116.696331272769 85.399999986511 -7.01650990369813e-012
    vertex 113.560007545576 81.0420738912015 -5.5916826884363e-012
  endloop
endfacet
facet normal -1.01942653105394e-013 -1.77272116761479e-013 -1.0
  outer loop
    vertex 113.560007545576 81.0420738912015 -5.5916826884363e-012
    vertex 116.696331272769 85.399999986511 -7.01650990369813e-012
    vertex 113.99999992225 81.09999998651 -5.66635030192715e-012
  endloop
endfacet
facet normal -1.01942653105394e-013 -1.77272116761479e-013 -1.0
  outer loop
    vertex 113.99999992225 81.09999998651 -5.66635030192715e-012
    vertex 116.696331272769 85.399999986511 -7.01650990369813e-012
    vertex 114.439992298925 81.0420738912015 -5.71675272069415e-012
  endloop
endfacet
facet normal -1.01942653105394e-013 -1.77272116761479e-013 -1.0
  outer loop
    vertex 114.439992298925 81.0420738912015 -5.71675272069415e-012
    vertex 116.696331272769 85.399999986511 -7.01650990369813e-012
    vertex 114.84999992225 80.8722431729436 -5.73945510319213e-012
  endloop
endfacet
facet normal -1.01942653105394e-013 -1.77272116761479e-013 -1.0
  outer loop
    vertex 114.84999992225 80.8722431729436 -5.73945510319213e-012
    vertex 116.696331272769 85.399999986511 -7.01650990369813e-012
    vertex 115.202081450267 80.6020815145272 -5.73291031957175e-012
  endloop
endfacet
facet normal -1.01942653105394e-013 -1.77272116761479e-013 -1.0
  outer loop
    vertex 115.202081450267 80.6020815145272 -5.73291031957175e-012
    vertex 116.696331272769 85.399999986511 -7.01650990369813e-012
    vertex 115.472243108684 80.24999998651 -5.6975643860207e-012
  endloop
endfacet
facet normal -1.01942653105394e-013 -1.77272116761479e-013 -1.0
  outer loop
    vertex 115.472243108684 80.24999998651 -5.6975643860207e-012
    vertex 116.696331272769 85.399999986511 -7.01650990369813e-012
    vertex 115.642073826942 79.8399923631843 -5.63582606949832e-012
  endloop
endfacet
facet normal -1.01942653105394e-013 -1.77272116761479e-013 -1.0
  outer loop
    vertex 115.642073826942 79.8399923631843 -5.63582606949832e-012
    vertex 116.696331272769 85.399999986511 -7.01650990369813e-012
    vertex 115.69999992225 79.3999999865101 -5.55190273424858e-012
  endloop
endfacet
facet normal -1.01942653105394e-013 -1.77272116761479e-013 -1.0
  outer loop
    vertex 116.696331272769 85.399999986511 -7.01650990369813e-012
    vertex 122.357926017559 76.8399923631843 -5.13733373167791e-012
    vertex 122.29999992225 76.39999998651 -5.0369446143081e-012
  endloop
endfacet
facet normal -1.01942653105394e-013 -1.77272116761479e-013 -1.0
  outer loop
    vertex 122.357926017559 76.8399923631843 -5.13733373167791e-012
    vertex 116.696331272769 85.399999986511 -7.01650990369813e-012
    vertex 122.527756735817 77.24999998651 -5.24734727872046e-012
  endloop
endfacet
facet normal -1.01942653105394e-013 -1.77272116761479e-013 -1.0
  outer loop
    vertex 122.527756735817 77.24999998651 -5.24734727872046e-012
    vertex 116.696331272769 85.399999986511 -7.01650990369813e-012
    vertex 122.797918394233 77.6020815145272 -5.35948801400983e-012
  endloop
endfacet
facet normal -1.01942653105394e-013 -1.77272116761479e-013 -1.0
  outer loop
    vertex 122.797918394233 77.6020815145272 -5.35948801400983e-012
    vertex 116.696331272769 85.399999986511 -7.01650990369813e-012
    vertex 123.14999992225 77.8722431729436 -5.46611373175755e-012
  endloop
endfacet
facet normal -1.01942653105394e-013 -1.77272116761479e-013 -1.0
  outer loop
    vertex 123.14999992225 77.8722431729436 -5.46611373175755e-012
    vertex 116.696331272769 85.399999986511 -7.01650990369813e-012
    vertex 123.560007545576 78.0420738912015 -5.55995806550764e-012
  endloop
endfacet
facet normal -1.01942653105394e-013 -1.77272116761479e-013 -1.0
  outer loop
    vertex 123.560007545576 78.0420738912015 -5.55995806550764e-012
    vertex 116.696331272769 85.399999986511 -7.01650990369813e-012
    vertex 123.99999992225 78.09999998651 -5.63462567899849e-012
  endloop
endfacet
facet normal -1.01942653105394e-013 -1.77272116761479e-013 -1.0
  outer loop
    vertex 123.99999992225 78.09999998651 -5.63462567899849e-012
    vertex 116.696331272769 85.399999986511 -7.01650990369813e-012
    vertex 124.439992298925 78.0420738912015 -5.68502809776548e-012
  endloop
endfacet
facet normal -1.01942653105394e-013 -1.77272116761479e-013 -1.0
  outer loop
    vertex 124.439992298925 78.0420738912015 -5.68502809776548e-012
    vertex 116.696331272769 85.399999986511 -7.01650990369813e-012
    vertex 150.199999922246 69.1177625853604 -6.70937460178929e-012
  endloop
endfacet
facet normal -1.01942653105394e-013 -1.77272116761479e-013 -1.0
  outer loop
    vertex 124.439992298925 78.0420738912015 -5.68502809776548e-012
    vertex 150.199999922246 69.1177625853604 -6.70937460178929e-012
    vertex 124.84999992225 77.8722431729436 -5.70773048026347e-012
  endloop
endfacet
facet normal -1.01942653105394e-013 -1.77272116761479e-013 -1.0
  outer loop
    vertex 124.84999992225 77.8722431729436 -5.70773048026347e-012
    vertex 150.199999922246 69.1177625853604 -6.70937460178929e-012
    vertex 125.202081450268 77.6020815145272 -5.70118569664308e-012
  endloop
endfacet
facet normal -1.01942653105394e-013 -1.77272116761479e-013 -1.0
  outer loop
    vertex 125.202081450268 77.6020815145272 -5.70118569664308e-012
    vertex 150.199999922246 69.1177625853604 -6.70937460178929e-012
    vertex 125.472243108684 77.24999998651 -5.66583976309203e-012
  endloop
endfacet
facet normal -1.01942653105394e-013 -1.77272116761479e-013 -1.0
  outer loop
    vertex 125.472243108684 77.24999998651 -5.66583976309203e-012
    vertex 150.199999922246 69.1177625853604 -6.70937460178929e-012
    vertex 125.642073826942 76.8399923631843 -5.60410144656966e-012
  endloop
endfacet
facet normal -1.01942653105394e-013 -1.77272116761479e-013 -1.0
  outer loop
    vertex 125.642073826942 76.8399923631843 -5.60410144656966e-012
    vertex 150.199999922246 69.1177625853604 -6.70937460178929e-012
    vertex 125.69999992225 76.39999998651 -5.52017811131992e-012
  endloop
endfacet
facet normal -1.01942653105394e-013 -1.77272116761479e-013 -1.0
  outer loop
    vertex 107.999999922251 60.3999999859887 -1.15266129974145e-013
    vertex 113.14999992225 77.9277568000765 -4.88111686829255e-012
    vertex 150.199999922246 60.3999999859911 -4.37769144602771e-013
  endloop
endfacet
facet normal -1.01942653105394e-013 -1.77272116761479e-013 -1.0
  outer loop
    vertex 113.14999992225 77.9277568000765 -4.88111686829255e-012
    vertex 107.999999922251 60.3999999859887 -1.15266129974145e-013
    vertex 112.797918394233 78.1979184584929 -4.88766165191294e-012
  endloop
endfacet
facet normal -1.01942653105394e-013 -1.77272116761479e-013 -1.0
  outer loop
    vertex 112.797918394233 78.1979184584929 -4.88766165191294e-012
    vertex 107.999999922251 60.3999999859887 -1.15266129974145e-013
    vertex 112.527756735817 78.54999998651 -4.92300758546464e-012
  endloop
endfacet
facet normal -1.01942653105394e-013 -1.77272116761479e-013 -1.0
  outer loop
    vertex 112.527756735817 78.54999998651 -4.92300758546464e-012
    vertex 107.999999922251 60.3999999859887 -1.15266129974145e-013
    vertex 112.357926017559 78.9600076098358 -4.98474590198702e-012
  endloop
endfacet
facet normal -1.01942653105394e-013 -1.77272116761479e-013 -1.0
  outer loop
    vertex 112.357926017559 78.9600076098358 -4.98474590198702e-012
    vertex 107.999999922251 60.3999999859887 -1.15266129974145e-013
    vertex 112.29999992225 79.3999999865101 -5.06866923723676e-012
  endloop
endfacet
facet normal -1.01942653105394e-013 -1.77272116761479e-013 -1.0
  outer loop
    vertex 150.199999922246 60.3999999859911 -4.37769144602771e-013
    vertex 113.14999992225 77.9277568000765 -4.88111686829255e-012
    vertex 113.560007545576 77.7579260818186 -4.9038192507912e-012
  endloop
endfacet
facet normal -1.01942653105394e-013 -1.77272116761479e-013 -1.0
  outer loop
    vertex 150.199999922246 60.3999999859911 -4.37769144602771e-013
    vertex 113.560007545576 77.7579260818186 -4.9038192507912e-012
    vertex 113.99999992225 77.6999999865101 -4.95422166955819e-012
  endloop
endfacet
facet normal -1.01942653105394e-013 -1.77272116761479e-013 -1.0
  outer loop
    vertex 150.199999922246 60.3999999859911 -4.37769144602771e-013
    vertex 113.99999992225 77.6999999865101 -4.95422166955819e-012
    vertex 114.439992298925 77.7579260818186 -5.02888928304904e-012
  endloop
endfacet
facet normal -1.01942653105394e-013 -1.77272116761479e-013 -1.0
  outer loop
    vertex 150.199999922246 60.3999999859911 -4.37769144602771e-013
    vertex 114.439992298925 77.7579260818186 -5.02888928304904e-012
    vertex 114.84999992225 77.9277568000765 -5.12273361679847e-012
  endloop
endfacet
facet normal -1.01942653105394e-013 -1.77272116761479e-013 -1.0
  outer loop
    vertex 150.199999922246 60.3999999859911 -4.37769144602771e-013
    vertex 114.84999992225 77.9277568000765 -5.12273361679847e-012
    vertex 115.202081450267 78.1979184584929 -5.22935933454684e-012
  endloop
endfacet
facet normal -1.01942653105394e-013 -1.77272116761479e-013 -1.0
  outer loop
    vertex 150.199999922246 60.3999999859911 -4.37769144602771e-013
    vertex 115.202081450267 78.1979184584929 -5.22935933454684e-012
    vertex 115.472243108684 78.54999998651 -5.34150006983621e-012
  endloop
endfacet
facet normal -1.01942653105394e-013 -1.77272116761479e-013 -1.0
  outer loop
    vertex 150.199999922246 60.3999999859911 -4.37769144602771e-013
    vertex 115.472243108684 78.54999998651 -5.34150006983621e-012
    vertex 115.642073826942 78.9600076098358 -5.45151361687877e-012
  endloop
endfacet
facet normal -1.01942653105394e-013 -1.77272116761479e-013 -1.0
  outer loop
    vertex 150.199999922246 60.3999999859911 -4.37769144602771e-013
    vertex 115.642073826942 78.9600076098358 -5.45151361687877e-012
    vertex 123.14999992225 74.9277568000765 -4.84939224536389e-012
  endloop
endfacet
facet normal -1.01942653105394e-013 -1.77272116761479e-013 -1.0
  outer loop
    vertex 123.14999992225 74.9277568000765 -4.84939224536389e-012
    vertex 115.642073826942 78.9600076098358 -5.45151361687877e-012
    vertex 115.69999992225 79.3999999865101 -5.55190273424858e-012
  endloop
endfacet
facet normal -1.01942653105394e-013 -1.77272116761479e-013 -1.0
  outer loop
    vertex 123.14999992225 74.9277568000765 -4.84939224536389e-012
    vertex 115.69999992225 79.3999999865101 -5.55190273424858e-012
    vertex 122.797918394233 75.1979184584929 -4.85593702898428e-012
  endloop
endfacet
facet normal -1.01942653105394e-013 -1.77272116761479e-013 -1.0
  outer loop
    vertex 122.797918394233 75.1979184584929 -4.85593702898428e-012
    vertex 115.69999992225 79.3999999865101 -5.55190273424858e-012
    vertex 122.527756735817 75.54999998651 -4.89128296253598e-012
  endloop
endfacet
facet normal -1.01942653105394e-013 -1.77272116761479e-013 -1.0
  outer loop
    vertex 122.527756735817 75.54999998651 -4.89128296253598e-012
    vertex 115.69999992225 79.3999999865101 -5.55190273424858e-012
    vertex 116.696331272769 85.399999986511 -7.01650990369813e-012
  endloop
endfacet
facet normal -1.01942653105394e-013 -1.77272116761479e-013 -1.0
  outer loop
    vertex 122.527756735817 75.54999998651 -4.89128296253598e-012
    vertex 116.696331272769 85.399999986511 -7.01650990369813e-012
    vertex 122.357926017559 75.9600076098358 -4.95302127905836e-012
  endloop
endfacet
facet normal -1.01942653105394e-013 -1.77272116761479e-013 -1.0
  outer loop
    vertex 122.357926017559 75.9600076098358 -4.95302127905836e-012
    vertex 116.696331272769 85.399999986511 -7.01650990369813e-012
    vertex 122.29999992225 76.39999998651 -5.0369446143081e-012
  endloop
endfacet
facet normal -1.01942653105394e-013 -1.77272116761479e-013 -1.0
  outer loop
    vertex 150.199999922246 60.3999999859911 -4.37769144602771e-013
    vertex 123.14999992225 74.9277568000765 -4.84939224536389e-012
    vertex 123.560007545576 74.7579260818186 -4.87209462786253e-012
  endloop
endfacet
facet normal -1.01942653105394e-013 -1.77272116761479e-013 -1.0
  outer loop
    vertex 150.199999922246 60.3999999859911 -4.37769144602771e-013
    vertex 123.560007545576 74.7579260818186 -4.87209462786253e-012
    vertex 123.99999992225 74.6999999865101 -4.92249704662952e-012
  endloop
endfacet
facet normal -1.01942653105394e-013 -1.77272116761479e-013 -1.0
  outer loop
    vertex 150.199999922246 60.3999999859911 -4.37769144602771e-013
    vertex 123.99999992225 74.6999999865101 -4.92249704662952e-012
    vertex 124.439992298925 74.7579260818186 -4.99716466012037e-012
  endloop
endfacet
facet normal -1.01942653105394e-013 -1.77272116761479e-013 -1.0
  outer loop
    vertex 150.199999922246 60.3999999859911 -4.37769144602771e-013
    vertex 124.439992298925 74.7579260818186 -4.99716466012037e-012
    vertex 124.84999992225 74.9277568000765 -5.0910089938698e-012
  endloop
endfacet
facet normal -1.01942653105394e-013 -1.77272116761479e-013 -1.0
  outer loop
    vertex 150.199999922246 60.3999999859911 -4.37769144602771e-013
    vertex 124.84999992225 74.9277568000765 -5.0910089938698e-012
    vertex 125.202081450268 75.1979184584929 -5.19763471161818e-012
  endloop
endfacet
facet normal -1.01942653105394e-013 -1.77272116761479e-013 -1.0
  outer loop
    vertex 150.199999922246 60.3999999859911 -4.37769144602771e-013
    vertex 125.202081450268 75.1979184584929 -5.19763471161818e-012
    vertex 125.472243108684 75.54999998651 -5.30977544690755e-012
  endloop
endfacet
facet normal -1.01942653105394e-013 -1.77272116761479e-013 -1.0
  outer loop
    vertex 150.199999922246 60.3999999859911 -4.37769144602771e-013
    vertex 125.472243108684 75.54999998651 -5.30977544690755e-012
    vertex 125.642073826942 75.9600076098358 -5.4197889939501e-012
  endloop
endfacet
facet normal -1.01942653105394e-013 -1.77272116761479e-013 -1.0
  outer loop
    vertex 150.199999922246 60.3999999859911 -4.37769144602771e-013
    vertex 125.642073826942 75.9600076098358 -5.4197889939501e-012
    vertex 125.69999992225 76.39999998651 -5.52017811131992e-012
  endloop
endfacet
facet normal -1.01942653105394e-013 -1.77272116761479e-013 -1.0
  outer loop
    vertex 150.199999922246 60.3999999859911 -4.37769144602771e-013
    vertex 125.69999992225 76.39999998651 -5.52017811131992e-012
    vertex 150.199999922246 69.1177625853604 -6.70937460178929e-012
  endloop
endfacet
facet normal -2.59416654576217e-014 1.0 1.69197987047823e-014
  outer loop
    vertex 107.999999922251 85.3999999865108 3.90725583211895e-013
    vertex 116.696331272769 85.399999986511 4.00000004503266
    vertex 116.696331272769 85.399999986511 -7.01650990369813e-012
  endloop
endfacet
facet normal -2.59416654576217e-014 1.0 1.69197987047823e-014
  outer loop
    vertex 116.696331272769 85.399999986511 4.00000004503266
    vertex 107.999999922251 85.3999999865108 3.90725583211895e-013
    vertex 107.999999922251 85.3999999865108 4.00000004503266
  endloop
endfacet
facet normal 2.81996648254792e-014 -2.86858659431585e-014 1.0
  outer loop
    vertex 107.999999922251 60.3999999859886 28.0000000450321
    vertex 150.199999922251 71.9999999859891 28.0000000450313
    vertex 107.999999922251 71.9999999859886 28.0000000450324
  endloop
endfacet
facet normal 2.81996648254792e-014 -2.86858659431585e-014 1.0
  outer loop
    vertex 150.199999922251 71.9999999859891 28.0000000450313
    vertex 107.999999922251 60.3999999859886 28.0000000450321
    vertex 150.199999922251 60.3999999859886 28.0000000450309
  endloop
endfacet
facet normal 0.608761429008722 0.793353340291234 -2.51389109064178e-013
  outer loop
    vertex 122.797918394234 75.1979184584937 4.00000004503408
    vertex 123.14999992225 74.9277568000765 -4.84939224536389e-012
    vertex 122.797918394233 75.1979184584929 -4.85593702898428e-012
  endloop
endfacet
facet normal 0.608761429008722 0.793353340291234 -2.51389109064178e-013
  outer loop
    vertex 123.14999992225 74.9277568000765 -4.84939224536389e-012
    vertex 122.797918394234 75.1979184584937 4.00000004503408
    vertex 123.149999922251 74.9277568000773 4.00000004503409
  endloop
endfacet
facet normal 0.793353340291222 0.608761429008739 -2.38891963296077e-013
  outer loop
    vertex 122.527756735817 75.54999998651 -4.89128296253598e-012
    vertex 122.797918394234 75.1979184584937 4.00000004503408
    vertex 122.797918394233 75.1979184584929 -4.85593702898428e-012
  endloop
endfacet
facet normal 0.793353340291222 0.608761429008739 -2.38891963296077e-013
  outer loop
    vertex 122.797918394234 75.1979184584937 4.00000004503408
    vertex 122.527756735817 75.54999998651 -4.89128296253598e-012
    vertex 122.527756735817 75.5499999865109 4.00000004503405
  endloop
endfacet
facet normal 0.923879532511277 0.382683432365114 -2.10123730050691e-013
  outer loop
    vertex 122.357926017559 75.9600076098358 -4.95302127905836e-012
    vertex 122.527756735817 75.5499999865109 4.00000004503405
    vertex 122.527756735817 75.54999998651 -4.89128296253598e-012
  endloop
endfacet
facet normal 0.923879532511277 0.382683432365114 -2.10123730050691e-013
  outer loop
    vertex 122.527756735817 75.5499999865109 4.00000004503405
    vertex 122.357926017559 75.9600076098358 -4.95302127905836e-012
    vertex 122.357926017559 75.9600076098366 4.00000004503399
  endloop
endfacet
facet normal 0.99144486137382 0.130526192219978 -1.67030073886057e-013
  outer loop
    vertex 122.29999992225 76.39999998651 -5.0369446143081e-012
    vertex 122.357926017559 75.9600076098366 4.00000004503399
    vertex 122.357926017559 75.9600076098358 -4.95302127905836e-012
  endloop
endfacet
facet normal 0.99144486137382 0.130526192219978 -1.67030073886057e-013
  outer loop
    vertex 122.357926017559 75.9600076098366 4.00000004503399
    vertex 122.29999992225 76.39999998651 -5.0369446143081e-012
    vertex 122.299999922251 76.3999999865109 4.0000000450339
  endloop
endfacet
facet normal 0.99144486137382 -0.130526192219978 -1.12554097518951e-013
  outer loop
    vertex 122.357926017559 76.8399923631843 -5.13733373167791e-012
    vertex 122.299999922251 76.3999999865109 4.0000000450339
    vertex 122.29999992225 76.39999998651 -5.0369446143081e-012
  endloop
endfacet
facet normal 0.99144486137382 -0.130526192219978 -1.12554097518951e-013
  outer loop
    vertex 122.299999922251 76.3999999865109 4.0000000450339
    vertex 122.357926017559 76.8399923631843 -5.13733373167791e-012
    vertex 122.357926017559 76.8399923631852 4.0000000450338
  endloop
endfacet
facet normal 0.923879532511277 -0.382683432365114 -5.04086949832469e-014
  outer loop
    vertex 122.527756735817 77.24999998651 -5.24734727872046e-012
    vertex 122.357926017559 76.8399923631852 4.0000000450338
    vertex 122.357926017559 76.8399923631843 -5.13733373167791e-012
  endloop
endfacet
facet normal 0.923879532511277 -0.382683432365114 -5.04086949832469e-014
  outer loop
    vertex 122.357926017559 76.8399923631852 4.0000000450338
    vertex 122.527756735817 77.24999998651 -5.24734727872046e-012
    vertex 122.527756735817 77.2499999865109 4.00000004503369
  endloop
endfacet
facet normal 0.793353340291221 -0.608761429008738 1.5171582566595e-014
  outer loop
    vertex 122.797918394233 77.6020815145272 -5.35948801400983e-012
    vertex 122.527756735817 77.2499999865109 4.00000004503369
    vertex 122.527756735817 77.24999998651 -5.24734727872046e-012
  endloop
endfacet
facet normal 0.793353340291221 -0.608761429008738 1.5171582566595e-014
  outer loop
    vertex 122.527756735817 77.2499999865109 4.00000004503369
    vertex 122.797918394233 77.6020815145272 -5.35948801400983e-012
    vertex 122.797918394234 77.602081514528 4.00000004503358
  endloop
endfacet
facet normal 0.608761429008698 -0.793353340291253 8.31542341764707e-014
  outer loop
    vertex 123.149999922251 77.8722431729444 4.00000004503347
    vertex 122.797918394233 77.6020815145272 -5.35948801400983e-012
    vertex 123.14999992225 77.8722431729436 -5.46611373175755e-012
  endloop
endfacet
facet normal 0.608761429008698 -0.793353340291253 8.31542341764707e-014
  outer loop
    vertex 122.797918394233 77.6020815145272 -5.35948801400983e-012
    vertex 123.149999922251 77.8722431729444 4.00000004503347
    vertex 122.797918394234 77.602081514528 4.00000004503358
  endloop
endfacet
facet normal 0.382683432365119 -0.923879532511275 1.40994920073428e-013
  outer loop
    vertex 123.560007545577 78.0420738912023 4.00000004503338
    vertex 123.14999992225 77.8722431729436 -5.46611373175755e-012
    vertex 123.560007545576 78.0420738912015 -5.55995806550764e-012
  endloop
endfacet
facet normal 0.382683432365119 -0.923879532511275 1.40994920073428e-013
  outer loop
    vertex 123.14999992225 77.8722431729436 -5.46611373175755e-012
    vertex 123.560007545577 78.0420738912023 4.00000004503338
    vertex 123.149999922251 77.8722431729444 4.00000004503347
  endloop
endfacet
facet normal 0.130526192220046 -0.991444861373811 1.8922421292705e-013
  outer loop
    vertex 123.999999922251 78.0999999865109 4.00000004503331
    vertex 123.560007545576 78.0420738912015 -5.55995806550764e-012
    vertex 123.99999992225 78.09999998651 -5.63462567899849e-012
  endloop
endfacet
facet normal 0.130526192220046 -0.991444861373811 1.8922421292705e-013
  outer loop
    vertex 123.560007545576 78.0420738912015 -5.55995806550764e-012
    vertex 123.999999922251 78.0999999865109 4.00000004503331
    vertex 123.560007545577 78.0420738912023 4.00000004503338
  endloop
endfacet
facet normal -0.130526192220053 -0.99144486137381 2.25296174347967e-013
  outer loop
    vertex 124.439992298925 78.0420738912023 4.00000004503326
    vertex 123.99999992225 78.09999998651 -5.63462567899849e-012
    vertex 124.439992298925 78.0420738912015 -5.68502809776548e-012
  endloop
endfacet
facet normal -0.130526192220053 -0.99144486137381 2.25296174347967e-013
  outer loop
    vertex 123.99999992225 78.09999998651 -5.63462567899849e-012
    vertex 124.439992298925 78.0420738912023 4.00000004503326
    vertex 123.999999922251 78.0999999865109 4.00000004503331
  endloop
endfacet
facet normal -0.382683432365101 -0.923879532511282 2.46750990309669e-013
  outer loop
    vertex 124.849999922251 77.8722431729444 4.00000004503323
    vertex 124.439992298925 78.0420738912015 -5.68502809776548e-012
    vertex 124.84999992225 77.8722431729436 -5.70773048026347e-012
  endloop
endfacet
facet normal -0.382683432365101 -0.923879532511282 2.46750990309669e-013
  outer loop
    vertex 124.439992298925 78.0420738912015 -5.68502809776548e-012
    vertex 124.849999922251 77.8722431729444 4.00000004503323
    vertex 124.439992298925 78.0420738912023 4.00000004503326
  endloop
endfacet
facet normal -0.608761429008698 -0.793353340291253 2.47955138052505e-013
  outer loop
    vertex 125.202081450268 77.6020815145272 -5.70118569664308e-012
    vertex 124.849999922251 77.8722431729444 4.00000004503323
    vertex 124.84999992225 77.8722431729436 -5.70773048026347e-012
  endloop
endfacet
facet normal -0.608761429008698 -0.793353340291253 2.47955138052505e-013
  outer loop
    vertex 124.849999922251 77.8722431729444 4.00000004503323
    vertex 125.202081450268 77.6020815145272 -5.70118569664308e-012
    vertex 125.202081450268 77.602081514528 4.00000004503324
  endloop
endfacet
facet normal -0.793353340291271 -0.608761429008674 2.38895431657665e-013
  outer loop
    vertex 125.472243108684 77.2499999865109 4.00000004503327
    vertex 125.202081450268 77.6020815145272 -5.70118569664308e-012
    vertex 125.472243108684 77.24999998651 -5.66583976309203e-012
  endloop
endfacet
facet normal -0.793353340291271 -0.608761429008674 2.38895431657665e-013
  outer loop
    vertex 125.202081450268 77.6020815145272 -5.70118569664308e-012
    vertex 125.472243108684 77.2499999865109 4.00000004503327
    vertex 125.202081450268 77.602081514528 4.00000004503324
  endloop
endfacet
facet normal -0.923879532511259 -0.382683432365157 2.15332991061263e-013
  outer loop
    vertex 125.642073826942 76.8399923631852 4.00000004503334
    vertex 125.472243108684 77.24999998651 -5.66583976309203e-012
    vertex 125.642073826942 76.8399923631843 -5.60410144656966e-012
  endloop
endfacet
facet normal -0.923879532511259 -0.382683432365157 2.15332991061263e-013
  outer loop
    vertex 125.472243108684 77.24999998651 -5.66583976309203e-012
    vertex 125.642073826942 76.8399923631852 4.00000004503334
    vertex 125.472243108684 77.2499999865109 4.00000004503327
  endloop
endfacet
facet normal -0.99144486137382 -0.130526192219978 1.67029503255029e-013
  outer loop
    vertex 125.699999922251 76.3999999865109 4.00000004503342
    vertex 125.642073826942 76.8399923631843 -5.60410144656966e-012
    vertex 125.69999992225 76.39999998651 -5.52017811131992e-012
  endloop
endfacet
facet normal -0.99144486137382 -0.130526192219978 1.67029503255029e-013
  outer loop
    vertex 125.642073826942 76.8399923631843 -5.60410144656966e-012
    vertex 125.699999922251 76.3999999865109 4.00000004503342
    vertex 125.642073826942 76.8399923631852 4.00000004503334
  endloop
endfacet
facet normal -0.99144486137382 0.130526192219978 1.12554097518951e-013
  outer loop
    vertex 125.642073826942 75.9600076098366 4.00000004503352
    vertex 125.69999992225 76.39999998651 -5.52017811131992e-012
    vertex 125.642073826942 75.9600076098358 -5.4197889939501e-012
  endloop
endfacet
facet normal -0.99144486137382 0.130526192219978 1.12554097518951e-013
  outer loop
    vertex 125.69999992225 76.39999998651 -5.52017811131992e-012
    vertex 125.642073826942 75.9600076098366 4.00000004503352
    vertex 125.699999922251 76.3999999865109 4.00000004503342
  endloop
endfacet
facet normal -0.923879532511259 0.382683432365157 5.56189954661675e-014
  outer loop
    vertex 125.472243108684 75.5499999865109 4.00000004503363
    vertex 125.642073826942 75.9600076098358 -5.4197889939501e-012
    vertex 125.472243108684 75.54999998651 -5.30977544690755e-012
  endloop
endfacet
facet normal -0.923879532511259 0.382683432365157 5.56189954661675e-014
  outer loop
    vertex 125.642073826942 75.9600076098358 -5.4197889939501e-012
    vertex 125.472243108684 75.5499999865109 4.00000004503363
    vertex 125.642073826942 75.9600076098366 4.00000004503352
  endloop
endfacet
facet normal -0.793353340291271 0.608761429008674 -1.51742439340304e-014
  outer loop
    vertex 125.202081450268 75.1979184584937 4.00000004503374
    vertex 125.472243108684 75.54999998651 -5.30977544690755e-012
    vertex 125.202081450268 75.1979184584929 -5.19763471161818e-012
  endloop
endfacet
facet normal -0.793353340291271 0.608761429008674 -1.51742439340304e-014
  outer loop
    vertex 125.472243108684 75.54999998651 -5.30977544690755e-012
    vertex 125.202081450268 75.1979184584937 4.00000004503374
    vertex 125.472243108684 75.5499999865109 4.00000004503363
  endloop
endfacet
facet normal -0.608761429008698 0.793353340291253 -8.31533069898125e-014
  outer loop
    vertex 124.84999992225 74.9277568000765 -5.0910089938698e-012
    vertex 125.202081450268 75.1979184584937 4.00000004503374
    vertex 125.202081450268 75.1979184584929 -5.19763471161818e-012
  endloop
endfacet
facet normal -0.608761429008698 0.793353340291253 -8.31533069898125e-014
  outer loop
    vertex 125.202081450268 75.1979184584937 4.00000004503374
    vertex 124.84999992225 74.9277568000765 -5.0910089938698e-012
    vertex 124.849999922251 74.9277568000773 4.00000004503385
  endloop
endfacet
facet normal -0.382683432365101 0.923879532511282 -1.38834723453051e-013
  outer loop
    vertex 124.439992298925 74.7579260818186 -4.99716466012037e-012
    vertex 124.849999922251 74.9277568000773 4.00000004503385
    vertex 124.84999992225 74.9277568000765 -5.0910089938698e-012
  endloop
endfacet
facet normal -0.382683432365101 0.923879532511282 -1.38834723453051e-013
  outer loop
    vertex 124.849999922251 74.9277568000773 4.00000004503385
    vertex 124.439992298925 74.7579260818186 -4.99716466012037e-012
    vertex 124.439992298925 74.7579260818195 4.00000004503394
  endloop
endfacet
facet normal -0.130526192220053 0.99144486137381 -1.88488098900893e-013
  outer loop
    vertex 123.99999992225 74.6999999865101 -4.92249704662952e-012
    vertex 124.439992298925 74.7579260818195 4.00000004503394
    vertex 124.439992298925 74.7579260818186 -4.99716466012037e-012
  endloop
endfacet
facet normal -0.130526192220053 0.99144486137381 -1.88488098900893e-013
  outer loop
    vertex 124.439992298925 74.7579260818195 4.00000004503394
    vertex 123.99999992225 74.6999999865101 -4.92249704662952e-012
    vertex 123.999999922251 74.6999999865109 4.00000004503402
  endloop
endfacet
facet normal 0.130526192220046 0.991444861373811 -2.24560002652999e-013
  outer loop
    vertex 123.560007545576 74.7579260818186 -4.87209462786253e-012
    vertex 123.999999922251 74.6999999865109 4.00000004503402
    vertex 123.99999992225 74.6999999865101 -4.92249704662952e-012
  endloop
endfacet
facet normal 0.130526192220046 0.991444861373811 -2.24560002652999e-013
  outer loop
    vertex 123.999999922251 74.6999999865109 4.00000004503402
    vertex 123.560007545576 74.7579260818186 -4.87209462786253e-012
    vertex 123.560007545577 74.7579260818195 4.00000004503407
  endloop
endfacet
facet normal 0.382683432365101 0.923879532511282 -2.46752663315191e-013
  outer loop
    vertex 123.14999992225 74.9277568000765 -4.84939224536389e-012
    vertex 123.560007545577 74.7579260818195 4.00000004503407
    vertex 123.560007545576 74.7579260818186 -4.87209462786253e-012
  endloop
endfacet
facet normal 0.382683432365101 0.923879532511282 -2.46752663315191e-013
  outer loop
    vertex 123.560007545577 74.7579260818195 4.00000004503407
    vertex 123.14999992225 74.9277568000765 -4.84939224536389e-012
    vertex 123.149999922251 74.9277568000773 4.00000004503409
  endloop
endfacet
facet normal 0.991444861373814 -0.130526192220028 -1.37567886009056e-013
  outer loop
    vertex 112.357926017559 79.8399923631843 -5.16905835460657e-012
    vertex 112.299999922251 79.399999986511 4.00000004503291
    vertex 112.29999992225 79.3999999865101 -5.06866923723676e-012
  endloop
endfacet
facet normal 0.991444861373814 -0.130526192220028 -1.37567886009056e-013
  outer loop
    vertex 112.299999922251 79.399999986511 4.00000004503291
    vertex 112.357926017559 79.8399923631843 -5.16905835460657e-012
    vertex 112.35792601756 79.8399923631853 4.00000004503281
  endloop
endfacet
facet normal 0.923879532511277 -0.382683432365114 -6.78258158961385e-014
  outer loop
    vertex 112.527756735817 80.24999998651 -5.27907190164913e-012
    vertex 112.35792601756 79.8399923631853 4.00000004503281
    vertex 112.357926017559 79.8399923631843 -5.16905835460657e-012
  endloop
endfacet
facet normal 0.923879532511277 -0.382683432365114 -6.78258158961385e-014
  outer loop
    vertex 112.35792601756 79.8399923631853 4.00000004503281
    vertex 112.527756735817 80.24999998651 -5.27907190164913e-012
    vertex 112.527756735817 80.249999986511 4.0000000450327
  endloop
endfacet
facet normal 0.793353340291246 -0.608761429008706 6.53608791281746e-015
  outer loop
    vertex 112.797918394233 80.6020815145272 -5.3912126369385e-012
    vertex 112.527756735817 80.249999986511 4.0000000450327
    vertex 112.527756735817 80.24999998651 -5.27907190164913e-012
  endloop
endfacet
facet normal 0.793353340291246 -0.608761429008706 6.53608791281746e-015
  outer loop
    vertex 112.527756735817 80.249999986511 4.0000000450327
    vertex 112.797918394233 80.6020815145272 -5.3912126369385e-012
    vertex 112.797918394234 80.6020815145281 4.00000004503259
  endloop
endfacet
facet normal 0.608761429008698 -0.793353340291253 8.04494547234726e-014
  outer loop
    vertex 113.149999922251 80.8722431729445 4.00000004503249
    vertex 112.797918394233 80.6020815145272 -5.3912126369385e-012
    vertex 113.14999992225 80.8722431729436 -5.49783835468622e-012
  endloop
endfacet
facet normal 0.608761429008698 -0.793353340291253 8.04494547234726e-014
  outer loop
    vertex 112.797918394233 80.6020815145272 -5.3912126369385e-012
    vertex 113.149999922251 80.8722431729445 4.00000004503249
    vertex 112.797918394234 80.6020815145281 4.00000004503259
  endloop
endfacet
facet normal 0.382683432365101 -0.923879532511282 1.48883020268191e-013
  outer loop
    vertex 113.560007545577 81.0420738912024 4.00000004503239
    vertex 113.14999992225 80.8722431729436 -5.49783835468622e-012
    vertex 113.560007545576 81.0420738912015 -5.5916826884363e-012
  endloop
endfacet
facet normal 0.382683432365101 -0.923879532511282 1.48883020268191e-013
  outer loop
    vertex 113.14999992225 80.8722431729436 -5.49783835468622e-012
    vertex 113.560007545577 81.0420738912024 4.00000004503239
    vertex 113.149999922251 80.8722431729445 4.00000004503249
  endloop
endfacet
facet normal 0.130526192220053 -0.99144486137381 2.071745187265e-013
  outer loop
    vertex 113.999999922251 81.099999986511 4.00000004503232
    vertex 113.560007545576 81.0420738912015 -5.5916826884363e-012
    vertex 113.99999992225 81.09999998651 -5.66635030192715e-012
  endloop
endfacet
facet normal 0.130526192220053 -0.99144486137381 2.071745187265e-013
  outer loop
    vertex 113.560007545576 81.0420738912015 -5.5916826884363e-012
    vertex 113.999999922251 81.099999986511 4.00000004503232
    vertex 113.560007545577 81.0420738912024 4.00000004503239
  endloop
endfacet
facet normal -0.130526192220053 -0.99144486137381 2.51344247397365e-013
  outer loop
    vertex 114.439992298925 81.0420738912024 4.00000004503227
    vertex 113.99999992225 81.09999998651 -5.66635030192715e-012
    vertex 114.439992298925 81.0420738912015 -5.71675272069415e-012
  endloop
endfacet
facet normal -0.130526192220053 -0.99144486137381 2.51344247397365e-013
  outer loop
    vertex 113.99999992225 81.09999998651 -5.66635030192715e-012
    vertex 114.439992298925 81.0420738912024 4.00000004503227
    vertex 113.999999922251 81.099999986511 4.00000004503232
  endloop
endfacet
facet normal -0.382683432365083 -0.92387953251129 2.78384404376611e-013
  outer loop
    vertex 114.849999922251 80.8722431729445 4.00000004503224
    vertex 114.439992298925 81.0420738912015 -5.71675272069415e-012
    vertex 114.84999992225 80.8722431729436 -5.73945510319213e-012
  endloop
endfacet
facet normal -0.382683432365083 -0.92387953251129 2.78384404376611e-013
  outer loop
    vertex 114.439992298925 81.0420738912015 -5.71675272069415e-012
    vertex 114.849999922251 80.8722431729445 4.00000004503224
    vertex 114.439992298925 81.0420738912024 4.00000004503227
  endloop
endfacet
facet normal -0.608761429008722 -0.793353340291234 2.86452602165755e-013
  outer loop
    vertex 115.202081450267 80.6020815145272 -5.73291031957175e-012
    vertex 114.849999922251 80.8722431729445 4.00000004503224
    vertex 114.84999992225 80.8722431729436 -5.73945510319213e-012
  endloop
endfacet
facet normal -0.608761429008722 -0.793353340291234 2.86452602165755e-013
  outer loop
    vertex 114.849999922251 80.8722431729445 4.00000004503224
    vertex 115.202081450267 80.6020815145272 -5.73291031957175e-012
    vertex 115.202081450268 80.6020815145281 4.00000004503225
  endloop
endfacet
facet normal -0.793353340291246 -0.608761429008707 2.75003415560075e-013
  outer loop
    vertex 115.472243108685 80.249999986511 4.00000004503229
    vertex 115.202081450267 80.6020815145272 -5.73291031957175e-012
    vertex 115.472243108684 80.24999998651 -5.6975643860207e-012
  endloop
endfacet
facet normal -0.793353340291246 -0.608761429008707 2.75003415560075e-013
  outer loop
    vertex 115.202081450267 80.6020815145272 -5.73291031957175e-012
    vertex 115.472243108685 80.249999986511 4.00000004503229
    vertex 115.202081450268 80.6020815145281 4.00000004503225
  endloop
endfacet
facet normal -0.923879532511277 -0.382683432365114 2.44807940961748e-013
  outer loop
    vertex 115.642073826942 79.8399923631853 4.00000004503235
    vertex 115.472243108684 80.24999998651 -5.6975643860207e-012
    vertex 115.642073826942 79.8399923631843 -5.63582606949832e-012
  endloop
endfacet
facet normal -0.923879532511277 -0.382683432365114 2.44807940961748e-013
  outer loop
    vertex 115.472243108684 80.24999998651 -5.6975643860207e-012
    vertex 115.642073826942 79.8399923631853 4.00000004503235
    vertex 115.472243108685 80.249999986511 4.00000004503229
  endloop
endfacet
facet normal -0.991444861373814 -0.130526192220028 1.97932774585453e-013
  outer loop
    vertex 115.699999922251 79.399999986511 4.00000004503243
    vertex 115.642073826942 79.8399923631843 -5.63582606949832e-012
    vertex 115.69999992225 79.3999999865101 -5.55190273424858e-012
  endloop
endfacet
facet normal -0.991444861373814 -0.130526192220028 1.97932774585453e-013
  outer loop
    vertex 115.642073826942 79.8399923631843 -5.63582606949832e-012
    vertex 115.699999922251 79.399999986511 4.00000004503243
    vertex 115.642073826942 79.8399923631853 4.00000004503235
  endloop
endfacet
facet normal -0.991444861373814 0.130526192220028 1.37567770671433e-013
  outer loop
    vertex 115.642073826942 78.9600076098367 4.00000004503253
    vertex 115.69999992225 79.3999999865101 -5.55190273424858e-012
    vertex 115.642073826942 78.9600076098358 -5.45151361687877e-012
  endloop
endfacet
facet normal -0.991444861373814 0.130526192220028 1.37567770671433e-013
  outer loop
    vertex 115.69999992225 79.3999999865101 -5.55190273424858e-012
    vertex 115.642073826942 78.9600076098367 4.00000004503253
    vertex 115.699999922251 79.399999986511 4.00000004503243
  endloop
endfacet
facet normal -0.923879532511277 0.382683432365114 6.7826449429295e-014
  outer loop
    vertex 115.472243108685 78.549999986511 4.00000004503264
    vertex 115.642073826942 78.9600076098358 -5.45151361687877e-012
    vertex 115.472243108684 78.54999998651 -5.34150006983621e-012
  endloop
endfacet
facet normal -0.923879532511277 0.382683432365114 6.7826449429295e-014
  outer loop
    vertex 115.642073826942 78.9600076098358 -5.45151361687877e-012
    vertex 115.472243108685 78.549999986511 4.00000004503264
    vertex 115.642073826942 78.9600076098367 4.00000004503253
  endloop
endfacet
facet normal -0.793353340291246 0.608761429008707 -6.53608791281748e-015
  outer loop
    vertex 115.202081450268 78.1979184584938 4.00000004503275
    vertex 115.472243108684 78.54999998651 -5.34150006983621e-012
    vertex 115.202081450267 78.1979184584929 -5.22935933454684e-012
  endloop
endfacet
facet normal -0.793353340291246 0.608761429008707 -6.53608791281748e-015
  outer loop
    vertex 115.472243108684 78.54999998651 -5.34150006983621e-012
    vertex 115.202081450268 78.1979184584938 4.00000004503275
    vertex 115.472243108685 78.549999986511 4.00000004503264
  endloop
endfacet
facet normal -0.608761429008698 0.793353340291253 -8.04529230850671e-014
  outer loop
    vertex 114.84999992225 77.9277568000765 -5.12273361679847e-012
    vertex 115.202081450268 78.1979184584938 4.00000004503275
    vertex 115.202081450267 78.1979184584929 -5.22935933454684e-012
  endloop
endfacet
facet normal -0.608761429008698 0.793353340291253 -8.04529230850671e-014
  outer loop
    vertex 115.202081450268 78.1979184584938 4.00000004503275
    vertex 114.84999992225 77.9277568000765 -5.12273361679847e-012
    vertex 114.849999922251 77.9277568000774 4.00000004503286
  endloop
endfacet
facet normal -0.382683432365101 0.923879532511282 -1.48882386735035e-013
  outer loop
    vertex 114.439992298925 77.7579260818186 -5.02888928304904e-012
    vertex 114.849999922251 77.9277568000774 4.00000004503286
    vertex 114.84999992225 77.9277568000765 -5.12273361679847e-012
  endloop
endfacet
facet normal -0.382683432365101 0.923879532511282 -1.48882386735035e-013
  outer loop
    vertex 114.849999922251 77.9277568000774 4.00000004503286
    vertex 114.439992298925 77.7579260818186 -5.02888928304904e-012
    vertex 114.439992298925 77.7579260818196 4.00000004503295
  endloop
endfacet
facet normal -0.130526192220053 0.99144486137381 -2.071745187265e-013
  outer loop
    vertex 113.99999992225 77.6999999865101 -4.95422166955819e-012
    vertex 114.439992298925 77.7579260818196 4.00000004503295
    vertex 114.439992298925 77.7579260818186 -5.02888928304904e-012
  endloop
endfacet
facet normal -0.130526192220053 0.99144486137381 -2.071745187265e-013
  outer loop
    vertex 114.439992298925 77.7579260818196 4.00000004503295
    vertex 113.99999992225 77.6999999865101 -4.95422166955819e-012
    vertex 113.999999922251 77.699999986511 4.00000004503303
  endloop
endfacet
facet normal 0.130526192220053 0.99144486137381 -2.51343676766337e-013
  outer loop
    vertex 113.560007545576 77.7579260818186 -4.9038192507912e-012
    vertex 113.999999922251 77.699999986511 4.00000004503303
    vertex 113.99999992225 77.6999999865101 -4.95422166955819e-012
  endloop
endfacet
facet normal 0.130526192220053 0.99144486137381 -2.51343676766337e-013
  outer loop
    vertex 113.999999922251 77.699999986511 4.00000004503303
    vertex 113.560007545576 77.7579260818186 -4.9038192507912e-012
    vertex 113.560007545577 77.7579260818196 4.00000004503308
  endloop
endfacet
facet normal 0.382683432365083 0.92387953251129 -2.783847508674e-013
  outer loop
    vertex 113.14999992225 77.9277568000765 -4.88111686829255e-012
    vertex 113.560007545577 77.7579260818196 4.00000004503308
    vertex 113.560007545576 77.7579260818186 -4.9038192507912e-012
  endloop
endfacet
facet normal 0.382683432365083 0.92387953251129 -2.783847508674e-013
  outer loop
    vertex 113.560007545577 77.7579260818196 4.00000004503308
    vertex 113.14999992225 77.9277568000765 -4.88111686829255e-012
    vertex 113.149999922251 77.9277568000774 4.0000000450331
  endloop
endfacet
facet normal 0.608761429008722 0.793353340291234 -2.86453529352413e-013
  outer loop
    vertex 112.797918394234 78.1979184584938 4.00000004503309
    vertex 113.14999992225 77.9277568000765 -4.88111686829255e-012
    vertex 112.797918394233 78.1979184584929 -4.88766165191294e-012
  endloop
endfacet
facet normal 0.608761429008722 0.793353340291234 -2.86453529352413e-013
  outer loop
    vertex 113.14999992225 77.9277568000765 -4.88111686829255e-012
    vertex 112.797918394234 78.1979184584938 4.00000004503309
    vertex 113.149999922251 77.9277568000774 4.0000000450331
  endloop
endfacet
facet normal 0.793353340291246 0.608761429008707 -2.75001921764317e-013
  outer loop
    vertex 112.527756735817 78.54999998651 -4.92300758546464e-012
    vertex 112.797918394234 78.1979184584938 4.00000004503309
    vertex 112.797918394233 78.1979184584929 -4.88766165191294e-012
  endloop
endfacet
facet normal 0.793353340291246 0.608761429008707 -2.75001921764317e-013
  outer loop
    vertex 112.797918394234 78.1979184584938 4.00000004503309
    vertex 112.527756735817 78.54999998651 -4.92300758546464e-012
    vertex 112.527756735817 78.549999986511 4.00000004503306
  endloop
endfacet
facet normal 0.923879532511277 0.382683432365114 -2.44807940961747e-013
  outer loop
    vertex 112.357926017559 78.9600076098358 -4.98474590198702e-012
    vertex 112.527756735817 78.549999986511 4.00000004503306
    vertex 112.527756735817 78.54999998651 -4.92300758546464e-012
  endloop
endfacet
facet normal 0.923879532511277 0.382683432365114 -2.44807940961747e-013
  outer loop
    vertex 112.527756735817 78.549999986511 4.00000004503306
    vertex 112.357926017559 78.9600076098358 -4.98474590198702e-012
    vertex 112.35792601756 78.9600076098367 4.000000045033
  endloop
endfacet
facet normal 0.991444861373814 0.130526192220028 -1.97932803419859e-013
  outer loop
    vertex 112.29999992225 79.3999999865101 -5.06866923723676e-012
    vertex 112.35792601756 78.9600076098367 4.000000045033
    vertex 112.357926017559 78.9600076098358 -4.98474590198702e-012
  endloop
endfacet
facet normal 0.991444861373814 0.130526192220028 -1.97932803419859e-013
  outer loop
    vertex 112.35792601756 78.9600076098367 4.000000045033
    vertex 112.29999992225 79.3999999865101 -5.06866923723676e-012
    vertex 112.299999922251 79.399999986511 4.00000004503291
  endloop
endfacet
facet normal -1.11723823388507e-012 0.983869910210181 -0.178885437593477
  outer loop
    vertex 148.199999922251 71.9999999859886 26.0000000450314
    vertex 150.199999922253 68.0000000000017 4.00000004503465
    vertex 148.199999922251 67.9999999999975 4.00000004503134
  endloop
endfacet
facet normal -1.11723823388507e-012 0.983869910210181 -0.178885437593477
  outer loop
    vertex 150.199999922253 68.0000000000017 4.00000004503465
    vertex 148.199999922251 71.9999999859886 26.0000000450314
    vertex 150.199999922251 71.9999999859895 26.0000000450314
  endloop
endfacet
facet normal -1.0 -2.18597548148296e-014 7.41266094833092e-016
  outer loop
    vertex 148.199999922251 71.9999999859886 26.0000000450314
    vertex 148.199999922251 62.3999999859888 21.0000000450309
    vertex 148.199999922251 62.3999999859886 26.0000000450309
  endloop
endfacet
facet normal -1.0 -2.18597548148296e-014 7.41266094833092e-016
  outer loop
    vertex 148.199999922251 62.3999999859888 21.0000000450309
    vertex 148.199999922251 71.9999999859886 26.0000000450314
    vertex 148.199999922251 62.3999999859893 9.00000004503095
  endloop
endfacet
facet normal -1.0 -2.18597548148296e-014 7.41266094833092e-016
  outer loop
    vertex 148.199999922251 62.3999999859893 9.00000004503095
    vertex 148.199999922251 71.9999999859886 26.0000000450314
    vertex 148.199999922251 62.3999999859895 4.00000004503095
  endloop
endfacet
facet normal -1.0 -2.18597548148296e-014 7.41266094833092e-016
  outer loop
    vertex 148.199999922251 62.3999999859895 4.00000004503095
    vertex 148.199999922251 71.9999999859886 26.0000000450314
    vertex 148.199999922251 67.9999999999975 4.00000004503134
  endloop
endfacet
facet normal -1.0 -2.18597548148296e-014 7.41266094833092e-016
  outer loop
    vertex 148.199999922251 62.3999999859888 21.0000000450309
    vertex 148.199999922251 60.3999999859893 9.00000004503091
    vertex 148.199999922251 60.3999999859888 21.0000000450309
  endloop
endfacet
facet normal -1.0 -2.18597548148296e-014 7.41266094833092e-016
  outer loop
    vertex 148.199999922251 60.3999999859893 9.00000004503091
    vertex 148.199999922251 62.3999999859888 21.0000000450309
    vertex 148.199999922251 62.3999999859893 9.00000004503095
  endloop
endfacet
facet normal -3.13380153264773e-014 5.57588244762779e-014 -1.0
  outer loop
    vertex 148.199999922251 71.9999999859886 26.0000000450314
    vertex 109.999999922251 64.9999999859886 26.0000000450323
    vertex 109.999999922251 71.9999999859886 26.0000000450327
  endloop
endfacet
facet normal -3.13380153264773e-014 5.57588244762779e-014 -1.0
  outer loop
    vertex 109.999999922251 64.9999999859886 26.0000000450323
    vertex 107.999999922251 62.3999999859885 26.0000000450322
    vertex 107.999999922251 64.9999999859886 26.0000000450323
  endloop
endfacet
facet normal -3.13380153264773e-014 5.57588244762779e-014 -1.0
  outer loop
    vertex 107.999999922251 62.3999999859885 26.0000000450322
    vertex 109.999999922251 64.9999999859886 26.0000000450323
    vertex 148.199999922251 62.3999999859886 26.0000000450309
  endloop
endfacet
facet normal -3.13380153264773e-014 5.57588244762779e-014 -1.0
  outer loop
    vertex 148.199999922251 62.3999999859886 26.0000000450309
    vertex 109.999999922251 64.9999999859886 26.0000000450323
    vertex 148.199999922251 71.9999999859886 26.0000000450314
  endloop
endfacet
facet normal 1.0 2.57825506975808e-014 1.33525790214199e-029
  outer loop
    vertex 109.999999922251 71.9999999859887 4.00000004503269
    vertex 109.999999922251 64.9999999859886 26.0000000450323
    vertex 109.999999922251 64.9999999859886 4.0000000450323
  endloop
endfacet
facet normal 1.0 2.57825506975808e-014 1.33525790214199e-029
  outer loop
    vertex 109.999999922251 64.9999999859886 26.0000000450323
    vertex 109.999999922251 71.9999999859887 4.00000004503269
    vertex 109.999999922251 71.9999999859886 26.0000000450327
  endloop
endfacet
facet normal 4.51194637207662e-014 -1.0 0.0
  outer loop
    vertex 109.999999922251 64.9999999859886 26.0000000450323
    vertex 107.999999922251 64.9999999859886 4.0000000450323
    vertex 109.999999922251 64.9999999859886 4.0000000450323
  endloop
endfacet
facet normal 4.51194637207662e-014 -1.0 0.0
  outer loop
    vertex 107.999999922251 64.9999999859886 4.0000000450323
    vertex 109.999999922251 64.9999999859886 26.0000000450323
    vertex 107.999999922251 64.9999999859886 26.0000000450323
  endloop
endfacet
facet normal -1.44532775591945e-014 1.0 2.05300744557469e-014
  outer loop
    vertex 107.999999922251 62.3999999859885 26.0000000450322
    vertex 145.199999922251 62.3999999859893 9.00000004503095
    vertex 107.999999922251 62.3999999859886 4.00000004503218
  endloop
endfacet
facet normal -1.44532775591945e-014 1.0 2.05300744557469e-014
  outer loop
    vertex 145.199999922251 62.3999999859893 9.00000004503095
    vertex 107.999999922251 62.3999999859885 26.0000000450322
    vertex 145.199999922251 62.3999999859893 21.0000000450309
  endloop
endfacet
facet normal -1.44532775591945e-014 1.0 2.05300744557469e-014
  outer loop
    vertex 145.199999922251 62.3999999859893 21.0000000450309
    vertex 107.999999922251 62.3999999859885 26.0000000450322
    vertex 148.199999922251 62.3999999859888 21.0000000450309
  endloop
endfacet
facet normal -1.44532775591945e-014 1.0 2.05300744557469e-014
  outer loop
    vertex 148.199999922251 62.3999999859888 21.0000000450309
    vertex 107.999999922251 62.3999999859885 26.0000000450322
    vertex 148.199999922251 62.3999999859886 26.0000000450309
  endloop
endfacet
facet normal -1.44532775591945e-014 1.0 2.05300744557469e-014
  outer loop
    vertex 107.999999922251 62.3999999859886 4.00000004503218
    vertex 148.199999922251 62.3999999859893 9.00000004503095
    vertex 148.199999922251 62.3999999859895 4.00000004503095
  endloop
endfacet
facet normal -1.44532775591945e-014 1.0 2.05300744557469e-014
  outer loop
    vertex 148.199999922251 62.3999999859893 9.00000004503095
    vertex 107.999999922251 62.3999999859886 4.00000004503218
    vertex 145.199999922251 62.3999999859893 9.00000004503095
  endloop
endfacet
facet normal -5.17722067964748e-032 -2.1149748619109e-014 1.0
  outer loop
    vertex 148.199999922251 60.3999999859893 9.00000004503091
    vertex 145.199999922251 62.3999999859893 9.00000004503095
    vertex 145.199999922251 60.3999999859893 9.00000004503091
  endloop
endfacet
facet normal -5.17722067964748e-032 -2.1149748619109e-014 1.0
  outer loop
    vertex 145.199999922251 62.3999999859893 9.00000004503095
    vertex 148.199999922251 60.3999999859893 9.00000004503091
    vertex 148.199999922251 62.3999999859893 9.00000004503095
  endloop
endfacet
facet normal 1.0 -9.02389274415319e-014 -7.51042146477097e-031
  outer loop
    vertex 145.199999922251 62.3999999859893 9.00000004503095
    vertex 145.199999922251 60.3999999859893 21.0000000450309
    vertex 145.199999922251 60.3999999859893 9.00000004503091
  endloop
endfacet
facet normal 1.0 -9.02389274415319e-014 -7.51042146477097e-031
  outer loop
    vertex 145.199999922251 60.3999999859893 21.0000000450309
    vertex 145.199999922251 62.3999999859893 9.00000004503095
    vertex 145.199999922251 62.3999999859893 21.0000000450309
  endloop
endfacet
facet normal 3.11750830100754e-027 1.97397653778351e-014 -1.0
  outer loop
    vertex 145.199999922251 62.3999999859893 21.0000000450309
    vertex 148.199999922251 60.3999999859888 21.0000000450309
    vertex 145.199999922251 60.3999999859893 21.0000000450309
  endloop
endfacet
facet normal 3.11750830100754e-027 1.97397653778351e-014 -1.0
  outer loop
    vertex 148.199999922251 60.3999999859888 21.0000000450309
    vertex 145.199999922251 62.3999999859893 21.0000000450309
    vertex 148.199999922251 62.3999999859888 21.0000000450309
  endloop
endfacet
facet normal 3.72791303039621e-014 -1.58101642097506e-014 1.0
  outer loop
    vertex 107.999999922251 62.3999999859886 4.00000004503218
    vertex 109.999999922251 64.9999999859886 4.0000000450323
    vertex 107.999999922251 64.9999999859886 4.0000000450323
  endloop
endfacet
facet normal 3.72791303039621e-014 -1.58101642097506e-014 1.0
  outer loop
    vertex 109.999999922251 64.9999999859886 4.0000000450323
    vertex 107.999999922251 62.3999999859886 4.00000004503218
    vertex 148.199999922251 62.3999999859895 4.00000004503095
  endloop
endfacet
facet normal 3.72791303039621e-014 -1.58101642097506e-014 1.0
  outer loop
    vertex 109.999999922251 64.9999999859886 4.0000000450323
    vertex 148.199999922251 62.3999999859895 4.00000004503095
    vertex 113.149999922251 77.9277568000774 4.0000000450331
  endloop
endfacet
facet normal 3.72791303039621e-014 -1.58101642097506e-014 1.0
  outer loop
    vertex 109.999999922251 64.9999999859886 4.0000000450323
    vertex 113.149999922251 77.9277568000774 4.0000000450331
    vertex 112.797918394234 78.1979184584938 4.00000004503309
  endloop
endfacet
facet normal 3.72791303039621e-014 -1.58101642097506e-014 1.0
  outer loop
    vertex 109.999999922251 64.9999999859886 4.0000000450323
    vertex 112.797918394234 78.1979184584938 4.00000004503309
    vertex 112.527756735817 78.549999986511 4.00000004503306
  endloop
endfacet
facet normal 3.72791303039621e-014 -1.58101642097506e-014 1.0
  outer loop
    vertex 109.999999922251 64.9999999859886 4.0000000450323
    vertex 112.527756735817 78.549999986511 4.00000004503306
    vertex 112.35792601756 78.9600076098367 4.000000045033
  endloop
endfacet
facet normal 3.72791303039621e-014 -1.58101642097506e-014 1.0
  outer loop
    vertex 109.999999922251 64.9999999859886 4.0000000450323
    vertex 112.35792601756 78.9600076098367 4.000000045033
    vertex 112.299999922251 79.399999986511 4.00000004503291
  endloop
endfacet
facet normal 3.72791303039621e-014 -1.58101642097506e-014 1.0
  outer loop
    vertex 113.149999922251 77.9277568000774 4.0000000450331
    vertex 148.199999922251 62.3999999859895 4.00000004503095
    vertex 113.560007545577 77.7579260818196 4.00000004503308
  endloop
endfacet
facet normal 3.72791303039621e-014 -1.58101642097506e-014 1.0
  outer loop
    vertex 113.560007545577 77.7579260818196 4.00000004503308
    vertex 148.199999922251 62.3999999859895 4.00000004503095
    vertex 113.999999922251 77.699999986511 4.00000004503303
  endloop
endfacet
facet normal 3.72791303039621e-014 -1.58101642097506e-014 1.0
  outer loop
    vertex 113.999999922251 77.699999986511 4.00000004503303
    vertex 148.199999922251 62.3999999859895 4.00000004503095
    vertex 114.439992298925 77.7579260818196 4.00000004503295
  endloop
endfacet
facet normal 3.72791303039621e-014 -1.58101642097506e-014 1.0
  outer loop
    vertex 114.439992298925 77.7579260818196 4.00000004503295
    vertex 148.199999922251 62.3999999859895 4.00000004503095
    vertex 114.849999922251 77.9277568000774 4.00000004503286
  endloop
endfacet
facet normal 3.72791303039621e-014 -1.58101642097506e-014 1.0
  outer loop
    vertex 114.849999922251 77.9277568000774 4.00000004503286
    vertex 148.199999922251 62.3999999859895 4.00000004503095
    vertex 115.202081450268 78.1979184584938 4.00000004503275
  endloop
endfacet
facet normal 3.72791303039621e-014 -1.58101642097506e-014 1.0
  outer loop
    vertex 115.202081450268 78.1979184584938 4.00000004503275
    vertex 148.199999922251 62.3999999859895 4.00000004503095
    vertex 115.472243108685 78.549999986511 4.00000004503264
  endloop
endfacet
facet normal 3.72791303039621e-014 -1.58101642097506e-014 1.0
  outer loop
    vertex 115.472243108685 78.549999986511 4.00000004503264
    vertex 148.199999922251 62.3999999859895 4.00000004503095
    vertex 123.149999922251 74.9277568000773 4.00000004503409
  endloop
endfacet
facet normal 3.72791303039621e-014 -1.58101642097506e-014 1.0
  outer loop
    vertex 115.472243108685 78.549999986511 4.00000004503264
    vertex 123.149999922251 74.9277568000773 4.00000004503409
    vertex 115.642073826942 78.9600076098367 4.00000004503253
  endloop
endfacet
facet normal 3.72791303039621e-014 -1.58101642097506e-014 1.0
  outer loop
    vertex 115.642073826942 78.9600076098367 4.00000004503253
    vertex 123.149999922251 74.9277568000773 4.00000004503409
    vertex 115.699999922251 79.399999986511 4.00000004503243
  endloop
endfacet
facet normal 3.72791303039621e-014 -1.58101642097506e-014 1.0
  outer loop
    vertex 115.699999922251 79.399999986511 4.00000004503243
    vertex 123.149999922251 74.9277568000773 4.00000004503409
    vertex 122.797918394234 75.1979184584937 4.00000004503408
  endloop
endfacet
facet normal 3.72791303039621e-014 -1.58101642097506e-014 1.0
  outer loop
    vertex 115.699999922251 79.399999986511 4.00000004503243
    vertex 122.797918394234 75.1979184584937 4.00000004503408
    vertex 122.527756735817 75.5499999865109 4.00000004503405
  endloop
endfacet
facet normal 3.72791303039621e-014 -1.58101642097506e-014 1.0
  outer loop
    vertex 115.699999922251 79.399999986511 4.00000004503243
    vertex 122.527756735817 75.5499999865109 4.00000004503405
    vertex 116.696331272769 85.399999986511 4.00000004503266
  endloop
endfacet
facet normal 3.72791303039621e-014 -1.58101642097506e-014 1.0
  outer loop
    vertex 116.696331272769 85.399999986511 4.00000004503266
    vertex 122.527756735817 75.5499999865109 4.00000004503405
    vertex 122.357926017559 75.9600076098366 4.00000004503399
  endloop
endfacet
facet normal 3.72791303039621e-014 -1.58101642097506e-014 1.0
  outer loop
    vertex 116.696331272769 85.399999986511 4.00000004503266
    vertex 122.357926017559 75.9600076098366 4.00000004503399
    vertex 122.299999922251 76.3999999865109 4.0000000450339
  endloop
endfacet
facet normal 3.72791303039621e-014 -1.58101642097506e-014 1.0
  outer loop
    vertex 123.149999922251 74.9277568000773 4.00000004503409
    vertex 148.199999922251 62.3999999859895 4.00000004503095
    vertex 123.560007545577 74.7579260818195 4.00000004503407
  endloop
endfacet
facet normal 3.72791303039621e-014 -1.58101642097506e-014 1.0
  outer loop
    vertex 123.560007545577 74.7579260818195 4.00000004503407
    vertex 148.199999922251 62.3999999859895 4.00000004503095
    vertex 123.999999922251 74.6999999865109 4.00000004503402
  endloop
endfacet
facet normal 3.72791303039621e-014 -1.58101642097506e-014 1.0
  outer loop
    vertex 123.999999922251 74.6999999865109 4.00000004503402
    vertex 148.199999922251 62.3999999859895 4.00000004503095
    vertex 124.439992298925 74.7579260818195 4.00000004503394
  endloop
endfacet
facet normal 3.72791303039621e-014 -1.58101642097506e-014 1.0
  outer loop
    vertex 124.439992298925 74.7579260818195 4.00000004503394
    vertex 148.199999922251 62.3999999859895 4.00000004503095
    vertex 124.849999922251 74.9277568000773 4.00000004503385
  endloop
endfacet
facet normal 3.72791303039621e-014 -1.58101642097506e-014 1.0
  outer loop
    vertex 124.849999922251 74.9277568000773 4.00000004503385
    vertex 148.199999922251 62.3999999859895 4.00000004503095
    vertex 125.202081450268 75.1979184584937 4.00000004503374
  endloop
endfacet
facet normal 3.72791303039621e-014 -1.58101642097506e-014 1.0
  outer loop
    vertex 125.202081450268 75.1979184584937 4.00000004503374
    vertex 148.199999922251 62.3999999859895 4.00000004503095
    vertex 125.472243108684 75.5499999865109 4.00000004503363
  endloop
endfacet
facet normal 3.72791303039621e-014 -1.58101642097506e-014 1.0
  outer loop
    vertex 125.472243108684 75.5499999865109 4.00000004503363
    vertex 148.199999922251 62.3999999859895 4.00000004503095
    vertex 125.642073826942 75.9600076098366 4.00000004503352
  endloop
endfacet
facet normal 3.72791303039621e-014 -1.58101642097506e-014 1.0
  outer loop
    vertex 125.642073826942 75.9600076098366 4.00000004503352
    vertex 148.199999922251 62.3999999859895 4.00000004503095
    vertex 125.699999922251 76.3999999865109 4.00000004503342
  endloop
endfacet
facet normal 3.72791303039621e-014 -1.58101642097506e-014 1.0
  outer loop
    vertex 125.699999922251 76.3999999865109 4.00000004503342
    vertex 148.199999922251 62.3999999859895 4.00000004503095
    vertex 148.199999922251 67.9999999999975 4.00000004503134
  endloop
endfacet
facet normal 3.72791303039621e-014 -1.58101642097506e-014 1.0
  outer loop
    vertex 116.696331272769 85.399999986511 4.00000004503266
    vertex 124.439992298925 78.0420738912023 4.00000004503326
    vertex 150.199999922268 69.1177625853613 4.00000004502662
  endloop
endfacet
facet normal 3.72791303039621e-014 -1.58101642097506e-014 1.0
  outer loop
    vertex 124.439992298925 78.0420738912023 4.00000004503326
    vertex 116.696331272769 85.399999986511 4.00000004503266
    vertex 123.999999922251 78.0999999865109 4.00000004503331
  endloop
endfacet
facet normal 3.72791303039621e-014 -1.58101642097506e-014 1.0
  outer loop
    vertex 123.999999922251 78.0999999865109 4.00000004503331
    vertex 116.696331272769 85.399999986511 4.00000004503266
    vertex 123.560007545577 78.0420738912023 4.00000004503338
  endloop
endfacet
facet normal 3.72791303039621e-014 -1.58101642097506e-014 1.0
  outer loop
    vertex 123.560007545577 78.0420738912023 4.00000004503338
    vertex 116.696331272769 85.399999986511 4.00000004503266
    vertex 123.149999922251 77.8722431729444 4.00000004503347
  endloop
endfacet
facet normal 3.72791303039621e-014 -1.58101642097506e-014 1.0
  outer loop
    vertex 123.149999922251 77.8722431729444 4.00000004503347
    vertex 116.696331272769 85.399999986511 4.00000004503266
    vertex 122.797918394234 77.602081514528 4.00000004503358
  endloop
endfacet
facet normal 3.72791303039621e-014 -1.58101642097506e-014 1.0
  outer loop
    vertex 122.797918394234 77.602081514528 4.00000004503358
    vertex 116.696331272769 85.399999986511 4.00000004503266
    vertex 122.527756735817 77.2499999865109 4.00000004503369
  endloop
endfacet
facet normal 3.72791303039621e-014 -1.58101642097506e-014 1.0
  outer loop
    vertex 122.527756735817 77.2499999865109 4.00000004503369
    vertex 116.696331272769 85.399999986511 4.00000004503266
    vertex 122.357926017559 76.8399923631852 4.0000000450338
  endloop
endfacet
facet normal 3.72791303039621e-014 -1.58101642097506e-014 1.0
  outer loop
    vertex 122.357926017559 76.8399923631852 4.0000000450338
    vertex 116.696331272769 85.399999986511 4.00000004503266
    vertex 122.299999922251 76.3999999865109 4.0000000450339
  endloop
endfacet
facet normal 3.72791303039621e-014 -1.58101642097506e-014 1.0
  outer loop
    vertex 150.199999922268 69.1177625853613 4.00000004502662
    vertex 124.439992298925 78.0420738912023 4.00000004503326
    vertex 124.849999922251 77.8722431729444 4.00000004503323
  endloop
endfacet
facet normal 3.72791303039621e-014 -1.58101642097506e-014 1.0
  outer loop
    vertex 150.199999922268 69.1177625853613 4.00000004502662
    vertex 124.849999922251 77.8722431729444 4.00000004503323
    vertex 125.202081450268 77.602081514528 4.00000004503324
  endloop
endfacet
facet normal 3.72791303039621e-014 -1.58101642097506e-014 1.0
  outer loop
    vertex 150.199999922268 69.1177625853613 4.00000004502662
    vertex 125.202081450268 77.602081514528 4.00000004503324
    vertex 125.472243108684 77.2499999865109 4.00000004503327
  endloop
endfacet
facet normal 3.72791303039621e-014 -1.58101642097506e-014 1.0
  outer loop
    vertex 150.199999922268 69.1177625853613 4.00000004502662
    vertex 125.472243108684 77.2499999865109 4.00000004503327
    vertex 125.642073826942 76.8399923631852 4.00000004503334
  endloop
endfacet
facet normal 3.72791303039621e-014 -1.58101642097506e-014 1.0
  outer loop
    vertex 150.199999922268 69.1177625853613 4.00000004502662
    vertex 125.642073826942 76.8399923631852 4.00000004503334
    vertex 125.699999922251 76.3999999865109 4.00000004503342
  endloop
endfacet
facet normal 3.72791303039621e-014 -1.58101642097506e-014 1.0
  outer loop
    vertex 150.199999922268 69.1177625853613 4.00000004502662
    vertex 125.699999922251 76.3999999865109 4.00000004503342
    vertex 148.199999922251 67.9999999999975 4.00000004503134
  endloop
endfacet
facet normal 3.72791303039621e-014 -1.58101642097506e-014 1.0
  outer loop
    vertex 150.199999922268 69.1177625853613 4.00000004502662
    vertex 148.199999922251 67.9999999999975 4.00000004503134
    vertex 150.199999922253 68.0000000000017 4.00000004503465
  endloop
endfacet
facet normal 3.72791303039621e-014 -1.58101642097506e-014 1.0
  outer loop
    vertex 109.999999922251 71.9999999859887 4.00000004503269
    vertex 107.999999922251 85.3999999865108 4.00000004503266
    vertex 107.999999922251 71.9999999859886 4.00000004503245
  endloop
endfacet
facet normal 3.72791303039621e-014 -1.58101642097506e-014 1.0
  outer loop
    vertex 107.999999922251 85.3999999865108 4.00000004503266
    vertex 109.999999922251 71.9999999859887 4.00000004503269
    vertex 112.35792601756 79.8399923631853 4.00000004503281
  endloop
endfacet
facet normal 3.72791303039621e-014 -1.58101642097506e-014 1.0
  outer loop
    vertex 107.999999922251 85.3999999865108 4.00000004503266
    vertex 112.35792601756 79.8399923631853 4.00000004503281
    vertex 112.527756735817 80.249999986511 4.0000000450327
  endloop
endfacet
facet normal 3.72791303039621e-014 -1.58101642097506e-014 1.0
  outer loop
    vertex 107.999999922251 85.3999999865108 4.00000004503266
    vertex 112.527756735817 80.249999986511 4.0000000450327
    vertex 112.797918394234 80.6020815145281 4.00000004503259
  endloop
endfacet
facet normal 3.72791303039621e-014 -1.58101642097506e-014 1.0
  outer loop
    vertex 107.999999922251 85.3999999865108 4.00000004503266
    vertex 112.797918394234 80.6020815145281 4.00000004503259
    vertex 116.696331272769 85.399999986511 4.00000004503266
  endloop
endfacet
facet normal 3.72791303039621e-014 -1.58101642097506e-014 1.0
  outer loop
    vertex 112.35792601756 79.8399923631853 4.00000004503281
    vertex 109.999999922251 71.9999999859887 4.00000004503269
    vertex 109.999999922251 64.9999999859886 4.0000000450323
  endloop
endfacet
facet normal 3.72791303039621e-014 -1.58101642097506e-014 1.0
  outer loop
    vertex 112.35792601756 79.8399923631853 4.00000004503281
    vertex 109.999999922251 64.9999999859886 4.0000000450323
    vertex 112.299999922251 79.399999986511 4.00000004503291
  endloop
endfacet
facet normal 3.72791303039621e-014 -1.58101642097506e-014 1.0
  outer loop
    vertex 116.696331272769 85.399999986511 4.00000004503266
    vertex 112.797918394234 80.6020815145281 4.00000004503259
    vertex 113.149999922251 80.8722431729445 4.00000004503249
  endloop
endfacet
facet normal 3.72791303039621e-014 -1.58101642097506e-014 1.0
  outer loop
    vertex 116.696331272769 85.399999986511 4.00000004503266
    vertex 113.149999922251 80.8722431729445 4.00000004503249
    vertex 113.560007545577 81.0420738912024 4.00000004503239
  endloop
endfacet
facet normal 3.72791303039621e-014 -1.58101642097506e-014 1.0
  outer loop
    vertex 116.696331272769 85.399999986511 4.00000004503266
    vertex 113.560007545577 81.0420738912024 4.00000004503239
    vertex 113.999999922251 81.099999986511 4.00000004503232
  endloop
endfacet
facet normal 3.72791303039621e-014 -1.58101642097506e-014 1.0
  outer loop
    vertex 116.696331272769 85.399999986511 4.00000004503266
    vertex 113.999999922251 81.099999986511 4.00000004503232
    vertex 114.439992298925 81.0420738912024 4.00000004503227
  endloop
endfacet
facet normal 3.72791303039621e-014 -1.58101642097506e-014 1.0
  outer loop
    vertex 116.696331272769 85.399999986511 4.00000004503266
    vertex 114.439992298925 81.0420738912024 4.00000004503227
    vertex 114.849999922251 80.8722431729445 4.00000004503224
  endloop
endfacet
facet normal 3.72791303039621e-014 -1.58101642097506e-014 1.0
  outer loop
    vertex 116.696331272769 85.399999986511 4.00000004503266
    vertex 114.849999922251 80.8722431729445 4.00000004503224
    vertex 115.202081450268 80.6020815145281 4.00000004503225
  endloop
endfacet
facet normal 3.72791303039621e-014 -1.58101642097506e-014 1.0
  outer loop
    vertex 116.696331272769 85.399999986511 4.00000004503266
    vertex 115.202081450268 80.6020815145281 4.00000004503225
    vertex 115.472243108685 80.249999986511 4.00000004503229
  endloop
endfacet
facet normal 3.72791303039621e-014 -1.58101642097506e-014 1.0
  outer loop
    vertex 116.696331272769 85.399999986511 4.00000004503266
    vertex 115.472243108685 80.249999986511 4.00000004503229
    vertex 115.642073826942 79.8399923631853 4.00000004503235
  endloop
endfacet
facet normal 3.72791303039621e-014 -1.58101642097506e-014 1.0
  outer loop
    vertex 116.696331272769 85.399999986511 4.00000004503266
    vertex 115.642073826942 79.8399923631853 4.00000004503235
    vertex 115.699999922251 79.399999986511 4.00000004503243
  endloop
endfacet
facet normal 0.437100024673554 0.89941290208134 -1.26001570134834e-012
  outer loop
    vertex 116.696331272769 85.399999986511 4.00000004503266
    vertex 150.199999922246 69.1177625853604 -6.70937460178929e-012
    vertex 116.696331272769 85.399999986511 -7.01650990369813e-012
  endloop
endfacet
facet normal 0.437100024673554 0.89941290208134 -1.26001570134834e-012
  outer loop
    vertex 150.199999922246 69.1177625853604 -6.70937460178929e-012
    vertex 116.696331272769 85.399999986511 4.00000004503266
    vertex 150.199999922268 69.1177625853613 4.00000004502662
  endloop
endfacet
facet normal -1.31714360719429e-014 1.0 1.65757946787325e-015
  outer loop
    vertex 107.999999922251 71.9999999859886 28.0000000450324
    vertex 109.999999922251 71.9999999859887 4.00000004503269
    vertex 107.999999922251 71.9999999859886 4.00000004503245
  endloop
endfacet
facet normal -1.31714360719429e-014 1.0 1.65757946787325e-015
  outer loop
    vertex 109.999999922251 71.9999999859887 4.00000004503269
    vertex 107.999999922251 71.9999999859886 28.0000000450324
    vertex 109.999999922251 71.9999999859886 26.0000000450327
  endloop
endfacet
facet normal -1.31714360719429e-014 1.0 1.65757946787325e-015
  outer loop
    vertex 109.999999922251 71.9999999859886 26.0000000450327
    vertex 107.999999922251 71.9999999859886 28.0000000450324
    vertex 150.199999922251 71.9999999859891 28.0000000450313
  endloop
endfacet
facet normal -1.31714360719429e-014 1.0 1.65757946787325e-015
  outer loop
    vertex 109.999999922251 71.9999999859886 26.0000000450327
    vertex 150.199999922251 71.9999999859895 26.0000000450314
    vertex 148.199999922251 71.9999999859886 26.0000000450314
  endloop
endfacet
facet normal -1.31714360719429e-014 1.0 1.65757946787325e-015
  outer loop
    vertex 150.199999922251 71.9999999859895 26.0000000450314
    vertex 109.999999922251 71.9999999859886 26.0000000450327
    vertex 150.199999922251 71.9999999859891 28.0000000450313
  endloop
endfacet
facet normal 1.0 -2.20980199177228e-013 -1.37193639660018e-013
  outer loop
    vertex 150.199999922246 69.1177625853604 -6.70937460178929e-012
    vertex 150.199999922253 68.0000000000017 4.00000004503465
    vertex 150.199999922246 60.3999999859911 -4.37769144602771e-013
  endloop
endfacet
facet normal 1.0 -2.20980199177228e-013 -1.37193639660018e-013
  outer loop
    vertex 150.199999922253 68.0000000000017 4.00000004503465
    vertex 150.199999922246 69.1177625853604 -6.70937460178929e-012
    vertex 150.199999922268 69.1177625853613 4.00000004502662
  endloop
endfacet
facet normal 1.0 -2.20980199177228e-013 -1.37193639660018e-013
  outer loop
    vertex 150.199999922246 60.3999999859911 -4.37769144602771e-013
    vertex 150.199999922251 71.9999999859891 28.0000000450313
    vertex 150.199999922251 60.3999999859886 28.0000000450309
  endloop
endfacet
facet normal 1.0 -2.20980199177228e-013 -1.37193639660018e-013
  outer loop
    vertex 150.199999922251 71.9999999859891 28.0000000450313
    vertex 150.199999922246 60.3999999859911 -4.37769144602771e-013
    vertex 150.199999922253 68.0000000000017 4.00000004503465
  endloop
endfacet
facet normal 1.0 -2.20980199177228e-013 -1.37193639660018e-013
  outer loop
    vertex 150.199999922251 71.9999999859891 28.0000000450313
    vertex 150.199999922253 68.0000000000017 4.00000004503465
    vertex 150.199999922251 71.9999999859895 26.0000000450314
  endloop
endfacet
endsolid Remix of isaac879 Pan Tilt Camera Mount
