solid Remix of isaac879 Pan Tilt Camera Mount
facet normal -0.000973522445011896 0.999999526126912 -5.25156399273815e-015
  outer loop
    vertex 79.9422022768818 -5.70799572376884 65.5836579389764
    vertex 87.9422022768819 -5.70020754051818 56.9836882673354
    vertex 79.9422022768817 -5.70799572376884 56.9836579389764
  endloop
endfacet
facet normal -0.000973522445011896 0.999999526126912 -5.25156399273815e-015
  outer loop
    vertex 87.9422022768819 -5.70020754051818 56.9836882673354
    vertex 79.9422022768818 -5.70799572376884 65.5836579389764
    vertex 87.9422022768817 -5.70020754051809 65.5836882673353
  endloop
endfacet
facet normal 0.999999999999953 -1.80412070292406e-016 -3.06970731164119e-007
  outer loop
    vertex 76.9422022768817 -16.0002397588228 65.5836882673353
    vertex 76.9422002508749 -18.0002397588043 58.9836882673334
    vertex 76.9422002508749 -16.0002397588043 58.9836882673334
  endloop
endfacet
facet normal 0.999999999999953 -1.80412070292406e-016 -3.06970731164119e-007
  outer loop
    vertex 76.9422002508749 -18.0002397588043 58.9836882673334
    vertex 76.9422022768817 -16.0002397588228 65.5836882673353
    vertex 76.9422022768817 -18.0002397588228 65.5836882673353
  endloop
endfacet
facet normal -0.707781571400178 0.706431346406888 2.17270206508778e-007
  outer loop
    vertex 70.9420549304608 -20.0078889899988 58.9836579389744
    vertex 74.9420608513489 -16.0002397588228 65.5836882673353
    vertex 74.9420588253421 -16.0002397588043 58.9836882673334
  endloop
endfacet
facet normal -0.707781571400178 0.706431346406888 2.17270206508778e-007
  outer loop
    vertex 74.9420608513489 -16.0002397588228 65.5836882673353
    vertex 70.9420549304608 -20.0078889899988 58.9836579389744
    vertex 70.9420569564677 -20.0078889900174 65.5836579389764
  endloop
endfacet
facet normal -0.999999999732079 -2.20740152725858e-005 6.96985969983578e-006
  outer loop
    vertex 70.9420549304609 -22.000100806748 58.9836578522268
    vertex 70.9420569564677 -20.0078889900174 65.5836579389764
    vertex 70.9420549304608 -20.0078889899988 58.9836579389744
  endloop
endfacet
facet normal -0.999999999732079 -2.20740152725858e-005 6.96985969983578e-006
  outer loop
    vertex 70.9420569564677 -20.0078889900174 65.5836579389764
    vertex 70.9420549304609 -22.000100806748 58.9836578522268
    vertex 70.9421449085366 -22.0001887588355 65.5836351636765
  endloop
endfacet
facet normal -1.46900290434669e-006 0.999999999998214 1.18921576306573e-006
  outer loop
    vertex 76.9422022768817 -18.0002397588228 65.5836882673353
    vertex 82.285151802626 -18.0002240611909 58.9836919973527
    vertex 76.9422002508749 -18.0002397588043 58.9836882673334
  endloop
endfacet
facet normal -1.46900290434669e-006 0.999999999998214 1.18921576306573e-006
  outer loop
    vertex 82.285151802626 -18.0002240611909 58.9836919973527
    vertex 76.9422022768817 -18.0002397588228 65.5836882673353
    vertex 82.2851540464341 -18.0002397588142 65.5836856673047
  endloop
endfacet
facet normal 1.80411241501625e-016 1.0 2.80971205897416e-012
  outer loop
    vertex 74.9420608513489 -16.0002397588228 65.5836882673353
    vertex 76.9422002508749 -16.0002397588043 58.9836882673334
    vertex 74.9420588253421 -16.0002397588043 58.9836882673334
  endloop
endfacet
facet normal 1.80411241501625e-016 1.0 2.80971205897416e-012
  outer loop
    vertex 76.9422002508749 -16.0002397588043 58.9836882673334
    vertex 74.9420608513489 -16.0002397588228 65.5836882673353
    vertex 76.9422022768817 -16.0002397588228 65.5836882673353
  endloop
endfacet
facet normal -2.17966798620997e-011 -0.999999999911207 -1.332611968139e-005
  outer loop
    vertex 72.9421449085365 -24.000188758778 65.5836199924972
    vertex 68.9420549305183 -24.0001008068055 58.9836578522268
    vertex 72.9420549304608 -24.0001008066905 58.9836426810475
  endloop
endfacet
facet normal -2.17966798620997e-011 -0.999999999911207 -1.332611968139e-005
  outer loop
    vertex 68.9420549305183 -24.0001008068055 58.9836578522268
    vertex 72.9421449085365 -24.000188758778 65.5836199924972
    vertex 68.942144908594 -24.000188758893 65.5836351636765
  endloop
endfacet
facet normal -0.999999999907069 -1.03367121090213e-010 1.36330886398421e-005
  outer loop
    vertex 68.9420549305183 -24.0001008068055 58.9836578522268
    vertex 68.9421449085941 -22.0001887589505 65.583650327856
    vertex 68.9420549305184 -22.000100806863 58.9836730164063
  endloop
endfacet
facet normal -0.999999999907069 -1.03367121090213e-010 1.36330886398421e-005
  outer loop
    vertex 68.9421449085941 -22.0001887589505 65.583650327856
    vertex 68.9420549305183 -24.0001008068055 58.9836578522268
    vertex 68.942144908594 -24.000188758893 65.5836351636765
  endloop
endfacet
facet normal 4.35578188436224e-011 0.999999999911207 1.33261196776752e-005
  outer loop
    vertex 68.9420549305184 -22.000100806863 58.9836730164063
    vertex 70.9421449085366 -22.0001887588355 65.5836351636765
    vertex 70.9420549304609 -22.000100806748 58.9836578522268
  endloop
endfacet
facet normal 4.35578188436224e-011 0.999999999911207 1.33261196776752e-005
  outer loop
    vertex 70.9421449085366 -22.0001887588355 65.5836351636765
    vertex 68.9420549305184 -22.000100806863 58.9836730164063
    vertex 68.9421449085941 -22.0001887589505 65.583650327856
  endloop
endfacet
facet normal -1.0 1.80411241501588e-016 1.04928985397131e-014
  outer loop
    vertex 79.9422022768817 -10.0079957237688 56.9836579389764
    vertex 79.9422022768818 -5.70799572376884 65.5836579389764
    vertex 79.9422022768817 -5.70799572376884 56.9836579389764
  endloop
endfacet
facet normal -1.80412221156207e-016 -0.999999999893718 -1.45795983062926e-005
  outer loop
    vertex 85.9422022768818 -7.70020754656278 65.5836882673353
    vertex 81.9422023379141 -7.70008216245876 56.9837185444283
    vertex 85.9422023379143 -7.70008216245876 56.9837185444283
  endloop
endfacet
facet normal -1.80412221156207e-016 -0.999999999893718 -1.45795983062926e-005
  outer loop
    vertex 81.9422023379141 -7.70008216245876 56.9837185444283
    vertex 85.9422022768818 -7.70020754656278 65.5836882673353
    vertex 81.9422022768816 -7.70020754656278 65.5836882673353
  endloop
endfacet
facet normal -1.0 1.80411241501588e-016 0.0
  outer loop
    vertex 79.9422022768817 -15.0002075405182 65.5836579389763
    vertex 79.9422022768818 -10.9999957237689 65.5836579578516
    vertex 79.9422022768817 -15.0002075405182 62.5836882673354
  endloop
endfacet
facet normal 1.17840455468874e-009 -1.0 1.04105354024894e-010
  outer loop
    vertex 81.9222022768818 -15.0002075405182 56.9836882673354
    vertex 79.9422022768817 -15.0002075405182 62.5836882673354
    vertex 30.6922022769037 -15.0002076000835 56.9836884840297
  endloop
endfacet
facet normal 1.17840455468874e-009 -1.0 1.04105354024894e-010
  outer loop
    vertex 79.9422022768817 -15.0002075405182 62.5836882673354
    vertex 81.9222022768818 -15.0002075405182 56.9836882673354
    vertex 81.9222022768816 -15.0002075405182 65.5836579389763
  endloop
endfacet
facet normal 1.17840455468874e-009 -1.0 1.04105354024894e-010
  outer loop
    vertex 79.9422022768817 -15.0002075405182 62.5836882673354
    vertex 81.9222022768816 -15.0002075405182 65.5836579389763
    vertex 79.9422022768817 -15.0002075405182 65.5836579389763
  endloop
endfacet
facet normal 1.17840455468874e-009 -1.0 1.04105354024894e-010
  outer loop
    vertex 30.6922022769039 -15.0002076000835 62.5836884840297
    vertex 30.6922022769037 -15.0002076000835 56.9836884840297
    vertex 79.9422022768817 -15.0002075405182 62.5836882673354
  endloop
endfacet
facet normal 0.999996247029288 -0.00273969475292846 -1.56759439467714e-008
  outer loop
    vertex 81.9422022768816 -7.70020754656278 65.5836882673353
    vertex 81.9222022768818 -15.0002075405182 56.9836882673354
    vertex 81.9422023379141 -7.70008216245876 56.9837185444283
  endloop
endfacet
facet normal 0.999996247029288 -0.00273969475292846 -1.56759439467714e-008
  outer loop
    vertex 81.9222022768818 -15.0002075405182 56.9836882673354
    vertex 81.9422022768816 -7.70020754656278 65.5836882673353
    vertex 81.9222022768816 -15.0002075405182 65.5836579389763
  endloop
endfacet
facet normal 0.999999999472325 -3.22561470728665e-005 -3.85877974651855e-006
  outer loop
    vertex 72.9421449085365 -22.0001887588067 65.583627574587
    vertex 72.9420549304608 -24.0001008066905 58.9836426810475
    vertex 72.9421839550911 -22.0001447827372 58.9836459377608
  endloop
endfacet
facet normal 0.999999999472325 -3.22561470728665e-005 -3.85877974651855e-006
  outer loop
    vertex 72.9420549304608 -24.0001008066905 58.9836426810475
    vertex 72.9421449085365 -22.0001887588067 65.583627574587
    vertex 72.9421449085365 -24.000188758778 65.5836199924972
  endloop
endfacet
facet normal 0.707105578858432 -0.707107983512422 -5.2815196733106e-007
  outer loop
    vertex 74.9421839550526 -20.0001515841636 58.983660601312
    vertex 72.9421449085365 -22.0001887588067 65.583627574587
    vertex 72.9421839550911 -22.0001447827372 58.9836459377608
  endloop
endfacet
facet normal 0.707105578858432 -0.707107983512422 -5.2815196733106e-007
  outer loop
    vertex 72.9421449085365 -22.0001887588067 65.583627574587
    vertex 74.9421839550526 -20.0001515841636 58.983660601312
    vertex 74.9421449084982 -20.0001955602331 65.5836422381382
  endloop
endfacet
facet normal 4.09158249957978e-009 -0.599975785222015 0.800018160510889
  outer loop
    vertex 30.692202276904 -10.99999573781 65.5836581897207
    vertex 79.9422022768817 -15.0002075405182 62.5836882673354
    vertex 79.9422022768818 -10.9999957237689 65.5836579578516
  endloop
endfacet
facet normal 4.09158249957978e-009 -0.599975785222015 0.800018160510889
  outer loop
    vertex 79.9422022768817 -15.0002075405182 62.5836882673354
    vertex 30.692202276904 -10.99999573781 65.5836581897207
    vertex 30.6922022769039 -15.0002076000835 62.5836884840297
  endloop
endfacet
facet normal -1.0 -1.07388944304697e-014 2.1795053750317e-014
  outer loop
    vertex 30.6922022769038 -10.0002076000835 56.9836884840297
    vertex 30.692202276904 -10.99999573781 65.5836581897207
    vertex 30.6922022769038 -5.70020760008347 65.5836884840297
  endloop
endfacet
facet normal -1.0 -1.07388944304697e-014 2.1795053750317e-014
  outer loop
    vertex 30.692202276904 -10.99999573781 65.5836581897207
    vertex 30.6922022769038 -10.0002076000835 56.9836884840297
    vertex 30.6922022769038 -11.5002076000835 56.9836884840297
  endloop
endfacet
facet normal -1.0 -1.07388944304697e-014 2.1795053750317e-014
  outer loop
    vertex 30.692202276904 -10.99999573781 65.5836581897207
    vertex 30.6922022769038 -11.5002076000835 56.9836884840297
    vertex 30.6922022769039 -15.0002076000835 62.5836884840297
  endloop
endfacet
facet normal -1.0 -1.07388944304697e-014 2.1795053750317e-014
  outer loop
    vertex 30.6922022769039 -15.0002076000835 62.5836884840297
    vertex 30.6922022769038 -11.5002076000835 56.9836884840297
    vertex 30.6922022769038 -12.5002076000835 57.9836884840297
  endloop
endfacet
facet normal -1.0 -1.07388944304697e-014 2.1795053750317e-014
  outer loop
    vertex 30.6922022769039 -15.0002076000835 62.5836884840297
    vertex 30.6922022769038 -12.5002076000835 57.9836884840297
    vertex 30.6922022769037 -13.5002076000835 56.9836884840297
  endloop
endfacet
facet normal -1.0 -1.07388944304697e-014 2.1795053750317e-014
  outer loop
    vertex 30.6922022769039 -15.0002076000835 62.5836884840297
    vertex 30.6922022769037 -13.5002076000835 56.9836884840297
    vertex 30.6922022769037 -15.0002076000835 56.9836884840297
  endloop
endfacet
facet normal 0.000141162423525765 0.894427182088366 -0.447213591044184
  outer loop
    vertex 30.6922022769038 -10.0002076000835 56.9836884840297
    vertex 79.9422022768818 -5.70799572376884 65.5836579389764
    vertex 79.9422022768817 -10.0079957237688 56.9836579389764
  endloop
endfacet
facet normal 0.000141162423525765 0.894427182088366 -0.447213591044184
  outer loop
    vertex 79.9422022768818 -5.70799572376884 65.5836579389764
    vertex 30.6922022769038 -10.0002076000835 56.9836884840297
    vertex 30.6922022769038 -5.70020760008347 65.5836884840297
  endloop
endfacet
facet normal -1.0 1.80411241501588e-016 0.0
  outer loop
    vertex 79.9422022768817 -13.5002076012171 56.9836882673354
    vertex 79.9422022768818 -12.5002076012172 57.9836882673354
    vertex 79.9422022768818 -11.5002076012172 56.9836882673354
  endloop
endfacet
facet normal -3.09491175162749e-009 0.707106781186552 -0.707106781186543
  outer loop
    vertex 30.6922022769037 -13.5002076000835 56.9836884840297
    vertex 79.9422022768818 -12.5002076012172 57.9836882673354
    vertex 79.9422022768817 -13.5002076012171 56.9836882673354
  endloop
endfacet
facet normal -3.09491175162749e-009 0.707106781186552 -0.707106781186543
  outer loop
    vertex 79.9422022768818 -12.5002076012172 57.9836882673354
    vertex 30.6922022769037 -13.5002076000835 56.9836884840297
    vertex 30.6922022769038 -12.5002076000835 57.9836884840297
  endloop
endfacet
facet normal -3.12746467845556e-009 -0.707106781186547 -0.707106781186548
  outer loop
    vertex 30.6922022769038 -12.5002076000835 57.9836884840297
    vertex 79.9422022768818 -11.5002076012172 56.9836882673354
    vertex 79.9422022768818 -12.5002076012172 57.9836882673354
  endloop
endfacet
facet normal -3.12746467845556e-009 -0.707106781186547 -0.707106781186548
  outer loop
    vertex 79.9422022768818 -11.5002076012172 56.9836882673354
    vertex 30.6922022769038 -12.5002076000835 57.9836884840297
    vertex 30.6922022769038 -11.5002076000835 56.9836884840297
  endloop
endfacet
facet normal -6.59890538861162e-006 -0.999999999972211 -3.46892126780208e-006
  outer loop
    vertex 83.1135512982526 -20.0002265878325 58.9836815029142
    vertex 74.9421449084982 -20.0001955602331 65.5836422381382
    vertex 74.9421839550526 -20.0001515841636 58.983660601312
  endloop
endfacet
facet normal -6.59890538861162e-006 -0.999999999972211 -3.46892126780208e-006
  outer loop
    vertex 74.9421449084982 -20.0001955602331 65.5836422381382
    vertex 83.1135512982526 -20.0002265878325 58.9836815029142
    vertex 83.1135369696009 -20.0002284011524 65.5836793903606
  endloop
endfacet
facet normal -3.73850159860529e-007 -2.37077044161841e-006 0.99999999999712
  outer loop
    vertex 30.6922022769038 -5.70020760008347 65.5836884840297
    vertex 79.9422022768818 -10.9999957237689 65.5836579578516
    vertex 79.9422022768818 -5.70799572376884 65.5836579389764
  endloop
endfacet
facet normal -3.73850159860529e-007 -2.37077044161841e-006 0.99999999999712
  outer loop
    vertex 79.9422022768818 -10.9999957237689 65.5836579578516
    vertex 30.6922022769038 -5.70020760008347 65.5836884840297
    vertex 30.692202276904 -10.99999573781 65.5836581897207
  endloop
endfacet
facet normal -3.73850159860529e-007 -2.37077044161841e-006 0.99999999999712
  outer loop
    vertex 87.9422022768817 -5.70020754051809 65.5836882673353
    vertex 85.9422022768818 -7.70020754656278 65.5836882673353
    vertex 87.9421076535652 -15.1720219703473 65.5836914054864
  endloop
endfacet
facet normal -3.73850159860529e-007 -2.37077044161841e-006 0.99999999999712
  outer loop
    vertex 85.9422022768818 -7.70020754656278 65.5836882673353
    vertex 87.9422022768817 -5.70020754051809 65.5836882673353
    vertex 79.9422022768818 -5.70799572376884 65.5836579389764
  endloop
endfacet
facet normal -3.73850159860529e-007 -2.37077044161841e-006 0.99999999999712
  outer loop
    vertex 85.9422022768818 -7.70020754656278 65.5836882673353
    vertex 79.9422022768818 -5.70799572376884 65.5836579389764
    vertex 81.9422022768816 -7.70020754656278 65.5836882673353
  endloop
endfacet
facet normal -3.73850159860529e-007 -2.37077044161841e-006 0.99999999999712
  outer loop
    vertex 81.9422022768816 -7.70020754656278 65.5836882673353
    vertex 79.9422022768818 -5.70799572376884 65.5836579389764
    vertex 81.9222022768816 -15.0002075405182 65.5836579389763
  endloop
endfacet
facet normal -3.73850159860529e-007 -2.37077044161841e-006 0.99999999999712
  outer loop
    vertex 81.9222022768816 -15.0002075405182 65.5836579389763
    vertex 79.9422022768818 -5.70799572376884 65.5836579389764
    vertex 79.9422022768818 -10.9999957237689 65.5836579578516
  endloop
endfacet
facet normal -3.73850159860529e-007 -2.37077044161841e-006 0.99999999999712
  outer loop
    vertex 81.9222022768816 -15.0002075405182 65.5836579389763
    vertex 79.9422022768818 -10.9999957237689 65.5836579578516
    vertex 79.9422022768817 -15.0002075405182 65.5836579389763
  endloop
endfacet
facet normal -3.73850159860529e-007 -2.37077044161841e-006 0.99999999999712
  outer loop
    vertex 74.9420608513489 -16.0002397588228 65.5836882673353
    vertex 76.9422022768817 -18.0002397588228 65.5836882673353
    vertex 76.9422022768817 -16.0002397588228 65.5836882673353
  endloop
endfacet
facet normal -3.73850159860529e-007 -2.37077044161841e-006 0.99999999999712
  outer loop
    vertex 76.9422022768817 -18.0002397588228 65.5836882673353
    vertex 74.9420608513489 -16.0002397588228 65.5836882673353
    vertex 74.9421449084982 -20.0001955602331 65.5836422381382
  endloop
endfacet
facet normal -3.73850159860529e-007 -2.37077044161841e-006 0.99999999999712
  outer loop
    vertex 74.9421449084982 -20.0001955602331 65.5836422381382
    vertex 74.9420608513489 -16.0002397588228 65.5836882673353
    vertex 72.9421449085365 -22.0001887588067 65.583627574587
  endloop
endfacet
facet normal -3.73850159860529e-007 -2.37077044161841e-006 0.99999999999712
  outer loop
    vertex 72.9421449085365 -22.0001887588067 65.583627574587
    vertex 74.9420608513489 -16.0002397588228 65.5836882673353
    vertex 70.9420569564677 -20.0078889900174 65.5836579389764
  endloop
endfacet
facet normal -3.73850159860529e-007 -2.37077044161841e-006 0.99999999999712
  outer loop
    vertex 72.9421449085365 -22.0001887588067 65.583627574587
    vertex 70.9420569564677 -20.0078889900174 65.5836579389764
    vertex 72.9421449085365 -24.000188758778 65.5836199924972
  endloop
endfacet
facet normal -3.73850159860529e-007 -2.37077044161841e-006 0.99999999999712
  outer loop
    vertex 72.9421449085365 -24.000188758778 65.5836199924972
    vertex 70.9420569564677 -20.0078889900174 65.5836579389764
    vertex 70.9421449085366 -22.0001887588355 65.5836351636765
  endloop
endfacet
facet normal -3.73850159860529e-007 -2.37077044161841e-006 0.99999999999712
  outer loop
    vertex 70.9421449085366 -22.0001887588355 65.5836351636765
    vertex 68.942144908594 -24.000188758893 65.5836351636765
    vertex 72.9421449085365 -24.000188758778 65.5836199924972
  endloop
endfacet
facet normal -3.73850159860529e-007 -2.37077044161841e-006 0.99999999999712
  outer loop
    vertex 68.942144908594 -24.000188758893 65.5836351636765
    vertex 70.9421449085366 -22.0001887588355 65.5836351636765
    vertex 68.9421449085941 -22.0001887589505 65.583650327856
  endloop
endfacet
facet normal -3.73850159860529e-007 -2.37077044161841e-006 0.99999999999712
  outer loop
    vertex 87.9421076535652 -15.1720219703473 65.5836914054864
    vertex 85.94220227687 -14.3434674053387 65.5836922758723
    vertex 83.1135369696009 -20.0002284011524 65.5836793903606
  endloop
endfacet
facet normal -3.73850159860529e-007 -2.37077044161841e-006 0.99999999999712
  outer loop
    vertex 85.94220227687 -14.3434674053387 65.5836922758723
    vertex 87.9421076535652 -15.1720219703473 65.5836914054864
    vertex 85.9422022768818 -7.70020754656278 65.5836882673353
  endloop
endfacet
facet normal -3.73850159860529e-007 -2.37077044161841e-006 0.99999999999712
  outer loop
    vertex 83.1135369696009 -20.0002284011524 65.5836793903606
    vertex 85.94220227687 -14.3434674053387 65.5836922758723
    vertex 82.2851540464341 -18.0002397588142 65.5836856673047
  endloop
endfacet
facet normal -3.73850159860529e-007 -2.37077044161841e-006 0.99999999999712
  outer loop
    vertex 83.1135369696009 -20.0002284011524 65.5836793903606
    vertex 82.2851540464341 -18.0002397588142 65.5836856673047
    vertex 74.9421449084982 -20.0001955602331 65.5836422381382
  endloop
endfacet
facet normal -3.73850159860529e-007 -2.37077044161841e-006 0.99999999999712
  outer loop
    vertex 74.9421449084982 -20.0001955602331 65.5836422381382
    vertex 82.2851540464341 -18.0002397588142 65.5836856673047
    vertex 76.9422022768817 -18.0002397588228 65.5836882673353
  endloop
endfacet
facet normal 0.707080108648112 -0.707133452717644 1.34079519876318e-006
  outer loop
    vertex 87.942121982217 -15.1720201570275 58.9836935180401
    vertex 83.1135369696009 -20.0002284011524 65.5836793903606
    vertex 83.1135512982526 -20.0002265878325 58.9836815029142
  endloop
endfacet
facet normal 0.707080108648112 -0.707133452717644 1.34079519876318e-006
  outer loop
    vertex 83.1135369696009 -20.0002284011524 65.5836793903606
    vertex 87.942121982217 -15.1720201570275 58.9836935180401
    vertex 87.9421076535652 -15.1720219703473 65.5836914054864
  endloop
endfacet
facet normal -0.70708010865021 0.707133452714204 1.92225435739233e-006
  outer loop
    vertex 82.2851540464341 -18.0002397588142 65.5836856673047
    vertex 85.9422000330619 -14.3434517077154 58.9836986059204
    vertex 82.285151802626 -18.0002240611909 58.9836919973527
  endloop
endfacet
facet normal -0.70708010865021 0.707133452714204 1.92225435739233e-006
  outer loop
    vertex 85.9422000330619 -14.3434517077154 58.9836986059204
    vertex 82.2851540464341 -18.0002397588142 65.5836856673047
    vertex 85.94220227687 -14.3434674053387 65.5836922758723
  endloop
endfacet
facet normal 6.58047174474605e-007 3.02862066926029e-006 -0.999999999995197
  outer loop
    vertex 68.9420549305183 -24.0001008068055 58.9836578522268
    vertex 70.9420549304609 -22.000100806748 58.9836578522268
    vertex 72.9420549304608 -24.0001008066905 58.9836426810475
  endloop
endfacet
facet normal 6.58047174474605e-007 3.02862066926029e-006 -0.999999999995197
  outer loop
    vertex 70.9420549304609 -22.000100806748 58.9836578522268
    vertex 68.9420549305183 -24.0001008068055 58.9836578522268
    vertex 68.9420549305184 -22.000100806863 58.9836730164063
  endloop
endfacet
facet normal 6.58047174474605e-007 3.02862066926029e-006 -0.999999999995197
  outer loop
    vertex 87.942121982217 -15.1720201570275 58.9836935180401
    vertex 85.9422016410479 -11.7000821624585 58.9836981488121
    vertex 87.9421544543765 -11.7000820204028 58.9836992616687
  endloop
endfacet
facet normal 6.58047174474605e-007 3.02862066926029e-006 -0.999999999995197
  outer loop
    vertex 85.9422016410479 -11.7000821624585 58.9836981488121
    vertex 87.942121982217 -15.1720201570275 58.9836935180401
    vertex 85.9422000330619 -14.3434517077154 58.9836986059204
  endloop
endfacet
facet normal 6.58047174474605e-007 3.02862066926029e-006 -0.999999999995197
  outer loop
    vertex 85.9422000330619 -14.3434517077154 58.9836986059204
    vertex 87.942121982217 -15.1720201570275 58.9836935180401
    vertex 83.1135512982526 -20.0002265878325 58.9836815029142
  endloop
endfacet
facet normal 6.58047174474605e-007 3.02862066926029e-006 -0.999999999995197
  outer loop
    vertex 85.9422000330619 -14.3434517077154 58.9836986059204
    vertex 83.1135512982526 -20.0002265878325 58.9836815029142
    vertex 82.285151802626 -18.0002240611909 58.9836919973527
  endloop
endfacet
facet normal 6.58047174474605e-007 3.02862066926029e-006 -0.999999999995197
  outer loop
    vertex 82.285151802626 -18.0002240611909 58.9836919973527
    vertex 83.1135512982526 -20.0002265878325 58.9836815029142
    vertex 74.9421839550526 -20.0001515841636 58.983660601312
  endloop
endfacet
facet normal 6.58047174474605e-007 3.02862066926029e-006 -0.999999999995197
  outer loop
    vertex 82.285151802626 -18.0002240611909 58.9836919973527
    vertex 74.9421839550526 -20.0001515841636 58.983660601312
    vertex 76.9422002508749 -18.0002397588043 58.9836882673334
  endloop
endfacet
facet normal 6.58047174474605e-007 3.02862066926029e-006 -0.999999999995197
  outer loop
    vertex 76.9422002508749 -18.0002397588043 58.9836882673334
    vertex 74.9421839550526 -20.0001515841636 58.983660601312
    vertex 76.9422002508749 -16.0002397588043 58.9836882673334
  endloop
endfacet
facet normal 6.58047174474605e-007 3.02862066926029e-006 -0.999999999995197
  outer loop
    vertex 76.9422002508749 -16.0002397588043 58.9836882673334
    vertex 74.9421839550526 -20.0001515841636 58.983660601312
    vertex 74.9420588253421 -16.0002397588043 58.9836882673334
  endloop
endfacet
facet normal 6.58047174474605e-007 3.02862066926029e-006 -0.999999999995197
  outer loop
    vertex 74.9420588253421 -16.0002397588043 58.9836882673334
    vertex 74.9421839550526 -20.0001515841636 58.983660601312
    vertex 72.9421839550911 -22.0001447827372 58.9836459377608
  endloop
endfacet
facet normal 6.58047174474605e-007 3.02862066926029e-006 -0.999999999995197
  outer loop
    vertex 74.9420588253421 -16.0002397588043 58.9836882673334
    vertex 72.9421839550911 -22.0001447827372 58.9836459377608
    vertex 70.9420549304608 -20.0078889899988 58.9836579389744
  endloop
endfacet
facet normal 6.58047174474605e-007 3.02862066926029e-006 -0.999999999995197
  outer loop
    vertex 70.9420549304608 -20.0078889899988 58.9836579389744
    vertex 72.9421839550911 -22.0001447827372 58.9836459377608
    vertex 72.9420549304608 -24.0001008066905 58.9836426810475
  endloop
endfacet
facet normal 6.58047174474605e-007 3.02862066926029e-006 -0.999999999995197
  outer loop
    vertex 70.9420549304608 -20.0078889899988 58.9836579389744
    vertex 72.9420549304608 -24.0001008066905 58.9836426810475
    vertex 70.9420549304609 -22.000100806748 58.9836578522268
  endloop
endfacet
facet normal 0.999999999958562 -9.09318700600635e-006 4.36723211851306e-007
  outer loop
    vertex 87.9421076535652 -15.1720219703473 65.5836914054864
    vertex 87.9422022768819 -5.70020754051818 56.9836882673354
    vertex 87.9422022768817 -5.70020754051809 65.5836882673353
  endloop
endfacet
facet normal 0.999999999958562 -9.09318700600635e-006 4.36723211851306e-007
  outer loop
    vertex 87.9422022768819 -5.70020754051818 56.9836882673354
    vertex 87.9421076535652 -15.1720219703473 65.5836914054864
    vertex 87.9421551512429 -9.70008202040304 56.9837196572849
  endloop
endfacet
facet normal 0.999999999958562 -9.09318700600635e-006 4.36723211851306e-007
  outer loop
    vertex 87.9421551512429 -9.70008202040304 56.9837196572849
    vertex 87.9421076535652 -15.1720219703473 65.5836914054864
    vertex 87.9421544543765 -11.7000820204028 58.9836992616687
  endloop
endfacet
facet normal 0.999999999958562 -9.09318700600635e-006 4.36723211851306e-007
  outer loop
    vertex 87.9421544543765 -11.7000820204028 58.9836992616687
    vertex 87.9421076535652 -15.1720219703473 65.5836914054864
    vertex 87.942121982217 -15.1720201570275 58.9836935180401
  endloop
endfacet
facet normal 1.87960043659418e-007 -2.76440508427532e-007 -0.999999999999944
  outer loop
    vertex 81.9222022768818 -15.0002075405182 56.9836882673354
    vertex 79.9422022768817 -13.5002076012171 56.9836882673354
    vertex 79.9422022768818 -11.5002076012172 56.9836882673354
  endloop
endfacet
facet normal 1.87960043659418e-007 -2.76440508427532e-007 -0.999999999999944
  outer loop
    vertex 79.9422022768817 -13.5002076012171 56.9836882673354
    vertex 81.9222022768818 -15.0002075405182 56.9836882673354
    vertex 30.6922022769037 -15.0002076000835 56.9836884840297
  endloop
endfacet
facet normal 1.87960043659418e-007 -2.76440508427532e-007 -0.999999999999944
  outer loop
    vertex 79.9422022768817 -13.5002076012171 56.9836882673354
    vertex 30.6922022769037 -15.0002076000835 56.9836884840297
    vertex 30.6922022769037 -13.5002076000835 56.9836884840297
  endloop
endfacet
facet normal 1.87960043659418e-007 -2.76440508427532e-007 -0.999999999999944
  outer loop
    vertex 30.6922022769038 -11.5002076000835 56.9836884840297
    vertex 79.9422022768817 -10.0079957237688 56.9836579389764
    vertex 79.9422022768818 -11.5002076012172 56.9836882673354
  endloop
endfacet
facet normal 1.87960043659418e-007 -2.76440508427532e-007 -0.999999999999944
  outer loop
    vertex 79.9422022768817 -10.0079957237688 56.9836579389764
    vertex 30.6922022769038 -11.5002076000835 56.9836884840297
    vertex 30.6922022769038 -10.0002076000835 56.9836884840297
  endloop
endfacet
facet normal 1.87960043659418e-007 -2.76440508427532e-007 -0.999999999999944
  outer loop
    vertex 87.9422022768819 -5.70020754051818 56.9836882673354
    vertex 85.9422023379143 -7.70008216245876 56.9837185444283
    vertex 79.9422022768817 -5.70799572376884 56.9836579389764
  endloop
endfacet
facet normal 1.87960043659418e-007 -2.76440508427532e-007 -0.999999999999944
  outer loop
    vertex 85.9422023379143 -7.70008216245876 56.9837185444283
    vertex 87.9422022768819 -5.70020754051818 56.9836882673354
    vertex 87.9421551512429 -9.70008202040304 56.9837196572849
  endloop
endfacet
facet normal 1.87960043659418e-007 -2.76440508427532e-007 -0.999999999999944
  outer loop
    vertex 85.9422023379143 -7.70008216245876 56.9837185444283
    vertex 87.9421551512429 -9.70008202040304 56.9837196572849
    vertex 85.9422023379143 -9.70008216245876 56.9837185444283
  endloop
endfacet
facet normal 1.87960043659418e-007 -2.76440508427532e-007 -0.999999999999944
  outer loop
    vertex 79.9422022768817 -5.70799572376884 56.9836579389764
    vertex 85.9422023379143 -7.70008216245876 56.9837185444283
    vertex 81.9422023379141 -7.70008216245876 56.9837185444283
  endloop
endfacet
facet normal 1.87960043659418e-007 -2.76440508427532e-007 -0.999999999999944
  outer loop
    vertex 79.9422022768817 -5.70799572376884 56.9836579389764
    vertex 81.9422023379141 -7.70008216245876 56.9837185444283
    vertex 81.9222022768818 -15.0002075405182 56.9836882673354
  endloop
endfacet
facet normal 1.87960043659418e-007 -2.76440508427532e-007 -0.999999999999944
  outer loop
    vertex 79.9422022768817 -5.70799572376884 56.9836579389764
    vertex 81.9222022768818 -15.0002075405182 56.9836882673354
    vertex 79.9422022768818 -11.5002076012172 56.9836882673354
  endloop
endfacet
facet normal 1.87960043659418e-007 -2.76440508427532e-007 -0.999999999999944
  outer loop
    vertex 79.9422022768817 -5.70799572376884 56.9836579389764
    vertex 79.9422022768818 -11.5002076012172 56.9836882673354
    vertex 79.9422022768817 -10.0079957237688 56.9836579389764
  endloop
endfacet
facet normal 4.43690717770292e-007 -0.707103175689384 -0.707110386665188
  outer loop
    vertex 87.9421544543765 -11.7000820204028 58.9836992616687
    vertex 85.9422023379143 -9.70008216245876 56.9837185444283
    vertex 87.9421551512429 -9.70008202040304 56.9837196572849
  endloop
endfacet
facet normal 4.43690717770292e-007 -0.707103175689384 -0.707110386665188
  outer loop
    vertex 85.9422023379143 -9.70008216245876 56.9837185444283
    vertex 87.9421544543765 -11.7000820204028 58.9836992616687
    vertex 85.9422016410479 -11.7000821624585 58.9836981488121
  endloop
endfacet
facet normal -0.999999999999977 1.99447056782174e-007 7.44723611678802e-008
  outer loop
    vertex 85.9422023379143 -9.70008216245876 56.9837185444283
    vertex 85.9422022768818 -7.70020754656278 65.5836882673353
    vertex 85.9422023379143 -7.70008216245876 56.9837185444283
  endloop
endfacet
facet normal -0.999999999999977 1.99447056782174e-007 7.44723611678802e-008
  outer loop
    vertex 85.9422022768818 -7.70020754656278 65.5836882673353
    vertex 85.9422023379143 -9.70008216245876 56.9837185444283
    vertex 85.94220227687 -14.3434674053387 65.5836922758723
  endloop
endfacet
facet normal -0.999999999999977 1.99447056782174e-007 7.44723611678802e-008
  outer loop
    vertex 85.94220227687 -14.3434674053387 65.5836922758723
    vertex 85.9422023379143 -9.70008216245876 56.9837185444283
    vertex 85.9422016410479 -11.7000821624585 58.9836981488121
  endloop
endfacet
facet normal -0.999999999999977 1.99447056782174e-007 7.44723611678802e-008
  outer loop
    vertex 85.94220227687 -14.3434674053387 65.5836922758723
    vertex 85.9422016410479 -11.7000821624585 58.9836981488121
    vertex 85.9422000330619 -14.3434517077154 58.9836986059204
  endloop
endfacet
endsolid Remix of isaac879 Pan Tilt Camera Mount
