solid Remix of isaac879 Pan Tilt Camera Mount
facet normal 0.444144962979648 0.116945577325682 0.888289921030161
  outer loop
    vertex 157.49999972394 54.4999999999998 10.5000000000003
    vertex 159.499999739212 55.22469328414 9.40459231360945
    vertex 157.499999744666 55.4835123713894 10.3705181398987
  endloop
endfacet
facet normal 0.444144962979648 0.116945577325682 0.888289921030161
  outer loop
    vertex 159.499999739212 55.22469328414 9.40459231360945
    vertex 157.49999972394 54.4999999999998 10.5000000000003
    vertex 159.49999972394 54.4999999578529 9.50000000000003
  endloop
endfacet
facet normal 0.444144958050768 -0.11694559604496 0.888289921030162
  outer loop
    vertex 157.499999703214 53.5164876286102 10.3705181398987
    vertex 159.49999972394 54.4999999578529 9.50000000000003
    vertex 157.49999972394 54.4999999999998 10.5000000000003
  endloop
endfacet
facet normal 0.444144958050768 -0.11694559604496 0.888289921030162
  outer loop
    vertex 159.49999972394 54.4999999578529 9.50000000000003
    vertex 157.499999703214 53.5164876286102 10.3705181398987
    vertex 159.499999708668 53.7753066315659 9.40459231360945
  endloop
endfacet
facet normal 0.444144953289621 -0.342867120944777 -0.82775443088056
  outer loop
    vertex 159.499999694436 53.0999999578529 4.2751288694036
    vertex 157.499999703213 53.5164876286102 3.02948186010186
    vertex 159.499999708668 53.7753066315659 3.99540768639063
  endloop
endfacet
facet normal 0.444144953289621 -0.342867120944777 -0.82775443088056
  outer loop
    vertex 157.499999703213 53.5164876286102 3.02948186010186
    vertex 159.499999694436 53.0999999578529 4.2751288694036
    vertex 157.4999996839 52.5999999999998 3.40910346561942
  endloop
endfacet
facet normal 0.444144967740389 0.342867102225487 -0.827754430880552
  outer loop
    vertex 159.499999753442 55.8999999578529 4.27512886940365
    vertex 157.499999744665 55.4835123713894 3.02948186010186
    vertex 157.499999763979 56.3999999999998 3.40910346561942
  endloop
endfacet
facet normal 0.444144967740389 0.342867102225487 -0.827754430880552
  outer loop
    vertex 157.499999744665 55.4835123713894 3.02948186010186
    vertex 159.499999753442 55.8999999578529 4.27512886940365
    vertex 159.499999739211 55.22469328414 3.99540768639063
  endloop
endfacet
facet normal 0.444144949021269 -0.545422818804735 0.710808844195112
  outer loop
    vertex 157.4999996839 52.5999999999998 9.99089653438113
    vertex 159.499999682217 52.5201009705306 8.67989898732233
    vertex 159.499999694437 53.0999999578529 9.12487113059652
  endloop
endfacet
facet normal 0.444144949021269 -0.545422818804735 0.710808844195112
  outer loop
    vertex 159.499999682217 52.5201009705306 8.67989898732233
    vertex 157.4999996839 52.5999999999998 9.99089653438113
    vertex 157.499999667315 51.8129942314909 9.38700576850919
  endloop
endfacet
facet normal 0.44414495328982 -0.342867120944799 0.827754430880444
  outer loop
    vertex 157.499999703214 53.5164876286102 10.3705181398987
    vertex 159.499999694437 53.0999999578529 9.12487113059652
    vertex 159.499999708668 53.7753066315659 9.40459231360945
  endloop
endfacet
facet normal 0.44414495328982 -0.342867120944799 0.827754430880444
  outer loop
    vertex 159.499999694437 53.0999999578529 9.12487113059652
    vertex 157.499999703214 53.5164876286102 10.3705181398987
    vertex 157.4999996839 52.5999999999998 9.99089653438113
  endloop
endfacet
facet normal 0.444144962979437 0.116945577325681 -0.888289921030267
  outer loop
    vertex 159.499999739211 55.22469328414 3.99540768639063
    vertex 157.499999723939 54.4999999999998 2.90000000000029
    vertex 157.499999744665 55.4835123713894 3.02948186010186
  endloop
endfacet
facet normal 0.444144962979437 0.116945577325681 -0.888289921030267
  outer loop
    vertex 157.499999723939 54.4999999999998 2.90000000000029
    vertex 159.499999739211 55.22469328414 3.99540768639063
    vertex 159.499999723939 54.4999999578529 3.90000000000004
  endloop
endfacet
facet normal 0.444144958050552 -0.116945596044988 -0.888289921030266
  outer loop
    vertex 159.499999708668 53.7753066315659 3.99540768639063
    vertex 157.499999723939 54.4999999999998 2.90000000000029
    vertex 159.499999723939 54.4999999578529 3.90000000000004
  endloop
endfacet
facet normal 0.444144958050552 -0.116945596044988 -0.888289921030266
  outer loop
    vertex 157.499999723939 54.4999999999998 2.90000000000029
    vertex 159.499999708668 53.7753066315659 3.99540768639063
    vertex 157.499999703213 53.5164876286102 3.02948186010186
  endloop
endfacet
facet normal 0.444144972008955 0.545422800085415 -0.710808844195224
  outer loop
    vertex 159.499999765662 56.4798989451753 4.7201010126777
    vertex 157.499999763979 56.3999999999998 3.40910346561942
    vertex 157.499999780564 57.1870057685086 4.0129942314914
  endloop
endfacet
facet normal 0.444144972008955 0.545422800085415 -0.710808844195224
  outer loop
    vertex 157.499999763979 56.3999999999998 3.40910346561942
    vertex 159.499999765662 56.4798989451753 4.7201010126777
    vertex 159.499999753442 55.8999999578529 4.27512886940365
  endloop
endfacet
facet normal 0.44414494307153 -0.827754440240159 0.342867111585071
  outer loop
    vertex 159.499999666944 51.7954076442435 7.42469332628704
    vertex 157.499999654589 51.2091034656189 8.60000000000028
    vertex 157.499999646589 50.8294818601013 7.68351237138987
  endloop
endfacet
facet normal 0.44414494307153 -0.827754440240159 0.342867111585071
  outer loop
    vertex 157.499999654589 51.2091034656189 8.60000000000028
    vertex 159.499999666944 51.7954076442435 7.42469332628704
    vertex 159.499999672839 52.0751288272565 8.10000000000004
  endloop
endfacet
facet normal 0.444144979234424 0.888289911670557 0.116945586685287
  outer loop
    vertex 159.499999780934 57.2045922714623 7.42469332628704
    vertex 157.499999804019 58.2999999999998 6.70000000000026
    vertex 157.49999980129 58.1705181398982 7.68351237138987
  endloop
endfacet
facet normal 0.444144979234424 0.888289911670557 0.116945586685287
  outer loop
    vertex 157.499999804019 58.2999999999998 6.70000000000026
    vertex 159.499999780934 57.2045922714623 7.42469332628704
    vertex 159.499999782945 57.2999999578529 6.70000000000008
  endloop
endfacet
facet normal 0.444144945536002 -0.710808853554812 0.545422809445035
  outer loop
    vertex 159.499999672839 52.0751288272565 8.10000000000004
    vertex 157.499999667315 51.8129942314909 9.38700576850919
    vertex 157.499999654589 51.2091034656189 8.60000000000028
  endloop
endfacet
facet normal 0.444144945536002 -0.710808853554812 0.545422809445035
  outer loop
    vertex 157.499999667315 51.8129942314909 9.38700576850919
    vertex 159.499999672839 52.0751288272565 8.10000000000004
    vertex 159.499999682217 52.5201009705306 8.67989898732233
  endloop
endfacet
facet normal 0.4441449490211 -0.545422818804753 -0.710808844195204
  outer loop
    vertex 159.499999682216 52.5201009705306 4.7201010126777
    vertex 157.4999996839 52.5999999999998 3.40910346561942
    vertex 159.499999694436 53.0999999578529 4.2751288694036
  endloop
endfacet
facet normal 0.4441449490211 -0.545422818804753 -0.710808844195204
  outer loop
    vertex 157.4999996839 52.5999999999998 3.40910346561942
    vertex 159.499999682216 52.5201009705306 4.7201010126777
    vertex 157.499999667315 51.8129942314909 4.0129942314914
  endloop
endfacet
facet normal 0.444144975494217 0.71080883483551 -0.545422809445136
  outer loop
    vertex 159.49999977504 56.9248710884494 5.30000000000002
    vertex 157.499999780564 57.1870057685086 4.0129942314914
    vertex 157.49999979329 57.7908965343806 4.80000000000022
  endloop
endfacet
facet normal 0.444144975494217 0.71080883483551 -0.545422809445136
  outer loop
    vertex 157.499999780564 57.1870057685086 4.0129942314914
    vertex 159.49999977504 56.9248710884494 5.30000000000002
    vertex 159.499999765662 56.4798989451753 4.7201010126777
  endloop
endfacet
facet normal 0.444144945535864 -0.710808853554812 -0.545422809445148
  outer loop
    vertex 157.499999667315 51.8129942314909 4.0129942314914
    vertex 159.499999672839 52.0751288272565 5.29999999999999
    vertex 157.499999654589 51.2091034656189 4.80000000000031
  endloop
endfacet
facet normal 0.444144945535864 -0.710808853554812 -0.545422809445148
  outer loop
    vertex 159.499999672839 52.0751288272565 5.29999999999999
    vertex 157.499999667315 51.8129942314909 4.0129942314914
    vertex 159.499999682216 52.5201009705306 4.7201010126777
  endloop
endfacet
facet normal 0.444144977958762 0.827754421520849 0.342867111585079
  outer loop
    vertex 157.49999979329 57.7908965343806 8.60000000000026
    vertex 159.499999780934 57.2045922714623 7.42469332628704
    vertex 157.49999980129 58.1705181398982 7.68351237138987
  endloop
endfacet
facet normal 0.444144977958762 0.827754421520849 0.342867111585079
  outer loop
    vertex 159.499999780934 57.2045922714623 7.42469332628704
    vertex 157.49999979329 57.7908965343806 8.60000000000026
    vertex 159.49999977504 56.9248710884494 8.10000000000004
  endloop
endfacet
facet normal 0.444144972009113 0.545422800085444 0.710808844195103
  outer loop
    vertex 157.499999763979 56.3999999999998 9.99089653438113
    vertex 159.499999765663 56.4798989451753 8.67989898732233
    vertex 157.499999780564 57.1870057685087 9.3870057685091
  endloop
endfacet
facet normal 0.444144972009113 0.545422800085444 0.710808844195103
  outer loop
    vertex 159.499999765663 56.4798989451753 8.67989898732233
    vertex 157.499999763979 56.3999999999998 9.99089653438113
    vertex 159.499999753443 55.8999999578529 9.12487113059652
  endloop
endfacet
facet normal 0.444144979234397 0.888289911670559 -0.116945586685382
  outer loop
    vertex 157.499999804019 58.2999999999998 6.70000000000026
    vertex 159.499999780934 57.2045922714623 5.97530667371296
    vertex 157.49999980129 58.1705181398982 5.7164876286107
  endloop
endfacet
facet normal 0.444144979234397 0.888289911670559 -0.116945586685382
  outer loop
    vertex 159.499999780934 57.2045922714623 5.97530667371296
    vertex 157.499999804019 58.2999999999998 6.70000000000026
    vertex 159.499999782945 57.2999999578529 6.70000000000008
  endloop
endfacet
facet normal 0.444144975494342 0.710808834835517 0.545422809445025
  outer loop
    vertex 159.499999765663 56.4798989451753 8.67989898732233
    vertex 157.49999979329 57.7908965343806 8.60000000000026
    vertex 157.499999780564 57.1870057685087 9.3870057685091
  endloop
endfacet
facet normal 0.444144975494342 0.710808834835517 0.545422809445025
  outer loop
    vertex 157.49999979329 57.7908965343806 8.60000000000026
    vertex 159.499999765663 56.4798989451753 8.67989898732233
    vertex 159.49999977504 56.9248710884494 8.10000000000004
  endloop
endfacet
facet normal 0.444144943071447 -0.827754440240159 -0.342867111585178
  outer loop
    vertex 159.499999672839 52.0751288272565 5.29999999999999
    vertex 157.499999646589 50.8294818601013 5.7164876286107
    vertex 157.499999654589 51.2091034656189 4.80000000000031
  endloop
endfacet
facet normal 0.444144943071447 -0.827754440240159 -0.342867111585178
  outer loop
    vertex 157.499999646589 50.8294818601013 5.7164876286107
    vertex 159.499999672839 52.0751288272565 5.29999999999999
    vertex 159.499999666944 51.7954076442435 5.97530667371296
  endloop
endfacet
facet normal 0.444144977958679 0.827754421520852 -0.342867111585181
  outer loop
    vertex 159.499999780934 57.2045922714623 5.97530667371296
    vertex 157.49999979329 57.7908965343806 4.80000000000022
    vertex 157.49999980129 58.1705181398982 5.7164876286107
  endloop
endfacet
facet normal 0.444144977958679 0.827754421520852 -0.342867111585181
  outer loop
    vertex 157.49999979329 57.7908965343806 4.80000000000022
    vertex 159.499999780934 57.2045922714623 5.97530667371296
    vertex 159.49999977504 56.9248710884494 5.30000000000002
  endloop
endfacet
facet normal 0.44414496774058 0.34286710222547 0.827754430880457
  outer loop
    vertex 157.499999744666 55.4835123713894 10.3705181398987
    vertex 159.499999753443 55.8999999578529 9.12487113059652
    vertex 157.499999763979 56.3999999999998 9.99089653438113
  endloop
endfacet
facet normal 0.44414496774058 0.34286710222547 0.827754430880457
  outer loop
    vertex 159.499999753443 55.8999999578529 9.12487113059652
    vertex 157.499999744666 55.4835123713894 10.3705181398987
    vertex 159.499999739212 55.22469328414 9.40459231360945
  endloop
endfacet
facet normal -1.0 2.10734172822499e-008 1.18083661046337e-013
  outer loop
    vertex 157.099999625516 49.8294818685307 7.68351237138989
    vertex 157.099999646589 50.8294818685307 5.71648762861073
    vertex 157.099999625516 49.8294818685307 5.71648762861073
  endloop
endfacet
facet normal -1.0 2.10734172822499e-008 1.18083661046337e-013
  outer loop
    vertex 157.099999646589 50.8294818685307 5.71648762861073
    vertex 157.099999625516 49.8294818685307 7.68351237138989
    vertex 157.09999980129 58.1705181483276 5.71648762861073
  endloop
endfacet
facet normal -1.0 2.10734172822499e-008 1.18083661046337e-013
  outer loop
    vertex 157.09999980129 58.1705181483276 5.71648762861073
    vertex 157.099999625516 49.8294818685307 7.68351237138989
    vertex 157.099999804019 58.3000000084291 6.70000000000033
  endloop
endfacet
facet normal -1.0 2.10734172822499e-008 1.18083661046337e-013
  outer loop
    vertex 157.099999804019 58.3000000084291 6.70000000000033
    vertex 157.099999625516 49.8294818685307 7.68351237138989
    vertex 157.09999980129 58.1705181483276 7.68351237138989
  endloop
endfacet
facet normal -1.0 2.10734172822499e-008 1.18083661046337e-013
  outer loop
    vertex 157.09999980129 58.1705181483276 7.68351237138989
    vertex 157.099999625516 49.8294818685307 7.68351237138989
    vertex 157.099999646589 50.8294818685307 7.68351237138989
  endloop
endfacet
facet normal -1.0 2.10734172822499e-008 1.18083661046337e-013
  outer loop
    vertex 157.09999980129 58.1705181483276 7.68351237138989
    vertex 157.099999646589 50.8294818685307 7.68351237138989
    vertex 157.099999654589 51.2091034740483 8.60000000000035
  endloop
endfacet
facet normal -1.0 2.10734172822499e-008 1.18083661046337e-013
  outer loop
    vertex 157.09999980129 58.1705181483276 7.68351237138989
    vertex 157.099999654589 51.2091034740483 8.60000000000035
    vertex 157.09999979329 57.79089654281 8.60000000000028
  endloop
endfacet
facet normal -1.0 2.10734172822499e-008 1.18083661046337e-013
  outer loop
    vertex 157.09999979329 57.79089654281 8.60000000000028
    vertex 157.099999654589 51.2091034740483 8.60000000000035
    vertex 157.099999780564 57.187005776938 9.38700576850916
  endloop
endfacet
facet normal -1.0 2.10734172822499e-008 1.18083661046337e-013
  outer loop
    vertex 157.099999780564 57.187005776938 9.38700576850916
    vertex 157.099999654589 51.2091034740483 8.60000000000035
    vertex 157.099999667315 51.8129942399203 9.38700576850921
  endloop
endfacet
facet normal -1.0 2.10734172822499e-008 1.18083661046337e-013
  outer loop
    vertex 157.099999780564 57.187005776938 9.38700576850916
    vertex 157.099999667315 51.8129942399203 9.38700576850921
    vertex 157.099999763979 56.4000000084292 9.99089653438115
  endloop
endfacet
facet normal -1.0 2.10734172822499e-008 1.18083661046337e-013
  outer loop
    vertex 157.099999763979 56.4000000084292 9.99089653438115
    vertex 157.099999667315 51.8129942399203 9.38700576850921
    vertex 157.0999996839 52.6000000084292 9.99089653438115
  endloop
endfacet
facet normal -1.0 2.10734172822499e-008 1.18083661046337e-013
  outer loop
    vertex 157.099999763979 56.4000000084292 9.99089653438115
    vertex 157.0999996839 52.6000000084292 9.99089653438115
    vertex 157.099999703214 53.5164876370396 10.3705181398988
  endloop
endfacet
facet normal -1.0 2.10734172822499e-008 1.18083661046337e-013
  outer loop
    vertex 157.099999763979 56.4000000084292 9.99089653438115
    vertex 157.099999703214 53.5164876370396 10.3705181398988
    vertex 157.099999744666 55.4835123798187 10.3705181398987
  endloop
endfacet
facet normal -1.0 2.10734172822499e-008 1.18083661046337e-013
  outer loop
    vertex 157.099999744666 55.4835123798187 10.3705181398987
    vertex 157.099999703214 53.5164876370396 10.3705181398988
    vertex 157.09999972394 54.5000000084291 10.5000000000003
  endloop
endfacet
facet normal -1.0 2.10734172822499e-008 1.18083661046337e-013
  outer loop
    vertex 157.099999703213 53.5164876370396 3.02948186010186
    vertex 157.099999744665 55.4835123798187 3.02948186010186
    vertex 157.099999723939 54.5000000084291 2.90000000000031
  endloop
endfacet
facet normal -1.0 2.10734172822499e-008 1.18083661046337e-013
  outer loop
    vertex 157.099999744665 55.4835123798187 3.02948186010186
    vertex 157.099999703213 53.5164876370396 3.02948186010186
    vertex 157.0999996839 52.6000000084291 3.40910346561944
  endloop
endfacet
facet normal -1.0 2.10734172822499e-008 1.18083661046337e-013
  outer loop
    vertex 157.099999744665 55.4835123798187 3.02948186010186
    vertex 157.0999996839 52.6000000084291 3.40910346561944
    vertex 157.099999763979 56.4000000084291 3.40910346561944
  endloop
endfacet
facet normal -1.0 2.10734172822499e-008 1.18083661046337e-013
  outer loop
    vertex 157.099999763979 56.4000000084291 3.40910346561944
    vertex 157.0999996839 52.6000000084291 3.40910346561944
    vertex 157.099999667315 51.8129942399202 4.01299423149147
  endloop
endfacet
facet normal -1.0 2.10734172822499e-008 1.18083661046337e-013
  outer loop
    vertex 157.099999763979 56.4000000084291 3.40910346561944
    vertex 157.099999667315 51.8129942399202 4.01299423149147
    vertex 157.099999780564 57.187005776938 4.0129942314914
  endloop
endfacet
facet normal -1.0 2.10734172822499e-008 1.18083661046337e-013
  outer loop
    vertex 157.099999780564 57.187005776938 4.0129942314914
    vertex 157.099999667315 51.8129942399202 4.01299423149147
    vertex 157.09999979329 57.79089654281 4.80000000000029
  endloop
endfacet
facet normal -1.0 2.10734172822499e-008 1.18083661046337e-013
  outer loop
    vertex 157.09999979329 57.79089654281 4.80000000000029
    vertex 157.099999667315 51.8129942399202 4.01299423149147
    vertex 157.099999654589 51.2091034740483 4.80000000000032
  endloop
endfacet
facet normal -1.0 2.10734172822499e-008 1.18083661046337e-013
  outer loop
    vertex 157.09999979329 57.79089654281 4.80000000000029
    vertex 157.099999654589 51.2091034740483 4.80000000000032
    vertex 157.09999980129 58.1705181483276 5.71648762861073
  endloop
endfacet
facet normal -1.0 2.10734172822499e-008 1.18083661046337e-013
  outer loop
    vertex 157.09999980129 58.1705181483276 5.71648762861073
    vertex 157.099999654589 51.2091034740483 4.80000000000032
    vertex 157.099999646589 50.8294818685307 5.71648762861073
  endloop
endfacet
facet normal 1.0 -2.10734225707033e-008 -1.3480907988905e-013
  outer loop
    vertex 161.499999739211 55.2246932419932 3.9954076863904
    vertex 161.499999708668 53.7753065894191 3.9954076863904
    vertex 161.499999723939 54.4999999157061 3.89999999999982
  endloop
endfacet
facet normal 1.0 -2.10734225707033e-008 -1.3480907988905e-013
  outer loop
    vertex 161.499999708668 53.7753065894191 3.9954076863904
    vertex 161.499999739211 55.2246932419932 3.9954076863904
    vertex 161.499999753442 55.8999999157061 4.27512886940333
  endloop
endfacet
facet normal 1.0 -2.10734225707033e-008 -1.3480907988905e-013
  outer loop
    vertex 161.499999708668 53.7753065894191 3.9954076863904
    vertex 161.499999753442 55.8999999157061 4.27512886940333
    vertex 161.499999694436 53.0999999157061 4.27512886940333
  endloop
endfacet
facet normal 1.0 -2.10734225707033e-008 -1.3480907988905e-013
  outer loop
    vertex 161.499999694436 53.0999999157061 4.27512886940333
    vertex 161.499999753442 55.8999999157061 4.27512886940333
    vertex 161.499999765662 56.4798989030284 4.72010101267748
  endloop
endfacet
facet normal 1.0 -2.10734225707033e-008 -1.3480907988905e-013
  outer loop
    vertex 161.499999694436 53.0999999157061 4.27512886940333
    vertex 161.499999765662 56.4798989030284 4.72010101267748
    vertex 161.499999682216 52.5201009283838 4.72010101267748
  endloop
endfacet
facet normal 1.0 -2.10734225707033e-008 -1.3480907988905e-013
  outer loop
    vertex 161.499999682216 52.5201009283838 4.72010101267748
    vertex 161.499999765662 56.4798989030284 4.72010101267748
    vertex 161.49999977504 56.9248710463025 5.29999999999977
  endloop
endfacet
facet normal 1.0 -2.10734225707033e-008 -1.3480907988905e-013
  outer loop
    vertex 161.499999682216 52.5201009283838 4.72010101267748
    vertex 161.49999977504 56.9248710463025 5.29999999999977
    vertex 161.499999709038 53.7928931345196 4.93223304703339
  endloop
endfacet
facet normal 1.0 -2.10734225707033e-008 -1.3480907988905e-013
  outer loop
    vertex 161.499999709038 53.7928931345196 4.93223304703339
    vertex 161.49999977504 56.9248710463025 5.29999999999977
    vertex 161.499999768643 56.6213202592658 7.7606601717796
  endloop
endfacet
facet normal 1.0 -2.10734225707033e-008 -1.3480907988905e-013
  outer loop
    vertex 161.499999768643 56.6213202592658 7.7606601717796
    vertex 161.49999977504 56.9248710463025 5.29999999999977
    vertex 161.499999780935 57.2045922293155 5.97530667371278
  endloop
endfacet
facet normal 1.0 -2.10734225707033e-008 -1.3480907988905e-013
  outer loop
    vertex 161.499999768643 56.6213202592658 7.7606601717796
    vertex 161.499999780935 57.2045922293155 5.97530667371278
    vertex 161.499999782945 57.2999999157061 6.69999999999979
  endloop
endfacet
facet normal 1.0 -2.10734225707033e-008 -1.3480907988905e-013
  outer loop
    vertex 161.499999768643 56.6213202592658 7.7606601717796
    vertex 161.499999782945 57.2999999157061 6.69999999999979
    vertex 161.499999780934 57.2045922293155 7.42469332628681
  endloop
endfacet
facet normal 1.0 -2.10734225707033e-008 -1.3480907988905e-013
  outer loop
    vertex 161.499999768643 56.6213202592658 7.7606601717796
    vertex 161.499999780934 57.2045922293155 7.42469332628681
    vertex 161.49999977504 56.9248710463025 8.09999999999981
  endloop
endfacet
facet normal 1.0 -2.10734225707033e-008 -1.3480907988905e-013
  outer loop
    vertex 161.499999768643 56.6213202592658 7.7606601717796
    vertex 161.49999977504 56.9248710463025 8.09999999999981
    vertex 161.499999753742 55.9142134780792 8.46776695296615
  endloop
endfacet
facet normal 1.0 -2.10734225707033e-008 -1.3480907988905e-013
  outer loop
    vertex 161.499999753742 55.9142134780792 8.46776695296615
    vertex 161.49999977504 56.9248710463025 8.09999999999981
    vertex 161.499999765663 56.4798989030284 8.6798989873221
  endloop
endfacet
facet normal 1.0 -2.10734225707033e-008 -1.3480907988905e-013
  outer loop
    vertex 161.499999753742 55.9142134780792 8.46776695296615
    vertex 161.499999694137 53.085786353333 7.05355339059303
    vertex 161.499999709038 53.7928931345196 6.34644660940648
  endloop
endfacet
facet normal 1.0 -2.10734225707033e-008 -1.3480907988905e-013
  outer loop
    vertex 161.499999694137 53.085786353333 7.05355339059303
    vertex 161.499999753742 55.9142134780792 8.46776695296615
    vertex 161.499999666944 51.7954076020967 7.42469332628681
  endloop
endfacet
facet normal 1.0 -2.10734225707033e-008 -1.3480907988905e-013
  outer loop
    vertex 161.499999666944 51.7954076020967 7.42469332628681
    vertex 161.499999753742 55.9142134780792 8.46776695296615
    vertex 161.499999672839 52.0751287851097 8.09999999999981
  endloop
endfacet
facet normal 1.0 -2.10734225707033e-008 -1.3480907988905e-013
  outer loop
    vertex 161.499999672839 52.0751287851097 8.09999999999981
    vertex 161.499999753742 55.9142134780792 8.46776695296615
    vertex 161.499999682217 52.5201009283838 8.6798989873221
  endloop
endfacet
facet normal 1.0 -2.10734225707033e-008 -1.3480907988905e-013
  outer loop
    vertex 161.499999682217 52.5201009283838 8.6798989873221
    vertex 161.499999753742 55.9142134780792 8.46776695296615
    vertex 161.499999765663 56.4798989030284 8.6798989873221
  endloop
endfacet
facet normal 1.0 -2.10734225707033e-008 -1.3480907988905e-013
  outer loop
    vertex 161.499999682217 52.5201009283838 8.6798989873221
    vertex 161.499999765663 56.4798989030284 8.6798989873221
    vertex 161.499999753443 55.8999999157061 9.12487113059622
  endloop
endfacet
facet normal 1.0 -2.10734225707033e-008 -1.3480907988905e-013
  outer loop
    vertex 161.499999682217 52.5201009283838 8.6798989873221
    vertex 161.499999753443 55.8999999157061 9.12487113059622
    vertex 161.499999694437 53.0999999157061 9.12487113059622
  endloop
endfacet
facet normal 1.0 -2.10734225707033e-008 -1.3480907988905e-013
  outer loop
    vertex 161.499999694437 53.0999999157061 9.12487113059622
    vertex 161.499999753443 55.8999999157061 9.12487113059622
    vertex 161.499999739212 55.2246932419932 9.40459231360921
  endloop
endfacet
facet normal 1.0 -2.10734225707033e-008 -1.3480907988905e-013
  outer loop
    vertex 161.499999694437 53.0999999157061 9.12487113059622
    vertex 161.499999739212 55.2246932419932 9.40459231360921
    vertex 161.499999708668 53.7753065894191 9.40459231360921
  endloop
endfacet
facet normal 1.0 -2.10734225707033e-008 -1.3480907988905e-013
  outer loop
    vertex 161.499999708668 53.7753065894191 9.40459231360921
    vertex 161.499999739212 55.2246932419932 9.40459231360921
    vertex 161.49999972394 54.4999999157061 9.4999999999998
  endloop
endfacet
facet normal 1.0 -2.10734225707033e-008 -1.3480907988905e-013
  outer loop
    vertex 161.499999709038 53.7928931345196 4.93223304703339
    vertex 161.499999672839 52.0751287851097 5.29999999999977
    vertex 161.499999682216 52.5201009283838 4.72010101267748
  endloop
endfacet
facet normal 1.0 -2.10734225707033e-008 -1.3480907988905e-013
  outer loop
    vertex 161.499999672839 52.0751287851097 5.29999999999977
    vertex 161.499999709038 53.7928931345196 4.93223304703339
    vertex 161.499999679236 52.3786795721465 6.34644660940648
  endloop
endfacet
facet normal 1.0 -2.10734225707033e-008 -1.3480907988905e-013
  outer loop
    vertex 161.499999672839 52.0751287851097 5.29999999999977
    vertex 161.499999679236 52.3786795721465 6.34644660940648
    vertex 161.499999666944 51.7954076020967 5.97530667371278
  endloop
endfacet
facet normal 1.0 -2.10734225707033e-008 -1.3480907988905e-013
  outer loop
    vertex 161.499999666944 51.7954076020967 5.97530667371278
    vertex 161.499999679236 52.3786795721465 6.34644660940648
    vertex 161.499999645871 50.7954076020967 5.97530667371278
  endloop
endfacet
facet normal 1.0 -2.10734225707033e-008 -1.3480907988905e-013
  outer loop
    vertex 161.499999645871 50.7954076020967 5.97530667371278
    vertex 161.499999679236 52.3786795721465 6.34644660940648
    vertex 161.499999645871 50.7954076020967 7.42469332628681
  endloop
endfacet
facet normal 1.0 -2.10734225707033e-008 -1.3480907988905e-013
  outer loop
    vertex 161.499999645871 50.7954076020967 7.42469332628681
    vertex 161.499999679236 52.3786795721465 6.34644660940648
    vertex 161.499999694137 53.085786353333 7.05355339059303
  endloop
endfacet
facet normal 1.0 -2.10734225707033e-008 -1.3480907988905e-013
  outer loop
    vertex 161.499999645871 50.7954076020967 7.42469332628681
    vertex 161.499999694137 53.085786353333 7.05355339059303
    vertex 161.499999666944 51.7954076020967 7.42469332628681
  endloop
endfacet
facet normal 2.75051564667987e-009 0.130526192220026 -0.991444861373814
  outer loop
    vertex 161.499999723939 54.4999999157061 3.89999999999982
    vertex 159.499999739211 55.22469328414 3.99540768639063
    vertex 161.499999739211 55.2246932419932 3.9954076863904
  endloop
endfacet
facet normal 2.75051564667987e-009 0.130526192220026 -0.991444861373814
  outer loop
    vertex 159.499999739211 55.22469328414 3.99540768639063
    vertex 161.499999723939 54.4999999157061 3.89999999999982
    vertex 159.499999723939 54.4999999578529 3.90000000000004
  endloop
endfacet
facet normal 8.06432834840581e-009 0.382683432365127 -0.923879532511271
  outer loop
    vertex 161.499999739211 55.2246932419932 3.9954076863904
    vertex 159.499999753442 55.8999999578529 4.27512886940365
    vertex 161.499999753442 55.8999999157061 4.27512886940333
  endloop
endfacet
facet normal 8.06432834840581e-009 0.382683432365127 -0.923879532511271
  outer loop
    vertex 159.499999753442 55.8999999578529 4.27512886940365
    vertex 161.499999739211 55.2246932419932 3.9954076863904
    vertex 159.499999739211 55.22469328414 3.99540768639063
  endloop
endfacet
facet normal 1.28285817763448e-008 0.608761429008736 -0.793353340291223
  outer loop
    vertex 161.499999753442 55.8999999157061 4.27512886940333
    vertex 159.499999765662 56.4798989451753 4.7201010126777
    vertex 161.499999765662 56.4798989030284 4.72010101267748
  endloop
endfacet
facet normal 1.28285817763448e-008 0.608761429008736 -0.793353340291223
  outer loop
    vertex 159.499999765662 56.4798989451753 4.7201010126777
    vertex 161.499999753442 55.8999999157061 4.27512886940333
    vertex 159.499999753442 55.8999999578529 4.27512886940365
  endloop
endfacet
facet normal 1.67185950471314e-008 0.793353340291208 -0.608761429008756
  outer loop
    vertex 159.49999977504 56.9248710884494 5.30000000000002
    vertex 161.499999765662 56.4798989030284 4.72010101267748
    vertex 159.499999765662 56.4798989451753 4.7201010126777
  endloop
endfacet
facet normal 1.67185950471314e-008 0.793353340291208 -0.608761429008756
  outer loop
    vertex 161.499999765662 56.4798989030284 4.72010101267748
    vertex 159.49999977504 56.9248710884494 5.30000000000002
    vertex 161.49999977504 56.9248710463025 5.29999999999977
  endloop
endfacet
facet normal 1.94692550331312e-008 0.923879532511282 -0.3826834323651
  outer loop
    vertex 161.499999780935 57.2045922293155 5.97530667371278
    vertex 159.49999977504 56.9248710884494 5.30000000000002
    vertex 159.499999780934 57.2045922714623 5.97530667371296
  endloop
endfacet
facet normal 1.94692550331312e-008 0.923879532511282 -0.3826834323651
  outer loop
    vertex 159.49999977504 56.9248710884494 5.30000000000002
    vertex 161.499999780935 57.2045922293155 5.97530667371278
    vertex 161.49999977504 56.9248710463025 5.29999999999977
  endloop
endfacet
facet normal 2.0893115883797e-008 0.991444861373814 -0.130526192220022
  outer loop
    vertex 159.499999782945 57.2999999578529 6.70000000000008
    vertex 161.499999780935 57.2045922293155 5.97530667371278
    vertex 159.499999780934 57.2045922714623 5.97530667371296
  endloop
endfacet
facet normal 2.0893115883797e-008 0.991444861373814 -0.130526192220022
  outer loop
    vertex 161.499999780935 57.2045922293155 5.97530667371278
    vertex 159.499999782945 57.2999999578529 6.70000000000008
    vertex 161.499999782945 57.2999999157061 6.69999999999979
  endloop
endfacet
facet normal 2.08931497498133e-008 0.991444861373813 0.13052619222003
  outer loop
    vertex 161.499999780934 57.2045922293155 7.42469332628681
    vertex 159.499999782945 57.2999999578529 6.70000000000008
    vertex 159.499999780934 57.2045922714623 7.42469332628704
  endloop
endfacet
facet normal 2.08931497498133e-008 0.991444861373813 0.13052619222003
  outer loop
    vertex 159.499999782945 57.2999999578529 6.70000000000008
    vertex 161.499999780934 57.2045922293155 7.42469332628681
    vertex 161.499999782945 57.2999999157061 6.69999999999979
  endloop
endfacet
facet normal 1.94693456655493e-008 0.923879532511282 0.3826834323651
  outer loop
    vertex 161.49999977504 56.9248710463025 8.09999999999981
    vertex 159.499999780934 57.2045922714623 7.42469332628704
    vertex 159.49999977504 56.9248710884494 8.10000000000004
  endloop
endfacet
facet normal 1.94693456655493e-008 0.923879532511282 0.3826834323651
  outer loop
    vertex 159.499999780934 57.2045922714623 7.42469332628704
    vertex 161.49999977504 56.9248710463025 8.09999999999981
    vertex 161.499999780934 57.2045922293155 7.42469332628681
  endloop
endfacet
facet normal 1.67187394142059e-008 0.793353340291208 0.608761429008756
  outer loop
    vertex 159.499999765663 56.4798989451753 8.67989898732233
    vertex 161.49999977504 56.9248710463025 8.09999999999981
    vertex 159.49999977504 56.9248710884494 8.10000000000004
  endloop
endfacet
facet normal 1.67187394142059e-008 0.793353340291208 0.608761429008756
  outer loop
    vertex 161.49999977504 56.9248710463025 8.09999999999981
    vertex 159.499999765663 56.4798989451753 8.67989898732233
    vertex 161.499999765663 56.4798989030284 8.6798989873221
  endloop
endfacet
facet normal 1.28287784801361e-008 0.608761429008756 0.793353340291208
  outer loop
    vertex 159.499999753443 55.8999999578529 9.12487113059652
    vertex 161.499999765663 56.4798989030284 8.6798989873221
    vertex 159.499999765663 56.4798989451753 8.67989898732233
  endloop
endfacet
facet normal 1.28287784801361e-008 0.608761429008756 0.793353340291208
  outer loop
    vertex 161.499999765663 56.4798989030284 8.6798989873221
    vertex 159.499999753443 55.8999999578529 9.12487113059652
    vertex 161.499999753443 55.8999999157061 9.12487113059622
  endloop
endfacet
facet normal 8.06455766921161e-009 0.3826834323651 0.923879532511282
  outer loop
    vertex 159.499999739212 55.22469328414 9.40459231360945
    vertex 161.499999753443 55.8999999157061 9.12487113059622
    vertex 159.499999753443 55.8999999578529 9.12487113059652
  endloop
endfacet
facet normal 8.06455766921161e-009 0.3826834323651 0.923879532511282
  outer loop
    vertex 161.499999753443 55.8999999157061 9.12487113059622
    vertex 159.499999739212 55.22469328414 9.40459231360945
    vertex 161.499999739212 55.2246932419932 9.40459231360921
  endloop
endfacet
facet normal 2.75075059066123e-009 0.130526192220026 0.991444861373814
  outer loop
    vertex 159.49999972394 54.4999999578529 9.50000000000003
    vertex 161.499999739212 55.2246932419932 9.40459231360921
    vertex 159.499999739212 55.22469328414 9.40459231360945
  endloop
endfacet
facet normal 2.75075059066123e-009 0.130526192220026 0.991444861373814
  outer loop
    vertex 161.499999739212 55.2246932419932 9.40459231360921
    vertex 159.49999972394 54.4999999578529 9.50000000000003
    vertex 161.49999972394 54.4999999157061 9.4999999999998
  endloop
endfacet
facet normal -2.75051564667987e-009 -0.130526192220026 0.991444861373814
  outer loop
    vertex 159.499999708668 53.7753066315659 9.40459231360945
    vertex 161.49999972394 54.4999999157061 9.4999999999998
    vertex 159.49999972394 54.4999999578529 9.50000000000003
  endloop
endfacet
facet normal -2.75051564667987e-009 -0.130526192220026 0.991444861373814
  outer loop
    vertex 161.49999972394 54.4999999157061 9.4999999999998
    vertex 159.499999708668 53.7753066315659 9.40459231360945
    vertex 161.499999708668 53.7753065894191 9.40459231360921
  endloop
endfacet
facet normal -8.06433884001284e-009 -0.3826834323651 0.923879532511282
  outer loop
    vertex 159.499999694437 53.0999999578529 9.12487113059652
    vertex 161.499999708668 53.7753065894191 9.40459231360921
    vertex 159.499999708668 53.7753066315659 9.40459231360945
  endloop
endfacet
facet normal -8.06433884001284e-009 -0.3826834323651 0.923879532511282
  outer loop
    vertex 161.499999708668 53.7753065894191 9.40459231360921
    vertex 159.499999694437 53.0999999578529 9.12487113059652
    vertex 161.499999694437 53.0999999157061 9.12487113059622
  endloop
endfacet
facet normal -1.28285906581294e-008 -0.608761429008756 0.793353340291208
  outer loop
    vertex 159.499999682217 52.5201009705306 8.67989898732233
    vertex 161.499999694437 53.0999999157061 9.12487113059622
    vertex 159.499999694437 53.0999999578529 9.12487113059652
  endloop
endfacet
facet normal -1.28285906581294e-008 -0.608761429008756 0.793353340291208
  outer loop
    vertex 161.499999694437 53.0999999157061 9.12487113059622
    vertex 159.499999682217 52.5201009705306 8.67989898732233
    vertex 161.499999682217 52.5201009283838 8.6798989873221
  endloop
endfacet
facet normal -1.67185950471314e-008 -0.793353340291208 0.608761429008756
  outer loop
    vertex 161.499999672839 52.0751287851097 8.09999999999981
    vertex 159.499999682217 52.5201009705306 8.67989898732233
    vertex 159.499999672839 52.0751288272565 8.10000000000004
  endloop
endfacet
facet normal -1.67185950471314e-008 -0.793353340291208 0.608761429008756
  outer loop
    vertex 159.499999682217 52.5201009705306 8.67989898732233
    vertex 161.499999672839 52.0751287851097 8.09999999999981
    vertex 161.499999682217 52.5201009283838 8.6798989873221
  endloop
endfacet
facet normal -1.94692550331312e-008 -0.923879532511282 0.3826834323651
  outer loop
    vertex 161.499999666944 51.7954076020967 7.42469332628681
    vertex 159.499999672839 52.0751288272565 8.10000000000004
    vertex 159.499999666944 51.7954076442435 7.42469332628704
  endloop
endfacet
facet normal -1.94692550331312e-008 -0.923879532511282 0.3826834323651
  outer loop
    vertex 159.499999672839 52.0751288272565 8.10000000000004
    vertex 161.499999666944 51.7954076020967 7.42469332628681
    vertex 161.499999672839 52.0751287851097 8.09999999999981
  endloop
endfacet
facet normal -1.94693413634352e-008 -0.923879532511287 -0.382683432365089
  outer loop
    vertex 161.499999672839 52.0751287851097 5.29999999999977
    vertex 159.499999666944 51.7954076442435 5.97530667371296
    vertex 159.499999672839 52.0751288272565 5.29999999999999
  endloop
endfacet
facet normal -1.94693413634352e-008 -0.923879532511287 -0.382683432365089
  outer loop
    vertex 159.499999666944 51.7954076442435 5.97530667371296
    vertex 161.499999672839 52.0751287851097 5.29999999999977
    vertex 161.499999666944 51.7954076020967 5.97530667371278
  endloop
endfacet
facet normal -1.67187325308229e-008 -0.793353340291197 -0.608761429008771
  outer loop
    vertex 161.499999682216 52.5201009283838 4.72010101267748
    vertex 159.499999672839 52.0751288272565 5.29999999999999
    vertex 159.499999682216 52.5201009705306 4.7201010126777
  endloop
endfacet
facet normal -1.67187325308229e-008 -0.793353340291197 -0.608761429008771
  outer loop
    vertex 159.499999672839 52.0751288272565 5.29999999999999
    vertex 161.499999682216 52.5201009283838 4.72010101267748
    vertex 161.499999672839 52.0751287851097 5.29999999999977
  endloop
endfacet
facet normal -1.28287784801361e-008 -0.608761429008756 -0.793353340291208
  outer loop
    vertex 161.499999682216 52.5201009283838 4.72010101267748
    vertex 159.499999694436 53.0999999578529 4.2751288694036
    vertex 161.499999694436 53.0999999157061 4.27512886940333
  endloop
endfacet
facet normal -1.28287784801361e-008 -0.608761429008756 -0.793353340291208
  outer loop
    vertex 159.499999694436 53.0999999578529 4.2751288694036
    vertex 161.499999682216 52.5201009283838 4.72010101267748
    vertex 159.499999682216 52.5201009705306 4.7201010126777
  endloop
endfacet
facet normal -8.06455766921161e-009 -0.3826834323651 -0.923879532511282
  outer loop
    vertex 161.499999694436 53.0999999157061 4.27512886940333
    vertex 159.499999708668 53.7753066315659 3.99540768639063
    vertex 161.499999708668 53.7753065894191 3.9954076863904
  endloop
endfacet
facet normal -8.06455766921161e-009 -0.3826834323651 -0.923879532511282
  outer loop
    vertex 159.499999708668 53.7753066315659 3.99540768639063
    vertex 161.499999694436 53.0999999157061 4.27512886940333
    vertex 159.499999694436 53.0999999578529 4.2751288694036
  endloop
endfacet
facet normal -2.75075059066123e-009 -0.130526192220026 -0.991444861373814
  outer loop
    vertex 161.499999708668 53.7753065894191 3.9954076863904
    vertex 159.499999723939 54.4999999578529 3.90000000000004
    vertex 161.499999723939 54.4999999157061 3.89999999999982
  endloop
endfacet
facet normal -2.75075059066123e-009 -0.130526192220026 -0.991444861373814
  outer loop
    vertex 159.499999723939 54.4999999578529 3.90000000000004
    vertex 161.499999708668 53.7753065894191 3.9954076863904
    vertex 159.499999708668 53.7753066315659 3.99540768639063
  endloop
endfacet
facet normal -8.06455256218513e-009 -0.382683432365073 -0.923879532511294
  outer loop
    vertex 157.4999996839 52.5999999999998 3.40910346561942
    vertex 157.099999703213 53.5164876370396 3.02948186010186
    vertex 157.499999703213 53.5164876286102 3.02948186010186
  endloop
endfacet
facet normal -8.06455256218513e-009 -0.382683432365073 -0.923879532511294
  outer loop
    vertex 157.099999703213 53.5164876370396 3.02948186010186
    vertex 157.4999996839 52.5999999999998 3.40910346561942
    vertex 157.0999996839 52.6000000084291 3.40910346561944
  endloop
endfacet
facet normal -2.7505212533059e-009 -0.130526192220014 0.991444861373815
  outer loop
    vertex 157.099999703214 53.5164876370396 10.3705181398988
    vertex 157.49999972394 54.4999999999998 10.5000000000003
    vertex 157.09999972394 54.5000000084291 10.5000000000003
  endloop
endfacet
facet normal -2.7505212533059e-009 -0.130526192220014 0.991444861373815
  outer loop
    vertex 157.49999972394 54.4999999999998 10.5000000000003
    vertex 157.099999703214 53.5164876370396 10.3705181398988
    vertex 157.499999703214 53.5164876286102 10.3705181398987
  endloop
endfacet
facet normal 8.06434389152737e-009 0.382683432365089 -0.923879532511287
  outer loop
    vertex 157.499999744665 55.4835123713894 3.02948186010186
    vertex 157.099999763979 56.4000000084291 3.40910346561944
    vertex 157.499999763979 56.3999999999998 3.40910346561942
  endloop
endfacet
facet normal 8.06434389152737e-009 0.382683432365089 -0.923879532511287
  outer loop
    vertex 157.099999763979 56.4000000084291 3.40910346561944
    vertex 157.499999744665 55.4835123713894 3.02948186010186
    vertex 157.099999744665 55.4835123798187 3.02948186010186
  endloop
endfacet
facet normal -1.67187359170042e-008 -0.79335334029125 -0.608761429008701
  outer loop
    vertex 157.099999667315 51.8129942399202 4.01299423149147
    vertex 157.499999654589 51.2091034656189 4.80000000000031
    vertex 157.099999654589 51.2091034740483 4.80000000000032
  endloop
endfacet
facet normal -1.67187359170042e-008 -0.79335334029125 -0.608761429008701
  outer loop
    vertex 157.499999654589 51.2091034656189 4.80000000000031
    vertex 157.099999667315 51.8129942399202 4.01299423149147
    vertex 157.499999667315 51.8129942314909 4.0129942314914
  endloop
endfacet
facet normal -1.28285950435092e-008 -0.608761429008701 0.79335334029125
  outer loop
    vertex 157.099999667315 51.8129942399203 9.38700576850921
    vertex 157.4999996839 52.5999999999998 9.99089653438113
    vertex 157.0999996839 52.6000000084292 9.99089653438115
  endloop
endfacet
facet normal -1.28285950435092e-008 -0.608761429008701 0.79335334029125
  outer loop
    vertex 157.4999996839 52.5999999999998 9.99089653438113
    vertex 157.099999667315 51.8129942399203 9.38700576850921
    vertex 157.499999667315 51.8129942314909 9.38700576850919
  endloop
endfacet
facet normal 1.94693435283701e-008 0.923879532511287 0.382683432365089
  outer loop
    vertex 157.49999979329 57.7908965343806 8.60000000000026
    vertex 157.09999980129 58.1705181483276 7.68351237138989
    vertex 157.09999979329 57.79089654281 8.60000000000028
  endloop
endfacet
facet normal 1.94693435283701e-008 0.923879532511287 0.382683432365089
  outer loop
    vertex 157.09999980129 58.1705181483276 7.68351237138989
    vertex 157.49999979329 57.7908965343806 8.60000000000026
    vertex 157.49999980129 58.1705181398982 7.68351237138987
  endloop
endfacet
facet normal 2.08931180834262e-008 0.991444861373809 -0.130526192220059
  outer loop
    vertex 157.499999804019 58.2999999999998 6.70000000000026
    vertex 157.09999980129 58.1705181483276 5.71648762861073
    vertex 157.099999804019 58.3000000084291 6.70000000000033
  endloop
endfacet
facet normal 2.08931180834262e-008 0.991444861373809 -0.130526192220059
  outer loop
    vertex 157.09999980129 58.1705181483276 5.71648762861073
    vertex 157.499999804019 58.2999999999998 6.70000000000026
    vertex 157.49999980129 58.1705181398982 5.7164876286107
  endloop
endfacet
facet normal -8.06434394703934e-009 -0.382683432365128 0.923879532511271
  outer loop
    vertex 157.0999996839 52.6000000084292 9.99089653438115
    vertex 157.499999703214 53.5164876286102 10.3705181398987
    vertex 157.099999703214 53.5164876370396 10.3705181398988
  endloop
endfacet
facet normal -8.06434394703934e-009 -0.382683432365128 0.923879532511271
  outer loop
    vertex 157.499999703214 53.5164876286102 10.3705181398987
    vertex 157.0999996839 52.6000000084292 9.99089653438115
    vertex 157.4999996839 52.5999999999998 9.99089653438113
  endloop
endfacet
facet normal 2.08931475363061e-008 0.991444861373809 0.130526192220059
  outer loop
    vertex 157.49999980129 58.1705181398982 7.68351237138987
    vertex 157.099999804019 58.3000000084291 6.70000000000033
    vertex 157.09999980129 58.1705181483276 7.68351237138989
  endloop
endfacet
facet normal 2.08931475363061e-008 0.991444861373809 0.130526192220059
  outer loop
    vertex 157.099999804019 58.3000000084291 6.70000000000033
    vertex 157.49999980129 58.1705181398982 7.68351237138987
    vertex 157.499999804019 58.2999999999998 6.70000000000026
  endloop
endfacet
facet normal 1.28287740947546e-008 0.60876142900873 0.793353340291228
  outer loop
    vertex 157.099999763979 56.4000000084292 9.99089653438115
    vertex 157.499999780564 57.1870057685087 9.3870057685091
    vertex 157.099999780564 57.187005776938 9.38700576850916
  endloop
endfacet
facet normal 1.28287740947546e-008 0.60876142900873 0.793353340291228
  outer loop
    vertex 157.499999780564 57.1870057685087 9.3870057685091
    vertex 157.099999763979 56.4000000084292 9.99089653438115
    vertex 157.499999763979 56.3999999999998 9.99089653438113
  endloop
endfacet
facet normal -1.67185985998455e-008 -0.793353340291228 0.60876142900873
  outer loop
    vertex 157.499999654589 51.2091034656189 8.60000000000028
    vertex 157.099999667315 51.8129942399203 9.38700576850921
    vertex 157.099999654589 51.2091034740483 8.60000000000035
  endloop
endfacet
facet normal -1.67185985998455e-008 -0.793353340291228 0.60876142900873
  outer loop
    vertex 157.099999667315 51.8129942399203 9.38700576850921
    vertex 157.499999654589 51.2091034656189 8.60000000000028
    vertex 157.499999667315 51.8129942314909 9.38700576850919
  endloop
endfacet
facet normal 8.06455256218513e-009 0.382683432365073 0.923879532511294
  outer loop
    vertex 157.099999744666 55.4835123798187 10.3705181398987
    vertex 157.499999763979 56.3999999999998 9.99089653438113
    vertex 157.099999763979 56.4000000084292 9.99089653438115
  endloop
endfacet
facet normal 8.06455256218513e-009 0.382683432365073 0.923879532511294
  outer loop
    vertex 157.499999763979 56.3999999999998 9.99089653438113
    vertex 157.099999744666 55.4835123798187 10.3705181398987
    vertex 157.499999744666 55.4835123713894 10.3705181398987
  endloop
endfacet
facet normal -1.94693435283701e-008 -0.923879532511287 -0.382683432365089
  outer loop
    vertex 157.499999654589 51.2091034656189 4.80000000000031
    vertex 157.099999646589 50.8294818685307 5.71648762861073
    vertex 157.099999654589 51.2091034740483 4.80000000000032
  endloop
endfacet
facet normal -1.94693435283701e-008 -0.923879532511287 -0.382683432365089
  outer loop
    vertex 157.099999646589 50.8294818685307 5.71648762861073
    vertex 157.499999654589 51.2091034656189 4.80000000000031
    vertex 157.499999646589 50.8294818601013 5.7164876286107
  endloop
endfacet
facet normal 1.67187359170042e-008 0.79335334029125 0.608761429008701
  outer loop
    vertex 157.099999780564 57.187005776938 9.38700576850916
    vertex 157.49999979329 57.7908965343806 8.60000000000026
    vertex 157.09999979329 57.79089654281 8.60000000000028
  endloop
endfacet
facet normal 1.67187359170042e-008 0.79335334029125 0.608761429008701
  outer loop
    vertex 157.49999979329 57.7908965343806 8.60000000000026
    vertex 157.099999780564 57.187005776938 9.38700576850916
    vertex 157.499999780564 57.1870057685087 9.3870057685091
  endloop
endfacet
facet normal 2.75074503954681e-009 0.130526192220059 0.99144486137381
  outer loop
    vertex 157.09999972394 54.5000000084291 10.5000000000003
    vertex 157.499999744666 55.4835123713894 10.3705181398987
    vertex 157.099999744666 55.4835123798187 10.3705181398987
  endloop
endfacet
facet normal 2.75074503954681e-009 0.130526192220059 0.99144486137381
  outer loop
    vertex 157.499999744666 55.4835123713894 10.3705181398987
    vertex 157.09999972394 54.5000000084291 10.5000000000003
    vertex 157.49999972394 54.4999999999998 10.5000000000003
  endloop
endfacet
facet normal -1.28287740392434e-008 -0.60876142900873 -0.793353340291228
  outer loop
    vertex 157.499999667315 51.8129942314909 4.0129942314914
    vertex 157.0999996839 52.6000000084291 3.40910346561944
    vertex 157.4999996839 52.5999999999998 3.40910346561942
  endloop
endfacet
facet normal -1.28287740392434e-008 -0.60876142900873 -0.793353340291228
  outer loop
    vertex 157.0999996839 52.6000000084291 3.40910346561944
    vertex 157.499999667315 51.8129942314909 4.0129942314914
    vertex 157.099999667315 51.8129942399202 4.01299423149147
  endloop
endfacet
facet normal -1.94692571980663e-008 -0.923879532511294 0.382683432365073
  outer loop
    vertex 157.499999646589 50.8294818601013 7.68351237138987
    vertex 157.099999654589 51.2091034740483 8.60000000000035
    vertex 157.099999646589 50.8294818685307 7.68351237138989
  endloop
endfacet
facet normal -1.94692571980663e-008 -0.923879532511294 0.382683432365073
  outer loop
    vertex 157.099999654589 51.2091034740483 8.60000000000035
    vertex 157.499999646589 50.8294818601013 7.68351237138987
    vertex 157.499999654589 51.2091034656189 8.60000000000028
  endloop
endfacet
facet normal -2.75074503954681e-009 -0.130526192220059 -0.99144486137381
  outer loop
    vertex 157.499999703213 53.5164876286102 3.02948186010186
    vertex 157.099999723939 54.5000000084291 2.90000000000031
    vertex 157.499999723939 54.4999999999998 2.90000000000029
  endloop
endfacet
facet normal -2.75074503954681e-009 -0.130526192220059 -0.99144486137381
  outer loop
    vertex 157.099999723939 54.5000000084291 2.90000000000031
    vertex 157.499999703213 53.5164876286102 3.02948186010186
    vertex 157.099999703213 53.5164876370396 3.02948186010186
  endloop
endfacet
facet normal 2.75052119779569e-009 0.130526192220059 -0.99144486137381
  outer loop
    vertex 157.499999723939 54.4999999999998 2.90000000000029
    vertex 157.099999744665 55.4835123798187 3.02948186010186
    vertex 157.499999744665 55.4835123713894 3.02948186010186
  endloop
endfacet
facet normal 2.75052119779569e-009 0.130526192220059 -0.99144486137381
  outer loop
    vertex 157.099999744665 55.4835123798187 3.02948186010186
    vertex 157.499999723939 54.4999999999998 2.90000000000029
    vertex 157.099999723939 54.5000000084291 2.90000000000031
  endloop
endfacet
facet normal 1.28285950435092e-008 0.608761429008701 -0.79335334029125
  outer loop
    vertex 157.499999763979 56.3999999999998 3.40910346561942
    vertex 157.099999780564 57.187005776938 4.0129942314914
    vertex 157.499999780564 57.1870057685086 4.0129942314914
  endloop
endfacet
facet normal 1.28285950435092e-008 0.608761429008701 -0.79335334029125
  outer loop
    vertex 157.099999780564 57.187005776938 4.0129942314914
    vertex 157.499999763979 56.3999999999998 3.40910346561942
    vertex 157.099999763979 56.4000000084291 3.40910346561944
  endloop
endfacet
facet normal 1.67185985998455e-008 0.793353340291228 -0.60876142900873
  outer loop
    vertex 157.49999979329 57.7908965343806 4.80000000000022
    vertex 157.099999780564 57.187005776938 4.0129942314914
    vertex 157.09999979329 57.79089654281 4.80000000000029
  endloop
endfacet
facet normal 1.67185985998455e-008 0.793353340291228 -0.60876142900873
  outer loop
    vertex 157.099999780564 57.187005776938 4.0129942314914
    vertex 157.49999979329 57.7908965343806 4.80000000000022
    vertex 157.499999780564 57.1870057685086 4.0129942314914
  endloop
endfacet
facet normal 1.94692571980663e-008 0.923879532511294 -0.382683432365073
  outer loop
    vertex 157.09999980129 58.1705181483276 5.71648762861073
    vertex 157.49999979329 57.7908965343806 4.80000000000022
    vertex 157.09999979329 57.79089654281 4.80000000000029
  endloop
endfacet
facet normal 1.94692571980663e-008 0.923879532511294 -0.382683432365073
  outer loop
    vertex 157.49999979329 57.7908965343806 4.80000000000022
    vertex 157.09999980129 58.1705181483276 5.71648762861073
    vertex 157.49999980129 58.1705181398982 5.7164876286107
  endloop
endfacet
facet normal 1.12810101679368e-013 -2.37729452244187e-021 1.0
  outer loop
    vertex 157.099999625516 49.8294818685307 7.68351237138989
    vertex 157.499999646589 50.8294818601013 7.68351237138987
    vertex 157.099999646589 50.8294818685307 7.68351237138989
  endloop
endfacet
facet normal 1.12810101679368e-013 -2.37729452244187e-021 1.0
  outer loop
    vertex 157.499999646589 50.8294818601013 7.68351237138987
    vertex 157.099999625516 49.8294818685307 7.68351237138989
    vertex 157.499999625516 49.8294818601013 7.68351237138987
  endloop
endfacet
facet normal -1.12810101679368e-013 2.37729452244187e-021 -1.0
  outer loop
    vertex 157.499999625516 49.8294818601013 5.7164876286107
    vertex 157.099999646589 50.8294818685307 5.71648762861073
    vertex 157.499999646589 50.8294818601013 5.7164876286107
  endloop
endfacet
facet normal -1.12810101679368e-013 2.37729452244187e-021 -1.0
  outer loop
    vertex 157.099999646589 50.8294818685307 5.71648762861073
    vertex 157.499999625516 49.8294818601013 5.7164876286107
    vertex 157.099999625516 49.8294818685307 5.71648762861073
  endloop
endfacet
facet normal 1.18361216802493e-013 -2.49427549647875e-021 1.0
  outer loop
    vertex 159.499999645871 50.7954076442435 7.42469332628704
    vertex 161.499999666944 51.7954076020967 7.42469332628681
    vertex 159.499999666944 51.7954076442435 7.42469332628704
  endloop
endfacet
facet normal 1.18361216802493e-013 -2.49427549647875e-021 1.0
  outer loop
    vertex 161.499999666944 51.7954076020967 7.42469332628681
    vertex 159.499999645871 50.7954076442435 7.42469332628704
    vertex 161.499999645871 50.7954076020967 7.42469332628681
  endloop
endfacet
facet normal -1.18361216802493e-013 2.49427549647875e-021 -1.0
  outer loop
    vertex 161.499999645871 50.7954076020967 5.97530667371278
    vertex 159.499999666944 51.7954076442435 5.97530667371296
    vertex 161.499999666944 51.7954076020967 5.97530667371278
  endloop
endfacet
facet normal -1.18361216802493e-013 2.49427549647875e-021 -1.0
  outer loop
    vertex 159.499999666944 51.7954076442435 5.97530667371296
    vertex 161.499999645871 50.7954076020967 5.97530667371278
    vertex 159.499999645871 50.7954076442435 5.97530667371296
  endloop
endfacet
facet normal -2.1073418843276e-008 -1.0 -9.4039548065783e-036
  outer loop
    vertex 159.499999645871 50.7954076442435 5.97530667371296
    vertex 161.499999645871 50.7954076020967 7.42469332628681
    vertex 159.499999645871 50.7954076442435 7.42469332628704
  endloop
endfacet
facet normal -2.1073418843276e-008 -1.0 -9.4039548065783e-036
  outer loop
    vertex 161.499999645871 50.7954076020967 7.42469332628681
    vertex 159.499999645871 50.7954076442435 5.97530667371296
    vertex 161.499999645871 50.7954076020967 5.97530667371278
  endloop
endfacet
facet normal -2.1073418843276e-008 -1.0 -9.4039548065783e-036
  outer loop
    vertex 157.099999625516 49.8294818685307 5.71648762861073
    vertex 157.499999625516 49.8294818601013 7.68351237138987
    vertex 157.099999625516 49.8294818685307 7.68351237138989
  endloop
endfacet
facet normal -2.1073418843276e-008 -1.0 -9.4039548065783e-036
  outer loop
    vertex 157.499999625516 49.8294818601013 7.68351237138987
    vertex 157.099999625516 49.8294818685307 5.71648762861073
    vertex 157.499999625516 49.8294818601013 5.7164876286107
  endloop
endfacet
facet normal 0.128339346206458 -2.70454884038666e-009 -0.991730312239824
  outer loop
    vertex 159.499999645871 50.7954076442435 5.97530667371296
    vertex 157.499999646589 50.8294818601013 5.7164876286107
    vertex 159.499999666944 51.7954076442435 5.97530667371296
  endloop
endfacet
facet normal 0.128339346206458 -2.70454884038666e-009 -0.991730312239824
  outer loop
    vertex 157.499999646589 50.8294818601013 5.7164876286107
    vertex 159.499999645871 50.7954076442435 5.97530667371296
    vertex 157.499999625516 49.8294818601013 5.7164876286107
  endloop
endfacet
facet normal 0.128339346206691 -2.70454879668579e-009 0.991730312239794
  outer loop
    vertex 157.499999646589 50.8294818601013 7.68351237138987
    vertex 159.499999645871 50.7954076442435 7.42469332628704
    vertex 159.499999666944 51.7954076442435 7.42469332628704
  endloop
endfacet
facet normal 0.128339346206691 -2.70454879668579e-009 0.991730312239794
  outer loop
    vertex 159.499999645871 50.7954076442435 7.42469332628704
    vertex 157.499999646589 50.8294818601013 7.68351237138987
    vertex 157.499999625516 49.8294818601013 7.68351237138987
  endloop
endfacet
facet normal 0.434898232170886 -0.900479609793936 -5.14010745640355e-014
  outer loop
    vertex 157.499999625516 49.8294818601013 5.7164876286107
    vertex 159.499999645871 50.7954076442435 7.42469332628704
    vertex 157.499999625516 49.8294818601013 7.68351237138987
  endloop
endfacet
facet normal 0.434898232170886 -0.900479609793936 -5.14010745640355e-014
  outer loop
    vertex 159.499999645871 50.7954076442435 7.42469332628704
    vertex 157.499999625516 49.8294818601013 5.7164876286107
    vertex 159.499999645871 50.7954076442435 5.97530667371296
  endloop
endfacet
facet normal 1.49012061299783e-008 0.707106781186545 0.70710678118655
  outer loop
    vertex 160.899999679236 52.3786795847905 6.34644660940653
    vertex 161.499999709038 53.7928931345196 4.93223304703339
    vertex 160.899999709038 53.7928931471636 4.93223304703344
  endloop
endfacet
facet normal 1.49012061299783e-008 0.707106781186545 0.70710678118655
  outer loop
    vertex 161.499999709038 53.7928931345196 4.93223304703339
    vertex 160.899999679236 52.3786795847905 6.34644660940653
    vertex 161.499999679236 52.3786795721465 6.34644660940648
  endloop
endfacet
facet normal -1.49010945968371e-008 -0.70710678118655 0.707106781186545
  outer loop
    vertex 160.899999709038 53.7928931471636 4.93223304703344
    vertex 161.499999768643 56.6213202592658 7.7606601717796
    vertex 160.899999768643 56.6213202719098 7.76066017177966
  endloop
endfacet
facet normal -1.49010945968371e-008 -0.70710678118655 0.707106781186545
  outer loop
    vertex 161.499999768643 56.6213202592658 7.7606601717796
    vertex 160.899999709038 53.7928931471636 4.93223304703344
    vertex 161.499999709038 53.7928931345196 4.93223304703339
  endloop
endfacet
facet normal 1.49010942877061e-008 0.707106781186552 -0.707106781186543
  outer loop
    vertex 161.499999753742 55.9142134780792 8.46776695296615
    vertex 160.899999709038 53.7928931471636 6.34644660940653
    vertex 160.899999753742 55.9142134907233 8.46776695296621
  endloop
endfacet
facet normal 1.49010942877061e-008 0.707106781186552 -0.707106781186543
  outer loop
    vertex 160.899999709038 53.7928931471636 6.34644660940653
    vertex 161.499999753742 55.9142134780792 8.46776695296615
    vertex 161.499999709038 53.7928931345196 6.34644660940648
  endloop
endfacet
facet normal -1.49012260689355e-008 -0.707106781186547 -0.707106781186547
  outer loop
    vertex 161.499999768643 56.6213202592658 7.7606601717796
    vertex 160.899999753742 55.9142134907233 8.46776695296621
    vertex 160.899999768643 56.6213202719098 7.76066017177966
  endloop
endfacet
facet normal -1.49012260689355e-008 -0.707106781186547 -0.707106781186547
  outer loop
    vertex 160.899999753742 55.9142134907233 8.46776695296621
    vertex 161.499999768643 56.6213202592658 7.7606601717796
    vertex 161.499999753742 55.9142134780792 8.46776695296615
  endloop
endfacet
facet normal 1.49010945195544e-008 0.70710678118655 -0.707106781186545
  outer loop
    vertex 161.499999694137 53.085786353333 7.05355339059303
    vertex 160.899999679236 52.3786795847905 6.34644660940653
    vertex 160.899999694137 53.0857863659771 7.05355339059309
  endloop
endfacet
facet normal 1.49010945195544e-008 0.70710678118655 -0.707106781186545
  outer loop
    vertex 160.899999679236 52.3786795847905 6.34644660940653
    vertex 161.499999694137 53.085786353333 7.05355339059303
    vertex 161.499999679236 52.3786795721465 6.34644660940648
  endloop
endfacet
facet normal -1.4901216099457e-008 -0.70710678118655 -0.707106781186545
  outer loop
    vertex 160.899999709038 53.7928931471636 6.34644660940653
    vertex 161.499999694137 53.085786353333 7.05355339059303
    vertex 160.899999694137 53.0857863659771 7.05355339059309
  endloop
endfacet
facet normal -1.4901216099457e-008 -0.70710678118655 -0.707106781186545
  outer loop
    vertex 161.499999694137 53.085786353333 7.05355339059303
    vertex 160.899999709038 53.7928931471636 6.34644660940653
    vertex 161.499999709038 53.7928931345196 6.34644660940648
  endloop
endfacet
facet normal 1.0 -2.10734023182697e-008 -6.30277994951209e-014
  outer loop
    vertex 160.899999768643 56.6213202719098 7.76066017177966
    vertex 160.899999709038 53.7928931471636 6.34644660940653
    vertex 160.899999709038 53.7928931471636 4.93223304703344
  endloop
endfacet
facet normal 1.0 -2.10734023182697e-008 -6.30277994951209e-014
  outer loop
    vertex 160.899999709038 53.7928931471636 6.34644660940653
    vertex 160.899999768643 56.6213202719098 7.76066017177966
    vertex 160.899999753742 55.9142134907233 8.46776695296621
  endloop
endfacet
facet normal 1.0 -2.10734023182697e-008 -6.30277994951209e-014
  outer loop
    vertex 160.899999709038 53.7928931471636 6.34644660940653
    vertex 160.899999679236 52.3786795847905 6.34644660940653
    vertex 160.899999709038 53.7928931471636 4.93223304703344
  endloop
endfacet
facet normal 1.0 -2.10734023182697e-008 -6.30277994951209e-014
  outer loop
    vertex 160.899999679236 52.3786795847905 6.34644660940653
    vertex 160.899999709038 53.7928931471636 6.34644660940653
    vertex 160.899999694137 53.0857863659771 7.05355339059309
  endloop
endfacet
endsolid Remix of isaac879 Pan Tilt Camera Mount
