solid Remix of isaac879 Pan Tilt Camera Mount
facet normal -1.33916776148508e-008 -0.130526192220029 -0.991444861373813
  outer loop
    vertex 99.6001430551112 81.0542032068487 48.0420740014934
    vertex 106.200143039408 80.6142108412464 48.1000000065326
    vertex 99.6001430566092 80.6142108301744 48.100000096802
  endloop
endfacet
facet normal -1.33916776148508e-008 -0.130526192220029 -0.991444861373813
  outer loop
    vertex 106.200143039408 80.6142108412464 48.1000000065326
    vertex 99.6001430551112 81.0542032068487 48.0420740014934
    vertex 106.20014303791 81.0542032179207 48.042073911224
  endloop
endfacet
facet normal 1.38089633187048e-008 -0.130526192220075 0.991444861373807
  outer loop
    vertex 106.200142992768 80.6142108412464 44.7000000065326
    vertex 99.6001430100604 81.0542032068487 44.7579261921106
    vertex 99.6001430099692 80.6142108301744 44.700000096802
  endloop
endfacet
facet normal 1.38089633187048e-008 -0.130526192220075 0.991444861373807
  outer loop
    vertex 99.6001430100604 81.0542032068487 44.7579261921106
    vertex 106.200142992768 80.6142108412464 44.7000000065326
    vertex 106.200142992859 81.0542032179207 44.7579261018412
  endloop
endfacet
facet normal -1.18560573601096e-008 0.608761429008701 -0.793353340291251
  outer loop
    vertex 99.6001430548437 79.7642108301744 47.8722432832356
    vertex 106.200143034499 79.4121293132293 47.6020815345497
    vertex 99.6001430517005 79.4121293021572 47.6020816248192
  endloop
endfacet
facet normal -1.18560573601096e-008 0.608761429008701 -0.793353340291251
  outer loop
    vertex 106.200143034499 79.4121293132293 47.6020815345497
    vertex 99.6001430548437 79.7642108301744 47.8722432832356
    vertex 106.200143037643 79.7642108412464 47.8722431929661
  endloop
endfacet
facet normal 1.32851911512284e-008 -0.382683432365078 0.923879532511292
  outer loop
    vertex 106.200142992859 81.0542032179207 44.7579261018412
    vertex 99.6001430117348 81.4642108301744 44.9277569103685
    vertex 99.6001430100604 81.0542032068487 44.7579261921106
  endloop
endfacet
facet normal 1.32851911512284e-008 -0.382683432365078 0.923879532511292
  outer loop
    vertex 99.6001430117348 81.4642108301744 44.9277569103685
    vertex 106.200142992859 81.0542032179207 44.7579261018412
    vertex 106.200142994534 81.4642108412464 44.927756820099
  endloop
endfacet
facet normal 1.33916777237202e-008 0.13052619222008 0.991444861373807
  outer loop
    vertex 106.200142994266 80.1742184645721 44.7579261018412
    vertex 99.6001430099692 80.6142108301744 44.700000096802
    vertex 99.6001430114672 80.1742184535001 44.7579261921106
  endloop
endfacet
facet normal 1.33916777237202e-008 0.13052619222008 0.991444861373807
  outer loop
    vertex 99.6001430099692 80.6142108301744 44.700000096802
    vertex 106.200142994266 80.1742184645721 44.7579261018412
    vertex 106.200142992768 80.6142108412464 44.7000000065326
  endloop
endfacet
facet normal -6.72632644886879e-009 0.92387953251128 -0.382683432365106
  outer loop
    vertex 106.200143024749 78.972136936555 46.8399923832069
    vertex 99.6001430473026 79.1419676437408 47.250000096802
    vertex 106.200143030102 79.1419676548129 47.2500000065326
  endloop
endfacet
facet normal -6.72632644886879e-009 0.92387953251128 -0.382683432365106
  outer loop
    vertex 99.6001430473026 79.1419676437408 47.250000096802
    vertex 106.200143024749 78.972136936555 46.8399923832069
    vertex 99.6001430419497 78.9721369254829 46.8399924734763
  endloop
endfacet
facet normal 9.61895019013087e-009 -0.793353340291221 0.60876142900874
  outer loop
    vertex 99.6001430192758 82.0864540166079 45.550000096802
    vertex 106.200142997677 81.8162923692636 45.1979184785154
    vertex 106.200143002075 82.08645402768 45.5500000065326
  endloop
endfacet
facet normal 9.61895019013087e-009 -0.793353340291221 0.60876142900874
  outer loop
    vertex 106.200142997677 81.8162923692636 45.1979184785154
    vertex 99.6001430192758 82.0864540166079 45.550000096802
    vertex 99.6001430148779 81.8162923581915 45.1979185687849
  endloop
endfacet
facet normal 9.9098764781599e-009 0.60876142900872 0.793353340291236
  outer loop
    vertex 106.20014300152 79.4121293132293 45.1979184785154
    vertex 99.6001430144522 79.7642108301744 44.9277569103685
    vertex 99.600143018721 79.4121293021572 45.1979185687849
  endloop
endfacet
facet normal 9.9098764781599e-009 0.60876142900872 0.793353340291236
  outer loop
    vertex 99.6001430144522 79.7642108301744 44.9277569103685
    vertex 106.20014300152 79.4121293132293 45.1979184785154
    vertex 106.200142997251 79.7642108412464 44.927756820099
  endloop
endfacet
facet normal 7.08263894352931e-009 0.793353340291248 0.608761429008705
  outer loop
    vertex 99.600143018721 79.4121293021572 45.1979185687849
    vertex 106.200143006782 79.1419676548129 45.5500000065326
    vertex 106.20014300152 79.4121293132293 45.1979184785154
  endloop
endfacet
facet normal 7.08263894352931e-009 0.793353340291248 0.608761429008705
  outer loop
    vertex 106.200143006782 79.1419676548129 45.5500000065326
    vertex 99.600143018721 79.4121293021572 45.1979185687849
    vertex 99.6001430239826 79.1419676437408 45.550000096802
  endloop
endfacet
facet normal -3.37531658357847e-009 0.991444861373814 -0.130526192220027
  outer loop
    vertex 106.200143018806 78.9142108412464 46.4000000065326
    vertex 99.6001430419497 78.9721369254829 46.8399924734763
    vertex 106.200143024749 78.972136936555 46.8399923832069
  endloop
endfacet
facet normal -3.37531658357847e-009 0.991444861373814 -0.130526192220027
  outer loop
    vertex 99.6001430419497 78.9721369254829 46.8399924734763
    vertex 106.200143018806 78.9142108412464 46.4000000065326
    vertex 99.6001430360067 78.9142108301744 46.400000096802
  endloop
endfacet
facet normal -2.05716575890537e-010 -0.991444861373808 -0.130526192220073
  outer loop
    vertex 99.6001430367 82.2562847348658 46.8399924734763
    vertex 106.200143013371 82.3142108412464 46.4000000065326
    vertex 106.200143019499 82.2562847459378 46.8399923832069
  endloop
endfacet
facet normal -2.05716575890537e-010 -0.991444861373808 -0.130526192220073
  outer loop
    vertex 106.200143013371 82.3142108412464 46.4000000065326
    vertex 99.6001430367 82.2562847348658 46.8399924734763
    vertex 99.6001430305717 82.3142108301744 46.400000096802
  endloop
endfacet
facet normal -3.77272944475417e-009 -0.9238795325113 -0.382683432365059
  outer loop
    vertex 99.6001430425958 82.0864540166079 47.250000096802
    vertex 106.200143019499 82.2562847459378 46.8399923832069
    vertex 106.200143025395 82.08645402768 47.2500000065326
  endloop
endfacet
facet normal -3.77272944475417e-009 -0.9238795325113 -0.382683432365059
  outer loop
    vertex 106.200143019499 82.2562847459378 46.8399923832069
    vertex 99.6001430425958 82.0864540166079 47.250000096802
    vertex 99.6001430367 82.2562847348658 46.8399924734763
  endloop
endfacet
facet normal -1.18560553497233e-008 0.608761429008723 -0.793353340291234
  outer loop
    vertex 99.6001430040478 82.5233991393781 44.4908117875983
    vertex 105.400142999056 81.9642108394462 44.061731427022
    vertex 99.6001429990557 81.9642108301744 44.061731506584
  endloop
endfacet
facet normal -1.18560553497233e-008 0.608761429008723 -0.793353340291234
  outer loop
    vertex 105.400142999056 81.9642108394462 44.061731427022
    vertex 99.6001430040478 82.5233991393781 44.4908117875983
    vertex 105.400143004048 82.5233991486498 44.4908117080363
  endloop
endfacet
facet normal -7.08263826214967e-009 -0.793353340291214 -0.608761429008749
  outer loop
    vertex 99.6001430478574 81.8162923581915 47.6020816248191
    vertex 106.200143025395 82.08645402768 47.2500000065326
    vertex 106.200143030656 81.8162923692636 47.6020815345497
  endloop
endfacet
facet normal -7.08263826214967e-009 -0.793353340291214 -0.608761429008749
  outer loop
    vertex 106.200143025395 82.08645402768 47.2500000065326
    vertex 99.6001430478574 81.8162923581915 47.6020816248191
    vertex 99.6001430425958 82.0864540166079 47.250000096802
  endloop
endfacet
facet normal -1.32851560387385e-008 0.382683432365102 -0.923879532511282
  outer loop
    vertex 99.6001429990557 81.9642108301744 44.061731506584
    vertex 105.400142996397 81.313022261223 43.7920002862595
    vertex 99.6001429963965 81.3130222519512 43.7920003658215
  endloop
endfacet
facet normal -1.32851560387385e-008 0.382683432365102 -0.923879532511282
  outer loop
    vertex 105.400142996397 81.313022261223 43.7920002862595
    vertex 99.6001429990557 81.9642108301744 44.061731506584
    vertex 105.400142999056 81.9642108394462 44.061731427022
  endloop
endfacet
facet normal -9.90987766796516e-009 -0.608761429008708 -0.793353340291244
  outer loop
    vertex 99.6001430478574 81.8162923581915 47.6020816248191
    vertex 106.200143034925 81.4642108412464 47.8722431929661
    vertex 99.6001430521262 81.4642108301744 47.8722432832355
  endloop
endfacet
facet normal -9.90987766796516e-009 -0.608761429008708 -0.793353340291244
  outer loop
    vertex 106.200143034925 81.4642108412464 47.8722431929661
    vertex 99.6001430478574 81.8162923581915 47.6020816248191
    vertex 106.200143030656 81.8162923692636 47.6020815345497
  endloop
endfacet
facet normal -1.32851922078181e-008 0.382683432365125 -0.923879532511272
  outer loop
    vertex 99.600143056518 80.1742184535001 48.0420740014934
    vertex 106.200143037643 79.7642108412464 47.8722431929661
    vertex 99.6001430548437 79.7642108301744 47.8722432832356
  endloop
endfacet
facet normal -1.32851922078181e-008 0.382683432365125 -0.923879532511272
  outer loop
    vertex 106.200143037643 79.7642108412464 47.8722431929661
    vertex 99.600143056518 80.1742184535001 48.0420740014934
    vertex 106.200143039317 80.1742184645721 48.042073911224
  endloop
endfacet
facet normal -3.77259574441463e-009 -0.923879532511293 -0.382683432365074
  outer loop
    vertex 99.600143027872 78.0062110991939 45.7011886750252
    vertex 105.400143018508 78.2759422492282 45.05000001724
    vertex 105.400143027872 78.0062111084657 45.7011885954632
  endloop
endfacet
facet normal -3.77259574441463e-009 -0.923879532511293 -0.382683432365074
  outer loop
    vertex 105.400143018508 78.2759422492282 45.05000001724
    vertex 99.600143027872 78.0062110991939 45.7011886750252
    vertex 99.6001430185081 78.2759422399564 45.050000096802
  endloop
endfacet
facet normal -9.61894950995044e-009 0.793353340291236 -0.60876142900872
  outer loop
    vertex 106.200143030102 79.1419676548129 47.2500000065326
    vertex 99.6001430517005 79.4121293021572 47.6020816248192
    vertex 106.200143034499 79.4121293132293 47.6020815345497
  endloop
endfacet
facet normal -9.61894950995044e-009 0.793353340291236 -0.60876142900872
  outer loop
    vertex 99.6001430517005 79.4121293021572 47.6020816248192
    vertex 106.200143030102 79.1419676548129 47.2500000065326
    vertex 99.6001430473026 79.1419676437408 47.250000096802
  endloop
endfacet
facet normal 6.72632733466337e-009 -0.923879532511298 0.382683432365063
  outer loop
    vertex 99.6001430246286 82.2562847348658 45.9600077201277
    vertex 106.200143002075 82.08645402768 45.5500000065326
    vertex 106.200143007428 82.2562847459378 45.9600076298583
  endloop
endfacet
facet normal 6.72632733466337e-009 -0.923879532511298 0.382683432365063
  outer loop
    vertex 106.200143002075 82.08645402768 45.5500000065326
    vertex 99.6001430246286 82.2562847348658 45.9600077201277
    vertex 99.6001430192758 82.0864540166079 45.550000096802
  endloop
endfacet
facet normal -9.90974205166543e-009 -0.608761429008726 -0.793353340291231
  outer loop
    vertex 99.6001430033716 79.2642108301743 44.061731506584
    vertex 105.400143010151 78.7050225302425 44.4908117080363
    vertex 99.6001430101515 78.7050225209707 44.4908117875984
  endloop
endfacet
facet normal -9.90974205166543e-009 -0.608761429008726 -0.793353340291231
  outer loop
    vertex 105.400143010151 78.7050225302425 44.4908117080363
    vertex 99.6001430033716 79.2642108301743 44.061731506584
    vertex 105.400143003372 79.2642108394462 44.061731427022
  endloop
endfacet
facet normal -3.37541321938598e-009 0.991444861373811 -0.130526192220048
  outer loop
    vertex 105.400143019534 83.2222105704267 45.7011885954632
    vertex 99.6001430289732 83.3142108301744 46.400000096802
    vertex 105.400143028973 83.3142108394462 46.40000001724
  endloop
endfacet
facet normal -3.37541321938598e-009 0.991444861373811 -0.130526192220048
  outer loop
    vertex 99.6001430289732 83.3142108301744 46.400000096802
    vertex 105.400143019534 83.2222105704267 45.7011885954632
    vertex 99.6001430195342 83.2222105611549 45.7011886750252
  endloop
endfacet
facet normal 1.20617715292889e-008 0.382683432365064 0.923879532511298
  outer loop
    vertex 106.200142997251 79.7642108412464 44.927756820099
    vertex 99.6001430114672 80.1742184535001 44.7579261921106
    vertex 99.6001430144522 79.7642108301744 44.9277569103685
  endloop
endfacet
facet normal 1.20617715292889e-008 0.382683432365064 0.923879532511298
  outer loop
    vertex 99.6001430114672 80.1742184535001 44.7579261921106
    vertex 106.200142997251 79.7642108412464 44.927756820099
    vertex 106.200142994266 80.1742184645721 44.7579261018412
  endloop
endfacet
facet normal 2.05716164574424e-010 0.991444861373813 0.130526192220029
  outer loop
    vertex 99.6001430298784 78.9721369254829 45.9600077201277
    vertex 106.200143018806 78.9142108412464 46.4000000065326
    vertex 106.200143012677 78.972136936555 45.9600076298583
  endloop
endfacet
facet normal 2.05716164574424e-010 0.991444861373813 0.130526192220029
  outer loop
    vertex 106.200143018806 78.9142108412464 46.4000000065326
    vertex 99.6001430298784 78.9721369254829 45.9600077201277
    vertex 99.6001430360067 78.9142108301744 46.400000096802
  endloop
endfacet
facet normal 3.77272969653415e-009 0.923879532511278 0.382683432365111
  outer loop
    vertex 99.6001430239826 79.1419676437408 45.550000096802
    vertex 106.200143012677 78.972136936555 45.9600076298583
    vertex 106.200143006782 79.1419676548129 45.5500000065326
  endloop
endfacet
facet normal 3.77272969653415e-009 0.923879532511278 0.382683432365111
  outer loop
    vertex 106.200143012677 78.972136936555 45.9600076298583
    vertex 99.6001430239826 79.1419676437408 45.550000096802
    vertex 99.6001430298784 78.9721369254829 45.9600077201277
  endloop
endfacet
facet normal 3.37531638837714e-009 -0.991444861373806 0.130526192220086
  outer loop
    vertex 99.6001430305717 82.3142108301744 46.400000096802
    vertex 106.200143007428 82.2562847459378 45.9600076298583
    vertex 106.200143013371 82.3142108412464 46.4000000065326
  endloop
endfacet
facet normal 3.37531638837714e-009 -0.991444861373806 0.130526192220086
  outer loop
    vertex 106.200143007428 82.2562847459378 45.9600076298583
    vertex 99.6001430305717 82.3142108301744 46.400000096802
    vertex 99.6001430246286 82.2562847348658 45.9600077201277
  endloop
endfacet
facet normal -7.08249920489595e-009 -0.793353340291234 -0.608761429008722
  outer loop
    vertex 105.400143018508 78.2759422492282 45.05000001724
    vertex 99.6001430101515 78.7050225209707 44.4908117875984
    vertex 105.400143010151 78.7050225302425 44.4908117080363
  endloop
endfacet
facet normal -7.08249920489595e-009 -0.793353340291234 -0.608761429008722
  outer loop
    vertex 99.6001430101515 78.7050225209707 44.4908117875984
    vertex 105.400143018508 78.2759422492282 45.05000001724
    vertex 99.6001430185081 78.2759422399564 45.050000096802
  endloop
endfacet
facet normal -1.20617725858783e-008 -0.382683432365146 -0.923879532511263
  outer loop
    vertex 99.6001430521262 81.4642108301744 47.8722432832355
    vertex 106.20014303791 81.0542032179207 48.042073911224
    vertex 99.6001430551112 81.0542032068487 48.0420740014934
  endloop
endfacet
facet normal -1.20617725858783e-008 -0.382683432365146 -0.923879532511263
  outer loop
    vertex 106.20014303791 81.0542032179207 48.042073911224
    vertex 99.6001430521262 81.4642108301744 47.8722432832355
    vertex 106.200143034925 81.4642108412464 47.8722431929661
  endloop
endfacet
facet normal -1.38089632102932e-008 0.130526192220026 -0.991444861373814
  outer loop
    vertex 99.6001430566092 80.6142108301744 48.100000096802
    vertex 106.200143039317 80.1742184645721 48.042073911224
    vertex 99.600143056518 80.1742184535001 48.0420740014934
  endloop
endfacet
facet normal -1.38089632102932e-008 0.130526192220026 -0.991444861373814
  outer loop
    vertex 106.200143039317 80.1742184645721 48.042073911224
    vertex 99.6001430566092 80.6142108301744 48.100000096802
    vertex 106.200143039408 80.6142108412464 48.1000000065326
  endloop
endfacet
facet normal 1.18560561697338e-008 -0.608761429008721 0.793353340291235
  outer loop
    vertex 106.200142994534 81.4642108412464 44.927756820099
    vertex 99.6001430148779 81.8162923581915 45.1979185687849
    vertex 99.6001430117348 81.4642108301744 44.9277569103685
  endloop
endfacet
facet normal 1.18560561697338e-008 -0.608761429008721 0.793353340291235
  outer loop
    vertex 99.6001430148779 81.8162923581915 45.1979185687849
    vertex 106.200142994534 81.4642108412464 44.927756820099
    vertex 106.200142997677 81.8162923692636 45.1979184785154
  endloop
endfacet
facet normal -1.33915811703995e-008 -0.130526192220044 -0.991444861373811
  outer loop
    vertex 99.6001429962515 80.6142108301744 43.700000096802
    vertex 105.400142998631 79.9153994176693 43.7920002862595
    vertex 99.6001429986306 79.9153994083976 43.7920003658215
  endloop
endfacet
facet normal -1.33915811703995e-008 -0.130526192220044 -0.991444861373811
  outer loop
    vertex 105.400142998631 79.9153994176693 43.7920002862595
    vertex 99.6001429962515 80.6142108301744 43.700000096802
    vertex 105.400142996252 80.6142108394462 43.70000001724
  endloop
endfacet
facet normal -1.380889557789e-008 0.130526192220046 -0.991444861373811
  outer loop
    vertex 99.6001429963965 81.3130222519512 43.7920003658215
    vertex 105.400142996252 80.6142108394462 43.70000001724
    vertex 99.6001429962515 80.6142108301744 43.700000096802
  endloop
endfacet
facet normal -1.380889557789e-008 0.130526192220046 -0.991444861373811
  outer loop
    vertex 105.400142996252 80.6142108394462 43.70000001724
    vertex 99.6001429963965 81.3130222519512 43.7920003658215
    vertex 105.400142988501 80.714210839452 43.7131652669995
  endloop
endfacet
facet normal -1.380889557789e-008 0.130526192220046 -0.991444861373811
  outer loop
    vertex 105.400142988501 80.714210839452 43.7131652669995
    vertex 99.6001429963965 81.3130222519512 43.7920003658215
    vertex 105.400142996397 81.313022261223 43.7920002862595
  endloop
endfacet
facet normal -1.20616526346274e-008 -0.382683432365104 -0.923879532511281
  outer loop
    vertex 99.6001429986306 79.9153994083976 43.7920003658215
    vertex 105.400143003372 79.2642108394462 44.061731427022
    vertex 99.6001430033716 79.2642108301743 44.061731506584
  endloop
endfacet
facet normal -1.20616526346274e-008 -0.382683432365104 -0.923879532511281
  outer loop
    vertex 105.400143003372 79.2642108394462 44.061731427022
    vertex 99.6001429986306 79.9153994083976 43.7920003658215
    vertex 105.400142998631 79.9153994176693 43.7920002862595
  endloop
endfacet
facet normal -9.6189840771643e-009 0.793353340291232 -0.608761429008725
  outer loop
    vertex 99.6001430040478 82.5233991393781 44.4908117875983
    vertex 105.400143011032 82.9524794296641 45.05000001724
    vertex 105.400143004048 82.5233991486498 44.4908117080363
  endloop
endfacet
facet normal -9.6189840771643e-009 0.793353340291232 -0.608761429008725
  outer loop
    vertex 105.400143011032 82.9524794296641 45.05000001724
    vertex 99.6001430040478 82.5233991393781 44.4908117875983
    vertex 99.6001430110324 82.9524794203924 45.050000096802
  endloop
endfacet
facet normal -6.72639493853987e-009 0.923879532511281 -0.382683432365105
  outer loop
    vertex 105.400143011032 82.9524794296641 45.05000001724
    vertex 99.6001430195342 83.2222105611549 45.7011886750252
    vertex 105.400143019534 83.2222105704267 45.7011885954632
  endloop
endfacet
facet normal -6.72639493853987e-009 0.923879532511281 -0.382683432365105
  outer loop
    vertex 99.6001430195342 83.2222105611549 45.7011886750252
    vertex 105.400143011032 82.9524794296641 45.05000001724
    vertex 99.6001430110324 82.9524794203924 45.050000096802
  endloop
endfacet
facet normal -2.05594311269939e-010 -0.991444861373811 -0.130526192220044
  outer loop
    vertex 99.6001430376052 77.9142108301744 46.400000096802
    vertex 105.400143027872 78.0062111084657 45.7011885954632
    vertex 105.400143037605 77.9142108394462 46.40000001724
  endloop
endfacet
facet normal -2.05594311269939e-010 -0.991444861373811 -0.130526192220044
  outer loop
    vertex 105.400143027872 78.0062111084657 45.7011885954632
    vertex 99.6001430376052 77.9142108301744 46.400000096802
    vertex 99.600143027872 78.0062110991939 45.7011886750252
  endloop
endfacet
facet normal 1.40822158241762e-008 1.32632235607614e-011 1.0
  outer loop
    vertex 106.200143074412 83.7142108417356 49.5000000060686
    vertex 99.6001430825083 77.5142108312314 49.5000000977108
    vertex 106.200143072883 77.5142108412472 49.5000000062724
  endloop
endfacet
facet normal 1.40822158241762e-008 1.32632235607614e-011 1.0
  outer loop
    vertex 99.6001430825083 77.5142108312314 49.5000000977108
    vertex 106.200143074412 83.7142108417356 49.5000000060686
    vertex 99.6001430754428 83.7142108312313 49.5000000977501
  endloop
endfacet
facet normal 1.48877093197385e-009 -1.0 1.051597739689e-011
  outer loop
    vertex 105.400142885866 77.5142108394462 37.00000001724
    vertex 106.200142882218 77.5142108412471 36.9920000062616
    vertex 105.400143035622 77.5142108394462 46.40000001724
  endloop
endfacet
facet normal 1.48877093197385e-009 -1.0 1.051597739689e-011
  outer loop
    vertex 106.200143072883 77.5142108412472 49.5000000062724
    vertex 105.400143035622 77.5142108394462 46.40000001724
    vertex 106.200142882218 77.5142108412471 36.9920000062616
  endloop
endfacet
facet normal 1.48877093197385e-009 -1.0 1.051597739689e-011
  outer loop
    vertex 105.400143035622 77.5142108394462 46.40000001724
    vertex 106.200143072883 77.5142108412472 49.5000000062724
    vertex 99.6001430825083 77.5142108312314 49.5000000977108
  endloop
endfacet
facet normal 1.48877093197385e-009 -1.0 1.051597739689e-011
  outer loop
    vertex 105.400143035622 77.5142108394462 46.40000001724
    vertex 99.6001430825083 77.5142108312314 49.5000000977108
    vertex 99.6001430366521 77.5142108312313 46.4000000977284
  endloop
endfacet
facet normal 1.0 -6.29393539821644e-010 -1.5053759566545e-008
  outer loop
    vertex 106.200142888493 83.7142108417356 36.9920000060578
    vertex 106.200143002075 82.08645402768 45.5500000065326
    vertex 106.200142882218 77.5142108412471 36.9920000062616
  endloop
endfacet
facet normal 1.0 -6.29393539821644e-010 -1.5053759566545e-008
  outer loop
    vertex 106.200143002075 82.08645402768 45.5500000065326
    vertex 106.200142888493 83.7142108417356 36.9920000060578
    vertex 106.200143007428 82.2562847459378 45.9600076298583
  endloop
endfacet
facet normal 1.0 -6.29393539821644e-010 -1.5053759566545e-008
  outer loop
    vertex 106.200143007428 82.2562847459378 45.9600076298583
    vertex 106.200142888493 83.7142108417356 36.9920000060578
    vertex 106.200143074412 83.7142108417356 49.5000000060686
  endloop
endfacet
facet normal 1.0 -6.29393539821644e-010 -1.5053759566545e-008
  outer loop
    vertex 106.200142882218 77.5142108412471 36.9920000062616
    vertex 106.200143002075 82.08645402768 45.5500000065326
    vertex 106.200142997677 81.8162923692636 45.1979184785154
  endloop
endfacet
facet normal 1.0 -6.29393539821644e-010 -1.5053759566545e-008
  outer loop
    vertex 106.200142882218 77.5142108412471 36.9920000062616
    vertex 106.200142997677 81.8162923692636 45.1979184785154
    vertex 106.200142994534 81.4642108412464 44.927756820099
  endloop
endfacet
facet normal 1.0 -6.29393539821644e-010 -1.5053759566545e-008
  outer loop
    vertex 106.200142882218 77.5142108412471 36.9920000062616
    vertex 106.200142994534 81.4642108412464 44.927756820099
    vertex 106.200142992859 81.0542032179207 44.7579261018412
  endloop
endfacet
facet normal 1.0 -6.29393539821644e-010 -1.5053759566545e-008
  outer loop
    vertex 106.200142882218 77.5142108412471 36.9920000062616
    vertex 106.200142992859 81.0542032179207 44.7579261018412
    vertex 106.200142992768 80.6142108412464 44.7000000065326
  endloop
endfacet
facet normal 1.0 -6.29393539821644e-010 -1.5053759566545e-008
  outer loop
    vertex 106.200143007428 82.2562847459378 45.9600076298583
    vertex 106.200143074412 83.7142108417356 49.5000000060686
    vertex 106.200143013371 82.3142108412464 46.4000000065326
  endloop
endfacet
facet normal 1.0 -6.29393539821644e-010 -1.5053759566545e-008
  outer loop
    vertex 106.200143013371 82.3142108412464 46.4000000065326
    vertex 106.200143074412 83.7142108417356 49.5000000060686
    vertex 106.200143019499 82.2562847459378 46.8399923832069
  endloop
endfacet
facet normal 1.0 -6.29393539821644e-010 -1.5053759566545e-008
  outer loop
    vertex 106.200143019499 82.2562847459378 46.8399923832069
    vertex 106.200143074412 83.7142108417356 49.5000000060686
    vertex 106.200143025395 82.08645402768 47.2500000065326
  endloop
endfacet
facet normal 1.0 -6.29393539821644e-010 -1.5053759566545e-008
  outer loop
    vertex 106.200143025395 82.08645402768 47.2500000065326
    vertex 106.200143074412 83.7142108417356 49.5000000060686
    vertex 106.200143030656 81.8162923692636 47.6020815345497
  endloop
endfacet
facet normal 1.0 -6.29393539821644e-010 -1.5053759566545e-008
  outer loop
    vertex 106.200143030656 81.8162923692636 47.6020815345497
    vertex 106.200143074412 83.7142108417356 49.5000000060686
    vertex 106.200143034925 81.4642108412464 47.8722431929661
  endloop
endfacet
facet normal 1.0 -6.29393539821644e-010 -1.5053759566545e-008
  outer loop
    vertex 106.200143034925 81.4642108412464 47.8722431929661
    vertex 106.200143074412 83.7142108417356 49.5000000060686
    vertex 106.20014303791 81.0542032179207 48.042073911224
  endloop
endfacet
facet normal 1.0 -6.29393539821644e-010 -1.5053759566545e-008
  outer loop
    vertex 106.20014303791 81.0542032179207 48.042073911224
    vertex 106.200143074412 83.7142108417356 49.5000000060686
    vertex 106.200143039408 80.6142108412464 48.1000000065326
  endloop
endfacet
facet normal 1.0 -6.29393539821644e-010 -1.5053759566545e-008
  outer loop
    vertex 106.200142882218 77.5142108412471 36.9920000062616
    vertex 106.200143012677 78.972136936555 45.9600076298583
    vertex 106.200143072883 77.5142108412472 49.5000000062724
  endloop
endfacet
facet normal 1.0 -6.29393539821644e-010 -1.5053759566545e-008
  outer loop
    vertex 106.200143012677 78.972136936555 45.9600076298583
    vertex 106.200142882218 77.5142108412471 36.9920000062616
    vertex 106.200143006782 79.1419676548129 45.5500000065326
  endloop
endfacet
facet normal 1.0 -6.29393539821644e-010 -1.5053759566545e-008
  outer loop
    vertex 106.200143006782 79.1419676548129 45.5500000065326
    vertex 106.200142882218 77.5142108412471 36.9920000062616
    vertex 106.20014300152 79.4121293132293 45.1979184785154
  endloop
endfacet
facet normal 1.0 -6.29393539821644e-010 -1.5053759566545e-008
  outer loop
    vertex 106.20014300152 79.4121293132293 45.1979184785154
    vertex 106.200142882218 77.5142108412471 36.9920000062616
    vertex 106.200142997251 79.7642108412464 44.927756820099
  endloop
endfacet
facet normal 1.0 -6.29393539821644e-010 -1.5053759566545e-008
  outer loop
    vertex 106.200142997251 79.7642108412464 44.927756820099
    vertex 106.200142882218 77.5142108412471 36.9920000062616
    vertex 106.200142994266 80.1742184645721 44.7579261018412
  endloop
endfacet
facet normal 1.0 -6.29393539821644e-010 -1.5053759566545e-008
  outer loop
    vertex 106.200142994266 80.1742184645721 44.7579261018412
    vertex 106.200142882218 77.5142108412471 36.9920000062616
    vertex 106.200142992768 80.6142108412464 44.7000000065326
  endloop
endfacet
facet normal 1.0 -6.29393539821644e-010 -1.5053759566545e-008
  outer loop
    vertex 106.200143072883 77.5142108412472 49.5000000062724
    vertex 106.200143012677 78.972136936555 45.9600076298583
    vertex 106.200143018806 78.9142108412464 46.4000000065326
  endloop
endfacet
facet normal 1.0 -6.29393539821644e-010 -1.5053759566545e-008
  outer loop
    vertex 106.200143072883 77.5142108412472 49.5000000062724
    vertex 106.200143018806 78.9142108412464 46.4000000065326
    vertex 106.200143024749 78.972136936555 46.8399923832069
  endloop
endfacet
facet normal 1.0 -6.29393539821644e-010 -1.5053759566545e-008
  outer loop
    vertex 106.200143072883 77.5142108412472 49.5000000062724
    vertex 106.200143024749 78.972136936555 46.8399923832069
    vertex 106.200143030102 79.1419676548129 47.2500000065326
  endloop
endfacet
facet normal 1.0 -6.29393539821644e-010 -1.5053759566545e-008
  outer loop
    vertex 106.200143072883 77.5142108412472 49.5000000062724
    vertex 106.200143030102 79.1419676548129 47.2500000065326
    vertex 106.200143034499 79.4121293132293 47.6020815345497
  endloop
endfacet
facet normal 1.0 -6.29393539821644e-010 -1.5053759566545e-008
  outer loop
    vertex 106.200143072883 77.5142108412472 49.5000000062724
    vertex 106.200143034499 79.4121293132293 47.6020815345497
    vertex 106.200143037643 79.7642108412464 47.8722431929661
  endloop
endfacet
facet normal 1.0 -6.29393539821644e-010 -1.5053759566545e-008
  outer loop
    vertex 106.200143072883 77.5142108412472 49.5000000062724
    vertex 106.200143037643 79.7642108412464 47.8722431929661
    vertex 106.200143039317 80.1742184645721 48.042073911224
  endloop
endfacet
facet normal 1.0 -6.29393539821644e-010 -1.5053759566545e-008
  outer loop
    vertex 106.200143072883 77.5142108412472 49.5000000062724
    vertex 106.200143039317 80.1742184645721 48.042073911224
    vertex 106.200143039408 80.6142108412464 48.1000000065326
  endloop
endfacet
facet normal 1.0 -6.29393539821644e-010 -1.5053759566545e-008
  outer loop
    vertex 106.200143072883 77.5142108412472 49.5000000062724
    vertex 106.200143039408 80.6142108412464 48.1000000065326
    vertex 106.200143074412 83.7142108417356 49.5000000060686
  endloop
endfacet
facet normal -1.37974565808515e-008 1.15797483293939e-009 -1.0
  outer loop
    vertex 99.6001430293641 83.7142108312313 46.4000000977284
    vertex 105.400143028973 83.3142108394462 46.40000001724
    vertex 99.6001430289732 83.3142108301744 46.400000096802
  endloop
endfacet
facet normal -1.37974565808515e-008 1.15797483293939e-009 -1.0
  outer loop
    vertex 105.400143028973 83.3142108394462 46.40000001724
    vertex 99.6001430293641 83.7142108312313 46.4000000977284
    vertex 105.400143028334 83.7142108394462 46.4000000172399
  endloop
endfacet
facet normal -1.37974565773602e-008 -1.15800723952966e-009 -1.0
  outer loop
    vertex 99.6001430366521 77.5142108312313 46.4000000977284
    vertex 105.400143037605 77.9142108394462 46.40000001724
    vertex 105.400143035622 77.5142108394462 46.40000001724
  endloop
endfacet
facet normal -1.37974565773602e-008 -1.15800723952966e-009 -1.0
  outer loop
    vertex 105.400143037605 77.9142108394462 46.40000001724
    vertex 99.6001430366521 77.5142108312313 46.4000000977284
    vertex 99.6001430376052 77.9142108301744 46.400000096802
  endloop
endfacet
facet normal -1.54172996259043e-009 1.0 -1.82046947052552e-011
  outer loop
    vertex 105.400142882124 83.7142108394462 37.00000001724
    vertex 105.400143028334 83.7142108394462 46.4000000172399
    vertex 106.200142888493 83.7142108417356 36.9920000060578
  endloop
endfacet
facet normal -1.54172996259043e-009 1.0 -1.82046947052552e-011
  outer loop
    vertex 106.200143074412 83.7142108417356 49.5000000060686
    vertex 105.400143028334 83.7142108394462 46.4000000172399
    vertex 99.6001430754428 83.7142108312313 49.5000000977501
  endloop
endfacet
facet normal -1.54172996259043e-009 1.0 -1.82046947052552e-011
  outer loop
    vertex 105.400143028334 83.7142108394462 46.4000000172399
    vertex 106.200143074412 83.7142108417356 49.5000000060686
    vertex 106.200142888493 83.7142108417356 36.9920000060578
  endloop
endfacet
facet normal -1.54172996259043e-009 1.0 -1.82046947052552e-011
  outer loop
    vertex 99.6001430754428 83.7142108312313 49.5000000977501
    vertex 105.400143028334 83.7142108394462 46.4000000172399
    vertex 99.6001430293641 83.7142108312313 46.4000000977284
  endloop
endfacet
facet normal -1.0 -1.29857140220385e-009 1.59091169381357e-008
  outer loop
    vertex 105.400142885866 77.5142108394462 37.00000001724
    vertex 105.400142998631 79.9153994176693 43.7920002862595
    vertex 105.400142996252 80.6142108394462 43.70000001724
  endloop
endfacet
facet normal -1.0 -1.29857140220385e-009 1.59091169381357e-008
  outer loop
    vertex 105.400142998631 79.9153994176693 43.7920002862595
    vertex 105.400142885866 77.5142108394462 37.00000001724
    vertex 105.400143003372 79.2642108394462 44.061731427022
  endloop
endfacet
facet normal -1.0 -1.29857140220385e-009 1.59091169381357e-008
  outer loop
    vertex 105.400143003372 79.2642108394462 44.061731427022
    vertex 105.400142885866 77.5142108394462 37.00000001724
    vertex 105.400143010151 78.7050225302425 44.4908117080363
  endloop
endfacet
facet normal -1.0 -1.29857140220385e-009 1.59091169381357e-008
  outer loop
    vertex 105.400143010151 78.7050225302425 44.4908117080363
    vertex 105.400142885866 77.5142108394462 37.00000001724
    vertex 105.400143018508 78.2759422492282 45.05000001724
  endloop
endfacet
facet normal -1.0 -1.29857140220385e-009 1.59091169381357e-008
  outer loop
    vertex 105.400143018508 78.2759422492282 45.05000001724
    vertex 105.400142885866 77.5142108394462 37.00000001724
    vertex 105.400143035622 77.5142108394462 46.40000001724
  endloop
endfacet
facet normal -1.0 -1.29857140220385e-009 1.59091169381357e-008
  outer loop
    vertex 105.400143018508 78.2759422492282 45.05000001724
    vertex 105.400143035622 77.5142108394462 46.40000001724
    vertex 105.400143027872 78.0062111084657 45.7011885954632
  endloop
endfacet
facet normal -1.0 -1.29857140220385e-009 1.59091169381357e-008
  outer loop
    vertex 105.400143027872 78.0062111084657 45.7011885954632
    vertex 105.400143035622 77.5142108394462 46.40000001724
    vertex 105.400143037605 77.9142108394462 46.40000001724
  endloop
endfacet
facet normal -1.0 -1.29857140220385e-009 1.59091169381357e-008
  outer loop
    vertex 105.400142882124 83.7142108394462 37.00000001724
    vertex 105.400143011032 82.9524794296641 45.05000001724
    vertex 105.400143028334 83.7142108394462 46.4000000172399
  endloop
endfacet
facet normal -1.0 -1.29857140220385e-009 1.59091169381357e-008
  outer loop
    vertex 105.400143011032 82.9524794296641 45.05000001724
    vertex 105.400142882124 83.7142108394462 37.00000001724
    vertex 105.400142885866 77.5142108394462 37.00000001724
  endloop
endfacet
facet normal -1.0 -1.29857140220385e-009 1.59091169381357e-008
  outer loop
    vertex 105.400143011032 82.9524794296641 45.05000001724
    vertex 105.400142885866 77.5142108394462 37.00000001724
    vertex 105.400143004048 82.5233991486498 44.4908117080363
  endloop
endfacet
facet normal -1.0 -1.29857140220385e-009 1.59091169381357e-008
  outer loop
    vertex 105.400143004048 82.5233991486498 44.4908117080363
    vertex 105.400142885866 77.5142108394462 37.00000001724
    vertex 105.400142999056 81.9642108394462 44.061731427022
  endloop
endfacet
facet normal -1.0 -1.29857140220385e-009 1.59091169381357e-008
  outer loop
    vertex 105.400142999056 81.9642108394462 44.061731427022
    vertex 105.400142885866 77.5142108394462 37.00000001724
    vertex 105.400142996397 81.313022261223 43.7920002862595
  endloop
endfacet
facet normal -1.0 -1.29857140220385e-009 1.59091169381357e-008
  outer loop
    vertex 105.400142996397 81.313022261223 43.7920002862595
    vertex 105.400142885866 77.5142108394462 37.00000001724
    vertex 105.400142988501 80.714210839452 43.7131652669995
  endloop
endfacet
facet normal -1.0 -1.29857140220385e-009 1.59091169381357e-008
  outer loop
    vertex 105.400142988501 80.714210839452 43.7131652669995
    vertex 105.400142885866 77.5142108394462 37.00000001724
    vertex 105.400142996252 80.6142108394462 43.70000001724
  endloop
endfacet
facet normal -1.0 -1.29857140220385e-009 1.59091169381357e-008
  outer loop
    vertex 105.400143028334 83.7142108394462 46.4000000172399
    vertex 105.400143011032 82.9524794296641 45.05000001724
    vertex 105.400143019534 83.2222105704267 45.7011885954632
  endloop
endfacet
facet normal -1.0 -1.29857140220385e-009 1.59091169381357e-008
  outer loop
    vertex 105.400143028334 83.7142108394462 46.4000000172399
    vertex 105.400143019534 83.2222105704267 45.7011885954632
    vertex 105.400143028973 83.3142108394462 46.40000001724
  endloop
endfacet
facet normal -1.0 -1.40905582609695e-009 1.41978660328285e-008
  outer loop
    vertex 99.6001429986306 79.9153994083976 43.7920003658215
    vertex 99.6001429963965 81.3130222519512 43.7920003658215
    vertex 99.6001429962515 80.6142108301744 43.700000096802
  endloop
endfacet
facet normal -1.0 -1.40905582609695e-009 1.41978660328285e-008
  outer loop
    vertex 99.6001429963965 81.3130222519512 43.7920003658215
    vertex 99.6001429986306 79.9153994083976 43.7920003658215
    vertex 99.6001430033716 79.2642108301743 44.061731506584
  endloop
endfacet
facet normal -1.0 -1.40905582609695e-009 1.41978660328285e-008
  outer loop
    vertex 99.6001429963965 81.3130222519512 43.7920003658215
    vertex 99.6001430033716 79.2642108301743 44.061731506584
    vertex 99.6001429990557 81.9642108301744 44.061731506584
  endloop
endfacet
facet normal -1.0 -1.40905582609695e-009 1.41978660328285e-008
  outer loop
    vertex 99.6001429990557 81.9642108301744 44.061731506584
    vertex 99.6001430033716 79.2642108301743 44.061731506584
    vertex 99.6001430101515 78.7050225209707 44.4908117875984
  endloop
endfacet
facet normal -1.0 -1.40905582609695e-009 1.41978660328285e-008
  outer loop
    vertex 99.6001429990557 81.9642108301744 44.061731506584
    vertex 99.6001430101515 78.7050225209707 44.4908117875984
    vertex 99.6001430040478 82.5233991393781 44.4908117875983
  endloop
endfacet
facet normal -1.0 -1.40905582609695e-009 1.41978660328285e-008
  outer loop
    vertex 99.6001430040478 82.5233991393781 44.4908117875983
    vertex 99.6001430101515 78.7050225209707 44.4908117875984
    vertex 99.6001430099692 80.6142108301744 44.700000096802
  endloop
endfacet
facet normal -1.0 -1.40905582609695e-009 1.41978660328285e-008
  outer loop
    vertex 99.6001430099692 80.6142108301744 44.700000096802
    vertex 99.6001430101515 78.7050225209707 44.4908117875984
    vertex 99.6001430114672 80.1742184535001 44.7579261921106
  endloop
endfacet
facet normal -1.0 -1.40905582609695e-009 1.41978660328285e-008
  outer loop
    vertex 99.6001430114672 80.1742184535001 44.7579261921106
    vertex 99.6001430101515 78.7050225209707 44.4908117875984
    vertex 99.6001430185081 78.2759422399564 45.050000096802
  endloop
endfacet
facet normal -1.0 -1.40905582609695e-009 1.41978660328285e-008
  outer loop
    vertex 99.6001430114672 80.1742184535001 44.7579261921106
    vertex 99.6001430185081 78.2759422399564 45.050000096802
    vertex 99.6001430144522 79.7642108301744 44.9277569103685
  endloop
endfacet
facet normal -1.0 -1.40905582609695e-009 1.41978660328285e-008
  outer loop
    vertex 99.6001430144522 79.7642108301744 44.9277569103685
    vertex 99.6001430185081 78.2759422399564 45.050000096802
    vertex 99.600143018721 79.4121293021572 45.1979185687849
  endloop
endfacet
facet normal -1.0 -1.40905582609695e-009 1.41978660328285e-008
  outer loop
    vertex 99.600143018721 79.4121293021572 45.1979185687849
    vertex 99.6001430185081 78.2759422399564 45.050000096802
    vertex 99.600143027872 78.0062110991939 45.7011886750252
  endloop
endfacet
facet normal -1.0 -1.40905582609695e-009 1.41978660328285e-008
  outer loop
    vertex 99.600143018721 79.4121293021572 45.1979185687849
    vertex 99.600143027872 78.0062110991939 45.7011886750252
    vertex 99.6001430239826 79.1419676437408 45.550000096802
  endloop
endfacet
facet normal -1.0 -1.40905582609695e-009 1.41978660328285e-008
  outer loop
    vertex 99.6001430239826 79.1419676437408 45.550000096802
    vertex 99.600143027872 78.0062110991939 45.7011886750252
    vertex 99.6001430298784 78.9721369254829 45.9600077201277
  endloop
endfacet
facet normal -1.0 -1.40905582609695e-009 1.41978660328285e-008
  outer loop
    vertex 99.6001430298784 78.9721369254829 45.9600077201277
    vertex 99.600143027872 78.0062110991939 45.7011886750252
    vertex 99.6001430376052 77.9142108301744 46.400000096802
  endloop
endfacet
facet normal -1.0 -1.40905582609695e-009 1.41978660328285e-008
  outer loop
    vertex 99.6001430298784 78.9721369254829 45.9600077201277
    vertex 99.6001430376052 77.9142108301744 46.400000096802
    vertex 99.6001430360067 78.9142108301744 46.400000096802
  endloop
endfacet
facet normal -1.0 -1.40905582609695e-009 1.41978660328285e-008
  outer loop
    vertex 99.6001430360067 78.9142108301744 46.400000096802
    vertex 99.6001430376052 77.9142108301744 46.400000096802
    vertex 99.6001430366521 77.5142108312313 46.4000000977284
  endloop
endfacet
facet normal -1.0 -1.40905582609695e-009 1.41978660328285e-008
  outer loop
    vertex 99.6001430360067 78.9142108301744 46.400000096802
    vertex 99.6001430366521 77.5142108312313 46.4000000977284
    vertex 99.6001430419497 78.9721369254829 46.8399924734763
  endloop
endfacet
facet normal -1.0 -1.40905582609695e-009 1.41978660328285e-008
  outer loop
    vertex 99.6001430419497 78.9721369254829 46.8399924734763
    vertex 99.6001430366521 77.5142108312313 46.4000000977284
    vertex 99.6001430825083 77.5142108312314 49.5000000977108
  endloop
endfacet
facet normal -1.0 -1.40905582609695e-009 1.41978660328285e-008
  outer loop
    vertex 99.6001430419497 78.9721369254829 46.8399924734763
    vertex 99.6001430825083 77.5142108312314 49.5000000977108
    vertex 99.6001430473026 79.1419676437408 47.250000096802
  endloop
endfacet
facet normal -1.0 -1.40905582609695e-009 1.41978660328285e-008
  outer loop
    vertex 99.6001430473026 79.1419676437408 47.250000096802
    vertex 99.6001430825083 77.5142108312314 49.5000000977108
    vertex 99.6001430517005 79.4121293021572 47.6020816248192
  endloop
endfacet
facet normal -1.0 -1.40905582609695e-009 1.41978660328285e-008
  outer loop
    vertex 99.6001430517005 79.4121293021572 47.6020816248192
    vertex 99.6001430825083 77.5142108312314 49.5000000977108
    vertex 99.6001430548437 79.7642108301744 47.8722432832356
  endloop
endfacet
facet normal -1.0 -1.40905582609695e-009 1.41978660328285e-008
  outer loop
    vertex 99.6001430548437 79.7642108301744 47.8722432832356
    vertex 99.6001430825083 77.5142108312314 49.5000000977108
    vertex 99.600143056518 80.1742184535001 48.0420740014934
  endloop
endfacet
facet normal -1.0 -1.40905582609695e-009 1.41978660328285e-008
  outer loop
    vertex 99.600143056518 80.1742184535001 48.0420740014934
    vertex 99.6001430825083 77.5142108312314 49.5000000977108
    vertex 99.6001430566092 80.6142108301744 48.100000096802
  endloop
endfacet
facet normal -1.0 -1.40905582609695e-009 1.41978660328285e-008
  outer loop
    vertex 99.6001430040478 82.5233991393781 44.4908117875983
    vertex 99.6001430100604 81.0542032068487 44.7579261921106
    vertex 99.6001430110324 82.9524794203924 45.050000096802
  endloop
endfacet
facet normal -1.0 -1.40905582609695e-009 1.41978660328285e-008
  outer loop
    vertex 99.6001430100604 81.0542032068487 44.7579261921106
    vertex 99.6001430040478 82.5233991393781 44.4908117875983
    vertex 99.6001430099692 80.6142108301744 44.700000096802
  endloop
endfacet
facet normal -1.0 -1.40905582609695e-009 1.41978660328285e-008
  outer loop
    vertex 99.6001430110324 82.9524794203924 45.050000096802
    vertex 99.6001430100604 81.0542032068487 44.7579261921106
    vertex 99.6001430117348 81.4642108301744 44.9277569103685
  endloop
endfacet
facet normal -1.0 -1.40905582609695e-009 1.41978660328285e-008
  outer loop
    vertex 99.6001430110324 82.9524794203924 45.050000096802
    vertex 99.6001430117348 81.4642108301744 44.9277569103685
    vertex 99.6001430148779 81.8162923581915 45.1979185687849
  endloop
endfacet
facet normal -1.0 -1.40905582609695e-009 1.41978660328285e-008
  outer loop
    vertex 99.6001430110324 82.9524794203924 45.050000096802
    vertex 99.6001430148779 81.8162923581915 45.1979185687849
    vertex 99.6001430195342 83.2222105611549 45.7011886750252
  endloop
endfacet
facet normal -1.0 -1.40905582609695e-009 1.41978660328285e-008
  outer loop
    vertex 99.6001430195342 83.2222105611549 45.7011886750252
    vertex 99.6001430148779 81.8162923581915 45.1979185687849
    vertex 99.6001430192758 82.0864540166079 45.550000096802
  endloop
endfacet
facet normal -1.0 -1.40905582609695e-009 1.41978660328285e-008
  outer loop
    vertex 99.6001430195342 83.2222105611549 45.7011886750252
    vertex 99.6001430192758 82.0864540166079 45.550000096802
    vertex 99.6001430246286 82.2562847348658 45.9600077201277
  endloop
endfacet
facet normal -1.0 -1.40905582609695e-009 1.41978660328285e-008
  outer loop
    vertex 99.6001430195342 83.2222105611549 45.7011886750252
    vertex 99.6001430246286 82.2562847348658 45.9600077201277
    vertex 99.6001430289732 83.3142108301744 46.400000096802
  endloop
endfacet
facet normal -1.0 -1.40905582609695e-009 1.41978660328285e-008
  outer loop
    vertex 99.6001430289732 83.3142108301744 46.400000096802
    vertex 99.6001430246286 82.2562847348658 45.9600077201277
    vertex 99.6001430305717 82.3142108301744 46.400000096802
  endloop
endfacet
facet normal -1.0 -1.40905582609695e-009 1.41978660328285e-008
  outer loop
    vertex 99.6001430289732 83.3142108301744 46.400000096802
    vertex 99.6001430305717 82.3142108301744 46.400000096802
    vertex 99.6001430367 82.2562847348658 46.8399924734763
  endloop
endfacet
facet normal -1.0 -1.40905582609695e-009 1.41978660328285e-008
  outer loop
    vertex 99.6001430289732 83.3142108301744 46.400000096802
    vertex 99.6001430367 82.2562847348658 46.8399924734763
    vertex 99.6001430293641 83.7142108312313 46.4000000977284
  endloop
endfacet
facet normal -1.0 -1.40905582609695e-009 1.41978660328285e-008
  outer loop
    vertex 99.6001430293641 83.7142108312313 46.4000000977284
    vertex 99.6001430367 82.2562847348658 46.8399924734763
    vertex 99.6001430754428 83.7142108312313 49.5000000977501
  endloop
endfacet
facet normal -1.0 -1.40905582609695e-009 1.41978660328285e-008
  outer loop
    vertex 99.6001430754428 83.7142108312313 49.5000000977501
    vertex 99.6001430367 82.2562847348658 46.8399924734763
    vertex 99.6001430425958 82.0864540166079 47.250000096802
  endloop
endfacet
facet normal -1.0 -1.40905582609695e-009 1.41978660328285e-008
  outer loop
    vertex 99.6001430754428 83.7142108312313 49.5000000977501
    vertex 99.6001430425958 82.0864540166079 47.250000096802
    vertex 99.6001430478574 81.8162923581915 47.6020816248191
  endloop
endfacet
facet normal -1.0 -1.40905582609695e-009 1.41978660328285e-008
  outer loop
    vertex 99.6001430754428 83.7142108312313 49.5000000977501
    vertex 99.6001430478574 81.8162923581915 47.6020816248191
    vertex 99.6001430521262 81.4642108301744 47.8722432832355
  endloop
endfacet
facet normal -1.0 -1.40905582609695e-009 1.41978660328285e-008
  outer loop
    vertex 99.6001430754428 83.7142108312313 49.5000000977501
    vertex 99.6001430521262 81.4642108301744 47.8722432832355
    vertex 99.6001430551112 81.0542032068487 48.0420740014934
  endloop
endfacet
facet normal -1.0 -1.40905582609695e-009 1.41978660328285e-008
  outer loop
    vertex 99.6001430754428 83.7142108312313 49.5000000977501
    vertex 99.6001430551112 81.0542032068487 48.0420740014934
    vertex 99.6001430566092 80.6142108301744 48.100000096802
  endloop
endfacet
facet normal -1.0 -1.40905582609695e-009 1.41978660328285e-008
  outer loop
    vertex 99.6001430754428 83.7142108312313 49.5000000977501
    vertex 99.6001430566092 80.6142108301744 48.100000096802
    vertex 99.6001430825083 77.5142108312314 49.5000000977108
  endloop
endfacet
facet normal 3.45901007655553e-009 -0.991444861373807 0.130526192220077
  outer loop
    vertex 99.600142772681 82.3142108301743 27.600000096802
    vertex 106.200142749537 82.2562847459378 27.160007629325
    vertex 106.20014275548 82.3142108412464 27.6000000059993
  endloop
endfacet
facet normal 3.45901007655553e-009 -0.991444861373807 0.130526192220077
  outer loop
    vertex 106.200142749537 82.2562847459378 27.160007629325
    vertex 99.600142772681 82.3142108301743 27.600000096802
    vertex 99.6001427667379 82.2562847348658 27.1600077201278
  endloop
endfacet
facet normal 1.33527163568595e-008 -0.382683432365143 0.923879532511265
  outer loop
    vertex 106.200142734969 81.0542032179207 25.9579261013078
    vertex 99.6001427538442 81.4642108301743 26.1277569103685
    vertex 99.6001427521699 81.0542032068486 25.9579261921106
  endloop
endfacet
facet normal 1.33527163568595e-008 -0.382683432365143 0.923879532511265
  outer loop
    vertex 99.6001427538442 81.4642108301743 26.1277569103685
    vertex 106.200142734969 81.0542032179207 25.9579261013078
    vertex 106.200142736643 81.4642108412464 26.1277568195657
  endloop
endfacet
facet normal 1.34213298810659e-008 0.13052619222003 0.991444861373813
  outer loop
    vertex 106.200142736376 80.1742184645721 25.9579261013078
    vertex 99.6001427520786 80.6142108301743 25.9000000968021
    vertex 99.6001427535766 80.1742184535 25.9579261921106
  endloop
endfacet
facet normal 1.34213298810659e-008 0.13052619222003 0.991444861373813
  outer loop
    vertex 99.6001427520786 80.6142108301743 25.9000000968021
    vertex 106.200142736376 80.1742184645721 25.9579261013078
    vertex 106.200142734878 80.6142108412464 25.9000000059992
  endloop
endfacet
facet normal -9.89370613721921e-009 -0.608761429008723 -0.793353340291233
  outer loop
    vertex 99.6001427899666 81.8162923581915 28.8020816248192
    vertex 106.200142777034 81.4642108412464 29.0722431924328
    vertex 99.6001427942353 81.4642108301743 29.0722432832356
  endloop
endfacet
facet normal -9.89370613721921e-009 -0.608761429008723 -0.793353340291233
  outer loop
    vertex 106.200142777034 81.4642108412464 29.0722431924328
    vertex 99.6001427899666 81.8162923581915 28.8020816248192
    vertex 106.200142772765 81.8162923692635 28.8020815340164
  endloop
endfacet
facet normal -1.33527170866267e-008 0.38268343236507 -0.923879532511295
  outer loop
    vertex 99.600142798627 80.1742184535001 29.2420740014934
    vertex 106.200142779752 79.7642108412464 29.0722431924328
    vertex 99.6001427969528 79.7642108301743 29.0722432832356
  endloop
endfacet
facet normal -1.33527170866267e-008 0.38268343236507 -0.923879532511295
  outer loop
    vertex 106.200142779752 79.7642108412464 29.0722431924328
    vertex 99.600142798627 80.1742184535001 29.2420740014934
    vertex 106.200142781426 80.1742184645721 29.2420739106907
  endloop
endfacet
facet normal -6.81484370132973e-009 0.923879532511276 -0.382683432365115
  outer loop
    vertex 99.600142784059 78.9721369254829 28.0399924734763
    vertex 106.200142772211 79.1419676548128 28.4500000059993
    vertex 106.200142766858 78.972136936555 28.0399923826735
  endloop
endfacet
facet normal -6.81484370132973e-009 0.923879532511276 -0.382683432365115
  outer loop
    vertex 106.200142772211 79.1419676548128 28.4500000059993
    vertex 99.600142784059 78.9721369254829 28.0399924734763
    vertex 99.6001427894118 79.1419676437408 28.450000096802
  endloop
endfacet
facet normal 9.706254741541e-009 -0.79335334029121 0.608761429008753
  outer loop
    vertex 99.6001427613852 82.0864540166079 26.750000096802
    vertex 106.200142739786 81.8162923692635 26.3979184779821
    vertex 106.200142744184 82.0864540276799 26.7500000059992
  endloop
endfacet
facet normal 9.706254741541e-009 -0.79335334029121 0.608761429008753
  outer loop
    vertex 106.200142739786 81.8162923692635 26.3979184779821
    vertex 99.6001427613852 82.0864540166079 26.750000096802
    vertex 99.6001427569873 81.8162923581915 26.3979185687849
  endloop
endfacet
facet normal 7.04442160043492e-009 0.793353340291237 0.608761429008718
  outer loop
    vertex 99.6001427608304 79.4121293021572 26.3979185687849
    vertex 106.200142748891 79.1419676548128 26.7500000059992
    vertex 106.200142743629 79.4121293132292 26.3979184779821
  endloop
endfacet
facet normal 7.04442160043492e-009 0.793353340291237 0.608761429008718
  outer loop
    vertex 106.200142748891 79.1419676548128 26.7500000059992
    vertex 99.6001427608304 79.4121293021572 26.3979185687849
    vertex 99.600142766092 79.1419676437408 26.750000096802
  endloop
endfacet
facet normal 1.20616528208555e-008 0.382683432365105 0.92387953251128
  outer loop
    vertex 105.400142810057 81.3130222612229 30.2079997482205
    vertex 99.6001428053158 81.9642108301743 29.93826868702
    vertex 99.6001428100568 81.3130222519512 30.2079998277825
  endloop
endfacet
facet normal 1.20616528208555e-008 0.382683432365105 0.92387953251128
  outer loop
    vertex 99.6001428053158 81.9642108301743 29.93826868702
    vertex 105.400142810057 81.3130222612229 30.2079997482205
    vertex 105.400142805316 81.9642108394461 29.938268607458
  endloop
endfacet
facet normal 1.36377317309843e-008 1.15797904013317e-009 1.0
  outer loop
    vertex 105.400142771083 83.3142108394461 27.60000001724
    vertex 99.6001427714734 83.7142108312313 27.6000000958757
    vertex 99.6001427710825 83.3142108301743 27.600000096802
  endloop
endfacet
facet normal 1.36377317309843e-008 1.15797904013317e-009 1.0
  outer loop
    vertex 99.6001427714734 83.7142108312313 27.6000000958757
    vertex 105.400142771083 83.3142108394461 27.60000001724
    vertex 105.400142770443 83.7142108394461 27.60000001724
  endloop
endfacet
facet normal -1.54178697128004e-009 1.0 1.82843039337587e-011
  outer loop
    vertex 106.200142731473 83.7142108417356 24.5000000064632
    vertex 105.400142770443 83.7142108394461 27.60000001724
    vertex 106.200142888493 83.7142108417356 36.9920000060578
  endloop
endfacet
facet normal -1.54178697128004e-009 1.0 1.82843039337587e-011
  outer loop
    vertex 105.400142770443 83.7142108394461 27.60000001724
    vertex 106.200142731473 83.7142108417356 24.5000000064632
    vertex 99.6001427325029 83.7142108312313 24.500000095854
  endloop
endfacet
facet normal -1.54178697128004e-009 1.0 1.82843039337587e-011
  outer loop
    vertex 105.400142770443 83.7142108394461 27.60000001724
    vertex 99.6001427325029 83.7142108312313 24.500000095854
    vertex 99.6001427714734 83.7142108312313 27.6000000958757
  endloop
endfacet
facet normal -1.54178697128004e-009 1.0 1.82843039337587e-011
  outer loop
    vertex 105.400142882124 83.7142108394462 37.00000001724
    vertex 106.200142888493 83.7142108417356 36.9920000060578
    vertex 105.400142770443 83.7142108394461 27.60000001724
  endloop
endfacet
facet normal -1.38592652369624e-008 0.130526192220076 -0.991444861373807
  outer loop
    vertex 99.6001427987183 80.6142108301743 29.300000096802
    vertex 106.200142781426 80.1742184645721 29.2420739106907
    vertex 99.600142798627 80.1742184535001 29.2420740014934
  endloop
endfacet
facet normal -1.38592652369624e-008 0.130526192220076 -0.991444861373807
  outer loop
    vertex 106.200142781426 80.1742184645721 29.2420739106907
    vertex 99.6001427987183 80.6142108301743 29.300000096802
    vertex 106.200142781517 80.6142108412464 29.3000000059993
  endloop
endfacet
facet normal 9.89370426166964e-009 0.608761429008704 0.793353340291248
  outer loop
    vertex 106.200142743629 79.4121293132292 26.3979184779821
    vertex 99.6001427565617 79.7642108301743 26.1277569103685
    vertex 99.6001427608304 79.4121293021572 26.3979185687849
  endloop
endfacet
facet normal 9.89370426166964e-009 0.608761429008704 0.793353340291248
  outer loop
    vertex 99.6001427565617 79.7642108301743 26.1277569103685
    vertex 106.200142743629 79.4121293132292 26.3979184779821
    vertex 106.200142739361 79.7642108412464 26.1277568195657
  endloop
endfacet
facet normal -1.20687504958825e-008 -0.382683432365092 -0.923879532511286
  outer loop
    vertex 99.6001427942353 81.4642108301743 29.0722432832356
    vertex 106.200142780019 81.0542032179207 29.2420739106907
    vertex 99.6001427972203 81.0542032068486 29.2420740014934
  endloop
endfacet
facet normal -1.20687504958825e-008 -0.382683432365092 -0.923879532511286
  outer loop
    vertex 106.200142780019 81.0542032179207 29.2420739106907
    vertex 99.6001427942353 81.4642108301743 29.0722432832356
    vertex 106.200142777034 81.4642108412464 29.0722431924328
  endloop
endfacet
facet normal -1.34213281436732e-008 -0.130526192220077 -0.991444861373807
  outer loop
    vertex 99.6001427972203 81.0542032068486 29.2420740014934
    vertex 106.200142781517 80.6142108412464 29.3000000059993
    vertex 99.6001427987183 80.6142108301743 29.300000096802
  endloop
endfacet
facet normal -1.34213281436732e-008 -0.130526192220077 -0.991444861373807
  outer loop
    vertex 106.200142781517 80.6142108412464 29.3000000059993
    vertex 99.6001427972203 81.0542032068486 29.2420740014934
    vertex 106.200142780019 81.0542032179207 29.2420739106907
  endloop
endfacet
facet normal -3.71507284925374e-009 -0.9238795325113 -0.382683432365059
  outer loop
    vertex 99.600142784705 82.0864540166079 28.450000096802
    vertex 106.200142761608 82.2562847459378 28.0399923826735
    vertex 106.200142767504 82.0864540276799 28.4500000059993
  endloop
endfacet
facet normal -3.71507284925374e-009 -0.9238795325113 -0.382683432365059
  outer loop
    vertex 106.200142761608 82.2562847459378 28.0399923826735
    vertex 99.600142784705 82.0864540166079 28.450000096802
    vertex 99.6001427788091 82.2562847348658 28.0399924734763
  endloop
endfacet
facet normal 1.38592669736259e-008 -0.130526192220023 0.991444861373814
  outer loop
    vertex 106.200142734878 80.6142108412464 25.9000000059992
    vertex 99.6001427521699 81.0542032068486 25.9579261921106
    vertex 99.6001427520786 80.6142108301743 25.9000000968021
  endloop
endfacet
facet normal 1.38592669736259e-008 -0.130526192220023 0.991444861373814
  outer loop
    vertex 99.6001427521699 81.0542032068486 25.9579261921106
    vertex 106.200142734878 80.6142108412464 25.9000000059992
    vertex 106.200142734969 81.0542032179207 25.9579261013078
  endloop
endfacet
facet normal 1.36377317344755e-008 -1.15800303233587e-009 1.0
  outer loop
    vertex 105.400142779714 77.9142108394461 27.60000001724
    vertex 99.6001427787613 77.5142108312313 27.6000000958757
    vertex 105.400142777731 77.5142108394462 27.60000001724
  endloop
endfacet
facet normal 1.36377317344755e-008 -1.15800303233587e-009 1.0
  outer loop
    vertex 99.6001427787613 77.5142108312313 27.6000000958757
    vertex 105.400142779714 77.9142108394461 27.60000001724
    vertex 99.6001427797144 77.9142108301743 27.6000000968021
  endloop
endfacet
facet normal 3.71507297209819e-009 0.923879532511281 0.382683432365103
  outer loop
    vertex 99.600142766092 79.1419676437408 26.750000096802
    vertex 106.200142754787 78.972136936555 27.160007629325
    vertex 106.200142748891 79.1419676548128 26.7500000059992
  endloop
endfacet
facet normal 3.71507297209819e-009 0.923879532511281 0.382683432365103
  outer loop
    vertex 106.200142754787 78.972136936555 27.160007629325
    vertex 99.600142766092 79.1419676437408 26.750000096802
    vertex 99.6001427719877 78.9721369254829 27.1600077201278
  endloop
endfacet
facet normal -7.04442162153722e-009 -0.793353340291222 -0.608761429008737
  outer loop
    vertex 106.200142772765 81.8162923692635 28.8020815340164
    vertex 99.600142784705 82.0864540166079 28.450000096802
    vertex 106.200142767504 82.0864540276799 28.4500000059993
  endloop
endfacet
facet normal -7.04442162153722e-009 -0.793353340291222 -0.608761429008737
  outer loop
    vertex 99.600142784705 82.0864540166079 28.450000096802
    vertex 106.200142772765 81.8162923692635 28.8020815340164
    vertex 99.6001427899666 81.8162923581915 28.8020816248192
  endloop
endfacet
facet normal -1.19362021872948e-008 0.608761429008716 -0.793353340291239
  outer loop
    vertex 99.6001427969528 79.7642108301743 29.0722432832356
    vertex 106.200142776609 79.4121293132292 28.8020815340164
    vertex 99.6001427938096 79.4121293021572 28.8020816248192
  endloop
endfacet
facet normal -1.19362021872948e-008 0.608761429008716 -0.793353340291239
  outer loop
    vertex 106.200142776609 79.4121293132292 28.8020815340164
    vertex 99.6001427969528 79.7642108301743 29.0722432832356
    vertex 106.200142779752 79.7642108412464 29.0722431924328
  endloop
endfacet
facet normal -9.70625476234605e-009 0.793353340291244 -0.608761429008709
  outer loop
    vertex 99.6001427894118 79.1419676437408 28.450000096802
    vertex 106.200142776609 79.4121293132292 28.8020815340164
    vertex 106.200142772211 79.1419676548128 28.4500000059993
  endloop
endfacet
facet normal -9.70625476234605e-009 0.793353340291244 -0.608761429008709
  outer loop
    vertex 106.200142776609 79.4121293132292 28.8020815340164
    vertex 99.6001427894118 79.1419676437408 28.450000096802
    vertex 99.6001427938096 79.4121293021572 28.8020816248192
  endloop
endfacet
facet normal 6.72639808281639e-009 -0.923879532511291 0.382683432365079
  outer loop
    vertex 105.400142797655 78.2759422492282 28.95000001724
    vertex 99.6001427891533 78.0062110991938 28.2988115185789
    vertex 105.400142789153 78.0062111084656 28.2988114390168
  endloop
endfacet
facet normal 6.72639808281639e-009 -0.923879532511291 0.382683432365079
  outer loop
    vertex 99.6001427891533 78.0062110991938 28.2988115185789
    vertex 105.400142797655 78.2759422492282 28.95000001724
    vertex 99.6001427976548 78.2759422399563 28.950000096802
  endloop
endfacet
facet normal 9.61898667511353e-009 -0.793353340291232 0.608761429008726
  outer loop
    vertex 99.6001428046396 78.7050225209706 29.5091884060057
    vertex 105.400142797655 78.2759422492282 28.95000001724
    vertex 105.40014280464 78.7050225302425 29.5091883264437
  endloop
endfacet
facet normal 9.61898667511353e-009 -0.793353340291232 0.608761429008726
  outer loop
    vertex 105.400142797655 78.2759422492282 28.95000001724
    vertex 99.6001428046396 78.7050225209706 29.5091884060057
    vertex 99.6001427976548 78.2759422399563 28.950000096802
  endloop
endfacet
facet normal -1.0 -1.29856982368825e-009 1.15260679520635e-008
  outer loop
    vertex 105.400142885866 77.5142108394462 37.00000001724
    vertex 105.400142779714 77.9142108394461 27.60000001724
    vertex 105.400142777731 77.5142108394462 27.60000001724
  endloop
endfacet
facet normal -1.0 -1.29856982368825e-009 1.15260679520635e-008
  outer loop
    vertex 105.400142779714 77.9142108394461 27.60000001724
    vertex 105.400142885866 77.5142108394462 37.00000001724
    vertex 105.400142789153 78.0062111084656 28.2988114390168
  endloop
endfacet
facet normal -1.0 -1.29856982368825e-009 1.15260679520635e-008
  outer loop
    vertex 105.400142789153 78.0062111084656 28.2988114390168
    vertex 105.400142885866 77.5142108394462 37.00000001724
    vertex 105.400142797655 78.2759422492282 28.95000001724
  endloop
endfacet
facet normal -1.0 -1.29856982368825e-009 1.15260679520635e-008
  outer loop
    vertex 105.400142797655 78.2759422492282 28.95000001724
    vertex 105.400142885866 77.5142108394462 37.00000001724
    vertex 105.40014280464 78.7050225302425 29.5091883264437
  endloop
endfacet
facet normal -1.0 -1.29856982368825e-009 1.15260679520635e-008
  outer loop
    vertex 105.40014280464 78.7050225302425 29.5091883264437
    vertex 105.400142885866 77.5142108394462 37.00000001724
    vertex 105.400142809632 79.2642108394461 29.938268607458
  endloop
endfacet
facet normal -1.0 -1.29856982368825e-009 1.15260679520635e-008
  outer loop
    vertex 105.400142809632 79.2642108394461 29.938268607458
    vertex 105.400142885866 77.5142108394462 37.00000001724
    vertex 105.400142812291 79.9153994176693 30.2079997482205
  endloop
endfacet
facet normal -1.0 -1.29856982368825e-009 1.15260679520635e-008
  outer loop
    vertex 105.400142812291 79.9153994176693 30.2079997482205
    vertex 105.400142885866 77.5142108394462 37.00000001724
    vertex 105.400142812436 80.6142108394461 30.30000001724
  endloop
endfacet
facet normal -1.0 -1.29856982368825e-009 1.15260679520635e-008
  outer loop
    vertex 105.400142812436 80.6142108394461 30.30000001724
    vertex 105.400142885866 77.5142108394462 37.00000001724
    vertex 105.400142882124 83.7142108394462 37.00000001724
  endloop
endfacet
facet normal -1.0 -1.29856982368825e-009 1.15260679520635e-008
  outer loop
    vertex 105.400142780816 83.2222105704266 28.2988114390168
    vertex 105.400142770443 83.7142108394461 27.60000001724
    vertex 105.400142771083 83.3142108394461 27.60000001724
  endloop
endfacet
facet normal -1.0 -1.29856982368825e-009 1.15260679520635e-008
  outer loop
    vertex 105.400142770443 83.7142108394461 27.60000001724
    vertex 105.400142780816 83.2222105704266 28.2988114390168
    vertex 105.400142882124 83.7142108394462 37.00000001724
  endloop
endfacet
facet normal -1.0 -1.29856982368825e-009 1.15260679520635e-008
  outer loop
    vertex 105.400142882124 83.7142108394462 37.00000001724
    vertex 105.400142780816 83.2222105704266 28.2988114390168
    vertex 105.400142790179 82.9524794296641 28.95000001724
  endloop
endfacet
facet normal -1.0 -1.29856982368825e-009 1.15260679520635e-008
  outer loop
    vertex 105.400142882124 83.7142108394462 37.00000001724
    vertex 105.400142790179 82.9524794296641 28.95000001724
    vertex 105.400142798536 82.5233991486498 29.5091883264437
  endloop
endfacet
facet normal -1.0 -1.29856982368825e-009 1.15260679520635e-008
  outer loop
    vertex 105.400142882124 83.7142108394462 37.00000001724
    vertex 105.400142798536 82.5233991486498 29.5091883264437
    vertex 105.400142805316 81.9642108394461 29.938268607458
  endloop
endfacet
facet normal -1.0 -1.29856982368825e-009 1.15260679520635e-008
  outer loop
    vertex 105.400142882124 83.7142108394462 37.00000001724
    vertex 105.400142805316 81.9642108394461 29.938268607458
    vertex 105.400142810057 81.3130222612229 30.2079997482205
  endloop
endfacet
facet normal -1.0 -1.29856982368825e-009 1.15260679520635e-008
  outer loop
    vertex 105.400142882124 83.7142108394462 37.00000001724
    vertex 105.400142810057 81.3130222612229 30.2079997482205
    vertex 105.400142804325 80.7142108394519 30.2868347674805
  endloop
endfacet
facet normal -1.0 -1.29856982368825e-009 1.15260679520635e-008
  outer loop
    vertex 105.400142882124 83.7142108394462 37.00000001724
    vertex 105.400142804325 80.7142108394519 30.2868347674805
    vertex 105.400142812436 80.6142108394461 30.30000001724
  endloop
endfacet
facet normal 6.81484317032665e-009 -0.923879532511298 0.382683432365063
  outer loop
    vertex 106.200142749537 82.2562847459378 27.160007629325
    vertex 99.6001427613852 82.0864540166079 26.750000096802
    vertex 106.200142744184 82.0864540276799 26.7500000059992
  endloop
endfacet
facet normal 6.81484317032665e-009 -0.923879532511298 0.382683432365063
  outer loop
    vertex 99.6001427613852 82.0864540166079 26.750000096802
    vertex 106.200142749537 82.2562847459378 27.160007629325
    vertex 99.6001427667379 82.2562847348658 27.1600077201278
  endloop
endfacet
facet normal 9.90974283013085e-009 0.608761429008725 0.793353340291232
  outer loop
    vertex 105.400142805316 81.9642108394461 29.938268607458
    vertex 99.600142798536 82.523399139378 29.5091884060057
    vertex 99.6001428053158 81.9642108301743 29.93826868702
  endloop
endfacet
facet normal 9.90974283013085e-009 0.608761429008725 0.793353340291232
  outer loop
    vertex 99.600142798536 82.523399139378 29.5091884060057
    vertex 105.400142805316 81.9642108394461 29.938268607458
    vertex 105.400142798536 82.5233991486498 29.5091883264437
  endloop
endfacet
facet normal 1.20687497690824e-008 0.382683432365128 0.923879532511271
  outer loop
    vertex 106.200142739361 79.7642108412464 26.1277568195657
    vertex 99.6001427535766 80.1742184535 25.9579261921106
    vertex 99.6001427565617 79.7642108301743 26.1277569103685
  endloop
endfacet
facet normal 1.20687497690824e-008 0.382683432365128 0.923879532511271
  outer loop
    vertex 99.6001427535766 80.1742184535 25.9579261921106
    vertex 106.200142739361 79.7642108412464 26.1277568195657
    vertex 106.200142736376 80.1742184645721 25.9579261013078
  endloop
endfacet
facet normal -1.0 -1.40904905984761e-009 1.32373255433288e-008
  outer loop
    vertex 99.6001427395684 77.5142108312313 24.5000000958933
    vertex 99.6001427535766 80.1742184535 25.9579261921106
    vertex 99.6001427520786 80.6142108301743 25.9000000968021
  endloop
endfacet
facet normal -1.0 -1.40904905984761e-009 1.32373255433288e-008
  outer loop
    vertex 99.6001427535766 80.1742184535 25.9579261921106
    vertex 99.6001427395684 77.5142108312313 24.5000000958933
    vertex 99.6001427565617 79.7642108301743 26.1277569103685
  endloop
endfacet
facet normal -1.0 -1.40904905984761e-009 1.32373255433288e-008
  outer loop
    vertex 99.6001427565617 79.7642108301743 26.1277569103685
    vertex 99.6001427395684 77.5142108312313 24.5000000958933
    vertex 99.6001427787613 77.5142108312313 27.6000000958757
  endloop
endfacet
facet normal -1.0 -1.40904905984761e-009 1.32373255433288e-008
  outer loop
    vertex 99.6001427565617 79.7642108301743 26.1277569103685
    vertex 99.6001427787613 77.5142108312313 27.6000000958757
    vertex 99.6001427608304 79.4121293021572 26.3979185687849
  endloop
endfacet
facet normal -1.0 -1.40904905984761e-009 1.32373255433288e-008
  outer loop
    vertex 99.6001427608304 79.4121293021572 26.3979185687849
    vertex 99.6001427787613 77.5142108312313 27.6000000958757
    vertex 99.600142766092 79.1419676437408 26.750000096802
  endloop
endfacet
facet normal -1.0 -1.40904905984761e-009 1.32373255433288e-008
  outer loop
    vertex 99.600142766092 79.1419676437408 26.750000096802
    vertex 99.6001427787613 77.5142108312313 27.6000000958757
    vertex 99.6001427719877 78.9721369254829 27.1600077201278
  endloop
endfacet
facet normal -1.0 -1.40904905984761e-009 1.32373255433288e-008
  outer loop
    vertex 99.6001427719877 78.9721369254829 27.1600077201278
    vertex 99.6001427787613 77.5142108312313 27.6000000958757
    vertex 99.600142778116 78.9142108301743 27.6000000968021
  endloop
endfacet
facet normal -1.0 -1.40904905984761e-009 1.32373255433288e-008
  outer loop
    vertex 99.600142778116 78.9142108301743 27.6000000968021
    vertex 99.6001427787613 77.5142108312313 27.6000000958757
    vertex 99.6001427797144 77.9142108301743 27.6000000968021
  endloop
endfacet
facet normal -1.0 -1.40904905984761e-009 1.32373255433288e-008
  outer loop
    vertex 99.600142778116 78.9142108301743 27.6000000968021
    vertex 99.6001427797144 77.9142108301743 27.6000000968021
    vertex 99.6001427891533 78.0062110991938 28.2988115185789
  endloop
endfacet
facet normal -1.0 -1.40904905984761e-009 1.32373255433288e-008
  outer loop
    vertex 99.600142778116 78.9142108301743 27.6000000968021
    vertex 99.6001427891533 78.0062110991938 28.2988115185789
    vertex 99.600142784059 78.9721369254829 28.0399924734763
  endloop
endfacet
facet normal -1.0 -1.40904905984761e-009 1.32373255433288e-008
  outer loop
    vertex 99.600142784059 78.9721369254829 28.0399924734763
    vertex 99.6001427891533 78.0062110991938 28.2988115185789
    vertex 99.6001427894118 79.1419676437408 28.450000096802
  endloop
endfacet
facet normal -1.0 -1.40904905984761e-009 1.32373255433288e-008
  outer loop
    vertex 99.6001427894118 79.1419676437408 28.450000096802
    vertex 99.6001427891533 78.0062110991938 28.2988115185789
    vertex 99.6001427976548 78.2759422399563 28.950000096802
  endloop
endfacet
facet normal -1.0 -1.40904905984761e-009 1.32373255433288e-008
  outer loop
    vertex 99.6001427894118 79.1419676437408 28.450000096802
    vertex 99.6001427976548 78.2759422399563 28.950000096802
    vertex 99.6001427938096 79.4121293021572 28.8020816248192
  endloop
endfacet
facet normal -1.0 -1.40904905984761e-009 1.32373255433288e-008
  outer loop
    vertex 99.6001427938096 79.4121293021572 28.8020816248192
    vertex 99.6001427976548 78.2759422399563 28.950000096802
    vertex 99.6001427969528 79.7642108301743 29.0722432832356
  endloop
endfacet
facet normal -1.0 -1.40904905984761e-009 1.32373255433288e-008
  outer loop
    vertex 99.6001427969528 79.7642108301743 29.0722432832356
    vertex 99.6001427976548 78.2759422399563 28.950000096802
    vertex 99.6001428046396 78.7050225209706 29.5091884060057
  endloop
endfacet
facet normal -1.0 -1.40904905984761e-009 1.32373255433288e-008
  outer loop
    vertex 99.6001427969528 79.7642108301743 29.0722432832356
    vertex 99.6001428046396 78.7050225209706 29.5091884060057
    vertex 99.600142798627 80.1742184535001 29.2420740014934
  endloop
endfacet
facet normal -1.0 -1.40904905984761e-009 1.32373255433288e-008
  outer loop
    vertex 99.600142798627 80.1742184535001 29.2420740014934
    vertex 99.6001428046396 78.7050225209706 29.5091884060057
    vertex 99.6001427987183 80.6142108301743 29.300000096802
  endloop
endfacet
facet normal -1.0 -1.40904905984761e-009 1.32373255433288e-008
  outer loop
    vertex 99.6001427325029 83.7142108312313 24.500000095854
    vertex 99.6001427538442 81.4642108301743 26.1277569103685
    vertex 99.6001427714734 83.7142108312313 27.6000000958757
  endloop
endfacet
facet normal -1.0 -1.40904905984761e-009 1.32373255433288e-008
  outer loop
    vertex 99.6001427538442 81.4642108301743 26.1277569103685
    vertex 99.6001427325029 83.7142108312313 24.500000095854
    vertex 99.6001427521699 81.0542032068486 25.9579261921106
  endloop
endfacet
facet normal -1.0 -1.40904905984761e-009 1.32373255433288e-008
  outer loop
    vertex 99.6001427521699 81.0542032068486 25.9579261921106
    vertex 99.6001427325029 83.7142108312313 24.500000095854
    vertex 99.6001427395684 77.5142108312313 24.5000000958933
  endloop
endfacet
facet normal -1.0 -1.40904905984761e-009 1.32373255433288e-008
  outer loop
    vertex 99.6001427521699 81.0542032068486 25.9579261921106
    vertex 99.6001427395684 77.5142108312313 24.5000000958933
    vertex 99.6001427520786 80.6142108301743 25.9000000968021
  endloop
endfacet
facet normal -1.0 -1.40904905984761e-009 1.32373255433288e-008
  outer loop
    vertex 99.6001427714734 83.7142108312313 27.6000000958757
    vertex 99.6001427538442 81.4642108301743 26.1277569103685
    vertex 99.6001427569873 81.8162923581915 26.3979185687849
  endloop
endfacet
facet normal -1.0 -1.40904905984761e-009 1.32373255433288e-008
  outer loop
    vertex 99.6001427714734 83.7142108312313 27.6000000958757
    vertex 99.6001427569873 81.8162923581915 26.3979185687849
    vertex 99.6001427613852 82.0864540166079 26.750000096802
  endloop
endfacet
facet normal -1.0 -1.40904905984761e-009 1.32373255433288e-008
  outer loop
    vertex 99.6001427714734 83.7142108312313 27.6000000958757
    vertex 99.6001427613852 82.0864540166079 26.750000096802
    vertex 99.6001427667379 82.2562847348658 27.1600077201278
  endloop
endfacet
facet normal -1.0 -1.40904905984761e-009 1.32373255433288e-008
  outer loop
    vertex 99.6001427714734 83.7142108312313 27.6000000958757
    vertex 99.6001427667379 82.2562847348658 27.1600077201278
    vertex 99.600142772681 82.3142108301743 27.600000096802
  endloop
endfacet
facet normal -1.0 -1.40904905984761e-009 1.32373255433288e-008
  outer loop
    vertex 99.6001427714734 83.7142108312313 27.6000000958757
    vertex 99.600142772681 82.3142108301743 27.600000096802
    vertex 99.6001427710825 83.3142108301743 27.600000096802
  endloop
endfacet
facet normal -1.0 -1.40904905984761e-009 1.32373255433288e-008
  outer loop
    vertex 99.6001427710825 83.3142108301743 27.600000096802
    vertex 99.600142772681 82.3142108301743 27.600000096802
    vertex 99.6001427788091 82.2562847348658 28.0399924734763
  endloop
endfacet
facet normal -1.0 -1.40904905984761e-009 1.32373255433288e-008
  outer loop
    vertex 99.6001427710825 83.3142108301743 27.600000096802
    vertex 99.6001427788091 82.2562847348658 28.0399924734763
    vertex 99.6001427808155 83.2222105611548 28.2988115185788
  endloop
endfacet
facet normal -1.0 -1.40904905984761e-009 1.32373255433288e-008
  outer loop
    vertex 99.6001427808155 83.2222105611548 28.2988115185788
    vertex 99.6001427788091 82.2562847348658 28.0399924734763
    vertex 99.600142784705 82.0864540166079 28.450000096802
  endloop
endfacet
facet normal -1.0 -1.40904905984761e-009 1.32373255433288e-008
  outer loop
    vertex 99.6001427808155 83.2222105611548 28.2988115185788
    vertex 99.600142784705 82.0864540166079 28.450000096802
    vertex 99.6001427901791 82.9524794203923 28.950000096802
  endloop
endfacet
facet normal -1.0 -1.40904905984761e-009 1.32373255433288e-008
  outer loop
    vertex 99.6001427901791 82.9524794203923 28.950000096802
    vertex 99.600142784705 82.0864540166079 28.450000096802
    vertex 99.6001427899666 81.8162923581915 28.8020816248192
  endloop
endfacet
facet normal -1.0 -1.40904905984761e-009 1.32373255433288e-008
  outer loop
    vertex 99.6001427901791 82.9524794203923 28.950000096802
    vertex 99.6001427899666 81.8162923581915 28.8020816248192
    vertex 99.6001427942353 81.4642108301743 29.0722432832356
  endloop
endfacet
facet normal -1.0 -1.40904905984761e-009 1.32373255433288e-008
  outer loop
    vertex 99.6001427901791 82.9524794203923 28.950000096802
    vertex 99.6001427942353 81.4642108301743 29.0722432832356
    vertex 99.600142798536 82.523399139378 29.5091884060057
  endloop
endfacet
facet normal -1.0 -1.40904905984761e-009 1.32373255433288e-008
  outer loop
    vertex 99.600142798536 82.523399139378 29.5091884060057
    vertex 99.6001427942353 81.4642108301743 29.0722432832356
    vertex 99.6001427972203 81.0542032068486 29.2420740014934
  endloop
endfacet
facet normal -1.0 -1.40904905984761e-009 1.32373255433288e-008
  outer loop
    vertex 99.600142798536 82.523399139378 29.5091884060057
    vertex 99.6001427972203 81.0542032068486 29.2420740014934
    vertex 99.6001427987183 80.6142108301743 29.300000096802
  endloop
endfacet
facet normal -1.0 -1.40904905984761e-009 1.32373255433288e-008
  outer loop
    vertex 99.600142798536 82.523399139378 29.5091884060057
    vertex 99.6001427987183 80.6142108301743 29.300000096802
    vertex 99.6001428046396 78.7050225209706 29.5091884060057
  endloop
endfacet
facet normal -1.0 -1.40904905984761e-009 1.32373255433288e-008
  outer loop
    vertex 99.600142798536 82.523399139378 29.5091884060057
    vertex 99.6001428046396 78.7050225209706 29.5091884060057
    vertex 99.6001428096317 79.2642108301743 29.93826868702
  endloop
endfacet
facet normal -1.0 -1.40904905984761e-009 1.32373255433288e-008
  outer loop
    vertex 99.600142798536 82.523399139378 29.5091884060057
    vertex 99.6001428096317 79.2642108301743 29.93826868702
    vertex 99.6001428053158 81.9642108301743 29.93826868702
  endloop
endfacet
facet normal -1.0 -1.40904905984761e-009 1.32373255433288e-008
  outer loop
    vertex 99.6001428053158 81.9642108301743 29.93826868702
    vertex 99.6001428096317 79.2642108301743 29.93826868702
    vertex 99.6001428122909 79.9153994083975 30.2079998277825
  endloop
endfacet
facet normal -1.0 -1.40904905984761e-009 1.32373255433288e-008
  outer loop
    vertex 99.6001428053158 81.9642108301743 29.93826868702
    vertex 99.6001428122909 79.9153994083975 30.2079998277825
    vertex 99.6001428100568 81.3130222519512 30.2079998277825
  endloop
endfacet
facet normal -1.0 -1.40904905984761e-009 1.32373255433288e-008
  outer loop
    vertex 99.6001428100568 81.3130222519512 30.2079998277825
    vertex 99.6001428122909 79.9153994083975 30.2079998277825
    vertex 99.6001428124358 80.6142108301743 30.300000096802
  endloop
endfacet
facet normal 1.32546911897378e-010 0.991444861373814 0.130526192220023
  outer loop
    vertex 99.6001427719877 78.9721369254829 27.1600077201278
    vertex 106.200142760915 78.9142108412464 27.6000000059993
    vertex 106.200142754787 78.972136936555 27.160007629325
  endloop
endfacet
facet normal 1.32546911897378e-010 0.991444861373814 0.130526192220023
  outer loop
    vertex 106.200142760915 78.9142108412464 27.6000000059993
    vertex 99.6001427719877 78.9721369254829 27.1600077201278
    vertex 99.600142778116 78.9142108301743 27.6000000968021
  endloop
endfacet
facet normal 1.19362003091216e-008 -0.608761429008704 0.793353340291248
  outer loop
    vertex 106.200142736643 81.4642108412464 26.1277568195657
    vertex 99.6001427569873 81.8162923581915 26.3979185687849
    vertex 99.6001427538442 81.4642108301743 26.1277569103685
  endloop
endfacet
facet normal 1.19362003091216e-008 -0.608761429008704 0.793353340291248
  outer loop
    vertex 99.6001427569873 81.8162923581915 26.3979185687849
    vertex 106.200142736643 81.4642108412464 26.1277568195657
    vertex 106.200142739786 81.8162923692635 26.3979184779821
  endloop
endfacet
facet normal -1.32547959966634e-010 -0.991444861373806 -0.130526192220082
  outer loop
    vertex 106.200142761608 82.2562847459378 28.0399923826735
    vertex 99.600142772681 82.3142108301743 27.600000096802
    vertex 106.20014275548 82.3142108412464 27.6000000059993
  endloop
endfacet
facet normal -1.32547959966634e-010 -0.991444861373806 -0.130526192220082
  outer loop
    vertex 99.600142772681 82.3142108301743 27.600000096802
    vertex 106.200142761608 82.2562847459378 28.0399923826735
    vertex 99.6001427788091 82.2562847348658 28.0399924734763
  endloop
endfacet
facet normal 1.18560573469768e-008 -0.608761429008722 0.793353340291234
  outer loop
    vertex 105.40014280464 78.7050225302425 29.5091883264437
    vertex 99.6001428096317 79.2642108301743 29.93826868702
    vertex 99.6001428046396 78.7050225209706 29.5091884060057
  endloop
endfacet
facet normal 1.18560573469768e-008 -0.608761429008722 0.793353340291234
  outer loop
    vertex 99.6001428096317 79.2642108301743 29.93826868702
    vertex 105.40014280464 78.7050225302425 29.5091883264437
    vertex 105.400142809632 79.2642108394461 29.938268607458
  endloop
endfacet
facet normal 2.05597443797861e-010 0.991444861373811 0.130526192220044
  outer loop
    vertex 99.6001427710825 83.3142108301743 27.600000096802
    vertex 105.400142780816 83.2222105704266 28.2988114390168
    vertex 105.400142771083 83.3142108394461 27.60000001724
  endloop
endfacet
facet normal 2.05597443797861e-010 0.991444861373811 0.130526192220044
  outer loop
    vertex 105.400142780816 83.2222105704266 28.2988114390168
    vertex 99.6001427710825 83.3142108301743 27.600000096802
    vertex 99.6001427808155 83.2222105611548 28.2988115185788
  endloop
endfacet
facet normal -3.45901134730464e-009 0.991444861373813 -0.130526192220033
  outer loop
    vertex 99.600142778116 78.9142108301743 27.6000000968021
    vertex 106.200142766858 78.972136936555 28.0399923826735
    vertex 106.200142760915 78.9142108412464 27.6000000059993
  endloop
endfacet
facet normal -3.45901134730464e-009 0.991444861373813 -0.130526192220033
  outer loop
    vertex 106.200142766858 78.972136936555 28.0399923826735
    vertex 99.600142778116 78.9142108301743 27.6000000968021
    vertex 99.600142784059 78.9721369254829 28.0399924734763
  endloop
endfacet
facet normal 3.3754165930856e-009 -0.991444861373811 0.130526192220048
  outer loop
    vertex 105.400142789153 78.0062111084656 28.2988114390168
    vertex 99.6001427797144 77.9142108301743 27.6000000968021
    vertex 105.400142779714 77.9142108394461 27.60000001724
  endloop
endfacet
facet normal 3.3754165930856e-009 -0.991444861373811 0.130526192220048
  outer loop
    vertex 99.6001427797144 77.9142108301743 27.6000000968021
    vertex 105.400142789153 78.0062111084656 28.2988114390168
    vertex 99.6001427891533 78.0062110991938 28.2988115185789
  endloop
endfacet
facet normal 3.77259698062126e-009 0.923879532511282 0.382683432365102
  outer loop
    vertex 99.6001427808155 83.2222105611548 28.2988115185788
    vertex 105.400142790179 82.9524794296641 28.95000001724
    vertex 105.400142780816 83.2222105704266 28.2988114390168
  endloop
endfacet
facet normal 3.77259698062126e-009 0.923879532511282 0.382683432365102
  outer loop
    vertex 105.400142790179 82.9524794296641 28.95000001724
    vertex 99.6001427808155 83.2222105611548 28.2988115185788
    vertex 99.6001427901791 82.9524794203923 28.950000096802
  endloop
endfacet
facet normal 1.38088955361448e-008 -0.13052619222004 0.991444861373812
  outer loop
    vertex 105.400142812291 79.9153994176693 30.2079997482205
    vertex 99.6001428124358 80.6142108301743 30.300000096802
    vertex 99.6001428122909 79.9153994083975 30.2079998277825
  endloop
endfacet
facet normal 1.38088955361448e-008 -0.13052619222004 0.991444861373812
  outer loop
    vertex 99.6001428124358 80.6142108301743 30.300000096802
    vertex 105.400142812291 79.9153994176693 30.2079997482205
    vertex 105.400142812436 80.6142108394461 30.30000001724
  endloop
endfacet
facet normal 1.32851570159143e-008 -0.382683432365099 0.923879532511283
  outer loop
    vertex 105.400142809632 79.2642108394461 29.938268607458
    vertex 99.6001428122909 79.9153994083975 30.2079998277825
    vertex 99.6001428096317 79.2642108301743 29.93826868702
  endloop
endfacet
facet normal 1.32851570159143e-008 -0.382683432365099 0.923879532511283
  outer loop
    vertex 99.6001428122909 79.9153994083975 30.2079998277825
    vertex 105.400142809632 79.2642108394461 29.938268607458
    vertex 105.400142812291 79.9153994176693 30.2079997482205
  endloop
endfacet
facet normal 7.08250026858454e-009 0.793353340291234 0.608761429008722
  outer loop
    vertex 105.400142790179 82.9524794296641 28.95000001724
    vertex 99.600142798536 82.523399139378 29.5091884060057
    vertex 105.400142798536 82.5233991486498 29.5091883264437
  endloop
endfacet
facet normal 7.08250026858454e-009 0.793353340291234 0.608761429008722
  outer loop
    vertex 99.600142798536 82.523399139378 29.5091884060057
    vertex 105.400142790179 82.9524794296641 28.95000001724
    vertex 99.6001427901791 82.9524794203923 28.950000096802
  endloop
endfacet
facet normal 1.33915807473541e-008 0.130526192220049 0.991444861373811
  outer loop
    vertex 105.400142812436 80.6142108394461 30.30000001724
    vertex 99.6001428100568 81.3130222519512 30.2079998277825
    vertex 99.6001428124358 80.6142108301743 30.300000096802
  endloop
endfacet
facet normal 1.33915807473541e-008 0.130526192220049 0.991444861373811
  outer loop
    vertex 99.6001428100568 81.3130222519512 30.2079998277825
    vertex 105.400142812436 80.6142108394461 30.30000001724
    vertex 105.400142804325 80.7142108394519 30.2868347674805
  endloop
endfacet
facet normal 1.33915807473541e-008 0.130526192220049 0.991444861373811
  outer loop
    vertex 99.6001428100568 81.3130222519512 30.2079998277825
    vertex 105.400142804325 80.7142108394519 30.2868347674805
    vertex 105.400142810057 81.3130222612229 30.2079997482205
  endloop
endfacet
facet normal 1.0 -6.29393539777732e-010 -1.23797137463829e-008
  outer loop
    vertex 106.200142731473 83.7142108417356 24.5000000064632
    vertex 106.200142734969 81.0542032179207 25.9579261013078
    vertex 106.200142734878 80.6142108412464 25.9000000059992
  endloop
endfacet
facet normal 1.0 -6.29393539777732e-010 -1.23797137463829e-008
  outer loop
    vertex 106.200142734969 81.0542032179207 25.9579261013078
    vertex 106.200142731473 83.7142108417356 24.5000000064632
    vertex 106.200142736643 81.4642108412464 26.1277568195657
  endloop
endfacet
facet normal 1.0 -6.29393539777732e-010 -1.23797137463829e-008
  outer loop
    vertex 106.200142736643 81.4642108412464 26.1277568195657
    vertex 106.200142731473 83.7142108417356 24.5000000064632
    vertex 106.200142739786 81.8162923692635 26.3979184779821
  endloop
endfacet
facet normal 1.0 -6.29393539777732e-010 -1.23797137463829e-008
  outer loop
    vertex 106.200142739786 81.8162923692635 26.3979184779821
    vertex 106.200142731473 83.7142108417356 24.5000000064632
    vertex 106.200142744184 82.0864540276799 26.7500000059992
  endloop
endfacet
facet normal 1.0 -6.29393539777732e-010 -1.23797137463829e-008
  outer loop
    vertex 106.200142744184 82.0864540276799 26.7500000059992
    vertex 106.200142731473 83.7142108417356 24.5000000064632
    vertex 106.200142749537 82.2562847459378 27.160007629325
  endloop
endfacet
facet normal 1.0 -6.29393539777732e-010 -1.23797137463829e-008
  outer loop
    vertex 106.200142749537 82.2562847459378 27.160007629325
    vertex 106.200142731473 83.7142108417356 24.5000000064632
    vertex 106.200142888493 83.7142108417356 36.9920000060578
  endloop
endfacet
facet normal 1.0 -6.29393539777732e-010 -1.23797137463829e-008
  outer loop
    vertex 106.200142749537 82.2562847459378 27.160007629325
    vertex 106.200142888493 83.7142108417356 36.9920000060578
    vertex 106.20014275548 82.3142108412464 27.6000000059993
  endloop
endfacet
facet normal 1.0 -6.29393539777732e-010 -1.23797137463829e-008
  outer loop
    vertex 106.20014275548 82.3142108412464 27.6000000059993
    vertex 106.200142888493 83.7142108417356 36.9920000060578
    vertex 106.200142761608 82.2562847459378 28.0399923826735
  endloop
endfacet
facet normal 1.0 -6.29393539777732e-010 -1.23797137463829e-008
  outer loop
    vertex 106.200142761608 82.2562847459378 28.0399923826735
    vertex 106.200142888493 83.7142108417356 36.9920000060578
    vertex 106.200142767504 82.0864540276799 28.4500000059993
  endloop
endfacet
facet normal 1.0 -6.29393539777732e-010 -1.23797137463829e-008
  outer loop
    vertex 106.200142767504 82.0864540276799 28.4500000059993
    vertex 106.200142888493 83.7142108417356 36.9920000060578
    vertex 106.200142772765 81.8162923692635 28.8020815340164
  endloop
endfacet
facet normal 1.0 -6.29393539777732e-010 -1.23797137463829e-008
  outer loop
    vertex 106.200142772765 81.8162923692635 28.8020815340164
    vertex 106.200142888493 83.7142108417356 36.9920000060578
    vertex 106.200142777034 81.4642108412464 29.0722431924328
  endloop
endfacet
facet normal 1.0 -6.29393539777732e-010 -1.23797137463829e-008
  outer loop
    vertex 106.200142777034 81.4642108412464 29.0722431924328
    vertex 106.200142888493 83.7142108417356 36.9920000060578
    vertex 106.200142780019 81.0542032179207 29.2420739106907
  endloop
endfacet
facet normal 1.0 -6.29393539777732e-010 -1.23797137463829e-008
  outer loop
    vertex 106.200142780019 81.0542032179207 29.2420739106907
    vertex 106.200142888493 83.7142108417356 36.9920000060578
    vertex 106.200142781517 80.6142108412464 29.3000000059993
  endloop
endfacet
facet normal 1.0 -6.29393539777732e-010 -1.23797137463829e-008
  outer loop
    vertex 106.200142729943 77.5142108412471 24.5000000062594
    vertex 106.200142754787 78.972136936555 27.160007629325
    vertex 106.200142882218 77.5142108412471 36.9920000062616
  endloop
endfacet
facet normal 1.0 -6.29393539777732e-010 -1.23797137463829e-008
  outer loop
    vertex 106.200142754787 78.972136936555 27.160007629325
    vertex 106.200142729943 77.5142108412471 24.5000000062594
    vertex 106.200142748891 79.1419676548128 26.7500000059992
  endloop
endfacet
facet normal 1.0 -6.29393539777732e-010 -1.23797137463829e-008
  outer loop
    vertex 106.200142748891 79.1419676548128 26.7500000059992
    vertex 106.200142729943 77.5142108412471 24.5000000062594
    vertex 106.200142743629 79.4121293132292 26.3979184779821
  endloop
endfacet
facet normal 1.0 -6.29393539777732e-010 -1.23797137463829e-008
  outer loop
    vertex 106.200142743629 79.4121293132292 26.3979184779821
    vertex 106.200142729943 77.5142108412471 24.5000000062594
    vertex 106.200142739361 79.7642108412464 26.1277568195657
  endloop
endfacet
facet normal 1.0 -6.29393539777732e-010 -1.23797137463829e-008
  outer loop
    vertex 106.200142739361 79.7642108412464 26.1277568195657
    vertex 106.200142729943 77.5142108412471 24.5000000062594
    vertex 106.200142736376 80.1742184645721 25.9579261013078
  endloop
endfacet
facet normal 1.0 -6.29393539777732e-010 -1.23797137463829e-008
  outer loop
    vertex 106.200142736376 80.1742184645721 25.9579261013078
    vertex 106.200142729943 77.5142108412471 24.5000000062594
    vertex 106.200142731473 83.7142108417356 24.5000000064632
  endloop
endfacet
facet normal 1.0 -6.29393539777732e-010 -1.23797137463829e-008
  outer loop
    vertex 106.200142736376 80.1742184645721 25.9579261013078
    vertex 106.200142731473 83.7142108417356 24.5000000064632
    vertex 106.200142734878 80.6142108412464 25.9000000059992
  endloop
endfacet
facet normal 1.0 -6.29393539777732e-010 -1.23797137463829e-008
  outer loop
    vertex 106.200142882218 77.5142108412471 36.9920000062616
    vertex 106.200142754787 78.972136936555 27.160007629325
    vertex 106.200142760915 78.9142108412464 27.6000000059993
  endloop
endfacet
facet normal 1.0 -6.29393539777732e-010 -1.23797137463829e-008
  outer loop
    vertex 106.200142882218 77.5142108412471 36.9920000062616
    vertex 106.200142760915 78.9142108412464 27.6000000059993
    vertex 106.200142766858 78.972136936555 28.0399923826735
  endloop
endfacet
facet normal 1.0 -6.29393539777732e-010 -1.23797137463829e-008
  outer loop
    vertex 106.200142882218 77.5142108412471 36.9920000062616
    vertex 106.200142766858 78.972136936555 28.0399923826735
    vertex 106.200142772211 79.1419676548128 28.4500000059993
  endloop
endfacet
facet normal 1.0 -6.29393539777732e-010 -1.23797137463829e-008
  outer loop
    vertex 106.200142882218 77.5142108412471 36.9920000062616
    vertex 106.200142772211 79.1419676548128 28.4500000059993
    vertex 106.200142776609 79.4121293132292 28.8020815340164
  endloop
endfacet
facet normal 1.0 -6.29393539777732e-010 -1.23797137463829e-008
  outer loop
    vertex 106.200142882218 77.5142108412471 36.9920000062616
    vertex 106.200142776609 79.4121293132292 28.8020815340164
    vertex 106.200142779752 79.7642108412464 29.0722431924328
  endloop
endfacet
facet normal 1.0 -6.29393539777732e-010 -1.23797137463829e-008
  outer loop
    vertex 106.200142882218 77.5142108412471 36.9920000062616
    vertex 106.200142779752 79.7642108412464 29.0722431924328
    vertex 106.200142781426 80.1742184645721 29.2420739106907
  endloop
endfacet
facet normal 1.0 -6.29393539777732e-010 -1.23797137463829e-008
  outer loop
    vertex 106.200142882218 77.5142108412471 36.9920000062616
    vertex 106.200142781426 80.1742184645721 29.2420739106907
    vertex 106.200142781517 80.6142108412464 29.3000000059993
  endloop
endfacet
facet normal 1.0 -6.29393539777732e-010 -1.23797137463829e-008
  outer loop
    vertex 106.200142882218 77.5142108412471 36.9920000062616
    vertex 106.200142781517 80.6142108412464 29.3000000059993
    vertex 106.200142888493 83.7142108417356 36.9920000060578
  endloop
endfacet
facet normal 1.48880404836294e-009 -1.0 -1.05601665564294e-011
  outer loop
    vertex 105.400142885866 77.5142108394462 37.00000001724
    vertex 105.400142777731 77.5142108394462 27.60000001724
    vertex 106.200142882218 77.5142108412471 36.9920000062616
  endloop
endfacet
facet normal 1.48880404836294e-009 -1.0 -1.05601665564294e-011
  outer loop
    vertex 106.200142729943 77.5142108412471 24.5000000062594
    vertex 105.400142777731 77.5142108394462 27.60000001724
    vertex 99.6001427395684 77.5142108312313 24.5000000958933
  endloop
endfacet
facet normal 1.48880404836294e-009 -1.0 -1.05601665564294e-011
  outer loop
    vertex 105.400142777731 77.5142108394462 27.60000001724
    vertex 106.200142729943 77.5142108412471 24.5000000062594
    vertex 106.200142882218 77.5142108412471 36.9920000062616
  endloop
endfacet
facet normal 1.48880404836294e-009 -1.0 -1.05601665564294e-011
  outer loop
    vertex 99.6001427395684 77.5142108312313 24.5000000958933
    vertex 105.400142777731 77.5142108394462 27.60000001724
    vertex 99.6001427787613 77.5142108312313 27.6000000958757
  endloop
endfacet
facet normal -1.35624720722728e-008 1.3260835606657e-011 -1.0
  outer loop
    vertex 99.6001427395684 77.5142108312313 24.5000000958933
    vertex 106.200142731473 83.7142108417356 24.5000000064632
    vertex 106.200142729943 77.5142108412471 24.5000000062594
  endloop
endfacet
facet normal -1.35624720722728e-008 1.3260835606657e-011 -1.0
  outer loop
    vertex 106.200142731473 83.7142108417356 24.5000000064632
    vertex 99.6001427395684 77.5142108312313 24.5000000958933
    vertex 99.6001427325029 83.7142108312313 24.500000095854
  endloop
endfacet
endsolid Remix of isaac879 Pan Tilt Camera Mount
