solid Remix of isaac879 Pan Tilt Camera Mount
facet normal 0.444144962979648 0.116945577325683 0.888289921030161
  outer loop
    vertex 157.499999723943 54.4999999999998 34.5000000000006
    vertex 159.499999739214 55.22469328414 33.4045923136098
    vertex 157.499999744669 55.4835123713894 34.370518139899
  endloop
endfacet
facet normal 0.444144962979648 0.116945577325683 0.888289921030161
  outer loop
    vertex 159.499999739214 55.22469328414 33.4045923136098
    vertex 157.499999723943 54.4999999999998 34.5000000000006
    vertex 159.499999723943 54.499999957853 33.5000000000004
  endloop
endfacet
facet normal 0.444144958050769 -0.11694559604496 0.888289921030161
  outer loop
    vertex 157.499999703217 53.5164876286102 34.370518139899
    vertex 159.499999723943 54.499999957853 33.5000000000004
    vertex 157.499999723943 54.4999999999998 34.5000000000006
  endloop
endfacet
facet normal 0.444144958050769 -0.11694559604496 0.888289921030161
  outer loop
    vertex 159.499999723943 54.499999957853 33.5000000000004
    vertex 157.499999703217 53.5164876286102 34.370518139899
    vertex 159.499999708671 53.7753066315659 33.4045923136098
  endloop
endfacet
facet normal 0.444144953289622 -0.342867120944777 -0.82775443088056
  outer loop
    vertex 159.499999694439 53.099999957853 28.2751288694039
    vertex 157.499999703216 53.5164876286102 27.0294818601021
    vertex 159.49999970867 53.7753066315659 27.9954076863909
  endloop
endfacet
facet normal 0.444144953289622 -0.342867120944777 -0.82775443088056
  outer loop
    vertex 157.499999703216 53.5164876286102 27.0294818601021
    vertex 159.499999694439 53.099999957853 28.2751288694039
    vertex 157.499999683902 52.5999999999998 27.4091034656197
  endloop
endfacet
facet normal 0.444144967740389 0.342867102225487 -0.827754430880552
  outer loop
    vertex 159.499999753445 55.899999957853 28.275128869404
    vertex 157.499999744668 55.4835123713894 27.0294818601021
    vertex 157.499999763981 56.3999999999998 27.4091034656197
  endloop
endfacet
facet normal 0.444144967740389 0.342867102225487 -0.827754430880552
  outer loop
    vertex 157.499999744668 55.4835123713894 27.0294818601021
    vertex 159.499999753445 55.899999957853 28.275128869404
    vertex 159.499999739214 55.22469328414 27.9954076863909
  endloop
endfacet
facet normal 0.444144949021269 -0.545422818804736 0.710808844195112
  outer loop
    vertex 157.499999683903 52.5999999999998 33.9908965343815
    vertex 159.499999682219 52.5201009705307 32.6798989873227
    vertex 159.49999969444 53.099999957853 33.1248711305968
  endloop
endfacet
facet normal 0.444144949021269 -0.545422818804736 0.710808844195112
  outer loop
    vertex 159.499999682219 52.5201009705307 32.6798989873227
    vertex 157.499999683903 52.5999999999998 33.9908965343815
    vertex 157.499999667319 51.812994231491 33.3870057685095
  endloop
endfacet
facet normal 0.444144953289821 -0.342867120944799 0.827754430880444
  outer loop
    vertex 157.499999703217 53.5164876286102 34.370518139899
    vertex 159.49999969444 53.099999957853 33.1248711305968
    vertex 159.499999708671 53.7753066315659 33.4045923136098
  endloop
endfacet
facet normal 0.444144953289821 -0.342867120944799 0.827754430880444
  outer loop
    vertex 159.49999969444 53.099999957853 33.1248711305968
    vertex 157.499999703217 53.5164876286102 34.370518139899
    vertex 157.499999683903 52.5999999999998 33.9908965343815
  endloop
endfacet
facet normal 0.444144962979437 0.116945577325681 -0.888289921030267
  outer loop
    vertex 159.499999739214 55.22469328414 27.9954076863909
    vertex 157.499999723942 54.4999999999998 26.9000000000006
    vertex 157.499999744668 55.4835123713894 27.0294818601021
  endloop
endfacet
facet normal 0.444144962979437 0.116945577325681 -0.888289921030267
  outer loop
    vertex 157.499999723942 54.4999999999998 26.9000000000006
    vertex 159.499999739214 55.22469328414 27.9954076863909
    vertex 159.499999723942 54.499999957853 27.9000000000003
  endloop
endfacet
facet normal 0.444144958050553 -0.116945596044988 -0.888289921030265
  outer loop
    vertex 159.49999970867 53.7753066315659 27.9954076863909
    vertex 157.499999723942 54.4999999999998 26.9000000000006
    vertex 159.499999723942 54.499999957853 27.9000000000003
  endloop
endfacet
facet normal 0.444144958050553 -0.116945596044988 -0.888289921030265
  outer loop
    vertex 157.499999723942 54.4999999999998 26.9000000000006
    vertex 159.49999970867 53.7753066315659 27.9954076863909
    vertex 157.499999703216 53.5164876286102 27.0294818601021
  endloop
endfacet
facet normal 0.444144972008955 0.545422800085416 -0.710808844195224
  outer loop
    vertex 159.499999765665 56.4798989451753 28.7201010126781
    vertex 157.499999763981 56.3999999999998 27.4091034656197
    vertex 157.499999780567 57.1870057685087 28.0129942314917
  endloop
endfacet
facet normal 0.444144972008955 0.545422800085416 -0.710808844195224
  outer loop
    vertex 157.499999763981 56.3999999999998 27.4091034656197
    vertex 159.499999765665 56.4798989451753 28.7201010126781
    vertex 159.499999753445 55.899999957853 28.275128869404
  endloop
endfacet
facet normal 0.444144979234424 0.888289911670558 0.116945586685287
  outer loop
    vertex 159.499999780937 57.2045922714624 31.4246933262875
    vertex 157.499999804021 58.2999999999998 30.7000000000006
    vertex 157.499999801293 58.1705181398983 31.6835123713902
  endloop
endfacet
facet normal 0.444144979234424 0.888289911670558 0.116945586685287
  outer loop
    vertex 157.499999804021 58.2999999999998 30.7000000000006
    vertex 159.499999780937 57.2045922714624 31.4246933262875
    vertex 159.499999782948 57.299999957853 30.7000000000004
  endloop
endfacet
facet normal 0.444144945536002 -0.710808853554812 0.545422809445035
  outer loop
    vertex 157.499999654593 51.209103465619 32.6000000000005
    vertex 159.499999682219 52.5201009705307 32.6798989873227
    vertex 157.499999667319 51.812994231491 33.3870057685095
  endloop
endfacet
facet normal 0.444144945536002 -0.710808853554812 0.545422809445035
  outer loop
    vertex 159.499999682219 52.5201009705307 32.6798989873227
    vertex 157.499999654593 51.209103465619 32.6000000000005
    vertex 159.499999672842 52.0751288272566 32.1000000000004
  endloop
endfacet
facet normal 0.4441449490211 -0.545422818804753 -0.710808844195204
  outer loop
    vertex 159.499999682219 52.5201009705307 28.7201010126781
    vertex 157.499999683902 52.5999999999998 27.4091034656197
    vertex 159.499999694439 53.099999957853 28.2751288694039
  endloop
endfacet
facet normal 0.4441449490211 -0.545422818804753 -0.710808844195204
  outer loop
    vertex 157.499999683902 52.5999999999998 27.4091034656197
    vertex 159.499999682219 52.5201009705307 28.7201010126781
    vertex 157.499999667318 51.8129942314909 28.0129942314917
  endloop
endfacet
facet normal 0.444144975494218 0.71080883483551 -0.545422809445136
  outer loop
    vertex 159.499999775042 56.9248710884494 29.3000000000004
    vertex 157.499999780567 57.1870057685087 28.0129942314917
    vertex 157.499999793293 57.7908965343807 28.8000000000005
  endloop
endfacet
facet normal 0.444144975494218 0.71080883483551 -0.545422809445136
  outer loop
    vertex 157.499999780567 57.1870057685087 28.0129942314917
    vertex 159.499999775042 56.9248710884494 29.3000000000004
    vertex 159.499999765665 56.4798989451753 28.7201010126781
  endloop
endfacet
facet normal 0.444144945535864 -0.710808853554812 -0.545422809445148
  outer loop
    vertex 157.499999667318 51.8129942314909 28.0129942314917
    vertex 159.499999672842 52.0751288272566 29.3000000000003
    vertex 157.499999654592 51.209103465619 28.8000000000006
  endloop
endfacet
facet normal 0.444144945535864 -0.710808853554812 -0.545422809445148
  outer loop
    vertex 159.499999672842 52.0751288272566 29.3000000000003
    vertex 157.499999667318 51.8129942314909 28.0129942314917
    vertex 159.499999682219 52.5201009705307 28.7201010126781
  endloop
endfacet
facet normal 0.444144977958762 0.827754421520849 0.342867111585079
  outer loop
    vertex 157.499999793293 57.7908965343807 32.6000000000005
    vertex 159.499999780937 57.2045922714624 31.4246933262875
    vertex 157.499999801293 58.1705181398983 31.6835123713902
  endloop
endfacet
facet normal 0.444144977958762 0.827754421520849 0.342867111585079
  outer loop
    vertex 159.499999780937 57.2045922714624 31.4246933262875
    vertex 157.499999793293 57.7908965343807 32.6000000000005
    vertex 159.499999775043 56.9248710884494 32.1000000000004
  endloop
endfacet
facet normal 0.444144972009113 0.545422800085444 0.710808844195103
  outer loop
    vertex 157.499999763982 56.3999999999998 33.9908965343815
    vertex 159.499999765666 56.4798989451753 32.6798989873227
    vertex 157.499999780567 57.1870057685087 33.3870057685095
  endloop
endfacet
facet normal 0.444144972009113 0.545422800085444 0.710808844195103
  outer loop
    vertex 159.499999765666 56.4798989451753 32.6798989873227
    vertex 157.499999763982 56.3999999999998 33.9908965343815
    vertex 159.499999753446 55.899999957853 33.1248711305968
  endloop
endfacet
facet normal 0.444144979234397 0.888289911670559 -0.116945586685382
  outer loop
    vertex 157.499999804021 58.2999999999998 30.7000000000006
    vertex 159.499999780937 57.2045922714624 29.9753066737134
    vertex 157.499999801293 58.1705181398983 29.716487628611
  endloop
endfacet
facet normal 0.444144979234397 0.888289911670559 -0.116945586685382
  outer loop
    vertex 159.499999780937 57.2045922714624 29.9753066737134
    vertex 157.499999804021 58.2999999999998 30.7000000000006
    vertex 159.499999782948 57.299999957853 30.7000000000004
  endloop
endfacet
facet normal 0.444144975494342 0.710808834835517 0.545422809445025
  outer loop
    vertex 159.499999765666 56.4798989451753 32.6798989873227
    vertex 157.499999793293 57.7908965343807 32.6000000000005
    vertex 157.499999780567 57.1870057685087 33.3870057685095
  endloop
endfacet
facet normal 0.444144975494342 0.710808834835517 0.545422809445025
  outer loop
    vertex 157.499999793293 57.7908965343807 32.6000000000005
    vertex 159.499999765666 56.4798989451753 32.6798989873227
    vertex 159.499999775043 56.9248710884494 32.1000000000004
  endloop
endfacet
facet normal 0.444144977958679 0.827754421520851 -0.342867111585181
  outer loop
    vertex 159.499999780937 57.2045922714624 29.9753066737134
    vertex 157.499999793293 57.7908965343807 28.8000000000005
    vertex 157.499999801293 58.1705181398983 29.716487628611
  endloop
endfacet
facet normal 0.444144977958679 0.827754421520851 -0.342867111585181
  outer loop
    vertex 157.499999793293 57.7908965343807 28.8000000000005
    vertex 159.499999780937 57.2045922714624 29.9753066737134
    vertex 159.499999775042 56.9248710884494 29.3000000000004
  endloop
endfacet
facet normal 0.44414496774058 0.34286710222547 0.827754430880456
  outer loop
    vertex 157.499999744669 55.4835123713894 34.370518139899
    vertex 159.499999753446 55.899999957853 33.1248711305968
    vertex 157.499999763982 56.3999999999998 33.9908965343815
  endloop
endfacet
facet normal 0.44414496774058 0.34286710222547 0.827754430880456
  outer loop
    vertex 159.499999753446 55.899999957853 33.1248711305968
    vertex 157.499999744669 55.4835123713894 34.370518139899
    vertex 159.499999739214 55.22469328414 33.4045923136098
  endloop
endfacet
facet normal -1.0 2.10734188532632e-008 1.14156247096726e-013
  outer loop
    vertex 157.099999633519 50.2091034740483 32.6000000000007
    vertex 157.099999654592 51.2091034740483 28.8000000000007
    vertex 157.099999633518 50.2091034740483 28.8000000000007
  endloop
endfacet
facet normal -1.0 2.10734188532632e-008 1.14156247096726e-013
  outer loop
    vertex 157.099999654592 51.2091034740483 28.8000000000007
    vertex 157.099999633519 50.2091034740483 32.6000000000007
    vertex 157.099999801293 58.1705181483276 29.7164876286111
  endloop
endfacet
facet normal -1.0 2.10734188532632e-008 1.14156247096726e-013
  outer loop
    vertex 157.099999801293 58.1705181483276 29.7164876286111
    vertex 157.099999633519 50.2091034740483 32.6000000000007
    vertex 157.099999804021 58.3000000084292 30.7000000000007
  endloop
endfacet
facet normal -1.0 2.10734188532632e-008 1.14156247096726e-013
  outer loop
    vertex 157.099999804021 58.3000000084292 30.7000000000007
    vertex 157.099999633519 50.2091034740483 32.6000000000007
    vertex 157.099999801293 58.1705181483276 31.6835123713903
  endloop
endfacet
facet normal -1.0 2.10734188532632e-008 1.14156247096726e-013
  outer loop
    vertex 157.099999801293 58.1705181483276 31.6835123713903
    vertex 157.099999633519 50.2091034740483 32.6000000000007
    vertex 157.099999793293 57.7908965428101 32.6000000000007
  endloop
endfacet
facet normal -1.0 2.10734188532632e-008 1.14156247096726e-013
  outer loop
    vertex 157.099999793293 57.7908965428101 32.6000000000007
    vertex 157.099999633519 50.2091034740483 32.6000000000007
    vertex 157.099999654592 51.2091034740483 32.6000000000007
  endloop
endfacet
facet normal -1.0 2.10734188532632e-008 1.14156247096726e-013
  outer loop
    vertex 157.099999793293 57.7908965428101 32.6000000000007
    vertex 157.099999654592 51.2091034740483 32.6000000000007
    vertex 157.099999667319 51.8129942399203 33.3870057685096
  endloop
endfacet
facet normal -1.0 2.10734188532632e-008 1.14156247096726e-013
  outer loop
    vertex 157.099999793293 57.7908965428101 32.6000000000007
    vertex 157.099999667319 51.8129942399203 33.3870057685096
    vertex 157.099999780567 57.1870057769381 33.3870057685095
  endloop
endfacet
facet normal -1.0 2.10734188532632e-008 1.14156247096726e-013
  outer loop
    vertex 157.099999780567 57.1870057769381 33.3870057685095
    vertex 157.099999667319 51.8129942399203 33.3870057685096
    vertex 157.099999763982 56.4000000084292 33.9908965343815
  endloop
endfacet
facet normal -1.0 2.10734188532632e-008 1.14156247096726e-013
  outer loop
    vertex 157.099999763982 56.4000000084292 33.9908965343815
    vertex 157.099999667319 51.8129942399203 33.3870057685096
    vertex 157.099999683903 52.6000000084292 33.9908965343815
  endloop
endfacet
facet normal -1.0 2.10734188532632e-008 1.14156247096726e-013
  outer loop
    vertex 157.099999763982 56.4000000084292 33.9908965343815
    vertex 157.099999683903 52.6000000084292 33.9908965343815
    vertex 157.099999703217 53.5164876370396 34.3705181398992
  endloop
endfacet
facet normal -1.0 2.10734188532632e-008 1.14156247096726e-013
  outer loop
    vertex 157.099999763982 56.4000000084292 33.9908965343815
    vertex 157.099999703217 53.5164876370396 34.3705181398992
    vertex 157.099999744669 55.4835123798188 34.3705181398991
  endloop
endfacet
facet normal -1.0 2.10734188532632e-008 1.14156247096726e-013
  outer loop
    vertex 157.099999744669 55.4835123798188 34.3705181398991
    vertex 157.099999703217 53.5164876370396 34.3705181398992
    vertex 157.099999723942 54.5000000084292 34.5000000000007
  endloop
endfacet
facet normal -1.0 2.10734188532632e-008 1.14156247096726e-013
  outer loop
    vertex 157.099999703216 53.5164876370396 27.0294818601022
    vertex 157.099999744668 55.4835123798188 27.0294818601022
    vertex 157.099999723942 54.5000000084292 26.9000000000006
  endloop
endfacet
facet normal -1.0 2.10734188532632e-008 1.14156247096726e-013
  outer loop
    vertex 157.099999744668 55.4835123798188 27.0294818601022
    vertex 157.099999703216 53.5164876370396 27.0294818601022
    vertex 157.099999683903 52.6000000084292 27.4091034656197
  endloop
endfacet
facet normal -1.0 2.10734188532632e-008 1.14156247096726e-013
  outer loop
    vertex 157.099999744668 55.4835123798188 27.0294818601022
    vertex 157.099999683903 52.6000000084292 27.4091034656197
    vertex 157.099999763982 56.4000000084292 27.4091034656197
  endloop
endfacet
facet normal -1.0 2.10734188532632e-008 1.14156247096726e-013
  outer loop
    vertex 157.099999763982 56.4000000084292 27.4091034656197
    vertex 157.099999683903 52.6000000084292 27.4091034656197
    vertex 157.099999667318 51.8129942399203 28.0129942314919
  endloop
endfacet
facet normal -1.0 2.10734188532632e-008 1.14156247096726e-013
  outer loop
    vertex 157.099999763982 56.4000000084292 27.4091034656197
    vertex 157.099999667318 51.8129942399203 28.0129942314919
    vertex 157.099999780567 57.187005776938 28.0129942314918
  endloop
endfacet
facet normal -1.0 2.10734188532632e-008 1.14156247096726e-013
  outer loop
    vertex 157.099999780567 57.187005776938 28.0129942314918
    vertex 157.099999667318 51.8129942399203 28.0129942314919
    vertex 157.099999793293 57.7908965428101 28.8000000000007
  endloop
endfacet
facet normal -1.0 2.10734188532632e-008 1.14156247096726e-013
  outer loop
    vertex 157.099999793293 57.7908965428101 28.8000000000007
    vertex 157.099999667318 51.8129942399203 28.0129942314919
    vertex 157.099999654592 51.2091034740483 28.8000000000007
  endloop
endfacet
facet normal -1.0 2.10734188532632e-008 1.14156247096726e-013
  outer loop
    vertex 157.099999793293 57.7908965428101 28.8000000000007
    vertex 157.099999654592 51.2091034740483 28.8000000000007
    vertex 157.099999801293 58.1705181483276 29.7164876286111
  endloop
endfacet
facet normal 1.0 -2.10734262336023e-008 -9.95704361165538e-014
  outer loop
    vertex 161.499999782948 57.2999999157062 30.7000000000001
    vertex 161.499999771358 56.7499999157061 30.2
    vertex 161.499999780937 57.2045922293156 29.975306673713
  endloop
endfacet
facet normal 1.0 -2.10734262336023e-008 -9.95704361165538e-014
  outer loop
    vertex 161.499999771358 56.7499999157061 30.2
    vertex 161.499999782948 57.2999999157062 30.7000000000001
    vertex 161.499999771358 56.7499999157061 31.2
  endloop
endfacet
facet normal 1.0 -2.10734262336023e-008 -9.95704361165538e-014
  outer loop
    vertex 161.499999771358 56.7499999157061 31.2
    vertex 161.499999782948 57.2999999157062 30.7000000000001
    vertex 161.499999780937 57.2045922293156 31.4246933262871
  endloop
endfacet
facet normal 1.0 -2.10734262336023e-008 -9.95704361165538e-014
  outer loop
    vertex 161.499999771358 56.7499999157061 31.2
    vertex 161.499999780937 57.2045922293156 31.4246933262871
    vertex 161.499999716866 54.1642134780792 31.2
  endloop
endfacet
facet normal 1.0 -2.10734262336023e-008 -9.95704361165538e-014
  outer loop
    vertex 161.499999716866 54.1642134780792 31.2
    vertex 161.499999780937 57.2045922293156 31.4246933262871
    vertex 161.499999733575 54.9571066968927 31.9928932188134
  endloop
endfacet
facet normal 1.0 -2.10734262336023e-008 -9.95704361165538e-014
  outer loop
    vertex 161.499999733575 54.9571066968927 31.9928932188134
    vertex 161.499999780937 57.2045922293156 31.4246933262871
    vertex 161.499999775043 56.9248710463026 32.1000000000001
  endloop
endfacet
facet normal 1.0 -2.10734262336023e-008 -9.95704361165538e-014
  outer loop
    vertex 161.499999733575 54.9571066968927 31.9928932188134
    vertex 161.499999775043 56.9248710463026 32.1000000000001
    vertex 161.499999718674 54.2499999157062 32.7
  endloop
endfacet
facet normal 1.0 -2.10734262336023e-008 -9.95704361165538e-014
  outer loop
    vertex 161.499999718674 54.2499999157062 32.7
    vertex 161.499999775043 56.9248710463026 32.1000000000001
    vertex 161.499999765666 56.4798989030285 32.6798989873224
  endloop
endfacet
facet normal 1.0 -2.10734262336023e-008 -9.95704361165538e-014
  outer loop
    vertex 161.499999718674 54.2499999157062 32.7
    vertex 161.499999765666 56.4798989030285 32.6798989873224
    vertex 161.499999753445 55.8999999157061 33.1248711305965
  endloop
endfacet
facet normal 1.0 -2.10734262336023e-008 -9.95704361165538e-014
  outer loop
    vertex 161.499999718674 54.2499999157062 32.7
    vertex 161.499999672842 52.0751287851097 32.1000000000001
    vertex 161.499999676527 52.2499999157062 30.7000000000001
  endloop
endfacet
facet normal 1.0 -2.10734262336023e-008 -9.95704361165538e-014
  outer loop
    vertex 161.499999672842 52.0751287851097 32.1000000000001
    vertex 161.499999718674 54.2499999157062 32.7
    vertex 161.499999682219 52.5201009283838 32.6798989873224
  endloop
endfacet
facet normal 1.0 -2.10734262336023e-008 -9.95704361165538e-014
  outer loop
    vertex 161.499999682219 52.5201009283838 32.6798989873224
    vertex 161.499999718674 54.2499999157062 32.7
    vertex 161.49999969444 53.0999999157062 33.1248711305965
  endloop
endfacet
facet normal 1.0 -2.10734262336023e-008 -9.95704361165538e-014
  outer loop
    vertex 161.49999969444 53.0999999157062 33.1248711305965
    vertex 161.499999718674 54.2499999157062 32.7
    vertex 161.499999753445 55.8999999157061 33.1248711305965
  endloop
endfacet
facet normal 1.0 -2.10734262336023e-008 -9.95704361165538e-014
  outer loop
    vertex 161.49999969444 53.0999999157062 33.1248711305965
    vertex 161.499999753445 55.8999999157061 33.1248711305965
    vertex 161.499999739214 55.2246932419932 33.4045923136095
  endloop
endfacet
facet normal 1.0 -2.10734262336023e-008 -9.95704361165538e-014
  outer loop
    vertex 161.49999969444 53.0999999157062 33.1248711305965
    vertex 161.499999739214 55.2246932419932 33.4045923136095
    vertex 161.499999708671 53.7753065894191 33.4045923136095
  endloop
endfacet
facet normal 1.0 -2.10734262336023e-008 -9.95704361165538e-014
  outer loop
    vertex 161.499999708671 53.7753065894191 33.4045923136095
    vertex 161.499999739214 55.2246932419932 33.4045923136095
    vertex 161.499999723942 54.4999999157061 33.5000000000001
  endloop
endfacet
facet normal 1.0 -2.10734262336023e-008 -9.95704361165538e-014
  outer loop
    vertex 161.499999718674 54.2499999157062 28.7
    vertex 161.499999682219 52.5201009283838 28.7201010126778
    vertex 161.499999694439 53.0999999157062 28.2751288694036
  endloop
endfacet
facet normal 1.0 -2.10734262336023e-008 -9.95704361165538e-014
  outer loop
    vertex 161.499999682219 52.5201009283838 28.7201010126778
    vertex 161.499999718674 54.2499999157062 28.7
    vertex 161.499999676527 52.2499999157062 30.7000000000001
  endloop
endfacet
facet normal 1.0 -2.10734262336023e-008 -9.95704361165538e-014
  outer loop
    vertex 161.499999682219 52.5201009283838 28.7201010126778
    vertex 161.499999676527 52.2499999157062 30.7000000000001
    vertex 161.499999672842 52.0751287851097 29.3000000000001
  endloop
endfacet
facet normal 1.0 -2.10734262336023e-008 -9.95704361165538e-014
  outer loop
    vertex 161.499999672842 52.0751287851097 29.3000000000001
    vertex 161.499999676527 52.2499999157062 30.7000000000001
    vertex 161.499999651768 51.0751287851097 29.3000000000001
  endloop
endfacet
facet normal 1.0 -2.10734262336023e-008 -9.95704361165538e-014
  outer loop
    vertex 161.499999651768 51.0751287851097 29.3000000000001
    vertex 161.499999676527 52.2499999157062 30.7000000000001
    vertex 161.499999651769 51.0751287851097 32.1000000000001
  endloop
endfacet
facet normal 1.0 -2.10734262336023e-008 -9.95704361165538e-014
  outer loop
    vertex 161.499999651769 51.0751287851097 32.1000000000001
    vertex 161.499999676527 52.2499999157062 30.7000000000001
    vertex 161.499999672842 52.0751287851097 32.1000000000001
  endloop
endfacet
facet normal 1.0 -2.10734262336023e-008 -9.95704361165538e-014
  outer loop
    vertex 161.499999739214 55.2246932419932 27.9954076863907
    vertex 161.49999970867 53.7753065894191 27.9954076863907
    vertex 161.499999723942 54.4999999157061 27.9000000000001
  endloop
endfacet
facet normal 1.0 -2.10734262336023e-008 -9.95704361165538e-014
  outer loop
    vertex 161.49999970867 53.7753065894191 27.9954076863907
    vertex 161.499999739214 55.2246932419932 27.9954076863907
    vertex 161.499999753445 55.8999999157061 28.2751288694036
  endloop
endfacet
facet normal 1.0 -2.10734262336023e-008 -9.95704361165538e-014
  outer loop
    vertex 161.49999970867 53.7753065894191 27.9954076863907
    vertex 161.499999753445 55.8999999157061 28.2751288694036
    vertex 161.499999694439 53.0999999157062 28.2751288694036
  endloop
endfacet
facet normal 1.0 -2.10734262336023e-008 -9.95704361165538e-014
  outer loop
    vertex 161.499999694439 53.0999999157062 28.2751288694036
    vertex 161.499999753445 55.8999999157061 28.2751288694036
    vertex 161.499999765665 56.4798989030285 28.7201010126778
  endloop
endfacet
facet normal 1.0 -2.10734262336023e-008 -9.95704361165538e-014
  outer loop
    vertex 161.499999694439 53.0999999157062 28.2751288694036
    vertex 161.499999765665 56.4798989030285 28.7201010126778
    vertex 161.499999718674 54.2499999157062 28.7
  endloop
endfacet
facet normal 1.0 -2.10734262336023e-008 -9.95704361165538e-014
  outer loop
    vertex 161.499999718674 54.2499999157062 28.7
    vertex 161.499999765665 56.4798989030285 28.7201010126778
    vertex 161.499999733575 54.9571066968927 29.4071067811867
  endloop
endfacet
facet normal 1.0 -2.10734262336023e-008 -9.95704361165538e-014
  outer loop
    vertex 161.499999733575 54.9571066968927 29.4071067811867
    vertex 161.499999765665 56.4798989030285 28.7201010126778
    vertex 161.499999775042 56.9248710463026 29.3000000000001
  endloop
endfacet
facet normal 1.0 -2.10734262336023e-008 -9.95704361165538e-014
  outer loop
    vertex 161.499999733575 54.9571066968927 29.4071067811867
    vertex 161.499999775042 56.9248710463026 29.3000000000001
    vertex 161.499999780937 57.2045922293156 29.975306673713
  endloop
endfacet
facet normal 1.0 -2.10734262336023e-008 -9.95704361165538e-014
  outer loop
    vertex 161.499999733575 54.9571066968927 29.4071067811867
    vertex 161.499999780937 57.2045922293156 29.975306673713
    vertex 161.499999716866 54.1642134780792 30.2
  endloop
endfacet
facet normal 1.0 -2.10734262336023e-008 -9.95704361165538e-014
  outer loop
    vertex 161.499999716866 54.1642134780792 30.2
    vertex 161.499999780937 57.2045922293156 29.975306673713
    vertex 161.499999771358 56.7499999157061 30.2
  endloop
endfacet
facet normal 2.75051554953536e-009 0.130526192220026 -0.991444861373814
  outer loop
    vertex 161.499999723942 54.4999999157061 27.9000000000001
    vertex 159.499999739214 55.22469328414 27.9954076863909
    vertex 161.499999739214 55.2246932419932 27.9954076863907
  endloop
endfacet
facet normal 2.75051554953536e-009 0.130526192220026 -0.991444861373814
  outer loop
    vertex 159.499999739214 55.22469328414 27.9954076863909
    vertex 161.499999723942 54.4999999157061 27.9000000000001
    vertex 159.499999723942 54.499999957853 27.9000000000003
  endloop
endfacet
facet normal 8.06432833452803e-009 0.382683432365127 -0.923879532511271
  outer loop
    vertex 161.499999739214 55.2246932419932 27.9954076863907
    vertex 159.499999753445 55.899999957853 28.275128869404
    vertex 161.499999753445 55.8999999157061 28.2751288694036
  endloop
endfacet
facet normal 8.06432833452803e-009 0.382683432365127 -0.923879532511271
  outer loop
    vertex 159.499999753445 55.899999957853 28.275128869404
    vertex 161.499999739214 55.2246932419932 27.9954076863907
    vertex 159.499999739214 55.22469328414 27.9954076863909
  endloop
endfacet
facet normal 1.28285815959335e-008 0.608761429008736 -0.793353340291223
  outer loop
    vertex 161.499999753445 55.8999999157061 28.2751288694036
    vertex 159.499999765665 56.4798989451753 28.7201010126781
    vertex 161.499999765665 56.4798989030285 28.7201010126778
  endloop
endfacet
facet normal 1.28285815959335e-008 0.608761429008736 -0.793353340291223
  outer loop
    vertex 159.499999765665 56.4798989451753 28.7201010126781
    vertex 161.499999753445 55.8999999157061 28.2751288694036
    vertex 159.499999753445 55.899999957853 28.275128869404
  endloop
endfacet
facet normal 1.67185950471314e-008 0.793353340291208 -0.608761429008756
  outer loop
    vertex 159.499999775042 56.9248710884494 29.3000000000004
    vertex 161.499999765665 56.4798989030285 28.7201010126778
    vertex 159.499999765665 56.4798989451753 28.7201010126781
  endloop
endfacet
facet normal 1.67185950471314e-008 0.793353340291208 -0.608761429008756
  outer loop
    vertex 161.499999765665 56.4798989030285 28.7201010126778
    vertex 159.499999775042 56.9248710884494 29.3000000000004
    vertex 161.499999775042 56.9248710463026 29.3000000000001
  endloop
endfacet
facet normal 1.94692550123145e-008 0.923879532511282 -0.3826834323651
  outer loop
    vertex 161.499999780937 57.2045922293156 29.975306673713
    vertex 159.499999775042 56.9248710884494 29.3000000000004
    vertex 159.499999780937 57.2045922714624 29.9753066737134
  endloop
endfacet
facet normal 1.94692550123145e-008 0.923879532511282 -0.3826834323651
  outer loop
    vertex 159.499999775042 56.9248710884494 29.3000000000004
    vertex 161.499999780937 57.2045922293156 29.975306673713
    vertex 161.499999775042 56.9248710463026 29.3000000000001
  endloop
endfacet
facet normal 2.08931159011442e-008 0.991444861373814 -0.130526192220022
  outer loop
    vertex 159.499999782948 57.299999957853 30.7000000000004
    vertex 161.499999780937 57.2045922293156 29.975306673713
    vertex 159.499999780937 57.2045922714624 29.9753066737134
  endloop
endfacet
facet normal 2.08931159011442e-008 0.991444861373814 -0.130526192220022
  outer loop
    vertex 161.499999780937 57.2045922293156 29.975306673713
    vertex 159.499999782948 57.299999957853 30.7000000000004
    vertex 161.499999782948 57.2999999157062 30.7000000000001
  endloop
endfacet
facet normal 2.08931497636911e-008 0.991444861373813 0.13052619222003
  outer loop
    vertex 161.499999780937 57.2045922293156 31.4246933262871
    vertex 159.499999782948 57.299999957853 30.7000000000004
    vertex 159.499999780937 57.2045922714624 31.4246933262875
  endloop
endfacet
facet normal 2.08931497636911e-008 0.991444861373813 0.13052619222003
  outer loop
    vertex 159.499999782948 57.299999957853 30.7000000000004
    vertex 161.499999780937 57.2045922293156 31.4246933262871
    vertex 161.499999782948 57.2999999157062 30.7000000000001
  endloop
endfacet
facet normal 1.9469345686366e-008 0.923879532511282 0.3826834323651
  outer loop
    vertex 159.499999775043 56.9248710884494 32.1000000000004
    vertex 161.499999780937 57.2045922293156 31.4246933262871
    vertex 159.499999780937 57.2045922714624 31.4246933262875
  endloop
endfacet
facet normal 1.9469345686366e-008 0.923879532511282 0.3826834323651
  outer loop
    vertex 161.499999780937 57.2045922293156 31.4246933262871
    vertex 159.499999775043 56.9248710884494 32.1000000000004
    vertex 161.499999775043 56.9248710463026 32.1000000000001
  endloop
endfacet
facet normal 1.67187394835948e-008 0.793353340291208 0.608761429008756
  outer loop
    vertex 159.499999765666 56.4798989451753 32.6798989873227
    vertex 161.499999775043 56.9248710463026 32.1000000000001
    vertex 159.499999775043 56.9248710884494 32.1000000000004
  endloop
endfacet
facet normal 1.67187394835948e-008 0.793353340291208 0.608761429008756
  outer loop
    vertex 161.499999775043 56.9248710463026 32.1000000000001
    vertex 159.499999765666 56.4798989451753 32.6798989873227
    vertex 161.499999765666 56.4798989030285 32.6798989873224
  endloop
endfacet
facet normal 1.28287785217694e-008 0.608761429008756 0.793353340291208
  outer loop
    vertex 159.499999753446 55.899999957853 33.1248711305968
    vertex 161.499999765666 56.4798989030285 32.6798989873224
    vertex 159.499999765666 56.4798989451753 32.6798989873227
  endloop
endfacet
facet normal 1.28287785217694e-008 0.608761429008756 0.793353340291208
  outer loop
    vertex 161.499999765666 56.4798989030285 32.6798989873224
    vertex 159.499999753446 55.899999957853 33.1248711305968
    vertex 161.499999753445 55.8999999157061 33.1248711305965
  endloop
endfacet
facet normal 8.06455783574507e-009 0.382683432365101 0.923879532511282
  outer loop
    vertex 159.499999739214 55.22469328414 33.4045923136098
    vertex 161.499999753445 55.8999999157061 33.1248711305965
    vertex 159.499999753446 55.899999957853 33.1248711305968
  endloop
endfacet
facet normal 8.06455783574507e-009 0.382683432365101 0.923879532511282
  outer loop
    vertex 161.499999753445 55.8999999157061 33.1248711305965
    vertex 159.499999739214 55.22469328414 33.4045923136098
    vertex 161.499999739214 55.2246932419932 33.4045923136095
  endloop
endfacet
facet normal 2.75075068780575e-009 0.130526192220026 0.991444861373814
  outer loop
    vertex 159.499999723943 54.499999957853 33.5000000000004
    vertex 161.499999739214 55.2246932419932 33.4045923136095
    vertex 159.499999739214 55.22469328414 33.4045923136098
  endloop
endfacet
facet normal 2.75075068780575e-009 0.130526192220026 0.991444861373814
  outer loop
    vertex 161.499999739214 55.2246932419932 33.4045923136095
    vertex 159.499999723943 54.499999957853 33.5000000000004
    vertex 161.499999723942 54.4999999157061 33.5000000000001
  endloop
endfacet
facet normal -2.75051554953536e-009 -0.130526192220026 0.991444861373814
  outer loop
    vertex 159.499999708671 53.7753066315659 33.4045923136098
    vertex 161.499999723942 54.4999999157061 33.5000000000001
    vertex 159.499999723943 54.499999957853 33.5000000000004
  endloop
endfacet
facet normal -2.75051554953536e-009 -0.130526192220026 0.991444861373814
  outer loop
    vertex 161.499999723942 54.4999999157061 33.5000000000001
    vertex 159.499999708671 53.7753066315659 33.4045923136098
    vertex 161.499999708671 53.7753065894191 33.4045923136095
  endloop
endfacet
facet normal -8.06433867347939e-009 -0.382683432365101 0.923879532511282
  outer loop
    vertex 159.49999969444 53.099999957853 33.1248711305968
    vertex 161.499999708671 53.7753065894191 33.4045923136095
    vertex 159.499999708671 53.7753066315659 33.4045923136098
  endloop
endfacet
facet normal -8.06433867347939e-009 -0.382683432365101 0.923879532511282
  outer loop
    vertex 161.499999708671 53.7753065894191 33.4045923136095
    vertex 159.49999969444 53.099999957853 33.1248711305968
    vertex 161.49999969444 53.0999999157062 33.1248711305965
  endloop
endfacet
facet normal -1.28285906303738e-008 -0.608761429008756 0.793353340291208
  outer loop
    vertex 159.499999682219 52.5201009705307 32.6798989873227
    vertex 161.49999969444 53.0999999157062 33.1248711305965
    vertex 159.49999969444 53.099999957853 33.1248711305968
  endloop
endfacet
facet normal -1.28285906303738e-008 -0.608761429008756 0.793353340291208
  outer loop
    vertex 161.49999969444 53.0999999157062 33.1248711305965
    vertex 159.499999682219 52.5201009705307 32.6798989873227
    vertex 161.499999682219 52.5201009283838 32.6798989873224
  endloop
endfacet
facet normal -1.67185949777425e-008 -0.793353340291208 0.608761429008756
  outer loop
    vertex 161.499999672842 52.0751287851097 32.1000000000001
    vertex 159.499999682219 52.5201009705307 32.6798989873227
    vertex 159.499999672842 52.0751288272566 32.1000000000004
  endloop
endfacet
facet normal -1.67185949777425e-008 -0.793353340291208 0.608761429008756
  outer loop
    vertex 159.499999682219 52.5201009705307 32.6798989873227
    vertex 161.499999672842 52.0751287851097 32.1000000000001
    vertex 161.499999682219 52.5201009283838 32.6798989873224
  endloop
endfacet
facet normal -1.67187325169451e-008 -0.793353340291197 -0.608761429008771
  outer loop
    vertex 161.499999682219 52.5201009283838 28.7201010126778
    vertex 159.499999672842 52.0751288272566 29.3000000000003
    vertex 159.499999682219 52.5201009705307 28.7201010126781
  endloop
endfacet
facet normal -1.67187325169451e-008 -0.793353340291197 -0.608761429008771
  outer loop
    vertex 159.499999672842 52.0751288272566 29.3000000000003
    vertex 161.499999682219 52.5201009283838 28.7201010126778
    vertex 161.499999672842 52.0751287851097 29.3000000000001
  endloop
endfacet
facet normal -1.28287785078916e-008 -0.608761429008756 -0.793353340291208
  outer loop
    vertex 161.499999682219 52.5201009283838 28.7201010126778
    vertex 159.499999694439 53.099999957853 28.2751288694039
    vertex 161.499999694439 53.0999999157062 28.2751288694036
  endloop
endfacet
facet normal -1.28287785078916e-008 -0.608761429008756 -0.793353340291208
  outer loop
    vertex 159.499999694439 53.099999957853 28.2751288694039
    vertex 161.499999682219 52.5201009283838 28.7201010126778
    vertex 159.499999682219 52.5201009705307 28.7201010126781
  endloop
endfacet
facet normal -8.06455783574507e-009 -0.382683432365101 -0.923879532511282
  outer loop
    vertex 161.499999694439 53.0999999157062 28.2751288694036
    vertex 159.49999970867 53.7753066315659 27.9954076863909
    vertex 161.49999970867 53.7753065894191 27.9954076863907
  endloop
endfacet
facet normal -8.06455783574507e-009 -0.382683432365101 -0.923879532511282
  outer loop
    vertex 159.49999970867 53.7753066315659 27.9954076863909
    vertex 161.499999694439 53.0999999157062 28.2751288694036
    vertex 159.499999694439 53.099999957853 28.2751288694039
  endloop
endfacet
facet normal -2.75075068780575e-009 -0.130526192220026 -0.991444861373814
  outer loop
    vertex 161.49999970867 53.7753065894191 27.9954076863907
    vertex 159.499999723942 54.499999957853 27.9000000000003
    vertex 161.499999723942 54.4999999157061 27.9000000000001
  endloop
endfacet
facet normal -2.75075068780575e-009 -0.130526192220026 -0.991444861373814
  outer loop
    vertex 159.499999723942 54.499999957853 27.9000000000003
    vertex 161.49999970867 53.7753065894191 27.9954076863907
    vertex 159.49999970867 53.7753066315659 27.9954076863909
  endloop
endfacet
facet normal -8.06455249279619e-009 -0.382683432365073 -0.923879532511294
  outer loop
    vertex 157.499999683902 52.5999999999998 27.4091034656197
    vertex 157.099999703216 53.5164876370396 27.0294818601022
    vertex 157.499999703216 53.5164876286102 27.0294818601021
  endloop
endfacet
facet normal -8.06455249279619e-009 -0.382683432365073 -0.923879532511294
  outer loop
    vertex 157.099999703216 53.5164876370396 27.0294818601022
    vertex 157.499999683902 52.5999999999998 27.4091034656197
    vertex 157.099999683903 52.6000000084292 27.4091034656197
  endloop
endfacet
facet normal -2.75052135045042e-009 -0.130526192220014 0.991444861373815
  outer loop
    vertex 157.099999703217 53.5164876370396 34.3705181398992
    vertex 157.499999723943 54.4999999999998 34.5000000000006
    vertex 157.099999723942 54.5000000084292 34.5000000000007
  endloop
endfacet
facet normal -2.75052135045042e-009 -0.130526192220014 0.991444861373815
  outer loop
    vertex 157.499999723943 54.4999999999998 34.5000000000006
    vertex 157.099999703217 53.5164876370396 34.3705181398992
    vertex 157.499999703217 53.5164876286102 34.370518139899
  endloop
endfacet
facet normal 8.06434393316074e-009 0.382683432365089 -0.923879532511287
  outer loop
    vertex 157.499999744668 55.4835123713894 27.0294818601021
    vertex 157.099999763982 56.4000000084292 27.4091034656197
    vertex 157.499999763981 56.3999999999998 27.4091034656197
  endloop
endfacet
facet normal 8.06434393316074e-009 0.382683432365089 -0.923879532511287
  outer loop
    vertex 157.099999763982 56.4000000084292 27.4091034656197
    vertex 157.499999744668 55.4835123713894 27.0294818601021
    vertex 157.099999744668 55.4835123798188 27.0294818601022
  endloop
endfacet
facet normal -1.67187358892487e-008 -0.79335334029125 -0.608761429008701
  outer loop
    vertex 157.099999667318 51.8129942399203 28.0129942314919
    vertex 157.499999654592 51.209103465619 28.8000000000006
    vertex 157.099999654592 51.2091034740483 28.8000000000007
  endloop
endfacet
facet normal -1.67187358892487e-008 -0.79335334029125 -0.608761429008701
  outer loop
    vertex 157.499999654592 51.209103465619 28.8000000000006
    vertex 157.099999667318 51.8129942399203 28.0129942314919
    vertex 157.499999667318 51.8129942314909 28.0129942314917
  endloop
endfacet
facet normal -1.28285950435092e-008 -0.608761429008701 0.79335334029125
  outer loop
    vertex 157.099999667319 51.8129942399203 33.3870057685096
    vertex 157.499999683903 52.5999999999998 33.9908965343815
    vertex 157.099999683903 52.6000000084292 33.9908965343815
  endloop
endfacet
facet normal -1.28285950435092e-008 -0.608761429008701 0.79335334029125
  outer loop
    vertex 157.499999683903 52.5999999999998 33.9908965343815
    vertex 157.099999667319 51.8129942399203 33.3870057685096
    vertex 157.499999667319 51.812994231491 33.3870057685095
  endloop
endfacet
facet normal 1.94693435908201e-008 0.923879532511287 0.382683432365089
  outer loop
    vertex 157.099999793293 57.7908965428101 32.6000000000007
    vertex 157.499999801293 58.1705181398983 31.6835123713902
    vertex 157.099999801293 58.1705181483276 31.6835123713903
  endloop
endfacet
facet normal 1.94693435908201e-008 0.923879532511287 0.382683432365089
  outer loop
    vertex 157.499999801293 58.1705181398983 31.6835123713902
    vertex 157.099999793293 57.7908965428101 32.6000000000007
    vertex 157.499999793293 57.7908965343807 32.6000000000005
  endloop
endfacet
facet normal 2.08931180799568e-008 0.991444861373809 -0.130526192220059
  outer loop
    vertex 157.099999804021 58.3000000084292 30.7000000000007
    vertex 157.499999801293 58.1705181398983 29.716487628611
    vertex 157.099999801293 58.1705181483276 29.7164876286111
  endloop
endfacet
facet normal 2.08931180799568e-008 0.991444861373809 -0.130526192220059
  outer loop
    vertex 157.499999801293 58.1705181398983 29.716487628611
    vertex 157.099999804021 58.3000000084292 30.7000000000007
    vertex 157.499999804021 58.2999999999998 30.7000000000006
  endloop
endfacet
facet normal -8.06434393316155e-009 -0.382683432365128 0.923879532511271
  outer loop
    vertex 157.099999683903 52.6000000084292 33.9908965343815
    vertex 157.499999703217 53.5164876286102 34.370518139899
    vertex 157.099999703217 53.5164876370396 34.3705181398992
  endloop
endfacet
facet normal -8.06434393316155e-009 -0.382683432365128 0.923879532511271
  outer loop
    vertex 157.499999703217 53.5164876286102 34.370518139899
    vertex 157.099999683903 52.6000000084292 33.9908965343815
    vertex 157.499999683903 52.5999999999998 33.9908965343815
  endloop
endfacet
facet normal 2.08931475328366e-008 0.991444861373809 0.130526192220059
  outer loop
    vertex 157.499999801293 58.1705181398983 31.6835123713902
    vertex 157.099999804021 58.3000000084292 30.7000000000007
    vertex 157.099999801293 58.1705181483276 31.6835123713903
  endloop
endfacet
facet normal 2.08931475328366e-008 0.991444861373809 0.130526192220059
  outer loop
    vertex 157.099999804021 58.3000000084292 30.7000000000007
    vertex 157.499999801293 58.1705181398983 31.6835123713902
    vertex 157.499999804021 58.2999999999998 30.7000000000006
  endloop
endfacet
facet normal 1.28287741502657e-008 0.60876142900873 0.793353340291228
  outer loop
    vertex 157.099999763982 56.4000000084292 33.9908965343815
    vertex 157.499999780567 57.1870057685087 33.3870057685095
    vertex 157.099999780567 57.1870057769381 33.3870057685095
  endloop
endfacet
facet normal 1.28287741502657e-008 0.60876142900873 0.793353340291228
  outer loop
    vertex 157.499999780567 57.1870057685087 33.3870057685095
    vertex 157.099999763982 56.4000000084292 33.9908965343815
    vertex 157.499999763982 56.3999999999998 33.9908965343815
  endloop
endfacet
facet normal -1.67185986276011e-008 -0.793353340291228 0.60876142900873
  outer loop
    vertex 157.499999654593 51.209103465619 32.6000000000005
    vertex 157.099999667319 51.8129942399203 33.3870057685096
    vertex 157.099999654592 51.2091034740483 32.6000000000007
  endloop
endfacet
facet normal -1.67185986276011e-008 -0.793353340291228 0.60876142900873
  outer loop
    vertex 157.099999667319 51.8129942399203 33.3870057685096
    vertex 157.499999654593 51.209103465619 32.6000000000005
    vertex 157.499999667319 51.812994231491 33.3870057685095
  endloop
endfacet
facet normal 8.06455249279619e-009 0.382683432365073 0.923879532511294
  outer loop
    vertex 157.099999744669 55.4835123798188 34.3705181398991
    vertex 157.499999763982 56.3999999999998 33.9908965343815
    vertex 157.099999763982 56.4000000084292 33.9908965343815
  endloop
endfacet
facet normal 8.06455249279619e-009 0.382683432365073 0.923879532511294
  outer loop
    vertex 157.499999763982 56.3999999999998 33.9908965343815
    vertex 157.099999744669 55.4835123798188 34.3705181398991
    vertex 157.499999744669 55.4835123713894 34.370518139899
  endloop
endfacet
facet normal 1.67187358892487e-008 0.79335334029125 0.608761429008701
  outer loop
    vertex 157.099999780567 57.1870057769381 33.3870057685095
    vertex 157.499999793293 57.7908965343807 32.6000000000005
    vertex 157.099999793293 57.7908965428101 32.6000000000007
  endloop
endfacet
facet normal 1.67187358892487e-008 0.79335334029125 0.608761429008701
  outer loop
    vertex 157.499999793293 57.7908965343807 32.6000000000005
    vertex 157.099999780567 57.1870057769381 33.3870057685095
    vertex 157.499999780567 57.1870057685087 33.3870057685095
  endloop
endfacet
facet normal 2.75074502566902e-009 0.130526192220059 0.991444861373809
  outer loop
    vertex 157.099999723942 54.5000000084292 34.5000000000007
    vertex 157.499999744669 55.4835123713894 34.370518139899
    vertex 157.099999744669 55.4835123798188 34.3705181398991
  endloop
endfacet
facet normal 2.75074502566902e-009 0.130526192220059 0.991444861373809
  outer loop
    vertex 157.499999744669 55.4835123713894 34.370518139899
    vertex 157.099999723942 54.5000000084292 34.5000000000007
    vertex 157.499999723943 54.4999999999998 34.5000000000006
  endloop
endfacet
facet normal -1.28287742057769e-008 -0.60876142900873 -0.793353340291228
  outer loop
    vertex 157.499999667318 51.8129942314909 28.0129942314917
    vertex 157.099999683903 52.6000000084292 27.4091034656197
    vertex 157.499999683902 52.5999999999998 27.4091034656197
  endloop
endfacet
facet normal -1.28287742057769e-008 -0.60876142900873 -0.793353340291228
  outer loop
    vertex 157.099999683903 52.6000000084292 27.4091034656197
    vertex 157.499999667318 51.8129942314909 28.0129942314917
    vertex 157.099999667318 51.8129942399203 28.0129942314919
  endloop
endfacet
facet normal -2.75074502566902e-009 -0.130526192220059 -0.991444861373809
  outer loop
    vertex 157.499999703216 53.5164876286102 27.0294818601021
    vertex 157.099999723942 54.5000000084292 26.9000000000006
    vertex 157.499999723942 54.4999999999998 26.9000000000006
  endloop
endfacet
facet normal -2.75074502566902e-009 -0.130526192220059 -0.991444861373809
  outer loop
    vertex 157.099999723942 54.5000000084292 26.9000000000006
    vertex 157.499999703216 53.5164876286102 27.0294818601021
    vertex 157.099999703216 53.5164876370396 27.0294818601022
  endloop
endfacet
facet normal 2.75052121167348e-009 0.130526192220059 -0.991444861373809
  outer loop
    vertex 157.499999723942 54.4999999999998 26.9000000000006
    vertex 157.099999744668 55.4835123798188 27.0294818601022
    vertex 157.499999744668 55.4835123713894 27.0294818601021
  endloop
endfacet
facet normal 2.75052121167348e-009 0.130526192220059 -0.991444861373809
  outer loop
    vertex 157.099999744668 55.4835123798188 27.0294818601022
    vertex 157.499999723942 54.4999999999998 26.9000000000006
    vertex 157.099999723942 54.5000000084292 26.9000000000006
  endloop
endfacet
facet normal 1.2828595057387e-008 0.608761429008701 -0.79335334029125
  outer loop
    vertex 157.499999763981 56.3999999999998 27.4091034656197
    vertex 157.099999780567 57.187005776938 28.0129942314918
    vertex 157.499999780567 57.1870057685087 28.0129942314917
  endloop
endfacet
facet normal 1.2828595057387e-008 0.608761429008701 -0.79335334029125
  outer loop
    vertex 157.099999780567 57.187005776938 28.0129942314918
    vertex 157.499999763981 56.3999999999998 27.4091034656197
    vertex 157.099999763982 56.4000000084292 27.4091034656197
  endloop
endfacet
facet normal 1.67185986137233e-008 0.793353340291228 -0.60876142900873
  outer loop
    vertex 157.499999793293 57.7908965343807 28.8000000000005
    vertex 157.099999780567 57.187005776938 28.0129942314918
    vertex 157.099999793293 57.7908965428101 28.8000000000007
  endloop
endfacet
facet normal 1.67185986137233e-008 0.793353340291228 -0.60876142900873
  outer loop
    vertex 157.099999780567 57.187005776938 28.0129942314918
    vertex 157.499999793293 57.7908965343807 28.8000000000005
    vertex 157.499999780567 57.1870057685087 28.0129942314917
  endloop
endfacet
facet normal 1.94692571841886e-008 0.923879532511294 -0.382683432365073
  outer loop
    vertex 157.099999801293 58.1705181483276 29.7164876286111
    vertex 157.499999793293 57.7908965343807 28.8000000000005
    vertex 157.099999793293 57.7908965428101 28.8000000000007
  endloop
endfacet
facet normal 1.94692571841886e-008 0.923879532511294 -0.382683432365073
  outer loop
    vertex 157.499999793293 57.7908965343807 28.8000000000005
    vertex 157.099999801293 58.1705181483276 29.7164876286111
    vertex 157.499999801293 58.1705181398983 29.716487628611
  endloop
endfacet
facet normal -1.12837857254983e-013 2.37787942731206e-021 -1.0
  outer loop
    vertex 157.499999633518 50.209103465619 28.8000000000006
    vertex 157.099999654592 51.2091034740483 28.8000000000007
    vertex 157.499999654592 51.209103465619 28.8000000000006
  endloop
endfacet
facet normal -1.12837857254983e-013 2.37787942731206e-021 -1.0
  outer loop
    vertex 157.099999654592 51.2091034740483 28.8000000000007
    vertex 157.499999633518 50.209103465619 28.8000000000006
    vertex 157.099999633518 50.2091034740483 28.8000000000007
  endloop
endfacet
facet normal 1.12837857254983e-013 -2.37787942731206e-021 1.0
  outer loop
    vertex 157.099999633519 50.2091034740483 32.6000000000007
    vertex 157.499999654593 51.209103465619 32.6000000000005
    vertex 157.099999654592 51.2091034740483 32.6000000000007
  endloop
endfacet
facet normal 1.12837857254983e-013 -2.37787942731206e-021 1.0
  outer loop
    vertex 157.499999654593 51.209103465619 32.6000000000005
    vertex 157.099999633519 50.2091034740483 32.6000000000007
    vertex 157.499999633519 50.209103465619 32.6000000000005
  endloop
endfacet
facet normal -2.1073418843276e-008 -1.0 -9.4039548065783e-036
  outer loop
    vertex 157.499999633518 50.209103465619 28.8000000000006
    vertex 157.099999633519 50.2091034740483 32.6000000000007
    vertex 157.099999633518 50.2091034740483 28.8000000000007
  endloop
endfacet
facet normal -2.1073418843276e-008 -1.0 -9.4039548065783e-036
  outer loop
    vertex 157.099999633519 50.2091034740483 32.6000000000007
    vertex 157.499999633518 50.209103465619 28.8000000000006
    vertex 157.499999633519 50.209103465619 32.6000000000005
  endloop
endfacet
facet normal -9.58098116147948e-014 2.01904028945395e-021 -1.0
  outer loop
    vertex 161.499999651768 51.0751287851097 29.3000000000001
    vertex 159.499999672842 52.0751288272566 29.3000000000003
    vertex 161.499999672842 52.0751287851097 29.3000000000001
  endloop
endfacet
facet normal -9.58098116147948e-014 2.01904028945395e-021 -1.0
  outer loop
    vertex 159.499999672842 52.0751288272566 29.3000000000003
    vertex 161.499999651768 51.0751287851097 29.3000000000001
    vertex 159.499999651768 51.0751288272566 29.3000000000003
  endloop
endfacet
facet normal 1.18458361317148e-013 -2.49632266352439e-021 1.0
  outer loop
    vertex 159.499999651769 51.0751288272566 32.1000000000004
    vertex 161.499999672842 52.0751287851097 32.1000000000001
    vertex 159.499999672842 52.0751288272566 32.1000000000004
  endloop
endfacet
facet normal 1.18458361317148e-013 -2.49632266352439e-021 1.0
  outer loop
    vertex 161.499999672842 52.0751287851097 32.1000000000001
    vertex 159.499999651769 51.0751288272566 32.1000000000004
    vertex 161.499999651769 51.0751287851097 32.1000000000001
  endloop
endfacet
facet normal -2.1073418843276e-008 -1.0 -9.4039548065783e-036
  outer loop
    vertex 159.499999651768 51.0751288272566 29.3000000000003
    vertex 161.499999651769 51.0751287851097 32.1000000000001
    vertex 159.499999651769 51.0751288272566 32.1000000000004
  endloop
endfacet
facet normal -2.1073418843276e-008 -1.0 -9.4039548065783e-036
  outer loop
    vertex 161.499999651769 51.0751287851097 32.1000000000001
    vertex 159.499999651768 51.0751288272566 29.3000000000003
    vertex 161.499999651768 51.0751287851097 29.3000000000001
  endloop
endfacet
facet normal 0.242535625036479 -5.11105481080946e-009 0.970142500145295
  outer loop
    vertex 157.499999654593 51.209103465619 32.6000000000005
    vertex 159.499999651769 51.0751288272566 32.1000000000004
    vertex 159.499999672842 52.0751288272566 32.1000000000004
  endloop
endfacet
facet normal 0.242535625036479 -5.11105481080946e-009 0.970142500145295
  outer loop
    vertex 159.499999651769 51.0751288272566 32.1000000000004
    vertex 157.499999654593 51.209103465619 32.6000000000005
    vertex 157.499999633519 50.209103465619 32.6000000000005
  endloop
endfacet
facet normal 0.242535625036187 -5.11105472529451e-009 -0.970142500145368
  outer loop
    vertex 159.499999651768 51.0751288272566 29.3000000000003
    vertex 157.499999654592 51.209103465619 28.8000000000006
    vertex 159.499999672842 52.0751288272566 29.3000000000003
  endloop
endfacet
facet normal 0.242535625036187 -5.11105472529451e-009 -0.970142500145368
  outer loop
    vertex 157.499999654592 51.209103465619 28.8000000000006
    vertex 159.499999651768 51.0751288272566 29.3000000000003
    vertex 157.499999633518 50.209103465619 28.8000000000006
  endloop
endfacet
facet normal 0.397359687781231 -0.917662943855968 -4.49502449815269e-014
  outer loop
    vertex 159.499999651768 51.0751288272566 29.3000000000003
    vertex 157.499999633519 50.209103465619 32.6000000000005
    vertex 157.499999633518 50.209103465619 28.8000000000006
  endloop
endfacet
facet normal 0.397359687781231 -0.917662943855968 -4.49502449815269e-014
  outer loop
    vertex 157.499999633519 50.209103465619 32.6000000000005
    vertex 159.499999651768 51.0751288272566 29.3000000000003
    vertex 159.499999651769 51.0751288272566 32.1000000000004
  endloop
endfacet
facet normal -5.63993296509262e-013 1.18852669621396e-020 -1.0
  outer loop
    vertex 161.499999716866 54.1642134780792 31.2
    vertex 160.899999771357 56.7499999283502 31.2000000000002
    vertex 161.499999771358 56.7499999157061 31.2
  endloop
endfacet
facet normal -5.63993296509262e-013 1.18852669621396e-020 -1.0
  outer loop
    vertex 160.899999771357 56.7499999283502 31.2000000000002
    vertex 161.499999716866 54.1642134780792 31.2
    vertex 160.899999716866 54.1642134907233 31.2000000000002
  endloop
endfacet
facet normal -1.49009529539127e-008 -0.707106781186563 0.707106781186532
  outer loop
    vertex 160.899999718674 54.2499999283502 28.7000000000002
    vertex 161.499999733575 54.9571066968927 29.4071067811867
    vertex 160.899999733575 54.9571067095368 29.4071067811867
  endloop
endfacet
facet normal -1.49009529539127e-008 -0.707106781186563 0.707106781186532
  outer loop
    vertex 161.499999733575 54.9571066968927 29.4071067811867
    vertex 160.899999718674 54.2499999283502 28.7000000000002
    vertex 161.499999718674 54.2499999157062 28.7
  endloop
endfacet
facet normal -1.4901406681113e-008 -0.707106781186584 -0.707106781186511
  outer loop
    vertex 160.899999733575 54.9571067095368 31.9928932188135
    vertex 161.499999718674 54.2499999157062 32.7
    vertex 160.899999718674 54.2499999283502 32.7000000000002
  endloop
endfacet
facet normal -1.4901406681113e-008 -0.707106781186584 -0.707106781186511
  outer loop
    vertex 161.499999718674 54.2499999157062 32.7
    vertex 160.899999733575 54.9571067095368 31.9928932188135
    vertex 161.499999733575 54.9571066968927 31.9928932188134
  endloop
endfacet
facet normal -2.1073418843276e-008 -1.0 -9.4039548065783e-036
  outer loop
    vertex 160.899999771358 56.7499999283502 30.2000000000002
    vertex 161.499999771358 56.7499999157061 31.2
    vertex 160.899999771357 56.7499999283502 31.2000000000002
  endloop
endfacet
facet normal -2.1073418843276e-008 -1.0 -9.4039548065783e-036
  outer loop
    vertex 161.499999771358 56.7499999157061 31.2
    vertex 160.899999771358 56.7499999283502 30.2000000000002
    vertex 161.499999771358 56.7499999157061 30.2
  endloop
endfacet
facet normal -1.4901257138933e-008 -0.707106781186525 -0.70710678118657
  outer loop
    vertex 161.499999716866 54.1642134780792 30.2
    vertex 160.899999733575 54.9571067095368 29.4071067811867
    vertex 161.499999733575 54.9571066968927 29.4071067811867
  endloop
endfacet
facet normal -1.4901257138933e-008 -0.707106781186525 -0.70710678118657
  outer loop
    vertex 160.899999733575 54.9571067095368 29.4071067811867
    vertex 161.499999716866 54.1642134780792 30.2
    vertex 160.899999716866 54.1642134907233 30.2000000000002
  endloop
endfacet
facet normal 1.0 -2.10734116560076e-008 -1.15934519591061e-014
  outer loop
    vertex 160.899999771357 56.7499999283502 31.2000000000002
    vertex 160.899999716866 54.1642134907233 30.2000000000002
    vertex 160.899999771358 56.7499999283502 30.2000000000002
  endloop
endfacet
facet normal 1.0 -2.10734116560076e-008 -1.15934519591061e-014
  outer loop
    vertex 160.899999716866 54.1642134907233 30.2000000000002
    vertex 160.899999771357 56.7499999283502 31.2000000000002
    vertex 160.899999676527 52.2499999283502 30.7000000000001
  endloop
endfacet
facet normal 1.0 -2.10734116560076e-008 -1.15934519591061e-014
  outer loop
    vertex 160.899999676527 52.2499999283502 30.7000000000001
    vertex 160.899999771357 56.7499999283502 31.2000000000002
    vertex 160.899999716866 54.1642134907233 31.2000000000002
  endloop
endfacet
facet normal 1.0 -2.10734116560076e-008 -1.15934519591061e-014
  outer loop
    vertex 160.899999676527 52.2499999283502 30.7000000000001
    vertex 160.899999716866 54.1642134907233 31.2000000000002
    vertex 160.899999718674 54.2499999283502 32.7000000000002
  endloop
endfacet
facet normal 1.0 -2.10734116560076e-008 -1.15934519591061e-014
  outer loop
    vertex 160.899999718674 54.2499999283502 32.7000000000002
    vertex 160.899999716866 54.1642134907233 31.2000000000002
    vertex 160.899999733575 54.9571067095368 31.9928932188135
  endloop
endfacet
facet normal 1.0 -2.10734116560076e-008 -1.15934519591061e-014
  outer loop
    vertex 160.899999733575 54.9571067095368 29.4071067811867
    vertex 160.899999676527 52.2499999283502 30.7000000000001
    vertex 160.899999718674 54.2499999283502 28.7000000000002
  endloop
endfacet
facet normal 1.0 -2.10734116560076e-008 -1.15934519591061e-014
  outer loop
    vertex 160.899999676527 52.2499999283502 30.7000000000001
    vertex 160.899999733575 54.9571067095368 29.4071067811867
    vertex 160.899999716866 54.1642134907233 30.2000000000002
  endloop
endfacet
facet normal 1.49014167278737e-008 0.707106781186551 0.707106781186544
  outer loop
    vertex 161.499999676527 52.2499999157062 30.7000000000001
    vertex 160.899999718674 54.2499999283502 28.7000000000002
    vertex 160.899999676527 52.2499999283502 30.7000000000001
  endloop
endfacet
facet normal 1.49014167278737e-008 0.707106781186551 0.707106781186544
  outer loop
    vertex 160.899999718674 54.2499999283502 28.7000000000002
    vertex 161.499999676527 52.2499999157062 30.7000000000001
    vertex 161.499999718674 54.2499999157062 28.7
  endloop
endfacet
facet normal -1.49008482357449e-008 -0.707106781186505 0.70710678118659
  outer loop
    vertex 160.899999716866 54.1642134907233 31.2000000000002
    vertex 161.499999733575 54.9571066968927 31.9928932188134
    vertex 160.899999733575 54.9571067095368 31.9928932188135
  endloop
endfacet
facet normal -1.49008482357449e-008 -0.707106781186505 0.70710678118659
  outer loop
    vertex 161.499999733575 54.9571066968927 31.9928932188134
    vertex 160.899999716866 54.1642134907233 31.2000000000002
    vertex 161.499999716866 54.1642134780792 31.2
  endloop
endfacet
facet normal 1.49009729701523e-008 0.707106781186548 -0.707106781186547
  outer loop
    vertex 161.499999718674 54.2499999157062 32.7
    vertex 160.899999676527 52.2499999283502 30.7000000000001
    vertex 160.899999718674 54.2499999283502 32.7000000000002
  endloop
endfacet
facet normal 1.49009729701523e-008 0.707106781186548 -0.707106781186547
  outer loop
    vertex 160.899999676527 52.2499999283502 30.7000000000001
    vertex 161.499999718674 54.2499999157062 32.7
    vertex 161.499999676527 52.2499999157062 30.7000000000001
  endloop
endfacet
facet normal 3.10196313080234e-013 -6.53689682917974e-021 1.0
  outer loop
    vertex 160.899999716866 54.1642134907233 30.2000000000002
    vertex 161.499999771358 56.7499999157061 30.2
    vertex 160.899999771358 56.7499999283502 30.2000000000002
  endloop
endfacet
facet normal 3.10196313080234e-013 -6.53689682917974e-021 1.0
  outer loop
    vertex 161.499999771358 56.7499999157061 30.2
    vertex 160.899999716866 54.1642134907233 30.2000000000002
    vertex 161.499999716866 54.1642134780792 30.2
  endloop
endfacet
endsolid Remix of isaac879 Pan Tilt Camera Mount
