solid Remix of isaac879 Pan Tilt Camera Mount
facet normal 8.93809354878491e-009 1.0 -8.73113664701098e-009
  outer loop
    vertex 10.8000003558828 -8.40000378175266 25.4836582940764
    vertex 13.2000004818459 -8.40000345745104 65.0836582685607
    vertex 13.2000003558828 -8.40000380320406 25.4836582864422
  endloop
endfacet
facet normal 8.93809354878491e-009 1.0 -8.73113664701098e-009
  outer loop
    vertex 13.2000004818459 -8.40000345745104 65.0836582685607
    vertex 10.8000003558828 -8.40000378175266 25.4836582940764
    vertex 10.8000004818459 -8.40000343599962 65.0836582761949
  endloop
endfacet
facet normal -3.18088577266912e-009 -8.73113661857993e-009 -1.0
  outer loop
    vertex 10.8000002110857 -24.6000037817526 25.4836584355208
    vertex 13.2000003558828 -8.40000380320406 25.4836582864422
    vertex 13.2000002110857 -24.6000038032041 25.4836584278866
  endloop
endfacet
facet normal -3.18088577266912e-009 -8.73113661857993e-009 -1.0
  outer loop
    vertex 13.2000003558828 -8.40000380320406 25.4836582864422
    vertex 10.8000002110857 -24.6000037817526 25.4836584355208
    vertex 10.8000003558828 -8.40000378175266 25.4836582940764
  endloop
endfacet
facet normal 7.96473295420384e-009 0.608761435935596 0.793353334976056
  outer loop
    vertex 13.2000003702617 -12.5000036631465 41.5248125775464
    vertex 10.800000040012 -12.8727958453333 41.8108661091117
    vertex 13.2000003678396 -12.8727958667847 41.8108661014775
  endloop
endfacet
facet normal 7.96473295420384e-009 0.608761435935596 0.793353334976056
  outer loop
    vertex 10.800000040012 -12.8727958453333 41.8108661091117
    vertex 13.2000003702617 -12.5000036631465 41.5248125775464
    vertex 10.8000000424341 -12.5000036416951 41.5248125851805
  endloop
endfacet
facet normal 4.3203281705593e-009 0.130526200876485 0.991444860234169
  outer loop
    vertex 13.20000037357 -12.0658779459011 41.3449918132477
    vertex 10.8000000497113 -11.6000036438007 41.2836583041345
    vertex 10.8000000457424 -12.0658779244497 41.3449918208818
  endloop
endfacet
facet normal 4.3203281705593e-009 0.130526200876485 0.991444860234169
  outer loop
    vertex 10.8000000497113 -11.6000036438007 41.2836583041345
    vertex 13.20000037357 -12.0658779459011 41.3449918132477
    vertex 13.2000003775389 -11.6000036652521 41.2836582965004
  endloop
endfacet
facet normal 9.02746694124761e-009 0.793353345606416 0.608761422081843
  outer loop
    vertex 10.800000040012 -12.8727958453333 41.8108661091117
    vertex 13.2000003664686 -13.158849384206 42.1836583101109
    vertex 13.2000003678396 -12.8727958667847 41.8108661014775
  endloop
endfacet
facet normal 9.02746694124761e-009 0.793353345606416 0.608761422081843
  outer loop
    vertex 13.2000003664686 -13.158849384206 42.1836583101109
    vertex 10.800000040012 -12.8727958453333 41.8108661091117
    vertex 10.800000038641 -13.1588493627546 42.183658317745
  endloop
endfacet
facet normal 1.98701753730042e-009 -0.130526183563604 0.991444862513453
  outer loop
    vertex 13.200000381898 -11.134129383532 41.3449918051125
    vertex 10.8000000497113 -11.6000036438007 41.2836583041345
    vertex 13.2000003775389 -11.6000036652521 41.2836582965004
  endloop
endfacet
facet normal 1.98701753730042e-009 -0.130526183563604 0.991444862513453
  outer loop
    vertex 10.8000000497113 -11.6000036438007 41.2836583041345
    vertex 13.200000381898 -11.134129383532 41.3449918051125
    vertex 10.8000000540704 -11.1341293620806 41.3449918127466
  endloop
endfacet
facet normal 6.35921557867466e-009 0.382683440431613 0.923879529170024
  outer loop
    vertex 13.2000003702617 -12.5000036631465 41.5248125775464
    vertex 10.8000000457424 -12.0658779244497 41.3449918208818
    vertex 10.8000000424341 -12.5000036416951 41.5248125851805
  endloop
endfacet
facet normal 6.35921557867466e-009 0.382683440431613 0.923879529170024
  outer loop
    vertex 10.8000000457424 -12.0658779244497 41.3449918208818
    vertex 13.2000003702617 -12.5000036631465 41.5248125775464
    vertex 13.20000037357 -12.0658779459011 41.3449918132477
  endloop
endfacet
facet normal 2.91760024854001e-009 0.608761422081843 -0.793353345606415
  outer loop
    vertex 10.8000000523512 -12.5000036144741 44.6425040388045
    vertex 13.2000003759367 -12.8727958445589 44.3564505137491
    vertex 10.8000000481092 -12.8727958231075 44.3564505213832
  endloop
endfacet
facet normal 2.91760024854001e-009 0.608761422081843 -0.793353345606415
  outer loop
    vertex 13.2000003759367 -12.8727958445589 44.3564505137491
    vertex 10.8000000523512 -12.5000036144741 44.6425040388045
    vertex 13.2000003801787 -12.5000036359255 44.6425040311704
  endloop
endfacet
facet normal 5.1546658042805e-009 0.793353334976057 -0.608761435935596
  outer loop
    vertex 10.8000000443666 -13.1588493470386 43.983658317745
    vertex 13.2000003759367 -12.8727958445589 44.3564505137491
    vertex 13.2000003721942 -13.15884936849 43.9836583101109
  endloop
endfacet
facet normal 5.1546658042805e-009 0.793353334976057 -0.608761435935596
  outer loop
    vertex 13.2000003759367 -12.8727958445589 44.3564505137491
    vertex 10.8000000443666 -13.1588493470386 43.983658317745
    vertex 10.8000000481092 -12.8727958231075 44.3564505213832
  endloop
endfacet
facet normal 4.81705057423977e-010 0.382683424298576 -0.923879535852546
  outer loop
    vertex 10.8000000568034 -12.0658778940886 44.8223247955225
    vertex 13.2000003801787 -12.5000036359255 44.6425040311704
    vertex 10.8000000523512 -12.5000036144741 44.6425040388045
  endloop
endfacet
facet normal 4.81705057423977e-010 0.382683424298576 -0.923879535852546
  outer loop
    vertex 13.2000003801787 -12.5000036359255 44.6425040311704
    vertex 10.8000000568034 -12.0658778940886 44.8223247955225
    vertex 13.200000384631 -12.0658779155401 44.8223247878883
  endloop
endfacet
facet normal -1.98701753730042e-009 0.130526183563604 -0.991444862513453
  outer loop
    vertex 10.8000000611626 -11.6000036123686 44.8836583041345
    vertex 13.200000384631 -12.0658779155401 44.8223247878883
    vertex 10.8000000568034 -12.0658778940886 44.8223247955225
  endloop
endfacet
facet normal -1.98701753730042e-009 0.130526183563604 -0.991444862513453
  outer loop
    vertex 13.200000384631 -12.0658779155401 44.8223247878883
    vertex 10.8000000611626 -11.6000036123686 44.8836583041345
    vertex 13.2000003889902 -11.60000363382 44.8836582965004
  endloop
endfacet
facet normal 9.27681582721464e-009 0.991444862513453 0.13052618356361
  outer loop
    vertex 10.8000000384147 -13.3386701194726 42.6177840381305
    vertex 13.200000367176 -13.4000036495361 43.0836583122164
    vertex 13.2000003662423 -13.338670140924 42.6177840304964
  endloop
endfacet
facet normal 9.27681582721464e-009 0.991444862513453 0.13052618356361
  outer loop
    vertex 13.200000367176 -13.4000036495361 43.0836583122164
    vertex 10.8000000384147 -13.3386701194726 42.6177840381305
    vertex 10.8000000393484 -13.4000036280846 43.0836583198506
  endloop
endfacet
facet normal -6.35921557867466e-009 -0.382683440431613 -0.923879529170024
  outer loop
    vertex 10.8000000684397 -10.7000036144741 44.6425040230885
    vertex 13.200000392959 -11.134129353171 44.8223247797531
    vertex 10.8000000651315 -11.1341293317196 44.8223247873872
  endloop
endfacet
facet normal -6.35921557867466e-009 -0.382683440431613 -0.923879529170024
  outer loop
    vertex 13.200000392959 -11.134129353171 44.8223247797531
    vertex 10.8000000684397 -10.7000036144741 44.6425040230885
    vertex 13.2000003962673 -10.7000036359255 44.6425040154543
  endloop
endfacet
facet normal 7.04044940394722e-009 0.923879529170024 -0.382683440431612
  outer loop
    vertex 10.8000000413785 -13.3386701113373 43.5495326004996
    vertex 13.2000003721942 -13.15884936849 43.9836583101109
    vertex 13.2000003692061 -13.3386701327888 43.5495325928655
  endloop
endfacet
facet normal 7.04044940394722e-009 0.923879529170024 -0.382683440431612
  outer loop
    vertex 13.2000003721942 -13.15884936849 43.9836583101109
    vertex 10.8000000413785 -13.3386701113373 43.5495326004996
    vertex 10.8000000443666 -13.1588493470386 43.983658317745
  endloop
endfacet
facet normal -4.32032817055931e-009 -0.130526200876485 -0.991444860234169
  outer loop
    vertex 10.8000000651315 -11.1341293317196 44.8223247873872
    vertex 13.2000003889902 -11.60000363382 44.8836582965004
    vertex 10.8000000611626 -11.6000036123686 44.8836583041345
  endloop
endfacet
facet normal -4.32032817055931e-009 -0.130526200876485 -0.991444860234169
  outer loop
    vertex 13.2000003889902 -11.60000363382 44.8836582965004
    vertex 10.8000000651315 -11.1341293317196 44.8223247873872
    vertex 13.200000392959 -11.134129353171 44.8223247797531
  endloop
endfacet
facet normal -7.96473295420383e-009 -0.608761435935595 -0.793353334976058
  outer loop
    vertex 10.8000000708619 -10.3272114108359 44.3564504991574
    vertex 13.2000003962673 -10.7000036359255 44.6425040154543
    vertex 10.8000000684397 -10.7000036144741 44.6425040230885
  endloop
endfacet
facet normal -7.96473295420383e-009 -0.608761435935595 -0.793353334976058
  outer loop
    vertex 13.2000003962673 -10.7000036359255 44.6425040154543
    vertex 10.8000000708619 -10.3272114108359 44.3564504991574
    vertex 13.2000003986895 -10.3272114322873 44.3564504915232
  endloop
endfacet
facet normal -9.02746694124761e-009 -0.793353345606416 -0.608761422081843
  outer loop
    vertex 10.8000000708619 -10.3272114108359 44.3564504991574
    vertex 13.2000004000604 -10.041157914866 43.9836582828899
    vertex 13.2000003986895 -10.3272114322873 44.3564504915232
  endloop
endfacet
facet normal -9.02746694124761e-009 -0.793353345606416 -0.608761422081843
  outer loop
    vertex 13.2000004000604 -10.041157914866 43.9836582828899
    vertex 10.8000000708619 -10.3272114108359 44.3564504991574
    vertex 10.8000000722328 -10.0411578934146 43.983658290524
  endloop
endfacet
facet normal 9.47499397483985e-009 0.923879535852547 0.382683424298573
  outer loop
    vertex 13.2000003664686 -13.158849384206 42.1836583101109
    vertex 10.8000000384147 -13.3386701194726 42.6177840381305
    vertex 13.2000003662423 -13.338670140924 42.6177840304964
  endloop
endfacet
facet normal 9.47499397483985e-009 0.923879535852547 0.382683424298573
  outer loop
    vertex 10.8000000384147 -13.3386701194726 42.6177840381305
    vertex 13.2000003664686 -13.158849384206 42.1836583101109
    vertex 10.800000038641 -13.1588493627546 42.183658317745
  endloop
endfacet
facet normal 8.44643801162777e-009 0.991444860234169 -0.130526200876491
  outer loop
    vertex 10.8000000393484 -13.4000036280846 43.0836583198506
    vertex 13.2000003692061 -13.3386701327888 43.5495325928655
    vertex 13.200000367176 -13.4000036495361 43.0836583122164
  endloop
endfacet
facet normal 8.44643801162777e-009 0.991444860234169 -0.130526200876491
  outer loop
    vertex 13.2000003692061 -13.3386701327888 43.5495325928655
    vertex 10.8000000393484 -13.4000036280846 43.0836583198506
    vertex 10.8000000413785 -13.3386701113373 43.5495326004996
  endloop
endfacet
facet normal -8.44643801162777e-009 -0.991444860234169 0.130526200876491
  outer loop
    vertex 10.8000000715255 -9.80000362808464 43.0836582884185
    vertex 13.200000397323 -9.86133716628335 42.6177840001353
    vertex 13.2000003993531 -9.80000364953606 43.0836582807843
  endloop
endfacet
facet normal -8.44643801162777e-009 -0.991444860234169 0.130526200876491
  outer loop
    vertex 13.200000397323 -9.86133716628335 42.6177840001353
    vertex 10.8000000715255 -9.80000362808464 43.0836582884185
    vertex 10.8000000694954 -9.86133714483192 42.6177840077694
  endloop
endfacet
facet normal -7.04044940394724e-009 -0.923879529170025 0.38268344043161
  outer loop
    vertex 10.8000000694954 -9.86133714483192 42.6177840077694
    vertex 13.2000003943348 -10.0411579305821 42.1836582828899
    vertex 13.200000397323 -9.86133716628335 42.6177840001353
  endloop
endfacet
facet normal -7.04044940394724e-009 -0.923879529170025 0.38268344043161
  outer loop
    vertex 13.2000003943348 -10.0411579305821 42.1836582828899
    vertex 10.8000000694954 -9.86133714483192 42.6177840077694
    vertex 10.8000000665072 -10.0411579091307 42.183658290524
  endloop
endfacet
facet normal -5.1546658042805e-009 -0.793353334976057 0.608761435935596
  outer loop
    vertex 10.8000000665072 -10.0411579091307 42.183658290524
    vertex 13.2000003905922 -10.3272114545132 41.8108660792517
    vertex 13.2000003943348 -10.0411579305821 42.1836582828899
  endloop
endfacet
facet normal -5.1546658042805e-009 -0.793353334976057 0.608761435935596
  outer loop
    vertex 13.2000003905922 -10.3272114545132 41.8108660792517
    vertex 10.8000000665072 -10.0411579091307 42.183658290524
    vertex 10.8000000627647 -10.3272114330617 41.8108660868858
  endloop
endfacet
facet normal -9.47499397483985e-009 -0.923879535852547 -0.382683424298573
  outer loop
    vertex 10.8000000722328 -10.0411578934146 43.983658290524
    vertex 13.2000004002868 -9.86133715814812 43.5495325625044
    vertex 13.2000004000604 -10.041157914866 43.9836582828899
  endloop
endfacet
facet normal -9.47499397483985e-009 -0.923879535852547 -0.382683424298573
  outer loop
    vertex 13.2000004002868 -9.86133715814812 43.5495325625044
    vertex 10.8000000722328 -10.0411578934146 43.983658290524
    vertex 10.8000000724592 -9.8613371366967 43.5495325701385
  endloop
endfacet
facet normal -9.27681582721464e-009 -0.991444862513453 -0.13052618356361
  outer loop
    vertex 13.2000004002868 -9.86133715814812 43.5495325625044
    vertex 10.8000000715255 -9.80000362808464 43.0836582884185
    vertex 13.2000003993531 -9.80000364953606 43.0836582807843
  endloop
endfacet
facet normal -9.27681582721464e-009 -0.991444862513453 -0.13052618356361
  outer loop
    vertex 10.8000000715255 -9.80000362808464 43.0836582884185
    vertex 13.2000004002868 -9.86133715814812 43.5495325625044
    vertex 10.8000000724592 -9.8613371366967 43.5495325701385
  endloop
endfacet
facet normal -2.91760024853999e-009 -0.608761422081842 0.793353345606416
  outer loop
    vertex 13.2000003863503 -10.7000036631465 41.5248125618304
    vertex 10.8000000627647 -10.3272114330617 41.8108660868858
    vertex 10.8000000585227 -10.7000036416951 41.5248125694645
  endloop
endfacet
facet normal -2.91760024853999e-009 -0.608761422081842 0.793353345606416
  outer loop
    vertex 10.8000000627647 -10.3272114330617 41.8108660868858
    vertex 13.2000003863503 -10.7000036631465 41.5248125618304
    vertex 13.2000003905922 -10.3272114545132 41.8108660792517
  endloop
endfacet
facet normal -4.81705057423977e-010 -0.382683424298576 0.923879535852546
  outer loop
    vertex 13.2000003863503 -10.7000036631465 41.5248125618304
    vertex 10.8000000540704 -11.1341293620806 41.3449918127466
    vertex 13.200000381898 -11.134129383532 41.3449918051125
  endloop
endfacet
facet normal -4.81705057423977e-010 -0.382683424298576 0.923879535852546
  outer loop
    vertex 10.8000000540704 -11.1341293620806 41.3449918127466
    vertex 13.2000003863503 -10.7000036631465 41.5248125618304
    vertex 10.8000000585227 -10.7000036416951 41.5248125694645
  endloop
endfacet
facet normal 9.47499397483985e-009 0.923879535852547 0.382683424298573
  outer loop
    vertex 10.8000003785853 -13.1588491986093 60.983658317745
    vertex 13.2000004260429 -13.3386699767786 61.4177840304964
    vertex 13.2000004262693 -13.1588492200607 60.9836583101109
  endloop
endfacet
facet normal 9.47499397483985e-009 0.923879535852547 0.382683424298573
  outer loop
    vertex 13.2000004260429 -13.3386699767786 61.4177840304964
    vertex 10.8000003785853 -13.1588491986093 60.983658317745
    vertex 10.8000003783589 -13.3386699553272 61.4177840381305
  endloop
endfacet
facet normal 9.27681582721464e-009 0.991444862513453 0.13052618356361
  outer loop
    vertex 10.8000003783589 -13.3386699553272 61.4177840381305
    vertex 13.2000004269766 -13.4000034853907 61.8836583122164
    vertex 13.2000004260429 -13.3386699767786 61.4177840304964
  endloop
endfacet
facet normal 9.27681582721464e-009 0.991444862513453 0.13052618356361
  outer loop
    vertex 13.2000004269766 -13.4000034853907 61.8836583122164
    vertex 10.8000003783589 -13.3386699553272 61.4177840381305
    vertex 10.8000003792926 -13.4000034639393 61.8836583198506
  endloop
endfacet
facet normal 8.44643801162777e-009 0.991444860234169 -0.130526200876491
  outer loop
    vertex 13.2000004269766 -13.4000034853907 61.8836583122164
    vertex 10.8000003813227 -13.338669947192 62.3495326004996
    vertex 13.2000004290067 -13.3386699686434 62.3495325928655
  endloop
endfacet
facet normal 8.44643801162777e-009 0.991444860234169 -0.130526200876491
  outer loop
    vertex 10.8000003813227 -13.338669947192 62.3495326004996
    vertex 13.2000004269766 -13.4000034853907 61.8836583122164
    vertex 10.8000003792926 -13.4000034639393 61.8836583198506
  endloop
endfacet
facet normal 7.04044940394722e-009 0.923879529170024 -0.382683440431612
  outer loop
    vertex 10.8000003813227 -13.338669947192 62.3495326004996
    vertex 13.2000004319949 -13.1588492043447 62.7836583101109
    vertex 13.2000004290067 -13.3386699686434 62.3495325928655
  endloop
endfacet
facet normal 7.04044940394722e-009 0.923879529170024 -0.382683440431612
  outer loop
    vertex 13.2000004319949 -13.1588492043447 62.7836583101109
    vertex 10.8000003813227 -13.338669947192 62.3495326004996
    vertex 10.8000003843109 -13.1588491828932 62.783658317745
  endloop
endfacet
facet normal 2.91760024853984e-009 0.608761422081828 -0.793353345606426
  outer loop
    vertex 10.8000003922954 -12.5000034503288 63.4425040388045
    vertex 13.2000004357374 -12.8727956804136 63.1564505137491
    vertex 10.8000003880534 -12.8727956589622 63.1564505213832
  endloop
endfacet
facet normal 2.91760024853984e-009 0.608761422081828 -0.793353345606426
  outer loop
    vertex 13.2000004357374 -12.8727956804136 63.1564505137491
    vertex 10.8000003922954 -12.5000034503288 63.4425040388045
    vertex 13.2000004399794 -12.5000034717802 63.4425040311704
  endloop
endfacet
facet normal 9.02746694124761e-009 0.793353345606416 0.608761422081843
  outer loop
    vertex 10.8000003799562 -12.872795681188 60.6108661091117
    vertex 13.2000004262693 -13.1588492200607 60.9836583101109
    vertex 13.2000004276402 -12.8727957026393 60.6108661014775
  endloop
endfacet
facet normal 9.02746694124761e-009 0.793353345606416 0.608761422081843
  outer loop
    vertex 13.2000004262693 -13.1588492200607 60.9836583101109
    vertex 10.8000003799562 -12.872795681188 60.6108661091117
    vertex 10.8000003785853 -13.1588491986093 60.983658317745
  endloop
endfacet
facet normal 7.96473295420374e-009 0.608761435935581 0.793353334976068
  outer loop
    vertex 13.2000004276402 -12.8727957026393 60.6108661014775
    vertex 10.8000003823784 -12.5000034775497 60.3248125851806
    vertex 10.8000003799562 -12.872795681188 60.6108661091117
  endloop
endfacet
facet normal 7.96473295420374e-009 0.608761435935581 0.793353334976068
  outer loop
    vertex 10.8000003823784 -12.5000034775497 60.3248125851806
    vertex 13.2000004276402 -12.8727957026393 60.6108661014775
    vertex 13.2000004300624 -12.5000034990011 60.3248125775464
  endloop
endfacet
facet normal 4.81705057424187e-010 0.382683424298596 -0.923879535852538
  outer loop
    vertex 10.8000003967476 -12.0658777299433 63.6223247955225
    vertex 13.2000004399794 -12.5000034717802 63.4425040311704
    vertex 10.8000003922954 -12.5000034503288 63.4425040388045
  endloop
endfacet
facet normal 4.81705057424187e-010 0.382683424298596 -0.923879535852538
  outer loop
    vertex 13.2000004399794 -12.5000034717802 63.4425040311704
    vertex 10.8000003967476 -12.0658777299433 63.6223247955225
    vertex 13.2000004444316 -12.0658777513947 63.6223247878883
  endloop
endfacet
facet normal -1.98701753730042e-009 0.130526183563604 -0.991444862513453
  outer loop
    vertex 10.8000004011068 -11.6000034482232 63.6836583041345
    vertex 13.2000004444316 -12.0658777513947 63.6223247878883
    vertex 10.8000003967476 -12.0658777299433 63.6223247955225
  endloop
endfacet
facet normal -1.98701753730042e-009 0.130526183563604 -0.991444862513453
  outer loop
    vertex 13.2000004444316 -12.0658777513947 63.6223247878883
    vertex 10.8000004011068 -11.6000034482232 63.6836583041345
    vertex 13.2000004487908 -11.6000034696746 63.6836582965004
  endloop
endfacet
facet normal 6.35921557867481e-009 0.382683440431633 0.923879529170015
  outer loop
    vertex 13.2000004300624 -12.5000034990011 60.3248125775464
    vertex 10.8000003856866 -12.0658777603044 60.1449918208818
    vertex 10.8000003823784 -12.5000034775497 60.3248125851806
  endloop
endfacet
facet normal 6.35921557867481e-009 0.382683440431633 0.923879529170015
  outer loop
    vertex 10.8000003856866 -12.0658777603044 60.1449918208818
    vertex 13.2000004300624 -12.5000034990011 60.3248125775464
    vertex 13.2000004333706 -12.0658777817557 60.1449918132477
  endloop
endfacet
facet normal 5.1546658042805e-009 0.793353334976057 -0.608761435935596
  outer loop
    vertex 10.8000003843109 -13.1588491828932 62.783658317745
    vertex 13.2000004357374 -12.8727956804136 63.1564505137491
    vertex 13.2000004319949 -13.1588492043447 62.7836583101109
  endloop
endfacet
facet normal 5.1546658042805e-009 0.793353334976057 -0.608761435935596
  outer loop
    vertex 13.2000004357374 -12.8727956804136 63.1564505137491
    vertex 10.8000003843109 -13.1588491828932 62.783658317745
    vertex 10.8000003880534 -12.8727956589622 63.1564505213832
  endloop
endfacet
facet normal 4.3203281705593e-009 0.130526200876485 0.991444860234169
  outer loop
    vertex 13.2000004333706 -12.0658777817557 60.1449918132477
    vertex 10.8000003896556 -11.6000034796553 60.0836583041345
    vertex 10.8000003856866 -12.0658777603044 60.1449918208818
  endloop
endfacet
facet normal 4.3203281705593e-009 0.130526200876485 0.991444860234169
  outer loop
    vertex 10.8000003896556 -11.6000034796553 60.0836583041345
    vertex 13.2000004333706 -12.0658777817557 60.1449918132477
    vertex 13.2000004373396 -11.6000035011067 60.0836582965004
  endloop
endfacet
facet normal 1.98701753730042e-009 -0.130526183563604 0.991444862513453
  outer loop
    vertex 13.2000004373396 -11.6000035011067 60.0836582965004
    vertex 10.8000003940147 -11.1341291979353 60.1449918127466
    vertex 10.8000003896556 -11.6000034796553 60.0836583041345
  endloop
endfacet
facet normal 1.98701753730042e-009 -0.130526183563604 0.991444862513453
  outer loop
    vertex 10.8000003940147 -11.1341291979353 60.1449918127466
    vertex 13.2000004373396 -11.6000035011067 60.0836582965004
    vertex 13.2000004416987 -11.1341292193867 60.1449918051124
  endloop
endfacet
facet normal -4.32032817055931e-009 -0.130526200876485 -0.991444860234169
  outer loop
    vertex 10.8000004050757 -11.1341291675742 63.6223247873872
    vertex 13.2000004487908 -11.6000034696746 63.6836582965004
    vertex 10.8000004011068 -11.6000034482232 63.6836583041345
  endloop
endfacet
facet normal -4.32032817055931e-009 -0.130526200876485 -0.991444860234169
  outer loop
    vertex 13.2000004487908 -11.6000034696746 63.6836582965004
    vertex 10.8000004050757 -11.1341291675742 63.6223247873872
    vertex 13.2000004527597 -11.1341291890256 63.6223247797531
  endloop
endfacet
facet normal -6.35921557867481e-009 -0.382683440431633 -0.923879529170015
  outer loop
    vertex 10.800000408384 -10.7000034503288 63.4425040230885
    vertex 13.2000004527597 -11.1341291890256 63.6223247797531
    vertex 10.8000004050757 -11.1341291675742 63.6223247873872
  endloop
endfacet
facet normal -6.35921557867481e-009 -0.382683440431633 -0.923879529170015
  outer loop
    vertex 13.2000004527597 -11.1341291890256 63.6223247797531
    vertex 10.800000408384 -10.7000034503288 63.4425040230885
    vertex 13.200000456068 -10.7000034717802 63.4425040154543
  endloop
endfacet
facet normal -7.96473295420373e-009 -0.60876143593558 -0.793353334976069
  outer loop
    vertex 10.8000004108061 -10.3272112466906 63.1564504991574
    vertex 13.200000456068 -10.7000034717802 63.4425040154543
    vertex 10.800000408384 -10.7000034503288 63.4425040230885
  endloop
endfacet
facet normal -7.96473295420373e-009 -0.60876143593558 -0.793353334976069
  outer loop
    vertex 13.200000456068 -10.7000034717802 63.4425040154543
    vertex 10.8000004108061 -10.3272112466906 63.1564504991574
    vertex 13.2000004584901 -10.327211268142 63.1564504915233
  endloop
endfacet
facet normal -9.27681582721464e-009 -0.991444862513453 -0.13052618356361
  outer loop
    vertex 10.8000004124034 -9.86133697255132 62.3495325701385
    vertex 13.2000004591537 -9.80000348539069 61.8836582807844
    vertex 13.2000004600874 -9.86133699400271 62.3495325625044
  endloop
endfacet
facet normal -9.27681582721464e-009 -0.991444862513453 -0.13052618356361
  outer loop
    vertex 13.2000004591537 -9.80000348539069 61.8836582807844
    vertex 10.8000004124034 -9.86133697255132 62.3495325701385
    vertex 10.8000004114697 -9.80000346393929 61.8836582884185
  endloop
endfacet
facet normal -9.02746694124761e-009 -0.793353345606416 -0.608761422081843
  outer loop
    vertex 13.2000004584901 -10.327211268142 63.1564504915233
    vertex 10.8000004121771 -10.0411577292693 62.783658290524
    vertex 13.2000004598611 -10.0411577507207 62.7836582828899
  endloop
endfacet
facet normal -9.02746694124761e-009 -0.793353345606416 -0.608761422081843
  outer loop
    vertex 10.8000004121771 -10.0411577292693 62.783658290524
    vertex 13.2000004584901 -10.327211268142 63.1564504915233
    vertex 10.8000004108061 -10.3272112466906 63.1564504991574
  endloop
endfacet
facet normal -8.44643801162777e-009 -0.991444860234169 0.130526200876491
  outer loop
    vertex 10.8000004114697 -9.80000346393929 61.8836582884185
    vertex 13.2000004571236 -9.86133700213797 61.4177840001353
    vertex 13.2000004591537 -9.80000348539069 61.8836582807844
  endloop
endfacet
facet normal -8.44643801162777e-009 -0.991444860234169 0.130526200876491
  outer loop
    vertex 13.2000004571236 -9.86133700213797 61.4177840001353
    vertex 10.8000004114697 -9.80000346393929 61.8836582884185
    vertex 10.8000004094396 -9.86133698068658 61.4177840077694
  endloop
endfacet
facet normal -9.47499397483985e-009 -0.923879535852547 -0.382683424298573
  outer loop
    vertex 10.8000004121771 -10.0411577292693 62.783658290524
    vertex 13.2000004600874 -9.86133699400271 62.3495325625044
    vertex 13.2000004598611 -10.0411577507207 62.7836582828899
  endloop
endfacet
facet normal -9.47499397483985e-009 -0.923879535852547 -0.382683424298573
  outer loop
    vertex 13.2000004600874 -9.86133699400271 62.3495325625044
    vertex 10.8000004121771 -10.0411577292693 62.783658290524
    vertex 10.8000004124034 -9.86133697255132 62.3495325701385
  endloop
endfacet
facet normal -7.04044940394724e-009 -0.923879529170025 0.38268344043161
  outer loop
    vertex 13.2000004571236 -9.86133700213797 61.4177840001353
    vertex 10.8000004064515 -10.0411577449853 60.983658290524
    vertex 13.2000004541355 -10.0411577664367 60.9836582828899
  endloop
endfacet
facet normal -7.04044940394724e-009 -0.923879529170025 0.38268344043161
  outer loop
    vertex 10.8000004064515 -10.0411577449853 60.983658290524
    vertex 13.2000004571236 -9.86133700213797 61.4177840001353
    vertex 10.8000004094396 -9.86133698068658 61.4177840077694
  endloop
endfacet
facet normal -5.1546658042805e-009 -0.793353334976057 0.608761435935596
  outer loop
    vertex 10.8000004064515 -10.0411577449853 60.983658290524
    vertex 13.2000004503929 -10.3272112903678 60.6108660792517
    vertex 13.2000004541355 -10.0411577664367 60.9836582828899
  endloop
endfacet
facet normal -5.1546658042805e-009 -0.793353334976057 0.608761435935596
  outer loop
    vertex 13.2000004503929 -10.3272112903678 60.6108660792517
    vertex 10.8000004064515 -10.0411577449853 60.983658290524
    vertex 10.8000004027089 -10.3272112689164 60.6108660868858
  endloop
endfacet
facet normal -2.91760024853982e-009 -0.608761422081827 0.793353345606428
  outer loop
    vertex 13.2000004503929 -10.3272112903678 60.6108660792517
    vertex 10.8000003984669 -10.7000034775498 60.3248125694645
    vertex 13.2000004461509 -10.7000034990012 60.3248125618304
  endloop
endfacet
facet normal -2.91760024853982e-009 -0.608761422081827 0.793353345606428
  outer loop
    vertex 10.8000003984669 -10.7000034775498 60.3248125694645
    vertex 13.2000004503929 -10.3272112903678 60.6108660792517
    vertex 10.8000004027089 -10.3272112689164 60.6108660868858
  endloop
endfacet
facet normal -4.81705057424187e-010 -0.382683424298596 0.923879535852538
  outer loop
    vertex 13.2000004416987 -11.1341292193867 60.1449918051124
    vertex 10.8000003984669 -10.7000034775498 60.3248125694645
    vertex 10.8000003940147 -11.1341291979353 60.1449918127466
  endloop
endfacet
facet normal -4.81705057424187e-010 -0.382683424298596 0.923879535852538
  outer loop
    vertex 10.8000003984669 -10.7000034775498 60.3248125694645
    vertex 13.2000004416987 -11.1341292193867 60.1449918051124
    vertex 13.2000004461509 -10.7000034990012 60.3248125618304
  endloop
endfacet
facet normal -8.93800467711395e-009 -1.0 8.7311366470107e-009
  outer loop
    vertex 10.8000003995547 -15.4000034901327 58.8836583551943
    vertex 13.2000003588436 -15.4000036233424 46.0836583475603
    vertex 13.200000399559 -15.4000035115839 58.8836583475603
  endloop
endfacet
facet normal -8.93800467711395e-009 -1.0 8.7311366470107e-009
  outer loop
    vertex 13.2000003588436 -15.4000036233424 46.0836583475603
    vertex 10.8000003995547 -15.4000034901327 58.8836583551943
    vertex 10.8000003588394 -15.4000036018913 46.0836583551944
  endloop
endfacet
facet normal 3.18083994821378e-009 8.73113661858034e-009 1.0
  outer loop
    vertex 13.2000003141542 -20.4000036233424 46.083658391216
    vertex 10.8000003588394 -15.4000036018913 46.0836583551944
    vertex 10.8000003141499 -20.4000036018912 46.08365839885
  endloop
endfacet
facet normal 3.18083994821378e-009 8.73113661858034e-009 1.0
  outer loop
    vertex 10.8000003588394 -15.4000036018913 46.0836583551944
    vertex 13.2000003141542 -20.4000036233424 46.083658391216
    vertex 13.2000003588436 -15.4000036233424 46.0836583475603
  endloop
endfacet
facet normal 8.93800467711395e-009 1.0 -8.7311366470107e-009
  outer loop
    vertex 10.8000003141499 -20.4000036018912 46.08365839885
    vertex 13.2000003548683 -20.4000035115838 58.883658391216
    vertex 13.2000003141542 -20.4000036233424 46.083658391216
  endloop
endfacet
facet normal 8.93800467711395e-009 1.0 -8.7311366470107e-009
  outer loop
    vertex 13.2000003548683 -20.4000035115838 58.883658391216
    vertex 10.8000003141499 -20.4000036018912 46.08365839885
    vertex 10.8000003548641 -20.4000034901327 58.88365839885
  endloop
endfacet
facet normal -3.18083994821378e-009 -8.73113661858034e-009 -1.0
  outer loop
    vertex 10.8000003995547 -15.4000034901327 58.8836583551943
    vertex 13.2000003548683 -20.4000035115838 58.883658391216
    vertex 10.8000003548641 -20.4000034901327 58.88365839885
  endloop
endfacet
facet normal -3.18083994821378e-009 -8.73113661858034e-009 -1.0
  outer loop
    vertex 13.2000003548683 -20.4000035115838 58.883658391216
    vertex 10.8000003995547 -15.4000034901327 58.8836583551943
    vertex 13.200000399559 -15.4000035115839 58.8836583475603
  endloop
endfacet
facet normal 8.93808354245223e-009 1.0 -8.73113664701095e-009
  outer loop
    vertex 10.8000002573311 -22.7000037014262 34.6836584189316
    vertex 13.2000002700551 -22.700003687953 38.6836584112977
    vertex 13.2000002573319 -22.7000037228776 34.6836584112977
  endloop
endfacet
facet normal 8.93808354245223e-009 1.0 -8.73113664701095e-009
  outer loop
    vertex 13.2000002700551 -22.700003687953 38.6836584112977
    vertex 10.8000002573311 -22.7000037014262 34.6836584189316
    vertex 10.8000002700543 -22.7000036665016 38.6836584189317
  endloop
endfacet
facet normal -3.1808237334065e-009 -8.73113661858048e-009 -1.0
  outer loop
    vertex 10.8000003808867 -10.3000036665016 38.6836583106656
    vertex 13.2000002700551 -22.700003687953 38.6836584112977
    vertex 10.8000002700543 -22.7000036665016 38.6836584189317
  endloop
endfacet
facet normal -3.1808237334065e-009 -8.73113661858048e-009 -1.0
  outer loop
    vertex 13.2000002700551 -22.700003687953 38.6836584112977
    vertex 10.8000003808867 -10.3000036665016 38.6836583106656
    vertex 13.2000003808875 -10.300003687953 38.6836583030316
  endloop
endfacet
facet normal -8.93808354245223e-009 -1.0 8.73113664701095e-009
  outer loop
    vertex 13.2000003808875 -10.300003687953 38.6836583030316
    vertex 10.8000003681633 -10.3000037014262 34.6836583106656
    vertex 13.2000003681641 -10.3000037228776 34.6836583030316
  endloop
endfacet
facet normal -8.93808354245223e-009 -1.0 8.73113664701095e-009
  outer loop
    vertex 10.8000003681633 -10.3000037014262 34.6836583106656
    vertex 13.2000003808875 -10.300003687953 38.6836583030316
    vertex 10.8000003808867 -10.3000036665016 38.6836583106656
  endloop
endfacet
facet normal 3.1808237334065e-009 8.73113661858048e-009 1.0
  outer loop
    vertex 13.2000003681641 -10.3000037228776 34.6836583030316
    vertex 10.8000002573311 -22.7000037014262 34.6836584189316
    vertex 13.2000002573319 -22.7000037228776 34.6836584112977
  endloop
endfacet
facet normal 3.1808237334065e-009 8.73113661858048e-009 1.0
  outer loop
    vertex 10.8000002573311 -22.7000037014262 34.6836584189316
    vertex 13.2000003681641 -10.3000037228776 34.6836583030316
    vertex 10.8000003681633 -10.3000037014262 34.6836583106656
  endloop
endfacet
facet normal 1.0 -8.93809386502636e-009 -3.18088581037303e-009
  outer loop
    vertex 13.2000004818459 -8.40000345745104 65.0836582685607
    vertex 13.2000003681641 -10.3000037228776 34.6836583030316
    vertex 13.2000003558828 -8.40000380320406 25.4836582864422
  endloop
endfacet
facet normal 1.0 -8.93809386502636e-009 -3.18088581037303e-009
  outer loop
    vertex 13.2000003681641 -10.3000037228776 34.6836583030316
    vertex 13.2000004818459 -8.40000345745104 65.0836582685607
    vertex 13.2000003993531 -9.80000364953606 43.0836582807843
  endloop
endfacet
facet normal 1.0 -8.93809386502636e-009 -3.18088581037303e-009
  outer loop
    vertex 13.2000003681641 -10.3000037228776 34.6836583030316
    vertex 13.2000003993531 -9.80000364953606 43.0836582807843
    vertex 13.2000003808875 -10.300003687953 38.6836583030316
  endloop
endfacet
facet normal 1.0 -8.93809386502636e-009 -3.18088581037303e-009
  outer loop
    vertex 13.2000003808875 -10.300003687953 38.6836583030316
    vertex 13.2000003993531 -9.80000364953606 43.0836582807843
    vertex 13.200000397323 -9.86133716628335 42.6177840001353
  endloop
endfacet
facet normal 1.0 -8.93809386502636e-009 -3.18088581037303e-009
  outer loop
    vertex 13.2000003808875 -10.300003687953 38.6836583030316
    vertex 13.200000397323 -9.86133716628335 42.6177840001353
    vertex 13.2000003943348 -10.0411579305821 42.1836582828899
  endloop
endfacet
facet normal 1.0 -8.93809386502636e-009 -3.18088581037303e-009
  outer loop
    vertex 13.2000003808875 -10.300003687953 38.6836583030316
    vertex 13.2000003943348 -10.0411579305821 42.1836582828899
    vertex 13.2000003905922 -10.3272114545132 41.8108660792517
  endloop
endfacet
facet normal 1.0 -8.93809386502636e-009 -3.18088581037303e-009
  outer loop
    vertex 13.2000003808875 -10.300003687953 38.6836583030316
    vertex 13.2000003905922 -10.3272114545132 41.8108660792517
    vertex 13.2000003863503 -10.7000036631465 41.5248125618304
  endloop
endfacet
facet normal 1.0 -8.93809386502636e-009 -3.18088581037303e-009
  outer loop
    vertex 13.2000003808875 -10.300003687953 38.6836583030316
    vertex 13.2000003863503 -10.7000036631465 41.5248125618304
    vertex 13.200000381898 -11.134129383532 41.3449918051125
  endloop
endfacet
facet normal 1.0 -8.93809386502636e-009 -3.18088581037303e-009
  outer loop
    vertex 13.2000003808875 -10.300003687953 38.6836583030316
    vertex 13.200000381898 -11.134129383532 41.3449918051125
    vertex 13.2000002700551 -22.700003687953 38.6836584112977
  endloop
endfacet
facet normal 1.0 -8.93809386502636e-009 -3.18088581037303e-009
  outer loop
    vertex 13.2000002700551 -22.700003687953 38.6836584112977
    vertex 13.200000381898 -11.134129383532 41.3449918051125
    vertex 13.2000003775389 -11.6000036652521 41.2836582965004
  endloop
endfacet
facet normal 1.0 -8.93809386502636e-009 -3.18088581037303e-009
  outer loop
    vertex 13.2000003993531 -9.80000364953606 43.0836582807843
    vertex 13.2000004818459 -8.40000345745104 65.0836582685607
    vertex 13.2000004002868 -9.86133715814812 43.5495325625044
  endloop
endfacet
facet normal 1.0 -8.93809386502636e-009 -3.18088581037303e-009
  outer loop
    vertex 13.2000004002868 -9.86133715814812 43.5495325625044
    vertex 13.2000004818459 -8.40000345745104 65.0836582685607
    vertex 13.2000004000604 -10.041157914866 43.9836582828899
  endloop
endfacet
facet normal 1.0 -8.93809386502636e-009 -3.18088581037303e-009
  outer loop
    vertex 13.2000004000604 -10.041157914866 43.9836582828899
    vertex 13.2000004818459 -8.40000345745104 65.0836582685607
    vertex 13.2000003986895 -10.3272114322873 44.3564504915232
  endloop
endfacet
facet normal 1.0 -8.93809386502636e-009 -3.18088581037303e-009
  outer loop
    vertex 13.2000003986895 -10.3272114322873 44.3564504915232
    vertex 13.2000004818459 -8.40000345745104 65.0836582685607
    vertex 13.2000003962673 -10.7000036359255 44.6425040154543
  endloop
endfacet
facet normal 1.0 -8.93809386502636e-009 -3.18088581037303e-009
  outer loop
    vertex 13.2000003962673 -10.7000036359255 44.6425040154543
    vertex 13.2000004818459 -8.40000345745104 65.0836582685607
    vertex 13.200000392959 -11.134129353171 44.8223247797531
  endloop
endfacet
facet normal 1.0 -8.93809386502636e-009 -3.18088581037303e-009
  outer loop
    vertex 13.200000392959 -11.134129353171 44.8223247797531
    vertex 13.2000004818459 -8.40000345745104 65.0836582685607
    vertex 13.2000003889902 -11.60000363382 44.8836582965004
  endloop
endfacet
facet normal 1.0 -8.93809386502636e-009 -3.18088581037303e-009
  outer loop
    vertex 13.2000003889902 -11.60000363382 44.8836582965004
    vertex 13.2000004818459 -8.40000345745104 65.0836582685607
    vertex 13.2000003588436 -15.4000036233424 46.0836583475603
  endloop
endfacet
facet normal 1.0 -8.93809386502636e-009 -3.18088581037303e-009
  outer loop
    vertex 13.2000003889902 -11.60000363382 44.8836582965004
    vertex 13.2000003588436 -15.4000036233424 46.0836583475603
    vertex 13.2000003141542 -20.4000036233424 46.083658391216
  endloop
endfacet
facet normal 1.0 -8.93809386502636e-009 -3.18088581037303e-009
  outer loop
    vertex 13.2000003588436 -15.4000036233424 46.0836583475603
    vertex 13.2000004818459 -8.40000345745104 65.0836582685607
    vertex 13.2000004571236 -9.86133700213797 61.4177840001353
  endloop
endfacet
facet normal 1.0 -8.93809386502636e-009 -3.18088581037303e-009
  outer loop
    vertex 13.2000003588436 -15.4000036233424 46.0836583475603
    vertex 13.2000004571236 -9.86133700213797 61.4177840001353
    vertex 13.2000004541355 -10.0411577664367 60.9836582828899
  endloop
endfacet
facet normal 1.0 -8.93809386502636e-009 -3.18088581037303e-009
  outer loop
    vertex 13.2000003588436 -15.4000036233424 46.0836583475603
    vertex 13.2000004541355 -10.0411577664367 60.9836582828899
    vertex 13.2000004503929 -10.3272112903678 60.6108660792517
  endloop
endfacet
facet normal 1.0 -8.93809386502636e-009 -3.18088581037303e-009
  outer loop
    vertex 13.2000003588436 -15.4000036233424 46.0836583475603
    vertex 13.2000004503929 -10.3272112903678 60.6108660792517
    vertex 13.2000004461509 -10.7000034990012 60.3248125618304
  endloop
endfacet
facet normal 1.0 -8.93809386502636e-009 -3.18088581037303e-009
  outer loop
    vertex 13.2000003588436 -15.4000036233424 46.0836583475603
    vertex 13.2000004461509 -10.7000034990012 60.3248125618304
    vertex 13.2000004416987 -11.1341292193867 60.1449918051124
  endloop
endfacet
facet normal 1.0 -8.93809386502636e-009 -3.18088581037303e-009
  outer loop
    vertex 13.2000003588436 -15.4000036233424 46.0836583475603
    vertex 13.2000004416987 -11.1341292193867 60.1449918051124
    vertex 13.200000399559 -15.4000035115839 58.8836583475603
  endloop
endfacet
facet normal 1.0 -8.93809386502636e-009 -3.18088581037303e-009
  outer loop
    vertex 13.200000399559 -15.4000035115839 58.8836583475603
    vertex 13.2000004416987 -11.1341292193867 60.1449918051124
    vertex 13.2000003548683 -20.4000035115838 58.883658391216
  endloop
endfacet
facet normal 1.0 -8.93809386502636e-009 -3.18088581037303e-009
  outer loop
    vertex 13.2000003548683 -20.4000035115838 58.883658391216
    vertex 13.2000004416987 -11.1341292193867 60.1449918051124
    vertex 13.2000004373396 -11.6000035011067 60.0836582965004
  endloop
endfacet
facet normal 1.0 -8.93809386502636e-009 -3.18088581037303e-009
  outer loop
    vertex 13.2000004571236 -9.86133700213797 61.4177840001353
    vertex 13.2000004818459 -8.40000345745104 65.0836582685607
    vertex 13.2000004591537 -9.80000348539069 61.8836582807844
  endloop
endfacet
facet normal 1.0 -8.93809386502636e-009 -3.18088581037303e-009
  outer loop
    vertex 13.2000004591537 -9.80000348539069 61.8836582807844
    vertex 13.2000004818459 -8.40000345745104 65.0836582685607
    vertex 13.2000004600874 -9.86133699400271 62.3495325625044
  endloop
endfacet
facet normal 1.0 -8.93809386502636e-009 -3.18088581037303e-009
  outer loop
    vertex 13.2000004600874 -9.86133699400271 62.3495325625044
    vertex 13.2000004818459 -8.40000345745104 65.0836582685607
    vertex 13.2000004598611 -10.0411577507207 62.7836582828899
  endloop
endfacet
facet normal 1.0 -8.93809386502636e-009 -3.18088581037303e-009
  outer loop
    vertex 13.2000004598611 -10.0411577507207 62.7836582828899
    vertex 13.2000004818459 -8.40000345745104 65.0836582685607
    vertex 13.2000004584901 -10.327211268142 63.1564504915233
  endloop
endfacet
facet normal 1.0 -8.93809386502636e-009 -3.18088581037303e-009
  outer loop
    vertex 13.2000004584901 -10.327211268142 63.1564504915233
    vertex 13.2000004818459 -8.40000345745104 65.0836582685607
    vertex 13.200000456068 -10.7000034717802 63.4425040154543
  endloop
endfacet
facet normal 1.0 -8.93809386502636e-009 -3.18088581037303e-009
  outer loop
    vertex 13.200000456068 -10.7000034717802 63.4425040154543
    vertex 13.2000004818459 -8.40000345745104 65.0836582685607
    vertex 13.2000004527597 -11.1341291890256 63.6223247797531
  endloop
endfacet
facet normal 1.0 -8.93809386502636e-009 -3.18088581037303e-009
  outer loop
    vertex 13.2000004527597 -11.1341291890256 63.6223247797531
    vertex 13.2000004818459 -8.40000345745104 65.0836582685607
    vertex 13.2000004487908 -11.6000034696746 63.6836582965004
  endloop
endfacet
facet normal 1.0 -8.93809386502636e-009 -3.18088581037303e-009
  outer loop
    vertex 13.2000002110857 -24.6000038032041 25.4836584278866
    vertex 13.2000002573319 -22.7000037228776 34.6836584112977
    vertex 13.2000003370488 -24.600003457451 65.0836584100052
  endloop
endfacet
facet normal 1.0 -8.93809386502636e-009 -3.18088581037303e-009
  outer loop
    vertex 13.2000002573319 -22.7000037228776 34.6836584112977
    vertex 13.2000002110857 -24.6000038032041 25.4836584278866
    vertex 13.2000003558828 -8.40000380320406 25.4836582864422
  endloop
endfacet
facet normal 1.0 -8.93809386502636e-009 -3.18088581037303e-009
  outer loop
    vertex 13.2000002573319 -22.7000037228776 34.6836584112977
    vertex 13.2000003558828 -8.40000380320406 25.4836582864422
    vertex 13.2000003681641 -10.3000037228776 34.6836583030316
  endloop
endfacet
facet normal 1.0 -8.93809386502636e-009 -3.18088581037303e-009
  outer loop
    vertex 13.2000003370488 -24.600003457451 65.0836584100052
    vertex 13.2000002573319 -22.7000037228776 34.6836584112977
    vertex 13.2000002700551 -22.700003687953 38.6836584112977
  endloop
endfacet
facet normal 1.0 -8.93809386502636e-009 -3.18088581037303e-009
  outer loop
    vertex 13.2000003370488 -24.600003457451 65.0836584100052
    vertex 13.2000002700551 -22.700003687953 38.6836584112977
    vertex 13.2000003141542 -20.4000036233424 46.083658391216
  endloop
endfacet
facet normal 1.0 -8.93809386502636e-009 -3.18088581037303e-009
  outer loop
    vertex 13.2000003141542 -20.4000036233424 46.083658391216
    vertex 13.2000002700551 -22.700003687953 38.6836584112977
    vertex 13.2000003702617 -12.5000036631465 41.5248125775464
  endloop
endfacet
facet normal 1.0 -8.93809386502636e-009 -3.18088581037303e-009
  outer loop
    vertex 13.2000003702617 -12.5000036631465 41.5248125775464
    vertex 13.2000002700551 -22.700003687953 38.6836584112977
    vertex 13.20000037357 -12.0658779459011 41.3449918132477
  endloop
endfacet
facet normal 1.0 -8.93809386502636e-009 -3.18088581037303e-009
  outer loop
    vertex 13.20000037357 -12.0658779459011 41.3449918132477
    vertex 13.2000002700551 -22.700003687953 38.6836584112977
    vertex 13.2000003775389 -11.6000036652521 41.2836582965004
  endloop
endfacet
facet normal 1.0 -8.93809386502636e-009 -3.18088581037303e-009
  outer loop
    vertex 13.2000003141542 -20.4000036233424 46.083658391216
    vertex 13.2000003702617 -12.5000036631465 41.5248125775464
    vertex 13.2000003678396 -12.8727958667847 41.8108661014775
  endloop
endfacet
facet normal 1.0 -8.93809386502636e-009 -3.18088581037303e-009
  outer loop
    vertex 13.2000003141542 -20.4000036233424 46.083658391216
    vertex 13.2000003678396 -12.8727958667847 41.8108661014775
    vertex 13.2000003664686 -13.158849384206 42.1836583101109
  endloop
endfacet
facet normal 1.0 -8.93809386502636e-009 -3.18088581037303e-009
  outer loop
    vertex 13.2000003141542 -20.4000036233424 46.083658391216
    vertex 13.2000003664686 -13.158849384206 42.1836583101109
    vertex 13.2000003662423 -13.338670140924 42.6177840304964
  endloop
endfacet
facet normal 1.0 -8.93809386502636e-009 -3.18088581037303e-009
  outer loop
    vertex 13.2000003141542 -20.4000036233424 46.083658391216
    vertex 13.2000003662423 -13.338670140924 42.6177840304964
    vertex 13.200000367176 -13.4000036495361 43.0836583122164
  endloop
endfacet
facet normal 1.0 -8.93809386502636e-009 -3.18088581037303e-009
  outer loop
    vertex 13.2000003141542 -20.4000036233424 46.083658391216
    vertex 13.200000367176 -13.4000036495361 43.0836583122164
    vertex 13.2000003692061 -13.3386701327888 43.5495325928655
  endloop
endfacet
facet normal 1.0 -8.93809386502636e-009 -3.18088581037303e-009
  outer loop
    vertex 13.2000003141542 -20.4000036233424 46.083658391216
    vertex 13.2000003692061 -13.3386701327888 43.5495325928655
    vertex 13.2000003721942 -13.15884936849 43.9836583101109
  endloop
endfacet
facet normal 1.0 -8.93809386502636e-009 -3.18088581037303e-009
  outer loop
    vertex 13.2000003141542 -20.4000036233424 46.083658391216
    vertex 13.2000003721942 -13.15884936849 43.9836583101109
    vertex 13.2000003759367 -12.8727958445589 44.3564505137491
  endloop
endfacet
facet normal 1.0 -8.93809386502636e-009 -3.18088581037303e-009
  outer loop
    vertex 13.2000003141542 -20.4000036233424 46.083658391216
    vertex 13.2000003759367 -12.8727958445589 44.3564505137491
    vertex 13.2000003801787 -12.5000036359255 44.6425040311704
  endloop
endfacet
facet normal 1.0 -8.93809386502636e-009 -3.18088581037303e-009
  outer loop
    vertex 13.2000003141542 -20.4000036233424 46.083658391216
    vertex 13.2000003801787 -12.5000036359255 44.6425040311704
    vertex 13.200000384631 -12.0658779155401 44.8223247878883
  endloop
endfacet
facet normal 1.0 -8.93809386502636e-009 -3.18088581037303e-009
  outer loop
    vertex 13.2000003141542 -20.4000036233424 46.083658391216
    vertex 13.200000384631 -12.0658779155401 44.8223247878883
    vertex 13.2000003889902 -11.60000363382 44.8836582965004
  endloop
endfacet
facet normal 1.0 -8.93809386502636e-009 -3.18088581037303e-009
  outer loop
    vertex 13.2000003370488 -24.600003457451 65.0836584100052
    vertex 13.2000003141542 -20.4000036233424 46.083658391216
    vertex 13.2000003548683 -20.4000035115838 58.883658391216
  endloop
endfacet
facet normal 1.0 -8.93809386502636e-009 -3.18088581037303e-009
  outer loop
    vertex 13.2000003370488 -24.600003457451 65.0836584100052
    vertex 13.2000003548683 -20.4000035115838 58.883658391216
    vertex 13.2000004333706 -12.0658777817557 60.1449918132477
  endloop
endfacet
facet normal 1.0 -8.93809386502636e-009 -3.18088581037303e-009
  outer loop
    vertex 13.2000004333706 -12.0658777817557 60.1449918132477
    vertex 13.2000003548683 -20.4000035115838 58.883658391216
    vertex 13.2000004373396 -11.6000035011067 60.0836582965004
  endloop
endfacet
facet normal 1.0 -8.93809386502636e-009 -3.18088581037303e-009
  outer loop
    vertex 13.2000003370488 -24.600003457451 65.0836584100052
    vertex 13.2000004333706 -12.0658777817557 60.1449918132477
    vertex 13.2000004300624 -12.5000034990011 60.3248125775464
  endloop
endfacet
facet normal 1.0 -8.93809386502636e-009 -3.18088581037303e-009
  outer loop
    vertex 13.2000003370488 -24.600003457451 65.0836584100052
    vertex 13.2000004300624 -12.5000034990011 60.3248125775464
    vertex 13.2000004276402 -12.8727957026393 60.6108661014775
  endloop
endfacet
facet normal 1.0 -8.93809386502636e-009 -3.18088581037303e-009
  outer loop
    vertex 13.2000003370488 -24.600003457451 65.0836584100052
    vertex 13.2000004276402 -12.8727957026393 60.6108661014775
    vertex 13.2000004262693 -13.1588492200607 60.9836583101109
  endloop
endfacet
facet normal 1.0 -8.93809386502636e-009 -3.18088581037303e-009
  outer loop
    vertex 13.2000003370488 -24.600003457451 65.0836584100052
    vertex 13.2000004262693 -13.1588492200607 60.9836583101109
    vertex 13.2000004260429 -13.3386699767786 61.4177840304964
  endloop
endfacet
facet normal 1.0 -8.93809386502636e-009 -3.18088581037303e-009
  outer loop
    vertex 13.2000003370488 -24.600003457451 65.0836584100052
    vertex 13.2000004260429 -13.3386699767786 61.4177840304964
    vertex 13.2000004269766 -13.4000034853907 61.8836583122164
  endloop
endfacet
facet normal 1.0 -8.93809386502636e-009 -3.18088581037303e-009
  outer loop
    vertex 13.2000003370488 -24.600003457451 65.0836584100052
    vertex 13.2000004269766 -13.4000034853907 61.8836583122164
    vertex 13.2000004290067 -13.3386699686434 62.3495325928655
  endloop
endfacet
facet normal 1.0 -8.93809386502636e-009 -3.18088581037303e-009
  outer loop
    vertex 13.2000003370488 -24.600003457451 65.0836584100052
    vertex 13.2000004290067 -13.3386699686434 62.3495325928655
    vertex 13.2000004319949 -13.1588492043447 62.7836583101109
  endloop
endfacet
facet normal 1.0 -8.93809386502636e-009 -3.18088581037303e-009
  outer loop
    vertex 13.2000003370488 -24.600003457451 65.0836584100052
    vertex 13.2000004319949 -13.1588492043447 62.7836583101109
    vertex 13.2000004357374 -12.8727956804136 63.1564505137491
  endloop
endfacet
facet normal 1.0 -8.93809386502636e-009 -3.18088581037303e-009
  outer loop
    vertex 13.2000003370488 -24.600003457451 65.0836584100052
    vertex 13.2000004357374 -12.8727956804136 63.1564505137491
    vertex 13.2000004399794 -12.5000034717802 63.4425040311704
  endloop
endfacet
facet normal 1.0 -8.93809386502636e-009 -3.18088581037303e-009
  outer loop
    vertex 13.2000003370488 -24.600003457451 65.0836584100052
    vertex 13.2000004399794 -12.5000034717802 63.4425040311704
    vertex 13.2000004444316 -12.0658777513947 63.6223247878883
  endloop
endfacet
facet normal 1.0 -8.93809386502636e-009 -3.18088581037303e-009
  outer loop
    vertex 13.2000003370488 -24.600003457451 65.0836584100052
    vertex 13.2000004444316 -12.0658777513947 63.6223247878883
    vertex 13.2000004487908 -11.6000034696746 63.6836582965004
  endloop
endfacet
facet normal 1.0 -8.93809386502636e-009 -3.18088581037303e-009
  outer loop
    vertex 13.2000003370488 -24.600003457451 65.0836584100052
    vertex 13.2000004487908 -11.6000034696746 63.6836582965004
    vertex 13.2000004818459 -8.40000345745104 65.0836582685607
  endloop
endfacet
facet normal -1.0 8.93809016858768e-009 3.18088669140212e-009
  outer loop
    vertex 10.8000003370489 -24.6000034359996 65.0836584176394
    vertex 10.8000002573311 -22.7000037014262 34.6836584189316
    vertex 10.8000002110857 -24.6000037817526 25.4836584355208
  endloop
endfacet
facet normal -1.0 8.93809016858768e-009 3.18088669140212e-009
  outer loop
    vertex 10.8000002573311 -22.7000037014262 34.6836584189316
    vertex 10.8000003370489 -24.6000034359996 65.0836584176394
    vertex 10.8000002700543 -22.7000036665016 38.6836584189317
  endloop
endfacet
facet normal -1.0 8.93809016858768e-009 3.18088669140212e-009
  outer loop
    vertex 10.8000002700543 -22.7000036665016 38.6836584189317
    vertex 10.8000003370489 -24.6000034359996 65.0836584176394
    vertex 10.8000003141499 -20.4000036018912 46.08365839885
  endloop
endfacet
facet normal -1.0 8.93809016858768e-009 3.18088669140212e-009
  outer loop
    vertex 10.8000002700543 -22.7000036665016 38.6836584189317
    vertex 10.8000003141499 -20.4000036018912 46.08365839885
    vertex 10.8000000424341 -12.5000036416951 41.5248125851805
  endloop
endfacet
facet normal -1.0 8.93809016858768e-009 3.18088669140212e-009
  outer loop
    vertex 10.8000002700543 -22.7000036665016 38.6836584189317
    vertex 10.8000000424341 -12.5000036416951 41.5248125851805
    vertex 10.8000000457424 -12.0658779244497 41.3449918208818
  endloop
endfacet
facet normal -1.0 8.93809016858768e-009 3.18088669140212e-009
  outer loop
    vertex 10.8000002700543 -22.7000036665016 38.6836584189317
    vertex 10.8000000457424 -12.0658779244497 41.3449918208818
    vertex 10.8000000497113 -11.6000036438007 41.2836583041345
  endloop
endfacet
facet normal -1.0 8.93809016858768e-009 3.18088669140212e-009
  outer loop
    vertex 10.8000000424341 -12.5000036416951 41.5248125851805
    vertex 10.8000003141499 -20.4000036018912 46.08365839885
    vertex 10.800000040012 -12.8727958453333 41.8108661091117
  endloop
endfacet
facet normal -1.0 8.93809016858768e-009 3.18088669140212e-009
  outer loop
    vertex 10.800000040012 -12.8727958453333 41.8108661091117
    vertex 10.8000003141499 -20.4000036018912 46.08365839885
    vertex 10.800000038641 -13.1588493627546 42.183658317745
  endloop
endfacet
facet normal -1.0 8.93809016858768e-009 3.18088669140212e-009
  outer loop
    vertex 10.800000038641 -13.1588493627546 42.183658317745
    vertex 10.8000003141499 -20.4000036018912 46.08365839885
    vertex 10.8000000384147 -13.3386701194726 42.6177840381305
  endloop
endfacet
facet normal -1.0 8.93809016858768e-009 3.18088669140212e-009
  outer loop
    vertex 10.8000000384147 -13.3386701194726 42.6177840381305
    vertex 10.8000003141499 -20.4000036018912 46.08365839885
    vertex 10.8000000393484 -13.4000036280846 43.0836583198506
  endloop
endfacet
facet normal -1.0 8.93809016858768e-009 3.18088669140212e-009
  outer loop
    vertex 10.8000000393484 -13.4000036280846 43.0836583198506
    vertex 10.8000003141499 -20.4000036018912 46.08365839885
    vertex 10.8000000413785 -13.3386701113373 43.5495326004996
  endloop
endfacet
facet normal -1.0 8.93809016858768e-009 3.18088669140212e-009
  outer loop
    vertex 10.8000000413785 -13.3386701113373 43.5495326004996
    vertex 10.8000003141499 -20.4000036018912 46.08365839885
    vertex 10.8000000443666 -13.1588493470386 43.983658317745
  endloop
endfacet
facet normal -1.0 8.93809016858768e-009 3.18088669140212e-009
  outer loop
    vertex 10.8000000443666 -13.1588493470386 43.983658317745
    vertex 10.8000003141499 -20.4000036018912 46.08365839885
    vertex 10.8000000481092 -12.8727958231075 44.3564505213832
  endloop
endfacet
facet normal -1.0 8.93809016858768e-009 3.18088669140212e-009
  outer loop
    vertex 10.8000000481092 -12.8727958231075 44.3564505213832
    vertex 10.8000003141499 -20.4000036018912 46.08365839885
    vertex 10.8000000523512 -12.5000036144741 44.6425040388045
  endloop
endfacet
facet normal -1.0 8.93809016858768e-009 3.18088669140212e-009
  outer loop
    vertex 10.8000000523512 -12.5000036144741 44.6425040388045
    vertex 10.8000003141499 -20.4000036018912 46.08365839885
    vertex 10.8000000568034 -12.0658778940886 44.8223247955225
  endloop
endfacet
facet normal -1.0 8.93809016858768e-009 3.18088669140212e-009
  outer loop
    vertex 10.8000000568034 -12.0658778940886 44.8223247955225
    vertex 10.8000003141499 -20.4000036018912 46.08365839885
    vertex 10.8000000611626 -11.6000036123686 44.8836583041345
  endloop
endfacet
facet normal -1.0 8.93809016858768e-009 3.18088669140212e-009
  outer loop
    vertex 10.8000003141499 -20.4000036018912 46.08365839885
    vertex 10.8000003370489 -24.6000034359996 65.0836584176394
    vertex 10.8000003548641 -20.4000034901327 58.88365839885
  endloop
endfacet
facet normal -1.0 8.93809016858768e-009 3.18088669140212e-009
  outer loop
    vertex 10.8000003548641 -20.4000034901327 58.88365839885
    vertex 10.8000003370489 -24.6000034359996 65.0836584176394
    vertex 10.8000003856866 -12.0658777603044 60.1449918208818
  endloop
endfacet
facet normal -1.0 8.93809016858768e-009 3.18088669140212e-009
  outer loop
    vertex 10.8000003548641 -20.4000034901327 58.88365839885
    vertex 10.8000003856866 -12.0658777603044 60.1449918208818
    vertex 10.8000003896556 -11.6000034796553 60.0836583041345
  endloop
endfacet
facet normal -1.0 8.93809016858768e-009 3.18088669140212e-009
  outer loop
    vertex 10.8000003856866 -12.0658777603044 60.1449918208818
    vertex 10.8000003370489 -24.6000034359996 65.0836584176394
    vertex 10.8000003823784 -12.5000034775497 60.3248125851806
  endloop
endfacet
facet normal -1.0 8.93809016858768e-009 3.18088669140212e-009
  outer loop
    vertex 10.8000003823784 -12.5000034775497 60.3248125851806
    vertex 10.8000003370489 -24.6000034359996 65.0836584176394
    vertex 10.8000003799562 -12.872795681188 60.6108661091117
  endloop
endfacet
facet normal -1.0 8.93809016858768e-009 3.18088669140212e-009
  outer loop
    vertex 10.8000003799562 -12.872795681188 60.6108661091117
    vertex 10.8000003370489 -24.6000034359996 65.0836584176394
    vertex 10.8000003785853 -13.1588491986093 60.983658317745
  endloop
endfacet
facet normal -1.0 8.93809016858768e-009 3.18088669140212e-009
  outer loop
    vertex 10.8000003785853 -13.1588491986093 60.983658317745
    vertex 10.8000003370489 -24.6000034359996 65.0836584176394
    vertex 10.8000003783589 -13.3386699553272 61.4177840381305
  endloop
endfacet
facet normal -1.0 8.93809016858768e-009 3.18088669140212e-009
  outer loop
    vertex 10.8000003783589 -13.3386699553272 61.4177840381305
    vertex 10.8000003370489 -24.6000034359996 65.0836584176394
    vertex 10.8000003792926 -13.4000034639393 61.8836583198506
  endloop
endfacet
facet normal -1.0 8.93809016858768e-009 3.18088669140212e-009
  outer loop
    vertex 10.8000003792926 -13.4000034639393 61.8836583198506
    vertex 10.8000003370489 -24.6000034359996 65.0836584176394
    vertex 10.8000003813227 -13.338669947192 62.3495326004996
  endloop
endfacet
facet normal -1.0 8.93809016858768e-009 3.18088669140212e-009
  outer loop
    vertex 10.8000003813227 -13.338669947192 62.3495326004996
    vertex 10.8000003370489 -24.6000034359996 65.0836584176394
    vertex 10.8000003843109 -13.1588491828932 62.783658317745
  endloop
endfacet
facet normal -1.0 8.93809016858768e-009 3.18088669140212e-009
  outer loop
    vertex 10.8000003843109 -13.1588491828932 62.783658317745
    vertex 10.8000003370489 -24.6000034359996 65.0836584176394
    vertex 10.8000003880534 -12.8727956589622 63.1564505213832
  endloop
endfacet
facet normal -1.0 8.93809016858768e-009 3.18088669140212e-009
  outer loop
    vertex 10.8000003880534 -12.8727956589622 63.1564505213832
    vertex 10.8000003370489 -24.6000034359996 65.0836584176394
    vertex 10.8000003922954 -12.5000034503288 63.4425040388045
  endloop
endfacet
facet normal -1.0 8.93809016858768e-009 3.18088669140212e-009
  outer loop
    vertex 10.8000003922954 -12.5000034503288 63.4425040388045
    vertex 10.8000003370489 -24.6000034359996 65.0836584176394
    vertex 10.8000003967476 -12.0658777299433 63.6223247955225
  endloop
endfacet
facet normal -1.0 8.93809016858768e-009 3.18088669140212e-009
  outer loop
    vertex 10.8000003967476 -12.0658777299433 63.6223247955225
    vertex 10.8000003370489 -24.6000034359996 65.0836584176394
    vertex 10.8000004011068 -11.6000034482232 63.6836583041345
  endloop
endfacet
facet normal -1.0 8.93809016858768e-009 3.18088669140212e-009
  outer loop
    vertex 10.8000004011068 -11.6000034482232 63.6836583041345
    vertex 10.8000003370489 -24.6000034359996 65.0836584176394
    vertex 10.8000004818459 -8.40000343599962 65.0836582761949
  endloop
endfacet
facet normal -1.0 8.93809016858768e-009 3.18088669140212e-009
  outer loop
    vertex 10.8000003558828 -8.40000378175266 25.4836582940764
    vertex 10.8000003681633 -10.3000037014262 34.6836583106656
    vertex 10.8000004818459 -8.40000343599962 65.0836582761949
  endloop
endfacet
facet normal -1.0 8.93809016858768e-009 3.18088669140212e-009
  outer loop
    vertex 10.8000003681633 -10.3000037014262 34.6836583106656
    vertex 10.8000003558828 -8.40000378175266 25.4836582940764
    vertex 10.8000002110857 -24.6000037817526 25.4836584355208
  endloop
endfacet
facet normal -1.0 8.93809016858768e-009 3.18088669140212e-009
  outer loop
    vertex 10.8000003681633 -10.3000037014262 34.6836583106656
    vertex 10.8000002110857 -24.6000037817526 25.4836584355208
    vertex 10.8000002573311 -22.7000037014262 34.6836584189316
  endloop
endfacet
facet normal -1.0 8.93809016858768e-009 3.18088669140212e-009
  outer loop
    vertex 10.8000004818459 -8.40000343599962 65.0836582761949
    vertex 10.8000003681633 -10.3000037014262 34.6836583106656
    vertex 10.8000000715255 -9.80000362808464 43.0836582884185
  endloop
endfacet
facet normal -1.0 8.93809016858768e-009 3.18088669140212e-009
  outer loop
    vertex 10.8000000715255 -9.80000362808464 43.0836582884185
    vertex 10.8000003681633 -10.3000037014262 34.6836583106656
    vertex 10.8000003808867 -10.3000036665016 38.6836583106656
  endloop
endfacet
facet normal -1.0 8.93809016858768e-009 3.18088669140212e-009
  outer loop
    vertex 10.8000000715255 -9.80000362808464 43.0836582884185
    vertex 10.8000003808867 -10.3000036665016 38.6836583106656
    vertex 10.8000000694954 -9.86133714483192 42.6177840077694
  endloop
endfacet
facet normal -1.0 8.93809016858768e-009 3.18088669140212e-009
  outer loop
    vertex 10.8000000694954 -9.86133714483192 42.6177840077694
    vertex 10.8000003808867 -10.3000036665016 38.6836583106656
    vertex 10.8000000665072 -10.0411579091307 42.183658290524
  endloop
endfacet
facet normal -1.0 8.93809016858768e-009 3.18088669140212e-009
  outer loop
    vertex 10.8000000665072 -10.0411579091307 42.183658290524
    vertex 10.8000003808867 -10.3000036665016 38.6836583106656
    vertex 10.8000000627647 -10.3272114330617 41.8108660868858
  endloop
endfacet
facet normal -1.0 8.93809016858768e-009 3.18088669140212e-009
  outer loop
    vertex 10.8000000627647 -10.3272114330617 41.8108660868858
    vertex 10.8000003808867 -10.3000036665016 38.6836583106656
    vertex 10.8000000585227 -10.7000036416951 41.5248125694645
  endloop
endfacet
facet normal -1.0 8.93809016858768e-009 3.18088669140212e-009
  outer loop
    vertex 10.8000000585227 -10.7000036416951 41.5248125694645
    vertex 10.8000003808867 -10.3000036665016 38.6836583106656
    vertex 10.8000000540704 -11.1341293620806 41.3449918127466
  endloop
endfacet
facet normal -1.0 8.93809016858768e-009 3.18088669140212e-009
  outer loop
    vertex 10.8000000540704 -11.1341293620806 41.3449918127466
    vertex 10.8000003808867 -10.3000036665016 38.6836583106656
    vertex 10.8000002700543 -22.7000036665016 38.6836584189317
  endloop
endfacet
facet normal -1.0 8.93809016858768e-009 3.18088669140212e-009
  outer loop
    vertex 10.8000000540704 -11.1341293620806 41.3449918127466
    vertex 10.8000002700543 -22.7000036665016 38.6836584189317
    vertex 10.8000000497113 -11.6000036438007 41.2836583041345
  endloop
endfacet
facet normal -1.0 8.93809016858768e-009 3.18088669140212e-009
  outer loop
    vertex 10.8000004818459 -8.40000343599962 65.0836582761949
    vertex 10.8000000715255 -9.80000362808464 43.0836582884185
    vertex 10.8000000724592 -9.8613371366967 43.5495325701385
  endloop
endfacet
facet normal -1.0 8.93809016858768e-009 3.18088669140212e-009
  outer loop
    vertex 10.8000004818459 -8.40000343599962 65.0836582761949
    vertex 10.8000000724592 -9.8613371366967 43.5495325701385
    vertex 10.8000000722328 -10.0411578934146 43.983658290524
  endloop
endfacet
facet normal -1.0 8.93809016858768e-009 3.18088669140212e-009
  outer loop
    vertex 10.8000004818459 -8.40000343599962 65.0836582761949
    vertex 10.8000000722328 -10.0411578934146 43.983658290524
    vertex 10.8000000708619 -10.3272114108359 44.3564504991574
  endloop
endfacet
facet normal -1.0 8.93809016858768e-009 3.18088669140212e-009
  outer loop
    vertex 10.8000004818459 -8.40000343599962 65.0836582761949
    vertex 10.8000000708619 -10.3272114108359 44.3564504991574
    vertex 10.8000000684397 -10.7000036144741 44.6425040230885
  endloop
endfacet
facet normal -1.0 8.93809016858768e-009 3.18088669140212e-009
  outer loop
    vertex 10.8000004818459 -8.40000343599962 65.0836582761949
    vertex 10.8000000684397 -10.7000036144741 44.6425040230885
    vertex 10.8000000651315 -11.1341293317196 44.8223247873872
  endloop
endfacet
facet normal -1.0 8.93809016858768e-009 3.18088669140212e-009
  outer loop
    vertex 10.8000004818459 -8.40000343599962 65.0836582761949
    vertex 10.8000000651315 -11.1341293317196 44.8223247873872
    vertex 10.8000000611626 -11.6000036123686 44.8836583041345
  endloop
endfacet
facet normal -1.0 8.93809016858768e-009 3.18088669140212e-009
  outer loop
    vertex 10.8000004818459 -8.40000343599962 65.0836582761949
    vertex 10.8000000611626 -11.6000036123686 44.8836583041345
    vertex 10.8000003588394 -15.4000036018913 46.0836583551944
  endloop
endfacet
facet normal -1.0 8.93809016858768e-009 3.18088669140212e-009
  outer loop
    vertex 10.8000003588394 -15.4000036018913 46.0836583551944
    vertex 10.8000000611626 -11.6000036123686 44.8836583041345
    vertex 10.8000003141499 -20.4000036018912 46.08365839885
  endloop
endfacet
facet normal -1.0 8.93809016858768e-009 3.18088669140212e-009
  outer loop
    vertex 10.8000004818459 -8.40000343599962 65.0836582761949
    vertex 10.8000003588394 -15.4000036018913 46.0836583551944
    vertex 10.8000004094396 -9.86133698068658 61.4177840077694
  endloop
endfacet
facet normal -1.0 8.93809016858768e-009 3.18088669140212e-009
  outer loop
    vertex 10.8000004094396 -9.86133698068658 61.4177840077694
    vertex 10.8000003588394 -15.4000036018913 46.0836583551944
    vertex 10.8000004064515 -10.0411577449853 60.983658290524
  endloop
endfacet
facet normal -1.0 8.93809016858768e-009 3.18088669140212e-009
  outer loop
    vertex 10.8000004064515 -10.0411577449853 60.983658290524
    vertex 10.8000003588394 -15.4000036018913 46.0836583551944
    vertex 10.8000004027089 -10.3272112689164 60.6108660868858
  endloop
endfacet
facet normal -1.0 8.93809016858768e-009 3.18088669140212e-009
  outer loop
    vertex 10.8000004027089 -10.3272112689164 60.6108660868858
    vertex 10.8000003588394 -15.4000036018913 46.0836583551944
    vertex 10.8000003984669 -10.7000034775498 60.3248125694645
  endloop
endfacet
facet normal -1.0 8.93809016858768e-009 3.18088669140212e-009
  outer loop
    vertex 10.8000003984669 -10.7000034775498 60.3248125694645
    vertex 10.8000003588394 -15.4000036018913 46.0836583551944
    vertex 10.8000003940147 -11.1341291979353 60.1449918127466
  endloop
endfacet
facet normal -1.0 8.93809016858768e-009 3.18088669140212e-009
  outer loop
    vertex 10.8000003940147 -11.1341291979353 60.1449918127466
    vertex 10.8000003588394 -15.4000036018913 46.0836583551944
    vertex 10.8000003995547 -15.4000034901327 58.8836583551943
  endloop
endfacet
facet normal -1.0 8.93809016858768e-009 3.18088669140212e-009
  outer loop
    vertex 10.8000003940147 -11.1341291979353 60.1449918127466
    vertex 10.8000003995547 -15.4000034901327 58.8836583551943
    vertex 10.8000003548641 -20.4000034901327 58.88365839885
  endloop
endfacet
facet normal -1.0 8.93809016858768e-009 3.18088669140212e-009
  outer loop
    vertex 10.8000003940147 -11.1341291979353 60.1449918127466
    vertex 10.8000003548641 -20.4000034901327 58.88365839885
    vertex 10.8000003896556 -11.6000034796553 60.0836583041345
  endloop
endfacet
facet normal -1.0 8.93809016858768e-009 3.18088669140212e-009
  outer loop
    vertex 10.8000004818459 -8.40000343599962 65.0836582761949
    vertex 10.8000004094396 -9.86133698068658 61.4177840077694
    vertex 10.8000004114697 -9.80000346393929 61.8836582884185
  endloop
endfacet
facet normal -1.0 8.93809016858768e-009 3.18088669140212e-009
  outer loop
    vertex 10.8000004818459 -8.40000343599962 65.0836582761949
    vertex 10.8000004114697 -9.80000346393929 61.8836582884185
    vertex 10.8000004124034 -9.86133697255132 62.3495325701385
  endloop
endfacet
facet normal -1.0 8.93809016858768e-009 3.18088669140212e-009
  outer loop
    vertex 10.8000004818459 -8.40000343599962 65.0836582761949
    vertex 10.8000004124034 -9.86133697255132 62.3495325701385
    vertex 10.8000004121771 -10.0411577292693 62.783658290524
  endloop
endfacet
facet normal -1.0 8.93809016858768e-009 3.18088669140212e-009
  outer loop
    vertex 10.8000004818459 -8.40000343599962 65.0836582761949
    vertex 10.8000004121771 -10.0411577292693 62.783658290524
    vertex 10.8000004108061 -10.3272112466906 63.1564504991574
  endloop
endfacet
facet normal -1.0 8.93809016858768e-009 3.18088669140212e-009
  outer loop
    vertex 10.8000004818459 -8.40000343599962 65.0836582761949
    vertex 10.8000004108061 -10.3272112466906 63.1564504991574
    vertex 10.800000408384 -10.7000034503288 63.4425040230885
  endloop
endfacet
facet normal -1.0 8.93809016858768e-009 3.18088669140212e-009
  outer loop
    vertex 10.8000004818459 -8.40000343599962 65.0836582761949
    vertex 10.800000408384 -10.7000034503288 63.4425040230885
    vertex 10.8000004050757 -11.1341291675742 63.6223247873872
  endloop
endfacet
facet normal -1.0 8.93809016858768e-009 3.18088669140212e-009
  outer loop
    vertex 10.8000004818459 -8.40000343599962 65.0836582761949
    vertex 10.8000004050757 -11.1341291675742 63.6223247873872
    vertex 10.8000004011068 -11.6000034482232 63.6836583041345
  endloop
endfacet
facet normal -8.93810185357411e-009 -1.0 8.73113649832687e-009
  outer loop
    vertex 10.8000003370489 -24.6000034359996 65.0836584176394
    vertex 13.2000002110857 -24.6000038032041 25.4836584278866
    vertex 13.2000003370488 -24.600003457451 65.0836584100052
  endloop
endfacet
facet normal -8.93810185357411e-009 -1.0 8.73113649832687e-009
  outer loop
    vertex 13.2000002110857 -24.6000038032041 25.4836584278866
    vertex 10.8000003370489 -24.6000034359996 65.0836584176394
    vertex 10.8000002110857 -24.6000037817526 25.4836584355208
  endloop
endfacet
facet normal 3.18089000783319e-009 8.73114004176755e-009 1.0
  outer loop
    vertex 13.2000004818459 -8.40000345745104 65.0836582685607
    vertex 10.8000003370489 -24.6000034359996 65.0836584176394
    vertex 13.2000003370488 -24.600003457451 65.0836584100052
  endloop
endfacet
facet normal 3.18089000783319e-009 8.73114004176755e-009 1.0
  outer loop
    vertex 10.8000003370489 -24.6000034359996 65.0836584176394
    vertex 13.2000004818459 -8.40000345745104 65.0836582685607
    vertex 10.8000004818459 -8.40000343599962 65.0836582761949
  endloop
endfacet
endsolid Remix of isaac879 Pan Tilt Camera Mount
