solid AltAzTrackerSketchup Nema 17
facet normal -0.991444861373819 -8.81798290497343e-014 -0.130526192219988
  outer loop
    vertex -289.997133348867 79.1183892855647 4.70590477450383
    vertex -290.167504217422 66.1183894582707 6.00000000002659
    vertex -290.167504217422 79.1183892855657 6.00000000001644
  endloop
endfacet
facet normal -0.991444861373819 -8.81798290497343e-014 -0.130526192219988
  outer loop
    vertex -290.167504217422 66.1183894582707 6.00000000002659
    vertex -289.997133348867 79.1183892855647 4.70590477450383
    vertex -289.997133348867 66.1183894582696 4.70590477451399
  endloop
endfacet
facet normal 0.130526192219958 7.73562658459226e-013 0.991444861373823
  outer loop
    vertex -285.167504217422 79.1183892855699 11.0000000000168
    vertex -283.87340899191 66.1183894582745 10.8296291314724
    vertex -283.873408991909 79.11838928557 10.8296291314622
  endloop
endfacet
facet normal 0.130526192219958 7.73562658459226e-013 0.991444861373823
  outer loop
    vertex -283.87340899191 66.1183894582745 10.8296291314724
    vertex -285.167504217422 79.1183892855699 11.0000000000168
    vertex -285.167504217423 66.1183894582747 11.000000000027
  endloop
endfacet
facet normal -0.923879532511255 -2.86720983056154e-013 -0.382683432365168
  outer loop
    vertex -289.497631236344 79.1183892855636 3.50000000001646
    vertex -289.997133348867 66.1183894582696 4.70590477451399
    vertex -289.997133348867 79.1183892855647 4.70590477450383
  endloop
endfacet
facet normal -0.923879532511255 -2.86720983056154e-013 -0.382683432365168
  outer loop
    vertex -289.997133348867 66.1183894582696 4.70590477451399
    vertex -289.497631236344 79.1183892855636 3.50000000001646
    vertex -289.497631236344 66.1183894582682 3.50000000002665
  endloop
endfacet
facet normal 0.382683432364989 7.14501539122518e-013 0.923879532511329
  outer loop
    vertex -283.873408991909 79.11838928557 10.8296291314622
    vertex -282.667504217422 66.1183894582742 10.3301270189494
    vertex -282.667504217422 79.1183892855694 10.3301270189392
  endloop
endfacet
facet normal 0.382683432364989 7.14501539122518e-013 0.923879532511329
  outer loop
    vertex -282.667504217422 66.1183894582742 10.3301270189494
    vertex -283.873408991909 79.11838928557 10.8296291314622
    vertex -283.87340899191 66.1183894582745 10.8296291314724
  endloop
endfacet
facet normal -0.130526192220119 7.8163244375394e-013 0.991444861373802
  outer loop
    vertex -286.461599442935 79.1183892855698 10.829629131462
    vertex -285.167504217423 66.1183894582747 11.000000000027
    vertex -285.167504217422 79.1183892855699 11.0000000000168
  endloop
endfacet
facet normal -0.130526192220119 7.8163244375394e-013 0.991444861373802
  outer loop
    vertex -285.167504217423 66.1183894582747 11.000000000027
    vertex -286.461599442935 79.1183892855698 10.829629131462
    vertex -286.461599442935 66.1183894582745 10.8296291314722
  endloop
endfacet
facet normal 0.923879532511232 2.8178285103223e-013 0.382683432365224
  outer loop
    vertex -280.8373771985 66.1183894582726 8.50000000002734
    vertex -280.337875085976 79.1183892855666 7.29409522552975
    vertex -280.8373771985 79.1183892855677 8.50000000001712
  endloop
endfacet
facet normal 0.923879532511232 2.8178285103223e-013 0.382683432365224
  outer loop
    vertex -280.337875085976 79.1183892855666 7.29409522552975
    vertex -280.8373771985 66.1183894582726 8.50000000002734
    vertex -280.337875085977 66.1183894582715 7.29409522553998
  endloop
endfacet
facet normal 0.608761429008733 6.18496277538002e-013 0.793353340291226
  outer loop
    vertex -281.63197031149 79.1183892855685 9.53553390594982
    vertex -282.667504217422 66.1183894582742 10.3301270189494
    vertex -281.63197031149 66.1183894582733 9.53553390596001
  endloop
endfacet
facet normal 0.608761429008733 6.18496277538002e-013 0.793353340291226
  outer loop
    vertex -282.667504217422 66.1183894582742 10.3301270189494
    vertex -281.63197031149 79.1183892855685 9.53553390594982
    vertex -282.667504217422 79.1183892855694 10.3301270189392
  endloop
endfacet
facet normal -0.608761429008679 6.30142493234622e-013 0.793353340291267
  outer loop
    vertex -288.703038123355 79.1183892855685 9.53553390594927
    vertex -287.667504217422 66.1183894582743 10.330127018949
    vertex -287.667504217422 79.1183892855696 10.3301270189388
  endloop
endfacet
facet normal -0.608761429008679 6.30142493234622e-013 0.793353340291267
  outer loop
    vertex -287.667504217422 66.1183894582743 10.330127018949
    vertex -288.703038123355 79.1183892855685 9.53553390594927
    vertex -288.703038123355 66.1183894582735 9.53553390595946
  endloop
endfacet
facet normal 0.608761429008786 -6.27792642622085e-013 -0.793353340291185
  outer loop
    vertex -282.667504217422 66.1183894582667 1.66987298110502
    vertex -281.631970311489 79.1183892855626 2.46446609408435
    vertex -281.631970311489 66.1183894582674 2.46446609409455
  endloop
endfacet
facet normal 0.608761429008786 -6.27792642622085e-013 -0.793353340291185
  outer loop
    vertex -281.631970311489 79.1183892855626 2.46446609408435
    vertex -282.667504217422 66.1183894582667 1.66987298110502
    vertex -282.667504217422 79.118389285562 1.66987298109482
  endloop
endfacet
facet normal 0.130526192220151 -7.80987494753136e-013 -0.991444861373797
  outer loop
    vertex -283.873408991909 66.1183894582662 1.17037086858176
    vertex -285.167504217421 79.1183892855614 1.0000000000168
    vertex -283.873408991909 79.1183892855615 1.17037086857156
  endloop
endfacet
facet normal 0.130526192220151 -7.80987494753136e-013 -0.991444861373797
  outer loop
    vertex -285.167504217421 79.1183892855614 1.0000000000168
    vertex -283.873408991909 66.1183894582662 1.17037086858176
    vertex -285.167504217422 66.1183894582661 1.00000000002698
  endloop
endfacet
facet normal -0.608761429008594 -6.06734777349654e-013 -0.793353340291332
  outer loop
    vertex -287.667504217422 66.1183894582666 1.66987298110459
    vertex -288.703038123354 79.1183892855627 2.4644660940838
    vertex -287.667504217421 79.118389285562 1.66987298109442
  endloop
endfacet
facet normal -0.608761429008594 -6.06734777349654e-013 -0.793353340291332
  outer loop
    vertex -288.703038123354 79.1183892855627 2.4644660940838
    vertex -287.667504217422 66.1183894582666 1.66987298110459
    vertex -288.703038123355 66.1183894582675 2.46446609409396
  endloop
endfacet
facet normal 0.382683432365146 -7.30929813842287e-013 -0.923879532511264
  outer loop
    vertex -283.873408991909 66.1183894582662 1.17037086858176
    vertex -282.667504217422 79.118389285562 1.66987298109482
    vertex -282.667504217422 66.1183894582667 1.66987298110502
  endloop
endfacet
facet normal 0.382683432365146 -7.30929813842287e-013 -0.923879532511264
  outer loop
    vertex -282.667504217422 79.118389285562 1.66987298109482
    vertex -283.873408991909 66.1183894582662 1.17037086858176
    vertex -283.873408991909 79.1183892855615 1.17037086857156
  endloop
endfacet
facet normal -0.130526192219952 -7.71981292285105e-013 -0.991444861373824
  outer loop
    vertex -285.167504217422 66.1183894582661 1.00000000002698
    vertex -286.461599442934 79.1183892855615 1.17037086857137
    vertex -285.167504217421 79.1183892855614 1.0000000000168
  endloop
endfacet
facet normal -0.130526192219952 -7.71981292285105e-013 -0.991444861373824
  outer loop
    vertex -286.461599442934 79.1183892855615 1.17037086857137
    vertex -285.167504217422 66.1183894582661 1.00000000002698
    vertex -286.461599442935 66.1183894582661 1.17037086858153
  endloop
endfacet
facet normal -0.793353340291331 4.76907043831569e-013 0.608761429008596
  outer loop
    vertex -289.497631236344 79.1183892855678 8.50000000001648
    vertex -288.703038123355 66.1183894582735 9.53553390595946
    vertex -288.703038123355 79.1183892855685 9.53553390594927
  endloop
endfacet
facet normal -0.793353340291331 4.76907043831569e-013 0.608761429008596
  outer loop
    vertex -288.703038123355 66.1183894582735 9.53553390595946
    vertex -289.497631236344 79.1183892855678 8.50000000001648
    vertex -289.497631236344 66.1183894582727 8.50000000002666
  endloop
endfacet
facet normal 0.793353340291261 -4.88963042906045e-013 -0.608761429008687
  outer loop
    vertex -280.8373771985 66.1183894582682 3.50000000002734
    vertex -281.631970311489 79.1183892855626 2.46446609408435
    vertex -280.837377198499 79.1183892855635 3.50000000001713
  endloop
endfacet
facet normal 0.793353340291261 -4.88963042906045e-013 -0.608761429008687
  outer loop
    vertex -281.631970311489 79.1183892855626 2.46446609408435
    vertex -280.8373771985 66.1183894582682 3.50000000002734
    vertex -281.631970311489 66.1183894582674 2.46446609409455
  endloop
endfacet
facet normal 0.99144486137381 8.20910344588105e-014 0.130526192220059
  outer loop
    vertex -280.337875085977 66.1183894582715 7.29409522553998
    vertex -280.167504217422 79.1183892855654 6.00000000001718
    vertex -280.337875085976 79.1183892855666 7.29409522552975
  endloop
endfacet
facet normal 0.99144486137381 8.20910344588105e-014 0.130526192220059
  outer loop
    vertex -280.167504217422 79.1183892855654 6.00000000001718
    vertex -280.337875085977 66.1183894582715 7.29409522553998
    vertex -280.167504217422 66.1183894582705 6.0000000000274
  endloop
endfacet
facet normal 0.923879532511312 -3.13784991603269e-013 -0.38268343236503
  outer loop
    vertex -280.337875085977 66.1183894582693 4.70590477451478
    vertex -280.837377198499 79.1183892855635 3.50000000001713
    vertex -280.337875085976 79.1183892855646 4.70590477450454
  endloop
endfacet
facet normal 0.923879532511312 -3.13784991603269e-013 -0.38268343236503
  outer loop
    vertex -280.837377198499 79.1183892855635 3.50000000001713
    vertex -280.337875085977 66.1183894582693 4.70590477451478
    vertex -280.8373771985 66.1183894582682 3.50000000002734
  endloop
endfacet
facet normal -0.923879532511315 2.99216351396666e-013 0.382683432365022
  outer loop
    vertex -289.997133348867 79.1183892855668 7.29409522552904
    vertex -289.497631236344 66.1183894582727 8.50000000002666
    vertex -289.497631236344 79.1183892855678 8.50000000001648
  endloop
endfacet
facet normal -0.923879532511315 2.99216351396666e-013 0.382683432365022
  outer loop
    vertex -289.497631236344 66.1183894582727 8.50000000002666
    vertex -289.997133348867 79.1183892855668 7.29409522552904
    vertex -289.997133348867 66.1183894582715 7.29409522553919
  endloop
endfacet
facet normal 0.793353340291133 4.72424391893576e-013 0.608761429008854
  outer loop
    vertex -281.63197031149 66.1183894582733 9.53553390596001
    vertex -280.8373771985 79.1183892855677 8.50000000001712
    vertex -281.63197031149 79.1183892855685 9.53553390594982
  endloop
endfacet
facet normal 0.793353340291133 4.72424391893576e-013 0.608761429008854
  outer loop
    vertex -280.8373771985 79.1183892855677 8.50000000001712
    vertex -281.63197031149 66.1183894582733 9.53553390596001
    vertex -280.8373771985 66.1183894582726 8.50000000002734
  endloop
endfacet
facet normal -0.382683432365097 -7.11448135953998e-013 -0.923879532511284
  outer loop
    vertex -286.461599442935 66.1183894582661 1.17037086858153
    vertex -287.667504217421 79.118389285562 1.66987298109442
    vertex -286.461599442934 79.1183892855615 1.17037086857137
  endloop
endfacet
facet normal -0.382683432365097 -7.11448135953998e-013 -0.923879532511284
  outer loop
    vertex -287.667504217421 79.118389285562 1.66987298109442
    vertex -286.461599442935 66.1183894582661 1.17037086858153
    vertex -287.667504217422 66.1183894582666 1.66987298110459
  endloop
endfacet
facet normal 0.991444861373819 -1.16500527177144e-013 -0.130526192219986
  outer loop
    vertex -280.167504217422 66.1183894582705 6.0000000000274
    vertex -280.337875085976 79.1183892855646 4.70590477450454
    vertex -280.167504217422 79.1183892855654 6.00000000001718
  endloop
endfacet
facet normal 0.991444861373819 -1.16500527177144e-013 -0.130526192219986
  outer loop
    vertex -280.337875085976 79.1183892855646 4.70590477450454
    vertex -280.167504217422 66.1183894582705 6.0000000000274
    vertex -280.337875085977 66.1183894582693 4.70590477451478
  endloop
endfacet
facet normal -1.13242748511871e-014 -1.0 8.61893440355079e-013
  outer loop
    vertex -281.631970311489 66.1183894582674 2.46446609409455
    vertex -285.167504217422 66.118389458267 2.000000000027
    vertex -282.667504217422 66.1183894582667 1.66987298110502
  endloop
endfacet
facet normal -1.13242748511871e-014 -1.0 8.61893440355079e-013
  outer loop
    vertex -285.167504217422 66.118389458267 2.000000000027
    vertex -281.631970311489 66.1183894582674 2.46446609409455
    vertex -284.132228037012 66.1183894582671 2.13629669487081
  endloop
endfacet
facet normal -1.13242748511871e-014 -1.0 8.61893440355079e-013
  outer loop
    vertex -284.132228037012 66.1183894582671 2.13629669487081
    vertex -281.631970311489 66.1183894582674 2.46446609409455
    vertex -283.167504217422 66.1183894582674 2.5358983848894
  endloop
endfacet
facet normal -1.13242748511871e-014 -1.0 8.61893440355079e-013
  outer loop
    vertex -283.167504217422 66.1183894582674 2.5358983848894
    vertex -281.631970311489 66.1183894582674 2.46446609409455
    vertex -280.8373771985 66.1183894582682 3.50000000002734
  endloop
endfacet
facet normal -1.13242748511871e-014 -1.0 8.61893440355079e-013
  outer loop
    vertex -283.167504217422 66.1183894582674 2.5358983848894
    vertex -280.8373771985 66.1183894582682 3.50000000002734
    vertex -282.339077092676 66.118389458268 3.17157287528103
  endloop
endfacet
facet normal -1.13242748511871e-014 -1.0 8.61893440355079e-013
  outer loop
    vertex -282.339077092676 66.118389458268 3.17157287528103
    vertex -280.8373771985 66.1183894582682 3.50000000002734
    vertex -281.703402602284 66.1183894582685 4.00000000002727
  endloop
endfacet
facet normal -1.13242748511871e-014 -1.0 8.61893440355079e-013
  outer loop
    vertex -281.703402602284 66.1183894582685 4.00000000002727
    vertex -280.8373771985 66.1183894582682 3.50000000002734
    vertex -280.337875085977 66.1183894582693 4.70590477451478
  endloop
endfacet
facet normal -1.13242748511871e-014 -1.0 8.61893440355079e-013
  outer loop
    vertex -281.703402602284 66.1183894582685 4.00000000002727
    vertex -280.337875085977 66.1183894582693 4.70590477451478
    vertex -281.303800912266 66.1183894582696 4.96472381961721
  endloop
endfacet
facet normal -1.13242748511871e-014 -1.0 8.61893440355079e-013
  outer loop
    vertex -281.303800912266 66.1183894582696 4.96472381961721
    vertex -280.337875085977 66.1183894582693 4.70590477451478
    vertex -280.167504217422 66.1183894582705 6.0000000000274
  endloop
endfacet
facet normal -1.13242748511871e-014 -1.0 8.61893440355079e-013
  outer loop
    vertex -281.303800912266 66.1183894582696 4.96472381961721
    vertex -280.167504217422 66.1183894582705 6.0000000000274
    vertex -281.167504217422 66.1183894582704 6.00000000002731
  endloop
endfacet
facet normal -1.13242748511871e-014 -1.0 8.61893440355079e-013
  outer loop
    vertex -281.167504217422 66.1183894582704 6.00000000002731
    vertex -280.167504217422 66.1183894582705 6.0000000000274
    vertex -281.303800912266 66.1183894582714 7.03527618043738
  endloop
endfacet
facet normal -1.13242748511871e-014 -1.0 8.61893440355079e-013
  outer loop
    vertex -281.303800912266 66.1183894582714 7.03527618043738
    vertex -280.167504217422 66.1183894582705 6.0000000000274
    vertex -280.337875085977 66.1183894582715 7.29409522553998
  endloop
endfacet
facet normal -1.13242748511871e-014 -1.0 8.61893440355079e-013
  outer loop
    vertex -281.303800912266 66.1183894582714 7.03527618043738
    vertex -280.337875085977 66.1183894582715 7.29409522553998
    vertex -281.703402602285 66.1183894582721 8.00000000002727
  endloop
endfacet
facet normal -1.13242748511871e-014 -1.0 8.61893440355079e-013
  outer loop
    vertex -281.703402602285 66.1183894582721 8.00000000002727
    vertex -280.337875085977 66.1183894582715 7.29409522553998
    vertex -280.8373771985 66.1183894582726 8.50000000002734
  endloop
endfacet
facet normal -1.13242748511871e-014 -1.0 8.61893440355079e-013
  outer loop
    vertex -281.703402602285 66.1183894582721 8.00000000002727
    vertex -280.8373771985 66.1183894582726 8.50000000002734
    vertex -282.339077092676 66.1183894582728 8.8284271247734
  endloop
endfacet
facet normal -1.13242748511871e-014 -1.0 8.61893440355079e-013
  outer loop
    vertex -282.339077092676 66.1183894582728 8.8284271247734
    vertex -280.8373771985 66.1183894582726 8.50000000002734
    vertex -281.63197031149 66.1183894582733 9.53553390596001
  endloop
endfacet
facet normal -1.13242748511871e-014 -1.0 8.61893440355079e-013
  outer loop
    vertex -282.339077092676 66.1183894582728 8.8284271247734
    vertex -281.63197031149 66.1183894582733 9.53553390596001
    vertex -283.167504217422 66.1183894582734 9.46410161516493
  endloop
endfacet
facet normal -1.13242748511871e-014 -1.0 8.61893440355079e-013
  outer loop
    vertex -283.167504217422 66.1183894582734 9.46410161516493
    vertex -281.63197031149 66.1183894582733 9.53553390596001
    vertex -284.132228037013 66.1183894582737 9.86370330518336
  endloop
endfacet
facet normal -1.13242748511871e-014 -1.0 8.61893440355079e-013
  outer loop
    vertex -284.132228037013 66.1183894582737 9.86370330518336
    vertex -281.63197031149 66.1183894582733 9.53553390596001
    vertex -282.667504217422 66.1183894582742 10.3301270189494
  endloop
endfacet
facet normal -1.13242748511871e-014 -1.0 8.61893440355079e-013
  outer loop
    vertex -284.132228037013 66.1183894582737 9.86370330518336
    vertex -282.667504217422 66.1183894582742 10.3301270189494
    vertex -285.167504217422 66.1183894582739 10.000000000027
  endloop
endfacet
facet normal -1.13242748511871e-014 -1.0 8.61893440355079e-013
  outer loop
    vertex -285.167504217422 66.1183894582739 10.000000000027
    vertex -282.667504217422 66.1183894582742 10.3301270189494
    vertex -287.667504217422 66.1183894582743 10.330127018949
  endloop
endfacet
facet normal -1.13242748511871e-014 -1.0 8.61893440355079e-013
  outer loop
    vertex -287.667504217422 66.1183894582743 10.330127018949
    vertex -282.667504217422 66.1183894582742 10.3301270189494
    vertex -286.461599442935 66.1183894582745 10.8296291314722
  endloop
endfacet
facet normal -1.13242748511871e-014 -1.0 8.61893440355079e-013
  outer loop
    vertex -286.461599442935 66.1183894582745 10.8296291314722
    vertex -282.667504217422 66.1183894582742 10.3301270189494
    vertex -283.87340899191 66.1183894582745 10.8296291314724
  endloop
endfacet
facet normal -1.13242748511871e-014 -1.0 8.61893440355079e-013
  outer loop
    vertex -286.461599442935 66.1183894582745 10.8296291314722
    vertex -283.87340899191 66.1183894582745 10.8296291314724
    vertex -285.167504217423 66.1183894582747 11.000000000027
  endloop
endfacet
facet normal -1.13242748511871e-014 -1.0 8.61893440355079e-013
  outer loop
    vertex -283.873408991909 66.1183894582662 1.17037086858176
    vertex -286.461599442935 66.1183894582661 1.17037086858153
    vertex -285.167504217422 66.1183894582661 1.00000000002698
  endloop
endfacet
facet normal -1.13242748511871e-014 -1.0 8.61893440355079e-013
  outer loop
    vertex -286.461599442935 66.1183894582661 1.17037086858153
    vertex -283.873408991909 66.1183894582662 1.17037086858176
    vertex -287.667504217422 66.1183894582666 1.66987298110459
  endloop
endfacet
facet normal -1.13242748511871e-014 -1.0 8.61893440355079e-013
  outer loop
    vertex -287.667504217422 66.1183894582666 1.66987298110459
    vertex -283.873408991909 66.1183894582662 1.17037086858176
    vertex -282.667504217422 66.1183894582667 1.66987298110502
  endloop
endfacet
facet normal -1.13242748511871e-014 -1.0 8.61893440355079e-013
  outer loop
    vertex -287.667504217422 66.1183894582666 1.66987298110459
    vertex -282.667504217422 66.1183894582667 1.66987298110502
    vertex -288.703038123355 66.1183894582675 2.46446609409396
  endloop
endfacet
facet normal -1.13242748511871e-014 -1.0 8.61893440355079e-013
  outer loop
    vertex -288.703038123355 66.1183894582675 2.46446609409396
    vertex -282.667504217422 66.1183894582667 1.66987298110502
    vertex -285.167504217422 66.118389458267 2.000000000027
  endloop
endfacet
facet normal -1.13242748511871e-014 -1.0 8.61893440355079e-013
  outer loop
    vertex -288.703038123355 66.1183894582675 2.46446609409396
    vertex -285.167504217422 66.118389458267 2.000000000027
    vertex -286.202780397832 66.1183894582671 2.13629669487066
  endloop
endfacet
facet normal -1.13242748511871e-014 -1.0 8.61893440355079e-013
  outer loop
    vertex -288.703038123355 66.1183894582675 2.46446609409396
    vertex -286.202780397832 66.1183894582671 2.13629669487066
    vertex -287.167504217422 66.1183894582675 2.5358983848891
  endloop
endfacet
facet normal -1.13242748511871e-014 -1.0 8.61893440355079e-013
  outer loop
    vertex -288.703038123355 66.1183894582675 2.46446609409396
    vertex -287.167504217422 66.1183894582675 2.5358983848891
    vertex -289.497631236344 66.1183894582682 3.50000000002665
  endloop
endfacet
facet normal -1.13242748511871e-014 -1.0 8.61893440355079e-013
  outer loop
    vertex -289.497631236344 66.1183894582682 3.50000000002665
    vertex -287.167504217422 66.1183894582675 2.5358983848891
    vertex -287.995931342168 66.118389458268 3.17157287528061
  endloop
endfacet
facet normal -1.13242748511871e-014 -1.0 8.61893440355079e-013
  outer loop
    vertex -289.497631236344 66.1183894582682 3.50000000002665
    vertex -287.995931342168 66.118389458268 3.17157287528061
    vertex -288.63160583256 66.1183894582688 4.00000000002675
  endloop
endfacet
facet normal -1.13242748511871e-014 -1.0 8.61893440355079e-013
  outer loop
    vertex -289.497631236344 66.1183894582682 3.50000000002665
    vertex -288.63160583256 66.1183894582688 4.00000000002675
    vertex -289.997133348867 66.1183894582696 4.70590477451399
  endloop
endfacet
facet normal -1.13242748511871e-014 -1.0 8.61893440355079e-013
  outer loop
    vertex -289.997133348867 66.1183894582696 4.70590477451399
    vertex -288.63160583256 66.1183894582688 4.00000000002675
    vertex -289.031207522578 66.1183894582697 4.96472381961664
  endloop
endfacet
facet normal -1.13242748511871e-014 -1.0 8.61893440355079e-013
  outer loop
    vertex -289.997133348867 66.1183894582696 4.70590477451399
    vertex -289.031207522578 66.1183894582697 4.96472381961664
    vertex -290.167504217422 66.1183894582707 6.00000000002659
  endloop
endfacet
facet normal -1.13242748511871e-014 -1.0 8.61893440355079e-013
  outer loop
    vertex -290.167504217422 66.1183894582707 6.00000000002659
    vertex -289.031207522578 66.1183894582697 4.96472381961664
    vertex -289.167504217422 66.1183894582705 6.00000000002671
  endloop
endfacet
facet normal -1.13242748511871e-014 -1.0 8.61893440355079e-013
  outer loop
    vertex -290.167504217422 66.1183894582707 6.00000000002659
    vertex -289.167504217422 66.1183894582705 6.00000000002671
    vertex -289.997133348867 66.1183894582715 7.29409522553919
  endloop
endfacet
facet normal -1.13242748511871e-014 -1.0 8.61893440355079e-013
  outer loop
    vertex -289.997133348867 66.1183894582715 7.29409522553919
    vertex -289.167504217422 66.1183894582705 6.00000000002671
    vertex -289.031207522579 66.1183894582714 7.0352761804368
  endloop
endfacet
facet normal -1.13242748511871e-014 -1.0 8.61893440355079e-013
  outer loop
    vertex -289.997133348867 66.1183894582715 7.29409522553919
    vertex -289.031207522579 66.1183894582714 7.0352761804368
    vertex -288.63160583256 66.1183894582721 8.00000000002675
  endloop
endfacet
facet normal -1.13242748511871e-014 -1.0 8.61893440355079e-013
  outer loop
    vertex -289.997133348867 66.1183894582715 7.29409522553919
    vertex -288.63160583256 66.1183894582721 8.00000000002675
    vertex -289.497631236344 66.1183894582727 8.50000000002666
  endloop
endfacet
facet normal -1.13242748511871e-014 -1.0 8.61893440355079e-013
  outer loop
    vertex -289.497631236344 66.1183894582727 8.50000000002666
    vertex -288.63160583256 66.1183894582721 8.00000000002675
    vertex -287.995931342168 66.1183894582729 8.82842712477299
  endloop
endfacet
facet normal -1.13242748511871e-014 -1.0 8.61893440355079e-013
  outer loop
    vertex -289.497631236344 66.1183894582727 8.50000000002666
    vertex -287.995931342168 66.1183894582729 8.82842712477299
    vertex -288.703038123355 66.1183894582735 9.53553390595946
  endloop
endfacet
facet normal -1.13242748511871e-014 -1.0 8.61893440355079e-013
  outer loop
    vertex -288.703038123355 66.1183894582735 9.53553390595946
    vertex -287.995931342168 66.1183894582729 8.82842712477299
    vertex -287.167504217422 66.1183894582733 9.46410161516461
  endloop
endfacet
facet normal -1.13242748511871e-014 -1.0 8.61893440355079e-013
  outer loop
    vertex -288.703038123355 66.1183894582735 9.53553390595946
    vertex -287.167504217422 66.1183894582733 9.46410161516461
    vertex -286.202780397833 66.1183894582737 9.8637033051832
  endloop
endfacet
facet normal -1.13242748511871e-014 -1.0 8.61893440355079e-013
  outer loop
    vertex -288.703038123355 66.1183894582735 9.53553390595946
    vertex -286.202780397833 66.1183894582737 9.8637033051832
    vertex -287.667504217422 66.1183894582743 10.330127018949
  endloop
endfacet
facet normal -1.13242748511871e-014 -1.0 8.61893440355079e-013
  outer loop
    vertex -287.667504217422 66.1183894582743 10.330127018949
    vertex -286.202780397833 66.1183894582737 9.8637033051832
    vertex -285.167504217422 66.1183894582739 10.000000000027
  endloop
endfacet
facet normal -1.33226762955124e-014 -1.0 8.61974391490767e-013
  outer loop
    vertex -284.132228037012 58.1183893241601 2.1362966948777
    vertex -286.202780397832 58.1183893241603 2.13629669487755
    vertex -285.167504217422 58.1183893241601 2.0000000000339
  endloop
endfacet
facet normal -1.33226762955124e-014 -1.0 8.61974391490767e-013
  outer loop
    vertex -286.202780397832 58.1183893241603 2.13629669487755
    vertex -284.132228037012 58.1183893241601 2.1362966948777
    vertex -287.167504217422 58.1183893241605 2.535898384896
  endloop
endfacet
facet normal -1.33226762955124e-014 -1.0 8.61974391490767e-013
  outer loop
    vertex -287.167504217422 58.1183893241605 2.535898384896
    vertex -284.132228037012 58.1183893241601 2.1362966948777
    vertex -283.167504217422 58.1183893241606 2.5358983848963
  endloop
endfacet
facet normal -1.33226762955124e-014 -1.0 8.61974391490767e-013
  outer loop
    vertex -287.167504217422 58.1183893241605 2.535898384896
    vertex -283.167504217422 58.1183893241606 2.5358983848963
    vertex -282.339077092676 58.1183893241608 3.17157287528793
  endloop
endfacet
facet normal -1.33226762955124e-014 -1.0 8.61974391490767e-013
  outer loop
    vertex -287.167504217422 58.1183893241605 2.535898384896
    vertex -282.339077092676 58.1183893241608 3.17157287528793
    vertex -287.995931342168 58.1183893241609 3.17157287528751
  endloop
endfacet
facet normal -1.33226762955124e-014 -1.0 8.61974391490767e-013
  outer loop
    vertex -287.995931342168 58.1183893241609 3.17157287528751
    vertex -282.339077092676 58.1183893241608 3.17157287528793
    vertex -281.703402602284 58.1183893241616 4.00000000003417
  endloop
endfacet
facet normal -1.33226762955124e-014 -1.0 8.61974391490767e-013
  outer loop
    vertex -287.995931342168 58.1183893241609 3.17157287528751
    vertex -281.703402602284 58.1183893241616 4.00000000003417
    vertex -288.63160583256 58.1183893241617 4.00000000003365
  endloop
endfacet
facet normal -1.33226762955124e-014 -1.0 8.61974391490767e-013
  outer loop
    vertex -288.63160583256 58.1183893241617 4.00000000003365
    vertex -281.703402602284 58.1183893241616 4.00000000003417
    vertex -281.303800912266 58.1183893241626 4.96472381962412
  endloop
endfacet
facet normal -1.33226762955124e-014 -1.0 8.61974391490767e-013
  outer loop
    vertex -288.63160583256 58.1183893241617 4.00000000003365
    vertex -281.303800912266 58.1183893241626 4.96472381962412
    vertex -289.031207522578 58.1183893241624 4.96472381962355
  endloop
endfacet
facet normal -1.33226762955124e-014 -1.0 8.61974391490767e-013
  outer loop
    vertex -289.031207522578 58.1183893241624 4.96472381962355
    vertex -281.303800912266 58.1183893241626 4.96472381962412
    vertex -281.167504217422 58.1183893241637 6.00000000003421
  endloop
endfacet
facet normal -1.33226762955124e-014 -1.0 8.61974391490767e-013
  outer loop
    vertex -289.031207522578 58.1183893241624 4.96472381962355
    vertex -281.167504217422 58.1183893241637 6.00000000003421
    vertex -289.167504217422 58.1183893241638 6.00000000003361
  endloop
endfacet
facet normal -1.33226762955124e-014 -1.0 8.61974391490767e-013
  outer loop
    vertex -289.167504217422 58.1183893241638 6.00000000003361
    vertex -281.167504217422 58.1183893241637 6.00000000003421
    vertex -281.303800912266 58.1183893241644 7.03527618044429
  endloop
endfacet
facet normal -1.33226762955124e-014 -1.0 8.61974391490767e-013
  outer loop
    vertex -289.167504217422 58.1183893241638 6.00000000003361
    vertex -281.303800912266 58.1183893241644 7.03527618044429
    vertex -289.031207522579 58.1183893241642 7.03527618044371
  endloop
endfacet
facet normal -1.33226762955124e-014 -1.0 8.61974391490767e-013
  outer loop
    vertex -289.031207522579 58.1183893241642 7.03527618044371
    vertex -281.303800912266 58.1183893241644 7.03527618044429
    vertex -281.703402602284 58.118389324165 8.00000000003419
  endloop
endfacet
facet normal -1.33226762955124e-014 -1.0 8.61974391490767e-013
  outer loop
    vertex -289.031207522579 58.1183893241642 7.03527618044371
    vertex -281.703402602284 58.118389324165 8.00000000003419
    vertex -288.63160583256 58.1183893241651 8.00000000003365
  endloop
endfacet
facet normal -1.33226762955124e-014 -1.0 8.61974391490767e-013
  outer loop
    vertex -288.63160583256 58.1183893241651 8.00000000003365
    vertex -281.703402602284 58.118389324165 8.00000000003419
    vertex -287.995931342168 58.1183893241659 8.82842712477989
  endloop
endfacet
facet normal -1.33226762955124e-014 -1.0 8.61974391490767e-013
  outer loop
    vertex -287.995931342168 58.1183893241659 8.82842712477989
    vertex -281.703402602284 58.118389324165 8.00000000003419
    vertex -282.339077092676 58.1183893241658 8.8284271247803
  endloop
endfacet
facet normal -1.33226762955124e-014 -1.0 8.61974391490767e-013
  outer loop
    vertex -287.995931342168 58.1183893241659 8.82842712477989
    vertex -282.339077092676 58.1183893241658 8.8284271247803
    vertex -283.167504217422 58.1183893241663 9.46410161517181
  endloop
endfacet
facet normal -1.33226762955124e-014 -1.0 8.61974391490767e-013
  outer loop
    vertex -287.995931342168 58.1183893241659 8.82842712477989
    vertex -283.167504217422 58.1183893241663 9.46410161517181
    vertex -287.167504217422 58.1183893241664 9.46410161517151
  endloop
endfacet
facet normal -1.33226762955124e-014 -1.0 8.61974391490767e-013
  outer loop
    vertex -287.167504217422 58.1183893241664 9.46410161517151
    vertex -283.167504217422 58.1183893241663 9.46410161517181
    vertex -284.132228037012 58.1183893241669 9.86370330519026
  endloop
endfacet
facet normal -1.33226762955124e-014 -1.0 8.61974391490767e-013
  outer loop
    vertex -287.167504217422 58.1183893241664 9.46410161517151
    vertex -284.132228037012 58.1183893241669 9.86370330519026
    vertex -286.202780397833 58.1183893241669 9.8637033051901
  endloop
endfacet
facet normal -1.33226762955124e-014 -1.0 8.61974391490767e-013
  outer loop
    vertex -286.202780397833 58.1183893241669 9.8637033051901
    vertex -284.132228037012 58.1183893241669 9.86370330519026
    vertex -285.167504217422 58.1183893241671 10.0000000000339
  endloop
endfacet
facet normal -0.793353340291282 5.35324537028573e-013 0.60876142900866
  outer loop
    vertex -288.63160583256 66.1183894582721 8.00000000002675
    vertex -287.995931342168 58.1183893241659 8.82842712477989
    vertex -287.995931342168 66.1183894582729 8.82842712477299
  endloop
endfacet
facet normal -0.793353340291282 5.35324537028573e-013 0.60876142900866
  outer loop
    vertex -287.995931342168 58.1183893241659 8.82842712477989
    vertex -288.63160583256 66.1183894582721 8.00000000002675
    vertex -288.63160583256 58.1183893241651 8.00000000003365
  endloop
endfacet
facet normal -0.991444861373828 1.08826063498953e-013 0.13052619221992
  outer loop
    vertex -290.167504217422 79.1183892855657 6.00000000001644
    vertex -289.997133348867 66.1183894582715 7.29409522553919
    vertex -289.997133348867 79.1183892855668 7.29409522552904
  endloop
endfacet
facet normal -0.991444861373828 1.08826063498953e-013 0.13052619221992
  outer loop
    vertex -289.997133348867 66.1183894582715 7.29409522553919
    vertex -290.167504217422 79.1183892855657 6.00000000001644
    vertex -290.167504217422 66.1183894582707 6.00000000002659
  endloop
endfacet
facet normal -0.793353340291197 -4.71139565160708e-013 -0.608761429008771
  outer loop
    vertex -288.703038123354 79.1183892855627 2.4644660940838
    vertex -289.497631236344 66.1183894582682 3.50000000002665
    vertex -289.497631236344 79.1183892855636 3.50000000001646
  endloop
endfacet
facet normal -0.793353340291197 -4.71139565160708e-013 -0.608761429008771
  outer loop
    vertex -289.497631236344 66.1183894582682 3.50000000002665
    vertex -288.703038123354 79.1183892855627 2.4644660940838
    vertex -288.703038123355 66.1183894582675 2.46446609409396
  endloop
endfacet
facet normal -0.38268343236526 7.31395018406229e-013 0.923879532511216
  outer loop
    vertex -287.667504217422 79.1183892855696 10.3301270189388
    vertex -286.461599442935 66.1183894582745 10.8296291314722
    vertex -286.461599442935 79.1183892855698 10.829629131462
  endloop
endfacet
facet normal -0.38268343236526 7.31395018406229e-013 0.923879532511216
  outer loop
    vertex -286.461599442935 66.1183894582745 10.8296291314722
    vertex -287.667504217422 79.1183892855696 10.3301270189388
    vertex -287.667504217422 66.1183894582743 10.330127018949
  endloop
endfacet
facet normal 0.923879532511315 -3.42167593047035e-013 -0.382683432365021
  outer loop
    vertex -281.303800912266 58.1183893241626 4.96472381962412
    vertex -281.703402602284 66.1183894582685 4.00000000002727
    vertex -281.303800912266 66.1183894582696 4.96472381961721
  endloop
endfacet
facet normal 0.923879532511315 -3.42167593047035e-013 -0.382683432365021
  outer loop
    vertex -281.703402602284 66.1183894582685 4.00000000002727
    vertex -281.303800912266 58.1183893241626 4.96472381962412
    vertex -281.703402602284 58.1183893241616 4.00000000003417
  endloop
endfacet
facet normal -0.608761429008662 -6.75677228745116e-013 -0.79335334029128
  outer loop
    vertex -287.995931342168 58.1183893241609 3.17157287528751
    vertex -287.167504217422 66.1183894582675 2.5358983848891
    vertex -287.167504217422 58.1183893241605 2.535898384896
  endloop
endfacet
facet normal -0.608761429008662 -6.75677228745116e-013 -0.79335334029128
  outer loop
    vertex -287.167504217422 66.1183894582675 2.5358983848891
    vertex -287.995931342168 58.1183893241609 3.17157287528751
    vertex -287.995931342168 66.118389458268 3.17157287528061
  endloop
endfacet
facet normal -0.793353340291187 -5.14260759421767e-013 -0.608761429008783
  outer loop
    vertex -287.995931342168 66.118389458268 3.17157287528061
    vertex -288.63160583256 58.1183893241617 4.00000000003365
    vertex -288.63160583256 66.1183894582688 4.00000000002675
  endloop
endfacet
facet normal -0.793353340291187 -5.14260759421767e-013 -0.608761429008783
  outer loop
    vertex -288.63160583256 58.1183893241617 4.00000000003365
    vertex -287.995931342168 66.118389458268 3.17157287528061
    vertex -287.995931342168 58.1183893241609 3.17157287528751
  endloop
endfacet
facet normal -0.923879532511259 -3.17627886317251e-013 -0.382683432365156
  outer loop
    vertex -288.63160583256 66.1183894582688 4.00000000002675
    vertex -289.031207522578 58.1183893241624 4.96472381962355
    vertex -289.031207522578 66.1183894582697 4.96472381961664
  endloop
endfacet
facet normal -0.923879532511259 -3.17627886317251e-013 -0.382683432365156
  outer loop
    vertex -289.031207522578 58.1183893241624 4.96472381962355
    vertex -288.63160583256 66.1183894582688 4.00000000002675
    vertex -288.63160583256 58.1183893241617 4.00000000003365
  endloop
endfacet
facet normal 0.99144486137382 -1.25664592836699e-013 -0.130526192219981
  outer loop
    vertex -281.167504217422 58.1183893241637 6.00000000003421
    vertex -281.303800912266 66.1183894582696 4.96472381961721
    vertex -281.167504217422 66.1183894582704 6.00000000002731
  endloop
endfacet
facet normal 0.99144486137382 -1.25664592836699e-013 -0.130526192219981
  outer loop
    vertex -281.303800912266 66.1183894582696 4.96472381961721
    vertex -281.167504217422 58.1183893241637 6.00000000003421
    vertex -281.303800912266 58.1183893241626 4.96472381962412
  endloop
endfacet
facet normal 0.923879532511259 3.17627886317251e-013 0.382683432365156
  outer loop
    vertex -281.703402602284 58.118389324165 8.00000000003419
    vertex -281.303800912266 66.1183894582714 7.03527618043738
    vertex -281.703402602285 66.1183894582721 8.00000000002727
  endloop
endfacet
facet normal 0.923879532511259 3.17627886317251e-013 0.382683432365156
  outer loop
    vertex -281.303800912266 66.1183894582714 7.03527618043738
    vertex -281.703402602284 58.118389324165 8.00000000003419
    vertex -281.303800912266 58.1183893241644 7.03527618044429
  endloop
endfacet
facet normal 0.793353340291282 -5.35324537028573e-013 -0.60876142900866
  outer loop
    vertex -281.703402602284 58.1183893241616 4.00000000003417
    vertex -282.339077092676 66.118389458268 3.17157287528103
    vertex -281.703402602284 66.1183894582685 4.00000000002727
  endloop
endfacet
facet normal 0.793353340291282 -5.35324537028573e-013 -0.60876142900866
  outer loop
    vertex -282.339077092676 66.118389458268 3.17157287528103
    vertex -281.703402602284 58.1183893241616 4.00000000003417
    vertex -282.339077092676 58.1183893241608 3.17157287528793
  endloop
endfacet
facet normal 0.130526192220126 -8.56331207954148e-013 -0.991444861373801
  outer loop
    vertex -285.167504217422 58.1183893241601 2.0000000000339
    vertex -284.132228037012 66.1183894582671 2.13629669487081
    vertex -284.132228037012 58.1183893241601 2.1362966948777
  endloop
endfacet
facet normal 0.130526192220126 -8.56331207954148e-013 -0.991444861373801
  outer loop
    vertex -284.132228037012 66.1183894582671 2.13629669487081
    vertex -285.167504217422 58.1183893241601 2.0000000000339
    vertex -285.167504217422 66.118389458267 2.000000000027
  endloop
endfacet
facet normal 0.991444861373801 9.91760646983076e-014 0.130526192220124
  outer loop
    vertex -281.303800912266 58.1183893241644 7.03527618044429
    vertex -281.167504217422 66.1183894582704 6.00000000002731
    vertex -281.303800912266 66.1183894582714 7.03527618043738
  endloop
endfacet
facet normal 0.991444861373801 9.91760646983076e-014 0.130526192220124
  outer loop
    vertex -281.167504217422 66.1183894582704 6.00000000002731
    vertex -281.303800912266 58.1183893241644 7.03527618044429
    vertex -281.167504217422 58.1183893241637 6.00000000003421
  endloop
endfacet
facet normal 0.793353340291185 5.14260759421767e-013 0.608761429008786
  outer loop
    vertex -282.339077092676 58.1183893241658 8.8284271247803
    vertex -281.703402602285 66.1183894582721 8.00000000002727
    vertex -282.339077092676 66.1183894582728 8.8284271247734
  endloop
endfacet
facet normal 0.793353340291185 5.14260759421767e-013 0.608761429008786
  outer loop
    vertex -281.703402602285 66.1183894582721 8.00000000002727
    vertex -282.339077092676 58.1183893241658 8.8284271247803
    vertex -281.703402602284 58.118389324165 8.00000000003419
  endloop
endfacet
facet normal -0.382683432365021 -7.91303548266242e-013 -0.923879532511315
  outer loop
    vertex -287.167504217422 58.1183893241605 2.535898384896
    vertex -286.202780397832 66.1183894582671 2.13629669487066
    vertex -286.202780397832 58.1183893241603 2.13629669487755
  endloop
endfacet
facet normal -0.382683432365021 -7.91303548266242e-013 -0.923879532511315
  outer loop
    vertex -286.202780397832 66.1183894582671 2.13629669487066
    vertex -287.167504217422 58.1183893241605 2.535898384896
    vertex -287.167504217422 66.1183894582675 2.5358983848891
  endloop
endfacet
facet normal 0.608761429008664 6.75677228745116e-013 0.793353340291279
  outer loop
    vertex -283.167504217422 66.1183894582734 9.46410161516493
    vertex -282.339077092676 58.1183893241658 8.8284271247803
    vertex -282.339077092676 66.1183894582728 8.8284271247734
  endloop
endfacet
facet normal 0.608761429008664 6.75677228745116e-013 0.793353340291279
  outer loop
    vertex -282.339077092676 58.1183893241658 8.8284271247803
    vertex -283.167504217422 66.1183894582734 9.46410161516493
    vertex -283.167504217422 58.1183893241663 9.46410161517181
  endloop
endfacet
facet normal 0.13052619221998 8.52855278831168e-013 0.99144486137382
  outer loop
    vertex -284.132228037013 66.1183894582737 9.86370330518336
    vertex -285.167504217422 58.1183893241671 10.0000000000339
    vertex -284.132228037012 58.1183893241669 9.86370330519026
  endloop
endfacet
facet normal 0.13052619221998 8.52855278831168e-013 0.99144486137382
  outer loop
    vertex -285.167504217422 58.1183893241671 10.0000000000339
    vertex -284.132228037013 66.1183894582737 9.86370330518336
    vertex -285.167504217422 66.1183894582739 10.000000000027
  endloop
endfacet
facet normal -0.923879532511315 3.42167593047035e-013 0.382683432365021
  outer loop
    vertex -289.031207522579 66.1183894582714 7.0352761804368
    vertex -288.63160583256 58.1183893241651 8.00000000003365
    vertex -288.63160583256 66.1183894582721 8.00000000002675
  endloop
endfacet
facet normal -0.923879532511315 3.42167593047035e-013 0.382683432365021
  outer loop
    vertex -288.63160583256 58.1183893241651 8.00000000003365
    vertex -289.031207522579 66.1183894582714 7.0352761804368
    vertex -289.031207522579 58.1183893241642 7.03527618044371
  endloop
endfacet
facet normal -0.130526192220129 8.56345085741956e-013 0.9914448613738
  outer loop
    vertex -285.167504217422 66.1183894582739 10.000000000027
    vertex -286.202780397833 58.1183893241669 9.8637033051901
    vertex -285.167504217422 58.1183893241671 10.0000000000339
  endloop
endfacet
facet normal -0.130526192220129 8.56345085741956e-013 0.9914448613738
  outer loop
    vertex -286.202780397833 58.1183893241669 9.8637033051901
    vertex -285.167504217422 66.1183894582739 10.000000000027
    vertex -286.202780397833 66.1183894582737 9.8637033051832
  endloop
endfacet
facet normal 0.382683432365157 -8.01480599459893e-013 -0.923879532511259
  outer loop
    vertex -284.132228037012 58.1183893241601 2.1362966948777
    vertex -283.167504217422 66.1183894582674 2.5358983848894
    vertex -283.167504217422 58.1183893241606 2.5358983848963
  endloop
endfacet
facet normal 0.382683432365157 -8.01480599459893e-013 -0.923879532511259
  outer loop
    vertex -283.167504217422 66.1183894582674 2.5358983848894
    vertex -284.132228037012 58.1183893241601 2.1362966948777
    vertex -284.132228037012 66.1183894582671 2.13629669487081
  endloop
endfacet
facet normal 0.608761429008782 -6.92016461265471e-013 -0.793353340291188
  outer loop
    vertex -283.167504217422 58.1183893241606 2.5358983848963
    vertex -282.339077092676 66.118389458268 3.17157287528103
    vertex -282.339077092676 58.1183893241608 3.17157287528793
  endloop
endfacet
facet normal 0.608761429008782 -6.92016461265471e-013 -0.793353340291188
  outer loop
    vertex -282.339077092676 66.118389458268 3.17157287528103
    vertex -283.167504217422 58.1183893241606 2.5358983848963
    vertex -283.167504217422 66.1183894582674 2.5358983848894
  endloop
endfacet
facet normal -0.382683432365157 8.01480599459893e-013 0.923879532511259
  outer loop
    vertex -286.202780397833 66.1183894582737 9.8637033051832
    vertex -287.167504217422 58.1183893241664 9.46410161517151
    vertex -286.202780397833 58.1183893241669 9.8637033051901
  endloop
endfacet
facet normal -0.382683432365157 8.01480599459893e-013 0.923879532511259
  outer loop
    vertex -287.167504217422 58.1183893241664 9.46410161517151
    vertex -286.202780397833 66.1183894582737 9.8637033051832
    vertex -287.167504217422 66.1183894582733 9.46410161516461
  endloop
endfacet
facet normal -0.608761429008782 6.92016461265471e-013 0.793353340291188
  outer loop
    vertex -287.995931342168 66.1183894582729 8.82842712477299
    vertex -287.167504217422 58.1183893241664 9.46410161517151
    vertex -287.167504217422 66.1183894582733 9.46410161516461
  endloop
endfacet
facet normal -0.608761429008782 6.92016461265471e-013 0.793353340291188
  outer loop
    vertex -287.167504217422 58.1183893241664 9.46410161517151
    vertex -287.995931342168 66.1183894582729 8.82842712477299
    vertex -287.995931342168 58.1183893241659 8.82842712477989
  endloop
endfacet
facet normal -0.991444861373801 -9.91760646983076e-014 -0.130526192220124
  outer loop
    vertex -289.031207522578 66.1183894582697 4.96472381961664
    vertex -289.167504217422 58.1183893241638 6.00000000003361
    vertex -289.167504217422 66.1183894582705 6.00000000002671
  endloop
endfacet
facet normal -0.991444861373801 -9.91760646983076e-014 -0.130526192220124
  outer loop
    vertex -289.167504217422 58.1183893241638 6.00000000003361
    vertex -289.031207522578 66.1183894582697 4.96472381961664
    vertex -289.031207522578 58.1183893241624 4.96472381962355
  endloop
endfacet
facet normal 0.382683432365023 7.91220281539394e-013 0.923879532511314
  outer loop
    vertex -284.132228037013 66.1183894582737 9.86370330518336
    vertex -283.167504217422 58.1183893241663 9.46410161517181
    vertex -283.167504217422 66.1183894582734 9.46410161516493
  endloop
endfacet
facet normal 0.382683432365023 7.91220281539394e-013 0.923879532511314
  outer loop
    vertex -283.167504217422 58.1183893241663 9.46410161517181
    vertex -284.132228037013 66.1183894582737 9.86370330518336
    vertex -284.132228037012 58.1183893241669 9.86370330519026
  endloop
endfacet
facet normal -0.99144486137382 1.25664592836699e-013 0.130526192219981
  outer loop
    vertex -289.167504217422 66.1183894582705 6.00000000002671
    vertex -289.031207522579 58.1183893241642 7.03527618044371
    vertex -289.031207522579 66.1183894582714 7.0352761804368
  endloop
endfacet
facet normal -0.99144486137382 1.25664592836699e-013 0.130526192219981
  outer loop
    vertex -289.031207522579 58.1183893241642 7.03527618044371
    vertex -289.167504217422 66.1183894582705 6.00000000002671
    vertex -289.167504217422 58.1183893241638 6.00000000003361
  endloop
endfacet
facet normal -0.130526192219977 -8.52883034406784e-013 -0.99144486137382
  outer loop
    vertex -286.202780397832 58.1183893241603 2.13629669487755
    vertex -285.167504217422 66.118389458267 2.000000000027
    vertex -285.167504217422 58.1183893241601 2.0000000000339
  endloop
endfacet
facet normal -0.130526192219977 -8.52883034406784e-013 -0.99144486137382
  outer loop
    vertex -285.167504217422 66.118389458267 2.000000000027
    vertex -286.202780397832 58.1183893241603 2.13629669487755
    vertex -286.202780397832 66.1183894582671 2.13629669487066
  endloop
endfacet
facet normal 7.46116131840795e-014 -1.38060859041414e-014 -1.0
  outer loop
    vertex -287.967504217422 79.1183892855657 4.40000000001658
    vertex -286.767504217422 88.7183892855657 4.40000000001654
    vertex -286.767504217422 79.1183892855657 4.40000000001667
  endloop
endfacet
facet normal 7.46116131840795e-014 -1.38060859041414e-014 -1.0
  outer loop
    vertex -286.767504217422 88.7183892855657 4.40000000001654
    vertex -287.967504217422 79.1183892855657 4.40000000001658
    vertex -287.967504217422 88.7183892855657 4.40000000001645
  endloop
endfacet
facet normal -1.0 7.04991620636887e-015 -6.34492458573278e-014
  outer loop
    vertex -287.967504217422 79.1183892855657 4.40000000001658
    vertex -287.967504217422 88.7183892855658 7.60000000001645
    vertex -287.967504217422 88.7183892855657 4.40000000001645
  endloop
endfacet
facet normal -1.0 7.04991620636887e-015 -6.34492458573278e-014
  outer loop
    vertex -287.967504217422 88.7183892855658 7.60000000001645
    vertex -287.967504217422 79.1183892855657 4.40000000001658
    vertex -287.967504217422 79.1183892855657 7.60000000001658
  endloop
endfacet
facet normal 7.49053596926785e-014 -1.36592126498421e-014 -1.0
  outer loop
    vertex -286.767504217422 79.1183892855657 3.20000000001667
    vertex -283.567504217422 88.7183892855655 3.20000000001678
    vertex -283.567504217422 79.1183892855656 3.20000000001691
  endloop
endfacet
facet normal 7.49053596926785e-014 -1.36592126498421e-014 -1.0
  outer loop
    vertex -283.567504217422 88.7183892855655 3.20000000001678
    vertex -286.767504217422 79.1183892855657 3.20000000001667
    vertex -286.767504217422 88.7183892855657 3.20000000001654
  endloop
endfacet
facet normal 1.0444320305734e-014 1.0 -1.40998324127388e-014
  outer loop
    vertex -286.767504217422 88.7183892855657 4.40000000001654
    vertex -283.567504217422 88.7183892855655 3.20000000001678
    vertex -286.767504217422 88.7183892855657 3.20000000001654
  endloop
endfacet
facet normal 1.0444320305734e-014 1.0 -1.40998324127388e-014
  outer loop
    vertex -283.567504217422 88.7183892855655 3.20000000001678
    vertex -286.767504217422 88.7183892855657 4.40000000001654
    vertex -283.567504217422 88.7183892855657 4.40000000001678
  endloop
endfacet
facet normal 1.0444320305734e-014 1.0 -1.40998324127388e-014
  outer loop
    vertex -283.567504217422 88.7183892855657 4.40000000001678
    vertex -286.767504217422 88.7183892855657 4.40000000001654
    vertex -287.967504217422 88.7183892855657 4.40000000001645
  endloop
endfacet
facet normal 1.0444320305734e-014 1.0 -1.40998324127388e-014
  outer loop
    vertex -283.567504217422 88.7183892855657 4.40000000001678
    vertex -287.967504217422 88.7183892855657 4.40000000001645
    vertex -287.967504217422 88.7183892855658 7.60000000001645
  endloop
endfacet
facet normal 1.0444320305734e-014 1.0 -1.40998324127388e-014
  outer loop
    vertex -283.567504217422 88.7183892855657 4.40000000001678
    vertex -287.967504217422 88.7183892855658 7.60000000001645
    vertex -282.367504217422 88.7183892855657 4.40000000001687
  endloop
endfacet
facet normal 1.0444320305734e-014 1.0 -1.40998324127388e-014
  outer loop
    vertex -282.367504217422 88.7183892855657 4.40000000001687
    vertex -287.967504217422 88.7183892855658 7.60000000001645
    vertex -286.767504217422 88.7183892855657 7.60000000001654
  endloop
endfacet
facet normal 1.0444320305734e-014 1.0 -1.40998324127388e-014
  outer loop
    vertex -286.767504217422 88.7183892855657 8.80000000001654
    vertex -283.567504217422 88.7183892855657 7.60000000001678
    vertex -286.767504217422 88.7183892855657 7.60000000001654
  endloop
endfacet
facet normal 1.0444320305734e-014 1.0 -1.40998324127388e-014
  outer loop
    vertex -283.567504217422 88.7183892855657 7.60000000001678
    vertex -286.767504217422 88.7183892855657 8.80000000001654
    vertex -283.567504217422 88.7183892855656 8.80000000001678
  endloop
endfacet
facet normal 1.0444320305734e-014 1.0 -1.40998324127388e-014
  outer loop
    vertex -282.367504217422 88.7183892855657 4.40000000001687
    vertex -283.567504217422 88.7183892855657 7.60000000001678
    vertex -282.367504217422 88.7183892855657 7.60000000001688
  endloop
endfacet
facet normal 1.0444320305734e-014 1.0 -1.40998324127388e-014
  outer loop
    vertex -283.567504217422 88.7183892855657 7.60000000001678
    vertex -282.367504217422 88.7183892855657 4.40000000001687
    vertex -286.767504217422 88.7183892855657 7.60000000001654
  endloop
endfacet
facet normal -7.34366271496846e-014 1.37326492769914e-014 1.0
  outer loop
    vertex -286.767504217422 88.7183892855657 7.60000000001654
    vertex -287.967504217422 79.1183892855657 7.60000000001658
    vertex -286.767504217422 79.1183892855657 7.60000000001667
  endloop
endfacet
facet normal -7.34366271496846e-014 1.37326492769914e-014 1.0
  outer loop
    vertex -287.967504217422 79.1183892855657 7.60000000001658
    vertex -286.767504217422 88.7183892855657 7.60000000001654
    vertex -287.967504217422 88.7183892855658 7.60000000001645
  endloop
endfacet
facet normal -1.0 4.69994413757878e-015 -7.51991062012774e-014
  outer loop
    vertex -286.767504217422 79.1183892855657 7.60000000001667
    vertex -286.767504217422 88.7183892855657 8.80000000001654
    vertex -286.767504217422 88.7183892855657 7.60000000001654
  endloop
endfacet
facet normal -1.0 4.69994413757878e-015 -7.51991062012774e-014
  outer loop
    vertex -286.767504217422 88.7183892855657 8.80000000001654
    vertex -286.767504217422 79.1183892855657 7.60000000001667
    vertex -286.767504217422 79.1183892855657 8.80000000001667
  endloop
endfacet
facet normal -1.0 9.39988827515862e-015 -7.51991062012773e-014
  outer loop
    vertex -286.767504217422 79.1183892855657 3.20000000001667
    vertex -286.767504217422 88.7183892855657 4.40000000001654
    vertex -286.767504217422 88.7183892855657 3.20000000001654
  endloop
endfacet
facet normal -1.0 9.39988827515862e-015 -7.51991062012773e-014
  outer loop
    vertex -286.767504217422 88.7183892855657 4.40000000001654
    vertex -286.767504217422 79.1183892855657 3.20000000001667
    vertex -286.767504217422 79.1183892855657 4.40000000001667
  endloop
endfacet
facet normal 1.32541172359336e-014 1.0 -8.5422417308749e-013
  outer loop
    vertex -289.997133348867 79.1183892855647 4.70590477450383
    vertex -287.967504217422 79.1183892855657 4.40000000001658
    vertex -289.497631236344 79.1183892855636 3.50000000001646
  endloop
endfacet
facet normal 1.32541172359336e-014 1.0 -8.5422417308749e-013
  outer loop
    vertex -287.967504217422 79.1183892855657 4.40000000001658
    vertex -289.997133348867 79.1183892855647 4.70590477450383
    vertex -287.967504217422 79.1183892855657 7.60000000001658
  endloop
endfacet
facet normal 1.32541172359336e-014 1.0 -8.5422417308749e-013
  outer loop
    vertex -287.967504217422 79.1183892855657 7.60000000001658
    vertex -289.997133348867 79.1183892855647 4.70590477450383
    vertex -290.167504217422 79.1183892855657 6.00000000001644
  endloop
endfacet
facet normal 1.32541172359336e-014 1.0 -8.5422417308749e-013
  outer loop
    vertex -287.967504217422 79.1183892855657 7.60000000001658
    vertex -290.167504217422 79.1183892855657 6.00000000001644
    vertex -289.997133348867 79.1183892855668 7.29409522552904
  endloop
endfacet
facet normal 1.32541172359336e-014 1.0 -8.5422417308749e-013
  outer loop
    vertex -287.967504217422 79.1183892855657 7.60000000001658
    vertex -289.997133348867 79.1183892855668 7.29409522552904
    vertex -289.497631236344 79.1183892855678 8.50000000001648
  endloop
endfacet
facet normal 1.32541172359336e-014 1.0 -8.5422417308749e-013
  outer loop
    vertex -287.967504217422 79.1183892855657 7.60000000001658
    vertex -289.497631236344 79.1183892855678 8.50000000001648
    vertex -286.767504217422 79.1183892855657 7.60000000001667
  endloop
endfacet
facet normal 1.32541172359336e-014 1.0 -8.5422417308749e-013
  outer loop
    vertex -286.767504217422 79.1183892855657 7.60000000001667
    vertex -289.497631236344 79.1183892855678 8.50000000001648
    vertex -286.767504217422 79.1183892855657 8.80000000001667
  endloop
endfacet
facet normal 1.32541172359336e-014 1.0 -8.5422417308749e-013
  outer loop
    vertex -286.767504217422 79.1183892855657 8.80000000001667
    vertex -289.497631236344 79.1183892855678 8.50000000001648
    vertex -288.703038123355 79.1183892855685 9.53553390594927
  endloop
endfacet
facet normal 1.32541172359336e-014 1.0 -8.5422417308749e-013
  outer loop
    vertex -283.567504217422 79.1183892855656 8.80000000001691
    vertex -282.367504217422 79.1183892855657 7.600000000017
    vertex -283.567504217422 79.1183892855657 7.60000000001691
  endloop
endfacet
facet normal 1.32541172359336e-014 1.0 -8.5422417308749e-013
  outer loop
    vertex -282.367504217422 79.1183892855657 7.600000000017
    vertex -283.567504217422 79.1183892855656 8.80000000001691
    vertex -280.8373771985 79.1183892855677 8.50000000001712
  endloop
endfacet
facet normal 1.32541172359336e-014 1.0 -8.5422417308749e-013
  outer loop
    vertex -280.8373771985 79.1183892855677 8.50000000001712
    vertex -283.567504217422 79.1183892855656 8.80000000001691
    vertex -281.63197031149 79.1183892855685 9.53553390594982
  endloop
endfacet
facet normal 1.32541172359336e-014 1.0 -8.5422417308749e-013
  outer loop
    vertex -281.63197031149 79.1183892855685 9.53553390594982
    vertex -283.567504217422 79.1183892855656 8.80000000001691
    vertex -286.767504217422 79.1183892855657 8.80000000001667
  endloop
endfacet
facet normal 1.32541172359336e-014 1.0 -8.5422417308749e-013
  outer loop
    vertex -281.63197031149 79.1183892855685 9.53553390594982
    vertex -286.767504217422 79.1183892855657 8.80000000001667
    vertex -288.703038123355 79.1183892855685 9.53553390594927
  endloop
endfacet
facet normal 1.32541172359336e-014 1.0 -8.5422417308749e-013
  outer loop
    vertex -281.63197031149 79.1183892855685 9.53553390594982
    vertex -288.703038123355 79.1183892855685 9.53553390594927
    vertex -287.667504217422 79.1183892855696 10.3301270189388
  endloop
endfacet
facet normal 1.32541172359336e-014 1.0 -8.5422417308749e-013
  outer loop
    vertex -281.63197031149 79.1183892855685 9.53553390594982
    vertex -287.667504217422 79.1183892855696 10.3301270189388
    vertex -282.667504217422 79.1183892855694 10.3301270189392
  endloop
endfacet
facet normal 1.32541172359336e-014 1.0 -8.5422417308749e-013
  outer loop
    vertex -282.667504217422 79.1183892855694 10.3301270189392
    vertex -287.667504217422 79.1183892855696 10.3301270189388
    vertex -283.873408991909 79.11838928557 10.8296291314622
  endloop
endfacet
facet normal 1.32541172359336e-014 1.0 -8.5422417308749e-013
  outer loop
    vertex -283.873408991909 79.11838928557 10.8296291314622
    vertex -287.667504217422 79.1183892855696 10.3301270189388
    vertex -286.461599442935 79.1183892855698 10.829629131462
  endloop
endfacet
facet normal 1.32541172359336e-014 1.0 -8.5422417308749e-013
  outer loop
    vertex -283.873408991909 79.11838928557 10.8296291314622
    vertex -286.461599442935 79.1183892855698 10.829629131462
    vertex -285.167504217422 79.1183892855699 11.0000000000168
  endloop
endfacet
facet normal 1.32541172359336e-014 1.0 -8.5422417308749e-013
  outer loop
    vertex -283.567504217422 79.1183892855656 3.20000000001691
    vertex -280.837377198499 79.1183892855635 3.50000000001713
    vertex -281.631970311489 79.1183892855626 2.46446609408435
  endloop
endfacet
facet normal 1.32541172359336e-014 1.0 -8.5422417308749e-013
  outer loop
    vertex -280.837377198499 79.1183892855635 3.50000000001713
    vertex -283.567504217422 79.1183892855656 3.20000000001691
    vertex -283.567504217422 79.1183892855656 4.40000000001691
  endloop
endfacet
facet normal 1.32541172359336e-014 1.0 -8.5422417308749e-013
  outer loop
    vertex -280.837377198499 79.1183892855635 3.50000000001713
    vertex -283.567504217422 79.1183892855656 4.40000000001691
    vertex -282.367504217422 79.1183892855656 4.400000000017
  endloop
endfacet
facet normal 1.32541172359336e-014 1.0 -8.5422417308749e-013
  outer loop
    vertex -280.837377198499 79.1183892855635 3.50000000001713
    vertex -282.367504217422 79.1183892855656 4.400000000017
    vertex -280.337875085976 79.1183892855646 4.70590477450454
  endloop
endfacet
facet normal 1.32541172359336e-014 1.0 -8.5422417308749e-013
  outer loop
    vertex -280.337875085976 79.1183892855646 4.70590477450454
    vertex -282.367504217422 79.1183892855656 4.400000000017
    vertex -282.367504217422 79.1183892855657 7.600000000017
  endloop
endfacet
facet normal 1.32541172359336e-014 1.0 -8.5422417308749e-013
  outer loop
    vertex -280.337875085976 79.1183892855646 4.70590477450454
    vertex -282.367504217422 79.1183892855657 7.600000000017
    vertex -280.167504217422 79.1183892855654 6.00000000001718
  endloop
endfacet
facet normal 1.32541172359336e-014 1.0 -8.5422417308749e-013
  outer loop
    vertex -280.167504217422 79.1183892855654 6.00000000001718
    vertex -282.367504217422 79.1183892855657 7.600000000017
    vertex -280.337875085976 79.1183892855666 7.29409522552975
  endloop
endfacet
facet normal 1.32541172359336e-014 1.0 -8.5422417308749e-013
  outer loop
    vertex -280.337875085976 79.1183892855666 7.29409522552975
    vertex -282.367504217422 79.1183892855657 7.600000000017
    vertex -280.8373771985 79.1183892855677 8.50000000001712
  endloop
endfacet
facet normal 1.32541172359336e-014 1.0 -8.5422417308749e-013
  outer loop
    vertex -286.461599442934 79.1183892855615 1.17037086857137
    vertex -283.873408991909 79.1183892855615 1.17037086857156
    vertex -285.167504217421 79.1183892855614 1.0000000000168
  endloop
endfacet
facet normal 1.32541172359336e-014 1.0 -8.5422417308749e-013
  outer loop
    vertex -283.873408991909 79.1183892855615 1.17037086857156
    vertex -286.461599442934 79.1183892855615 1.17037086857137
    vertex -282.667504217422 79.118389285562 1.66987298109482
  endloop
endfacet
facet normal 1.32541172359336e-014 1.0 -8.5422417308749e-013
  outer loop
    vertex -282.667504217422 79.118389285562 1.66987298109482
    vertex -286.461599442934 79.1183892855615 1.17037086857137
    vertex -287.667504217421 79.118389285562 1.66987298109442
  endloop
endfacet
facet normal 1.32541172359336e-014 1.0 -8.5422417308749e-013
  outer loop
    vertex -282.667504217422 79.118389285562 1.66987298109482
    vertex -287.667504217421 79.118389285562 1.66987298109442
    vertex -288.703038123354 79.1183892855627 2.4644660940838
  endloop
endfacet
facet normal 1.32541172359336e-014 1.0 -8.5422417308749e-013
  outer loop
    vertex -282.667504217422 79.118389285562 1.66987298109482
    vertex -288.703038123354 79.1183892855627 2.4644660940838
    vertex -281.631970311489 79.1183892855626 2.46446609408435
  endloop
endfacet
facet normal 1.32541172359336e-014 1.0 -8.5422417308749e-013
  outer loop
    vertex -281.631970311489 79.1183892855626 2.46446609408435
    vertex -288.703038123354 79.1183892855627 2.4644660940838
    vertex -289.497631236344 79.1183892855636 3.50000000001646
  endloop
endfacet
facet normal 1.32541172359336e-014 1.0 -8.5422417308749e-013
  outer loop
    vertex -281.631970311489 79.1183892855626 2.46446609408435
    vertex -289.497631236344 79.1183892855636 3.50000000001646
    vertex -286.767504217422 79.1183892855657 3.20000000001667
  endloop
endfacet
facet normal 1.32541172359336e-014 1.0 -8.5422417308749e-013
  outer loop
    vertex -281.631970311489 79.1183892855626 2.46446609408435
    vertex -286.767504217422 79.1183892855657 3.20000000001667
    vertex -283.567504217422 79.1183892855656 3.20000000001691
  endloop
endfacet
facet normal 1.32541172359336e-014 1.0 -8.5422417308749e-013
  outer loop
    vertex -286.767504217422 79.1183892855657 3.20000000001667
    vertex -289.497631236344 79.1183892855636 3.50000000001646
    vertex -286.767504217422 79.1183892855657 4.40000000001667
  endloop
endfacet
facet normal 1.32541172359336e-014 1.0 -8.5422417308749e-013
  outer loop
    vertex -286.767504217422 79.1183892855657 4.40000000001667
    vertex -289.497631236344 79.1183892855636 3.50000000001646
    vertex -287.967504217422 79.1183892855657 4.40000000001658
  endloop
endfacet
facet normal 7.46116131840801e-014 -1.38060859041414e-014 -1.0
  outer loop
    vertex -283.567504217422 79.1183892855656 4.40000000001691
    vertex -282.367504217422 88.7183892855657 4.40000000001687
    vertex -282.367504217422 79.1183892855656 4.400000000017
  endloop
endfacet
facet normal 7.46116131840801e-014 -1.38060859041414e-014 -1.0
  outer loop
    vertex -282.367504217422 88.7183892855657 4.40000000001687
    vertex -283.567504217422 79.1183892855656 4.40000000001691
    vertex -283.567504217422 88.7183892855657 4.40000000001678
  endloop
endfacet
facet normal 1.0 -7.04991620636885e-015 6.34492458573278e-014
  outer loop
    vertex -282.367504217422 79.1183892855657 7.600000000017
    vertex -282.367504217422 88.7183892855657 4.40000000001687
    vertex -282.367504217422 88.7183892855657 7.60000000001688
  endloop
endfacet
facet normal 1.0 -7.04991620636885e-015 6.34492458573278e-014
  outer loop
    vertex -282.367504217422 88.7183892855657 4.40000000001687
    vertex -282.367504217422 79.1183892855657 7.600000000017
    vertex -282.367504217422 79.1183892855656 4.400000000017
  endloop
endfacet
facet normal -7.40241201668826e-014 1.36592126498417e-014 1.0
  outer loop
    vertex -282.367504217422 88.7183892855657 7.60000000001688
    vertex -283.567504217422 79.1183892855657 7.60000000001691
    vertex -282.367504217422 79.1183892855657 7.600000000017
  endloop
endfacet
facet normal -7.40241201668826e-014 1.36592126498417e-014 1.0
  outer loop
    vertex -283.567504217422 79.1183892855657 7.60000000001691
    vertex -282.367504217422 88.7183892855657 7.60000000001688
    vertex -283.567504217422 88.7183892855657 7.60000000001678
  endloop
endfacet
facet normal -7.53459794555765e-014 1.36592126498417e-014 1.0
  outer loop
    vertex -283.567504217422 88.7183892855656 8.80000000001678
    vertex -286.767504217422 79.1183892855657 8.80000000001667
    vertex -283.567504217422 79.1183892855656 8.80000000001691
  endloop
endfacet
facet normal -7.53459794555765e-014 1.36592126498417e-014 1.0
  outer loop
    vertex -286.767504217422 79.1183892855657 8.80000000001667
    vertex -283.567504217422 88.7183892855656 8.80000000001678
    vertex -286.767504217422 88.7183892855657 8.80000000001654
  endloop
endfacet
facet normal 1.0 -9.39988827515862e-015 7.51991062012774e-014
  outer loop
    vertex -283.567504217422 79.1183892855656 4.40000000001691
    vertex -283.567504217422 88.7183892855655 3.20000000001678
    vertex -283.567504217422 88.7183892855657 4.40000000001678
  endloop
endfacet
facet normal 1.0 -9.39988827515862e-015 7.51991062012774e-014
  outer loop
    vertex -283.567504217422 88.7183892855655 3.20000000001678
    vertex -283.567504217422 79.1183892855656 4.40000000001691
    vertex -283.567504217422 79.1183892855656 3.20000000001691
  endloop
endfacet
facet normal 1.0 -4.69994413757882e-015 7.51991062012773e-014
  outer loop
    vertex -283.567504217422 88.7183892855656 8.80000000001678
    vertex -283.567504217422 79.1183892855657 7.60000000001691
    vertex -283.567504217422 88.7183892855657 7.60000000001678
  endloop
endfacet
facet normal 1.0 -4.69994413757882e-015 7.51991062012773e-014
  outer loop
    vertex -283.567504217422 79.1183892855657 7.60000000001691
    vertex -283.567504217422 88.7183892855656 8.80000000001678
    vertex -283.567504217422 79.1183892855656 8.80000000001691
  endloop
endfacet
endsolid AltAzTrackerSketchup Nema 17
