solid AltAzTrackerSketchup Nema 17
facet normal 3.96557786608291e-015 -4.22994972382187e-015 1.0
  outer loop
    vertex -4.99999999999815 -7.00000000000083 108.499999999999
    vertex -8.99999999999832 -4.00000000000082 108.499999999999
    vertex -8.99999999999832 -7.00000000000081 108.499999999999
  endloop
endfacet
facet normal 3.96557786608291e-015 -4.22994972382187e-015 1.0
  outer loop
    vertex -8.99999999999832 -4.00000000000082 108.499999999999
    vertex -4.99999999999815 -7.00000000000083 108.499999999999
    vertex -4.99999999999815 -4.00000000000084 108.499999999999
  endloop
endfacet
facet normal 2.81996648254786e-015 1.0 -2.36658271566304e-030
  outer loop
    vertex -8.99999999999832 -7.00000000000083 116.499999999999
    vertex -4.99999999999815 -7.00000000000083 108.499999999999
    vertex -8.99999999999832 -7.00000000000081 108.499999999999
  endloop
endfacet
facet normal 2.81996648254786e-015 1.0 -2.36658271566304e-030
  outer loop
    vertex -4.99999999999815 -7.00000000000083 108.499999999999
    vertex -8.99999999999832 -7.00000000000083 116.499999999999
    vertex -4.99999999999815 -7.00000000000083 116.499999999999
  endloop
endfacet
facet normal -3.8774539135033e-015 -3.75995531006382e-015 -1.0
  outer loop
    vertex -4.99999999999815 -4.00000000000082 116.499999999999
    vertex -8.99999999999832 -7.00000000000083 116.499999999999
    vertex -8.99999999999832 -4.00000000000082 116.499999999999
  endloop
endfacet
facet normal -3.8774539135033e-015 -3.75995531006382e-015 -1.0
  outer loop
    vertex -8.99999999999832 -7.00000000000083 116.499999999999
    vertex -4.99999999999815 -4.00000000000082 116.499999999999
    vertex -4.99999999999815 -7.00000000000083 116.499999999999
  endloop
endfacet
facet normal 2.81996648254786e-015 1.0 -1.74535475280149e-029
  outer loop
    vertex -8.99999999999832 -4.00000000000082 119.499999999999
    vertex -4.99999999999815 -4.00000000000082 116.499999999999
    vertex -8.99999999999832 -4.00000000000082 116.499999999999
  endloop
endfacet
facet normal 2.81996648254786e-015 1.0 -1.74535475280149e-029
  outer loop
    vertex -4.99999999999815 -4.00000000000082 116.499999999999
    vertex -8.99999999999832 -4.00000000000082 119.499999999999
    vertex -4.99999999999815 -4.00000000000082 119.499999999999
  endloop
endfacet
facet normal -3.87745391350332e-015 2.46519032881566e-030 -1.0
  outer loop
    vertex -4.99999999999815 3.99999999999919 119.499999999999
    vertex -8.99999999999832 -4.00000000000082 119.499999999999
    vertex -8.99999999999832 3.99999999999919 119.499999999999
  endloop
endfacet
facet normal -3.87745391350332e-015 2.46519032881566e-030 -1.0
  outer loop
    vertex -8.99999999999832 -4.00000000000082 119.499999999999
    vertex -4.99999999999815 3.99999999999919 119.499999999999
    vertex -4.99999999999815 -4.00000000000082 119.499999999999
  endloop
endfacet
facet normal -2.81996648254791e-015 -1.0 -7.51991062012764e-015
  outer loop
    vertex -4.99999999999815 3.99999999999919 119.499999999999
    vertex -8.99999999999832 3.99999999999921 116.499999999999
    vertex -4.99999999999815 3.99999999999921 116.499999999999
  endloop
endfacet
facet normal -2.81996648254791e-015 -1.0 -7.51991062012764e-015
  outer loop
    vertex -8.99999999999832 3.99999999999921 116.499999999999
    vertex -4.99999999999815 3.99999999999919 119.499999999999
    vertex -8.99999999999832 3.99999999999919 119.499999999999
  endloop
endfacet
facet normal -3.87745391350332e-015 1.70098132688281e-029 -1.0
  outer loop
    vertex -4.99999999999815 6.99999999999915 116.499999999999
    vertex -8.99999999999832 3.99999999999921 116.499999999999
    vertex -8.99999999999832 6.99999999999917 116.499999999999
  endloop
endfacet
facet normal -3.87745391350332e-015 1.70098132688281e-029 -1.0
  outer loop
    vertex -8.99999999999832 3.99999999999921 116.499999999999
    vertex -4.99999999999815 6.99999999999915 116.499999999999
    vertex -4.99999999999815 3.99999999999921 116.499999999999
  endloop
endfacet
facet normal -2.81996648254786e-015 -1.0 2.46519032881566e-030
  outer loop
    vertex -4.99999999999815 6.99999999999915 116.499999999999
    vertex -8.99999999999832 6.99999999999917 108.499999999999
    vertex -4.99999999999815 6.99999999999915 108.499999999999
  endloop
endfacet
facet normal -2.81996648254786e-015 -1.0 2.46519032881566e-030
  outer loop
    vertex -8.99999999999832 6.99999999999917 108.499999999999
    vertex -4.99999999999815 6.99999999999915 116.499999999999
    vertex -8.99999999999832 6.99999999999917 116.499999999999
  endloop
endfacet
facet normal 3.96557786608292e-015 7.51991062012778e-015 1.0
  outer loop
    vertex -4.99999999999815 3.99999999999919 108.499999999999
    vertex -8.99999999999832 6.99999999999917 108.499999999999
    vertex -8.99999999999832 3.99999999999921 108.499999999999
  endloop
endfacet
facet normal 3.96557786608292e-015 7.51991062012778e-015 1.0
  outer loop
    vertex -8.99999999999832 6.99999999999917 108.499999999999
    vertex -4.99999999999815 3.99999999999919 108.499999999999
    vertex -4.99999999999815 6.99999999999915 108.499999999999
  endloop
endfacet
facet normal -2.81996648254786e-015 -1.0 1.74535475280149e-029
  outer loop
    vertex -4.99999999999815 3.99999999999919 108.499999999999
    vertex -8.99999999999832 3.99999999999921 105.499999999999
    vertex -4.99999999999815 3.99999999999917 105.499999999999
  endloop
endfacet
facet normal -2.81996648254786e-015 -1.0 1.74535475280149e-029
  outer loop
    vertex -8.99999999999832 3.99999999999921 105.499999999999
    vertex -4.99999999999815 3.99999999999919 108.499999999999
    vertex -8.99999999999832 3.99999999999921 108.499999999999
  endloop
endfacet
facet normal 3.92151588979312e-015 -2.41588652223935e-030 1.0
  outer loop
    vertex -4.99999999999815 -4.00000000000084 105.499999999999
    vertex -8.99999999999832 3.99999999999921 105.499999999999
    vertex -8.99999999999832 -4.00000000000082 105.499999999999
  endloop
endfacet
facet normal 3.92151588979312e-015 -2.41588652223935e-030 1.0
  outer loop
    vertex -8.99999999999832 3.99999999999921 105.499999999999
    vertex -4.99999999999815 -4.00000000000084 105.499999999999
    vertex -4.99999999999815 3.99999999999917 105.499999999999
  endloop
endfacet
facet normal 2.81996648254786e-015 1.0 -1.78972817872017e-029
  outer loop
    vertex -8.99999999999832 -4.00000000000082 108.499999999999
    vertex -4.99999999999815 -4.00000000000084 105.499999999999
    vertex -8.99999999999832 -4.00000000000082 105.499999999999
  endloop
endfacet
facet normal 2.81996648254786e-015 1.0 -1.78972817872017e-029
  outer loop
    vertex -4.99999999999815 -4.00000000000084 105.499999999999
    vertex -8.99999999999832 -4.00000000000082 108.499999999999
    vertex -4.99999999999815 -4.00000000000084 108.499999999999
  endloop
endfacet
facet normal -0.620292027117183 0.000301681115707339 0.78437090083924
  outer loop
    vertex -8.99999999999832 -12.7000000000008 112.499999999999
    vertex -19.9999999999982 -10.0000000000009 103.799999999999
    vertex -19.999999999998 -36.0000000000006 103.809999999999
  endloop
endfacet
facet normal 0.138764685416825 0.981853010995731 0.129263401161296
  outer loop
    vertex -8.99999999999832 -12.7000000000008 112.499999999999
    vertex -8.99999999999832 -12.2672579938719 109.212998127197
    vertex -19.9999999999982 -10.0000000000009 103.799999999999
  endloop
endfacet
facet normal 0.00210986373648603 0.923877476172588 0.382682580601709
  outer loop
    vertex -8.99999999999832 -12.2672579938719 109.212998127197
    vertex -8.99999999999832 -10.9985226280631 106.149999999999
    vertex -19.9999999999982 -10.0000000000009 103.799999999999
  endloop
endfacet
facet normal -5.12787146600341e-015 0.920362971055055 0.391065213884733
  outer loop
    vertex -8.99999999999832 -10.9985226280631 106.149999999999
    vertex -8.99999999999805 -10.0000000000008 103.799999999999
    vertex -19.9999999999982 -10.0000000000009 103.799999999999
  endloop
endfacet
facet normal -5.6399329650959e-015 -8.89652067460046e-029 -1.0
  outer loop
    vertex -4.99999999999851 -7.7831074918322e-013 99.7999999999993
    vertex -8.99999999999787 -36.0000000000007 99.7999999999993
    vertex -8.99999999999851 -7.55751017322837e-013 99.7999999999993
  endloop
endfacet
facet normal -5.6399329650959e-015 -8.89652067460046e-029 -1.0
  outer loop
    vertex -8.99999999999787 -36.0000000000007 99.7999999999993
    vertex -4.99999999999851 -7.7831074918322e-013 99.7999999999993
    vertex -4.99999999999802 -36.0000000000008 99.7999999999993
  endloop
endfacet
facet normal -1.0 -5.32320739910098e-015 -2.25034731774394e-014
  outer loop
    vertex -19.9999999999982 -10.0000000000009 103.799999999999
    vertex -19.9999999999979 -36.0000000000005 99.7999999999994
    vertex -19.999999999998 -36.0000000000006 103.809999999999
  endloop
endfacet
facet normal -7.86055792626168e-015 0.152057184253941 -0.988371697650617
  outer loop
    vertex -8.99999999999805 -10.0000000000008 103.799999999999
    vertex -19.9999999999979 -36.0000000000005 99.7999999999994
    vertex -19.9999999999982 -10.0000000000009 103.799999999999
  endloop
endfacet
facet normal -7.86055792626168e-015 0.152057184253941 -0.988371697650617
  outer loop
    vertex -19.9999999999979 -36.0000000000005 99.7999999999994
    vertex -8.99999999999805 -10.0000000000008 103.799999999999
    vertex -8.99999999999787 -36.0000000000007 99.7999999999993
  endloop
endfacet
facet normal 6.90873902263279e-015 -0.349448269402511 0.936955659042407
  outer loop
    vertex -8.99999999999815 -36.0000000000008 103.809999999999
    vertex -8.99999999999832 -12.7000000000008 112.499999999999
    vertex -19.999999999998 -36.0000000000006 103.809999999999
  endloop
endfacet
facet normal 1.63012856455487e-014 0.500000000000226 0.866025403784308
  outer loop
    vertex -19.9999999999941 25.5344210129228 139.326914536241
    vertex -8.99999999999539 28.9985226280595 137.32691453624
    vertex -19.9999999999942 28.9985226280597 137.32691453624
  endloop
endfacet
facet normal 1.63012856455487e-014 0.500000000000226 0.866025403784308
  outer loop
    vertex -8.99999999999539 28.9985226280595 137.32691453624
    vertex -19.9999999999941 25.5344210129228 139.326914536241
    vertex -8.99999999999422 25.5344210129223 139.326914536242
  endloop
endfacet
facet normal 1.63012856455487e-014 0.500000000000226 0.866025403784308
  outer loop
    vertex -8.99999999999539 28.9985226280595 137.32691453624
    vertex -8.99999999999422 25.5344210129223 139.326914536242
    vertex -4.99999999999432 28.9985226280595 137.32691453624
  endloop
endfacet
facet normal 1.63012856455487e-014 0.500000000000226 0.866025403784308
  outer loop
    vertex -4.99999999999432 28.9985226280595 137.32691453624
    vertex -8.99999999999422 25.5344210129223 139.326914536242
    vertex -4.99999999999396 25.5344210129223 139.326914536241
  endloop
endfacet
facet normal -0.620337609949452 -0.679253956382763 0.392167454565731
  outer loop
    vertex -19.9999999999941 25.5344210129228 139.326914536241
    vertex -19.9999999999961 12.5344210129229 116.810254037844
    vertex -8.99999999999815 6.34999999999923 123.498522628062
  endloop
endfacet
facet normal 0.138764685417381 -0.602871894682604 -0.7856779497242
  outer loop
    vertex -8.99999999999815 6.34999999999923 123.498522628062
    vertex -19.9999999999961 12.5344210129229 116.810254037844
    vertex -8.99999999999869 8.98025612107137 121.480256121069
  endloop
endfacet
facet normal -1.90084833394607e-013 -0.79885389528935 -0.601525106692175
  outer loop
    vertex -8.99999999999869 10.9985226280646 118.849999999999
    vertex -19.9999999999961 12.5344210129229 116.810254037844
    vertex -8.99999999999598 12.5344210129218 116.810254037842
  endloop
endfacet
facet normal -2.3171463665213e-014 0.779926406420056 -0.625871233217104
  outer loop
    vertex -19.9999999999961 12.5344210129229 116.810254037844
    vertex -8.99999999999539 28.9985226280595 137.32691453624
    vertex -8.99999999999598 12.5344210129218 116.810254037842
  endloop
endfacet
facet normal -2.3171463665213e-014 0.779926406420056 -0.625871233217104
  outer loop
    vertex -8.99999999999539 28.9985226280595 137.32691453624
    vertex -19.9999999999961 12.5344210129229 116.810254037844
    vertex -19.9999999999942 28.9985226280597 137.32691453624
  endloop
endfacet
facet normal -2.35224435084372e-014 -0.636412729299535 0.771348713608519
  outer loop
    vertex -8.99999999999422 25.5344210129223 139.326914536242
    vertex -19.9999999999941 25.5344210129228 139.326914536241
    vertex -8.99999999999815 6.34999999999923 123.498522628062
  endloop
endfacet
facet normal 0.00210986373678058 -0.793351574473161 -0.608760074048856
  outer loop
    vertex -8.99999999999869 8.98025612107137 121.480256121069
    vertex -19.9999999999961 12.5344210129229 116.810254037844
    vertex -8.99999999999869 10.9985226280646 118.849999999999
  endloop
endfacet
facet normal 1.0 -8.3943700575481e-015 -9.151730527896e-014
  outer loop
    vertex -4.99999999999851 -7.7831074918322e-013 99.7999999999993
    vertex -4.99999999999815 -7.00000000000083 108.499999999999
    vertex -4.99999999999802 -36.0000000000008 99.7999999999993
  endloop
endfacet
facet normal 1.0 -8.3943700575481e-015 -9.151730527896e-014
  outer loop
    vertex -4.99999999999815 -7.00000000000083 108.499999999999
    vertex -4.99999999999851 -7.7831074918322e-013 99.7999999999993
    vertex -4.99999999999815 -4.00000000000084 105.499999999999
  endloop
endfacet
facet normal 1.0 -8.3943700575481e-015 -9.151730527896e-014
  outer loop
    vertex -4.99999999999815 -4.00000000000084 105.499999999999
    vertex -4.99999999999851 -7.7831074918322e-013 99.7999999999993
    vertex -4.99999999999815 3.99999999999917 105.499999999999
  endloop
endfacet
facet normal 1.0 -8.3943700575481e-015 -9.151730527896e-014
  outer loop
    vertex -4.99999999999815 3.99999999999917 105.499999999999
    vertex -4.99999999999851 -7.7831074918322e-013 99.7999999999993
    vertex -4.99999999999815 3.28700187280118 100.232742006128
  endloop
endfacet
facet normal 1.0 -8.3943700575481e-015 -9.151730527896e-014
  outer loop
    vertex -4.99999999999815 3.99999999999917 105.499999999999
    vertex -4.99999999999815 3.28700187280118 100.232742006128
    vertex -4.99999999999815 6.34999999999916 101.501477371937
  endloop
endfacet
facet normal 1.0 -8.3943700575481e-015 -9.151730527896e-014
  outer loop
    vertex -4.99999999999815 3.99999999999917 105.499999999999
    vertex -4.99999999999815 6.34999999999916 101.501477371937
    vertex -4.99999999999815 3.99999999999919 108.499999999999
  endloop
endfacet
facet normal 1.0 -8.3943700575481e-015 -9.151730527896e-014
  outer loop
    vertex -4.99999999999815 3.99999999999919 108.499999999999
    vertex -4.99999999999815 6.34999999999916 101.501477371937
    vertex -4.99999999999815 6.99999999999915 108.499999999999
  endloop
endfacet
facet normal 1.0 -8.3943700575481e-015 -9.151730527896e-014
  outer loop
    vertex -4.99999999999815 6.99999999999915 108.499999999999
    vertex -4.99999999999815 6.34999999999916 101.501477371937
    vertex -4.99999999999815 8.98025612106835 103.51974387893
  endloop
endfacet
facet normal 1.0 -8.3943700575481e-015 -9.151730527896e-014
  outer loop
    vertex -4.99999999999815 6.99999999999915 108.499999999999
    vertex -4.99999999999815 8.98025612106835 103.51974387893
    vertex -4.99999999999815 6.99999999999915 116.499999999999
  endloop
endfacet
facet normal 1.0 -8.3943700575481e-015 -9.151730527896e-014
  outer loop
    vertex -4.99999999999802 -36.0000000000008 99.7999999999993
    vertex -4.99999999999797 -6.35000000000078 123.498522628062
    vertex -4.99999999999811 -36.0000000000009 103.809999999999
  endloop
endfacet
facet normal 1.0 -8.3943700575481e-015 -9.151730527896e-014
  outer loop
    vertex -4.99999999999797 -6.35000000000078 123.498522628062
    vertex -4.99999999999802 -36.0000000000008 99.7999999999993
    vertex -4.99999999999815 -7.00000000000083 116.499999999999
  endloop
endfacet
facet normal 1.0 -8.3943700575481e-015 -9.151730527896e-014
  outer loop
    vertex -4.99999999999815 -7.00000000000083 116.499999999999
    vertex -4.99999999999802 -36.0000000000008 99.7999999999993
    vertex -4.99999999999815 -7.00000000000083 108.499999999999
  endloop
endfacet
facet normal 1.0 -8.3943700575481e-015 -9.151730527896e-014
  outer loop
    vertex -4.99999999999797 -6.35000000000078 123.498522628062
    vertex -4.99999999999815 -7.00000000000083 116.499999999999
    vertex -4.99999999999815 -4.00000000000082 116.499999999999
  endloop
endfacet
facet normal 1.0 -8.3943700575481e-015 -9.151730527896e-014
  outer loop
    vertex -4.99999999999797 -6.35000000000078 123.498522628062
    vertex -4.99999999999815 -4.00000000000082 116.499999999999
    vertex -4.99999999999815 -4.00000000000082 119.499999999999
  endloop
endfacet
facet normal 1.0 -8.3943700575481e-015 -9.151730527896e-014
  outer loop
    vertex -4.99999999999797 -6.35000000000078 123.498522628062
    vertex -4.99999999999815 -4.00000000000082 119.499999999999
    vertex -4.99999999999396 25.5344210129223 139.326914536241
  endloop
endfacet
facet normal 1.0 -8.3943700575481e-015 -9.151730527896e-014
  outer loop
    vertex -4.99999999999396 25.5344210129223 139.326914536241
    vertex -4.99999999999815 -4.00000000000082 119.499999999999
    vertex -4.99999999999815 3.99999999999919 119.499999999999
  endloop
endfacet
facet normal 1.0 -8.3943700575481e-015 -9.151730527896e-014
  outer loop
    vertex -4.99999999999396 25.5344210129223 139.326914536241
    vertex -4.99999999999815 3.99999999999919 119.499999999999
    vertex -4.99999999999815 3.99999999999921 116.499999999999
  endloop
endfacet
facet normal 1.0 -8.3943700575481e-015 -9.151730527896e-014
  outer loop
    vertex -4.99999999999396 25.5344210129223 139.326914536241
    vertex -4.99999999999815 3.99999999999921 116.499999999999
    vertex -4.99999999999815 6.99999999999915 116.499999999999
  endloop
endfacet
facet normal 1.0 -8.3943700575481e-015 -9.151730527896e-014
  outer loop
    vertex -4.99999999999396 25.5344210129223 139.326914536241
    vertex -4.99999999999815 6.99999999999915 116.499999999999
    vertex -4.99999999999815 8.98025612106835 103.51974387893
  endloop
endfacet
facet normal 1.0 -8.3943700575481e-015 -9.151730527896e-014
  outer loop
    vertex -4.99999999999396 25.5344210129223 139.326914536241
    vertex -4.99999999999815 8.98025612106835 103.51974387893
    vertex -4.99999999999815 10.9985226280616 106.149999999999
  endloop
endfacet
facet normal 1.0 -8.3943700575481e-015 -9.151730527896e-014
  outer loop
    vertex -4.99999999999396 25.5344210129223 139.326914536241
    vertex -4.99999999999815 10.9985226280616 106.149999999999
    vertex -4.99999999999432 28.9985226280595 137.32691453624
  endloop
endfacet
facet normal 1.0 -8.3943700575481e-015 -9.151730527896e-014
  outer loop
    vertex -4.99999999999815 -4.00000000000084 108.499999999999
    vertex -4.99999999999815 -7.00000000000083 108.499999999999
    vertex -4.99999999999815 -4.00000000000084 105.499999999999
  endloop
endfacet
facet normal -1.0 5.57283432535082e-014 8.55116584905263e-014
  outer loop
    vertex -8.99999999999598 12.5344210129218 116.810254037842
    vertex -8.99999999999869 12.2672579938734 115.787001872801
    vertex -8.99999999999869 10.9985226280646 118.849999999999
  endloop
endfacet
facet normal -1.0 5.57283432535082e-014 8.55116584905263e-014
  outer loop
    vertex -8.99999999999869 12.2672579938734 115.787001872801
    vertex -8.99999999999598 12.5344210129218 116.810254037842
    vertex -8.99999999999887 12.7000000000022 112.499999999999
  endloop
endfacet
facet normal -1.0 5.57283432535082e-014 8.55116584905263e-014
  outer loop
    vertex -8.99999999999887 12.7000000000022 112.499999999999
    vertex -8.99999999999598 12.5344210129218 116.810254037842
    vertex -8.99999999999539 28.9985226280595 137.32691453624
  endloop
endfacet
facet normal -1.0 5.57283432535082e-014 8.55116584905263e-014
  outer loop
    vertex -8.99999999999887 12.2672579938734 109.212998127197
    vertex -8.99999999999539 28.9985226280595 137.32691453624
    vertex -8.99999999999887 10.9985226280646 106.149999999999
  endloop
endfacet
facet normal -1.0 5.57283432535082e-014 8.55116584905263e-014
  outer loop
    vertex -8.99999999999539 28.9985226280595 137.32691453624
    vertex -8.99999999999887 12.2672579938734 109.212998127197
    vertex -8.99999999999887 12.7000000000022 112.499999999999
  endloop
endfacet
facet normal -1.0 7.95482203763181e-017 9.03767090008555e-014
  outer loop
    vertex -19.9999999999942 28.9985226280597 137.32691453624
    vertex -19.9999999999961 12.5344210129229 116.810254037844
    vertex -19.9999999999941 25.5344210129228 139.326914536241
  endloop
endfacet
facet normal 3.23073474826715e-013 0.866025403784489 -0.499999999999913
  outer loop
    vertex -8.99999999999887 10.9985226280646 106.149999999999
    vertex -4.99999999999432 28.9985226280595 137.32691453624
    vertex -4.99999999999815 10.9985226280616 106.149999999999
  endloop
endfacet
facet normal 3.23073474826715e-013 0.866025403784489 -0.499999999999913
  outer loop
    vertex -4.99999999999432 28.9985226280595 137.32691453624
    vertex -8.99999999999887 10.9985226280646 106.149999999999
    vertex -8.99999999999539 28.9985226280595 137.32691453624
  endloop
endfacet
facet normal 4.28223587969312e-013 0.608761429008717 -0.793353340291238
  outer loop
    vertex -8.99999999999887 8.98025612107137 103.51974387893
    vertex -4.99999999999815 6.34999999999916 101.501477371937
    vertex -8.99999999999905 6.35000000000221 101.501477371937
  endloop
endfacet
facet normal 4.28223587969312e-013 0.608761429008717 -0.793353340291238
  outer loop
    vertex -4.99999999999815 6.34999999999916 101.501477371937
    vertex -8.99999999999887 8.98025612107137 103.51974387893
    vertex -4.99999999999815 8.98025612106835 103.51974387893
  endloop
endfacet
facet normal 5.73820581500365e-013 0.793353340291234 -0.608761429008722
  outer loop
    vertex -8.99999999999887 8.98025612107137 103.51974387893
    vertex -4.99999999999815 10.9985226280616 106.149999999999
    vertex -4.99999999999815 8.98025612106835 103.51974387893
  endloop
endfacet
facet normal 5.73820581500365e-013 0.793353340291234 -0.608761429008722
  outer loop
    vertex -4.99999999999815 10.9985226280616 106.149999999999
    vertex -8.99999999999887 8.98025612107137 103.51974387893
    vertex -8.99999999999887 10.9985226280646 106.149999999999
  endloop
endfacet
facet normal 2.53373462474332e-013 0.38268343236509 -0.923879532511287
  outer loop
    vertex -4.99999999999815 6.34999999999916 101.501477371937
    vertex -8.99999999999905 3.28700187280425 100.232742006128
    vertex -8.99999999999905 6.35000000000221 101.501477371937
  endloop
endfacet
facet normal 2.53373462474332e-013 0.38268343236509 -0.923879532511287
  outer loop
    vertex -8.99999999999905 3.28700187280425 100.232742006128
    vertex -4.99999999999815 6.34999999999916 101.501477371937
    vertex -4.99999999999815 3.28700187280118 100.232742006128
  endloop
endfacet
facet normal 2.52564841321663e-014 0.130526192220014 -0.991444861373815
  outer loop
    vertex -4.99999999999815 3.28700187280118 100.232742006128
    vertex -8.99999999999851 -7.55751017322837e-013 99.7999999999993
    vertex -8.99999999999905 3.28700187280425 100.232742006128
  endloop
endfacet
facet normal 2.52564841321663e-014 0.130526192220014 -0.991444861373815
  outer loop
    vertex -8.99999999999851 -7.55751017322837e-013 99.7999999999993
    vertex -4.99999999999815 3.28700187280118 100.232742006128
    vertex -4.99999999999851 -7.7831074918322e-013 99.7999999999993
  endloop
endfacet
facet normal -1.98644047803791e-014 -1.0 -1.59399601673537e-014
  outer loop
    vertex -4.99999999999811 -36.0000000000009 103.809999999999
    vertex -8.99999999999787 -36.0000000000007 99.7999999999993
    vertex -4.99999999999802 -36.0000000000008 99.7999999999993
  endloop
endfacet
facet normal -1.98644047803791e-014 -1.0 -1.59399601673537e-014
  outer loop
    vertex -8.99999999999787 -36.0000000000007 99.7999999999993
    vertex -4.99999999999811 -36.0000000000009 103.809999999999
    vertex -19.9999999999979 -36.0000000000005 99.7999999999994
  endloop
endfacet
facet normal -1.98644047803791e-014 -1.0 -1.59399601673537e-014
  outer loop
    vertex -19.9999999999979 -36.0000000000005 99.7999999999994
    vertex -4.99999999999811 -36.0000000000009 103.809999999999
    vertex -8.99999999999815 -36.0000000000008 103.809999999999
  endloop
endfacet
facet normal -1.98644047803791e-014 -1.0 -1.59399601673537e-014
  outer loop
    vertex -19.999999999998 -36.0000000000006 103.809999999999
    vertex -19.9999999999979 -36.0000000000005 99.7999999999994
    vertex -8.99999999999815 -36.0000000000008 103.809999999999
  endloop
endfacet
facet normal -1.0 -1.74427050874622e-014 7.80527657018227e-014
  outer loop
    vertex -8.99999999999805 -10.0000000000008 103.799999999999
    vertex -8.99999999999851 -7.55751017322837e-013 99.7999999999993
    vertex -8.99999999999787 -36.0000000000007 99.7999999999993
  endloop
endfacet
facet normal -1.0 -1.74427050874622e-014 7.80527657018227e-014
  outer loop
    vertex -8.99999999999851 -7.55751017322837e-013 99.7999999999993
    vertex -8.99999999999805 -10.0000000000008 103.799999999999
    vertex -8.99999999999832 -7.00000000000081 108.499999999999
  endloop
endfacet
facet normal -1.0 -1.74427050874622e-014 7.80527657018227e-014
  outer loop
    vertex -8.99999999999832 -7.00000000000081 108.499999999999
    vertex -8.99999999999805 -10.0000000000008 103.799999999999
    vertex -8.99999999999832 -7.00000000000083 116.499999999999
  endloop
endfacet
facet normal -1.0 -1.74427050874622e-014 7.80527657018227e-014
  outer loop
    vertex -8.99999999999851 -7.55751017322837e-013 99.7999999999993
    vertex -8.99999999999832 -7.00000000000081 108.499999999999
    vertex -8.99999999999832 -4.00000000000082 105.499999999999
  endloop
endfacet
facet normal -1.0 -1.74427050874622e-014 7.80527657018227e-014
  outer loop
    vertex -8.99999999999832 -4.00000000000082 105.499999999999
    vertex -8.99999999999832 -7.00000000000081 108.499999999999
    vertex -8.99999999999832 -4.00000000000082 108.499999999999
  endloop
endfacet
facet normal -1.0 -1.74427050874622e-014 7.80527657018227e-014
  outer loop
    vertex -8.99999999999851 -7.55751017322837e-013 99.7999999999993
    vertex -8.99999999999832 -4.00000000000082 105.499999999999
    vertex -8.99999999999832 3.99999999999921 105.499999999999
  endloop
endfacet
facet normal -1.0 -1.74427050874622e-014 7.80527657018227e-014
  outer loop
    vertex -8.99999999999851 -7.55751017322837e-013 99.7999999999993
    vertex -8.99999999999832 3.99999999999921 105.499999999999
    vertex -8.99999999999905 3.28700187280425 100.232742006128
  endloop
endfacet
facet normal -1.0 -1.74427050874622e-014 7.80527657018227e-014
  outer loop
    vertex -8.99999999999905 3.28700187280425 100.232742006128
    vertex -8.99999999999832 3.99999999999921 105.499999999999
    vertex -8.99999999999905 6.35000000000221 101.501477371937
  endloop
endfacet
facet normal -1.0 -1.74427050874622e-014 7.80527657018227e-014
  outer loop
    vertex -8.99999999999815 -6.35000000000076 123.498522628062
    vertex -8.99999999999832 -12.7000000000008 112.499999999999
    vertex -8.99999999999815 -36.0000000000008 103.809999999999
  endloop
endfacet
facet normal -1.0 -1.74427050874622e-014 7.80527657018227e-014
  outer loop
    vertex -8.99999999999832 -12.7000000000008 112.499999999999
    vertex -8.99999999999815 -6.35000000000076 123.498522628062
    vertex -8.99999999999832 -12.2672579938719 109.212998127197
  endloop
endfacet
facet normal -1.0 -1.74427050874622e-014 7.80527657018227e-014
  outer loop
    vertex -8.99999999999832 -12.2672579938719 109.212998127197
    vertex -8.99999999999815 -6.35000000000076 123.498522628062
    vertex -8.99999999999832 -10.9985226280631 106.149999999999
  endloop
endfacet
facet normal -1.0 -1.74427050874622e-014 7.80527657018227e-014
  outer loop
    vertex -8.99999999999832 -10.9985226280631 106.149999999999
    vertex -8.99999999999815 -6.35000000000076 123.498522628062
    vertex -8.99999999999805 -10.0000000000008 103.799999999999
  endloop
endfacet
facet normal -1.0 -1.74427050874622e-014 7.80527657018227e-014
  outer loop
    vertex -8.99999999999805 -10.0000000000008 103.799999999999
    vertex -8.99999999999815 -6.35000000000076 123.498522628062
    vertex -8.99999999999832 -7.00000000000083 116.499999999999
  endloop
endfacet
facet normal -1.0 -1.74427050874622e-014 7.80527657018227e-014
  outer loop
    vertex -8.99999999999832 -7.00000000000083 116.499999999999
    vertex -8.99999999999815 -6.35000000000076 123.498522628062
    vertex -8.99999999999832 -4.00000000000082 116.499999999999
  endloop
endfacet
facet normal -1.0 -1.74427050874622e-014 7.80527657018227e-014
  outer loop
    vertex -8.99999999999832 -4.00000000000082 116.499999999999
    vertex -8.99999999999815 -6.35000000000076 123.498522628062
    vertex -8.99999999999832 -4.00000000000082 119.499999999999
  endloop
endfacet
facet normal -1.0 -1.74427050874622e-014 7.80527657018227e-014
  outer loop
    vertex -8.99999999999422 25.5344210129223 139.326914536242
    vertex -8.99999999999832 -4.00000000000082 119.499999999999
    vertex -8.99999999999815 -6.35000000000076 123.498522628062
  endloop
endfacet
facet normal -1.0 -1.74427050874622e-014 7.80527657018227e-014
  outer loop
    vertex -8.99999999999832 -4.00000000000082 119.499999999999
    vertex -8.99999999999422 25.5344210129223 139.326914536242
    vertex -8.99999999999815 6.34999999999923 123.498522628062
  endloop
endfacet
facet normal -1.0 -1.74427050874622e-014 7.80527657018227e-014
  outer loop
    vertex -8.99999999999832 -4.00000000000082 119.499999999999
    vertex -8.99999999999815 6.34999999999923 123.498522628062
    vertex -8.99999999999832 3.99999999999919 119.499999999999
  endloop
endfacet
facet normal -1.0 -1.74427050874622e-014 7.80527657018227e-014
  outer loop
    vertex -8.99999999999832 3.99999999999919 119.499999999999
    vertex -8.99999999999815 6.34999999999923 123.498522628062
    vertex -8.99999999999832 3.99999999999921 116.499999999999
  endloop
endfacet
facet normal -1.0 -1.74427050874622e-014 7.80527657018227e-014
  outer loop
    vertex -8.99999999999815 6.34999999999923 123.498522628062
    vertex -8.99999999999832 6.99999999999917 116.499999999999
    vertex -8.99999999999832 3.99999999999921 116.499999999999
  endloop
endfacet
facet normal -1.0 -1.74427050874622e-014 7.80527657018227e-014
  outer loop
    vertex -8.99999999999832 6.99999999999917 116.499999999999
    vertex -8.99999999999815 6.34999999999923 123.498522628062
    vertex -8.99999999999869 8.98025612107137 121.480256121069
  endloop
endfacet
facet normal -1.0 -1.74427050874622e-014 7.80527657018227e-014
  outer loop
    vertex -8.99999999999832 6.99999999999917 116.499999999999
    vertex -8.99999999999869 8.98025612107137 121.480256121069
    vertex -8.99999999999832 6.99999999999917 108.499999999999
  endloop
endfacet
facet normal -1.0 -1.74427050874622e-014 7.80527657018227e-014
  outer loop
    vertex -8.99999999999832 6.99999999999917 108.499999999999
    vertex -8.99999999999832 3.99999999999921 105.499999999999
    vertex -8.99999999999832 3.99999999999921 108.499999999999
  endloop
endfacet
facet normal -1.0 -1.74427050874622e-014 7.80527657018227e-014
  outer loop
    vertex -8.99999999999832 3.99999999999921 105.499999999999
    vertex -8.99999999999832 6.99999999999917 108.499999999999
    vertex -8.99999999999905 6.35000000000221 101.501477371937
  endloop
endfacet
facet normal -1.0 -1.74427050874622e-014 7.80527657018227e-014
  outer loop
    vertex -8.99999999999905 6.35000000000221 101.501477371937
    vertex -8.99999999999832 6.99999999999917 108.499999999999
    vertex -8.99999999999887 8.98025612107137 103.51974387893
  endloop
endfacet
facet normal -1.0 -1.74427050874622e-014 7.80527657018227e-014
  outer loop
    vertex -8.99999999999887 8.98025612107137 103.51974387893
    vertex -8.99999999999832 6.99999999999917 108.499999999999
    vertex -8.99999999999869 8.98025612107137 121.480256121069
  endloop
endfacet
facet normal -1.0 -1.74427050874622e-014 7.80527657018227e-014
  outer loop
    vertex -8.99999999999887 8.98025612107137 103.51974387893
    vertex -8.99999999999869 8.98025612107137 121.480256121069
    vertex -8.99999999999869 10.9985226280646 118.849999999999
  endloop
endfacet
facet normal -1.0 -1.74427050874622e-014 7.80527657018227e-014
  outer loop
    vertex -8.99999999999887 8.98025612107137 103.51974387893
    vertex -8.99999999999869 10.9985226280646 118.849999999999
    vertex -8.99999999999887 10.9985226280646 106.149999999999
  endloop
endfacet
facet normal -1.0 -1.74427050874622e-014 7.80527657018227e-014
  outer loop
    vertex -8.99999999999887 10.9985226280646 106.149999999999
    vertex -8.99999999999869 10.9985226280646 118.849999999999
    vertex -8.99999999999869 12.2672579938734 115.787001872801
  endloop
endfacet
facet normal -1.0 -1.74427050874622e-014 7.80527657018227e-014
  outer loop
    vertex -8.99999999999887 10.9985226280646 106.149999999999
    vertex -8.99999999999869 12.2672579938734 115.787001872801
    vertex -8.99999999999887 12.2672579938734 109.212998127197
  endloop
endfacet
facet normal -1.0 -1.74427050874622e-014 7.80527657018227e-014
  outer loop
    vertex -8.99999999999887 12.2672579938734 109.212998127197
    vertex -8.99999999999869 12.2672579938734 115.787001872801
    vertex -8.99999999999887 12.7000000000022 112.499999999999
  endloop
endfacet
facet normal 1.10000232388675e-013 -0.444653837764106 0.895702497798042
  outer loop
    vertex -4.99999999999797 -6.35000000000078 123.498522628062
    vertex -8.99999999999422 25.5344210129223 139.326914536242
    vertex -8.99999999999815 -6.35000000000076 123.498522628062
  endloop
endfacet
facet normal 1.10000232388675e-013 -0.444653837764106 0.895702497798042
  outer loop
    vertex -8.99999999999422 25.5344210129223 139.326914536242
    vertex -4.99999999999797 -6.35000000000078 123.498522628062
    vertex -4.99999999999396 25.5344210129223 139.326914536241
  endloop
endfacet
facet normal -1.35871736125514e-014 -0.55317925599731 0.8330622490152
  outer loop
    vertex -4.99999999999811 -36.0000000000009 103.809999999999
    vertex -8.99999999999815 -6.35000000000076 123.498522628062
    vertex -8.99999999999815 -36.0000000000008 103.809999999999
  endloop
endfacet
facet normal -1.35871736125514e-014 -0.55317925599731 0.8330622490152
  outer loop
    vertex -8.99999999999815 -6.35000000000076 123.498522628062
    vertex -4.99999999999811 -36.0000000000009 103.809999999999
    vertex -4.99999999999797 -6.35000000000078 123.498522628062
  endloop
endfacet
endsolid AltAzTrackerSketchup Nema 17
