solid AltAzTrackerSketchup Nema 17
facet normal -0.444144960515205 -0.116945586685335 0.888289921030161
  outer loop
    vertex -317.158915683918 188.93026022975 31.9496881449346
    vertex -319.158915683918 188.205566903463 30.8542804585437
    vertex -317.158915683918 187.94674785836 31.820206284833
  endloop
endfacet
facet normal -0.444144960515205 -0.116945586685335 0.888289921030161
  outer loop
    vertex -319.158915683918 188.205566903463 30.8542804585437
    vertex -317.158915683918 188.93026022975 31.9496881449346
    vertex -319.158915683918 188.93026022975 30.9496881449343
  endloop
endfacet
facet normal -0.444144960515212 0.116945586685307 0.888289921030161
  outer loop
    vertex -317.158915683918 189.91377260114 31.820206284833
    vertex -319.158915683918 188.93026022975 30.9496881449343
    vertex -317.158915683918 188.93026022975 31.9496881449346
  endloop
endfacet
facet normal -0.444144960515212 0.116945586685307 0.888289921030161
  outer loop
    vertex -319.158915683918 188.93026022975 30.9496881449343
    vertex -317.158915683918 189.91377260114 31.820206284833
    vertex -319.158915683918 189.654953556037 30.8542804585437
  endloop
endfacet
facet normal -0.444144960515004 0.342867111585124 -0.82775443088056
  outer loop
    vertex -319.158915683917 190.33026022975 25.7248170143379
    vertex -317.158915683917 189.91377260114 24.4791700050361
    vertex -319.158915683917 189.654953556037 25.4450958313249
  endloop
endfacet
facet normal -0.444144960515004 0.342867111585124 -0.82775443088056
  outer loop
    vertex -317.158915683917 189.91377260114 24.4791700050361
    vertex -319.158915683917 190.33026022975 25.7248170143379
    vertex -317.158915683917 190.83026022975 24.8587916105537
  endloop
endfacet
facet normal -0.444144960515006 -0.34286711158514 -0.827754430880552
  outer loop
    vertex -319.158915683917 187.53026022975 25.724817014338
    vertex -317.158915683917 187.94674785836 24.4791700050361
    vertex -317.158915683917 187.03026022975 24.8587916105537
  endloop
endfacet
facet normal -0.444144960515006 -0.34286711158514 -0.827754430880552
  outer loop
    vertex -317.158915683917 187.94674785836 24.4791700050361
    vertex -319.158915683917 187.53026022975 25.724817014338
    vertex -319.158915683917 188.205566903463 25.4450958313249
  endloop
endfacet
facet normal -0.444144960515193 0.545422809445083 0.710808844195112
  outer loop
    vertex -317.158915683918 190.83026022975 31.4405846793154
    vertex -319.158915683918 190.910159217072 30.1295871322566
    vertex -319.158915683918 190.33026022975 30.5745592755307
  endloop
endfacet
facet normal -0.444144960515193 0.545422809445083 0.710808844195112
  outer loop
    vertex -319.158915683918 190.910159217072 30.1295871322566
    vertex -317.158915683918 190.83026022975 31.4405846793154
    vertex -317.158915683918 191.617265998259 30.8366939134434
  endloop
endfacet
facet normal -0.444144960515203 0.342867111585146 0.827754430880444
  outer loop
    vertex -317.158915683918 189.91377260114 31.820206284833
    vertex -319.158915683918 190.33026022975 30.5745592755307
    vertex -319.158915683918 189.654953556037 30.8542804585437
  endloop
endfacet
facet normal -0.444144960515203 0.342867111585146 0.827754430880444
  outer loop
    vertex -319.158915683918 190.33026022975 30.5745592755307
    vertex -317.158915683918 189.91377260114 31.820206284833
    vertex -317.158915683918 190.83026022975 31.4405846793154
  endloop
endfacet
facet normal -0.444144960514994 -0.116945586685334 -0.888289921030267
  outer loop
    vertex -319.158915683917 188.205566903463 25.4450958313249
    vertex -317.158915683917 188.93026022975 24.3496881449345
    vertex -317.158915683917 187.94674785836 24.4791700050361
  endloop
endfacet
facet normal -0.444144960514994 -0.116945586685334 -0.888289921030267
  outer loop
    vertex -317.158915683917 188.93026022975 24.3496881449345
    vertex -319.158915683917 188.205566903463 25.4450958313249
    vertex -319.158915683917 188.93026022975 25.3496881449343
  endloop
endfacet
facet normal -0.444144960514996 0.116945586685335 -0.888289921030265
  outer loop
    vertex -319.158915683917 189.654953556037 25.4450958313249
    vertex -317.158915683917 188.93026022975 24.3496881449345
    vertex -319.158915683917 188.93026022975 25.3496881449343
  endloop
endfacet
facet normal -0.444144960514996 0.116945586685335 -0.888289921030265
  outer loop
    vertex -317.158915683917 188.93026022975 24.3496881449345
    vertex -319.158915683917 189.654953556037 25.4450958313249
    vertex -317.158915683917 189.91377260114 24.4791700050361
  endloop
endfacet
facet normal -0.444144960515031 -0.545422809445068 -0.710808844195224
  outer loop
    vertex -319.158915683917 186.950361242428 26.169789157612
    vertex -317.158915683917 187.03026022975 24.8587916105537
    vertex -317.158915683917 186.243254461241 25.4626823764256
  endloop
endfacet
facet normal -0.444144960515031 -0.545422809445068 -0.710808844195224
  outer loop
    vertex -317.158915683917 187.03026022975 24.8587916105537
    vertex -319.158915683917 186.950361242428 26.169789157612
    vertex -319.158915683917 187.53026022975 25.724817014338
  endloop
endfacet
facet normal -0.444144960515119 -0.88828992103021 0.116945586685287
  outer loop
    vertex -319.158915683917 186.225667916141 28.8743814712215
    vertex -317.158915683918 185.13026022975 28.1496881449345
    vertex -317.158915683917 185.259742089852 29.1332005163241
  endloop
endfacet
facet normal -0.444144960515119 -0.88828992103021 0.116945586685287
  outer loop
    vertex -317.158915683918 185.13026022975 28.1496881449345
    vertex -319.158915683917 186.225667916141 28.8743814712215
    vertex -319.158915683918 186.13026022975 28.1496881449344
  endloop
endfacet
facet normal -0.444144960515175 0.71080884419516 0.545422809445035
  outer loop
    vertex -317.158915683918 192.221156764131 30.0496881449345
    vertex -319.158915683918 190.910159217072 30.1295871322566
    vertex -317.158915683918 191.617265998259 30.8366939134434
  endloop
endfacet
facet normal -0.444144960515175 0.71080884419516 0.545422809445035
  outer loop
    vertex -319.158915683918 190.910159217072 30.1295871322566
    vertex -317.158915683918 192.221156764131 30.0496881449345
    vertex -319.158915683917 191.355131360346 29.5496881449343
  endloop
endfacet
facet normal -0.444144960515024 0.5454228094451 -0.710808844195204
  outer loop
    vertex -319.158915683917 190.910159217072 26.169789157612
    vertex -317.158915683917 190.83026022975 24.8587916105537
    vertex -319.158915683917 190.33026022975 25.7248170143379
  endloop
endfacet
facet normal -0.444144960515024 0.5454228094451 -0.710808844195204
  outer loop
    vertex -317.158915683917 190.83026022975 24.8587916105537
    vertex -319.158915683917 190.910159217072 26.169789157612
    vertex -317.158915683917 191.617265998259 25.4626823764257
  endloop
endfacet
facet normal -0.444144960515045 -0.710808844195163 -0.545422809445136
  outer loop
    vertex -319.158915683917 186.505389099154 26.7496881449343
    vertex -317.158915683917 186.243254461241 25.4626823764256
    vertex -317.158915683917 185.639363695369 26.2496881449345
  endloop
endfacet
facet normal -0.444144960515045 -0.710808844195163 -0.545422809445136
  outer loop
    vertex -317.158915683917 186.243254461241 25.4626823764256
    vertex -319.158915683917 186.505389099154 26.7496881449343
    vertex -319.158915683917 186.950361242428 26.169789157612
  endloop
endfacet
facet normal -0.444144960515036 0.710808844195159 -0.545422809445148
  outer loop
    vertex -317.158915683917 191.617265998259 25.4626823764257
    vertex -319.158915683917 191.355131360346 26.7496881449343
    vertex -317.158915683917 192.221156764131 26.2496881449346
  endloop
endfacet
facet normal -0.444144960515036 0.710808844195159 -0.545422809445148
  outer loop
    vertex -319.158915683917 191.355131360346 26.7496881449343
    vertex -317.158915683917 191.617265998259 25.4626823764257
    vertex -319.158915683917 190.910159217072 26.169789157612
  endloop
endfacet
facet normal -0.444144960515146 -0.827754430880502 0.342867111585079
  outer loop
    vertex -317.158915683918 185.639363695369 30.0496881449345
    vertex -319.158915683917 186.225667916141 28.8743814712215
    vertex -317.158915683917 185.259742089852 29.1332005163241
  endloop
endfacet
facet normal -0.444144960515146 -0.827754430880502 0.342867111585079
  outer loop
    vertex -319.158915683917 186.225667916141 28.8743814712215
    vertex -317.158915683918 185.639363695369 30.0496881449345
    vertex -319.158915683917 186.505389099154 29.5496881449343
  endloop
endfacet
facet normal -0.44414496051519 -0.545422809445097 0.710808844195103
  outer loop
    vertex -317.158915683918 187.03026022975 31.4405846793154
    vertex -319.158915683918 186.950361242428 30.1295871322566
    vertex -317.158915683918 186.243254461241 30.8366939134434
  endloop
endfacet
facet normal -0.44414496051519 -0.545422809445097 0.710808844195103
  outer loop
    vertex -319.158915683918 186.950361242428 30.1295871322566
    vertex -317.158915683918 187.03026022975 31.4405846793154
    vertex -319.158915683918 187.53026022975 30.5745592755307
  endloop
endfacet
facet normal -0.444144960515091 -0.888289921030212 -0.116945586685382
  outer loop
    vertex -317.158915683918 185.13026022975 28.1496881449345
    vertex -319.158915683917 186.225667916141 27.4249948186473
    vertex -317.158915683917 185.259742089852 27.166175773545
  endloop
endfacet
facet normal -0.444144960515091 -0.888289921030212 -0.116945586685382
  outer loop
    vertex -319.158915683917 186.225667916141 27.4249948186473
    vertex -317.158915683918 185.13026022975 28.1496881449345
    vertex -319.158915683918 186.13026022975 28.1496881449344
  endloop
endfacet
facet normal -0.44414496051517 -0.71080884419517 0.545422809445025
  outer loop
    vertex -319.158915683918 186.950361242428 30.1295871322566
    vertex -317.158915683918 185.639363695369 30.0496881449345
    vertex -317.158915683918 186.243254461241 30.8366939134434
  endloop
endfacet
facet normal -0.44414496051517 -0.71080884419517 0.545422809445025
  outer loop
    vertex -317.158915683918 185.639363695369 30.0496881449345
    vertex -319.158915683918 186.950361242428 30.1295871322566
    vertex -319.158915683917 186.505389099154 29.5496881449343
  endloop
endfacet
facet normal -0.444144960515063 -0.827754430880504 -0.342867111585181
  outer loop
    vertex -319.158915683917 186.225667916141 27.4249948186473
    vertex -317.158915683917 185.639363695369 26.2496881449345
    vertex -317.158915683917 185.259742089852 27.166175773545
  endloop
endfacet
facet normal -0.444144960515063 -0.827754430880504 -0.342867111585181
  outer loop
    vertex -317.158915683917 185.639363695369 26.2496881449345
    vertex -319.158915683917 186.225667916141 27.4249948186473
    vertex -319.158915683917 186.505389099154 26.7496881449343
  endloop
endfacet
facet normal -0.444144960515198 -0.342867111585123 0.827754430880457
  outer loop
    vertex -317.158915683918 187.94674785836 31.820206284833
    vertex -319.158915683918 187.53026022975 30.5745592755307
    vertex -317.158915683918 187.03026022975 31.4405846793154
  endloop
endfacet
facet normal -0.444144960515198 -0.342867111585123 0.827754430880457
  outer loop
    vertex -319.158915683918 187.53026022975 30.5745592755307
    vertex -317.158915683918 187.94674785836 31.820206284833
    vertex -319.158915683918 188.205566903463 30.8542804585437
  endloop
endfacet
facet normal 1.0 -9.98725001617794e-018 1.14156247096726e-013
  outer loop
    vertex -316.758915683918 193.221156764131 30.0496881449346
    vertex -316.758915683917 192.221156764131 26.2496881449346
    vertex -316.758915683917 193.221156764131 26.2496881449346
  endloop
endfacet
facet normal 1.0 -9.98725001617794e-018 1.14156247096726e-013
  outer loop
    vertex -316.758915683917 192.221156764131 26.2496881449346
    vertex -316.758915683918 193.221156764131 30.0496881449346
    vertex -316.758915683917 185.259742089852 27.166175773545
  endloop
endfacet
facet normal 1.0 -9.98725001617794e-018 1.14156247096726e-013
  outer loop
    vertex -316.758915683917 185.259742089852 27.166175773545
    vertex -316.758915683918 193.221156764131 30.0496881449346
    vertex -316.758915683918 185.13026022975 28.1496881449346
  endloop
endfacet
facet normal 1.0 -9.98725001617794e-018 1.14156247096726e-013
  outer loop
    vertex -316.758915683918 185.13026022975 28.1496881449346
    vertex -316.758915683918 193.221156764131 30.0496881449346
    vertex -316.758915683917 185.259742089852 29.1332005163242
  endloop
endfacet
facet normal 1.0 -9.98725001617794e-018 1.14156247096726e-013
  outer loop
    vertex -316.758915683917 185.259742089852 29.1332005163242
    vertex -316.758915683918 193.221156764131 30.0496881449346
    vertex -316.758915683918 185.639363695369 30.0496881449346
  endloop
endfacet
facet normal 1.0 -9.98725001617794e-018 1.14156247096726e-013
  outer loop
    vertex -316.758915683918 185.639363695369 30.0496881449346
    vertex -316.758915683918 193.221156764131 30.0496881449346
    vertex -316.758915683918 192.221156764131 30.0496881449346
  endloop
endfacet
facet normal 1.0 -9.98725001617794e-018 1.14156247096726e-013
  outer loop
    vertex -316.758915683918 185.639363695369 30.0496881449346
    vertex -316.758915683918 192.221156764131 30.0496881449346
    vertex -316.758915683918 191.617265998259 30.8366939134435
  endloop
endfacet
facet normal 1.0 -9.98725001617794e-018 1.14156247096726e-013
  outer loop
    vertex -316.758915683918 185.639363695369 30.0496881449346
    vertex -316.758915683918 191.617265998259 30.8366939134435
    vertex -316.758915683918 186.243254461241 30.8366939134435
  endloop
endfacet
facet normal 1.0 -9.98725001617794e-018 1.14156247096726e-013
  outer loop
    vertex -316.758915683918 186.243254461241 30.8366939134435
    vertex -316.758915683918 191.617265998259 30.8366939134435
    vertex -316.758915683918 187.03026022975 31.4405846793155
  endloop
endfacet
facet normal 1.0 -9.98725001617794e-018 1.14156247096726e-013
  outer loop
    vertex -316.758915683918 187.03026022975 31.4405846793155
    vertex -316.758915683918 191.617265998259 30.8366939134435
    vertex -316.758915683918 190.83026022975 31.4405846793155
  endloop
endfacet
facet normal 1.0 -9.98725001617794e-018 1.14156247096726e-013
  outer loop
    vertex -316.758915683918 187.03026022975 31.4405846793155
    vertex -316.758915683918 190.83026022975 31.4405846793155
    vertex -316.758915683918 189.91377260114 31.8202062848331
  endloop
endfacet
facet normal 1.0 -9.98725001617794e-018 1.14156247096726e-013
  outer loop
    vertex -316.758915683918 187.03026022975 31.4405846793155
    vertex -316.758915683918 189.91377260114 31.8202062848331
    vertex -316.758915683918 187.94674785836 31.8202062848331
  endloop
endfacet
facet normal 1.0 -9.98725001617794e-018 1.14156247096726e-013
  outer loop
    vertex -316.758915683918 187.94674785836 31.8202062848331
    vertex -316.758915683918 189.91377260114 31.8202062848331
    vertex -316.758915683918 188.93026022975 31.9496881449347
  endloop
endfacet
facet normal 1.0 -9.98725001617794e-018 1.14156247096726e-013
  outer loop
    vertex -316.758915683917 189.91377260114 24.4791700050361
    vertex -316.758915683917 187.94674785836 24.4791700050361
    vertex -316.758915683917 188.93026022975 24.3496881449346
  endloop
endfacet
facet normal 1.0 -9.98725001617794e-018 1.14156247096726e-013
  outer loop
    vertex -316.758915683917 187.94674785836 24.4791700050361
    vertex -316.758915683917 189.91377260114 24.4791700050361
    vertex -316.758915683917 190.83026022975 24.8587916105537
  endloop
endfacet
facet normal 1.0 -9.98725001617794e-018 1.14156247096726e-013
  outer loop
    vertex -316.758915683917 187.94674785836 24.4791700050361
    vertex -316.758915683917 190.83026022975 24.8587916105537
    vertex -316.758915683917 187.03026022975 24.8587916105537
  endloop
endfacet
facet normal 1.0 -9.98725001617794e-018 1.14156247096726e-013
  outer loop
    vertex -316.758915683917 187.03026022975 24.8587916105537
    vertex -316.758915683917 190.83026022975 24.8587916105537
    vertex -316.758915683917 191.617265998259 25.4626823764258
  endloop
endfacet
facet normal 1.0 -9.98725001617794e-018 1.14156247096726e-013
  outer loop
    vertex -316.758915683917 187.03026022975 24.8587916105537
    vertex -316.758915683917 191.617265998259 25.4626823764258
    vertex -316.758915683917 186.243254461241 25.4626823764257
  endloop
endfacet
facet normal 1.0 -9.98725001617794e-018 1.14156247096726e-013
  outer loop
    vertex -316.758915683917 186.243254461241 25.4626823764257
    vertex -316.758915683917 191.617265998259 25.4626823764258
    vertex -316.758915683917 185.639363695369 26.2496881449346
  endloop
endfacet
facet normal 1.0 -9.98725001617794e-018 1.14156247096726e-013
  outer loop
    vertex -316.758915683917 185.639363695369 26.2496881449346
    vertex -316.758915683917 191.617265998259 25.4626823764258
    vertex -316.758915683917 192.221156764131 26.2496881449346
  endloop
endfacet
facet normal 1.0 -9.98725001617794e-018 1.14156247096726e-013
  outer loop
    vertex -316.758915683917 185.639363695369 26.2496881449346
    vertex -316.758915683917 192.221156764131 26.2496881449346
    vertex -316.758915683917 185.259742089852 27.166175773545
  endloop
endfacet
facet normal -1.0 7.39032634411354e-015 -9.95704361165542e-014
  outer loop
    vertex -321.158915683918 186.13026022975 28.149688144934
    vertex -321.158915683918 186.68026022975 27.649688144934
    vertex -321.158915683917 186.225667916141 27.424994818647
  endloop
endfacet
facet normal -1.0 7.39032634411354e-015 -9.95704361165542e-014
  outer loop
    vertex -321.158915683918 186.68026022975 27.649688144934
    vertex -321.158915683918 186.13026022975 28.149688144934
    vertex -321.158915683917 186.68026022975 28.6496881449339
  endloop
endfacet
facet normal -1.0 7.39032634411354e-015 -9.95704361165542e-014
  outer loop
    vertex -321.158915683917 186.68026022975 28.6496881449339
    vertex -321.158915683918 186.13026022975 28.149688144934
    vertex -321.158915683917 186.225667916141 28.8743814712211
  endloop
endfacet
facet normal -1.0 7.39032634411354e-015 -9.95704361165542e-014
  outer loop
    vertex -321.158915683917 186.68026022975 28.6496881449339
    vertex -321.158915683917 186.225667916141 28.8743814712211
    vertex -321.158915683917 189.266046667377 28.6496881449339
  endloop
endfacet
facet normal -1.0 7.39032634411354e-015 -9.95704361165542e-014
  outer loop
    vertex -321.158915683917 189.266046667377 28.6496881449339
    vertex -321.158915683917 186.225667916141 28.8743814712211
    vertex -321.158915683917 188.473153448563 29.4425813637474
  endloop
endfacet
facet normal -1.0 7.39032634411354e-015 -9.95704361165542e-014
  outer loop
    vertex -321.158915683917 188.473153448563 29.4425813637474
    vertex -321.158915683917 186.225667916141 28.8743814712211
    vertex -321.158915683917 186.505389099154 29.549688144934
  endloop
endfacet
facet normal -1.0 7.39032634411354e-015 -9.95704361165542e-014
  outer loop
    vertex -321.158915683917 188.473153448563 29.4425813637474
    vertex -321.158915683917 186.505389099154 29.549688144934
    vertex -321.158915683917 189.18026022975 30.149688144934
  endloop
endfacet
facet normal -1.0 7.39032634411354e-015 -9.95704361165542e-014
  outer loop
    vertex -321.158915683917 189.18026022975 30.149688144934
    vertex -321.158915683917 186.505389099154 29.549688144934
    vertex -321.158915683918 186.950361242428 30.1295871322563
  endloop
endfacet
facet normal -1.0 7.39032634411354e-015 -9.95704361165542e-014
  outer loop
    vertex -321.158915683917 189.18026022975 30.149688144934
    vertex -321.158915683918 186.950361242428 30.1295871322563
    vertex -321.158915683918 187.53026022975 30.5745592755305
  endloop
endfacet
facet normal -1.0 7.39032634411354e-015 -9.95704361165542e-014
  outer loop
    vertex -321.158915683917 189.18026022975 30.149688144934
    vertex -321.158915683917 191.355131360346 29.549688144934
    vertex -321.158915683918 191.18026022975 28.149688144934
  endloop
endfacet
facet normal -1.0 7.39032634411354e-015 -9.95704361165542e-014
  outer loop
    vertex -321.158915683917 191.355131360346 29.549688144934
    vertex -321.158915683917 189.18026022975 30.149688144934
    vertex -321.158915683918 190.910159217072 30.1295871322563
  endloop
endfacet
facet normal -1.0 7.39032634411354e-015 -9.95704361165542e-014
  outer loop
    vertex -321.158915683918 190.910159217072 30.1295871322563
    vertex -321.158915683917 189.18026022975 30.149688144934
    vertex -321.158915683918 190.33026022975 30.5745592755305
  endloop
endfacet
facet normal -1.0 7.39032634411354e-015 -9.95704361165542e-014
  outer loop
    vertex -321.158915683918 190.33026022975 30.5745592755305
    vertex -321.158915683917 189.18026022975 30.149688144934
    vertex -321.158915683918 187.53026022975 30.5745592755305
  endloop
endfacet
facet normal -1.0 7.39032634411354e-015 -9.95704361165542e-014
  outer loop
    vertex -321.158915683918 190.33026022975 30.5745592755305
    vertex -321.158915683918 187.53026022975 30.5745592755305
    vertex -321.158915683917 188.205566903463 30.8542804585434
  endloop
endfacet
facet normal -1.0 7.39032634411354e-015 -9.95704361165542e-014
  outer loop
    vertex -321.158915683918 190.33026022975 30.5745592755305
    vertex -321.158915683917 188.205566903463 30.8542804585434
    vertex -321.158915683917 189.654953556037 30.8542804585434
  endloop
endfacet
facet normal -1.0 7.39032634411354e-015 -9.95704361165542e-014
  outer loop
    vertex -321.158915683917 189.654953556037 30.8542804585434
    vertex -321.158915683917 188.205566903463 30.8542804585434
    vertex -321.158915683918 188.93026022975 30.949688144934
  endloop
endfacet
facet normal -1.0 7.39032634411354e-015 -9.95704361165542e-014
  outer loop
    vertex -321.158915683917 189.18026022975 26.1496881449339
    vertex -321.158915683917 190.910159217072 26.1697891576117
    vertex -321.158915683917 190.33026022975 25.7248170143376
  endloop
endfacet
facet normal -1.0 7.39032634411354e-015 -9.95704361165542e-014
  outer loop
    vertex -321.158915683917 190.910159217072 26.1697891576117
    vertex -321.158915683917 189.18026022975 26.1496881449339
    vertex -321.158915683918 191.18026022975 28.149688144934
  endloop
endfacet
facet normal -1.0 7.39032634411354e-015 -9.95704361165542e-014
  outer loop
    vertex -321.158915683917 190.910159217072 26.1697891576117
    vertex -321.158915683918 191.18026022975 28.149688144934
    vertex -321.158915683917 191.355131360346 26.749688144934
  endloop
endfacet
facet normal -1.0 7.39032634411354e-015 -9.95704361165542e-014
  outer loop
    vertex -321.158915683917 191.355131360346 26.749688144934
    vertex -321.158915683918 191.18026022975 28.149688144934
    vertex -321.158915683917 192.355131360346 26.749688144934
  endloop
endfacet
facet normal -1.0 7.39032634411354e-015 -9.95704361165542e-014
  outer loop
    vertex -321.158915683917 192.355131360346 26.749688144934
    vertex -321.158915683918 191.18026022975 28.149688144934
    vertex -321.158915683917 192.355131360346 29.549688144934
  endloop
endfacet
facet normal -1.0 7.39032634411354e-015 -9.95704361165542e-014
  outer loop
    vertex -321.158915683917 192.355131360346 29.549688144934
    vertex -321.158915683918 191.18026022975 28.149688144934
    vertex -321.158915683917 191.355131360346 29.549688144934
  endloop
endfacet
facet normal -1.0 7.39032634411354e-015 -9.95704361165542e-014
  outer loop
    vertex -321.158915683917 188.205566903463 25.4450958313247
    vertex -321.158915683917 189.654953556037 25.4450958313247
    vertex -321.158915683917 188.93026022975 25.3496881449341
  endloop
endfacet
facet normal -1.0 7.39032634411354e-015 -9.95704361165542e-014
  outer loop
    vertex -321.158915683917 189.654953556037 25.4450958313247
    vertex -321.158915683917 188.205566903463 25.4450958313247
    vertex -321.158915683917 187.53026022975 25.7248170143376
  endloop
endfacet
facet normal -1.0 7.39032634411354e-015 -9.95704361165542e-014
  outer loop
    vertex -321.158915683917 189.654953556037 25.4450958313247
    vertex -321.158915683917 187.53026022975 25.7248170143376
    vertex -321.158915683917 190.33026022975 25.7248170143376
  endloop
endfacet
facet normal -1.0 7.39032634411354e-015 -9.95704361165542e-014
  outer loop
    vertex -321.158915683917 190.33026022975 25.7248170143376
    vertex -321.158915683917 187.53026022975 25.7248170143376
    vertex -321.158915683917 186.950361242428 26.1697891576117
  endloop
endfacet
facet normal -1.0 7.39032634411354e-015 -9.95704361165542e-014
  outer loop
    vertex -321.158915683917 190.33026022975 25.7248170143376
    vertex -321.158915683917 186.950361242428 26.1697891576117
    vertex -321.158915683917 189.18026022975 26.1496881449339
  endloop
endfacet
facet normal -1.0 7.39032634411354e-015 -9.95704361165542e-014
  outer loop
    vertex -321.158915683917 189.18026022975 26.1496881449339
    vertex -321.158915683917 186.950361242428 26.1697891576117
    vertex -321.158915683917 188.473153448563 26.8567949261206
  endloop
endfacet
facet normal -1.0 7.39032634411354e-015 -9.95704361165542e-014
  outer loop
    vertex -321.158915683917 188.473153448563 26.8567949261206
    vertex -321.158915683917 186.950361242428 26.1697891576117
    vertex -321.158915683917 186.505389099154 26.749688144934
  endloop
endfacet
facet normal -1.0 7.39032634411354e-015 -9.95704361165542e-014
  outer loop
    vertex -321.158915683917 188.473153448563 26.8567949261206
    vertex -321.158915683917 186.505389099154 26.749688144934
    vertex -321.158915683917 186.225667916141 27.424994818647
  endloop
endfacet
facet normal -1.0 7.39032634411354e-015 -9.95704361165542e-014
  outer loop
    vertex -321.158915683917 188.473153448563 26.8567949261206
    vertex -321.158915683917 186.225667916141 27.424994818647
    vertex -321.158915683918 189.266046667377 27.649688144934
  endloop
endfacet
facet normal -1.0 7.39032634411354e-015 -9.95704361165542e-014
  outer loop
    vertex -321.158915683918 189.266046667377 27.649688144934
    vertex -321.158915683917 186.225667916141 27.424994818647
    vertex -321.158915683918 186.68026022975 27.649688144934
  endloop
endfacet
facet normal 1.17569135195135e-013 -0.130526192220026 -0.991444861373814
  outer loop
    vertex -321.158915683917 188.93026022975 25.3496881449341
    vertex -319.158915683917 188.205566903463 25.4450958313249
    vertex -321.158915683917 188.205566903463 25.4450958313247
  endloop
endfacet
facet normal 1.17569135195135e-013 -0.130526192220026 -0.991444861373814
  outer loop
    vertex -319.158915683917 188.205566903463 25.4450958313249
    vertex -321.158915683917 188.93026022975 25.3496881449341
    vertex -319.158915683917 188.93026022975 25.3496881449343
  endloop
endfacet
facet normal 1.19920084756091e-013 -0.382683432365127 -0.923879532511272
  outer loop
    vertex -321.158915683917 188.205566903463 25.4450958313247
    vertex -319.158915683917 187.53026022975 25.724817014338
    vertex -321.158915683917 187.53026022975 25.7248170143376
  endloop
endfacet
facet normal 1.19920084756091e-013 -0.382683432365127 -0.923879532511272
  outer loop
    vertex -319.158915683917 187.53026022975 25.724817014338
    vertex -321.158915683917 188.205566903463 25.4450958313247
    vertex -319.158915683917 188.205566903463 25.4450958313249
  endloop
endfacet
facet normal 1.02973198782207e-013 -0.608761429008736 -0.793353340291223
  outer loop
    vertex -321.158915683917 187.53026022975 25.7248170143376
    vertex -319.158915683917 186.950361242428 26.169789157612
    vertex -321.158915683917 186.950361242428 26.1697891576117
  endloop
endfacet
facet normal 1.02973198782207e-013 -0.608761429008736 -0.793353340291223
  outer loop
    vertex -319.158915683917 186.950361242428 26.169789157612
    vertex -321.158915683917 187.53026022975 25.7248170143376
    vertex -319.158915683917 187.53026022975 25.724817014338
  endloop
endfacet
facet normal 7.21835372229519e-014 -0.793353340291208 -0.608761429008756
  outer loop
    vertex -319.158915683917 186.505389099154 26.7496881449343
    vertex -321.158915683917 186.950361242428 26.1697891576117
    vertex -319.158915683917 186.950361242428 26.169789157612
  endloop
endfacet
facet normal 7.21835372229519e-014 -0.793353340291208 -0.608761429008756
  outer loop
    vertex -321.158915683917 186.950361242428 26.1697891576117
    vertex -319.158915683917 186.505389099154 26.7496881449343
    vertex -321.158915683917 186.505389099154 26.749688144934
  endloop
endfacet
facet normal 4.53370257148557e-014 -0.923879532511282 -0.3826834323651
  outer loop
    vertex -321.158915683917 186.225667916141 27.424994818647
    vertex -319.158915683917 186.505389099154 26.7496881449343
    vertex -319.158915683917 186.225667916141 27.4249948186473
  endloop
endfacet
facet normal 4.53370257148557e-014 -0.923879532511282 -0.3826834323651
  outer loop
    vertex -319.158915683917 186.505389099154 26.7496881449343
    vertex -321.158915683917 186.225667916141 27.424994818647
    vertex -321.158915683917 186.505389099154 26.749688144934
  endloop
endfacet
facet normal 1.69225998452207e-014 -0.991444861373814 -0.130526192220022
  outer loop
    vertex -319.158915683918 186.13026022975 28.1496881449344
    vertex -321.158915683917 186.225667916141 27.424994818647
    vertex -319.158915683917 186.225667916141 27.4249948186473
  endloop
endfacet
facet normal 1.69225998452207e-014 -0.991444861373814 -0.130526192220022
  outer loop
    vertex -321.158915683917 186.225667916141 27.424994818647
    vertex -319.158915683918 186.13026022975 28.1496881449344
    vertex -321.158915683918 186.13026022975 28.149688144934
  endloop
endfacet
facet normal -1.69399470799804e-014 -0.991444861373813 0.13052619222003
  outer loop
    vertex -321.158915683917 186.225667916141 28.8743814712211
    vertex -319.158915683918 186.13026022975 28.1496881449344
    vertex -319.158915683917 186.225667916141 28.8743814712215
  endloop
endfacet
facet normal -1.69399470799804e-014 -0.991444861373813 0.13052619222003
  outer loop
    vertex -319.158915683918 186.13026022975 28.1496881449344
    vertex -321.158915683917 186.225667916141 28.8743814712211
    vertex -321.158915683918 186.13026022975 28.149688144934
  endloop
endfacet
facet normal -4.53370257148557e-014 -0.923879532511282 0.3826834323651
  outer loop
    vertex -319.158915683917 186.505389099154 29.5496881449343
    vertex -321.158915683917 186.225667916141 28.8743814712211
    vertex -319.158915683917 186.225667916141 28.8743814712215
  endloop
endfacet
facet normal -4.53370257148557e-014 -0.923879532511282 0.3826834323651
  outer loop
    vertex -321.158915683917 186.225667916141 28.8743814712211
    vertex -319.158915683917 186.505389099154 29.5496881449343
    vertex -321.158915683917 186.505389099154 29.549688144934
  endloop
endfacet
facet normal -7.2252926161991e-014 -0.793353340291208 0.608761429008756
  outer loop
    vertex -319.158915683918 186.950361242428 30.1295871322566
    vertex -321.158915683917 186.505389099154 29.549688144934
    vertex -319.158915683917 186.505389099154 29.5496881449343
  endloop
endfacet
facet normal -7.2252926161991e-014 -0.793353340291208 0.608761429008756
  outer loop
    vertex -321.158915683917 186.505389099154 29.549688144934
    vertex -319.158915683918 186.950361242428 30.1295871322566
    vertex -321.158915683918 186.950361242428 30.1295871322563
  endloop
endfacet
facet normal -9.39526367071272e-014 -0.608761429008756 0.793353340291208
  outer loop
    vertex -319.158915683918 187.53026022975 30.5745592755307
    vertex -321.158915683918 186.950361242428 30.1295871322563
    vertex -319.158915683918 186.950361242428 30.1295871322566
  endloop
endfacet
facet normal -9.39526367071272e-014 -0.608761429008756 0.793353340291208
  outer loop
    vertex -321.158915683918 186.950361242428 30.1295871322563
    vertex -319.158915683918 187.53026022975 30.5745592755307
    vertex -321.158915683918 187.53026022975 30.5745592755305
  endloop
endfacet
facet normal -1.09581132839269e-013 -0.382683432365101 0.923879532511282
  outer loop
    vertex -319.158915683918 188.205566903463 30.8542804585437
    vertex -321.158915683918 187.53026022975 30.5745592755305
    vertex -319.158915683918 187.53026022975 30.5745592755307
  endloop
endfacet
facet normal -1.09581132839269e-013 -0.382683432365101 0.923879532511282
  outer loop
    vertex -321.158915683918 187.53026022975 30.5745592755305
    vertex -319.158915683918 188.205566903463 30.8542804585437
    vertex -321.158915683917 188.205566903463 30.8542804585434
  endloop
endfacet
facet normal -1.17569135195135e-013 -0.130526192220026 0.991444861373814
  outer loop
    vertex -319.158915683918 188.93026022975 30.9496881449343
    vertex -321.158915683917 188.205566903463 30.8542804585434
    vertex -319.158915683918 188.205566903463 30.8542804585437
  endloop
endfacet
facet normal -1.17569135195135e-013 -0.130526192220026 0.991444861373814
  outer loop
    vertex -321.158915683917 188.205566903463 30.8542804585434
    vertex -319.158915683918 188.93026022975 30.9496881449343
    vertex -321.158915683918 188.93026022975 30.949688144934
  endloop
endfacet
facet normal -1.17569135195135e-013 0.130526192220026 0.991444861373814
  outer loop
    vertex -319.158915683918 189.654953556037 30.8542804585437
    vertex -321.158915683918 188.93026022975 30.949688144934
    vertex -319.158915683918 188.93026022975 30.9496881449343
  endloop
endfacet
facet normal -1.17569135195135e-013 0.130526192220026 0.991444861373814
  outer loop
    vertex -321.158915683918 188.93026022975 30.949688144934
    vertex -319.158915683918 189.654953556037 30.8542804585437
    vertex -321.158915683917 189.654953556037 30.8542804585434
  endloop
endfacet
facet normal -1.09581132839269e-013 0.382683432365101 0.923879532511282
  outer loop
    vertex -319.158915683918 190.33026022975 30.5745592755307
    vertex -321.158915683917 189.654953556037 30.8542804585434
    vertex -319.158915683918 189.654953556037 30.8542804585437
  endloop
endfacet
facet normal -1.09581132839269e-013 0.382683432365101 0.923879532511282
  outer loop
    vertex -321.158915683917 189.654953556037 30.8542804585434
    vertex -319.158915683918 190.33026022975 30.5745592755307
    vertex -321.158915683918 190.33026022975 30.5745592755305
  endloop
endfacet
facet normal -9.39387589193194e-014 0.608761429008756 0.793353340291208
  outer loop
    vertex -319.158915683918 190.910159217072 30.1295871322566
    vertex -321.158915683918 190.33026022975 30.5745592755305
    vertex -319.158915683918 190.33026022975 30.5745592755307
  endloop
endfacet
facet normal -9.39387589193194e-014 0.608761429008756 0.793353340291208
  outer loop
    vertex -321.158915683918 190.33026022975 30.5745592755305
    vertex -319.158915683918 190.910159217072 30.1295871322566
    vertex -321.158915683918 190.910159217072 30.1295871322563
  endloop
endfacet
facet normal -7.2252926161991e-014 0.793353340291208 0.608761429008756
  outer loop
    vertex -321.158915683917 191.355131360346 29.549688144934
    vertex -319.158915683918 190.910159217072 30.1295871322566
    vertex -319.158915683917 191.355131360346 29.5496881449343
  endloop
endfacet
facet normal -7.2252926161991e-014 0.793353340291208 0.608761429008756
  outer loop
    vertex -319.158915683918 190.910159217072 30.1295871322566
    vertex -321.158915683917 191.355131360346 29.549688144934
    vertex -321.158915683918 190.910159217072 30.1295871322563
  endloop
endfacet
facet normal 6.52862766824681e-014 0.793353340291197 -0.608761429008771
  outer loop
    vertex -321.158915683917 190.910159217072 26.1697891576117
    vertex -319.158915683917 191.355131360346 26.7496881449343
    vertex -319.158915683917 190.910159217072 26.169789157612
  endloop
endfacet
facet normal 6.52862766824681e-014 0.793353340291197 -0.608761429008771
  outer loop
    vertex -319.158915683917 191.355131360346 26.7496881449343
    vertex -321.158915683917 190.910159217072 26.1697891576117
    vertex -321.158915683917 191.355131360346 26.749688144934
  endloop
endfacet
facet normal 9.39387589193194e-014 0.608761429008756 -0.793353340291208
  outer loop
    vertex -321.158915683917 190.910159217072 26.1697891576117
    vertex -319.158915683917 190.33026022975 25.7248170143379
    vertex -321.158915683917 190.33026022975 25.7248170143376
  endloop
endfacet
facet normal 9.39387589193194e-014 0.608761429008756 -0.793353340291208
  outer loop
    vertex -319.158915683917 190.33026022975 25.7248170143379
    vertex -321.158915683917 190.910159217072 26.1697891576117
    vertex -319.158915683917 190.910159217072 26.169789157612
  endloop
endfacet
facet normal 1.09581132839269e-013 0.382683432365101 -0.923879532511282
  outer loop
    vertex -321.158915683917 190.33026022975 25.7248170143376
    vertex -319.158915683917 189.654953556037 25.4450958313249
    vertex -321.158915683917 189.654953556037 25.4450958313247
  endloop
endfacet
facet normal 1.09581132839269e-013 0.382683432365101 -0.923879532511282
  outer loop
    vertex -319.158915683917 189.654953556037 25.4450958313249
    vertex -321.158915683917 190.33026022975 25.7248170143376
    vertex -319.158915683917 190.33026022975 25.7248170143379
  endloop
endfacet
facet normal 1.17569135195135e-013 0.130526192220026 -0.991444861373814
  outer loop
    vertex -321.158915683917 189.654953556037 25.4450958313247
    vertex -319.158915683917 188.93026022975 25.3496881449343
    vertex -321.158915683917 188.93026022975 25.3496881449341
  endloop
endfacet
facet normal 1.17569135195135e-013 0.130526192220026 -0.991444861373814
  outer loop
    vertex -319.158915683917 188.93026022975 25.3496881449343
    vertex -321.158915683917 189.654953556037 25.4450958313247
    vertex -319.158915683917 189.654953556037 25.4450958313249
  endloop
endfacet
facet normal 1.04238184533261e-013 0.382683432365073 -0.923879532511294
  outer loop
    vertex -317.158915683917 190.83026022975 24.8587916105537
    vertex -316.758915683917 189.91377260114 24.4791700050361
    vertex -317.158915683917 189.91377260114 24.4791700050361
  endloop
endfacet
facet normal 1.04238184533261e-013 0.382683432365073 -0.923879532511294
  outer loop
    vertex -316.758915683917 189.91377260114 24.4791700050361
    vertex -317.158915683917 190.83026022975 24.8587916105537
    vertex -316.758915683917 190.83026022975 24.8587916105537
  endloop
endfacet
facet normal -1.11768219891469e-013 0.130526192220014 0.991444861373815
  outer loop
    vertex -316.758915683918 189.91377260114 31.8202062848331
    vertex -317.158915683918 188.93026022975 31.9496881449346
    vertex -316.758915683918 188.93026022975 31.9496881449347
  endloop
endfacet
facet normal -1.11768219891469e-013 0.130526192220014 0.991444861373815
  outer loop
    vertex -317.158915683918 188.93026022975 31.9496881449346
    vertex -316.758915683918 189.91377260114 31.8202062848331
    vertex -317.158915683918 189.91377260114 31.820206284833
  endloop
endfacet
facet normal 1.04321451260108e-013 -0.382683432365089 -0.923879532511287
  outer loop
    vertex -317.158915683917 187.94674785836 24.4791700050361
    vertex -316.758915683917 187.03026022975 24.8587916105537
    vertex -317.158915683917 187.03026022975 24.8587916105537
  endloop
endfacet
facet normal 1.04321451260108e-013 -0.382683432365089 -0.923879532511287
  outer loop
    vertex -316.758915683917 187.03026022975 24.8587916105537
    vertex -317.158915683917 187.94674785836 24.4791700050361
    vertex -316.758915683917 187.94674785836 24.4791700050361
  endloop
endfacet
facet normal 6.8658579119767e-014 0.79335334029125 -0.608761429008701
  outer loop
    vertex -316.758915683917 191.617265998259 25.4626823764258
    vertex -317.158915683917 192.221156764131 26.2496881449346
    vertex -316.758915683917 192.221156764131 26.2496881449346
  endloop
endfacet
facet normal 6.8658579119767e-014 0.79335334029125 -0.608761429008701
  outer loop
    vertex -317.158915683917 192.221156764131 26.2496881449346
    vertex -316.758915683917 191.617265998259 25.4626823764258
    vertex -317.158915683917 191.617265998259 25.4626823764257
  endloop
endfacet
facet normal -8.95256223964344e-014 0.608761429008701 0.79335334029125
  outer loop
    vertex -316.758915683918 191.617265998259 30.8366939134435
    vertex -317.158915683918 190.83026022975 31.4405846793154
    vertex -316.758915683918 190.83026022975 31.4405846793155
  endloop
endfacet
facet normal -8.95256223964344e-014 0.608761429008701 0.79335334029125
  outer loop
    vertex -317.158915683918 190.83026022975 31.4405846793154
    vertex -316.758915683918 191.617265998259 30.8366939134435
    vertex -317.158915683918 191.617265998259 30.8366939134434
  endloop
endfacet
facet normal -4.32414797558758e-014 -0.923879532511287 0.382683432365089
  outer loop
    vertex -316.758915683918 185.639363695369 30.0496881449346
    vertex -317.158915683917 185.259742089852 29.1332005163241
    vertex -316.758915683917 185.259742089852 29.1332005163242
  endloop
endfacet
facet normal -4.32414797558758e-014 -0.923879532511287 0.382683432365089
  outer loop
    vertex -317.158915683917 185.259742089852 29.1332005163241
    vertex -316.758915683918 185.639363695369 30.0496881449346
    vertex -317.158915683918 185.639363695369 30.0496881449345
  endloop
endfacet
facet normal 1.47437871593938e-014 -0.99144486137381 -0.130526192220059
  outer loop
    vertex -316.758915683918 185.13026022975 28.1496881449346
    vertex -317.158915683917 185.259742089852 27.166175773545
    vertex -316.758915683917 185.259742089852 27.166175773545
  endloop
endfacet
facet normal 1.47437871593938e-014 -0.99144486137381 -0.130526192220059
  outer loop
    vertex -317.158915683917 185.259742089852 27.166175773545
    vertex -316.758915683918 185.13026022975 28.1496881449346
    vertex -317.158915683918 185.13026022975 28.1496881449345
  endloop
endfacet
facet normal -1.04321451260108e-013 0.382683432365128 0.923879532511271
  outer loop
    vertex -316.758915683918 190.83026022975 31.4405846793155
    vertex -317.158915683918 189.91377260114 31.820206284833
    vertex -316.758915683918 189.91377260114 31.8202062848331
  endloop
endfacet
facet normal -1.04321451260108e-013 0.382683432365128 0.923879532511271
  outer loop
    vertex -317.158915683918 189.91377260114 31.820206284833
    vertex -316.758915683918 190.83026022975 31.4405846793155
    vertex -317.158915683918 190.83026022975 31.4405846793154
  endloop
endfacet
facet normal -1.47090926898743e-014 -0.99144486137381 0.130526192220059
  outer loop
    vertex -317.158915683917 185.259742089852 29.1332005163241
    vertex -316.758915683918 185.13026022975 28.1496881449346
    vertex -316.758915683917 185.259742089852 29.1332005163242
  endloop
endfacet
facet normal -1.47090926898743e-014 -0.99144486137381 0.130526192220059
  outer loop
    vertex -316.758915683918 185.13026022975 28.1496881449346
    vertex -317.158915683917 185.259742089852 29.1332005163241
    vertex -317.158915683918 185.13026022975 28.1496881449345
  endloop
endfacet
facet normal -8.95811335476657e-014 -0.60876142900873 0.793353340291228
  outer loop
    vertex -316.758915683918 187.03026022975 31.4405846793155
    vertex -317.158915683918 186.243254461241 30.8366939134434
    vertex -316.758915683918 186.243254461241 30.8366939134435
  endloop
endfacet
facet normal -8.95811335476657e-014 -0.60876142900873 0.793353340291228
  outer loop
    vertex -317.158915683918 186.243254461241 30.8366939134434
    vertex -316.758915683918 187.03026022975 31.4405846793155
    vertex -317.158915683918 187.03026022975 31.4405846793154
  endloop
endfacet
facet normal -6.86030679685358e-014 0.793353340291228 0.60876142900873
  outer loop
    vertex -317.158915683918 192.221156764131 30.0496881449345
    vertex -316.758915683918 191.617265998259 30.8366939134435
    vertex -316.758915683918 192.221156764131 30.0496881449346
  endloop
endfacet
facet normal -6.86030679685358e-014 0.793353340291228 0.60876142900873
  outer loop
    vertex -316.758915683918 191.617265998259 30.8366939134435
    vertex -317.158915683918 192.221156764131 30.0496881449345
    vertex -317.158915683918 191.617265998259 30.8366939134434
  endloop
endfacet
facet normal -1.04238184533261e-013 -0.382683432365073 0.923879532511294
  outer loop
    vertex -316.758915683918 187.94674785836 31.8202062848331
    vertex -317.158915683918 187.03026022975 31.4405846793154
    vertex -316.758915683918 187.03026022975 31.4405846793155
  endloop
endfacet
facet normal -1.04238184533261e-013 -0.382683432365073 0.923879532511294
  outer loop
    vertex -317.158915683918 187.03026022975 31.4405846793154
    vertex -316.758915683918 187.94674785836 31.8202062848331
    vertex -317.158915683918 187.94674785836 31.820206284833
  endloop
endfacet
facet normal -6.8658579119767e-014 -0.79335334029125 0.608761429008701
  outer loop
    vertex -316.758915683918 186.243254461241 30.8366939134435
    vertex -317.158915683918 185.639363695369 30.0496881449345
    vertex -316.758915683918 185.639363695369 30.0496881449346
  endloop
endfacet
facet normal -6.8658579119767e-014 -0.79335334029125 0.608761429008701
  outer loop
    vertex -317.158915683918 185.639363695369 30.0496881449345
    vertex -316.758915683918 186.243254461241 30.8366939134435
    vertex -317.158915683918 186.243254461241 30.8366939134434
  endloop
endfacet
facet normal -1.11906997769547e-013 -0.130526192220059 0.991444861373809
  outer loop
    vertex -316.758915683918 188.93026022975 31.9496881449347
    vertex -317.158915683918 187.94674785836 31.820206284833
    vertex -316.758915683918 187.94674785836 31.8202062848331
  endloop
endfacet
facet normal -1.11906997769547e-013 -0.130526192220059 0.991444861373809
  outer loop
    vertex -317.158915683918 187.94674785836 31.820206284833
    vertex -316.758915683918 188.93026022975 31.9496881449347
    vertex -317.158915683918 188.93026022975 31.9496881449346
  endloop
endfacet
facet normal 8.96366446988969e-014 0.60876142900873 -0.793353340291228
  outer loop
    vertex -317.158915683917 191.617265998259 25.4626823764257
    vertex -316.758915683917 190.83026022975 24.8587916105537
    vertex -317.158915683917 190.83026022975 24.8587916105537
  endloop
endfacet
facet normal 8.96366446988969e-014 0.60876142900873 -0.793353340291228
  outer loop
    vertex -316.758915683917 190.83026022975 24.8587916105537
    vertex -317.158915683917 191.617265998259 25.4626823764257
    vertex -316.758915683917 191.617265998259 25.4626823764258
  endloop
endfacet
facet normal 1.11906997769547e-013 0.130526192220059 -0.991444861373809
  outer loop
    vertex -317.158915683917 189.91377260114 24.4791700050361
    vertex -316.758915683917 188.93026022975 24.3496881449346
    vertex -317.158915683917 188.93026022975 24.3496881449345
  endloop
endfacet
facet normal 1.11906997769547e-013 0.130526192220059 -0.991444861373809
  outer loop
    vertex -316.758915683917 188.93026022975 24.3496881449346
    vertex -317.158915683917 189.91377260114 24.4791700050361
    vertex -316.758915683917 189.91377260114 24.4791700050361
  endloop
endfacet
facet normal 1.11906997769547e-013 -0.130526192220059 -0.991444861373809
  outer loop
    vertex -317.158915683917 188.93026022975 24.3496881449345
    vertex -316.758915683917 187.94674785836 24.4791700050361
    vertex -317.158915683917 187.94674785836 24.4791700050361
  endloop
endfacet
facet normal 1.11906997769547e-013 -0.130526192220059 -0.991444861373809
  outer loop
    vertex -316.758915683917 187.94674785836 24.4791700050361
    vertex -317.158915683917 188.93026022975 24.3496881449345
    vertex -316.758915683917 188.93026022975 24.3496881449346
  endloop
endfacet
facet normal 8.95117446086266e-014 -0.608761429008701 -0.79335334029125
  outer loop
    vertex -317.158915683917 187.03026022975 24.8587916105537
    vertex -316.758915683917 186.243254461241 25.4626823764257
    vertex -317.158915683917 186.243254461241 25.4626823764256
  endloop
endfacet
facet normal 8.95117446086266e-014 -0.608761429008701 -0.79335334029125
  outer loop
    vertex -316.758915683917 186.243254461241 25.4626823764257
    vertex -317.158915683917 187.03026022975 24.8587916105537
    vertex -316.758915683917 187.03026022975 24.8587916105537
  endloop
endfacet
facet normal 6.86169457563436e-014 -0.793353340291228 -0.60876142900873
  outer loop
    vertex -317.158915683917 185.639363695369 26.2496881449345
    vertex -316.758915683917 186.243254461241 25.4626823764257
    vertex -316.758915683917 185.639363695369 26.2496881449346
  endloop
endfacet
facet normal 6.86169457563436e-014 -0.793353340291228 -0.60876142900873
  outer loop
    vertex -316.758915683917 186.243254461241 25.4626823764257
    vertex -317.158915683917 185.639363695369 26.2496881449345
    vertex -317.158915683917 186.243254461241 25.4626823764256
  endloop
endfacet
facet normal 4.31651519229328e-014 -0.923879532511294 -0.382683432365073
  outer loop
    vertex -316.758915683917 185.259742089852 27.166175773545
    vertex -317.158915683917 185.639363695369 26.2496881449345
    vertex -316.758915683917 185.639363695369 26.2496881449346
  endloop
endfacet
facet normal 4.31651519229328e-014 -0.923879532511294 -0.382683432365073
  outer loop
    vertex -317.158915683917 185.639363695369 26.2496881449345
    vertex -316.758915683917 185.259742089852 27.166175773545
    vertex -317.158915683917 185.259742089852 27.166175773545
  endloop
endfacet
facet normal 1.12837857254984e-013 0.0 -1.0
  outer loop
    vertex -317.158915683917 193.221156764131 26.2496881449346
    vertex -316.758915683917 192.221156764131 26.2496881449346
    vertex -317.158915683917 192.221156764131 26.2496881449346
  endloop
endfacet
facet normal 1.12837857254984e-013 0.0 -1.0
  outer loop
    vertex -316.758915683917 192.221156764131 26.2496881449346
    vertex -317.158915683917 193.221156764131 26.2496881449346
    vertex -316.758915683917 193.221156764131 26.2496881449346
  endloop
endfacet
facet normal -1.12837857254984e-013 0.0 1.0
  outer loop
    vertex -316.758915683918 193.221156764131 30.0496881449346
    vertex -317.158915683918 192.221156764131 30.0496881449345
    vertex -316.758915683918 192.221156764131 30.0496881449346
  endloop
endfacet
facet normal -1.12837857254984e-013 0.0 1.0
  outer loop
    vertex -317.158915683918 192.221156764131 30.0496881449345
    vertex -316.758915683918 193.221156764131 30.0496881449346
    vertex -317.158915683918 193.221156764131 30.0496881449345
  endloop
endfacet
facet normal 0.0 1.0 0.0
  outer loop
    vertex -317.158915683917 193.221156764131 26.2496881449346
    vertex -316.758915683918 193.221156764131 30.0496881449346
    vertex -316.758915683917 193.221156764131 26.2496881449346
  endloop
endfacet
facet normal 0.0 1.0 0.0
  outer loop
    vertex -316.758915683918 193.221156764131 30.0496881449346
    vertex -317.158915683917 193.221156764131 26.2496881449346
    vertex -317.158915683918 193.221156764131 30.0496881449345
  endloop
endfacet
facet normal 9.58098116147954e-014 0.0 -1.0
  outer loop
    vertex -321.158915683917 192.355131360346 26.749688144934
    vertex -319.158915683917 191.355131360346 26.7496881449343
    vertex -321.158915683917 191.355131360346 26.749688144934
  endloop
endfacet
facet normal 9.58098116147954e-014 0.0 -1.0
  outer loop
    vertex -319.158915683917 191.355131360346 26.7496881449343
    vertex -321.158915683917 192.355131360346 26.749688144934
    vertex -319.158915683917 192.355131360346 26.7496881449343
  endloop
endfacet
facet normal -1.18458361317149e-013 0.0 1.0
  outer loop
    vertex -319.158915683917 192.355131360346 29.5496881449343
    vertex -321.158915683917 191.355131360346 29.549688144934
    vertex -319.158915683917 191.355131360346 29.5496881449343
  endloop
endfacet
facet normal -1.18458361317149e-013 0.0 1.0
  outer loop
    vertex -321.158915683917 191.355131360346 29.549688144934
    vertex -319.158915683917 192.355131360346 29.5496881449343
    vertex -321.158915683917 192.355131360346 29.549688144934
  endloop
endfacet
facet normal 0.0 1.0 0.0
  outer loop
    vertex -319.158915683917 192.355131360346 26.7496881449343
    vertex -321.158915683917 192.355131360346 29.549688144934
    vertex -319.158915683917 192.355131360346 29.5496881449343
  endloop
endfacet
facet normal 0.0 1.0 0.0
  outer loop
    vertex -321.158915683917 192.355131360346 29.549688144934
    vertex -319.158915683917 192.355131360346 26.7496881449343
    vertex -321.158915683917 192.355131360346 26.749688144934
  endloop
endfacet
facet normal -0.242535625036479 0.0 0.970142500145295
  outer loop
    vertex -317.158915683918 192.221156764131 30.0496881449345
    vertex -319.158915683917 192.355131360346 29.5496881449343
    vertex -319.158915683917 191.355131360346 29.5496881449343
  endloop
endfacet
facet normal -0.242535625036479 0.0 0.970142500145295
  outer loop
    vertex -319.158915683917 192.355131360346 29.5496881449343
    vertex -317.158915683918 192.221156764131 30.0496881449345
    vertex -317.158915683918 193.221156764131 30.0496881449345
  endloop
endfacet
facet normal -0.242535625036187 -8.55087798321954e-017 -0.970142500145369
  outer loop
    vertex -319.158915683917 192.355131360346 26.7496881449343
    vertex -317.158915683917 192.221156764131 26.2496881449346
    vertex -319.158915683917 191.355131360346 26.7496881449343
  endloop
endfacet
facet normal -0.242535625036187 -8.55087798321954e-017 -0.970142500145369
  outer loop
    vertex -317.158915683917 192.221156764131 26.2496881449346
    vertex -319.158915683917 192.355131360346 26.7496881449343
    vertex -317.158915683917 193.221156764131 26.2496881449346
  endloop
endfacet
facet normal -0.397359707119527 0.917662935482241 -4.49502449815271e-014
  outer loop
    vertex -319.158915683917 192.355131360346 26.7496881449343
    vertex -317.158915683918 193.221156764131 30.0496881449345
    vertex -317.158915683917 193.221156764131 26.2496881449346
  endloop
endfacet
facet normal -0.397359707119527 0.917662935482241 -4.49502449815271e-014
  outer loop
    vertex -317.158915683918 193.221156764131 30.0496881449345
    vertex -319.158915683917 192.355131360346 26.7496881449343
    vertex -319.158915683917 192.355131360346 29.5496881449343
  endloop
endfacet
facet normal 5.63993296509262e-013 0.0 -1.0
  outer loop
    vertex -321.158915683917 189.266046667377 28.6496881449339
    vertex -320.558915683917 186.68026022975 28.6496881449342
    vertex -321.158915683917 186.68026022975 28.6496881449339
  endloop
endfacet
facet normal 5.63993296509262e-013 0.0 -1.0
  outer loop
    vertex -320.558915683917 186.68026022975 28.6496881449342
    vertex -321.158915683917 189.266046667377 28.6496881449339
    vertex -320.558915683917 189.266046667377 28.6496881449342
  endloop
endfacet
facet normal -2.04412952419508e-013 0.707106781186563 0.707106781186532
  outer loop
    vertex -320.558915683917 189.18026022975 26.1496881449342
    vertex -321.158915683917 188.473153448563 26.8567949261206
    vertex -320.558915683917 188.473153448563 26.8567949261206
  endloop
endfacet
facet normal -2.04412952419508e-013 0.707106781186563 0.707106781186532
  outer loop
    vertex -321.158915683917 188.473153448563 26.8567949261206
    vertex -320.558915683917 189.18026022975 26.1496881449342
    vertex -321.158915683917 189.18026022975 26.1496881449339
  endloop
endfacet
facet normal 2.49314247450275e-013 0.707106781186584 -0.707106781186511
  outer loop
    vertex -320.558915683917 188.473153448563 29.4425813637475
    vertex -321.158915683917 189.18026022975 30.149688144934
    vertex -320.558915683917 189.18026022975 30.1496881449341
  endloop
endfacet
facet normal 2.49314247450275e-013 0.707106781186584 -0.707106781186511
  outer loop
    vertex -321.158915683917 189.18026022975 30.149688144934
    vertex -320.558915683917 188.473153448563 29.4425813637475
    vertex -321.158915683917 188.473153448563 29.4425813637474
  endloop
endfacet
facet normal 0.0 1.0 0.0
  outer loop
    vertex -320.558915683918 186.68026022975 27.6496881449341
    vertex -321.158915683917 186.68026022975 28.6496881449339
    vertex -320.558915683917 186.68026022975 28.6496881449342
  endloop
endfacet
facet normal 0.0 1.0 0.0
  outer loop
    vertex -321.158915683917 186.68026022975 28.6496881449339
    vertex -320.558915683918 186.68026022975 27.6496881449341
    vertex -321.158915683918 186.68026022975 27.649688144934
  endloop
endfacet
facet normal 9.97720686478263e-014 0.707106781186525 -0.70710678118657
  outer loop
    vertex -321.158915683918 189.266046667377 27.649688144934
    vertex -320.558915683917 188.473153448563 26.8567949261206
    vertex -321.158915683917 188.473153448563 26.8567949261206
  endloop
endfacet
facet normal 9.97720686478263e-014 0.707106781186525 -0.70710678118657
  outer loop
    vertex -320.558915683917 188.473153448563 26.8567949261206
    vertex -321.158915683918 189.266046667377 27.649688144934
    vertex -320.558915683918 189.266046667377 27.6496881449341
  endloop
endfacet
facet normal -1.0 -7.18726838075017e-015 -1.15934519591064e-014
  outer loop
    vertex -320.558915683917 186.68026022975 28.6496881449342
    vertex -320.558915683918 189.266046667377 27.6496881449341
    vertex -320.558915683918 186.68026022975 27.6496881449341
  endloop
endfacet
facet normal -1.0 -7.18726838075017e-015 -1.15934519591064e-014
  outer loop
    vertex -320.558915683918 189.266046667377 27.6496881449341
    vertex -320.558915683917 186.68026022975 28.6496881449342
    vertex -320.558915683917 191.18026022975 28.1496881449341
  endloop
endfacet
facet normal -1.0 -7.18726838075017e-015 -1.15934519591064e-014
  outer loop
    vertex -320.558915683917 191.18026022975 28.1496881449341
    vertex -320.558915683917 186.68026022975 28.6496881449342
    vertex -320.558915683917 189.266046667377 28.6496881449342
  endloop
endfacet
facet normal -1.0 -7.18726838075017e-015 -1.15934519591064e-014
  outer loop
    vertex -320.558915683917 191.18026022975 28.1496881449341
    vertex -320.558915683917 189.266046667377 28.6496881449342
    vertex -320.558915683917 189.18026022975 30.1496881449341
  endloop
endfacet
facet normal -1.0 -7.18726838075017e-015 -1.15934519591064e-014
  outer loop
    vertex -320.558915683917 189.18026022975 30.1496881449341
    vertex -320.558915683917 189.266046667377 28.6496881449342
    vertex -320.558915683917 188.473153448563 29.4425813637475
  endloop
endfacet
facet normal -1.0 -7.18726838075017e-015 -1.15934519591064e-014
  outer loop
    vertex -320.558915683917 188.473153448563 26.8567949261206
    vertex -320.558915683917 191.18026022975 28.1496881449341
    vertex -320.558915683917 189.18026022975 26.1496881449342
  endloop
endfacet
facet normal -1.0 -7.18726838075017e-015 -1.15934519591064e-014
  outer loop
    vertex -320.558915683917 191.18026022975 28.1496881449341
    vertex -320.558915683917 188.473153448563 26.8567949261206
    vertex -320.558915683918 189.266046667377 27.6496881449341
  endloop
endfacet
facet normal -2.59361008816626e-013 -0.707106781186551 0.707106781186545
  outer loop
    vertex -321.158915683918 191.18026022975 28.149688144934
    vertex -320.558915683917 189.18026022975 26.1496881449342
    vertex -320.558915683917 191.18026022975 28.1496881449341
  endloop
endfacet
facet normal -2.59361008816626e-013 -0.707106781186551 0.707106781186545
  outer loop
    vertex -320.558915683917 189.18026022975 26.1496881449342
    vertex -321.158915683918 191.18026022975 28.149688144934
    vertex -321.158915683917 189.18026022975 26.1496881449339
  endloop
endfacet
facet normal -3.09131118971008e-013 0.707106781186505 0.70710678118659
  outer loop
    vertex -320.558915683917 189.266046667377 28.6496881449342
    vertex -321.158915683917 188.473153448563 29.4425813637474
    vertex -320.558915683917 188.473153448563 29.4425813637475
  endloop
endfacet
facet normal -3.09131118971008e-013 0.707106781186505 0.70710678118659
  outer loop
    vertex -321.158915683917 188.473153448563 29.4425813637474
    vertex -320.558915683917 189.266046667377 28.6496881449342
    vertex -321.158915683917 189.266046667377 28.6496881449339
  endloop
endfacet
facet normal 1.84396712466206e-013 -0.707106781186548 -0.707106781186547
  outer loop
    vertex -321.158915683917 189.18026022975 30.149688144934
    vertex -320.558915683917 191.18026022975 28.1496881449341
    vertex -320.558915683917 189.18026022975 30.1496881449341
  endloop
endfacet
facet normal 1.84396712466206e-013 -0.707106781186548 -0.707106781186547
  outer loop
    vertex -320.558915683917 191.18026022975 28.1496881449341
    vertex -321.158915683917 189.18026022975 30.149688144934
    vertex -321.158915683918 191.18026022975 28.149688144934
  endloop
endfacet
facet normal -3.10196313080234e-013 0.0 1.0
  outer loop
    vertex -320.558915683918 189.266046667377 27.6496881449341
    vertex -321.158915683918 186.68026022975 27.649688144934
    vertex -320.558915683918 186.68026022975 27.6496881449341
  endloop
endfacet
facet normal -3.10196313080234e-013 0.0 1.0
  outer loop
    vertex -321.158915683918 186.68026022975 27.649688144934
    vertex -320.558915683918 189.266046667377 27.6496881449341
    vertex -321.158915683918 189.266046667377 27.649688144934
  endloop
endfacet
endsolid AltAzTrackerSketchup Nema 17
