solid AltAzTrackerSketchup Nema 17
facet normal 1.0 -6.8057846645843e-015 -3.37691663687957e-029
  outer loop
    vertex -709.687560401046 -3.09523703489087 112.908890084576
    vertex -709.687560401045 -3.98940849366067 117.500000000045
    vertex -709.687560401046 -5.98940849366063 114.107695154632
  endloop
endfacet
facet normal 1.0 -6.8057846645843e-015 -3.37691663687957e-029
  outer loop
    vertex -709.687560401045 -3.98940849366067 117.500000000045
    vertex -709.687560401046 -3.09523703489087 112.908890084576
    vertex -709.687560401045 4.01059150633936 117.500000000045
  endloop
endfacet
facet normal 1.0 -6.8057846645843e-015 -3.37691663687957e-029
  outer loop
    vertex -709.687560401045 4.01059150633936 117.500000000045
    vertex -709.687560401046 -3.09523703489087 112.908890084576
    vertex -709.687560401046 0.010591506339405 112.500000000045
  endloop
endfacet
facet normal 1.0 -6.8057846645843e-015 -3.37691663687957e-029
  outer loop
    vertex -709.687560401045 4.01059150633936 117.500000000045
    vertex -709.687560401046 0.010591506339405 112.500000000045
    vertex -709.687560401046 3.11642004756965 112.908890084576
  endloop
endfacet
facet normal 1.0 -6.8057846645843e-015 -3.37691663687957e-029
  outer loop
    vertex -709.687560401045 4.01059150633936 117.500000000045
    vertex -709.687560401046 3.11642004756965 112.908890084576
    vertex -709.687560401046 6.01059150633939 114.107695154632
  endloop
endfacet
facet normal 1.0 -6.8057846645843e-015 -3.37691663687957e-029
  outer loop
    vertex -709.687560401045 4.01059150633936 117.500000000045
    vertex -709.687560401046 6.01059150633939 114.107695154632
    vertex -709.687560401045 4.01059150633936 120.500000000045
  endloop
endfacet
facet normal 1.0 -6.8057846645843e-015 -3.37691663687957e-029
  outer loop
    vertex -709.687560401045 4.01059150633936 120.500000000045
    vertex -709.687560401046 6.01059150633939 114.107695154632
    vertex -709.687560401045 7.01059150633935 120.500000000045
  endloop
endfacet
facet normal 1.0 -6.8057846645843e-015 -3.37691663687957e-029
  outer loop
    vertex -709.687560401045 7.01059150633935 120.500000000045
    vertex -709.687560401046 6.01059150633939 114.107695154632
    vertex -709.687560401046 8.49587288057795 116.014718625807
  endloop
endfacet
facet normal 1.0 -6.8057846645843e-015 -3.37691663687957e-029
  outer loop
    vertex -709.687560401045 7.01059150633935 120.500000000045
    vertex -709.687560401046 8.49587288057795 116.014718625807
    vertex -709.687560401045 7.01059150633935 128.500000000045
  endloop
endfacet
facet normal 1.0 -6.8057846645843e-015 -3.37691663687957e-029
  outer loop
    vertex -709.687560401045 7.01059150633935 128.500000000045
    vertex -709.687560401046 8.49587288057795 116.014718625807
    vertex -709.687560401046 8.49587288057786 132.985281374284
  endloop
endfacet
facet normal 1.0 -6.8057846645843e-015 -3.37691663687957e-029
  outer loop
    vertex -709.687560401046 8.49587288057786 132.985281374284
    vertex -709.687560401046 8.49587288057795 116.014718625807
    vertex -709.687560401046 10.4028963517526 130.500000000045
  endloop
endfacet
facet normal 1.0 -6.8057846645843e-015 -3.37691663687957e-029
  outer loop
    vertex -709.687560401046 10.4028963517526 130.500000000045
    vertex -709.687560401046 8.49587288057795 116.014718625807
    vertex -709.687560401046 10.4028963517526 118.500000000045
  endloop
endfacet
facet normal 1.0 -6.8057846645843e-015 -3.37691663687957e-029
  outer loop
    vertex -709.687560401046 10.4028963517526 130.500000000045
    vertex -709.687560401046 10.4028963517526 118.500000000045
    vertex -709.687560401046 11.6017014218081 127.605828541276
  endloop
endfacet
facet normal 1.0 -6.8057846645843e-015 -3.37691663687957e-029
  outer loop
    vertex -709.687560401046 11.6017014218081 127.605828541276
    vertex -709.687560401046 10.4028963517526 118.500000000045
    vertex -709.687560401046 11.6017014218082 121.394171458815
  endloop
endfacet
facet normal 1.0 -6.8057846645843e-015 -3.37691663687957e-029
  outer loop
    vertex -709.687560401046 11.6017014218081 127.605828541276
    vertex -709.687560401046 11.6017014218082 121.394171458815
    vertex -709.687560401046 12.0105915063393 124.500000000045
  endloop
endfacet
facet normal 1.0 -6.8057846645843e-015 -3.37691663687957e-029
  outer loop
    vertex -709.687560401045 7.01059150633935 128.500000000045
    vertex -709.687560401045 4.01059150633936 131.500000000045
    vertex -709.687560401045 4.01059150633936 128.500000000045
  endloop
endfacet
facet normal 1.0 -6.8057846645843e-015 -3.37691663687957e-029
  outer loop
    vertex -709.687560401045 4.01059150633936 131.500000000045
    vertex -709.687560401045 7.01059150633935 128.500000000045
    vertex -709.687560401046 6.01059150633928 134.892304845459
  endloop
endfacet
facet normal 1.0 -6.8057846645843e-015 -3.37691663687957e-029
  outer loop
    vertex -709.687560401046 6.01059150633928 134.892304845459
    vertex -709.687560401045 7.01059150633935 128.500000000045
    vertex -709.687560401046 8.49587288057786 132.985281374284
  endloop
endfacet
facet normal 1.0 -6.8057846645843e-015 -3.37691663687957e-029
  outer loop
    vertex -709.687560401046 -11.5805184091295 121.394171458815
    vertex -709.687560401046 -11.5805184091295 127.605828541275
    vertex -709.687560401046 -11.9894084936607 124.500000000045
  endloop
endfacet
facet normal 1.0 -6.8057846645843e-015 -3.37691663687957e-029
  outer loop
    vertex -709.687560401046 -11.5805184091295 127.605828541275
    vertex -709.687560401046 -11.5805184091295 121.394171458815
    vertex -709.687560401046 -10.381713339074 130.500000000045
  endloop
endfacet
facet normal 1.0 -6.8057846645843e-015 -3.37691663687957e-029
  outer loop
    vertex -709.687560401046 -10.381713339074 130.500000000045
    vertex -709.687560401046 -11.5805184091295 121.394171458815
    vertex -709.687560401046 -10.3817133390739 118.500000000045
  endloop
endfacet
facet normal 1.0 -6.8057846645843e-015 -3.37691663687957e-029
  outer loop
    vertex -709.687560401046 -10.381713339074 130.500000000045
    vertex -709.687560401046 -10.3817133390739 118.500000000045
    vertex -709.687560401046 -8.47468986789929 132.985281374284
  endloop
endfacet
facet normal 1.0 -6.8057846645843e-015 -3.37691663687957e-029
  outer loop
    vertex -709.687560401046 -8.47468986789929 132.985281374284
    vertex -709.687560401046 -10.3817133390739 118.500000000045
    vertex -709.687560401046 -8.47468986789921 116.014718625807
  endloop
endfacet
facet normal 1.0 -6.8057846645843e-015 -3.37691663687957e-029
  outer loop
    vertex -709.687560401046 -8.47468986789929 132.985281374284
    vertex -709.687560401046 -8.47468986789921 116.014718625807
    vertex -709.687560401045 -6.98940849366066 128.500000000045
  endloop
endfacet
facet normal 1.0 -6.8057846645843e-015 -3.37691663687957e-029
  outer loop
    vertex -709.687560401046 -8.47468986789929 132.985281374284
    vertex -709.687560401045 -6.98940849366066 128.500000000045
    vertex -709.687560401046 -5.98940849366072 134.892304845459
  endloop
endfacet
facet normal 1.0 -6.8057846645843e-015 -3.37691663687957e-029
  outer loop
    vertex -709.687560401045 -6.98940849366066 128.500000000045
    vertex -709.687560401046 -8.47468986789921 116.014718625807
    vertex -709.687560401045 -6.98940849366066 120.500000000045
  endloop
endfacet
facet normal 1.0 -6.8057846645843e-015 -3.37691663687957e-029
  outer loop
    vertex -709.687560401046 -5.98940849366072 134.892304845459
    vertex -709.687560401045 -6.98940849366066 128.500000000045
    vertex -709.687560401045 -3.98940849366067 128.500000000045
  endloop
endfacet
facet normal 1.0 -6.8057846645843e-015 -3.37691663687957e-029
  outer loop
    vertex -709.687560401046 -5.98940849366072 134.892304845459
    vertex -709.687560401045 -3.98940849366067 128.500000000045
    vertex -709.687560401045 -3.98940849366067 131.500000000045
  endloop
endfacet
facet normal 1.0 -6.8057846645843e-015 -3.37691663687957e-029
  outer loop
    vertex -709.687560401046 -5.98940849366072 134.892304845459
    vertex -709.687560401045 -3.98940849366067 131.500000000045
    vertex -709.687560401046 -3.09523703489098 136.091109915514
  endloop
endfacet
facet normal 1.0 -6.8057846645843e-015 -3.37691663687957e-029
  outer loop
    vertex -709.687560401046 -3.09523703489098 136.091109915514
    vertex -709.687560401045 -3.98940849366067 131.500000000045
    vertex -709.687560401045 4.01059150633936 131.500000000045
  endloop
endfacet
facet normal 1.0 -6.8057846645843e-015 -3.37691663687957e-029
  outer loop
    vertex -709.687560401046 -3.09523703489098 136.091109915514
    vertex -709.687560401045 4.01059150633936 131.500000000045
    vertex -709.687560401046 0.0105915063392724 136.500000000045
  endloop
endfacet
facet normal 1.0 -6.8057846645843e-015 -3.37691663687957e-029
  outer loop
    vertex -709.687560401046 0.0105915063392724 136.500000000045
    vertex -709.687560401045 4.01059150633936 131.500000000045
    vertex -709.687560401046 3.11642004756952 136.091109915514
  endloop
endfacet
facet normal 1.0 -6.8057846645843e-015 -3.37691663687957e-029
  outer loop
    vertex -709.687560401046 3.11642004756952 136.091109915514
    vertex -709.687560401045 4.01059150633936 131.500000000045
    vertex -709.687560401046 6.01059150633928 134.892304845459
  endloop
endfacet
facet normal 1.0 -6.8057846645843e-015 -3.37691663687957e-029
  outer loop
    vertex -709.687560401046 -5.98940849366063 114.107695154632
    vertex -709.687560401045 -6.98940849366066 120.500000000045
    vertex -709.687560401046 -8.47468986789921 116.014718625807
  endloop
endfacet
facet normal 1.0 -6.8057846645843e-015 -3.37691663687957e-029
  outer loop
    vertex -709.687560401045 -6.98940849366066 120.500000000045
    vertex -709.687560401046 -5.98940849366063 114.107695154632
    vertex -709.687560401045 -3.98940849366067 120.500000000045
  endloop
endfacet
facet normal 1.0 -6.8057846645843e-015 -3.37691663687957e-029
  outer loop
    vertex -709.687560401045 -3.98940849366067 120.500000000045
    vertex -709.687560401046 -5.98940849366063 114.107695154632
    vertex -709.687560401045 -3.98940849366067 117.500000000045
  endloop
endfacet
facet normal -1.0 6.8227441271656e-015 5.12613969152604e-029
  outer loop
    vertex -713.687560401046 -3.09523703489098 136.091109915514
    vertex -713.687560401046 -3.98940849366062 131.500000000045
    vertex -713.687560401046 -5.98940849366073 134.892304845459
  endloop
endfacet
facet normal -1.0 6.8227441271656e-015 5.12613969152604e-029
  outer loop
    vertex -713.687560401046 -3.98940849366062 131.500000000045
    vertex -713.687560401046 -3.09523703489098 136.091109915514
    vertex -713.687560401046 4.01059150633936 131.500000000045
  endloop
endfacet
facet normal -1.0 6.8227441271656e-015 5.12613969152604e-029
  outer loop
    vertex -713.687560401046 4.01059150633936 131.500000000045
    vertex -713.687560401046 -3.09523703489098 136.091109915514
    vertex -713.687560401046 0.010591506339264 136.500000000045
  endloop
endfacet
facet normal -1.0 6.8227441271656e-015 5.12613969152604e-029
  outer loop
    vertex -713.687560401046 4.01059150633936 131.500000000045
    vertex -713.687560401046 0.010591506339264 136.500000000045
    vertex -713.687560401046 3.11642004756952 136.091109915514
  endloop
endfacet
facet normal -1.0 6.8227441271656e-015 5.12613969152604e-029
  outer loop
    vertex -713.687560401046 4.01059150633936 131.500000000045
    vertex -713.687560401046 3.11642004756952 136.091109915514
    vertex -713.687560401046 6.01059150633928 134.892304845459
  endloop
endfacet
facet normal -1.0 6.8227441271656e-015 5.12613969152604e-029
  outer loop
    vertex -713.687560401046 4.01059150633936 131.500000000045
    vertex -713.687560401046 6.01059150633928 134.892304845459
    vertex -713.687560401046 4.01059150633936 128.500000000045
  endloop
endfacet
facet normal -1.0 6.8227441271656e-015 5.12613969152604e-029
  outer loop
    vertex -713.687560401046 4.01059150633936 128.500000000045
    vertex -713.687560401046 6.01059150633928 134.892304845459
    vertex -713.687560401046 7.01059150633935 128.500000000045
  endloop
endfacet
facet normal -1.0 6.8227441271656e-015 5.12613969152604e-029
  outer loop
    vertex -713.687560401046 7.01059150633935 128.500000000045
    vertex -713.687560401046 6.01059150633928 134.892304845459
    vertex -713.687560401046 8.49587288057786 132.985281374284
  endloop
endfacet
facet normal -1.0 6.8227441271656e-015 5.12613969152604e-029
  outer loop
    vertex -713.687560401046 7.01059150633935 128.500000000045
    vertex -713.687560401046 8.49587288057786 132.985281374284
    vertex -713.687560401046 7.01059150633935 120.500000000045
  endloop
endfacet
facet normal -1.0 6.8227441271656e-015 5.12613969152604e-029
  outer loop
    vertex -713.687560401046 7.01059150633935 120.500000000045
    vertex -713.687560401046 4.01059150633936 117.500000000045
    vertex -713.687560401046 4.01059150633936 120.500000000045
  endloop
endfacet
facet normal -1.0 6.8227441271656e-015 5.12613969152604e-029
  outer loop
    vertex -713.687560401046 4.01059150633936 117.500000000045
    vertex -713.687560401046 7.01059150633935 120.500000000045
    vertex -713.687560401046 6.01059150633944 114.107695154632
  endloop
endfacet
facet normal -1.0 6.8227441271656e-015 5.12613969152604e-029
  outer loop
    vertex -713.687560401046 6.01059150633944 114.107695154632
    vertex -713.687560401046 7.01059150633935 120.500000000045
    vertex -713.687560401046 8.49587288057799 116.014718625807
  endloop
endfacet
facet normal -1.0 6.8227441271656e-015 5.12613969152604e-029
  outer loop
    vertex -713.687560401046 8.49587288057799 116.014718625807
    vertex -713.687560401046 7.01059150633935 120.500000000045
    vertex -713.687560401046 8.49587288057786 132.985281374284
  endloop
endfacet
facet normal -1.0 6.8227441271656e-015 5.12613969152604e-029
  outer loop
    vertex -713.687560401046 8.49587288057799 116.014718625807
    vertex -713.687560401046 8.49587288057786 132.985281374284
    vertex -713.687560401046 10.4028963517526 130.500000000045
  endloop
endfacet
facet normal -1.0 6.8227441271656e-015 5.12613969152604e-029
  outer loop
    vertex -713.687560401046 8.49587288057799 116.014718625807
    vertex -713.687560401046 10.4028963517526 130.500000000045
    vertex -713.687560401046 10.4028963517527 118.500000000045
  endloop
endfacet
facet normal -1.0 6.8227441271656e-015 5.12613969152604e-029
  outer loop
    vertex -713.687560401046 10.4028963517527 118.500000000045
    vertex -713.687560401046 10.4028963517526 130.500000000045
    vertex -713.687560401046 11.6017014218081 127.605828541276
  endloop
endfacet
facet normal -1.0 6.8227441271656e-015 5.12613969152604e-029
  outer loop
    vertex -713.687560401046 10.4028963517527 118.500000000045
    vertex -713.687560401046 11.6017014218081 127.605828541276
    vertex -713.687560401046 11.6017014218082 121.394171458815
  endloop
endfacet
facet normal -1.0 6.8227441271656e-015 5.12613969152604e-029
  outer loop
    vertex -713.687560401046 11.6017014218082 121.394171458815
    vertex -713.687560401046 11.6017014218081 127.605828541276
    vertex -713.687560401046 12.0105915063393 124.500000000045
  endloop
endfacet
facet normal -1.0 6.8227441271656e-015 5.12613969152604e-029
  outer loop
    vertex -713.687560401046 -8.47468986789916 116.014718625807
    vertex -713.687560401046 -6.98940849366062 120.500000000045
    vertex -713.687560401046 -5.98940849366058 114.107695154632
  endloop
endfacet
facet normal -1.0 6.8227441271656e-015 5.12613969152604e-029
  outer loop
    vertex -713.687560401046 -6.98940849366062 120.500000000045
    vertex -713.687560401046 -8.47468986789916 116.014718625807
    vertex -713.687560401046 -6.98940849366062 128.500000000045
  endloop
endfacet
facet normal -1.0 6.8227441271656e-015 5.12613969152604e-029
  outer loop
    vertex -713.687560401046 -5.98940849366058 114.107695154632
    vertex -713.687560401046 -6.98940849366062 120.500000000045
    vertex -713.687560401046 -3.98940849366062 120.500000000045
  endloop
endfacet
facet normal -1.0 6.8227441271656e-015 5.12613969152604e-029
  outer loop
    vertex -713.687560401046 -5.98940849366058 114.107695154632
    vertex -713.687560401046 -3.98940849366062 120.500000000045
    vertex -713.687560401046 -3.98940849366062 117.500000000045
  endloop
endfacet
facet normal -1.0 6.8227441271656e-015 5.12613969152604e-029
  outer loop
    vertex -713.687560401046 -5.98940849366058 114.107695154632
    vertex -713.687560401046 -3.98940849366062 117.500000000045
    vertex -713.687560401046 -3.09523703489082 112.908890084576
  endloop
endfacet
facet normal -1.0 6.8227441271656e-015 5.12613969152604e-029
  outer loop
    vertex -713.687560401046 -3.09523703489082 112.908890084576
    vertex -713.687560401046 -3.98940849366062 117.500000000045
    vertex -713.687560401046 4.01059150633936 117.500000000045
  endloop
endfacet
facet normal -1.0 6.8227441271656e-015 5.12613969152604e-029
  outer loop
    vertex -713.687560401046 -3.09523703489082 112.908890084576
    vertex -713.687560401046 4.01059150633936 117.500000000045
    vertex -713.687560401046 0.0105915063394586 112.500000000045
  endloop
endfacet
facet normal -1.0 6.8227441271656e-015 5.12613969152604e-029
  outer loop
    vertex -713.687560401046 0.0105915063394586 112.500000000045
    vertex -713.687560401046 4.01059150633936 117.500000000045
    vertex -713.687560401046 3.1164200475697 112.908890084576
  endloop
endfacet
facet normal -1.0 6.8227441271656e-015 5.12613969152604e-029
  outer loop
    vertex -713.687560401046 3.1164200475697 112.908890084576
    vertex -713.687560401046 4.01059150633936 117.500000000045
    vertex -713.687560401046 6.01059150633944 114.107695154632
  endloop
endfacet
facet normal -1.0 6.8227441271656e-015 5.12613969152604e-029
  outer loop
    vertex -713.687560401046 -11.5805184091295 127.605828541275
    vertex -713.687560401046 -11.5805184091295 121.394171458815
    vertex -713.687560401046 -11.9894084936607 124.500000000045
  endloop
endfacet
facet normal -1.0 6.8227441271656e-015 5.12613969152604e-029
  outer loop
    vertex -713.687560401046 -11.5805184091295 121.394171458815
    vertex -713.687560401046 -11.5805184091295 127.605828541275
    vertex -713.687560401046 -10.381713339074 130.500000000045
  endloop
endfacet
facet normal -1.0 6.8227441271656e-015 5.12613969152604e-029
  outer loop
    vertex -713.687560401046 -11.5805184091295 121.394171458815
    vertex -713.687560401046 -10.381713339074 130.500000000045
    vertex -713.687560401046 -10.3817133390739 118.500000000045
  endloop
endfacet
facet normal -1.0 6.8227441271656e-015 5.12613969152604e-029
  outer loop
    vertex -713.687560401046 -10.3817133390739 118.500000000045
    vertex -713.687560401046 -10.381713339074 130.500000000045
    vertex -713.687560401046 -8.47468986789928 132.985281374284
  endloop
endfacet
facet normal -1.0 6.8227441271656e-015 5.12613969152604e-029
  outer loop
    vertex -713.687560401046 -10.3817133390739 118.500000000045
    vertex -713.687560401046 -8.47468986789928 132.985281374284
    vertex -713.687560401046 -8.47468986789916 116.014718625807
  endloop
endfacet
facet normal -1.0 6.8227441271656e-015 5.12613969152604e-029
  outer loop
    vertex -713.687560401046 -8.47468986789916 116.014718625807
    vertex -713.687560401046 -8.47468986789928 132.985281374284
    vertex -713.687560401046 -6.98940849366062 128.500000000045
  endloop
endfacet
facet normal -1.0 6.8227441271656e-015 5.12613969152604e-029
  outer loop
    vertex -713.687560401046 -6.98940849366062 128.500000000045
    vertex -713.687560401046 -8.47468986789928 132.985281374284
    vertex -713.687560401046 -5.98940849366073 134.892304845459
  endloop
endfacet
facet normal -1.0 6.8227441271656e-015 5.12613969152604e-029
  outer loop
    vertex -713.687560401046 -6.98940849366062 128.500000000045
    vertex -713.687560401046 -5.98940849366073 134.892304845459
    vertex -713.687560401046 -3.98940849366062 128.500000000045
  endloop
endfacet
facet normal -1.0 6.8227441271656e-015 5.12613969152604e-029
  outer loop
    vertex -713.687560401046 -3.98940849366062 128.500000000045
    vertex -713.687560401046 -5.98940849366073 134.892304845459
    vertex -713.687560401046 -3.98940849366062 131.500000000045
  endloop
endfacet
facet normal 0.0 0.0 -1.0
  outer loop
    vertex -709.687560401045 -3.98940849366067 128.500000000045
    vertex -713.687560401046 -6.98940849366062 128.500000000045
    vertex -713.687560401046 -3.98940849366062 128.500000000045
  endloop
endfacet
facet normal 0.0 0.0 -1.0
  outer loop
    vertex -713.687560401046 -6.98940849366062 128.500000000045
    vertex -709.687560401045 -3.98940849366067 128.500000000045
    vertex -709.687560401045 -6.98940849366066 128.500000000045
  endloop
endfacet
facet normal 1.12798659301914e-014 1.0 0.0
  outer loop
    vertex -713.687560401046 -6.98940849366062 128.500000000045
    vertex -709.687560401045 -6.98940849366066 120.500000000045
    vertex -713.687560401046 -6.98940849366062 120.500000000045
  endloop
endfacet
facet normal 1.12798659301914e-014 1.0 0.0
  outer loop
    vertex -709.687560401045 -6.98940849366066 120.500000000045
    vertex -713.687560401046 -6.98940849366062 128.500000000045
    vertex -709.687560401045 -6.98940849366066 128.500000000045
  endloop
endfacet
facet normal 0.0 0.0 1.0
  outer loop
    vertex -709.687560401045 -6.98940849366066 120.500000000045
    vertex -713.687560401046 -3.98940849366062 120.500000000045
    vertex -713.687560401046 -6.98940849366062 120.500000000045
  endloop
endfacet
facet normal 0.0 0.0 1.0
  outer loop
    vertex -713.687560401046 -3.98940849366062 120.500000000045
    vertex -709.687560401045 -6.98940849366066 120.500000000045
    vertex -709.687560401045 -3.98940849366067 120.500000000045
  endloop
endfacet
facet normal 1.12798659301914e-014 1.0 0.0
  outer loop
    vertex -713.687560401046 -3.98940849366062 120.500000000045
    vertex -709.687560401045 -3.98940849366067 117.500000000045
    vertex -713.687560401046 -3.98940849366062 117.500000000045
  endloop
endfacet
facet normal 1.12798659301914e-014 1.0 0.0
  outer loop
    vertex -709.687560401045 -3.98940849366067 117.500000000045
    vertex -713.687560401046 -3.98940849366062 120.500000000045
    vertex -709.687560401045 -3.98940849366067 120.500000000045
  endloop
endfacet
facet normal 0.0 0.0 1.0
  outer loop
    vertex -709.687560401045 -3.98940849366067 117.500000000045
    vertex -713.687560401046 4.01059150633936 117.500000000045
    vertex -713.687560401046 -3.98940849366062 117.500000000045
  endloop
endfacet
facet normal 0.0 0.0 1.0
  outer loop
    vertex -713.687560401046 4.01059150633936 117.500000000045
    vertex -709.687560401045 -3.98940849366067 117.500000000045
    vertex -709.687560401045 4.01059150633936 117.500000000045
  endloop
endfacet
facet normal 0.0 -1.0 0.0
  outer loop
    vertex -709.687560401045 4.01059150633936 120.500000000045
    vertex -713.687560401046 4.01059150633936 117.500000000045
    vertex -709.687560401045 4.01059150633936 117.500000000045
  endloop
endfacet
facet normal 0.0 -1.0 0.0
  outer loop
    vertex -713.687560401046 4.01059150633936 117.500000000045
    vertex -709.687560401045 4.01059150633936 120.500000000045
    vertex -713.687560401046 4.01059150633936 120.500000000045
  endloop
endfacet
facet normal 0.0 0.0 1.0
  outer loop
    vertex -709.687560401045 4.01059150633936 120.500000000045
    vertex -713.687560401046 7.01059150633935 120.500000000045
    vertex -713.687560401046 4.01059150633936 120.500000000045
  endloop
endfacet
facet normal 0.0 0.0 1.0
  outer loop
    vertex -713.687560401046 7.01059150633935 120.500000000045
    vertex -709.687560401045 4.01059150633936 120.500000000045
    vertex -709.687560401045 7.01059150633935 120.500000000045
  endloop
endfacet
facet normal 0.0 -1.0 0.0
  outer loop
    vertex -709.687560401045 7.01059150633935 128.500000000045
    vertex -713.687560401046 7.01059150633935 120.500000000045
    vertex -709.687560401045 7.01059150633935 120.500000000045
  endloop
endfacet
facet normal 0.0 -1.0 0.0
  outer loop
    vertex -713.687560401046 7.01059150633935 120.500000000045
    vertex -709.687560401045 7.01059150633935 128.500000000045
    vertex -713.687560401046 7.01059150633935 128.500000000045
  endloop
endfacet
facet normal 0.0 0.0 -1.0
  outer loop
    vertex -709.687560401045 7.01059150633935 128.500000000045
    vertex -713.687560401046 4.01059150633936 128.500000000045
    vertex -713.687560401046 7.01059150633935 128.500000000045
  endloop
endfacet
facet normal 0.0 0.0 -1.0
  outer loop
    vertex -713.687560401046 4.01059150633936 128.500000000045
    vertex -709.687560401045 7.01059150633935 128.500000000045
    vertex -709.687560401045 4.01059150633936 128.500000000045
  endloop
endfacet
facet normal 0.0 -1.0 0.0
  outer loop
    vertex -709.687560401045 4.01059150633936 131.500000000045
    vertex -713.687560401046 4.01059150633936 128.500000000045
    vertex -709.687560401045 4.01059150633936 128.500000000045
  endloop
endfacet
facet normal 0.0 -1.0 0.0
  outer loop
    vertex -713.687560401046 4.01059150633936 128.500000000045
    vertex -709.687560401045 4.01059150633936 131.500000000045
    vertex -713.687560401046 4.01059150633936 131.500000000045
  endloop
endfacet
facet normal 0.0 0.0 -1.0
  outer loop
    vertex -709.687560401045 4.01059150633936 131.500000000045
    vertex -713.687560401046 -3.98940849366062 131.500000000045
    vertex -713.687560401046 4.01059150633936 131.500000000045
  endloop
endfacet
facet normal 0.0 0.0 -1.0
  outer loop
    vertex -713.687560401046 -3.98940849366062 131.500000000045
    vertex -709.687560401045 4.01059150633936 131.500000000045
    vertex -709.687560401045 -3.98940849366067 131.500000000045
  endloop
endfacet
facet normal 1.12798659301914e-014 1.0 0.0
  outer loop
    vertex -713.687560401046 -3.98940849366062 131.500000000045
    vertex -709.687560401045 -3.98940849366067 128.500000000045
    vertex -713.687560401046 -3.98940849366062 128.500000000045
  endloop
endfacet
facet normal 1.12798659301914e-014 1.0 0.0
  outer loop
    vertex -709.687560401045 -3.98940849366067 128.500000000045
    vertex -713.687560401046 -3.98940849366062 131.500000000045
    vertex -709.687560401045 -3.98940849366067 131.500000000045
  endloop
endfacet
facet normal 4.73878172543794e-015 0.923879532511289 -0.382683432365084
  outer loop
    vertex -713.687560401046 10.4028963517527 118.500000000045
    vertex -709.687560401046 11.6017014218082 121.394171458815
    vertex -709.687560401046 10.4028963517526 118.500000000045
  endloop
endfacet
facet normal 4.73878172543794e-015 0.923879532511289 -0.382683432365084
  outer loop
    vertex -709.687560401046 11.6017014218082 121.394171458815
    vertex -713.687560401046 10.4028963517527 118.500000000045
    vertex -713.687560401046 11.6017014218082 121.394171458815
  endloop
endfacet
facet normal -4.67761725551332e-015 -0.793353340291232 -0.608761429008725
  outer loop
    vertex -709.687560401046 -8.47468986789921 116.014718625807
    vertex -713.687560401046 -10.3817133390739 118.500000000045
    vertex -713.687560401046 -8.47468986789916 116.014718625807
  endloop
endfacet
facet normal -4.67761725551332e-015 -0.793353340291232 -0.608761429008725
  outer loop
    vertex -713.687560401046 -10.3817133390739 118.500000000045
    vertex -709.687560401046 -8.47468986789921 116.014718625807
    vertex -709.687560401046 -10.3817133390739 118.500000000045
  endloop
endfacet
facet normal 2.08721855805349e-015 0.382683432365084 0.923879532511289
  outer loop
    vertex -709.687560401046 3.11642004756952 136.091109915514
    vertex -713.687560401046 6.01059150633928 134.892304845459
    vertex -713.687560401046 3.11642004756952 136.091109915514
  endloop
endfacet
facet normal 2.08721855805349e-015 0.382683432365084 0.923879532511289
  outer loop
    vertex -713.687560401046 6.01059150633928 134.892304845459
    vertex -709.687560401046 3.11642004756952 136.091109915514
    vertex -709.687560401046 6.01059150633928 134.892304845459
  endloop
endfacet
facet normal -1.72437482639964e-015 -0.130526192220044 -0.991444861373812
  outer loop
    vertex -713.687560401046 0.0105915063394586 112.500000000045
    vertex -709.687560401046 -3.09523703489087 112.908890084576
    vertex -713.687560401046 -3.09523703489082 112.908890084576
  endloop
endfacet
facet normal -1.72437482639964e-015 -0.130526192220044 -0.991444861373812
  outer loop
    vertex -709.687560401046 -3.09523703489087 112.908890084576
    vertex -713.687560401046 0.0105915063394586 112.500000000045
    vertex -709.687560401046 0.010591506339405 112.500000000045
  endloop
endfacet
facet normal 5.69662328171583e-015 0.923879532511284 0.382683432365097
  outer loop
    vertex -713.687560401046 11.6017014218081 127.605828541276
    vertex -709.687560401046 10.4028963517526 130.500000000045
    vertex -709.687560401046 11.6017014218081 127.605828541276
  endloop
endfacet
facet normal 5.69662328171583e-015 0.923879532511284 0.382683432365097
  outer loop
    vertex -709.687560401046 10.4028963517526 130.500000000045
    vertex -713.687560401046 11.6017014218081 127.605828541276
    vertex -713.687560401046 10.4028963517526 130.500000000045
  endloop
endfacet
facet normal 5.16077100005671e-015 0.991444861373811 -0.130526192220045
  outer loop
    vertex -713.687560401046 11.6017014218082 121.394171458815
    vertex -709.687560401046 12.0105915063393 124.500000000045
    vertex -709.687560401046 11.6017014218082 121.394171458815
  endloop
endfacet
facet normal 5.16077100005671e-015 0.991444861373811 -0.130526192220045
  outer loop
    vertex -709.687560401046 12.0105915063393 124.500000000045
    vertex -713.687560401046 11.6017014218082 121.394171458815
    vertex -713.687560401046 12.0105915063393 124.500000000045
  endloop
endfacet
facet normal 2.55415828992387e-015 0.608761429008725 -0.793353340291232
  outer loop
    vertex -713.687560401046 8.49587288057799 116.014718625807
    vertex -709.687560401046 6.01059150633939 114.107695154632
    vertex -713.687560401046 6.01059150633944 114.107695154632
  endloop
endfacet
facet normal 2.55415828992387e-015 0.608761429008725 -0.793353340291232
  outer loop
    vertex -709.687560401046 6.01059150633939 114.107695154632
    vertex -713.687560401046 8.49587288057799 116.014718625807
    vertex -709.687560401046 8.49587288057795 116.014718625807
  endloop
endfacet
facet normal 4.2923201966967e-015 0.608761429008716 0.793353340291239
  outer loop
    vertex -709.687560401046 6.01059150633928 134.892304845459
    vertex -713.687560401046 8.49587288057786 132.985281374284
    vertex -713.687560401046 6.01059150633928 134.892304845459
  endloop
endfacet
facet normal 4.2923201966967e-015 0.608761429008716 0.793353340291239
  outer loop
    vertex -713.687560401046 8.49587288057786 132.985281374284
    vertex -709.687560401046 6.01059150633928 134.892304845459
    vertex -709.687560401046 8.49587288057786 132.985281374284
  endloop
endfacet
facet normal 2.21715170597774e-015 0.382683432365099 -0.923879532511283
  outer loop
    vertex -713.687560401046 6.01059150633944 114.107695154632
    vertex -709.687560401046 3.11642004756965 112.908890084576
    vertex -713.687560401046 3.1164200475697 112.908890084576
  endloop
endfacet
facet normal 2.21715170597774e-015 0.382683432365099 -0.923879532511283
  outer loop
    vertex -709.687560401046 3.11642004756965 112.908890084576
    vertex -713.687560401046 6.01059150633944 114.107695154632
    vertex -709.687560401046 6.01059150633939 114.107695154632
  endloop
endfacet
facet normal -2.21715170597761e-015 -0.382683432365084 -0.923879532511289
  outer loop
    vertex -713.687560401046 -3.09523703489082 112.908890084576
    vertex -709.687560401046 -5.98940849366063 114.107695154632
    vertex -713.687560401046 -5.98940849366058 114.107695154632
  endloop
endfacet
facet normal -2.21715170597761e-015 -0.382683432365084 -0.923879532511289
  outer loop
    vertex -709.687560401046 -5.98940849366063 114.107695154632
    vertex -713.687560401046 -3.09523703489082 112.908890084576
    vertex -709.687560401046 -3.09523703489087 112.908890084576
  endloop
endfacet
facet normal -5.68323923723404e-015 -0.923879532511289 0.382683432365085
  outer loop
    vertex -709.687560401046 -11.5805184091295 127.605828541275
    vertex -713.687560401046 -10.381713339074 130.500000000045
    vertex -713.687560401046 -11.5805184091295 127.605828541275
  endloop
endfacet
facet normal -5.68323923723404e-015 -0.923879532511289 0.382683432365085
  outer loop
    vertex -713.687560401046 -10.381713339074 130.500000000045
    vertex -709.687560401046 -11.5805184091295 127.605828541275
    vertex -709.687560401046 -10.381713339074 130.500000000045
  endloop
endfacet
facet normal 6.01172497547317e-015 0.99144486137381 0.130526192220057
  outer loop
    vertex -713.687560401046 12.0105915063393 124.500000000045
    vertex -709.687560401046 11.6017014218081 127.605828541276
    vertex -709.687560401046 12.0105915063393 124.500000000045
  endloop
endfacet
facet normal 6.01172497547317e-015 0.99144486137381 0.130526192220057
  outer loop
    vertex -709.687560401046 11.6017014218081 127.605828541276
    vertex -713.687560401046 12.0105915063393 124.500000000045
    vertex -713.687560401046 11.6017014218081 127.605828541276
  endloop
endfacet
facet normal -6.00739060239744e-015 -0.991444861373811 0.130526192220045
  outer loop
    vertex -709.687560401046 -11.9894084936607 124.500000000045
    vertex -713.687560401046 -11.5805184091295 127.605828541275
    vertex -713.687560401046 -11.9894084936607 124.500000000045
  endloop
endfacet
facet normal -6.00739060239744e-015 -0.991444861373811 0.130526192220045
  outer loop
    vertex -713.687560401046 -11.5805184091295 127.605828541275
    vertex -709.687560401046 -11.9894084936607 124.500000000045
    vertex -709.687560401046 -11.5805184091295 127.605828541275
  endloop
endfacet
facet normal -2.54351281986222e-015 -0.608761429008716 -0.793353340291239
  outer loop
    vertex -713.687560401046 -5.98940849366058 114.107695154632
    vertex -709.687560401046 -8.47468986789921 116.014718625807
    vertex -713.687560401046 -8.47468986789916 116.014718625807
  endloop
endfacet
facet normal -2.54351281986222e-015 -0.608761429008716 -0.793353340291239
  outer loop
    vertex -709.687560401046 -8.47468986789921 116.014718625807
    vertex -713.687560401046 -5.98940849366058 114.107695154632
    vertex -709.687560401046 -5.98940849366063 114.107695154632
  endloop
endfacet
facet normal -2.1139866470168e-015 -0.382683432365092 0.923879532511286
  outer loop
    vertex -709.687560401046 -5.98940849366072 134.892304845459
    vertex -713.687560401046 -3.09523703489098 136.091109915514
    vertex -713.687560401046 -5.98940849366073 134.892304845459
  endloop
endfacet
facet normal -2.1139866470168e-015 -0.382683432365092 0.923879532511286
  outer loop
    vertex -713.687560401046 -3.09523703489098 136.091109915514
    vertex -709.687560401046 -5.98940849366072 134.892304845459
    vertex -709.687560401046 -3.09523703489098 136.091109915514
  endloop
endfacet
facet normal -5.16510537313216e-015 -0.99144486137381 -0.130526192220057
  outer loop
    vertex -709.687560401046 -11.5805184091295 121.394171458815
    vertex -713.687560401046 -11.9894084936607 124.500000000045
    vertex -713.687560401046 -11.5805184091295 121.394171458815
  endloop
endfacet
facet normal -5.16510537313216e-015 -0.99144486137381 -0.130526192220057
  outer loop
    vertex -713.687560401046 -11.9894084936607 124.500000000045
    vertex -709.687560401046 -11.5805184091295 121.394171458815
    vertex -709.687560401046 -11.9894084936607 124.500000000045
  endloop
endfacet
facet normal 4.67761725551342e-015 0.793353340291239 -0.608761429008715
  outer loop
    vertex -713.687560401046 8.49587288057799 116.014718625807
    vertex -709.687560401046 10.4028963517526 118.500000000045
    vertex -709.687560401046 8.49587288057795 116.014718625807
  endloop
endfacet
facet normal 4.67761725551342e-015 0.793353340291239 -0.608761429008715
  outer loop
    vertex -709.687560401046 10.4028963517526 118.500000000045
    vertex -713.687560401046 8.49587288057799 116.014718625807
    vertex -713.687560401046 10.4028963517527 118.500000000045
  endloop
endfacet
facet normal -4.73878172543782e-015 -0.923879532511285 -0.382683432365095
  outer loop
    vertex -709.687560401046 -10.3817133390739 118.500000000045
    vertex -713.687560401046 -11.5805184091295 121.394171458815
    vertex -713.687560401046 -10.3817133390739 118.500000000045
  endloop
endfacet
facet normal -4.73878172543782e-015 -0.923879532511285 -0.382683432365095
  outer loop
    vertex -713.687560401046 -11.5805184091295 121.394171458815
    vertex -709.687560401046 -10.3817133390739 118.500000000045
    vertex -709.687560401046 -11.5805184091295 121.394171458815
  endloop
endfacet
facet normal -4.27103140300731e-015 -0.793353340291239 0.608761429008716
  outer loop
    vertex -709.687560401046 -10.381713339074 130.500000000045
    vertex -713.687560401046 -8.47468986789928 132.985281374284
    vertex -713.687560401046 -10.381713339074 130.500000000045
  endloop
endfacet
facet normal -4.27103140300731e-015 -0.793353340291239 0.608761429008716
  outer loop
    vertex -713.687560401046 -8.47468986789928 132.985281374284
    vertex -709.687560401046 -10.381713339074 130.500000000045
    vertex -709.687560401046 -8.47468986789929 132.985281374284
  endloop
endfacet
facet normal -4.32006709007664e-015 -0.608761429008728 0.793353340291229
  outer loop
    vertex -709.687560401046 -8.47468986789929 132.985281374284
    vertex -713.687560401046 -5.98940849366073 134.892304845459
    vertex -713.687560401046 -8.47468986789928 132.985281374284
  endloop
endfacet
facet normal -4.32006709007664e-015 -0.608761429008728 0.793353340291229
  outer loop
    vertex -713.687560401046 -5.98940849366073 134.892304845459
    vertex -709.687560401046 -8.47468986789929 132.985281374284
    vertex -709.687560401046 -5.98940849366072 134.892304845459
  endloop
endfacet
facet normal 2.43161002546943e-016 -0.130526192220059 0.99144486137381
  outer loop
    vertex -709.687560401046 -3.09523703489098 136.091109915514
    vertex -713.687560401046 0.010591506339264 136.500000000045
    vertex -713.687560401046 -3.09523703489098 136.091109915514
  endloop
endfacet
facet normal 2.43161002546943e-016 -0.130526192220059 0.99144486137381
  outer loop
    vertex -713.687560401046 0.010591506339264 136.500000000045
    vertex -709.687560401046 -3.09523703489098 136.091109915514
    vertex -709.687560401046 0.0105915063392724 136.500000000045
  endloop
endfacet
facet normal -2.43161002546856e-016 0.130526192220045 0.991444861373811
  outer loop
    vertex -709.687560401046 0.0105915063392724 136.500000000045
    vertex -713.687560401046 3.11642004756952 136.091109915514
    vertex -713.687560401046 0.010591506339264 136.500000000045
  endloop
endfacet
facet normal -2.43161002546856e-016 0.130526192220045 0.991444861373811
  outer loop
    vertex -713.687560401046 3.11642004756952 136.091109915514
    vertex -709.687560401046 0.0105915063392724 136.500000000045
    vertex -709.687560401046 3.11642004756952 136.091109915514
  endloop
endfacet
facet normal 4.2603859329458e-015 0.793353340291235 0.608761429008721
  outer loop
    vertex -713.687560401046 10.4028963517526 130.500000000045
    vertex -709.687560401046 8.49587288057786 132.985281374284
    vertex -709.687560401046 10.4028963517526 130.500000000045
  endloop
endfacet
facet normal 4.2603859329458e-015 0.793353340291235 0.608761429008721
  outer loop
    vertex -709.687560401046 8.49587288057786 132.985281374284
    vertex -713.687560401046 10.4028963517526 130.500000000045
    vertex -713.687560401046 8.49587288057786 132.985281374284
  endloop
endfacet
facet normal 1.72437482639978e-015 0.130526192220059 -0.991444861373809
  outer loop
    vertex -713.687560401046 3.1164200475697 112.908890084576
    vertex -709.687560401046 0.010591506339405 112.500000000045
    vertex -713.687560401046 0.0105915063394586 112.500000000045
  endloop
endfacet
facet normal 1.72437482639978e-015 0.130526192220059 -0.991444861373809
  outer loop
    vertex -709.687560401046 0.010591506339405 112.500000000045
    vertex -713.687560401046 3.1164200475697 112.908890084576
    vertex -709.687560401046 3.11642004756965 112.908890084576
  endloop
endfacet
endsolid AltAzTrackerSketchup Nema 17
