solid AltAzTrackerSketchup Nema 17
facet normal 0.99144486137381 1.76271619003694e-013 0.130526192220055
  outer loop
    vertex -238.100972832127 87.2026522668576 4.80009522549161
    vertex -237.930601963573 113.202652266882 3.50599999995301
    vertex -238.100972832128 113.202652266883 4.80009522546564
  endloop
endfacet
facet normal 0.99144486137381 1.76271619003694e-013 0.130526192220055
  outer loop
    vertex -237.930601963573 113.202652266882 3.50599999995301
    vertex -238.100972832127 87.2026522668576 4.80009522549161
    vertex -237.930601963572 87.2026522668563 3.50599999997901
  endloop
endfacet
facet normal -0.60876142900869 -7.58872735882508e-013 -0.793353340291259
  outer loop
    vertex -245.430601963572 87.2026522668524 -0.824127018943179
    vertex -246.466135869506 113.202652266878 -0.0295339059797127
    vertex -245.430601963573 113.202652266878 -0.824127018969157
  endloop
endfacet
facet normal -0.60876142900869 -7.58872735882508e-013 -0.793353340291259
  outer loop
    vertex -246.466135869506 113.202652266878 -0.0295339059797127
    vertex -245.430601963572 87.2026522668524 -0.824127018943179
    vertex -246.466135869505 87.2026522668529 -0.0295339059537127
  endloop
endfacet
facet normal -0.130526192220067 8.97129840913733e-013 0.991444861373808
  outer loop
    vertex -244.224697189086 113.202652266885 8.33562913139836
    vertex -242.930601963572 87.2026522668604 8.50599999997903
    vertex -242.930601963573 113.202652266885 8.50599999995302
  endloop
endfacet
facet normal -0.130526192220067 8.97129840913733e-013 0.991444861373808
  outer loop
    vertex -242.930601963572 87.2026522668604 8.50599999997903
    vertex -244.224697189086 113.202652266885 8.33562913139836
    vertex -244.224697189084 87.2026522668602 8.33562913142436
  endloop
endfacet
facet normal -0.923879532511285 -4.02408438904362e-013 -0.382683432365095
  outer loop
    vertex -247.260728982495 113.202652266879 1.00599999995304
    vertex -247.760231095017 87.2026522668546 2.21190477446643
    vertex -247.760231095019 113.20265226688 2.21190477444043
  endloop
endfacet
facet normal -0.923879532511285 -4.02408438904362e-013 -0.382683432365095
  outer loop
    vertex -247.760231095017 87.2026522668546 2.21190477446643
    vertex -247.260728982495 113.202652266879 1.00599999995304
    vertex -247.260728982494 87.2026522668538 1.00599999997902
  endloop
endfacet
facet normal -0.382683432365058 8.20928475326801e-013 0.9238795325113
  outer loop
    vertex -245.430601963573 113.202652266885 7.83612701887522
    vertex -244.224697189084 87.2026522668602 8.33562913142436
    vertex -244.224697189086 113.202652266885 8.33562913139836
  endloop
endfacet
facet normal -0.382683432365058 8.20928475326801e-013 0.9238795325113
  outer loop
    vertex -244.224697189084 87.2026522668602 8.33562913142436
    vertex -245.430601963573 113.202652266885 7.83612701887522
    vertex -245.430601963572 87.2026522668597 7.83612701890122
  endloop
endfacet
facet normal 0.60876142900869 -6.88625935671821e-013 -0.793353340291258
  outer loop
    vertex -239.395068057639 87.2026522668534 -0.0295339059537352
    vertex -240.430601963573 113.202652266878 -0.824127018969179
    vertex -239.39506805764 113.202652266879 -0.0295339059797127
  endloop
endfacet
facet normal 0.60876142900869 -6.88625935671821e-013 -0.793353340291258
  outer loop
    vertex -240.430601963573 113.202652266878 -0.824127018969179
    vertex -239.395068057639 87.2026522668534 -0.0295339059537352
    vertex -240.430601963572 87.2026522668525 -0.824127018943179
  endloop
endfacet
facet normal 0.923879532511332 4.02331580827573e-013 0.38268343236498
  outer loop
    vertex -238.60047494465 87.2026522668585 6.00599999997901
    vertex -238.100972832128 113.202652266883 4.80009522546564
    vertex -238.600474944651 113.202652266884 6.00599999995303
  endloop
endfacet
facet normal 0.923879532511332 4.02331580827573e-013 0.38268343236498
  outer loop
    vertex -238.100972832128 113.202652266883 4.80009522546564
    vertex -238.60047494465 87.2026522668585 6.00599999997901
    vertex -238.100972832127 87.2026522668576 4.80009522549161
  endloop
endfacet
facet normal 0.793353340291218 -5.09461524990795e-013 -0.608761429008743
  outer loop
    vertex -238.60047494465 87.2026522668544 1.00599999997902
    vertex -239.39506805764 113.202652266879 -0.0295339059797127
    vertex -238.600474944651 113.202652266879 1.00599999995304
  endloop
endfacet
facet normal 0.793353340291218 -5.09461524990795e-013 -0.608761429008743
  outer loop
    vertex -239.39506805764 113.202652266879 -0.0295339059797127
    vertex -238.60047494465 87.2026522668544 1.00599999997902
    vertex -239.395068057639 87.2026522668534 -0.0295339059537352
  endloop
endfacet
facet normal 0.99144486137381 -6.19041646816588e-014 -0.130526192220056
  outer loop
    vertex -237.930601963572 87.2026522668563 3.50599999997901
    vertex -238.100972832128 113.202652266881 2.21190477444041
    vertex -237.930601963573 113.202652266882 3.50599999995301
  endloop
endfacet
facet normal 0.99144486137381 -6.19041646816588e-014 -0.130526192220056
  outer loop
    vertex -238.100972832128 113.202652266881 2.21190477444041
    vertex -237.930601963572 87.2026522668563 3.50599999997901
    vertex -238.100972832127 87.2026522668554 2.21190477446641
  endloop
endfacet
facet normal -0.130526192220067 -9.12193508543289e-013 -0.991444861373808
  outer loop
    vertex -242.930601963572 87.202652266852 -1.49400000002098
    vertex -244.224697189086 113.202652266877 -1.32362913149232
    vertex -242.930601963573 113.202652266877 -1.49400000004698
  endloop
endfacet
facet normal -0.130526192220067 -9.12193508543289e-013 -0.991444861373808
  outer loop
    vertex -244.224697189086 113.202652266877 -1.32362913149232
    vertex -242.930601963572 87.202652266852 -1.49400000002098
    vertex -244.224697189084 87.2026522668521 -1.32362913146632
  endloop
endfacet
facet normal -0.382683432365066 -8.64906500060255e-013 -0.923879532511297
  outer loop
    vertex -244.224697189084 87.2026522668521 -1.32362913146632
    vertex -245.430601963573 113.202652266878 -0.824127018969157
    vertex -244.224697189086 113.202652266877 -1.32362913149232
  endloop
endfacet
facet normal -0.382683432365066 -8.64906500060255e-013 -0.923879532511297
  outer loop
    vertex -245.430601963573 113.202652266878 -0.824127018969157
    vertex -244.224697189084 87.2026522668521 -1.32362913146632
    vertex -245.430601963572 87.2026522668524 -0.824127018943179
  endloop
endfacet
facet normal 0.608761429008696 7.59033108685281e-013 0.793353340291254
  outer loop
    vertex -240.430601963573 113.202652266885 7.83612701887522
    vertex -239.395068057639 87.2026522668593 7.04153390591176
    vertex -239.39506805764 113.202652266884 7.04153390588576
  endloop
endfacet
facet normal 0.608761429008696 7.59033108685281e-013 0.793353340291254
  outer loop
    vertex -239.395068057639 87.2026522668593 7.04153390591176
    vertex -240.430601963573 113.202652266885 7.83612701887522
    vertex -240.430601963572 87.2026522668598 7.83612701890122
  endloop
endfacet
facet normal -0.793353340291282 -6.01121484003217e-013 -0.60876142900866
  outer loop
    vertex -246.466135869506 113.202652266878 -0.0295339059797127
    vertex -247.260728982494 87.2026522668538 1.00599999997902
    vertex -247.260728982495 113.202652266879 1.00599999995304
  endloop
endfacet
facet normal -0.793353340291282 -6.01121484003217e-013 -0.60876142900866
  outer loop
    vertex -247.260728982494 87.2026522668538 1.00599999997902
    vertex -246.466135869506 113.202652266878 -0.0295339059797127
    vertex -246.466135869505 87.2026522668529 -0.0295339059537127
  endloop
endfacet
facet normal 0.130526192220049 -8.97129859744674e-013 -0.991444861373811
  outer loop
    vertex -241.636506738059 87.202652266852 -1.32362913146632
    vertex -242.930601963573 113.202652266877 -1.49400000004698
    vertex -241.636506738061 113.202652266877 -1.32362913149232
  endloop
endfacet
facet normal 0.130526192220049 -8.97129859744674e-013 -0.991444861373811
  outer loop
    vertex -242.930601963573 113.202652266877 -1.49400000004698
    vertex -241.636506738059 87.202652266852 -1.32362913146632
    vertex -242.930601963572 87.202652266852 -1.49400000002098
  endloop
endfacet
facet normal 0.382683432365115 8.64906576043125e-013 0.923879532511277
  outer loop
    vertex -241.636506738061 113.202652266885 8.33562913139838
    vertex -240.430601963572 87.2026522668598 7.83612701890122
    vertex -240.430601963573 113.202652266885 7.83612701887522
  endloop
endfacet
facet normal 0.382683432365115 8.64906576043125e-013 0.923879532511277
  outer loop
    vertex -240.430601963572 87.2026522668598 7.83612701890122
    vertex -241.636506738061 113.202652266885 8.33562913139838
    vertex -241.636506738059 87.2026522668601 8.33562913142436
  endloop
endfacet
facet normal -0.99144486137381 6.19041646816587e-014 0.130526192220056
  outer loop
    vertex -247.930601963573 113.202652266881 3.50599999995303
    vertex -247.760231095017 87.2026522668568 4.80009522549164
    vertex -247.760231095019 113.202652266882 4.80009522546564
  endloop
endfacet
facet normal -0.99144486137381 6.19041646816587e-014 0.130526192220056
  outer loop
    vertex -247.760231095017 87.2026522668568 4.80009522549164
    vertex -247.930601963573 113.202652266881 3.50599999995303
    vertex -247.930601963572 87.2026522668559 3.50599999997903
  endloop
endfacet
facet normal -0.608761429008725 6.27509304028039e-013 0.793353340291232
  outer loop
    vertex -244.930601963572 87.2026522668588 6.97010161511677
    vertex -245.759029088317 79.2026522668711 6.33442712473189
    vertex -244.930601963571 79.2026522668715 6.97010161512346
  endloop
endfacet
facet normal -0.608761429008725 6.27509304028039e-013 0.793353340291232
  outer loop
    vertex -245.759029088317 79.2026522668711 6.33442712473189
    vertex -244.930601963572 87.2026522668588 6.97010161511677
    vertex -245.759029088318 87.2026522668584 6.3344271247252
  endloop
endfacet
facet normal 0.608761429008724 -6.27509304028039e-013 -0.793353340291232
  outer loop
    vertex -240.930601963571 79.2026522668661 0.0418983848479435
    vertex -240.102174838826 87.2026522668538 0.677572875232825
    vertex -240.102174838825 79.2026522668665 0.677572875239514
  endloop
endfacet
facet normal 0.608761429008724 -6.27509304028039e-013 -0.793353340291232
  outer loop
    vertex -240.102174838826 87.2026522668538 0.677572875232825
    vertex -240.930601963571 79.2026522668661 0.0418983848479435
    vertex -240.930601963572 87.2026522668534 0.0418983848412545
  endloop
endfacet
facet normal -0.608761429008696 6.88785624460773e-013 0.793353340291254
  outer loop
    vertex -246.466135869506 113.202652266884 7.04153390588576
    vertex -245.430601963572 87.2026522668597 7.83612701890122
    vertex -245.430601963573 113.202652266885 7.83612701887522
  endloop
endfacet
facet normal -0.608761429008696 6.88785624460773e-013 0.793353340291254
  outer loop
    vertex -245.430601963572 87.2026522668597 7.83612701890122
    vertex -246.466135869506 113.202652266884 7.04153390588576
    vertex -246.466135869505 87.2026522668588 7.04153390591176
  endloop
endfacet
facet normal -0.382683432365091 -7.95759396555469e-013 -0.923879532511286
  outer loop
    vertex -244.930601963571 79.2026522668657 0.0418983848479435
    vertex -243.965878143982 87.2026522668527 -0.357703305177266
    vertex -243.965878143981 79.2026522668654 -0.357703305170577
  endloop
endfacet
facet normal -0.382683432365091 -7.95759396555469e-013 -0.923879532511286
  outer loop
    vertex -243.965878143982 87.2026522668527 -0.357703305177266
    vertex -244.930601963571 79.2026522668657 0.0418983848479435
    vertex -244.930601963572 87.202652266853 0.0418983848412545
  endloop
endfacet
facet normal -0.991444861373811 5.01608582268433e-014 0.130526192220051
  outer loop
    vertex -246.930601963572 87.202652266856 3.50599999997901
    vertex -246.794305268728 79.2026522668694 4.54127618039578
    vertex -246.794305268728 87.2026522668567 4.54127618038909
  endloop
endfacet
facet normal -0.991444861373811 5.01608582268433e-014 0.130526192220051
  outer loop
    vertex -246.794305268728 79.2026522668694 4.54127618039578
    vertex -246.930601963572 87.202652266856 3.50599999997901
    vertex -246.930601963571 79.2026522668687 3.5059999999857
  endloop
endfacet
facet normal 0.923879532511285 3.75195077522383e-013 0.382683432365094
  outer loop
    vertex -239.466500348434 79.2026522668706 5.5059999999857
    vertex -239.066898658416 87.2026522668573 4.5412761803891
    vertex -239.466500348434 87.2026522668579 5.50599999997901
  endloop
endfacet
facet normal 0.923879532511285 3.75195077522383e-013 0.382683432365094
  outer loop
    vertex -239.066898658416 87.2026522668573 4.5412761803891
    vertex -239.466500348434 79.2026522668706 5.5059999999857
    vertex -239.066898658415 79.20265226687 4.54127618039579
  endloop
endfacet
facet normal -0.99144486137381 -1.76297984913899e-013 -0.130526192220056
  outer loop
    vertex -247.760231095019 113.20265226688 2.21190477444043
    vertex -247.930601963572 87.2026522668559 3.50599999997903
    vertex -247.930601963573 113.202652266881 3.50599999995303
  endloop
endfacet
facet normal -0.99144486137381 -1.76297984913899e-013 -0.130526192220056
  outer loop
    vertex -247.930601963572 87.2026522668559 3.50599999997903
    vertex -247.760231095019 113.20265226688 2.21190477444043
    vertex -247.760231095017 87.2026522668546 2.21190477446643
  endloop
endfacet
facet normal 0.382683432365092 -7.50178653472194e-013 -0.923879532511286
  outer loop
    vertex -241.895325783161 79.2026522668657 -0.357703305170577
    vertex -240.930601963572 87.2026522668534 0.0418983848412545
    vertex -240.930601963571 79.2026522668661 0.0418983848479435
  endloop
endfacet
facet normal 0.382683432365092 -7.50178653472194e-013 -0.923879532511286
  outer loop
    vertex -240.930601963572 87.2026522668534 0.0418983848412545
    vertex -241.895325783161 79.2026522668657 -0.357703305170577
    vertex -241.895325783162 87.202652266853 -0.357703305177266
  endloop
endfacet
facet normal -0.130526192220062 8.21724567411057e-013 0.991444861373809
  outer loop
    vertex -242.930601963572 87.2026522668595 7.50599999997902
    vertex -243.965878143981 79.2026522668719 7.36970330514197
    vertex -242.930601963571 79.2026522668723 7.5059999999857
  endloop
endfacet
facet normal -0.130526192220062 8.21724567411057e-013 0.991444861373809
  outer loop
    vertex -243.965878143981 79.2026522668719 7.36970330514197
    vertex -242.930601963572 87.2026522668595 7.50599999997902
    vertex -243.965878143982 87.2026522668592 7.36970330513528
  endloop
endfacet
facet normal -0.382683432365082 7.50178653472198e-013 0.92387953251129
  outer loop
    vertex -243.965878143982 87.2026522668592 7.36970330513528
    vertex -244.930601963571 79.2026522668715 6.97010161512346
    vertex -243.965878143981 79.2026522668719 7.36970330514197
  endloop
endfacet
facet normal -0.382683432365082 7.50178653472198e-013 0.92387953251129
  outer loop
    vertex -244.930601963571 79.2026522668715 6.97010161512346
    vertex -243.965878143982 87.2026522668592 7.36970330513528
    vertex -244.930601963572 87.2026522668588 6.97010161511677
  endloop
endfacet
facet normal -0.130526192220052 -8.37271310044914e-013 -0.99144486137381
  outer loop
    vertex -243.965878143981 79.2026522668654 -0.357703305170577
    vertex -242.930601963572 87.2026522668529 -0.494000000020993
    vertex -242.930601963571 79.2026522668656 -0.494000000014304
  endloop
endfacet
facet normal -0.130526192220052 -8.37271310044914e-013 -0.99144486137381
  outer loop
    vertex -242.930601963572 87.2026522668529 -0.494000000020993
    vertex -243.965878143981 79.2026522668654 -0.357703305170577
    vertex -243.965878143982 87.2026522668527 -0.357703305177266
  endloop
endfacet
facet normal 0.793353340291215 6.01121562497639e-013 0.608761429008747
  outer loop
    vertex -239.395068057639 87.2026522668593 7.04153390591176
    vertex -238.600474944651 113.202652266884 6.00599999995303
    vertex -239.39506805764 113.202652266884 7.04153390588576
  endloop
endfacet
facet normal 0.793353340291215 6.01121562497639e-013 0.608761429008747
  outer loop
    vertex -238.600474944651 113.202652266884 6.00599999995303
    vertex -239.395068057639 87.2026522668593 7.04153390591176
    vertex -238.60047494465 87.2026522668585 6.00599999997901
  endloop
endfacet
facet normal -0.608761429008725 -7.00017795245348e-013 -0.793353340291232
  outer loop
    vertex -245.759029088317 79.2026522668664 0.677572875239514
    vertex -244.930601963572 87.202652266853 0.0418983848412545
    vertex -244.930601963571 79.2026522668657 0.0418983848479435
  endloop
endfacet
facet normal -0.608761429008725 -7.00017795245348e-013 -0.793353340291232
  outer loop
    vertex -244.930601963572 87.202652266853 0.0418983848412545
    vertex -245.759029088317 79.2026522668664 0.677572875239514
    vertex -245.759029088318 87.2026522668537 0.677572875232825
  endloop
endfacet
facet normal -0.793353340291235 -5.56571138023365e-013 -0.608761429008721
  outer loop
    vertex -245.759029088318 87.2026522668537 0.677572875232825
    vertex -246.394703578709 79.202652266867 1.5059999999857
    vertex -246.39470357871 87.2026522668543 1.50599999997901
  endloop
endfacet
facet normal -0.793353340291235 -5.56571138023365e-013 -0.608761429008721
  outer loop
    vertex -246.394703578709 79.202652266867 1.5059999999857
    vertex -245.759029088318 87.2026522668537 0.677572875232825
    vertex -245.759029088317 79.2026522668664 0.677572875239514
  endloop
endfacet
facet normal 0.130526192220041 9.11993695985759e-013 0.991444861373812
  outer loop
    vertex -242.930601963573 113.202652266885 8.50599999995302
    vertex -241.636506738059 87.2026522668601 8.33562913142436
    vertex -241.636506738061 113.202652266885 8.33562913139838
  endloop
endfacet
facet normal 0.130526192220041 9.11993695985759e-013 0.991444861373812
  outer loop
    vertex -241.636506738059 87.2026522668601 8.33562913142436
    vertex -242.930601963573 113.202652266885 8.50599999995302
    vertex -242.930601963572 87.2026522668604 8.50599999997903
  endloop
endfacet
facet normal 5.85087533977455e-014 -1.0 8.37258136101829e-013
  outer loop
    vertex -241.895325783161 79.2026522668657 -0.357703305170577
    vertex -243.965878143981 79.2026522668654 -0.357703305170577
    vertex -242.930601963571 79.2026522668656 -0.494000000014304
  endloop
endfacet
facet normal 5.85087533977455e-014 -1.0 8.37258136101829e-013
  outer loop
    vertex -243.965878143981 79.2026522668654 -0.357703305170577
    vertex -241.895325783161 79.2026522668657 -0.357703305170577
    vertex -240.930601963571 79.2026522668661 0.0418983848479435
  endloop
endfacet
facet normal 5.85087533977455e-014 -1.0 8.37258136101829e-013
  outer loop
    vertex -243.965878143981 79.2026522668654 -0.357703305170577
    vertex -240.930601963571 79.2026522668661 0.0418983848479435
    vertex -244.930601963571 79.2026522668657 0.0418983848479435
  endloop
endfacet
facet normal 5.85087533977455e-014 -1.0 8.37258136101829e-013
  outer loop
    vertex -244.930601963571 79.2026522668657 0.0418983848479435
    vertex -240.930601963571 79.2026522668661 0.0418983848479435
    vertex -240.102174838825 79.2026522668665 0.677572875239514
  endloop
endfacet
facet normal 5.85087533977455e-014 -1.0 8.37258136101829e-013
  outer loop
    vertex -244.930601963571 79.2026522668657 0.0418983848479435
    vertex -240.102174838825 79.2026522668665 0.677572875239514
    vertex -245.759029088317 79.2026522668664 0.677572875239514
  endloop
endfacet
facet normal 5.85087533977455e-014 -1.0 8.37258136101829e-013
  outer loop
    vertex -245.759029088317 79.2026522668664 0.677572875239514
    vertex -240.102174838825 79.2026522668665 0.677572875239514
    vertex -239.466500348434 79.2026522668673 1.5059999999857
  endloop
endfacet
facet normal 5.85087533977455e-014 -1.0 8.37258136101829e-013
  outer loop
    vertex -245.759029088317 79.2026522668664 0.677572875239514
    vertex -239.466500348434 79.2026522668673 1.5059999999857
    vertex -246.394703578709 79.202652266867 1.5059999999857
  endloop
endfacet
facet normal 5.85087533977455e-014 -1.0 8.37258136101829e-013
  outer loop
    vertex -246.394703578709 79.202652266867 1.5059999999857
    vertex -239.466500348434 79.2026522668673 1.5059999999857
    vertex -239.066898658415 79.2026522668683 2.47072381957562
  endloop
endfacet
facet normal 5.85087533977455e-014 -1.0 8.37258136101829e-013
  outer loop
    vertex -246.394703578709 79.202652266867 1.5059999999857
    vertex -239.066898658415 79.2026522668683 2.47072381957562
    vertex -246.794305268728 79.2026522668676 2.47072381957562
  endloop
endfacet
facet normal 5.85087533977455e-014 -1.0 8.37258136101829e-013
  outer loop
    vertex -246.794305268728 79.2026522668676 2.47072381957562
    vertex -239.066898658415 79.2026522668683 2.47072381957562
    vertex -238.930601963571 79.202652266869 3.5059999999857
  endloop
endfacet
facet normal 5.85087533977455e-014 -1.0 8.37258136101829e-013
  outer loop
    vertex -246.794305268728 79.2026522668676 2.47072381957562
    vertex -238.930601963571 79.202652266869 3.5059999999857
    vertex -246.930601963571 79.2026522668687 3.5059999999857
  endloop
endfacet
facet normal 5.85087533977455e-014 -1.0 8.37258136101829e-013
  outer loop
    vertex -246.930601963571 79.2026522668687 3.5059999999857
    vertex -238.930601963571 79.202652266869 3.5059999999857
    vertex -239.066898658415 79.20265226687 4.54127618039579
  endloop
endfacet
facet normal 5.85087533977455e-014 -1.0 8.37258136101829e-013
  outer loop
    vertex -246.930601963571 79.2026522668687 3.5059999999857
    vertex -239.066898658415 79.20265226687 4.54127618039579
    vertex -246.794305268728 79.2026522668694 4.54127618039578
  endloop
endfacet
facet normal 5.85087533977455e-014 -1.0 8.37258136101829e-013
  outer loop
    vertex -246.794305268728 79.2026522668694 4.54127618039578
    vertex -239.066898658415 79.20265226687 4.54127618039579
    vertex -246.394703578709 79.2026522668704 5.5059999999857
  endloop
endfacet
facet normal 5.85087533977455e-014 -1.0 8.37258136101829e-013
  outer loop
    vertex -246.394703578709 79.2026522668704 5.5059999999857
    vertex -239.066898658415 79.20265226687 4.54127618039579
    vertex -239.466500348434 79.2026522668706 5.5059999999857
  endloop
endfacet
facet normal 5.85087533977455e-014 -1.0 8.37258136101829e-013
  outer loop
    vertex -246.394703578709 79.2026522668704 5.5059999999857
    vertex -239.466500348434 79.2026522668706 5.5059999999857
    vertex -240.102174838825 79.2026522668713 6.33442712473189
  endloop
endfacet
facet normal 5.85087533977455e-014 -1.0 8.37258136101829e-013
  outer loop
    vertex -246.394703578709 79.2026522668704 5.5059999999857
    vertex -240.102174838825 79.2026522668713 6.33442712473189
    vertex -245.759029088317 79.2026522668711 6.33442712473189
  endloop
endfacet
facet normal 5.85087533977455e-014 -1.0 8.37258136101829e-013
  outer loop
    vertex -245.759029088317 79.2026522668711 6.33442712473189
    vertex -240.102174838825 79.2026522668713 6.33442712473189
    vertex -240.930601963571 79.2026522668719 6.97010161512346
  endloop
endfacet
facet normal 5.85087533977455e-014 -1.0 8.37258136101829e-013
  outer loop
    vertex -245.759029088317 79.2026522668711 6.33442712473189
    vertex -240.930601963571 79.2026522668719 6.97010161512346
    vertex -244.930601963571 79.2026522668715 6.97010161512346
  endloop
endfacet
facet normal 5.85087533977455e-014 -1.0 8.37258136101829e-013
  outer loop
    vertex -244.930601963571 79.2026522668715 6.97010161512346
    vertex -240.930601963571 79.2026522668719 6.97010161512346
    vertex -241.895325783161 79.2026522668722 7.36970330514198
  endloop
endfacet
facet normal 5.85087533977455e-014 -1.0 8.37258136101829e-013
  outer loop
    vertex -244.930601963571 79.2026522668715 6.97010161512346
    vertex -241.895325783161 79.2026522668722 7.36970330514198
    vertex -243.965878143981 79.2026522668719 7.36970330514197
  endloop
endfacet
facet normal 5.85087533977455e-014 -1.0 8.37258136101829e-013
  outer loop
    vertex -243.965878143981 79.2026522668719 7.36970330514197
    vertex -241.895325783161 79.2026522668722 7.36970330514198
    vertex -242.930601963571 79.2026522668723 7.5059999999857
  endloop
endfacet
facet normal 5.95541108241522e-014 -1.0 8.36655643742588e-013
  outer loop
    vertex -241.636506738059 87.202652266852 -1.32362913146632
    vertex -244.224697189084 87.2026522668521 -1.32362913146632
    vertex -242.930601963572 87.202652266852 -1.49400000002098
  endloop
endfacet
facet normal 5.95541108241522e-014 -1.0 8.36655643742588e-013
  outer loop
    vertex -244.224697189084 87.2026522668521 -1.32362913146632
    vertex -241.636506738059 87.202652266852 -1.32362913146632
    vertex -240.430601963572 87.2026522668525 -0.824127018943179
  endloop
endfacet
facet normal 5.95541108241522e-014 -1.0 8.36655643742588e-013
  outer loop
    vertex -244.224697189084 87.2026522668521 -1.32362913146632
    vertex -240.430601963572 87.2026522668525 -0.824127018943179
    vertex -245.430601963572 87.2026522668524 -0.824127018943179
  endloop
endfacet
facet normal 5.95541108241522e-014 -1.0 8.36655643742588e-013
  outer loop
    vertex -245.430601963572 87.2026522668524 -0.824127018943179
    vertex -240.430601963572 87.2026522668525 -0.824127018943179
    vertex -239.395068057639 87.2026522668534 -0.0295339059537352
  endloop
endfacet
facet normal 5.95541108241522e-014 -1.0 8.36655643742588e-013
  outer loop
    vertex -245.430601963572 87.2026522668524 -0.824127018943179
    vertex -239.395068057639 87.2026522668534 -0.0295339059537352
    vertex -242.930601963572 87.2026522668529 -0.494000000020993
  endloop
endfacet
facet normal 5.95541108241522e-014 -1.0 8.36655643742588e-013
  outer loop
    vertex -242.930601963572 87.2026522668529 -0.494000000020993
    vertex -239.395068057639 87.2026522668534 -0.0295339059537352
    vertex -241.895325783162 87.202652266853 -0.357703305177266
  endloop
endfacet
facet normal 5.95541108241522e-014 -1.0 8.36655643742588e-013
  outer loop
    vertex -241.895325783162 87.202652266853 -0.357703305177266
    vertex -239.395068057639 87.2026522668534 -0.0295339059537352
    vertex -240.930601963572 87.2026522668534 0.0418983848412545
  endloop
endfacet
facet normal 5.95541108241522e-014 -1.0 8.36655643742588e-013
  outer loop
    vertex -240.930601963572 87.2026522668534 0.0418983848412545
    vertex -239.395068057639 87.2026522668534 -0.0295339059537352
    vertex -238.60047494465 87.2026522668544 1.00599999997902
  endloop
endfacet
facet normal 5.95541108241522e-014 -1.0 8.36655643742588e-013
  outer loop
    vertex -240.930601963572 87.2026522668534 0.0418983848412545
    vertex -238.60047494465 87.2026522668544 1.00599999997902
    vertex -240.102174838826 87.2026522668538 0.677572875232825
  endloop
endfacet
facet normal 5.95541108241522e-014 -1.0 8.36655643742588e-013
  outer loop
    vertex -240.102174838826 87.2026522668538 0.677572875232825
    vertex -238.60047494465 87.2026522668544 1.00599999997902
    vertex -239.466500348434 87.2026522668545 1.50599999997901
  endloop
endfacet
facet normal 5.95541108241522e-014 -1.0 8.36655643742588e-013
  outer loop
    vertex -239.466500348434 87.2026522668545 1.50599999997901
    vertex -238.60047494465 87.2026522668544 1.00599999997902
    vertex -238.100972832127 87.2026522668554 2.21190477446641
  endloop
endfacet
facet normal 5.95541108241522e-014 -1.0 8.36655643742588e-013
  outer loop
    vertex -239.466500348434 87.2026522668545 1.50599999997901
    vertex -238.100972832127 87.2026522668554 2.21190477446641
    vertex -239.066898658416 87.2026522668556 2.47072381956893
  endloop
endfacet
facet normal 5.95541108241522e-014 -1.0 8.36655643742588e-013
  outer loop
    vertex -239.066898658416 87.2026522668556 2.47072381956893
    vertex -238.100972832127 87.2026522668554 2.21190477446641
    vertex -237.930601963572 87.2026522668563 3.50599999997901
  endloop
endfacet
facet normal 5.95541108241522e-014 -1.0 8.36655643742588e-013
  outer loop
    vertex -239.066898658416 87.2026522668556 2.47072381956893
    vertex -237.930601963572 87.2026522668563 3.50599999997901
    vertex -238.930601963572 87.2026522668562 3.50599999997901
  endloop
endfacet
facet normal 5.95541108241522e-014 -1.0 8.36655643742588e-013
  outer loop
    vertex -238.930601963572 87.2026522668562 3.50599999997901
    vertex -237.930601963572 87.2026522668563 3.50599999997901
    vertex -238.100972832127 87.2026522668576 4.80009522549161
  endloop
endfacet
facet normal 5.95541108241522e-014 -1.0 8.36655643742588e-013
  outer loop
    vertex -238.930601963572 87.2026522668562 3.50599999997901
    vertex -238.100972832127 87.2026522668576 4.80009522549161
    vertex -239.066898658416 87.2026522668573 4.5412761803891
  endloop
endfacet
facet normal 5.95541108241522e-014 -1.0 8.36655643742588e-013
  outer loop
    vertex -239.066898658416 87.2026522668573 4.5412761803891
    vertex -238.100972832127 87.2026522668576 4.80009522549161
    vertex -239.466500348434 87.2026522668579 5.50599999997901
  endloop
endfacet
facet normal 5.95541108241522e-014 -1.0 8.36655643742588e-013
  outer loop
    vertex -239.466500348434 87.2026522668579 5.50599999997901
    vertex -238.100972832127 87.2026522668576 4.80009522549161
    vertex -238.60047494465 87.2026522668585 6.00599999997901
  endloop
endfacet
facet normal 5.95541108241522e-014 -1.0 8.36655643742588e-013
  outer loop
    vertex -239.466500348434 87.2026522668579 5.50599999997901
    vertex -238.60047494465 87.2026522668585 6.00599999997901
    vertex -240.102174838826 87.2026522668585 6.3344271247252
  endloop
endfacet
facet normal 5.95541108241522e-014 -1.0 8.36655643742588e-013
  outer loop
    vertex -240.102174838826 87.2026522668585 6.3344271247252
    vertex -238.60047494465 87.2026522668585 6.00599999997901
    vertex -239.395068057639 87.2026522668593 7.04153390591176
  endloop
endfacet
facet normal 5.95541108241522e-014 -1.0 8.36655643742588e-013
  outer loop
    vertex -240.102174838826 87.2026522668585 6.3344271247252
    vertex -239.395068057639 87.2026522668593 7.04153390591176
    vertex -240.930601963572 87.2026522668592 6.97010161511677
  endloop
endfacet
facet normal 5.95541108241522e-014 -1.0 8.36655643742588e-013
  outer loop
    vertex -240.930601963572 87.2026522668592 6.97010161511677
    vertex -239.395068057639 87.2026522668593 7.04153390591176
    vertex -241.895325783162 87.2026522668595 7.36970330513529
  endloop
endfacet
facet normal 5.95541108241522e-014 -1.0 8.36655643742588e-013
  outer loop
    vertex -241.895325783162 87.2026522668595 7.36970330513529
    vertex -239.395068057639 87.2026522668593 7.04153390591176
    vertex -240.430601963572 87.2026522668598 7.83612701890122
  endloop
endfacet
facet normal 5.95541108241522e-014 -1.0 8.36655643742588e-013
  outer loop
    vertex -241.895325783162 87.2026522668595 7.36970330513529
    vertex -240.430601963572 87.2026522668598 7.83612701890122
    vertex -242.930601963572 87.2026522668595 7.50599999997902
  endloop
endfacet
facet normal 5.95541108241522e-014 -1.0 8.36655643742588e-013
  outer loop
    vertex -242.930601963572 87.2026522668529 -0.494000000020993
    vertex -246.466135869505 87.2026522668529 -0.0295339059537127
    vertex -245.430601963572 87.2026522668524 -0.824127018943179
  endloop
endfacet
facet normal 5.95541108241522e-014 -1.0 8.36655643742588e-013
  outer loop
    vertex -246.466135869505 87.2026522668529 -0.0295339059537127
    vertex -242.930601963572 87.2026522668529 -0.494000000020993
    vertex -243.965878143982 87.2026522668527 -0.357703305177266
  endloop
endfacet
facet normal 5.95541108241522e-014 -1.0 8.36655643742588e-013
  outer loop
    vertex -246.466135869505 87.2026522668529 -0.0295339059537127
    vertex -243.965878143982 87.2026522668527 -0.357703305177266
    vertex -244.930601963572 87.202652266853 0.0418983848412545
  endloop
endfacet
facet normal 5.95541108241522e-014 -1.0 8.36655643742588e-013
  outer loop
    vertex -246.466135869505 87.2026522668529 -0.0295339059537127
    vertex -244.930601963572 87.202652266853 0.0418983848412545
    vertex -247.260728982494 87.2026522668538 1.00599999997902
  endloop
endfacet
facet normal 5.95541108241522e-014 -1.0 8.36655643742588e-013
  outer loop
    vertex -247.260728982494 87.2026522668538 1.00599999997902
    vertex -244.930601963572 87.202652266853 0.0418983848412545
    vertex -245.759029088318 87.2026522668537 0.677572875232825
  endloop
endfacet
facet normal 5.95541108241522e-014 -1.0 8.36655643742588e-013
  outer loop
    vertex -247.260728982494 87.2026522668538 1.00599999997902
    vertex -245.759029088318 87.2026522668537 0.677572875232825
    vertex -246.39470357871 87.2026522668543 1.50599999997901
  endloop
endfacet
facet normal 5.95541108241522e-014 -1.0 8.36655643742588e-013
  outer loop
    vertex -247.260728982494 87.2026522668538 1.00599999997902
    vertex -246.39470357871 87.2026522668543 1.50599999997901
    vertex -247.760231095017 87.2026522668546 2.21190477446643
  endloop
endfacet
facet normal 5.95541108241522e-014 -1.0 8.36655643742588e-013
  outer loop
    vertex -247.760231095017 87.2026522668546 2.21190477446643
    vertex -246.39470357871 87.2026522668543 1.50599999997901
    vertex -246.794305268728 87.2026522668549 2.47072381956893
  endloop
endfacet
facet normal 5.95541108241522e-014 -1.0 8.36655643742588e-013
  outer loop
    vertex -247.760231095017 87.2026522668546 2.21190477446643
    vertex -246.794305268728 87.2026522668549 2.47072381956893
    vertex -247.930601963572 87.2026522668559 3.50599999997903
  endloop
endfacet
facet normal 5.95541108241522e-014 -1.0 8.36655643742588e-013
  outer loop
    vertex -247.930601963572 87.2026522668559 3.50599999997903
    vertex -246.794305268728 87.2026522668549 2.47072381956893
    vertex -246.930601963572 87.202652266856 3.50599999997901
  endloop
endfacet
facet normal 5.95541108241522e-014 -1.0 8.36655643742588e-013
  outer loop
    vertex -247.930601963572 87.2026522668559 3.50599999997903
    vertex -246.930601963572 87.202652266856 3.50599999997901
    vertex -246.794305268728 87.2026522668567 4.54127618038909
  endloop
endfacet
facet normal 5.95541108241522e-014 -1.0 8.36655643742588e-013
  outer loop
    vertex -247.930601963572 87.2026522668559 3.50599999997903
    vertex -246.794305268728 87.2026522668567 4.54127618038909
    vertex -247.760231095017 87.2026522668568 4.80009522549164
  endloop
endfacet
facet normal 5.95541108241522e-014 -1.0 8.36655643742588e-013
  outer loop
    vertex -247.760231095017 87.2026522668568 4.80009522549164
    vertex -246.794305268728 87.2026522668567 4.54127618038909
    vertex -246.39470357871 87.2026522668577 5.50599999997901
  endloop
endfacet
facet normal 5.95541108241522e-014 -1.0 8.36655643742588e-013
  outer loop
    vertex -247.760231095017 87.2026522668568 4.80009522549164
    vertex -246.39470357871 87.2026522668577 5.50599999997901
    vertex -247.260728982494 87.202652266858 6.00599999997903
  endloop
endfacet
facet normal 5.95541108241522e-014 -1.0 8.36655643742588e-013
  outer loop
    vertex -247.260728982494 87.202652266858 6.00599999997903
    vertex -246.39470357871 87.2026522668577 5.50599999997901
    vertex -245.759029088318 87.2026522668584 6.3344271247252
  endloop
endfacet
facet normal 5.95541108241522e-014 -1.0 8.36655643742588e-013
  outer loop
    vertex -247.260728982494 87.202652266858 6.00599999997903
    vertex -245.759029088318 87.2026522668584 6.3344271247252
    vertex -246.466135869505 87.2026522668588 7.04153390591176
  endloop
endfacet
facet normal 5.95541108241522e-014 -1.0 8.36655643742588e-013
  outer loop
    vertex -246.466135869505 87.2026522668588 7.04153390591176
    vertex -245.759029088318 87.2026522668584 6.3344271247252
    vertex -244.930601963572 87.2026522668588 6.97010161511677
  endloop
endfacet
facet normal 5.95541108241522e-014 -1.0 8.36655643742588e-013
  outer loop
    vertex -246.466135869505 87.2026522668588 7.04153390591176
    vertex -244.930601963572 87.2026522668588 6.97010161511677
    vertex -243.965878143982 87.2026522668592 7.36970330513528
  endloop
endfacet
facet normal 5.95541108241522e-014 -1.0 8.36655643742588e-013
  outer loop
    vertex -246.466135869505 87.2026522668588 7.04153390591176
    vertex -243.965878143982 87.2026522668592 7.36970330513528
    vertex -245.430601963572 87.2026522668597 7.83612701890122
  endloop
endfacet
facet normal 5.95541108241522e-014 -1.0 8.36655643742588e-013
  outer loop
    vertex -245.430601963572 87.2026522668597 7.83612701890122
    vertex -243.965878143982 87.2026522668592 7.36970330513528
    vertex -242.930601963572 87.2026522668595 7.50599999997902
  endloop
endfacet
facet normal 5.95541108241522e-014 -1.0 8.36655643742588e-013
  outer loop
    vertex -245.430601963572 87.2026522668597 7.83612701890122
    vertex -242.930601963572 87.2026522668595 7.50599999997902
    vertex -240.430601963572 87.2026522668598 7.83612701890122
  endloop
endfacet
facet normal 5.95541108241522e-014 -1.0 8.36655643742588e-013
  outer loop
    vertex -245.430601963572 87.2026522668597 7.83612701890122
    vertex -240.430601963572 87.2026522668598 7.83612701890122
    vertex -241.636506738059 87.2026522668601 8.33562913142436
  endloop
endfacet
facet normal 5.95541108241522e-014 -1.0 8.36655643742588e-013
  outer loop
    vertex -245.430601963572 87.2026522668597 7.83612701890122
    vertex -241.636506738059 87.2026522668601 8.33562913142436
    vertex -244.224697189084 87.2026522668602 8.33562913142436
  endloop
endfacet
facet normal 5.95541108241522e-014 -1.0 8.36655643742588e-013
  outer loop
    vertex -244.224697189084 87.2026522668602 8.33562913142436
    vertex -241.636506738059 87.2026522668601 8.33562913142436
    vertex -242.930601963572 87.2026522668604 8.50599999997903
  endloop
endfacet
facet normal 0.608761429008723 7.00017795245349e-013 0.793353340291233
  outer loop
    vertex -240.102174838826 87.2026522668585 6.3344271247252
    vertex -240.930601963571 79.2026522668719 6.97010161512346
    vertex -240.102174838825 79.2026522668713 6.33442712473189
  endloop
endfacet
facet normal 0.608761429008723 7.00017795245349e-013 0.793353340291233
  outer loop
    vertex -240.930601963571 79.2026522668719 6.97010161512346
    vertex -240.102174838826 87.2026522668585 6.3344271247252
    vertex -240.930601963572 87.2026522668592 6.97010161511677
  endloop
endfacet
facet normal 0.923879532511331 -2.95810394335034e-013 -0.382683432364983
  outer loop
    vertex -238.100972832127 87.2026522668554 2.21190477446641
    vertex -238.600474944651 113.202652266879 1.00599999995304
    vertex -238.100972832128 113.202652266881 2.21190477444041
  endloop
endfacet
facet normal 0.923879532511331 -2.95810394335034e-013 -0.382683432364983
  outer loop
    vertex -238.600474944651 113.202652266879 1.00599999995304
    vertex -238.100972832127 87.2026522668554 2.21190477446641
    vertex -238.60047494465 87.2026522668544 1.00599999997902
  endloop
endfacet
facet normal 0.130526192220052 8.37271310044914e-013 0.99144486137381
  outer loop
    vertex -241.895325783162 87.2026522668595 7.36970330513529
    vertex -242.930601963571 79.2026522668723 7.5059999999857
    vertex -241.895325783161 79.2026522668722 7.36970330514198
  endloop
endfacet
facet normal 0.130526192220052 8.37271310044914e-013 0.99144486137381
  outer loop
    vertex -242.930601963571 79.2026522668723 7.5059999999857
    vertex -241.895325783162 87.2026522668595 7.36970330513529
    vertex -242.930601963572 87.2026522668595 7.50599999997902
  endloop
endfacet
facet normal -0.923879532511287 2.65153429387695e-013 0.38268343236509
  outer loop
    vertex -246.794305268728 87.2026522668567 4.54127618038909
    vertex -246.394703578709 79.2026522668704 5.5059999999857
    vertex -246.39470357871 87.2026522668577 5.50599999997901
  endloop
endfacet
facet normal -0.923879532511287 2.65153429387695e-013 0.38268343236509
  outer loop
    vertex -246.394703578709 79.2026522668704 5.5059999999857
    vertex -246.794305268728 87.2026522668567 4.54127618038909
    vertex -246.794305268728 79.2026522668694 4.54127618039578
  endloop
endfacet
facet normal 0.382683432365092 7.95759396555469e-013 0.923879532511286
  outer loop
    vertex -240.930601963572 87.2026522668592 6.97010161511677
    vertex -241.895325783161 79.2026522668722 7.36970330514198
    vertex -240.930601963571 79.2026522668719 6.97010161512346
  endloop
endfacet
facet normal 0.382683432365092 7.95759396555469e-013 0.923879532511286
  outer loop
    vertex -241.895325783161 79.2026522668722 7.36970330514198
    vertex -240.930601963572 87.2026522668592 6.97010161511677
    vertex -241.895325783162 87.2026522668595 7.36970330513529
  endloop
endfacet
facet normal -0.923879532511284 2.9588730898267e-013 0.382683432365098
  outer loop
    vertex -247.760231095019 113.202652266882 4.80009522546564
    vertex -247.260728982494 87.202652266858 6.00599999997903
    vertex -247.260728982495 113.202652266883 6.00599999995303
  endloop
endfacet
facet normal -0.923879532511284 2.9588730898267e-013 0.382683432365098
  outer loop
    vertex -247.260728982494 87.202652266858 6.00599999997903
    vertex -247.760231095019 113.202652266882 4.80009522546564
    vertex -247.760231095017 87.2026522668568 4.80009522549164
  endloop
endfacet
facet normal 0.793353340291235 5.56571138023364e-013 0.608761429008721
  outer loop
    vertex -240.102174838825 79.2026522668713 6.33442712473189
    vertex -239.466500348434 87.2026522668579 5.50599999997901
    vertex -240.102174838826 87.2026522668585 6.3344271247252
  endloop
endfacet
facet normal 0.793353340291235 5.56571138023364e-013 0.608761429008721
  outer loop
    vertex -239.466500348434 87.2026522668579 5.50599999997901
    vertex -240.102174838825 79.2026522668713 6.33442712473189
    vertex -239.466500348434 79.2026522668706 5.5059999999857
  endloop
endfacet
facet normal 0.793353340291235 -4.62076232522533e-013 -0.608761429008721
  outer loop
    vertex -239.466500348434 79.2026522668673 1.5059999999857
    vertex -240.102174838826 87.2026522668538 0.677572875232825
    vertex -239.466500348434 87.2026522668545 1.50599999997901
  endloop
endfacet
facet normal 0.793353340291235 -4.62076232522533e-013 -0.608761429008721
  outer loop
    vertex -240.102174838826 87.2026522668538 0.677572875232825
    vertex -239.466500348434 79.2026522668673 1.5059999999857
    vertex -240.102174838825 79.2026522668665 0.677572875239514
  endloop
endfacet
facet normal 0.130526192220052 -8.21724567411059e-013 -0.99144486137381
  outer loop
    vertex -242.930601963571 79.2026522668656 -0.494000000014304
    vertex -241.895325783162 87.202652266853 -0.357703305177266
    vertex -241.895325783161 79.2026522668657 -0.357703305170577
  endloop
endfacet
facet normal 0.130526192220052 -8.21724567411059e-013 -0.99144486137381
  outer loop
    vertex -241.895325783162 87.202652266853 -0.357703305177266
    vertex -242.930601963571 79.2026522668656 -0.494000000014304
    vertex -242.930601963572 87.2026522668529 -0.494000000020993
  endloop
endfacet
facet normal -0.793353340291279 5.09706987294452e-013 0.608761429008664
  outer loop
    vertex -247.260728982495 113.202652266883 6.00599999995303
    vertex -246.466135869505 87.2026522668588 7.04153390591176
    vertex -246.466135869506 113.202652266884 7.04153390588576
  endloop
endfacet
facet normal -0.793353340291279 5.09706987294452e-013 0.608761429008664
  outer loop
    vertex -246.466135869505 87.2026522668588 7.04153390591176
    vertex -247.260728982495 113.202652266883 6.00599999995303
    vertex -247.260728982494 87.202652266858 6.00599999997903
  endloop
endfacet
facet normal 0.99144486137381 1.68250092527428e-013 0.130526192220051
  outer loop
    vertex -239.066898658415 79.20265226687 4.54127618039579
    vertex -238.930601963572 87.2026522668562 3.50599999997901
    vertex -239.066898658416 87.2026522668573 4.5412761803891
  endloop
endfacet
facet normal 0.99144486137381 1.68250092527428e-013 0.130526192220051
  outer loop
    vertex -238.930601963572 87.2026522668562 3.50599999997901
    vertex -239.066898658415 79.20265226687 4.54127618039579
    vertex -238.930601963571 79.202652266869 3.5059999999857
  endloop
endfacet
facet normal -0.793353340291236 4.62076232522533e-013 0.60876142900872
  outer loop
    vertex -246.39470357871 87.2026522668577 5.50599999997901
    vertex -245.759029088317 79.2026522668711 6.33442712473189
    vertex -245.759029088318 87.2026522668584 6.3344271247252
  endloop
endfacet
facet normal -0.793353340291236 4.62076232522533e-013 0.60876142900872
  outer loop
    vertex -245.759029088317 79.2026522668711 6.33442712473189
    vertex -246.39470357871 87.2026522668577 5.50599999997901
    vertex -246.394703578709 79.2026522668704 5.5059999999857
  endloop
endfacet
facet normal 0.382683432365107 -8.20928475326779e-013 -0.92387953251128
  outer loop
    vertex -240.430601963572 87.2026522668525 -0.824127018943179
    vertex -241.636506738061 113.202652266877 -1.32362913149232
    vertex -240.430601963573 113.202652266878 -0.824127018969179
  endloop
endfacet
facet normal 0.382683432365107 -8.20928475326779e-013 -0.92387953251128
  outer loop
    vertex -241.636506738061 113.202652266877 -1.32362913149232
    vertex -240.430601963572 87.2026522668525 -0.824127018943179
    vertex -241.636506738059 87.202652266852 -1.32362913146632
  endloop
endfacet
facet normal 0.99144486137381 -5.01608582268444e-014 -0.130526192220052
  outer loop
    vertex -238.930601963571 79.202652266869 3.5059999999857
    vertex -239.066898658416 87.2026522668556 2.47072381956893
    vertex -238.930601963572 87.2026522668562 3.50599999997901
  endloop
endfacet
facet normal 0.99144486137381 -5.01608582268444e-014 -0.130526192220052
  outer loop
    vertex -239.066898658416 87.2026522668556 2.47072381956893
    vertex -238.930601963571 79.202652266869 3.5059999999857
    vertex -239.066898658415 79.2026522668683 2.47072381957562
  endloop
endfacet
facet normal 0.923879532511287 -2.65153429387694e-013 -0.38268343236509
  outer loop
    vertex -239.066898658415 79.2026522668683 2.47072381957562
    vertex -239.466500348434 87.2026522668545 1.50599999997901
    vertex -239.066898658416 87.2026522668556 2.47072381956893
  endloop
endfacet
facet normal 0.923879532511287 -2.65153429387694e-013 -0.38268343236509
  outer loop
    vertex -239.466500348434 87.2026522668545 1.50599999997901
    vertex -239.066898658415 79.2026522668683 2.47072381957562
    vertex -239.466500348434 79.2026522668673 1.5059999999857
  endloop
endfacet
facet normal -0.923879532511287 -3.7519507752238e-013 -0.382683432365089
  outer loop
    vertex -246.39470357871 87.2026522668543 1.50599999997901
    vertex -246.794305268728 79.2026522668676 2.47072381957562
    vertex -246.794305268728 87.2026522668549 2.47072381956893
  endloop
endfacet
facet normal -0.923879532511287 -3.7519507752238e-013 -0.382683432365089
  outer loop
    vertex -246.794305268728 79.2026522668676 2.47072381957562
    vertex -246.39470357871 87.2026522668543 1.50599999997901
    vertex -246.394703578709 79.202652266867 1.5059999999857
  endloop
endfacet
facet normal -0.99144486137381 -1.68250092527429e-013 -0.130526192220052
  outer loop
    vertex -246.794305268728 87.2026522668549 2.47072381956893
    vertex -246.930601963571 79.2026522668687 3.5059999999857
    vertex -246.930601963572 87.202652266856 3.50599999997901
  endloop
endfacet
facet normal -0.99144486137381 -1.68250092527429e-013 -0.130526192220052
  outer loop
    vertex -246.930601963571 79.2026522668687 3.5059999999857
    vertex -246.794305268728 87.2026522668549 2.47072381956893
    vertex -246.794305268728 79.2026522668676 2.47072381957562
  endloop
endfacet
facet normal -5.97678493371443e-014 1.0 -8.37284696526227e-013
  outer loop
    vertex -247.760231095019 113.20265226688 2.21190477444043
    vertex -245.730601963573 113.202652266881 1.90599999995303
    vertex -247.260728982495 113.202652266879 1.00599999995304
  endloop
endfacet
facet normal -5.97678493371443e-014 1.0 -8.37284696526227e-013
  outer loop
    vertex -245.730601963573 113.202652266881 1.90599999995303
    vertex -247.760231095019 113.20265226688 2.21190477444043
    vertex -245.730601963573 113.202652266881 5.10599999995303
  endloop
endfacet
facet normal -5.97678493371443e-014 1.0 -8.37284696526227e-013
  outer loop
    vertex -245.730601963573 113.202652266881 5.10599999995303
    vertex -247.760231095019 113.20265226688 2.21190477444043
    vertex -247.930601963573 113.202652266881 3.50599999995303
  endloop
endfacet
facet normal -5.97678493371443e-014 1.0 -8.37284696526227e-013
  outer loop
    vertex -245.730601963573 113.202652266881 5.10599999995303
    vertex -247.930601963573 113.202652266881 3.50599999995303
    vertex -247.760231095019 113.202652266882 4.80009522546564
  endloop
endfacet
facet normal -5.97678493371443e-014 1.0 -8.37284696526227e-013
  outer loop
    vertex -245.730601963573 113.202652266881 5.10599999995303
    vertex -247.760231095019 113.202652266882 4.80009522546564
    vertex -247.260728982495 113.202652266883 6.00599999995303
  endloop
endfacet
facet normal -5.97678493371443e-014 1.0 -8.37284696526227e-013
  outer loop
    vertex -245.730601963573 113.202652266881 5.10599999995303
    vertex -247.260728982495 113.202652266883 6.00599999995303
    vertex -244.530601963573 113.202652266881 5.10599999995303
  endloop
endfacet
facet normal -5.97678493371443e-014 1.0 -8.37284696526227e-013
  outer loop
    vertex -244.530601963573 113.202652266881 5.10599999995303
    vertex -247.260728982495 113.202652266883 6.00599999995303
    vertex -244.530601963573 113.202652266881 6.30599999995303
  endloop
endfacet
facet normal -5.97678493371443e-014 1.0 -8.37284696526227e-013
  outer loop
    vertex -244.530601963573 113.202652266881 6.30599999995303
    vertex -247.260728982495 113.202652266883 6.00599999995303
    vertex -246.466135869506 113.202652266884 7.04153390588576
  endloop
endfacet
facet normal -5.97678493371443e-014 1.0 -8.37284696526227e-013
  outer loop
    vertex -244.530601963573 113.202652266881 6.30599999995303
    vertex -246.466135869506 113.202652266884 7.04153390588576
    vertex -241.330601963573 113.202652266881 6.30599999995303
  endloop
endfacet
facet normal -5.97678493371443e-014 1.0 -8.37284696526227e-013
  outer loop
    vertex -241.330601963573 113.202652266881 6.30599999995303
    vertex -240.130601963573 113.202652266881 5.10599999995303
    vertex -241.330601963573 113.202652266881 5.10599999995303
  endloop
endfacet
facet normal -5.97678493371443e-014 1.0 -8.37284696526227e-013
  outer loop
    vertex -240.130601963573 113.202652266881 5.10599999995303
    vertex -241.330601963573 113.202652266881 6.30599999995303
    vertex -238.600474944651 113.202652266884 6.00599999995303
  endloop
endfacet
facet normal -5.97678493371443e-014 1.0 -8.37284696526227e-013
  outer loop
    vertex -238.600474944651 113.202652266884 6.00599999995303
    vertex -241.330601963573 113.202652266881 6.30599999995303
    vertex -239.39506805764 113.202652266884 7.04153390588576
  endloop
endfacet
facet normal -5.97678493371443e-014 1.0 -8.37284696526227e-013
  outer loop
    vertex -239.39506805764 113.202652266884 7.04153390588576
    vertex -241.330601963573 113.202652266881 6.30599999995303
    vertex -246.466135869506 113.202652266884 7.04153390588576
  endloop
endfacet
facet normal -5.97678493371443e-014 1.0 -8.37284696526227e-013
  outer loop
    vertex -239.39506805764 113.202652266884 7.04153390588576
    vertex -246.466135869506 113.202652266884 7.04153390588576
    vertex -245.430601963573 113.202652266885 7.83612701887522
  endloop
endfacet
facet normal -5.97678493371443e-014 1.0 -8.37284696526227e-013
  outer loop
    vertex -239.39506805764 113.202652266884 7.04153390588576
    vertex -245.430601963573 113.202652266885 7.83612701887522
    vertex -240.430601963573 113.202652266885 7.83612701887522
  endloop
endfacet
facet normal -5.97678493371443e-014 1.0 -8.37284696526227e-013
  outer loop
    vertex -240.430601963573 113.202652266885 7.83612701887522
    vertex -245.430601963573 113.202652266885 7.83612701887522
    vertex -244.224697189086 113.202652266885 8.33562913139836
  endloop
endfacet
facet normal -5.97678493371443e-014 1.0 -8.37284696526227e-013
  outer loop
    vertex -240.430601963573 113.202652266885 7.83612701887522
    vertex -244.224697189086 113.202652266885 8.33562913139836
    vertex -241.636506738061 113.202652266885 8.33562913139838
  endloop
endfacet
facet normal -5.97678493371443e-014 1.0 -8.37284696526227e-013
  outer loop
    vertex -241.636506738061 113.202652266885 8.33562913139838
    vertex -244.224697189086 113.202652266885 8.33562913139836
    vertex -242.930601963573 113.202652266885 8.50599999995302
  endloop
endfacet
facet normal -5.97678493371443e-014 1.0 -8.37284696526227e-013
  outer loop
    vertex -239.39506805764 113.202652266879 -0.0295339059797127
    vertex -241.330601963573 113.202652266881 0.705999999953034
    vertex -238.600474944651 113.202652266879 1.00599999995304
  endloop
endfacet
facet normal -5.97678493371443e-014 1.0 -8.37284696526227e-013
  outer loop
    vertex -241.330601963573 113.202652266881 0.705999999953034
    vertex -239.39506805764 113.202652266879 -0.0295339059797127
    vertex -244.530601963573 113.202652266881 0.705999999953034
  endloop
endfacet
facet normal -5.97678493371443e-014 1.0 -8.37284696526227e-013
  outer loop
    vertex -238.600474944651 113.202652266879 1.00599999995304
    vertex -241.330601963573 113.202652266881 0.705999999953034
    vertex -241.330601963573 113.202652266881 1.90599999995303
  endloop
endfacet
facet normal -5.97678493371443e-014 1.0 -8.37284696526227e-013
  outer loop
    vertex -238.600474944651 113.202652266879 1.00599999995304
    vertex -241.330601963573 113.202652266881 1.90599999995303
    vertex -240.130601963573 113.202652266881 1.90599999995303
  endloop
endfacet
facet normal -5.97678493371443e-014 1.0 -8.37284696526227e-013
  outer loop
    vertex -238.600474944651 113.202652266879 1.00599999995304
    vertex -240.130601963573 113.202652266881 1.90599999995303
    vertex -238.100972832128 113.202652266881 2.21190477444041
  endloop
endfacet
facet normal -5.97678493371443e-014 1.0 -8.37284696526227e-013
  outer loop
    vertex -238.100972832128 113.202652266881 2.21190477444041
    vertex -240.130601963573 113.202652266881 1.90599999995303
    vertex -240.130601963573 113.202652266881 5.10599999995303
  endloop
endfacet
facet normal -5.97678493371443e-014 1.0 -8.37284696526227e-013
  outer loop
    vertex -238.100972832128 113.202652266881 2.21190477444041
    vertex -240.130601963573 113.202652266881 5.10599999995303
    vertex -237.930601963573 113.202652266882 3.50599999995301
  endloop
endfacet
facet normal -5.97678493371443e-014 1.0 -8.37284696526227e-013
  outer loop
    vertex -237.930601963573 113.202652266882 3.50599999995301
    vertex -240.130601963573 113.202652266881 5.10599999995303
    vertex -238.100972832128 113.202652266883 4.80009522546564
  endloop
endfacet
facet normal -5.97678493371443e-014 1.0 -8.37284696526227e-013
  outer loop
    vertex -238.100972832128 113.202652266883 4.80009522546564
    vertex -240.130601963573 113.202652266881 5.10599999995303
    vertex -238.600474944651 113.202652266884 6.00599999995303
  endloop
endfacet
facet normal -5.97678493371443e-014 1.0 -8.37284696526227e-013
  outer loop
    vertex -244.224697189086 113.202652266877 -1.32362913149232
    vertex -241.636506738061 113.202652266877 -1.32362913149232
    vertex -242.930601963573 113.202652266877 -1.49400000004698
  endloop
endfacet
facet normal -5.97678493371443e-014 1.0 -8.37284696526227e-013
  outer loop
    vertex -241.636506738061 113.202652266877 -1.32362913149232
    vertex -244.224697189086 113.202652266877 -1.32362913149232
    vertex -245.430601963573 113.202652266878 -0.824127018969157
  endloop
endfacet
facet normal -5.97678493371443e-014 1.0 -8.37284696526227e-013
  outer loop
    vertex -241.636506738061 113.202652266877 -1.32362913149232
    vertex -245.430601963573 113.202652266878 -0.824127018969157
    vertex -240.430601963573 113.202652266878 -0.824127018969179
  endloop
endfacet
facet normal -5.97678493371443e-014 1.0 -8.37284696526227e-013
  outer loop
    vertex -240.430601963573 113.202652266878 -0.824127018969179
    vertex -245.430601963573 113.202652266878 -0.824127018969157
    vertex -239.39506805764 113.202652266879 -0.0295339059797127
  endloop
endfacet
facet normal -5.97678493371443e-014 1.0 -8.37284696526227e-013
  outer loop
    vertex -239.39506805764 113.202652266879 -0.0295339059797127
    vertex -245.430601963573 113.202652266878 -0.824127018969157
    vertex -246.466135869506 113.202652266878 -0.0295339059797127
  endloop
endfacet
facet normal -5.97678493371443e-014 1.0 -8.37284696526227e-013
  outer loop
    vertex -239.39506805764 113.202652266879 -0.0295339059797127
    vertex -246.466135869506 113.202652266878 -0.0295339059797127
    vertex -247.260728982495 113.202652266879 1.00599999995304
  endloop
endfacet
facet normal -5.97678493371443e-014 1.0 -8.37284696526227e-013
  outer loop
    vertex -239.39506805764 113.202652266879 -0.0295339059797127
    vertex -247.260728982495 113.202652266879 1.00599999995304
    vertex -244.530601963573 113.202652266881 0.705999999953034
  endloop
endfacet
facet normal -5.97678493371443e-014 1.0 -8.37284696526227e-013
  outer loop
    vertex -244.530601963573 113.202652266881 0.705999999953034
    vertex -247.260728982495 113.202652266879 1.00599999995304
    vertex -244.530601963573 113.202652266881 1.90599999995303
  endloop
endfacet
facet normal -5.97678493371443e-014 1.0 -8.37284696526227e-013
  outer loop
    vertex -244.530601963573 113.202652266881 1.90599999995303
    vertex -247.260728982495 113.202652266879 1.00599999995304
    vertex -245.730601963573 113.202652266881 1.90599999995303
  endloop
endfacet
facet normal -7.02943163822084e-044 1.24636794120148e-030 -1.0
  outer loop
    vertex -245.730601963573 113.202652266881 1.90599999995303
    vertex -244.530601963574 122.802652266881 1.90599999995303
    vertex -244.530601963573 113.202652266881 1.90599999995303
  endloop
endfacet
facet normal -7.02943163822084e-044 1.24636794120148e-030 -1.0
  outer loop
    vertex -244.530601963574 122.802652266881 1.90599999995303
    vertex -245.730601963573 113.202652266881 1.90599999995303
    vertex -245.730601963574 122.802652266881 1.90599999995303
  endloop
endfacet
facet normal -1.0 -5.63993296509581e-014 0.0
  outer loop
    vertex -245.730601963573 113.202652266881 1.90599999995303
    vertex -245.730601963574 122.802652266881 5.10599999995303
    vertex -245.730601963574 122.802652266881 1.90599999995303
  endloop
endfacet
facet normal -1.0 -5.63993296509581e-014 0.0
  outer loop
    vertex -245.730601963574 122.802652266881 5.10599999995303
    vertex -245.730601963573 113.202652266881 1.90599999995303
    vertex -245.730601963573 113.202652266881 5.10599999995303
  endloop
endfacet
facet normal 1.0 5.63993296509581e-014 0.0
  outer loop
    vertex -240.130601963573 113.202652266881 5.10599999995303
    vertex -240.130601963574 122.802652266881 1.90599999995303
    vertex -240.130601963574 122.802652266881 5.10599999995303
  endloop
endfacet
facet normal 1.0 5.63993296509581e-014 0.0
  outer loop
    vertex -240.130601963574 122.802652266881 1.90599999995303
    vertex -240.130601963573 113.202652266881 5.10599999995303
    vertex -240.130601963573 113.202652266881 1.90599999995303
  endloop
endfacet
facet normal -7.02943163822084e-044 1.24636794120148e-030 -1.0
  outer loop
    vertex -244.530601963573 113.202652266881 0.705999999953034
    vertex -241.330601963574 122.802652266881 0.705999999953034
    vertex -241.330601963573 113.202652266881 0.705999999953034
  endloop
endfacet
facet normal -7.02943163822084e-044 1.24636794120148e-030 -1.0
  outer loop
    vertex -241.330601963574 122.802652266881 0.705999999953034
    vertex -244.530601963573 113.202652266881 0.705999999953034
    vertex -244.530601963574 122.802652266881 0.705999999953034
  endloop
endfacet
facet normal -5.63993296509581e-014 1.0 1.24636794120148e-030
  outer loop
    vertex -244.530601963574 122.802652266881 6.30599999995303
    vertex -241.330601963574 122.802652266881 5.10599999995303
    vertex -244.530601963574 122.802652266881 5.10599999995303
  endloop
endfacet
facet normal -5.63993296509581e-014 1.0 1.24636794120148e-030
  outer loop
    vertex -241.330601963574 122.802652266881 5.10599999995303
    vertex -244.530601963574 122.802652266881 6.30599999995303
    vertex -241.330601963574 122.802652266881 6.30599999995303
  endloop
endfacet
facet normal -5.63993296509581e-014 1.0 1.24636794120148e-030
  outer loop
    vertex -245.730601963574 122.802652266881 5.10599999995303
    vertex -244.530601963574 122.802652266881 1.90599999995303
    vertex -245.730601963574 122.802652266881 1.90599999995303
  endloop
endfacet
facet normal -5.63993296509581e-014 1.0 1.24636794120148e-030
  outer loop
    vertex -244.530601963574 122.802652266881 1.90599999995303
    vertex -245.730601963574 122.802652266881 5.10599999995303
    vertex -241.330601963574 122.802652266881 1.90599999995303
  endloop
endfacet
facet normal -5.63993296509581e-014 1.0 1.24636794120148e-030
  outer loop
    vertex -241.330601963574 122.802652266881 1.90599999995303
    vertex -245.730601963574 122.802652266881 5.10599999995303
    vertex -240.130601963574 122.802652266881 1.90599999995303
  endloop
endfacet
facet normal -5.63993296509581e-014 1.0 1.24636794120148e-030
  outer loop
    vertex -240.130601963574 122.802652266881 1.90599999995303
    vertex -245.730601963574 122.802652266881 5.10599999995303
    vertex -240.130601963574 122.802652266881 5.10599999995303
  endloop
endfacet
facet normal -5.63993296509581e-014 1.0 1.24636794120148e-030
  outer loop
    vertex -240.130601963574 122.802652266881 5.10599999995303
    vertex -245.730601963574 122.802652266881 5.10599999995303
    vertex -244.530601963574 122.802652266881 5.10599999995303
  endloop
endfacet
facet normal -5.63993296509581e-014 1.0 1.24636794120148e-030
  outer loop
    vertex -240.130601963574 122.802652266881 5.10599999995303
    vertex -244.530601963574 122.802652266881 5.10599999995303
    vertex -241.330601963574 122.802652266881 5.10599999995303
  endloop
endfacet
facet normal -5.63993296509581e-014 1.0 1.24636794120148e-030
  outer loop
    vertex -244.530601963574 122.802652266881 1.90599999995303
    vertex -241.330601963574 122.802652266881 0.705999999953034
    vertex -244.530601963574 122.802652266881 0.705999999953034
  endloop
endfacet
facet normal -5.63993296509581e-014 1.0 1.24636794120148e-030
  outer loop
    vertex -241.330601963574 122.802652266881 0.705999999953034
    vertex -244.530601963574 122.802652266881 1.90599999995303
    vertex -241.330601963574 122.802652266881 1.90599999995303
  endloop
endfacet
facet normal -9.37257551762779e-044 1.24636794120148e-030 -1.0
  outer loop
    vertex -241.330601963573 113.202652266881 1.90599999995303
    vertex -240.130601963574 122.802652266881 1.90599999995303
    vertex -240.130601963573 113.202652266881 1.90599999995303
  endloop
endfacet
facet normal -9.37257551762779e-044 1.24636794120148e-030 -1.0
  outer loop
    vertex -240.130601963574 122.802652266881 1.90599999995303
    vertex -241.330601963573 113.202652266881 1.90599999995303
    vertex -241.330601963574 122.802652266881 1.90599999995303
  endloop
endfacet
facet normal 7.02943163822084e-044 -1.24636794120148e-030 1.0
  outer loop
    vertex -244.530601963574 122.802652266881 5.10599999995303
    vertex -245.730601963573 113.202652266881 5.10599999995303
    vertex -244.530601963573 113.202652266881 5.10599999995303
  endloop
endfacet
facet normal 7.02943163822084e-044 -1.24636794120148e-030 1.0
  outer loop
    vertex -245.730601963573 113.202652266881 5.10599999995303
    vertex -244.530601963574 122.802652266881 5.10599999995303
    vertex -245.730601963574 122.802652266881 5.10599999995303
  endloop
endfacet
facet normal 9.37257551762779e-044 -1.24636794120148e-030 1.0
  outer loop
    vertex -240.130601963574 122.802652266881 5.10599999995303
    vertex -241.330601963573 113.202652266881 5.10599999995303
    vertex -240.130601963573 113.202652266881 5.10599999995303
  endloop
endfacet
facet normal 9.37257551762779e-044 -1.24636794120148e-030 1.0
  outer loop
    vertex -241.330601963573 113.202652266881 5.10599999995303
    vertex -240.130601963574 122.802652266881 5.10599999995303
    vertex -241.330601963574 122.802652266881 5.10599999995303
  endloop
endfacet
facet normal -1.0 -5.63993296509581e-014 0.0
  outer loop
    vertex -244.530601963573 113.202652266881 5.10599999995303
    vertex -244.530601963574 122.802652266881 6.30599999995303
    vertex -244.530601963574 122.802652266881 5.10599999995303
  endloop
endfacet
facet normal -1.0 -5.63993296509581e-014 0.0
  outer loop
    vertex -244.530601963574 122.802652266881 6.30599999995303
    vertex -244.530601963573 113.202652266881 5.10599999995303
    vertex -244.530601963573 113.202652266881 6.30599999995303
  endloop
endfacet
facet normal -1.0 -5.63993296509581e-014 0.0
  outer loop
    vertex -244.530601963573 113.202652266881 0.705999999953034
    vertex -244.530601963574 122.802652266881 1.90599999995303
    vertex -244.530601963574 122.802652266881 0.705999999953034
  endloop
endfacet
facet normal -1.0 -5.63993296509581e-014 0.0
  outer loop
    vertex -244.530601963574 122.802652266881 1.90599999995303
    vertex -244.530601963573 113.202652266881 0.705999999953034
    vertex -244.530601963573 113.202652266881 1.90599999995303
  endloop
endfacet
facet normal 1.0 5.63993296509581e-014 0.0
  outer loop
    vertex -241.330601963573 113.202652266881 1.90599999995303
    vertex -241.330601963574 122.802652266881 0.705999999953034
    vertex -241.330601963574 122.802652266881 1.90599999995303
  endloop
endfacet
facet normal 1.0 5.63993296509581e-014 0.0
  outer loop
    vertex -241.330601963574 122.802652266881 0.705999999953034
    vertex -241.330601963573 113.202652266881 1.90599999995303
    vertex -241.330601963573 113.202652266881 0.705999999953034
  endloop
endfacet
facet normal 7.02943163822084e-044 -1.24636794120148e-030 1.0
  outer loop
    vertex -241.330601963574 122.802652266881 6.30599999995303
    vertex -244.530601963573 113.202652266881 6.30599999995303
    vertex -241.330601963573 113.202652266881 6.30599999995303
  endloop
endfacet
facet normal 7.02943163822084e-044 -1.24636794120148e-030 1.0
  outer loop
    vertex -244.530601963573 113.202652266881 6.30599999995303
    vertex -241.330601963574 122.802652266881 6.30599999995303
    vertex -244.530601963574 122.802652266881 6.30599999995303
  endloop
endfacet
facet normal 1.0 5.63993296509581e-014 0.0
  outer loop
    vertex -241.330601963573 113.202652266881 6.30599999995303
    vertex -241.330601963574 122.802652266881 5.10599999995303
    vertex -241.330601963574 122.802652266881 6.30599999995303
  endloop
endfacet
facet normal 1.0 5.63993296509581e-014 0.0
  outer loop
    vertex -241.330601963574 122.802652266881 5.10599999995303
    vertex -241.330601963573 113.202652266881 6.30599999995303
    vertex -241.330601963573 113.202652266881 5.10599999995303
  endloop
endfacet
endsolid AltAzTrackerSketchup Nema 17
