solid AltAzTrackerSketchup Nema 17
facet normal -0.380974129048153 0.0944102690497706 0.919752909260934
  outer loop
    vertex -287.11750421742 110.618389285568 9.37749907474985
    vertex -286.461599442935 99.1183892855693 10.829629131445
    vertex -286.176898493321 110.618389285568 9.767110722518
  endloop
endfacet
facet normal -0.380974129048153 0.0944102690497706 0.919752909260934
  outer loop
    vertex -286.461599442935 99.1183892855693 10.829629131445
    vertex -287.11750421742 110.618389285568 9.37749907474985
    vertex -287.667504217422 99.118389285569 10.3301270189217
  endloop
endfacet
facet normal 0.129943180690393 0.0944102690482245 -0.9870164491488
  outer loop
    vertex -285.167504217421 99.1183892855615 0.999999999999763
    vertex -284.15810994152 110.618389285562 2.23288927746347
    vertex -283.873408991908 99.1183892855616 1.17037086855455
  endloop
endfacet
facet normal 0.129943180690393 0.0944102690482245 -0.9870164491488
  outer loop
    vertex -284.15810994152 110.618389285562 2.23288927746347
    vertex -285.167504217421 99.1183892855615 0.999999999999763
    vertex -285.16750421742 110.618389285562 2.09999999999073
  endloop
endfacet
facet normal 0.987016449148761 0.0944102690488181 -0.12994318069026
  outer loop
    vertex -280.167504217421 99.1183892855651 6.00000000000028
    vertex -281.400393494893 110.618389285564 4.99060572409129
    vertex -281.26750421742 110.618389285565 5.99999999999113
  endloop
endfacet
facet normal 0.987016449148761 0.0944102690488181 -0.12994318069026
  outer loop
    vertex -281.400393494893 110.618389285564 4.99060572409129
    vertex -280.167504217421 99.1183892855651 6.00000000000028
    vertex -280.337875085976 99.1183892855641 4.70590477448765
  endloop
endfacet
facet normal 0.919752909261113 0.0944102690486262 -0.380974129048005
  outer loop
    vertex -280.337875085976 99.1183892855641 4.70590477448765
    vertex -281.790005142661 110.618389285564 4.04999999999108
    vertex -281.400393494893 110.618389285564 4.99060572409129
  endloop
endfacet
facet normal 0.919752909261113 0.0944102690486262 -0.380974129048005
  outer loop
    vertex -281.790005142661 110.618389285564 4.04999999999108
    vertex -280.337875085976 99.1183892855641 4.70590477448765
    vertex -280.837377198499 99.1183892855632 3.50000000000021
  endloop
endfacet
facet normal -0.606042320100618 0.0944102690484438 -0.789809728570914
  outer loop
    vertex -287.667504217421 99.1183892855622 1.66987298107732
    vertex -287.925220664048 110.618389285563 3.24228355336292
    vertex -287.11750421742 110.618389285563 2.62250092523123
  endloop
endfacet
facet normal -0.606042320100618 0.0944102690484438 -0.789809728570914
  outer loop
    vertex -287.925220664048 110.618389285563 3.24228355336292
    vertex -287.667504217421 99.1183892855622 1.66987298107732
    vertex -288.703038123354 99.1183892855629 2.46446609406667
  endloop
endfacet
facet normal -0.789809728570723 0.0944102690486072 -0.606042320100841
  outer loop
    vertex -287.925220664048 110.618389285563 3.24228355336292
    vertex -289.497631236343 99.1183892855638 3.49999999999932
    vertex -288.545003292179 110.618389285564 4.04999999999039
  endloop
endfacet
facet normal -0.789809728570723 0.0944102690486072 -0.606042320100841
  outer loop
    vertex -289.497631236343 99.1183892855638 3.49999999999932
    vertex -287.925220664048 110.618389285563 3.24228355336292
    vertex -288.703038123354 99.1183892855629 2.46446609406667
  endloop
endfacet
facet normal -0.919752909260999 0.0944102690487963 -0.380974129048236
  outer loop
    vertex -288.545003292179 110.618389285564 4.04999999999039
    vertex -289.997133348867 99.1183892855648 4.70590477448667
    vertex -288.934614939948 110.618389285565 4.99060572409052
  endloop
endfacet
facet normal -0.919752909260999 0.0944102690487963 -0.380974129048236
  outer loop
    vertex -289.997133348867 99.1183892855648 4.70590477448667
    vertex -288.545003292179 110.618389285564 4.04999999999039
    vertex -289.497631236343 99.1183892855638 3.49999999999932
  endloop
endfacet
facet normal -0.987016449148725 0.0944102690490006 -0.129943180690397
  outer loop
    vertex -288.934614939948 110.618389285565 4.99060572409052
    vertex -290.167504217421 99.1183892855658 5.99999999999925
    vertex -289.06750421742 110.618389285566 5.99999999999034
  endloop
endfacet
facet normal -0.987016449148725 0.0944102690490006 -0.129943180690397
  outer loop
    vertex -290.167504217421 99.1183892855658 5.99999999999925
    vertex -288.934614939948 110.618389285565 4.99060572409052
    vertex -289.997133348867 99.1183892855648 4.70590477448667
  endloop
endfacet
facet normal 0.789809728570856 0.0944102690484608 -0.606042320100691
  outer loop
    vertex -280.837377198499 99.1183892855632 3.50000000000021
    vertex -282.409787770793 110.618389285563 3.24228355336348
    vertex -281.790005142661 110.618389285564 4.04999999999108
  endloop
endfacet
facet normal 0.789809728570856 0.0944102690484608 -0.606042320100691
  outer loop
    vertex -282.409787770793 110.618389285563 3.24228355336348
    vertex -280.837377198499 99.1183892855632 3.50000000000021
    vertex -281.631970311488 99.1183892855624 2.46446609406739
  endloop
endfacet
facet normal -0.919752909261123 0.0944102690494022 0.380974129047788
  outer loop
    vertex -288.934614939947 110.618389285567 7.00939427589019
    vertex -289.497631236344 99.1183892855677 8.49999999999933
    vertex -288.54500329218 110.618389285567 7.94999999999039
  endloop
endfacet
facet normal -0.919752909261123 0.0944102690494022 0.380974129047788
  outer loop
    vertex -289.497631236344 99.1183892855677 8.49999999999933
    vertex -288.934614939947 110.618389285567 7.00939427589019
    vertex -289.997133348867 99.1183892855668 7.29409522551189
  endloop
endfacet
facet normal -0.789809728570788 0.0944102690495669 0.606042320100607
  outer loop
    vertex -288.54500329218 110.618389285567 7.94999999999039
    vertex -288.703038123354 99.1183892855684 9.53553390593215
    vertex -287.925220664048 110.618389285568 8.75771644661799
  endloop
endfacet
facet normal -0.789809728570788 0.0944102690495669 0.606042320100607
  outer loop
    vertex -288.703038123354 99.1183892855684 9.53553390593215
    vertex -288.54500329218 110.618389285567 7.94999999999039
    vertex -289.497631236344 99.1183892855677 8.49999999999933
  endloop
endfacet
facet normal -0.12994318069037 0.0944102690497973 0.987016449148653
  outer loop
    vertex -286.176898493321 110.618389285568 9.767110722518
    vertex -285.167504217422 99.1183892855694 10.9999999999998
    vertex -285.167504217421 110.618389285569 9.89999999999074
  endloop
endfacet
facet normal -0.12994318069037 0.0944102690497973 0.987016449148653
  outer loop
    vertex -285.167504217422 99.1183892855694 10.9999999999998
    vertex -286.176898493321 110.618389285568 9.767110722518
    vertex -286.461599442935 99.1183892855693 10.829629131445
  endloop
endfacet
facet normal -0.987016449148735 0.0944102690492152 0.129943180690168
  outer loop
    vertex -289.06750421742 110.618389285566 5.99999999999034
    vertex -289.997133348867 99.1183892855668 7.29409522551189
    vertex -288.934614939947 110.618389285567 7.00939427589019
  endloop
endfacet
facet normal -0.987016449148735 0.0944102690492152 0.129943180690168
  outer loop
    vertex -289.997133348867 99.1183892855668 7.29409522551189
    vertex -289.06750421742 110.618389285566 5.99999999999034
    vertex -290.167504217421 99.1183892855658 5.99999999999925
  endloop
endfacet
facet normal 0.129943180690185 0.0944102690497734 0.987016449148679
  outer loop
    vertex -284.158109941521 110.618389285568 9.7671107225182
    vertex -285.167504217422 99.1183892855694 10.9999999999998
    vertex -283.873408991909 99.1183892855692 10.8296291314452
  endloop
endfacet
facet normal 0.129943180690185 0.0944102690497734 0.987016449148679
  outer loop
    vertex -285.167504217422 99.1183892855694 10.9999999999998
    vertex -284.158109941521 110.618389285568 9.7671107225182
    vertex -285.167504217421 110.618389285569 9.89999999999074
  endloop
endfacet
facet normal 0.606042320100778 0.0944102690483342 -0.789809728570804
  outer loop
    vertex -282.667504217421 99.1183892855619 1.66987298107782
    vertex -282.409787770793 110.618389285563 3.24228355336348
    vertex -281.631970311488 99.1183892855624 2.46446609406739
  endloop
endfacet
facet normal 0.606042320100778 0.0944102690483342 -0.789809728570804
  outer loop
    vertex -282.409787770793 110.618389285563 3.24228355336348
    vertex -282.667504217421 99.1183892855619 1.66987298107782
    vertex -283.21750421742 110.618389285563 2.62250092523162
  endloop
endfacet
facet normal 0.606042320100626 0.0944102690495621 0.789809728570774
  outer loop
    vertex -282.409787770793 110.618389285567 8.75771644661855
    vertex -282.667504217422 99.1183892855687 10.3301270189222
    vertex -281.631970311489 99.1183892855679 9.53553390593286
  endloop
endfacet
facet normal 0.606042320100626 0.0944102690495621 0.789809728570774
  outer loop
    vertex -282.667504217422 99.1183892855687 10.3301270189222
    vertex -282.409787770793 110.618389285567 8.75771644661855
    vertex -283.21750421742 110.618389285568 9.37749907475025
  endloop
endfacet
facet normal 0.789809728570783 0.0944102690494067 0.606042320100638
  outer loop
    vertex -281.631970311489 99.1183892855679 9.53553390593286
    vertex -281.790005142661 110.618389285567 7.94999999999108
    vertex -282.409787770793 110.618389285567 8.75771644661855
  endloop
endfacet
facet normal 0.789809728570783 0.0944102690494067 0.606042320100638
  outer loop
    vertex -281.790005142661 110.618389285567 7.94999999999108
    vertex -281.631970311489 99.1183892855679 9.53553390593286
    vertex -280.8373771985 99.1183892855671 8.50000000000021
  endloop
endfacet
facet normal -0.380974129047923 0.0944102690483237 -0.919752909261177
  outer loop
    vertex -286.461599442934 99.1183892855618 1.17037086855429
    vertex -287.11750421742 110.618389285563 2.62250092523123
    vertex -286.17689849332 110.618389285563 2.23288927746326
  endloop
endfacet
facet normal -0.380974129047923 0.0944102690483237 -0.919752909261177
  outer loop
    vertex -287.11750421742 110.618389285563 2.62250092523123
    vertex -286.461599442934 99.1183892855618 1.17037086855429
    vertex -287.667504217421 99.1183892855622 1.66987298107732
  endloop
endfacet
facet normal 0.380974129048145 0.0944102690482525 -0.919752909261093
  outer loop
    vertex -283.873408991908 99.1183892855616 1.17037086855455
    vertex -283.21750421742 110.618389285563 2.62250092523162
    vertex -282.667504217421 99.1183892855619 1.66987298107782
  endloop
endfacet
facet normal 0.380974129048145 0.0944102690482525 -0.919752909261093
  outer loop
    vertex -283.21750421742 110.618389285563 2.62250092523162
    vertex -283.873408991908 99.1183892855616 1.17037086855455
    vertex -284.15810994152 110.618389285562 2.23288927746347
  endloop
endfacet
facet normal 0.987016449148752 0.0944102690490112 0.129943180690188
  outer loop
    vertex -280.337875085976 99.1183892855661 7.29409522551286
    vertex -281.26750421742 110.618389285565 5.99999999999113
    vertex -281.400393494893 110.618389285566 7.00939427589095
  endloop
endfacet
facet normal 0.987016449148752 0.0944102690490112 0.129943180690188
  outer loop
    vertex -281.26750421742 110.618389285565 5.99999999999113
    vertex -280.337875085976 99.1183892855661 7.29409522551286
    vertex -280.167504217421 99.1183892855651 6.00000000000028
  endloop
endfacet
facet normal 0.919752909260984 0.0944102690492174 0.380974129048169
  outer loop
    vertex -280.8373771985 99.1183892855671 8.50000000000021
    vertex -281.400393494893 110.618389285566 7.00939427589095
    vertex -281.790005142661 110.618389285567 7.94999999999108
  endloop
endfacet
facet normal 0.919752909260984 0.0944102690492174 0.380974129048169
  outer loop
    vertex -281.400393494893 110.618389285566 7.00939427589095
    vertex -280.8373771985 99.1183892855671 8.50000000000021
    vertex -280.337875085976 99.1183892855661 7.29409522551286
  endloop
endfacet
facet normal -0.606042320100775 0.0944102690496984 0.789809728570643
  outer loop
    vertex -287.925220664048 110.618389285568 8.75771644661799
    vertex -287.667504217422 99.118389285569 10.3301270189217
    vertex -287.11750421742 110.618389285568 9.37749907474985
  endloop
endfacet
facet normal -0.606042320100775 0.0944102690496984 0.789809728570643
  outer loop
    vertex -287.667504217422 99.118389285569 10.3301270189217
    vertex -287.925220664048 110.618389285568 8.75771644661799
    vertex -288.703038123354 99.1183892855684 9.53553390593215
  endloop
endfacet
facet normal 0.38097412904792 0.0944102690496946 0.919752909261038
  outer loop
    vertex -283.21750421742 110.618389285568 9.37749907475025
    vertex -283.873408991909 99.1183892855692 10.8296291314452
    vertex -282.667504217422 99.1183892855687 10.3301270189222
  endloop
endfacet
facet normal 0.38097412904792 0.0944102690496946 0.919752909261038
  outer loop
    vertex -283.873408991909 99.1183892855692 10.8296291314452
    vertex -283.21750421742 110.618389285568 9.37749907475025
    vertex -284.158109941521 110.618389285568 9.7671107225182
  endloop
endfacet
facet normal -0.12994318069016 0.0944102690482461 -0.987016449148829
  outer loop
    vertex -285.167504217421 99.1183892855615 0.999999999999763
    vertex -286.17689849332 110.618389285563 2.23288927746326
    vertex -285.16750421742 110.618389285562 2.09999999999073
  endloop
endfacet
facet normal -0.12994318069016 0.0944102690482461 -0.987016449148829
  outer loop
    vertex -286.17689849332 110.618389285563 2.23288927746326
    vertex -285.167504217421 99.1183892855615 0.999999999999763
    vertex -286.461599442934 99.1183892855618 1.17037086855429
  endloop
endfacet
facet normal -7.01136630485347e-014 -1.0 7.85003258404787e-013
  outer loop
    vertex -280.337875085976 99.1183892855641 4.70590477448765
    vertex -282.367504217421 99.1183892855679 4.40000000001673
    vertex -280.837377198499 99.1183892855632 3.50000000000021
  endloop
endfacet
facet normal -7.01136630485347e-014 -1.0 7.85003258404787e-013
  outer loop
    vertex -282.367504217421 99.1183892855679 4.40000000001673
    vertex -280.337875085976 99.1183892855641 4.70590477448765
    vertex -282.367504217421 99.1183892855679 7.60000000001673
  endloop
endfacet
facet normal -7.01136630485347e-014 -1.0 7.85003258404787e-013
  outer loop
    vertex -282.367504217421 99.1183892855679 7.60000000001673
    vertex -280.337875085976 99.1183892855641 4.70590477448765
    vertex -280.167504217421 99.1183892855651 6.00000000000028
  endloop
endfacet
facet normal -7.01136630485347e-014 -1.0 7.85003258404787e-013
  outer loop
    vertex -282.367504217421 99.1183892855679 7.60000000001673
    vertex -280.167504217421 99.1183892855651 6.00000000000028
    vertex -280.337875085976 99.1183892855661 7.29409522551286
  endloop
endfacet
facet normal -7.01136630485347e-014 -1.0 7.85003258404787e-013
  outer loop
    vertex -282.367504217421 99.1183892855679 7.60000000001673
    vertex -280.337875085976 99.1183892855661 7.29409522551286
    vertex -280.8373771985 99.1183892855671 8.50000000000021
  endloop
endfacet
facet normal -7.01136630485347e-014 -1.0 7.85003258404787e-013
  outer loop
    vertex -282.367504217421 99.1183892855679 7.60000000001673
    vertex -280.8373771985 99.1183892855671 8.50000000000021
    vertex -283.567504217421 99.1183892855679 7.60000000001664
  endloop
endfacet
facet normal -7.01136630485347e-014 -1.0 7.85003258404787e-013
  outer loop
    vertex -283.567504217421 99.1183892855679 7.60000000001664
    vertex -280.8373771985 99.1183892855671 8.50000000000021
    vertex -283.567504217421 99.1183892855679 8.80000000001664
  endloop
endfacet
facet normal -7.01136630485347e-014 -1.0 7.85003258404787e-013
  outer loop
    vertex -283.567504217421 99.1183892855679 8.80000000001664
    vertex -280.8373771985 99.1183892855671 8.50000000000021
    vertex -281.631970311489 99.1183892855679 9.53553390593286
  endloop
endfacet
facet normal -7.01136630485347e-014 -1.0 7.85003258404787e-013
  outer loop
    vertex -283.567504217421 99.1183892855679 8.80000000001664
    vertex -281.631970311489 99.1183892855679 9.53553390593286
    vertex -286.767504217421 99.118389285568 8.8000000000164
  endloop
endfacet
facet normal -7.01136630485347e-014 -1.0 7.85003258404787e-013
  outer loop
    vertex -286.767504217421 99.118389285568 8.8000000000164
    vertex -281.631970311489 99.1183892855679 9.53553390593286
    vertex -288.703038123354 99.1183892855684 9.53553390593215
  endloop
endfacet
facet normal -7.01136630485347e-014 -1.0 7.85003258404787e-013
  outer loop
    vertex -288.703038123354 99.1183892855684 9.53553390593215
    vertex -281.631970311489 99.1183892855679 9.53553390593286
    vertex -287.667504217422 99.118389285569 10.3301270189217
  endloop
endfacet
facet normal -7.01136630485347e-014 -1.0 7.85003258404787e-013
  outer loop
    vertex -287.667504217422 99.118389285569 10.3301270189217
    vertex -281.631970311489 99.1183892855679 9.53553390593286
    vertex -282.667504217422 99.1183892855687 10.3301270189222
  endloop
endfacet
facet normal -7.01136630485347e-014 -1.0 7.85003258404787e-013
  outer loop
    vertex -287.667504217422 99.118389285569 10.3301270189217
    vertex -282.667504217422 99.1183892855687 10.3301270189222
    vertex -286.461599442935 99.1183892855693 10.829629131445
  endloop
endfacet
facet normal -7.01136630485347e-014 -1.0 7.85003258404787e-013
  outer loop
    vertex -286.461599442935 99.1183892855693 10.829629131445
    vertex -282.667504217422 99.1183892855687 10.3301270189222
    vertex -283.873408991909 99.1183892855692 10.8296291314452
  endloop
endfacet
facet normal -7.01136630485347e-014 -1.0 7.85003258404787e-013
  outer loop
    vertex -286.461599442935 99.1183892855693 10.829629131445
    vertex -283.873408991909 99.1183892855692 10.8296291314452
    vertex -285.167504217422 99.1183892855694 10.9999999999998
  endloop
endfacet
facet normal -7.01136630485347e-014 -1.0 7.85003258404787e-013
  outer loop
    vertex -286.767504217421 99.118389285568 8.8000000000164
    vertex -287.967504217421 99.118389285568 7.6000000000163
    vertex -286.767504217421 99.118389285568 7.6000000000164
  endloop
endfacet
facet normal -7.01136630485347e-014 -1.0 7.85003258404787e-013
  outer loop
    vertex -287.967504217421 99.118389285568 7.6000000000163
    vertex -286.767504217421 99.118389285568 8.8000000000164
    vertex -289.497631236344 99.1183892855677 8.49999999999933
  endloop
endfacet
facet normal -7.01136630485347e-014 -1.0 7.85003258404787e-013
  outer loop
    vertex -289.497631236344 99.1183892855677 8.49999999999933
    vertex -286.767504217421 99.118389285568 8.8000000000164
    vertex -288.703038123354 99.1183892855684 9.53553390593215
  endloop
endfacet
facet normal -7.01136630485347e-014 -1.0 7.85003258404787e-013
  outer loop
    vertex -283.873408991908 99.1183892855616 1.17037086855455
    vertex -286.461599442934 99.1183892855618 1.17037086855429
    vertex -285.167504217421 99.1183892855615 0.999999999999763
  endloop
endfacet
facet normal -7.01136630485347e-014 -1.0 7.85003258404787e-013
  outer loop
    vertex -286.461599442934 99.1183892855618 1.17037086855429
    vertex -283.873408991908 99.1183892855616 1.17037086855455
    vertex -287.667504217421 99.1183892855622 1.66987298107732
  endloop
endfacet
facet normal -7.01136630485347e-014 -1.0 7.85003258404787e-013
  outer loop
    vertex -287.667504217421 99.1183892855622 1.66987298107732
    vertex -283.873408991908 99.1183892855616 1.17037086855455
    vertex -282.667504217421 99.1183892855619 1.66987298107782
  endloop
endfacet
facet normal -7.01136630485347e-014 -1.0 7.85003258404787e-013
  outer loop
    vertex -287.667504217421 99.1183892855622 1.66987298107732
    vertex -282.667504217421 99.1183892855619 1.66987298107782
    vertex -288.703038123354 99.1183892855629 2.46446609406667
  endloop
endfacet
facet normal -7.01136630485347e-014 -1.0 7.85003258404787e-013
  outer loop
    vertex -288.703038123354 99.1183892855629 2.46446609406667
    vertex -282.667504217421 99.1183892855619 1.66987298107782
    vertex -281.631970311488 99.1183892855624 2.46446609406739
  endloop
endfacet
facet normal -7.01136630485347e-014 -1.0 7.85003258404787e-013
  outer loop
    vertex -288.703038123354 99.1183892855629 2.46446609406667
    vertex -281.631970311488 99.1183892855624 2.46446609406739
    vertex -289.497631236343 99.1183892855638 3.49999999999932
  endloop
endfacet
facet normal -7.01136630485347e-014 -1.0 7.85003258404787e-013
  outer loop
    vertex -289.497631236343 99.1183892855638 3.49999999999932
    vertex -281.631970311488 99.1183892855624 2.46446609406739
    vertex -286.767504217421 99.118389285568 3.2000000000164
  endloop
endfacet
facet normal -7.01136630485347e-014 -1.0 7.85003258404787e-013
  outer loop
    vertex -286.767504217421 99.118389285568 3.2000000000164
    vertex -281.631970311488 99.1183892855624 2.46446609406739
    vertex -283.567504217421 99.1183892855678 3.20000000001664
  endloop
endfacet
facet normal -7.01136630485347e-014 -1.0 7.85003258404787e-013
  outer loop
    vertex -289.497631236343 99.1183892855638 3.49999999999932
    vertex -286.767504217421 99.118389285568 3.2000000000164
    vertex -286.767504217421 99.118389285568 4.4000000000164
  endloop
endfacet
facet normal -7.01136630485347e-014 -1.0 7.85003258404787e-013
  outer loop
    vertex -289.497631236343 99.1183892855638 3.49999999999932
    vertex -286.767504217421 99.118389285568 4.4000000000164
    vertex -287.967504217421 99.118389285568 4.40000000001631
  endloop
endfacet
facet normal -7.01136630485347e-014 -1.0 7.85003258404787e-013
  outer loop
    vertex -289.497631236343 99.1183892855638 3.49999999999932
    vertex -287.967504217421 99.118389285568 4.40000000001631
    vertex -289.997133348867 99.1183892855648 4.70590477448667
  endloop
endfacet
facet normal -7.01136630485347e-014 -1.0 7.85003258404787e-013
  outer loop
    vertex -289.997133348867 99.1183892855648 4.70590477448667
    vertex -287.967504217421 99.118389285568 4.40000000001631
    vertex -287.967504217421 99.118389285568 7.6000000000163
  endloop
endfacet
facet normal -7.01136630485347e-014 -1.0 7.85003258404787e-013
  outer loop
    vertex -289.997133348867 99.1183892855648 4.70590477448667
    vertex -287.967504217421 99.118389285568 7.6000000000163
    vertex -290.167504217421 99.1183892855658 5.99999999999925
  endloop
endfacet
facet normal -7.01136630485347e-014 -1.0 7.85003258404787e-013
  outer loop
    vertex -290.167504217421 99.1183892855658 5.99999999999925
    vertex -287.967504217421 99.118389285568 7.6000000000163
    vertex -289.997133348867 99.1183892855668 7.29409522551189
  endloop
endfacet
facet normal -7.01136630485347e-014 -1.0 7.85003258404787e-013
  outer loop
    vertex -289.997133348867 99.1183892855668 7.29409522551189
    vertex -287.967504217421 99.118389285568 7.6000000000163
    vertex -289.497631236344 99.1183892855677 8.49999999999933
  endloop
endfacet
facet normal -7.01136630485347e-014 -1.0 7.85003258404787e-013
  outer loop
    vertex -280.837377198499 99.1183892855632 3.50000000000021
    vertex -283.567504217421 99.1183892855678 3.20000000001664
    vertex -281.631970311488 99.1183892855624 2.46446609406739
  endloop
endfacet
facet normal -7.01136630485347e-014 -1.0 7.85003258404787e-013
  outer loop
    vertex -283.567504217421 99.1183892855678 3.20000000001664
    vertex -280.837377198499 99.1183892855632 3.50000000000021
    vertex -283.567504217421 99.1183892855679 4.40000000001664
  endloop
endfacet
facet normal -7.01136630485347e-014 -1.0 7.85003258404787e-013
  outer loop
    vertex -283.567504217421 99.1183892855679 4.40000000001664
    vertex -280.837377198499 99.1183892855632 3.50000000000021
    vertex -282.367504217421 99.1183892855679 4.40000000001673
  endloop
endfacet
facet normal -7.5199106201277e-014 1.39529591584426e-014 1.0
  outer loop
    vertex -287.967504217421 99.118389285568 7.6000000000163
    vertex -286.767504217422 89.518389285568 7.60000000001653
    vertex -286.767504217421 99.118389285568 7.6000000000164
  endloop
endfacet
facet normal -7.5199106201277e-014 1.39529591584426e-014 1.0
  outer loop
    vertex -286.767504217422 89.518389285568 7.60000000001653
    vertex -287.967504217421 99.118389285568 7.6000000000163
    vertex -287.967504217422 89.518389285568 7.60000000001644
  endloop
endfacet
facet normal 7.46116131840801e-014 -1.38060859041429e-014 -1.0
  outer loop
    vertex -282.367504217422 89.5183892855679 4.40000000001686
    vertex -283.567504217421 99.1183892855679 4.40000000001664
    vertex -282.367504217421 99.1183892855679 4.40000000001673
  endloop
endfacet
facet normal 7.46116131840801e-014 -1.38060859041429e-014 -1.0
  outer loop
    vertex -283.567504217421 99.1183892855679 4.40000000001664
    vertex -282.367504217422 89.5183892855679 4.40000000001686
    vertex -283.567504217422 89.5183892855679 4.40000000001677
  endloop
endfacet
facet normal -1.0 2.81996648254779e-014 -7.51991062012773e-014
  outer loop
    vertex -286.767504217422 89.5183892855679 3.20000000001653
    vertex -286.767504217421 99.118389285568 4.4000000000164
    vertex -286.767504217421 99.118389285568 3.2000000000164
  endloop
endfacet
facet normal -1.0 2.81996648254779e-014 -7.51991062012773e-014
  outer loop
    vertex -286.767504217421 99.118389285568 4.4000000000164
    vertex -286.767504217422 89.5183892855679 3.20000000001653
    vertex -286.767504217422 89.5183892855679 4.40000000001653
  endloop
endfacet
facet normal -1.30554003821671e-014 -1.0 1.14887523363053e-014
  outer loop
    vertex -283.567504217422 89.5183892855679 4.40000000001677
    vertex -286.767504217422 89.5183892855679 3.20000000001653
    vertex -283.567504217422 89.5183892855678 3.20000000001677
  endloop
endfacet
facet normal -1.30554003821671e-014 -1.0 1.14887523363053e-014
  outer loop
    vertex -286.767504217422 89.5183892855679 3.20000000001653
    vertex -283.567504217422 89.5183892855679 4.40000000001677
    vertex -286.767504217422 89.5183892855679 4.40000000001653
  endloop
endfacet
facet normal -1.30554003821671e-014 -1.0 1.14887523363053e-014
  outer loop
    vertex -286.767504217422 89.5183892855679 4.40000000001653
    vertex -283.567504217422 89.5183892855679 4.40000000001677
    vertex -282.367504217422 89.5183892855679 4.40000000001686
  endloop
endfacet
facet normal -1.30554003821671e-014 -1.0 1.14887523363053e-014
  outer loop
    vertex -286.767504217422 89.5183892855679 4.40000000001653
    vertex -282.367504217422 89.5183892855679 4.40000000001686
    vertex -282.367504217422 89.518389285568 7.60000000001686
  endloop
endfacet
facet normal -1.30554003821671e-014 -1.0 1.14887523363053e-014
  outer loop
    vertex -286.767504217422 89.5183892855679 4.40000000001653
    vertex -282.367504217422 89.518389285568 7.60000000001686
    vertex -287.967504217422 89.518389285568 4.40000000001644
  endloop
endfacet
facet normal -1.30554003821671e-014 -1.0 1.14887523363053e-014
  outer loop
    vertex -287.967504217422 89.518389285568 4.40000000001644
    vertex -282.367504217422 89.518389285568 7.60000000001686
    vertex -283.567504217422 89.5183892855679 7.60000000001677
  endloop
endfacet
facet normal -1.30554003821671e-014 -1.0 1.14887523363053e-014
  outer loop
    vertex -283.567504217422 89.5183892855679 8.80000000001677
    vertex -286.767504217422 89.518389285568 7.60000000001653
    vertex -283.567504217422 89.5183892855679 7.60000000001677
  endloop
endfacet
facet normal -1.30554003821671e-014 -1.0 1.14887523363053e-014
  outer loop
    vertex -286.767504217422 89.518389285568 7.60000000001653
    vertex -283.567504217422 89.5183892855679 8.80000000001677
    vertex -286.767504217422 89.518389285568 8.80000000001653
  endloop
endfacet
facet normal -1.30554003821671e-014 -1.0 1.14887523363053e-014
  outer loop
    vertex -283.567504217422 89.5183892855679 7.60000000001677
    vertex -287.967504217422 89.518389285568 7.60000000001644
    vertex -287.967504217422 89.518389285568 4.40000000001644
  endloop
endfacet
facet normal -1.30554003821671e-014 -1.0 1.14887523363053e-014
  outer loop
    vertex -287.967504217422 89.518389285568 7.60000000001644
    vertex -283.567504217422 89.5183892855679 7.60000000001677
    vertex -286.767504217422 89.518389285568 7.60000000001653
  endloop
endfacet
facet normal 7.5015514633403e-014 -1.3769367590568e-014 -1.0
  outer loop
    vertex -283.567504217422 89.5183892855678 3.20000000001677
    vertex -286.767504217421 99.118389285568 3.2000000000164
    vertex -283.567504217421 99.1183892855678 3.20000000001664
  endloop
endfacet
facet normal 7.5015514633403e-014 -1.3769367590568e-014 -1.0
  outer loop
    vertex -286.767504217421 99.118389285568 3.2000000000164
    vertex -283.567504217422 89.5183892855678 3.20000000001677
    vertex -286.767504217422 89.5183892855679 3.20000000001653
  endloop
endfacet
facet normal 7.46116131840795e-014 -1.38060859041428e-014 -1.0
  outer loop
    vertex -286.767504217422 89.5183892855679 4.40000000001653
    vertex -287.967504217421 99.118389285568 4.40000000001631
    vertex -286.767504217421 99.118389285568 4.4000000000164
  endloop
endfacet
facet normal 7.46116131840795e-014 -1.38060859041428e-014 -1.0
  outer loop
    vertex -287.967504217421 99.118389285568 4.40000000001631
    vertex -286.767504217422 89.5183892855679 4.40000000001653
    vertex -287.967504217422 89.518389285568 4.40000000001644
  endloop
endfacet
facet normal 1.0 -3.05496368942681e-014 6.34492458573281e-014
  outer loop
    vertex -282.367504217422 89.518389285568 7.60000000001686
    vertex -282.367504217421 99.1183892855679 4.40000000001673
    vertex -282.367504217421 99.1183892855679 7.60000000001673
  endloop
endfacet
facet normal 1.0 -3.05496368942681e-014 6.34492458573281e-014
  outer loop
    vertex -282.367504217421 99.1183892855679 4.40000000001673
    vertex -282.367504217422 89.518389285568 7.60000000001686
    vertex -282.367504217422 89.5183892855679 4.40000000001686
  endloop
endfacet
facet normal -1.0 3.0549636894268e-014 -6.34492458573279e-014
  outer loop
    vertex -287.967504217422 89.518389285568 4.40000000001644
    vertex -287.967504217421 99.118389285568 7.6000000000163
    vertex -287.967504217421 99.118389285568 4.40000000001631
  endloop
endfacet
facet normal -1.0 3.0549636894268e-014 -6.34492458573279e-014
  outer loop
    vertex -287.967504217421 99.118389285568 7.6000000000163
    vertex -287.967504217422 89.518389285568 4.40000000001644
    vertex -287.967504217422 89.518389285568 7.60000000001644
  endloop
endfacet
facet normal -1.0 3.28996089630577e-014 -7.51991062012788e-014
  outer loop
    vertex -286.767504217421 99.118389285568 7.6000000000164
    vertex -286.767504217422 89.518389285568 8.80000000001653
    vertex -286.767504217421 99.118389285568 8.8000000000164
  endloop
endfacet
facet normal -1.0 3.28996089630577e-014 -7.51991062012788e-014
  outer loop
    vertex -286.767504217422 89.518389285568 8.80000000001653
    vertex -286.767504217421 99.118389285568 7.6000000000164
    vertex -286.767504217422 89.518389285568 7.60000000001653
  endloop
endfacet
facet normal -7.46850498112293e-014 1.38795225312929e-014 1.0
  outer loop
    vertex -286.767504217421 99.118389285568 8.8000000000164
    vertex -283.567504217422 89.5183892855679 8.80000000001677
    vertex -283.567504217421 99.1183892855679 8.80000000001664
  endloop
endfacet
facet normal -7.46850498112293e-014 1.38795225312929e-014 1.0
  outer loop
    vertex -283.567504217422 89.5183892855679 8.80000000001677
    vertex -286.767504217421 99.118389285568 8.8000000000164
    vertex -286.767504217422 89.518389285568 8.80000000001653
  endloop
endfacet
facet normal 1.0 -3.28996089630577e-014 7.51991062012775e-014
  outer loop
    vertex -283.567504217421 99.1183892855679 8.80000000001664
    vertex -283.567504217422 89.5183892855679 7.60000000001677
    vertex -283.567504217421 99.1183892855679 7.60000000001664
  endloop
endfacet
facet normal 1.0 -3.28996089630577e-014 7.51991062012775e-014
  outer loop
    vertex -283.567504217422 89.5183892855679 7.60000000001677
    vertex -283.567504217421 99.1183892855679 8.80000000001664
    vertex -283.567504217422 89.5183892855679 8.80000000001677
  endloop
endfacet
facet normal -7.5786599218475e-014 1.38795225312929e-014 1.0
  outer loop
    vertex -283.567504217421 99.1183892855679 7.60000000001664
    vertex -282.367504217422 89.518389285568 7.60000000001686
    vertex -282.367504217421 99.1183892855679 7.60000000001673
  endloop
endfacet
facet normal -7.5786599218475e-014 1.38795225312929e-014 1.0
  outer loop
    vertex -282.367504217422 89.518389285568 7.60000000001686
    vertex -283.567504217421 99.1183892855679 7.60000000001664
    vertex -283.567504217422 89.5183892855679 7.60000000001677
  endloop
endfacet
facet normal 1.0 -2.81996648254779e-014 7.51991062012772e-014
  outer loop
    vertex -283.567504217422 89.5183892855679 4.40000000001677
    vertex -283.567504217421 99.1183892855678 3.20000000001664
    vertex -283.567504217421 99.1183892855679 4.40000000001664
  endloop
endfacet
facet normal 1.0 -2.81996648254779e-014 7.51991062012772e-014
  outer loop
    vertex -283.567504217421 99.1183892855678 3.20000000001664
    vertex -283.567504217422 89.5183892855679 4.40000000001677
    vertex -283.567504217422 89.5183892855678 3.20000000001677
  endloop
endfacet
facet normal 8.1990502357262e-014 1.0 -7.88873223665023e-013
  outer loop
    vertex -287.925220664048 112.618389285568 8.75771644661643
    vertex -281.790005142661 112.618389285567 7.94999999998952
    vertex -288.54500329218 112.618389285567 7.94999999998883
  endloop
endfacet
facet normal 8.1990502357262e-014 1.0 -7.88873223665023e-013
  outer loop
    vertex -281.790005142661 112.618389285567 7.94999999998952
    vertex -287.925220664048 112.618389285568 8.75771644661643
    vertex -282.409787770793 112.618389285567 8.75771644661699
  endloop
endfacet
facet normal 8.1990502357262e-014 1.0 -7.88873223665023e-013
  outer loop
    vertex -282.409787770793 112.618389285567 8.75771644661699
    vertex -287.925220664048 112.618389285568 8.75771644661643
    vertex -287.11750421742 112.618389285568 9.37749907474829
  endloop
endfacet
facet normal 8.1990502357262e-014 1.0 -7.88873223665023e-013
  outer loop
    vertex -282.409787770793 112.618389285567 8.75771644661699
    vertex -287.11750421742 112.618389285568 9.37749907474829
    vertex -283.21750421742 112.618389285568 9.37749907474869
  endloop
endfacet
facet normal 8.1990502357262e-014 1.0 -7.88873223665023e-013
  outer loop
    vertex -283.21750421742 112.618389285568 9.37749907474869
    vertex -287.11750421742 112.618389285568 9.37749907474829
    vertex -286.17689849332 112.618389285568 9.76711072251644
  endloop
endfacet
facet normal 8.1990502357262e-014 1.0 -7.88873223665023e-013
  outer loop
    vertex -283.21750421742 112.618389285568 9.37749907474869
    vertex -286.17689849332 112.618389285568 9.76711072251644
    vertex -284.158109941521 112.618389285568 9.76711072251664
  endloop
endfacet
facet normal 8.1990502357262e-014 1.0 -7.88873223665023e-013
  outer loop
    vertex -284.158109941521 112.618389285568 9.76711072251664
    vertex -286.17689849332 112.618389285568 9.76711072251644
    vertex -285.167504217421 112.618389285569 9.89999999998918
  endloop
endfacet
facet normal -0.13052619222015 7.84251449429906e-013 0.991444861373797
  outer loop
    vertex -286.17689849332 112.618389285568 9.76711072251644
    vertex -285.167504217421 110.618389285569 9.89999999999074
    vertex -285.167504217421 112.618389285569 9.89999999998918
  endloop
endfacet
facet normal -0.13052619222015 7.84251449429906e-013 0.991444861373797
  outer loop
    vertex -285.167504217421 110.618389285569 9.89999999999074
    vertex -286.17689849332 112.618389285568 9.76711072251644
    vertex -286.176898493321 110.618389285568 9.767110722518
  endloop
endfacet
facet normal -0.130526192219968 -7.64091314594493e-013 -0.991444861373821
  outer loop
    vertex -285.16750421742 110.618389285562 2.09999999999073
    vertex -286.176898493319 122.618389285563 2.23288927745386
    vertex -285.167504217419 122.618389285562 2.09999999998133
  endloop
endfacet
facet normal -0.130526192219968 -7.64091314594493e-013 -0.991444861373821
  outer loop
    vertex -286.176898493319 122.618389285563 2.23288927745386
    vertex -285.16750421742 110.618389285562 2.09999999999073
    vertex -286.17689849332 110.618389285563 2.23288927746326
  endloop
endfacet
facet normal 0.923879532511343 -3.70166886370911e-013 -0.382683432364953
  outer loop
    vertex -281.400393494893 110.618389285564 4.99060572409129
    vertex -281.79000514266 122.618389285564 4.04999999998168
    vertex -281.400393494892 122.618389285564 4.99060572408189
  endloop
endfacet
facet normal 0.923879532511343 -3.70166886370911e-013 -0.382683432364953
  outer loop
    vertex -281.79000514266 122.618389285564 4.04999999998168
    vertex -281.400393494893 110.618389285564 4.99060572409129
    vertex -281.790005142661 110.618389285564 4.04999999999108
  endloop
endfacet
facet normal -0.608761429008821 6.6650373693205e-013 0.793353340291158
  outer loop
    vertex -287.925220664048 112.618389285568 8.75771644661643
    vertex -287.11750421742 110.618389285568 9.37749907474985
    vertex -287.11750421742 112.618389285568 9.37749907474829
  endloop
endfacet
facet normal -0.608761429008821 6.6650373693205e-013 0.793353340291158
  outer loop
    vertex -287.11750421742 110.618389285568 9.37749907474985
    vertex -287.925220664048 112.618389285568 8.75771644661643
    vertex -287.925220664048 110.618389285568 8.75771644661799
  endloop
endfacet
facet normal 0.130526192220144 -7.84251449429907e-013 -0.991444861373798
  outer loop
    vertex -284.15810994152 110.618389285562 2.23288927746347
    vertex -285.167504217419 122.618389285562 2.09999999998133
    vertex -284.158109941519 122.618389285562 2.23288927745407
  endloop
endfacet
facet normal 0.130526192220144 -7.84251449429907e-013 -0.991444861373798
  outer loop
    vertex -285.167504217419 122.618389285562 2.09999999998133
    vertex -284.15810994152 110.618389285562 2.23288927746347
    vertex -285.16750421742 110.618389285562 2.09999999999073
  endloop
endfacet
facet normal -0.608761429008654 -5.72478834476285e-013 -0.793353340291286
  outer loop
    vertex -287.11750421742 110.618389285563 2.62250092523123
    vertex -287.925220664047 122.618389285563 3.24228355335352
    vertex -287.117504217419 122.618389285563 2.62250092522183
  endloop
endfacet
facet normal -0.608761429008654 -5.72478834476285e-013 -0.793353340291286
  outer loop
    vertex -287.925220664047 122.618389285563 3.24228355335352
    vertex -287.11750421742 110.618389285563 2.62250092523123
    vertex -287.925220664048 110.618389285563 3.24228355336292
  endloop
endfacet
facet normal 0.991444861373831 2.53558824578073e-014 0.130526192219894
  outer loop
    vertex -281.400393494893 110.618389285566 7.00939427589095
    vertex -281.26750421742 122.618389285565 5.99999999998173
    vertex -281.400393494892 122.618389285566 7.00939427588155
  endloop
endfacet
facet normal 0.991444861373831 2.53558824578073e-014 0.130526192219894
  outer loop
    vertex -281.26750421742 122.618389285565 5.99999999998173
    vertex -281.400393494893 110.618389285566 7.00939427589095
    vertex -281.26750421742 110.618389285565 5.99999999999113
  endloop
endfacet
facet normal -0.793353340291204 -4.14084563058931e-013 -0.608761429008762
  outer loop
    vertex -287.925220664047 122.618389285563 3.24228355335352
    vertex -288.545003292179 110.618389285564 4.04999999999039
    vertex -288.545003292179 122.618389285564 4.04999999998099
  endloop
endfacet
facet normal -0.793353340291204 -4.14084563058931e-013 -0.608761429008762
  outer loop
    vertex -288.545003292179 110.618389285564 4.04999999999039
    vertex -287.925220664047 122.618389285563 3.24228355335352
    vertex -287.925220664048 110.618389285563 3.24228355336292
  endloop
endfacet
facet normal 0.99144486137382 -1.78487309547193e-013 -0.130526192219978
  outer loop
    vertex -281.26750421742 110.618389285565 5.99999999999113
    vertex -281.400393494892 122.618389285564 4.99060572408189
    vertex -281.26750421742 122.618389285565 5.99999999998173
  endloop
endfacet
facet normal 0.99144486137382 -1.78487309547193e-013 -0.130526192219978
  outer loop
    vertex -281.400393494892 122.618389285564 4.99060572408189
    vertex -281.26750421742 110.618389285565 5.99999999999113
    vertex -281.400393494893 110.618389285564 4.99060572409129
  endloop
endfacet
facet normal -0.991444861373797 1.78487309547327e-013 0.130526192220151
  outer loop
    vertex -289.06750421742 122.618389285566 5.99999999998094
    vertex -288.934614939947 110.618389285567 7.00939427589019
    vertex -288.934614939947 122.618389285567 7.00939427588079
  endloop
endfacet
facet normal -0.991444861373797 1.78487309547327e-013 0.130526192220151
  outer loop
    vertex -288.934614939947 110.618389285567 7.00939427589019
    vertex -289.06750421742 122.618389285566 5.99999999998094
    vertex -289.06750421742 110.618389285566 5.99999999999034
  endloop
endfacet
facet normal -0.382683432365264 7.50966144023448e-013 0.923879532511215
  outer loop
    vertex -287.11750421742 112.618389285568 9.37749907474829
    vertex -286.176898493321 110.618389285568 9.767110722518
    vertex -286.17689849332 112.618389285568 9.76711072251644
  endloop
endfacet
facet normal -0.382683432365264 7.50966144023448e-013 0.923879532511215
  outer loop
    vertex -286.176898493321 110.618389285568 9.767110722518
    vertex -287.11750421742 112.618389285568 9.37749907474829
    vertex -287.11750421742 110.618389285568 9.37749907474985
  endloop
endfacet
facet normal 0.608761429008637 5.72478834476297e-013 0.7933533402913
  outer loop
    vertex -283.21750421742 112.618389285568 9.37749907474869
    vertex -282.409787770793 110.618389285567 8.75771644661855
    vertex -282.409787770793 112.618389285567 8.75771644661699
  endloop
endfacet
facet normal 0.608761429008637 5.72478834476297e-013 0.7933533402913
  outer loop
    vertex -282.409787770793 110.618389285567 8.75771644661855
    vertex -283.21750421742 112.618389285568 9.37749907474869
    vertex -283.21750421742 110.618389285568 9.37749907475025
  endloop
endfacet
facet normal 0.6087614290088 -6.6650373693206e-013 -0.793353340291174
  outer loop
    vertex -282.409787770793 110.618389285563 3.24228355336348
    vertex -283.217504217419 122.618389285563 2.62250092522222
    vertex -282.409787770792 122.618389285563 3.24228355335408
  endloop
endfacet
facet normal 0.6087614290088 -6.6650373693206e-013 -0.793353340291174
  outer loop
    vertex -283.217504217419 122.618389285563 2.62250092522222
    vertex -282.409787770793 110.618389285563 3.24228355336348
    vertex -283.21750421742 110.618389285563 2.62250092523162
  endloop
endfacet
facet normal 0.130526192219961 7.64091314594494e-013 0.991444861373822
  outer loop
    vertex -285.167504217421 112.618389285569 9.89999999998918
    vertex -284.158109941521 110.618389285568 9.7671107225182
    vertex -284.158109941521 112.618389285568 9.76711072251664
  endloop
endfacet
facet normal 0.130526192219961 7.64091314594494e-013 0.991444861373822
  outer loop
    vertex -284.158109941521 110.618389285568 9.7671107225182
    vertex -285.167504217421 112.618389285569 9.89999999998918
    vertex -285.167504217421 110.618389285569 9.89999999999074
  endloop
endfacet
facet normal 0.382683432365185 -7.50966144023467e-013 -0.923879532511247
  outer loop
    vertex -283.21750421742 110.618389285563 2.62250092523162
    vertex -284.158109941519 122.618389285562 2.23288927745407
    vertex -283.217504217419 122.618389285563 2.62250092522222
  endloop
endfacet
facet normal 0.382683432365185 -7.50966144023467e-013 -0.923879532511247
  outer loop
    vertex -284.158109941519 122.618389285562 2.23288927745407
    vertex -283.21750421742 110.618389285563 2.62250092523162
    vertex -284.15810994152 110.618389285562 2.23288927746347
  endloop
endfacet
facet normal 0.382683432364893 6.91859619390113e-013 0.923879532511368
  outer loop
    vertex -284.158109941521 112.618389285568 9.76711072251664
    vertex -283.21750421742 110.618389285568 9.37749907475025
    vertex -283.21750421742 112.618389285568 9.37749907474869
  endloop
endfacet
facet normal 0.382683432364893 6.91859619390113e-013 0.923879532511368
  outer loop
    vertex -283.21750421742 110.618389285568 9.37749907475025
    vertex -284.158109941521 112.618389285568 9.76711072251664
    vertex -284.158109941521 110.618389285568 9.7671107225182
  endloop
endfacet
facet normal 0.923879532511144 2.27471112976464e-013 0.382683432365435
  outer loop
    vertex -281.790005142661 112.618389285567 7.94999999998952
    vertex -281.400393494892 122.618389285566 7.00939427588155
    vertex -281.790005142661 122.618389285567 7.94999999998168
  endloop
endfacet
facet normal 0.923879532511144 2.27471112976464e-013 0.382683432365435
  outer loop
    vertex -281.400393494892 122.618389285566 7.00939427588155
    vertex -281.790005142661 112.618389285567 7.94999999998952
    vertex -281.400393494893 110.618389285566 7.00939427589095
  endloop
endfacet
facet normal 0.923879532511144 2.27471112976464e-013 0.382683432365435
  outer loop
    vertex -281.400393494893 110.618389285566 7.00939427589095
    vertex -281.790005142661 112.618389285567 7.94999999998952
    vertex -281.790005142661 110.618389285567 7.94999999999108
  endloop
endfacet
facet normal -0.382683432364947 -6.91859619390092e-013 -0.923879532511346
  outer loop
    vertex -286.17689849332 110.618389285563 2.23288927746326
    vertex -287.117504217419 122.618389285563 2.62250092522183
    vertex -286.176898493319 122.618389285563 2.23288927745386
  endloop
endfacet
facet normal -0.382683432364947 -6.91859619390092e-013 -0.923879532511346
  outer loop
    vertex -287.117504217419 122.618389285563 2.62250092522183
    vertex -286.17689849332 110.618389285563 2.23288927746326
    vertex -287.11750421742 110.618389285563 2.62250092523123
  endloop
endfacet
facet normal 0.79335334029131 4.14084563058814e-013 0.608761429008623
  outer loop
    vertex -282.409787770793 110.618389285567 8.75771644661855
    vertex -281.790005142661 112.618389285567 7.94999999998952
    vertex -282.409787770793 112.618389285567 8.75771644661699
  endloop
endfacet
facet normal 0.79335334029131 4.14084563058814e-013 0.608761429008623
  outer loop
    vertex -281.790005142661 112.618389285567 7.94999999998952
    vertex -282.409787770793 110.618389285567 8.75771644661855
    vertex -281.790005142661 110.618389285567 7.94999999999108
  endloop
endfacet
facet normal -0.991444861373808 -2.53558824579454e-014 -0.130526192220068
  outer loop
    vertex -288.934614939947 122.618389285565 4.99060572408112
    vertex -289.06750421742 110.618389285566 5.99999999999034
    vertex -289.06750421742 122.618389285566 5.99999999998094
  endloop
endfacet
facet normal -0.991444861373808 -2.53558824579454e-014 -0.130526192220068
  outer loop
    vertex -289.06750421742 110.618389285566 5.99999999999034
    vertex -288.934614939947 122.618389285565 4.99060572408112
    vertex -288.934614939948 110.618389285565 4.99060572409052
  endloop
endfacet
facet normal 0.793353340291293 -5.36620201618241e-013 -0.608761429008645
  outer loop
    vertex -281.790005142661 110.618389285564 4.04999999999108
    vertex -282.409787770792 122.618389285563 3.24228355335408
    vertex -281.79000514266 122.618389285564 4.04999999998168
  endloop
endfacet
facet normal 0.793353340291293 -5.36620201618241e-013 -0.608761429008645
  outer loop
    vertex -282.409787770792 122.618389285563 3.24228355335408
    vertex -281.790005142661 110.618389285564 4.04999999999108
    vertex -282.409787770793 110.618389285563 3.24228355336348
  endloop
endfacet
facet normal -0.923879532511422 3.70166886370769e-013 0.382683432364764
  outer loop
    vertex -288.934614939947 122.618389285567 7.00939427588079
    vertex -288.54500329218 112.618389285567 7.94999999998883
    vertex -288.545003292179 122.618389285567 7.94999999998099
  endloop
endfacet
facet normal -0.923879532511422 3.70166886370769e-013 0.382683432364764
  outer loop
    vertex -288.54500329218 112.618389285567 7.94999999998883
    vertex -288.934614939947 122.618389285567 7.00939427588079
    vertex -288.934614939947 110.618389285567 7.00939427589019
  endloop
endfacet
facet normal -0.923879532511422 3.70166886370769e-013 0.382683432364764
  outer loop
    vertex -288.54500329218 112.618389285567 7.94999999998883
    vertex -288.934614939947 110.618389285567 7.00939427589019
    vertex -288.54500329218 110.618389285567 7.94999999999039
  endloop
endfacet
facet normal -0.923879532511223 -2.27471112976309e-013 -0.382683432365245
  outer loop
    vertex -288.545003292179 122.618389285564 4.04999999998099
    vertex -288.934614939948 110.618389285565 4.99060572409052
    vertex -288.934614939947 122.618389285565 4.99060572408112
  endloop
endfacet
facet normal -0.923879532511223 -2.27471112976309e-013 -0.382683432365245
  outer loop
    vertex -288.934614939948 110.618389285565 4.99060572409052
    vertex -288.545003292179 122.618389285564 4.04999999998099
    vertex -288.545003292179 110.618389285564 4.04999999999039
  endloop
endfacet
facet normal -0.793353340291163 5.36620201618362e-013 0.608761429008814
  outer loop
    vertex -288.54500329218 112.618389285567 7.94999999998883
    vertex -287.925220664048 110.618389285568 8.75771644661799
    vertex -287.925220664048 112.618389285568 8.75771644661643
  endloop
endfacet
facet normal -0.793353340291163 5.36620201618362e-013 0.608761429008814
  outer loop
    vertex -287.925220664048 110.618389285568 8.75771644661799
    vertex -288.54500329218 112.618389285567 7.94999999998883
    vertex -288.54500329218 110.618389285567 7.94999999999039
  endloop
endfacet
facet normal -1.01443677716995e-013 7.83897914567476e-013 1.0
  outer loop
    vertex -288.545003292179 122.618389285567 7.94999999998099
    vertex -281.790005142661 112.618389285567 7.94999999998952
    vertex -281.790005142661 122.618389285567 7.94999999998168
  endloop
endfacet
facet normal -1.01443677716995e-013 7.83897914567476e-013 1.0
  outer loop
    vertex -281.790005142661 112.618389285567 7.94999999998952
    vertex -288.545003292179 122.618389285567 7.94999999998099
    vertex -288.54500329218 112.618389285567 7.94999999998883
  endloop
endfacet
facet normal 7.76593541790115e-014 1.0 -7.83897914567468e-013
  outer loop
    vertex -286.176898493319 122.618389285563 2.23288927745386
    vertex -284.158109941519 122.618389285562 2.23288927745407
    vertex -285.167504217419 122.618389285562 2.09999999998133
  endloop
endfacet
facet normal 7.76593541790115e-014 1.0 -7.83897914567468e-013
  outer loop
    vertex -284.158109941519 122.618389285562 2.23288927745407
    vertex -286.176898493319 122.618389285563 2.23288927745386
    vertex -287.117504217419 122.618389285563 2.62250092522183
  endloop
endfacet
facet normal 7.76593541790115e-014 1.0 -7.83897914567468e-013
  outer loop
    vertex -284.158109941519 122.618389285562 2.23288927745407
    vertex -287.117504217419 122.618389285563 2.62250092522183
    vertex -283.217504217419 122.618389285563 2.62250092522222
  endloop
endfacet
facet normal 7.76593541790115e-014 1.0 -7.83897914567468e-013
  outer loop
    vertex -283.217504217419 122.618389285563 2.62250092522222
    vertex -287.117504217419 122.618389285563 2.62250092522183
    vertex -287.925220664047 122.618389285563 3.24228355335352
  endloop
endfacet
facet normal 7.76593541790115e-014 1.0 -7.83897914567468e-013
  outer loop
    vertex -283.217504217419 122.618389285563 2.62250092522222
    vertex -287.925220664047 122.618389285563 3.24228355335352
    vertex -282.409787770792 122.618389285563 3.24228355335408
  endloop
endfacet
facet normal 7.76593541790115e-014 1.0 -7.83897914567468e-013
  outer loop
    vertex -282.409787770792 122.618389285563 3.24228355335408
    vertex -287.925220664047 122.618389285563 3.24228355335352
    vertex -288.545003292179 122.618389285564 4.04999999998099
  endloop
endfacet
facet normal 7.76593541790115e-014 1.0 -7.83897914567468e-013
  outer loop
    vertex -282.409787770792 122.618389285563 3.24228355335408
    vertex -288.545003292179 122.618389285564 4.04999999998099
    vertex -281.79000514266 122.618389285564 4.04999999998168
  endloop
endfacet
facet normal 7.76593541790115e-014 1.0 -7.83897914567468e-013
  outer loop
    vertex -281.79000514266 122.618389285564 4.04999999998168
    vertex -288.545003292179 122.618389285564 4.04999999998099
    vertex -288.934614939947 122.618389285565 4.99060572408112
  endloop
endfacet
facet normal 7.76593541790115e-014 1.0 -7.83897914567468e-013
  outer loop
    vertex -281.79000514266 122.618389285564 4.04999999998168
    vertex -288.934614939947 122.618389285565 4.99060572408112
    vertex -281.400393494892 122.618389285564 4.99060572408189
  endloop
endfacet
facet normal 7.76593541790115e-014 1.0 -7.83897914567468e-013
  outer loop
    vertex -281.400393494892 122.618389285564 4.99060572408189
    vertex -288.934614939947 122.618389285565 4.99060572408112
    vertex -289.06750421742 122.618389285566 5.99999999998094
  endloop
endfacet
facet normal 7.76593541790115e-014 1.0 -7.83897914567468e-013
  outer loop
    vertex -281.400393494892 122.618389285564 4.99060572408189
    vertex -289.06750421742 122.618389285566 5.99999999998094
    vertex -281.26750421742 122.618389285565 5.99999999998173
  endloop
endfacet
facet normal 7.76593541790115e-014 1.0 -7.83897914567468e-013
  outer loop
    vertex -281.26750421742 122.618389285565 5.99999999998173
    vertex -289.06750421742 122.618389285566 5.99999999998094
    vertex -288.934614939947 122.618389285567 7.00939427588079
  endloop
endfacet
facet normal 7.76593541790115e-014 1.0 -7.83897914567468e-013
  outer loop
    vertex -281.26750421742 122.618389285565 5.99999999998173
    vertex -288.934614939947 122.618389285567 7.00939427588079
    vertex -281.400393494892 122.618389285566 7.00939427588155
  endloop
endfacet
facet normal 7.76593541790115e-014 1.0 -7.83897914567468e-013
  outer loop
    vertex -281.400393494892 122.618389285566 7.00939427588155
    vertex -288.934614939947 122.618389285567 7.00939427588079
    vertex -288.545003292179 122.618389285567 7.94999999998099
  endloop
endfacet
facet normal 7.76593541790115e-014 1.0 -7.83897914567468e-013
  outer loop
    vertex -281.400393494892 122.618389285566 7.00939427588155
    vertex -288.545003292179 122.618389285567 7.94999999998099
    vertex -281.790005142661 122.618389285567 7.94999999998168
  endloop
endfacet
endsolid AltAzTrackerSketchup Nema 17
