solid AltAzTrackerSketchup Nema 17
facet normal -0.444144960515205 -0.116945586685335 0.888289921030161
  outer loop
    vertex -315.156803849295 188.93026022975 15.6854014632024
    vertex -317.156803849295 188.205566903463 14.5899937768116
    vertex -315.156803849295 187.94674785836 15.5559196031008
  endloop
endfacet
facet normal -0.444144960515205 -0.116945586685335 0.888289921030161
  outer loop
    vertex -317.156803849295 188.205566903463 14.5899937768116
    vertex -315.156803849295 188.93026022975 15.6854014632024
    vertex -317.156803849295 188.93026022975 14.6854014632021
  endloop
endfacet
facet normal -0.444144960515212 0.116945586685307 0.888289921030162
  outer loop
    vertex -315.156803849295 189.91377260114 15.5559196031009
    vertex -317.156803849295 188.93026022975 14.6854014632021
    vertex -315.156803849295 188.93026022975 15.6854014632024
  endloop
endfacet
facet normal -0.444144960515212 0.116945586685307 0.888289921030162
  outer loop
    vertex -317.156803849295 188.93026022975 14.6854014632021
    vertex -315.156803849295 189.91377260114 15.5559196031009
    vertex -317.156803849295 189.654953556037 14.5899937768116
  endloop
endfacet
facet normal -0.444144960515004 0.342867111585124 -0.82775443088056
  outer loop
    vertex -317.156803849294 190.33026022975 9.46053033260571
    vertex -315.156803849295 189.91377260114 8.21488332330397
    vertex -317.156803849295 189.654953556037 9.18080914959274
  endloop
endfacet
facet normal -0.444144960515004 0.342867111585124 -0.82775443088056
  outer loop
    vertex -315.156803849295 189.91377260114 8.21488332330397
    vertex -317.156803849294 190.33026022975 9.46053033260571
    vertex -315.156803849295 190.83026022975 8.59450492882153
  endloop
endfacet
facet normal -0.444144960515006 -0.34286711158514 -0.827754430880552
  outer loop
    vertex -317.156803849294 187.53026022975 9.46053033260576
    vertex -315.156803849295 187.94674785836 8.21488332330397
    vertex -315.156803849295 187.03026022975 8.59450492882153
  endloop
endfacet
facet normal -0.444144960515006 -0.34286711158514 -0.827754430880552
  outer loop
    vertex -315.156803849295 187.94674785836 8.21488332330397
    vertex -317.156803849294 187.53026022975 9.46053033260576
    vertex -317.156803849295 188.205566903463 9.18080914959274
  endloop
endfacet
facet normal -0.444144960515193 0.545422809445083 0.710808844195112
  outer loop
    vertex -315.156803849295 190.83026022975 15.1762979975832
    vertex -317.156803849295 190.910159217072 13.8653004505244
    vertex -317.156803849295 190.33026022975 14.3102725937986
  endloop
endfacet
facet normal -0.444144960515193 0.545422809445083 0.710808844195112
  outer loop
    vertex -317.156803849295 190.910159217072 13.8653004505244
    vertex -315.156803849295 190.83026022975 15.1762979975832
    vertex -315.156803849295 191.617265998259 14.5724072317113
  endloop
endfacet
facet normal -0.444144960515203 0.342867111585146 0.827754430880444
  outer loop
    vertex -315.156803849295 189.91377260114 15.5559196031009
    vertex -317.156803849295 190.33026022975 14.3102725937986
    vertex -317.156803849295 189.654953556037 14.5899937768116
  endloop
endfacet
facet normal -0.444144960515203 0.342867111585146 0.827754430880444
  outer loop
    vertex -317.156803849295 190.33026022975 14.3102725937986
    vertex -315.156803849295 189.91377260114 15.5559196031009
    vertex -315.156803849295 190.83026022975 15.1762979975832
  endloop
endfacet
facet normal -0.444144960514994 -0.116945586685334 -0.888289921030267
  outer loop
    vertex -317.156803849295 188.205566903463 9.18080914959274
    vertex -315.156803849295 188.93026022975 8.0854014632024
    vertex -315.156803849295 187.94674785836 8.21488332330397
  endloop
endfacet
facet normal -0.444144960514994 -0.116945586685334 -0.888289921030267
  outer loop
    vertex -315.156803849295 188.93026022975 8.0854014632024
    vertex -317.156803849295 188.205566903463 9.18080914959274
    vertex -317.156803849294 188.93026022975 9.08540146320215
  endloop
endfacet
facet normal -0.444144960514996 0.116945586685335 -0.888289921030266
  outer loop
    vertex -317.156803849295 189.654953556037 9.18080914959274
    vertex -315.156803849295 188.93026022975 8.0854014632024
    vertex -317.156803849294 188.93026022975 9.08540146320215
  endloop
endfacet
facet normal -0.444144960514996 0.116945586685335 -0.888289921030266
  outer loop
    vertex -315.156803849295 188.93026022975 8.0854014632024
    vertex -317.156803849295 189.654953556037 9.18080914959274
    vertex -315.156803849295 189.91377260114 8.21488332330397
  endloop
endfacet
facet normal -0.444144960515032 -0.545422809445068 -0.710808844195224
  outer loop
    vertex -317.156803849294 186.950361242428 9.90550247587981
    vertex -315.156803849295 187.03026022975 8.59450492882153
    vertex -315.156803849295 186.243254461241 9.19839569469351
  endloop
endfacet
facet normal -0.444144960515032 -0.545422809445068 -0.710808844195224
  outer loop
    vertex -315.156803849295 187.03026022975 8.59450492882153
    vertex -317.156803849294 186.950361242428 9.90550247587981
    vertex -317.156803849294 187.53026022975 9.46053033260576
  endloop
endfacet
facet normal -0.444144960515146 0.827754430880506 0.342867111585071
  outer loop
    vertex -317.156803849295 191.634852543359 12.6100947894891
    vertex -315.156803849295 192.221156764131 13.7854014632024
    vertex -315.156803849295 192.600778369648 12.868913834592
  endloop
endfacet
facet normal -0.444144960515146 0.827754430880506 0.342867111585071
  outer loop
    vertex -315.156803849295 192.221156764131 13.7854014632024
    vertex -317.156803849295 191.634852543359 12.6100947894891
    vertex -317.156803849295 191.355131360346 13.2854014632021
  endloop
endfacet
facet normal -0.444144960515119 -0.888289921030211 0.116945586685287
  outer loop
    vertex -317.156803849295 186.225667916141 12.6100947894891
    vertex -315.156803849295 185.13026022975 11.8854014632024
    vertex -315.156803849295 185.259742089852 12.868913834592
  endloop
endfacet
facet normal -0.444144960515119 -0.888289921030211 0.116945586685287
  outer loop
    vertex -315.156803849295 185.13026022975 11.8854014632024
    vertex -317.156803849295 186.225667916141 12.6100947894891
    vertex -317.156803849295 186.13026022975 11.8854014632022
  endloop
endfacet
facet normal -0.444144960515175 0.71080884419516 0.545422809445035
  outer loop
    vertex -317.156803849295 191.355131360346 13.2854014632021
    vertex -315.156803849295 191.617265998259 14.5724072317113
    vertex -315.156803849295 192.221156764131 13.7854014632024
  endloop
endfacet
facet normal -0.444144960515175 0.71080884419516 0.545422809445035
  outer loop
    vertex -315.156803849295 191.617265998259 14.5724072317113
    vertex -317.156803849295 191.355131360346 13.2854014632021
    vertex -317.156803849295 190.910159217072 13.8653004505244
  endloop
endfacet
facet normal -0.444144960515024 0.5454228094451 -0.710808844195204
  outer loop
    vertex -317.156803849294 190.910159217072 9.90550247587981
    vertex -315.156803849295 190.83026022975 8.59450492882153
    vertex -317.156803849294 190.33026022975 9.46053033260571
  endloop
endfacet
facet normal -0.444144960515024 0.5454228094451 -0.710808844195204
  outer loop
    vertex -315.156803849295 190.83026022975 8.59450492882153
    vertex -317.156803849294 190.910159217072 9.90550247587981
    vertex -315.156803849295 191.617265998259 9.19839569469351
  endloop
endfacet
facet normal -0.444144960515045 -0.710808844195163 -0.545422809445136
  outer loop
    vertex -317.156803849295 186.505389099154 10.4854014632021
    vertex -315.156803849295 186.243254461241 9.19839569469351
    vertex -315.156803849295 185.639363695369 9.98540146320233
  endloop
endfacet
facet normal -0.444144960515045 -0.710808844195163 -0.545422809445136
  outer loop
    vertex -315.156803849295 186.243254461241 9.19839569469351
    vertex -317.156803849295 186.505389099154 10.4854014632021
    vertex -317.156803849294 186.950361242428 9.90550247587981
  endloop
endfacet
facet normal -0.444144960515037 0.710808844195159 -0.545422809445148
  outer loop
    vertex -315.156803849295 191.617265998259 9.19839569469351
    vertex -317.156803849295 191.355131360346 10.4854014632021
    vertex -315.156803849295 192.221156764131 9.98540146320242
  endloop
endfacet
facet normal -0.444144960515037 0.710808844195159 -0.545422809445148
  outer loop
    vertex -317.156803849295 191.355131360346 10.4854014632021
    vertex -315.156803849295 191.617265998259 9.19839569469351
    vertex -317.156803849294 190.910159217072 9.90550247587981
  endloop
endfacet
facet normal -0.444144960515147 -0.827754430880502 0.34286711158508
  outer loop
    vertex -315.156803849295 185.639363695369 13.7854014632024
    vertex -317.156803849295 186.225667916141 12.6100947894891
    vertex -315.156803849295 185.259742089852 12.868913834592
  endloop
endfacet
facet normal -0.444144960515147 -0.827754430880502 0.34286711158508
  outer loop
    vertex -317.156803849295 186.225667916141 12.6100947894891
    vertex -315.156803849295 185.639363695369 13.7854014632024
    vertex -317.156803849295 186.505389099154 13.2854014632021
  endloop
endfacet
facet normal -0.44414496051519 -0.545422809445097 0.710808844195103
  outer loop
    vertex -315.156803849295 187.03026022975 15.1762979975832
    vertex -317.156803849295 186.950361242428 13.8653004505244
    vertex -315.156803849295 186.243254461241 14.5724072317112
  endloop
endfacet
facet normal -0.44414496051519 -0.545422809445097 0.710808844195103
  outer loop
    vertex -317.156803849295 186.950361242428 13.8653004505244
    vertex -315.156803849295 187.03026022975 15.1762979975832
    vertex -317.156803849295 187.53026022975 14.3102725937986
  endloop
endfacet
facet normal -0.444144960515091 -0.888289921030212 -0.116945586685382
  outer loop
    vertex -315.156803849295 185.13026022975 11.8854014632024
    vertex -317.156803849295 186.225667916141 11.1607081369151
    vertex -315.156803849295 185.259742089852 10.9018890918128
  endloop
endfacet
facet normal -0.444144960515091 -0.888289921030212 -0.116945586685382
  outer loop
    vertex -317.156803849295 186.225667916141 11.1607081369151
    vertex -315.156803849295 185.13026022975 11.8854014632024
    vertex -317.156803849295 186.13026022975 11.8854014632022
  endloop
endfacet
facet normal -0.44414496051517 -0.71080884419517 0.545422809445025
  outer loop
    vertex -317.156803849295 186.950361242428 13.8653004505244
    vertex -315.156803849295 185.639363695369 13.7854014632024
    vertex -315.156803849295 186.243254461241 14.5724072317112
  endloop
endfacet
facet normal -0.44414496051517 -0.71080884419517 0.545422809445025
  outer loop
    vertex -315.156803849295 185.639363695369 13.7854014632024
    vertex -317.156803849295 186.950361242428 13.8653004505244
    vertex -317.156803849295 186.505389099154 13.2854014632021
  endloop
endfacet
facet normal -0.444144960515063 0.827754430880506 -0.342867111585178
  outer loop
    vertex -317.156803849295 191.355131360346 10.4854014632021
    vertex -315.156803849295 192.600778369648 10.9018890918128
    vertex -315.156803849295 192.221156764131 9.98540146320242
  endloop
endfacet
facet normal -0.444144960515063 0.827754430880506 -0.342867111585178
  outer loop
    vertex -315.156803849295 192.600778369648 10.9018890918128
    vertex -317.156803849295 191.355131360346 10.4854014632021
    vertex -317.156803849295 191.634852543359 11.1607081369151
  endloop
endfacet
facet normal -0.444144960515063 -0.827754430880505 -0.342867111585181
  outer loop
    vertex -317.156803849295 186.225667916141 11.1607081369151
    vertex -315.156803849295 185.639363695369 9.98540146320233
    vertex -315.156803849295 185.259742089852 10.9018890918128
  endloop
endfacet
facet normal -0.444144960515063 -0.827754430880505 -0.342867111585181
  outer loop
    vertex -315.156803849295 185.639363695369 9.98540146320233
    vertex -317.156803849295 186.225667916141 11.1607081369151
    vertex -317.156803849295 186.505389099154 10.4854014632021
  endloop
endfacet
facet normal -0.444144960515198 -0.342867111585123 0.827754430880457
  outer loop
    vertex -315.156803849295 187.94674785836 15.5559196031008
    vertex -317.156803849295 187.53026022975 14.3102725937986
    vertex -315.156803849295 187.03026022975 15.1762979975832
  endloop
endfacet
facet normal -0.444144960515198 -0.342867111585123 0.827754430880457
  outer loop
    vertex -317.156803849295 187.53026022975 14.3102725937986
    vertex -315.156803849295 187.94674785836 15.5559196031008
    vertex -317.156803849295 188.205566903463 14.5899937768116
  endloop
endfacet
facet normal 1.0 1.56102602127082e-015 1.18083661046338e-013
  outer loop
    vertex -314.756803849295 193.600778369648 12.868913834592
    vertex -314.756803849295 192.600778369648 10.9018890918128
    vertex -314.756803849295 193.600778369648 10.9018890918128
  endloop
endfacet
facet normal 1.0 1.56102602127082e-015 1.18083661046338e-013
  outer loop
    vertex -314.756803849295 192.600778369648 10.9018890918128
    vertex -314.756803849295 193.600778369648 12.868913834592
    vertex -314.756803849295 185.259742089852 10.9018890918128
  endloop
endfacet
facet normal 1.0 1.56102602127082e-015 1.18083661046338e-013
  outer loop
    vertex -314.756803849295 185.259742089852 10.9018890918128
    vertex -314.756803849295 193.600778369648 12.868913834592
    vertex -314.756803849295 185.13026022975 11.8854014632024
  endloop
endfacet
facet normal 1.0 1.56102602127082e-015 1.18083661046338e-013
  outer loop
    vertex -314.756803849295 185.13026022975 11.8854014632024
    vertex -314.756803849295 193.600778369648 12.868913834592
    vertex -314.756803849295 185.259742089852 12.868913834592
  endloop
endfacet
facet normal 1.0 1.56102602127082e-015 1.18083661046338e-013
  outer loop
    vertex -314.756803849295 185.259742089852 12.868913834592
    vertex -314.756803849295 193.600778369648 12.868913834592
    vertex -314.756803849295 192.600778369648 12.868913834592
  endloop
endfacet
facet normal 1.0 1.56102602127082e-015 1.18083661046338e-013
  outer loop
    vertex -314.756803849295 185.259742089852 12.868913834592
    vertex -314.756803849295 192.600778369648 12.868913834592
    vertex -314.756803849295 192.221156764131 13.7854014632025
  endloop
endfacet
facet normal 1.0 1.56102602127082e-015 1.18083661046338e-013
  outer loop
    vertex -314.756803849295 185.259742089852 12.868913834592
    vertex -314.756803849295 192.221156764131 13.7854014632025
    vertex -314.756803849295 185.639363695369 13.7854014632024
  endloop
endfacet
facet normal 1.0 1.56102602127082e-015 1.18083661046338e-013
  outer loop
    vertex -314.756803849295 185.639363695369 13.7854014632024
    vertex -314.756803849295 192.221156764131 13.7854014632025
    vertex -314.756803849295 186.243254461241 14.5724072317113
  endloop
endfacet
facet normal 1.0 1.56102602127082e-015 1.18083661046338e-013
  outer loop
    vertex -314.756803849295 186.243254461241 14.5724072317113
    vertex -314.756803849295 192.221156764131 13.7854014632025
    vertex -314.756803849295 191.617265998259 14.5724072317113
  endloop
endfacet
facet normal 1.0 1.56102602127082e-015 1.18083661046338e-013
  outer loop
    vertex -314.756803849295 186.243254461241 14.5724072317113
    vertex -314.756803849295 191.617265998259 14.5724072317113
    vertex -314.756803849295 187.03026022975 15.1762979975833
  endloop
endfacet
facet normal 1.0 1.56102602127082e-015 1.18083661046338e-013
  outer loop
    vertex -314.756803849295 187.03026022975 15.1762979975833
    vertex -314.756803849295 191.617265998259 14.5724072317113
    vertex -314.756803849295 190.83026022975 15.1762979975833
  endloop
endfacet
facet normal 1.0 1.56102602127082e-015 1.18083661046338e-013
  outer loop
    vertex -314.756803849295 187.03026022975 15.1762979975833
    vertex -314.756803849295 190.83026022975 15.1762979975833
    vertex -314.756803849295 189.91377260114 15.5559196031009
  endloop
endfacet
facet normal 1.0 1.56102602127082e-015 1.18083661046338e-013
  outer loop
    vertex -314.756803849295 187.03026022975 15.1762979975833
    vertex -314.756803849295 189.91377260114 15.5559196031009
    vertex -314.756803849295 187.94674785836 15.5559196031008
  endloop
endfacet
facet normal 1.0 1.56102602127082e-015 1.18083661046338e-013
  outer loop
    vertex -314.756803849295 187.94674785836 15.5559196031008
    vertex -314.756803849295 189.91377260114 15.5559196031009
    vertex -314.756803849295 188.93026022975 15.6854014632024
  endloop
endfacet
facet normal 1.0 1.56102602127082e-015 1.18083661046338e-013
  outer loop
    vertex -314.756803849295 189.91377260114 8.21488332330397
    vertex -314.756803849295 187.94674785836 8.21488332330397
    vertex -314.756803849295 188.93026022975 8.08540146320242
  endloop
endfacet
facet normal 1.0 1.56102602127082e-015 1.18083661046338e-013
  outer loop
    vertex -314.756803849295 187.94674785836 8.21488332330397
    vertex -314.756803849295 189.91377260114 8.21488332330397
    vertex -314.756803849295 190.83026022975 8.59450492882155
  endloop
endfacet
facet normal 1.0 1.56102602127082e-015 1.18083661046338e-013
  outer loop
    vertex -314.756803849295 187.94674785836 8.21488332330397
    vertex -314.756803849295 190.83026022975 8.59450492882155
    vertex -314.756803849295 187.03026022975 8.59450492882155
  endloop
endfacet
facet normal 1.0 1.56102602127082e-015 1.18083661046338e-013
  outer loop
    vertex -314.756803849295 187.03026022975 8.59450492882155
    vertex -314.756803849295 190.83026022975 8.59450492882155
    vertex -314.756803849295 191.617265998259 9.19839569469358
  endloop
endfacet
facet normal 1.0 1.56102602127082e-015 1.18083661046338e-013
  outer loop
    vertex -314.756803849295 187.03026022975 8.59450492882155
    vertex -314.756803849295 191.617265998259 9.19839569469358
    vertex -314.756803849295 186.243254461241 9.19839569469351
  endloop
endfacet
facet normal 1.0 1.56102602127082e-015 1.18083661046338e-013
  outer loop
    vertex -314.756803849295 186.243254461241 9.19839569469351
    vertex -314.756803849295 191.617265998259 9.19839569469358
    vertex -314.756803849295 185.639363695369 9.9854014632024
  endloop
endfacet
facet normal 1.0 1.56102602127082e-015 1.18083661046338e-013
  outer loop
    vertex -314.756803849295 185.639363695369 9.9854014632024
    vertex -314.756803849295 191.617265998259 9.19839569469358
    vertex -314.756803849295 192.221156764131 9.98540146320242
  endloop
endfacet
facet normal 1.0 1.56102602127082e-015 1.18083661046338e-013
  outer loop
    vertex -314.756803849295 185.639363695369 9.9854014632024
    vertex -314.756803849295 192.221156764131 9.98540146320242
    vertex -314.756803849295 185.259742089852 10.9018890918128
  endloop
endfacet
facet normal 1.0 1.56102602127082e-015 1.18083661046338e-013
  outer loop
    vertex -314.756803849295 185.259742089852 10.9018890918128
    vertex -314.756803849295 192.221156764131 9.98540146320242
    vertex -314.756803849295 192.600778369648 10.9018890918128
  endloop
endfacet
facet normal -1.0 3.72742731981611e-015 -1.34809079889051e-013
  outer loop
    vertex -319.156803849295 188.205566903463 9.18080914959251
    vertex -319.156803849295 189.654953556037 9.18080914959251
    vertex -319.156803849294 188.93026022975 9.08540146320192
  endloop
endfacet
facet normal -1.0 3.72742731981611e-015 -1.34809079889051e-013
  outer loop
    vertex -319.156803849295 189.654953556037 9.18080914959251
    vertex -319.156803849295 188.205566903463 9.18080914959251
    vertex -319.156803849294 187.53026022975 9.46053033260544
  endloop
endfacet
facet normal -1.0 3.72742731981611e-015 -1.34809079889051e-013
  outer loop
    vertex -319.156803849295 189.654953556037 9.18080914959251
    vertex -319.156803849294 187.53026022975 9.46053033260544
    vertex -319.156803849294 190.33026022975 9.46053033260544
  endloop
endfacet
facet normal -1.0 3.72742731981611e-015 -1.34809079889051e-013
  outer loop
    vertex -319.156803849294 190.33026022975 9.46053033260544
    vertex -319.156803849294 187.53026022975 9.46053033260544
    vertex -319.156803849294 186.950361242428 9.90550247587958
  endloop
endfacet
facet normal -1.0 3.72742731981611e-015 -1.34809079889051e-013
  outer loop
    vertex -319.156803849294 190.33026022975 9.46053033260544
    vertex -319.156803849294 186.950361242428 9.90550247587958
    vertex -319.156803849294 190.910159217072 9.90550247587958
  endloop
endfacet
facet normal -1.0 3.72742731981611e-015 -1.34809079889051e-013
  outer loop
    vertex -319.156803849294 190.910159217072 9.90550247587958
    vertex -319.156803849294 186.950361242428 9.90550247587958
    vertex -319.156803849295 186.505389099154 10.4854014632019
  endloop
endfacet
facet normal -1.0 3.72742731981611e-015 -1.34809079889051e-013
  outer loop
    vertex -319.156803849294 190.910159217072 9.90550247587958
    vertex -319.156803849295 186.505389099154 10.4854014632019
    vertex -319.156803849295 189.637367010936 10.1176345102355
  endloop
endfacet
facet normal -1.0 3.72742731981611e-015 -1.34809079889051e-013
  outer loop
    vertex -319.156803849295 189.637367010936 10.1176345102355
    vertex -319.156803849295 186.505389099154 10.4854014632019
    vertex -319.156803849295 186.80893988619 12.9460616349817
  endloop
endfacet
facet normal -1.0 3.72742731981611e-015 -1.34809079889051e-013
  outer loop
    vertex -319.156803849295 186.80893988619 12.9460616349817
    vertex -319.156803849295 186.505389099154 10.4854014632019
    vertex -319.156803849295 186.225667916141 11.1607081369149
  endloop
endfacet
facet normal -1.0 3.72742731981611e-015 -1.34809079889051e-013
  outer loop
    vertex -319.156803849295 186.80893988619 12.9460616349817
    vertex -319.156803849295 186.225667916141 11.1607081369149
    vertex -319.156803849295 186.13026022975 11.8854014632019
  endloop
endfacet
facet normal -1.0 3.72742731981611e-015 -1.34809079889051e-013
  outer loop
    vertex -319.156803849295 186.80893988619 12.9460616349817
    vertex -319.156803849295 186.13026022975 11.8854014632019
    vertex -319.156803849295 186.225667916141 12.6100947894889
  endloop
endfacet
facet normal -1.0 3.72742731981611e-015 -1.34809079889051e-013
  outer loop
    vertex -319.156803849295 186.80893988619 12.9460616349817
    vertex -319.156803849295 186.225667916141 12.6100947894889
    vertex -319.156803849295 186.505389099154 13.2854014632019
  endloop
endfacet
facet normal -1.0 3.72742731981611e-015 -1.34809079889051e-013
  outer loop
    vertex -319.156803849295 186.80893988619 12.9460616349817
    vertex -319.156803849295 186.505389099154 13.2854014632019
    vertex -319.156803849295 187.516046667377 13.6531684161683
  endloop
endfacet
facet normal -1.0 3.72742731981611e-015 -1.34809079889051e-013
  outer loop
    vertex -319.156803849295 187.516046667377 13.6531684161683
    vertex -319.156803849295 186.505389099154 13.2854014632019
    vertex -319.156803849295 186.950361242428 13.8653004505242
  endloop
endfacet
facet normal -1.0 3.72742731981611e-015 -1.34809079889051e-013
  outer loop
    vertex -319.156803849295 187.516046667377 13.6531684161683
    vertex -319.156803849295 190.344473792123 12.2389548537951
    vertex -319.156803849295 189.637367010936 11.5318480726086
  endloop
endfacet
facet normal -1.0 3.72742731981611e-015 -1.34809079889051e-013
  outer loop
    vertex -319.156803849295 190.344473792123 12.2389548537951
    vertex -319.156803849295 187.516046667377 13.6531684161683
    vertex -319.156803849295 191.634852543359 12.6100947894889
  endloop
endfacet
facet normal -1.0 3.72742731981611e-015 -1.34809079889051e-013
  outer loop
    vertex -319.156803849295 191.634852543359 12.6100947894889
    vertex -319.156803849295 187.516046667377 13.6531684161683
    vertex -319.156803849295 191.355131360346 13.2854014632019
  endloop
endfacet
facet normal -1.0 3.72742731981611e-015 -1.34809079889051e-013
  outer loop
    vertex -319.156803849295 191.355131360346 13.2854014632019
    vertex -319.156803849295 187.516046667377 13.6531684161683
    vertex -319.156803849295 190.910159217072 13.8653004505242
  endloop
endfacet
facet normal -1.0 3.72742731981611e-015 -1.34809079889051e-013
  outer loop
    vertex -319.156803849295 190.910159217072 13.8653004505242
    vertex -319.156803849295 187.516046667377 13.6531684161683
    vertex -319.156803849295 186.950361242428 13.8653004505242
  endloop
endfacet
facet normal -1.0 3.72742731981611e-015 -1.34809079889051e-013
  outer loop
    vertex -319.156803849295 190.910159217072 13.8653004505242
    vertex -319.156803849295 186.950361242428 13.8653004505242
    vertex -319.156803849295 187.53026022975 14.3102725937983
  endloop
endfacet
facet normal -1.0 3.72742731981611e-015 -1.34809079889051e-013
  outer loop
    vertex -319.156803849295 190.910159217072 13.8653004505242
    vertex -319.156803849295 187.53026022975 14.3102725937983
    vertex -319.156803849295 190.33026022975 14.3102725937983
  endloop
endfacet
facet normal -1.0 3.72742731981611e-015 -1.34809079889051e-013
  outer loop
    vertex -319.156803849295 190.33026022975 14.3102725937983
    vertex -319.156803849295 187.53026022975 14.3102725937983
    vertex -319.156803849295 188.205566903463 14.5899937768113
  endloop
endfacet
facet normal -1.0 3.72742731981611e-015 -1.34809079889051e-013
  outer loop
    vertex -319.156803849295 190.33026022975 14.3102725937983
    vertex -319.156803849295 188.205566903463 14.5899937768113
    vertex -319.156803849295 189.654953556037 14.5899937768113
  endloop
endfacet
facet normal -1.0 3.72742731981611e-015 -1.34809079889051e-013
  outer loop
    vertex -319.156803849295 189.654953556037 14.5899937768113
    vertex -319.156803849295 188.205566903463 14.5899937768113
    vertex -319.156803849295 188.93026022975 14.6854014632019
  endloop
endfacet
facet normal -1.0 3.72742731981611e-015 -1.34809079889051e-013
  outer loop
    vertex -319.156803849295 189.637367010936 10.1176345102355
    vertex -319.156803849295 191.355131360346 10.4854014632019
    vertex -319.156803849294 190.910159217072 9.90550247587958
  endloop
endfacet
facet normal -1.0 3.72742731981611e-015 -1.34809079889051e-013
  outer loop
    vertex -319.156803849295 191.355131360346 10.4854014632019
    vertex -319.156803849295 189.637367010936 10.1176345102355
    vertex -319.156803849295 191.05158057331 11.5318480726086
  endloop
endfacet
facet normal -1.0 3.72742731981611e-015 -1.34809079889051e-013
  outer loop
    vertex -319.156803849295 191.355131360346 10.4854014632019
    vertex -319.156803849295 191.05158057331 11.5318480726086
    vertex -319.156803849295 191.634852543359 11.1607081369149
  endloop
endfacet
facet normal -1.0 3.72742731981611e-015 -1.34809079889051e-013
  outer loop
    vertex -319.156803849295 191.634852543359 11.1607081369149
    vertex -319.156803849295 191.05158057331 11.5318480726086
    vertex -319.156803849295 192.634852543359 11.1607081369149
  endloop
endfacet
facet normal -1.0 3.72742731981611e-015 -1.34809079889051e-013
  outer loop
    vertex -319.156803849295 192.634852543359 11.1607081369149
    vertex -319.156803849295 191.05158057331 11.5318480726086
    vertex -319.156803849295 192.634852543359 12.6100947894889
  endloop
endfacet
facet normal -1.0 3.72742731981611e-015 -1.34809079889051e-013
  outer loop
    vertex -319.156803849295 192.634852543359 12.6100947894889
    vertex -319.156803849295 191.05158057331 11.5318480726086
    vertex -319.156803849295 190.344473792123 12.2389548537951
  endloop
endfacet
facet normal -1.0 3.72742731981611e-015 -1.34809079889051e-013
  outer loop
    vertex -319.156803849295 192.634852543359 12.6100947894889
    vertex -319.156803849295 190.344473792123 12.2389548537951
    vertex -319.156803849295 191.634852543359 12.6100947894889
  endloop
endfacet
facet normal 1.1747199068048e-013 -0.130526192220026 -0.991444861373814
  outer loop
    vertex -319.156803849294 188.93026022975 9.08540146320192
    vertex -317.156803849295 188.205566903463 9.18080914959274
    vertex -319.156803849295 188.205566903463 9.18080914959251
  endloop
endfacet
facet normal 1.1747199068048e-013 -0.130526192220026 -0.991444861373814
  outer loop
    vertex -317.156803849295 188.205566903463 9.18080914959274
    vertex -319.156803849294 188.93026022975 9.08540146320192
    vertex -317.156803849294 188.93026022975 9.08540146320215
  endloop
endfacet
facet normal 1.19906206968283e-013 -0.382683432365127 -0.923879532511271
  outer loop
    vertex -319.156803849295 188.205566903463 9.18080914959251
    vertex -317.156803849294 187.53026022975 9.46053033260576
    vertex -319.156803849294 187.53026022975 9.46053033260544
  endloop
endfacet
facet normal 1.19906206968283e-013 -0.382683432365127 -0.923879532511271
  outer loop
    vertex -317.156803849294 187.53026022975 9.46053033260576
    vertex -319.156803849295 188.205566903463 9.18080914959251
    vertex -317.156803849295 188.205566903463 9.18080914959274
  endloop
endfacet
facet normal 1.02792787540705e-013 -0.608761429008737 -0.793353340291223
  outer loop
    vertex -319.156803849294 187.53026022975 9.46053033260544
    vertex -317.156803849294 186.950361242428 9.90550247587981
    vertex -319.156803849294 186.950361242428 9.90550247587958
  endloop
endfacet
facet normal 1.02792787540705e-013 -0.608761429008737 -0.793353340291223
  outer loop
    vertex -317.156803849294 186.950361242428 9.90550247587981
    vertex -319.156803849294 187.53026022975 9.46053033260544
    vertex -317.156803849294 187.53026022975 9.46053033260576
  endloop
endfacet
facet normal 7.21835372229519e-014 -0.793353340291208 -0.608761429008756
  outer loop
    vertex -317.156803849295 186.505389099154 10.4854014632021
    vertex -319.156803849294 186.950361242428 9.90550247587958
    vertex -317.156803849294 186.950361242428 9.90550247587981
  endloop
endfacet
facet normal 7.21835372229519e-014 -0.793353340291208 -0.608761429008756
  outer loop
    vertex -319.156803849294 186.950361242428 9.90550247587958
    vertex -317.156803849295 186.505389099154 10.4854014632021
    vertex -319.156803849295 186.505389099154 10.4854014632019
  endloop
endfacet
facet normal 4.5316209033144e-014 -0.923879532511283 -0.382683432365101
  outer loop
    vertex -319.156803849295 186.225667916141 11.1607081369149
    vertex -317.156803849295 186.505389099154 10.4854014632021
    vertex -317.156803849295 186.225667916141 11.1607081369151
  endloop
endfacet
facet normal 4.5316209033144e-014 -0.923879532511283 -0.382683432365101
  outer loop
    vertex -317.156803849295 186.505389099154 10.4854014632021
    vertex -319.156803849295 186.225667916141 11.1607081369149
    vertex -319.156803849295 186.505389099154 10.4854014632019
  endloop
endfacet
facet normal 1.69399470799804e-014 -0.991444861373814 -0.130526192220022
  outer loop
    vertex -317.156803849295 186.13026022975 11.8854014632022
    vertex -319.156803849295 186.225667916141 11.1607081369149
    vertex -317.156803849295 186.225667916141 11.1607081369151
  endloop
endfacet
facet normal 1.69399470799804e-014 -0.991444861373814 -0.130526192220022
  outer loop
    vertex -319.156803849295 186.225667916141 11.1607081369149
    vertex -317.156803849295 186.13026022975 11.8854014632022
    vertex -319.156803849295 186.13026022975 11.8854014632019
  endloop
endfacet
facet normal -1.69260692921726e-014 -0.991444861373813 0.13052619222003
  outer loop
    vertex -319.156803849295 186.225667916141 12.6100947894889
    vertex -317.156803849295 186.13026022975 11.8854014632022
    vertex -317.156803849295 186.225667916141 12.6100947894891
  endloop
endfacet
facet normal -1.69260692921726e-014 -0.991444861373813 0.13052619222003
  outer loop
    vertex -317.156803849295 186.13026022975 11.8854014632022
    vertex -319.156803849295 186.225667916141 12.6100947894889
    vertex -319.156803849295 186.13026022975 11.8854014632019
  endloop
endfacet
facet normal -4.5316209033144e-014 -0.923879532511283 0.382683432365101
  outer loop
    vertex -319.156803849295 186.505389099154 13.2854014632019
    vertex -317.156803849295 186.225667916141 12.6100947894891
    vertex -317.156803849295 186.505389099154 13.2854014632021
  endloop
endfacet
facet normal -4.5316209033144e-014 -0.923879532511283 0.382683432365101
  outer loop
    vertex -317.156803849295 186.225667916141 12.6100947894891
    vertex -319.156803849295 186.505389099154 13.2854014632019
    vertex -319.156803849295 186.225667916141 12.6100947894889
  endloop
endfacet
facet normal -7.21835372229519e-014 -0.793353340291208 0.608761429008756
  outer loop
    vertex -317.156803849295 186.950361242428 13.8653004505244
    vertex -319.156803849295 186.505389099154 13.2854014632019
    vertex -317.156803849295 186.505389099154 13.2854014632021
  endloop
endfacet
facet normal -7.21835372229519e-014 -0.793353340291208 0.608761429008756
  outer loop
    vertex -319.156803849295 186.505389099154 13.2854014632019
    vertex -317.156803849295 186.950361242428 13.8653004505244
    vertex -319.156803849295 186.950361242428 13.8653004505242
  endloop
endfacet
facet normal -9.39110033437038e-014 -0.608761429008756 0.793353340291208
  outer loop
    vertex -317.156803849295 187.53026022975 14.3102725937986
    vertex -319.156803849295 186.950361242428 13.8653004505242
    vertex -317.156803849295 186.950361242428 13.8653004505244
  endloop
endfacet
facet normal -9.39110033437038e-014 -0.608761429008756 0.793353340291208
  outer loop
    vertex -319.156803849295 186.950361242428 13.8653004505242
    vertex -317.156803849295 187.53026022975 14.3102725937986
    vertex -319.156803849295 187.53026022975 14.3102725937983
  endloop
endfacet
facet normal -1.09414599385575e-013 -0.382683432365101 0.923879532511283
  outer loop
    vertex -317.156803849295 188.205566903463 14.5899937768116
    vertex -319.156803849295 187.53026022975 14.3102725937983
    vertex -317.156803849295 187.53026022975 14.3102725937986
  endloop
endfacet
facet normal -1.09414599385575e-013 -0.382683432365101 0.923879532511283
  outer loop
    vertex -319.156803849295 187.53026022975 14.3102725937983
    vertex -317.156803849295 188.205566903463 14.5899937768116
    vertex -319.156803849295 188.205566903463 14.5899937768113
  endloop
endfacet
facet normal -1.1747199068048e-013 -0.130526192220026 0.991444861373814
  outer loop
    vertex -317.156803849295 188.93026022975 14.6854014632021
    vertex -319.156803849295 188.205566903463 14.5899937768113
    vertex -317.156803849295 188.205566903463 14.5899937768116
  endloop
endfacet
facet normal -1.1747199068048e-013 -0.130526192220026 0.991444861373814
  outer loop
    vertex -319.156803849295 188.205566903463 14.5899937768113
    vertex -317.156803849295 188.93026022975 14.6854014632021
    vertex -319.156803849295 188.93026022975 14.6854014632019
  endloop
endfacet
facet normal -1.1747199068048e-013 0.130526192220026 0.991444861373814
  outer loop
    vertex -317.156803849295 189.654953556037 14.5899937768116
    vertex -319.156803849295 188.93026022975 14.6854014632019
    vertex -317.156803849295 188.93026022975 14.6854014632021
  endloop
endfacet
facet normal -1.1747199068048e-013 0.130526192220026 0.991444861373814
  outer loop
    vertex -319.156803849295 188.93026022975 14.6854014632019
    vertex -317.156803849295 189.654953556037 14.5899937768116
    vertex -319.156803849295 189.654953556037 14.5899937768113
  endloop
endfacet
facet normal -1.09414599385575e-013 0.382683432365101 0.923879532511282
  outer loop
    vertex -317.156803849295 190.33026022975 14.3102725937986
    vertex -319.156803849295 189.654953556037 14.5899937768113
    vertex -317.156803849295 189.654953556037 14.5899937768116
  endloop
endfacet
facet normal -1.09414599385575e-013 0.382683432365101 0.923879532511282
  outer loop
    vertex -319.156803849295 189.654953556037 14.5899937768113
    vertex -317.156803849295 190.33026022975 14.3102725937986
    vertex -319.156803849295 190.33026022975 14.3102725937983
  endloop
endfacet
facet normal -9.39110033437038e-014 0.608761429008756 0.793353340291208
  outer loop
    vertex -317.156803849295 190.910159217072 13.8653004505244
    vertex -319.156803849295 190.33026022975 14.3102725937983
    vertex -317.156803849295 190.33026022975 14.3102725937986
  endloop
endfacet
facet normal -9.39110033437038e-014 0.608761429008756 0.793353340291208
  outer loop
    vertex -319.156803849295 190.33026022975 14.3102725937983
    vertex -317.156803849295 190.910159217072 13.8653004505244
    vertex -319.156803849295 190.910159217072 13.8653004505242
  endloop
endfacet
facet normal -7.21835372229519e-014 0.793353340291208 0.608761429008756
  outer loop
    vertex -319.156803849295 191.355131360346 13.2854014632019
    vertex -317.156803849295 190.910159217072 13.8653004505244
    vertex -317.156803849295 191.355131360346 13.2854014632021
  endloop
endfacet
facet normal -7.21835372229519e-014 0.793353340291208 0.608761429008756
  outer loop
    vertex -317.156803849295 190.910159217072 13.8653004505244
    vertex -319.156803849295 191.355131360346 13.2854014632019
    vertex -319.156803849295 190.910159217072 13.8653004505242
  endloop
endfacet
facet normal -4.5316209033144e-014 0.923879532511283 0.382683432365101
  outer loop
    vertex -319.156803849295 191.634852543359 12.6100947894889
    vertex -317.156803849295 191.355131360346 13.2854014632021
    vertex -317.156803849295 191.634852543359 12.6100947894891
  endloop
endfacet
facet normal -4.5316209033144e-014 0.923879532511283 0.382683432365101
  outer loop
    vertex -317.156803849295 191.355131360346 13.2854014632021
    vertex -319.156803849295 191.634852543359 12.6100947894889
    vertex -319.156803849295 191.355131360346 13.2854014632019
  endloop
endfacet
facet normal 4.10140948127215e-014 0.923879532511287 -0.382683432365089
  outer loop
    vertex -319.156803849295 191.355131360346 10.4854014632019
    vertex -317.156803849295 191.634852543359 11.1607081369151
    vertex -317.156803849295 191.355131360346 10.4854014632021
  endloop
endfacet
facet normal 4.10140948127215e-014 0.923879532511287 -0.382683432365089
  outer loop
    vertex -317.156803849295 191.634852543359 11.1607081369151
    vertex -319.156803849295 191.355131360346 10.4854014632019
    vertex -319.156803849295 191.634852543359 11.1607081369149
  endloop
endfacet
facet normal 6.53001544702759e-014 0.793353340291197 -0.608761429008771
  outer loop
    vertex -319.156803849294 190.910159217072 9.90550247587958
    vertex -317.156803849295 191.355131360346 10.4854014632021
    vertex -317.156803849294 190.910159217072 9.90550247587981
  endloop
endfacet
facet normal 6.53001544702759e-014 0.793353340291197 -0.608761429008771
  outer loop
    vertex -317.156803849295 191.355131360346 10.4854014632021
    vertex -319.156803849294 190.910159217072 9.90550247587958
    vertex -319.156803849295 191.355131360346 10.4854014632019
  endloop
endfacet
facet normal 9.39110033437038e-014 0.608761429008756 -0.793353340291208
  outer loop
    vertex -319.156803849294 190.910159217072 9.90550247587958
    vertex -317.156803849294 190.33026022975 9.46053033260571
    vertex -319.156803849294 190.33026022975 9.46053033260544
  endloop
endfacet
facet normal 9.39110033437038e-014 0.608761429008756 -0.793353340291208
  outer loop
    vertex -317.156803849294 190.33026022975 9.46053033260571
    vertex -319.156803849294 190.910159217072 9.90550247587958
    vertex -317.156803849294 190.910159217072 9.90550247587981
  endloop
endfacet
facet normal 1.09414599385575e-013 0.382683432365101 -0.923879532511283
  outer loop
    vertex -319.156803849294 190.33026022975 9.46053033260544
    vertex -317.156803849295 189.654953556037 9.18080914959274
    vertex -319.156803849295 189.654953556037 9.18080914959251
  endloop
endfacet
facet normal 1.09414599385575e-013 0.382683432365101 -0.923879532511283
  outer loop
    vertex -317.156803849295 189.654953556037 9.18080914959274
    vertex -319.156803849294 190.33026022975 9.46053033260544
    vertex -317.156803849294 190.33026022975 9.46053033260571
  endloop
endfacet
facet normal 1.1747199068048e-013 0.130526192220026 -0.991444861373814
  outer loop
    vertex -319.156803849295 189.654953556037 9.18080914959251
    vertex -317.156803849294 188.93026022975 9.08540146320215
    vertex -319.156803849294 188.93026022975 9.08540146320192
  endloop
endfacet
facet normal 1.1747199068048e-013 0.130526192220026 -0.991444861373814
  outer loop
    vertex -317.156803849294 188.93026022975 9.08540146320215
    vertex -319.156803849295 189.654953556037 9.18080914959251
    vertex -317.156803849295 189.654953556037 9.18080914959274
  endloop
endfacet
facet normal 1.043075734723e-013 0.382683432365073 -0.923879532511294
  outer loop
    vertex -315.156803849295 190.83026022975 8.59450492882153
    vertex -314.756803849295 189.91377260114 8.21488332330397
    vertex -315.156803849295 189.91377260114 8.21488332330397
  endloop
endfacet
facet normal 1.043075734723e-013 0.382683432365073 -0.923879532511294
  outer loop
    vertex -314.756803849295 189.91377260114 8.21488332330397
    vertex -315.156803849295 190.83026022975 8.59450492882153
    vertex -314.756803849295 190.83026022975 8.59450492882155
  endloop
endfacet
facet normal -1.11865364406123e-013 0.130526192220014 0.991444861373815
  outer loop
    vertex -314.756803849295 189.91377260114 15.5559196031009
    vertex -315.156803849295 188.93026022975 15.6854014632024
    vertex -314.756803849295 188.93026022975 15.6854014632024
  endloop
endfacet
facet normal -1.11865364406123e-013 0.130526192220014 0.991444861373815
  outer loop
    vertex -315.156803849295 188.93026022975 15.6854014632024
    vertex -314.756803849295 189.91377260114 15.5559196031009
    vertex -315.156803849295 189.91377260114 15.5559196031009
  endloop
endfacet
facet normal 1.04363084623531e-013 -0.382683432365089 -0.923879532511287
  outer loop
    vertex -315.156803849295 187.94674785836 8.21488332330397
    vertex -314.756803849295 187.03026022975 8.59450492882155
    vertex -315.156803849295 187.03026022975 8.59450492882153
  endloop
endfacet
facet normal 1.04363084623531e-013 -0.382683432365089 -0.923879532511287
  outer loop
    vertex -314.756803849295 187.03026022975 8.59450492882155
    vertex -315.156803849295 187.94674785836 8.21488332330397
    vertex -314.756803849295 187.94674785836 8.21488332330397
  endloop
endfacet
facet normal 6.86863346953827e-014 0.79335334029125 -0.608761429008701
  outer loop
    vertex -314.756803849295 191.617265998259 9.19839569469358
    vertex -315.156803849295 192.221156764131 9.98540146320242
    vertex -314.756803849295 192.221156764131 9.98540146320242
  endloop
endfacet
facet normal 6.86863346953827e-014 0.79335334029125 -0.608761429008701
  outer loop
    vertex -315.156803849295 192.221156764131 9.98540146320242
    vertex -314.756803849295 191.617265998259 9.19839569469358
    vertex -315.156803849295 191.617265998259 9.19839569469351
  endloop
endfacet
facet normal -8.95256223964344e-014 0.608761429008701 0.79335334029125
  outer loop
    vertex -314.756803849295 191.617265998259 14.5724072317113
    vertex -315.156803849295 190.83026022975 15.1762979975832
    vertex -314.756803849295 190.83026022975 15.1762979975833
  endloop
endfacet
facet normal -8.95256223964344e-014 0.608761429008701 0.79335334029125
  outer loop
    vertex -315.156803849295 190.83026022975 15.1762979975832
    vertex -314.756803849295 191.617265998259 14.5724072317113
    vertex -315.156803849295 191.617265998259 14.5724072317113
  endloop
endfacet
facet normal -4.31790297107406e-014 -0.923879532511287 0.382683432365089
  outer loop
    vertex -315.156803849295 185.639363695369 13.7854014632024
    vertex -314.756803849295 185.259742089852 12.868913834592
    vertex -314.756803849295 185.639363695369 13.7854014632024
  endloop
endfacet
facet normal -4.31790297107406e-014 -0.923879532511287 0.382683432365089
  outer loop
    vertex -314.756803849295 185.259742089852 12.868913834592
    vertex -315.156803849295 185.639363695369 13.7854014632024
    vertex -315.156803849295 185.259742089852 12.868913834592
  endloop
endfacet
facet normal 1.47403177124419e-014 -0.99144486137381 -0.130526192220059
  outer loop
    vertex -315.156803849295 185.13026022975 11.8854014632024
    vertex -314.756803849295 185.259742089852 10.9018890918128
    vertex -314.756803849295 185.13026022975 11.8854014632024
  endloop
endfacet
facet normal 1.47403177124419e-014 -0.99144486137381 -0.130526192220059
  outer loop
    vertex -314.756803849295 185.259742089852 10.9018890918128
    vertex -315.156803849295 185.13026022975 11.8854014632024
    vertex -315.156803849295 185.259742089852 10.9018890918128
  endloop
endfacet
facet normal -1.043075734723e-013 0.382683432365128 0.923879532511271
  outer loop
    vertex -314.756803849295 190.83026022975 15.1762979975833
    vertex -315.156803849295 189.91377260114 15.5559196031009
    vertex -314.756803849295 189.91377260114 15.5559196031009
  endloop
endfacet
facet normal -1.043075734723e-013 0.382683432365128 0.923879532511271
  outer loop
    vertex -315.156803849295 189.91377260114 15.5559196031009
    vertex -314.756803849295 190.83026022975 15.1762979975833
    vertex -315.156803849295 190.83026022975 15.1762979975832
  endloop
endfacet
facet normal -1.47125621368262e-014 -0.99144486137381 0.130526192220059
  outer loop
    vertex -315.156803849295 185.259742089852 12.868913834592
    vertex -314.756803849295 185.13026022975 11.8854014632024
    vertex -314.756803849295 185.259742089852 12.868913834592
  endloop
endfacet
facet normal -1.47125621368262e-014 -0.99144486137381 0.130526192220059
  outer loop
    vertex -314.756803849295 185.13026022975 11.8854014632024
    vertex -315.156803849295 185.259742089852 12.868913834592
    vertex -315.156803849295 185.13026022975 11.8854014632024
  endloop
endfacet
facet normal -8.95256223964344e-014 -0.60876142900873 0.793353340291228
  outer loop
    vertex -314.756803849295 187.03026022975 15.1762979975833
    vertex -315.156803849295 186.243254461241 14.5724072317112
    vertex -314.756803849295 186.243254461241 14.5724072317113
  endloop
endfacet
facet normal -8.95256223964344e-014 -0.60876142900873 0.793353340291228
  outer loop
    vertex -315.156803849295 186.243254461241 14.5724072317112
    vertex -314.756803849295 187.03026022975 15.1762979975833
    vertex -315.156803849295 187.03026022975 15.1762979975832
  endloop
endfacet
facet normal -6.86308235441514e-014 0.793353340291228 0.60876142900873
  outer loop
    vertex -315.156803849295 192.221156764131 13.7854014632024
    vertex -314.756803849295 191.617265998259 14.5724072317113
    vertex -314.756803849295 192.221156764131 13.7854014632025
  endloop
endfacet
facet normal -6.86308235441514e-014 0.793353340291228 0.60876142900873
  outer loop
    vertex -314.756803849295 191.617265998259 14.5724072317113
    vertex -315.156803849295 192.221156764131 13.7854014632024
    vertex -315.156803849295 191.617265998259 14.5724072317113
  endloop
endfacet
facet normal -1.043075734723e-013 -0.382683432365073 0.923879532511294
  outer loop
    vertex -314.756803849295 187.94674785836 15.5559196031008
    vertex -315.156803849295 187.03026022975 15.1762979975832
    vertex -314.756803849295 187.03026022975 15.1762979975833
  endloop
endfacet
facet normal -1.043075734723e-013 -0.382683432365073 0.923879532511294
  outer loop
    vertex -315.156803849295 187.03026022975 15.1762979975832
    vertex -314.756803849295 187.94674785836 15.5559196031008
    vertex -315.156803849295 187.94674785836 15.5559196031008
  endloop
endfacet
facet normal 4.31790297107406e-014 0.923879532511287 -0.382683432365089
  outer loop
    vertex -315.156803849295 192.221156764131 9.98540146320242
    vertex -314.756803849295 192.600778369648 10.9018890918128
    vertex -314.756803849295 192.221156764131 9.98540146320242
  endloop
endfacet
facet normal 4.31790297107406e-014 0.923879532511287 -0.382683432365089
  outer loop
    vertex -314.756803849295 192.600778369648 10.9018890918128
    vertex -315.156803849295 192.221156764131 9.98540146320242
    vertex -315.156803849295 192.600778369648 10.9018890918128
  endloop
endfacet
facet normal -6.86863346953827e-014 -0.79335334029125 0.608761429008701
  outer loop
    vertex -314.756803849295 186.243254461241 14.5724072317113
    vertex -315.156803849295 185.639363695369 13.7854014632024
    vertex -314.756803849295 185.639363695369 13.7854014632024
  endloop
endfacet
facet normal -6.86863346953827e-014 -0.79335334029125 0.608761429008701
  outer loop
    vertex -315.156803849295 185.639363695369 13.7854014632024
    vertex -314.756803849295 186.243254461241 14.5724072317113
    vertex -315.156803849295 186.243254461241 14.5724072317112
  endloop
endfacet
facet normal -1.11920875557355e-013 -0.130526192220059 0.99144486137381
  outer loop
    vertex -314.756803849295 188.93026022975 15.6854014632024
    vertex -315.156803849295 187.94674785836 15.5559196031008
    vertex -314.756803849295 187.94674785836 15.5559196031008
  endloop
endfacet
facet normal -1.11920875557355e-013 -0.130526192220059 0.99144486137381
  outer loop
    vertex -315.156803849295 187.94674785836 15.5559196031008
    vertex -314.756803849295 188.93026022975 15.6854014632024
    vertex -315.156803849295 188.93026022975 15.6854014632024
  endloop
endfacet
facet normal 8.94701112452032e-014 0.60876142900873 -0.793353340291228
  outer loop
    vertex -315.156803849295 191.617265998259 9.19839569469351
    vertex -314.756803849295 190.83026022975 8.59450492882155
    vertex -315.156803849295 190.83026022975 8.59450492882153
  endloop
endfacet
facet normal 8.94701112452032e-014 0.60876142900873 -0.793353340291228
  outer loop
    vertex -314.756803849295 190.83026022975 8.59450492882155
    vertex -315.156803849295 191.617265998259 9.19839569469351
    vertex -314.756803849295 191.617265998259 9.19839569469358
  endloop
endfacet
facet normal -4.3151274135125e-014 0.923879532511294 0.382683432365073
  outer loop
    vertex -315.156803849295 192.600778369648 12.868913834592
    vertex -314.756803849295 192.221156764131 13.7854014632025
    vertex -314.756803849295 192.600778369648 12.868913834592
  endloop
endfacet
facet normal -4.3151274135125e-014 0.923879532511294 0.382683432365073
  outer loop
    vertex -314.756803849295 192.221156764131 13.7854014632025
    vertex -315.156803849295 192.600778369648 12.868913834592
    vertex -315.156803849295 192.221156764131 13.7854014632024
  endloop
endfacet
facet normal 1.11920875557355e-013 0.130526192220059 -0.99144486137381
  outer loop
    vertex -315.156803849295 189.91377260114 8.21488332330397
    vertex -314.756803849295 188.93026022975 8.08540146320242
    vertex -315.156803849295 188.93026022975 8.0854014632024
  endloop
endfacet
facet normal 1.11920875557355e-013 0.130526192220059 -0.99144486137381
  outer loop
    vertex -314.756803849295 188.93026022975 8.08540146320242
    vertex -315.156803849295 189.91377260114 8.21488332330397
    vertex -314.756803849295 189.91377260114 8.21488332330397
  endloop
endfacet
facet normal 1.11920875557355e-013 -0.130526192220059 -0.99144486137381
  outer loop
    vertex -315.156803849295 188.93026022975 8.0854014632024
    vertex -314.756803849295 187.94674785836 8.21488332330397
    vertex -315.156803849295 187.94674785836 8.21488332330397
  endloop
endfacet
facet normal 1.11920875557355e-013 -0.130526192220059 -0.99144486137381
  outer loop
    vertex -314.756803849295 187.94674785836 8.21488332330397
    vertex -315.156803849295 188.93026022975 8.0854014632024
    vertex -314.756803849295 188.93026022975 8.08540146320242
  endloop
endfacet
facet normal 8.95256223964344e-014 -0.608761429008701 -0.79335334029125
  outer loop
    vertex -315.156803849295 187.03026022975 8.59450492882153
    vertex -314.756803849295 186.243254461241 9.19839569469351
    vertex -315.156803849295 186.243254461241 9.19839569469351
  endloop
endfacet
facet normal 8.95256223964344e-014 -0.608761429008701 -0.79335334029125
  outer loop
    vertex -314.756803849295 186.243254461241 9.19839569469351
    vertex -315.156803849295 187.03026022975 8.59450492882153
    vertex -314.756803849295 187.03026022975 8.59450492882155
  endloop
endfacet
facet normal 6.86308235441514e-014 -0.793353340291228 -0.60876142900873
  outer loop
    vertex -315.156803849295 185.639363695369 9.98540146320233
    vertex -314.756803849295 186.243254461241 9.19839569469351
    vertex -314.756803849295 185.639363695369 9.9854014632024
  endloop
endfacet
facet normal 6.86308235441514e-014 -0.793353340291228 -0.60876142900873
  outer loop
    vertex -314.756803849295 186.243254461241 9.19839569469351
    vertex -315.156803849295 185.639363695369 9.98540146320233
    vertex -315.156803849295 186.243254461241 9.19839569469351
  endloop
endfacet
facet normal 4.3151274135125e-014 -0.923879532511294 -0.382683432365073
  outer loop
    vertex -314.756803849295 185.259742089852 10.9018890918128
    vertex -315.156803849295 185.639363695369 9.98540146320233
    vertex -314.756803849295 185.639363695369 9.9854014632024
  endloop
endfacet
facet normal 4.3151274135125e-014 -0.923879532511294 -0.382683432365073
  outer loop
    vertex -315.156803849295 185.639363695369 9.98540146320233
    vertex -314.756803849295 185.259742089852 10.9018890918128
    vertex -315.156803849295 185.259742089852 10.9018890918128
  endloop
endfacet
facet normal -1.12810101679368e-013 0.0 1.0
  outer loop
    vertex -314.756803849295 193.600778369648 12.868913834592
    vertex -315.156803849295 192.600778369648 12.868913834592
    vertex -314.756803849295 192.600778369648 12.868913834592
  endloop
endfacet
facet normal -1.12810101679368e-013 0.0 1.0
  outer loop
    vertex -315.156803849295 192.600778369648 12.868913834592
    vertex -314.756803849295 193.600778369648 12.868913834592
    vertex -315.156803849295 193.600778369648 12.868913834592
  endloop
endfacet
facet normal 1.12810101679368e-013 0.0 -1.0
  outer loop
    vertex -315.156803849295 193.600778369648 10.9018890918128
    vertex -314.756803849295 192.600778369648 10.9018890918128
    vertex -315.156803849295 192.600778369648 10.9018890918128
  endloop
endfacet
facet normal 1.12810101679368e-013 0.0 -1.0
  outer loop
    vertex -314.756803849295 192.600778369648 10.9018890918128
    vertex -315.156803849295 193.600778369648 10.9018890918128
    vertex -314.756803849295 193.600778369648 10.9018890918128
  endloop
endfacet
facet normal -1.18361216802494e-013 0.0 1.0
  outer loop
    vertex -317.156803849295 192.634852543359 12.6100947894891
    vertex -319.156803849295 191.634852543359 12.6100947894889
    vertex -317.156803849295 191.634852543359 12.6100947894891
  endloop
endfacet
facet normal -1.18361216802494e-013 0.0 1.0
  outer loop
    vertex -319.156803849295 191.634852543359 12.6100947894889
    vertex -317.156803849295 192.634852543359 12.6100947894891
    vertex -319.156803849295 192.634852543359 12.6100947894889
  endloop
endfacet
facet normal 1.18361216802494e-013 0.0 -1.0
  outer loop
    vertex -319.156803849295 192.634852543359 11.1607081369149
    vertex -317.156803849295 191.634852543359 11.1607081369151
    vertex -319.156803849295 191.634852543359 11.1607081369149
  endloop
endfacet
facet normal 1.18361216802494e-013 0.0 -1.0
  outer loop
    vertex -317.156803849295 191.634852543359 11.1607081369151
    vertex -319.156803849295 192.634852543359 11.1607081369149
    vertex -317.156803849295 192.634852543359 11.1607081369151
  endloop
endfacet
facet normal 0.0 1.0 0.0
  outer loop
    vertex -317.156803849295 192.634852543359 11.1607081369151
    vertex -319.156803849295 192.634852543359 12.6100947894889
    vertex -317.156803849295 192.634852543359 12.6100947894891
  endloop
endfacet
facet normal 0.0 1.0 0.0
  outer loop
    vertex -319.156803849295 192.634852543359 12.6100947894889
    vertex -317.156803849295 192.634852543359 11.1607081369151
    vertex -319.156803849295 192.634852543359 11.1607081369149
  endloop
endfacet
facet normal 0.0 1.0 0.0
  outer loop
    vertex -314.756803849295 193.600778369648 10.9018890918128
    vertex -315.156803849295 193.600778369648 12.868913834592
    vertex -314.756803849295 193.600778369648 12.868913834592
  endloop
endfacet
facet normal 0.0 1.0 0.0
  outer loop
    vertex -315.156803849295 193.600778369648 12.868913834592
    vertex -314.756803849295 193.600778369648 10.9018890918128
    vertex -315.156803849295 193.600778369648 10.9018890918128
  endloop
endfacet
facet normal -0.128339346206458 4.37057694666126e-017 -0.991730312239824
  outer loop
    vertex -317.156803849295 192.634852543359 11.1607081369151
    vertex -315.156803849295 192.600778369648 10.9018890918128
    vertex -317.156803849295 191.634852543359 11.1607081369151
  endloop
endfacet
facet normal -0.128339346206458 4.37057694666126e-017 -0.991730312239824
  outer loop
    vertex -315.156803849295 192.600778369648 10.9018890918128
    vertex -317.156803849295 192.634852543359 11.1607081369151
    vertex -315.156803849295 193.600778369648 10.9018890918128
  endloop
endfacet
facet normal -0.128339346206691 0.0 0.991730312239794
  outer loop
    vertex -315.156803849295 192.600778369648 12.868913834592
    vertex -317.156803849295 192.634852543359 12.6100947894891
    vertex -317.156803849295 191.634852543359 12.6100947894891
  endloop
endfacet
facet normal -0.128339346206691 0.0 0.991730312239794
  outer loop
    vertex -317.156803849295 192.634852543359 12.6100947894891
    vertex -315.156803849295 192.600778369648 12.868913834592
    vertex -315.156803849295 193.600778369648 12.868913834592
  endloop
endfacet
facet normal -0.43489825114707 0.900479600629143 -5.14010745640357e-014
  outer loop
    vertex -315.156803849295 193.600778369648 10.9018890918128
    vertex -317.156803849295 192.634852543359 12.6100947894891
    vertex -315.156803849295 193.600778369648 12.868913834592
  endloop
endfacet
facet normal -0.43489825114707 0.900479600629143 -5.14010745640357e-014
  outer loop
    vertex -317.156803849295 192.634852543359 12.6100947894891
    vertex -315.156803849295 193.600778369648 10.9018890918128
    vertex -317.156803849295 192.634852543359 11.1607081369151
  endloop
endfacet
facet normal -4.87631135154753e-014 -0.707106781186545 0.70710678118655
  outer loop
    vertex -318.556803849295 191.05158057331 11.5318480726086
    vertex -319.156803849295 189.637367010936 10.1176345102355
    vertex -318.556803849295 189.637367010936 10.1176345102355
  endloop
endfacet
facet normal -4.87631135154753e-014 -0.707106781186545 0.70710678118655
  outer loop
    vertex -319.156803849295 189.637367010936 10.1176345102355
    vertex -318.556803849295 191.05158057331 11.5318480726086
    vertex -319.156803849295 191.05158057331 11.5318480726086
  endloop
endfacet
facet normal -6.27700276997601e-014 0.70710678118655 0.707106781186545
  outer loop
    vertex -318.556803849295 189.637367010936 10.1176345102355
    vertex -319.156803849295 186.80893988619 12.9460616349817
    vertex -318.556803849295 186.80893988619 12.9460616349818
  endloop
endfacet
facet normal -6.27700276997601e-014 0.70710678118655 0.707106781186545
  outer loop
    vertex -319.156803849295 186.80893988619 12.9460616349817
    vertex -318.556803849295 189.637367010936 10.1176345102355
    vertex -319.156803849295 189.637367010936 10.1176345102355
  endloop
endfacet
facet normal 6.30791588187247e-014 -0.707106781186552 -0.707106781186543
  outer loop
    vertex -319.156803849295 187.516046667377 13.6531684161683
    vertex -318.556803849295 189.637367010936 11.5318480726086
    vertex -318.556803849295 187.516046667377 13.6531684161683
  endloop
endfacet
facet normal 6.30791588187247e-014 -0.707106781186552 -0.707106781186543
  outer loop
    vertex -318.556803849295 189.637367010936 11.5318480726086
    vertex -319.156803849295 187.516046667377 13.6531684161683
    vertex -319.156803849295 189.637367010936 11.5318480726086
  endloop
endfacet
facet normal 6.87020706891203e-014 0.707106781186548 -0.707106781186547
  outer loop
    vertex -319.156803849295 186.80893988619 12.9460616349817
    vertex -318.556803849295 187.516046667377 13.6531684161683
    vertex -318.556803849295 186.80893988619 12.9460616349818
  endloop
endfacet
facet normal 6.87020706891203e-014 0.707106781186548 -0.707106781186547
  outer loop
    vertex -318.556803849295 187.516046667377 13.6531684161683
    vertex -319.156803849295 186.80893988619 12.9460616349817
    vertex -319.156803849295 187.516046667377 13.6531684161683
  endloop
endfacet
facet normal 6.28473104794852e-014 -0.70710678118655 -0.707106781186545
  outer loop
    vertex -319.156803849295 190.344473792123 12.2389548537951
    vertex -318.556803849295 191.05158057331 11.5318480726086
    vertex -318.556803849295 190.344473792123 12.2389548537952
  endloop
endfacet
facet normal 6.28473104794852e-014 -0.70710678118655 -0.707106781186545
  outer loop
    vertex -318.556803849295 191.05158057331 11.5318480726086
    vertex -319.156803849295 190.344473792123 12.2389548537951
    vertex -319.156803849295 191.05158057331 11.5318480726086
  endloop
endfacet
facet normal 5.87325921022998e-014 0.70710678118655 -0.707106781186545
  outer loop
    vertex -318.556803849295 189.637367010936 11.5318480726086
    vertex -319.156803849295 190.344473792123 12.2389548537951
    vertex -318.556803849295 190.344473792123 12.2389548537952
  endloop
endfacet
facet normal 5.87325921022998e-014 0.70710678118655 -0.707106781186545
  outer loop
    vertex -319.156803849295 190.344473792123 12.2389548537951
    vertex -318.556803849295 189.637367010936 11.5318480726086
    vertex -319.156803849295 189.637367010936 11.5318480726086
  endloop
endfacet
facet normal -1.0 -1.65250062640478e-014 -6.30277994951214e-014
  outer loop
    vertex -318.556803849295 186.80893988619 12.9460616349818
    vertex -318.556803849295 189.637367010936 11.5318480726086
    vertex -318.556803849295 189.637367010936 10.1176345102355
  endloop
endfacet
facet normal -1.0 -1.65250062640478e-014 -6.30277994951214e-014
  outer loop
    vertex -318.556803849295 189.637367010936 11.5318480726086
    vertex -318.556803849295 186.80893988619 12.9460616349818
    vertex -318.556803849295 187.516046667377 13.6531684161683
  endloop
endfacet
facet normal -1.0 -1.65250062640478e-014 -6.30277994951214e-014
  outer loop
    vertex -318.556803849295 189.637367010936 11.5318480726086
    vertex -318.556803849295 191.05158057331 11.5318480726086
    vertex -318.556803849295 189.637367010936 10.1176345102355
  endloop
endfacet
facet normal -1.0 -1.65250062640478e-014 -6.30277994951214e-014
  outer loop
    vertex -318.556803849295 191.05158057331 11.5318480726086
    vertex -318.556803849295 189.637367010936 11.5318480726086
    vertex -318.556803849295 190.344473792123 12.2389548537952
  endloop
endfacet
endsolid AltAzTrackerSketchup Nema 17
