solid AltAzTrackerSketchup Nema 17
facet normal 0.000973522445012077 -0.999999526126912 -5.25156399273815e-015
  outer loop
    vertex -451.461496774755 134.266177160814 17.5999696716414
    vertex -459.461496774755 134.258388977563 9.00000000000041
    vertex -451.461496774755 134.266177160814 8.99996967164144
  endloop
endfacet
facet normal 0.000973522445012077 -0.999999526126912 -5.25156399273815e-015
  outer loop
    vertex -459.461496774755 134.258388977563 9.00000000000041
    vertex -451.461496774755 134.266177160814 17.5999696716414
    vertex -459.461496774755 134.258388977563 17.6000000000003
  endloop
endfacet
facet normal -0.9999999999501 9.98998738227185e-006 2.09858493764767e-014
  outer loop
    vertex -459.461353917613 148.558421206072 17.6000000000003
    vertex -459.461496774755 134.258388977563 9.00000000000041
    vertex -459.461496774755 134.258388977563 17.6000000000003
  endloop
endfacet
facet normal -0.9999999999501 9.98998738227185e-006 2.09858493764767e-014
  outer loop
    vertex -459.461496774755 134.258388977563 9.00000000000041
    vertex -459.461353917613 148.558421206072 17.6000000000003
    vertex -459.461353917614 148.558421206072 9.00000000000039
  endloop
endfacet
facet normal 5.09209463662442e-006 0.999999999983767 -2.55675930862985e-006
  outer loop
    vertex -459.461353917614 148.558421206072 9.00000000000039
    vertex -446.461439406371 148.558376997278 17.5999539708032
    vertex -446.461480478933 148.558333021227 8.99997233397909
  endloop
endfacet
facet normal 5.09209463662442e-006 0.999999999983767 -2.55675930862985e-006
  outer loop
    vertex -446.461439406371 148.558376997278 17.5999539708032
    vertex -459.461353917614 148.558421206072 9.00000000000039
    vertex -459.461353917613 148.558421206072 17.6000000000003
  endloop
endfacet
facet normal -1.0 -1.17433813053732e-029 1.04928985397132e-014
  outer loop
    vertex -448.461496774755 146.558421195867 17.6000000000004
    vertex -448.461496774755 144.558421195867 9.00000000000045
    vertex -448.461496774755 144.558421195867 17.6000000000004
  endloop
endfacet
facet normal -1.0 -1.17433813053732e-029 1.04928985397132e-014
  outer loop
    vertex -448.461496774755 144.558421195867 9.00000000000045
    vertex -448.461496774755 146.558421195867 17.6000000000004
    vertex -448.461496774755 146.558421195867 9.00000000000045
  endloop
endfacet
facet normal 0.707781571399372 -0.706431346407728 -1.11350881135112e-014
  outer loop
    vertex -442.461351454341 148.566070427062 8.99996967164151
    vertex -446.461355349222 144.558421195867 17.6000000000004
    vertex -446.461355349222 144.558421195867 9.00000000000045
  endloop
endfacet
facet normal 0.707781571399372 -0.706431346407728 -1.11350881135112e-014
  outer loop
    vertex -446.461355349222 144.558421195867 17.6000000000004
    vertex -442.461351454341 148.566070427062 8.99996967164151
    vertex -442.461351454341 148.566070427062 17.5999696716414
  endloop
endfacet
facet normal 0.999999999743296 2.20740046206055e-005 5.11337949096237e-006
  outer loop
    vertex -442.461351454341 150.558282243811 8.99996958489385
    vertex -442.461351454341 148.566070427062 17.5999696716414
    vertex -442.461351454341 148.566070427062 8.99996967164151
  endloop
endfacet
facet normal 0.999999999743296 2.20740046206055e-005 5.11337949096237e-006
  outer loop
    vertex -442.461351454341 148.566070427062 17.5999696716414
    vertex -442.461351454341 150.558282243811 8.99996958489385
    vertex -442.46143940641 150.55837019588 17.5999468963415
  endloop
endfacet
facet normal 0.0 -1.0 0.0
  outer loop
    vertex -448.461496774755 146.558421195867 9.00000000000045
    vertex -457.461496774755 146.558421195867 17.6000000000003
    vertex -457.461496774755 146.558421195867 9.00000000000043
  endloop
endfacet
facet normal 0.0 -1.0 0.0
  outer loop
    vertex -457.461496774755 146.558421195867 17.6000000000003
    vertex -448.461496774755 146.558421195867 9.00000000000045
    vertex -448.461496774755 146.558421195867 17.6000000000004
  endloop
endfacet
facet normal 0.0 -1.0 0.0
  outer loop
    vertex -446.461355349222 144.558421195867 17.6000000000004
    vertex -448.461496774755 144.558421195867 9.00000000000045
    vertex -446.461355349222 144.558421195867 9.00000000000045
  endloop
endfacet
facet normal 0.0 -1.0 0.0
  outer loop
    vertex -448.461496774755 144.558421195867 9.00000000000045
    vertex -446.461355349222 144.558421195867 17.6000000000004
    vertex -448.461496774755 144.558421195867 17.6000000000004
  endloop
endfacet
facet normal 1.0042218908251e-011 0.999999999947704 -1.02270117491997e-005
  outer loop
    vertex -444.46143940641 152.558370195823 17.5999317251622
    vertex -440.461351454398 152.558282243869 8.99996958489384
    vertex -444.461351454341 152.558282243754 8.99995441371455
  endloop
endfacet
facet normal 1.0042218908251e-011 0.999999999947704 -1.02270117491997e-005
  outer loop
    vertex -440.461351454398 152.558282243869 8.99996958489384
    vertex -444.46143940641 152.558370195823 17.5999317251622
    vertex -440.461439406467 152.558370195938 17.5999468963415
  endloop
endfacet
facet normal 0.999999999947704 7.75421206748663e-011 1.02270117249003e-005
  outer loop
    vertex -440.461351454398 152.558282243869 8.99996958489384
    vertex -440.461439406467 150.558370195995 17.599962060521
    vertex -440.461351454398 150.558282243926 8.99998474907332
  endloop
endfacet
facet normal 0.999999999947704 7.75421206748663e-011 1.02270117249003e-005
  outer loop
    vertex -440.461439406467 150.558370195995 17.599962060521
    vertex -440.461351454398 152.558282243869 8.99996958489384
    vertex -440.461439406467 152.558370195938 17.5999468963415
  endloop
endfacet
facet normal -2.00599239989505e-011 -0.999999999947704 1.0227011746474e-005
  outer loop
    vertex -440.461351454398 150.558282243926 8.99998474907332
    vertex -442.46143940641 150.55837019588 17.5999468963415
    vertex -442.461351454341 150.558282243811 8.99996958489385
  endloop
endfacet
facet normal -2.00599239989505e-011 -0.999999999947704 1.0227011746474e-005
  outer loop
    vertex -442.46143940641 150.55837019588 17.5999468963415
    vertex -440.461351454398 150.558282243926 8.99998474907332
    vertex -440.461439406467 150.558370195995 17.599962060521
  endloop
endfacet
facet normal 1.0 0.0 1.04928985397131e-014
  outer loop
    vertex -451.461496774755 138.566177160813 8.99996967164144
    vertex -451.461496774755 134.266177160814 17.5999696716414
    vertex -451.461496774755 134.266177160814 8.99996967164144
  endloop
endfacet
facet normal 9.79673793844921e-022 0.999999999893718 -1.45795983062926e-005
  outer loop
    vertex -457.461496774755 136.258388983607 17.6000000000003
    vertex -453.461496835787 136.258263599503 9.00003027709334
    vertex -457.461496835787 136.258263599503 9.00003027709334
  endloop
endfacet
facet normal 9.79673793844921e-022 0.999999999893718 -1.45795983062926e-005
  outer loop
    vertex -453.461496835787 136.258263599503 9.00003027709334
    vertex -457.461496774755 136.258388983607 17.6000000000003
    vertex -453.461496774755 136.258388983607 17.6000000000003
  endloop
endfacet
facet normal 1.0 -2.96273268067379e-009 -3.54838288735625e-009
  outer loop
    vertex -457.461496774755 146.558421195867 9.00000000000043
    vertex -457.461496774755 136.258388983607 17.6000000000003
    vertex -457.461496835787 136.258263599503 9.00003027709334
  endloop
endfacet
facet normal 1.0 -2.96273268067379e-009 -3.54838288735625e-009
  outer loop
    vertex -457.461496774755 136.258388983607 17.6000000000003
    vertex -457.461496774755 146.558421195867 9.00000000000043
    vertex -457.461496774755 146.558421195867 17.6000000000003
  endloop
endfacet
facet normal 1.0 0.0 0.0
  outer loop
    vertex -451.461496774755 143.558388977563 17.5999696716413
    vertex -451.461496774755 139.558177160814 17.5999696905167
    vertex -451.461496774755 143.558388977563 14.6000000000004
  endloop
endfacet
facet normal -1.13362686666835e-009 1.0 9.99540605689093e-011
  outer loop
    vertex -453.441496774755 143.558388977563 9.00000000000044
    vertex -401.211496774777 143.558389038262 14.6000000000004
    vertex -401.211496774777 143.558389038262 9.00000000000035
  endloop
endfacet
facet normal -1.13362686666835e-009 1.0 9.99540605689093e-011
  outer loop
    vertex -401.211496774777 143.558389038262 14.6000000000004
    vertex -453.441496774755 143.558388977563 9.00000000000044
    vertex -451.461496774755 143.558388977563 14.6000000000004
  endloop
endfacet
facet normal -1.13362686666835e-009 1.0 9.99540605689093e-011
  outer loop
    vertex -451.461496774755 143.558388977563 14.6000000000004
    vertex -453.441496774755 143.558388977563 9.00000000000044
    vertex -453.441496774755 143.558388977563 17.5999696716413
  endloop
endfacet
facet normal -1.13362686666835e-009 1.0 9.99540605689093e-011
  outer loop
    vertex -451.461496774755 143.558388977563 14.6000000000004
    vertex -453.441496774755 143.558388977563 17.5999696716413
    vertex -451.461496774755 143.558388977563 17.5999696716413
  endloop
endfacet
facet normal -0.999996247024778 0.00273969639920154 -1.64234224308779e-008
  outer loop
    vertex -453.461496774755 136.258388983607 17.6000000000003
    vertex -453.441496774755 143.558388977563 9.00000000000044
    vertex -453.461496835787 136.258263599503 9.00003027709334
  endloop
endfacet
facet normal -0.999996247024778 0.00273969639920154 -1.64234224308779e-008
  outer loop
    vertex -453.441496774755 143.558388977563 9.00000000000044
    vertex -453.461496774755 136.258388983607 17.6000000000003
    vertex -453.441496774755 143.558388977563 17.5999696716413
  endloop
endfacet
facet normal 1.41250239606747e-009 -1.99856661564156e-006 -0.999999999998003
  outer loop
    vertex -440.461351454398 152.558282243869 8.99996958489384
    vertex -442.461351454341 150.558282243811 8.99996958489385
    vertex -444.461351454341 152.558282243754 8.99995441371455
  endloop
endfacet
facet normal 1.41250239606747e-009 -1.99856661564156e-006 -0.999999999998003
  outer loop
    vertex -442.461351454341 150.558282243811 8.99996958489385
    vertex -440.461351454398 152.558282243869 8.99996958489384
    vertex -440.461351454398 150.558282243926 8.99998474907332
  endloop
endfacet
facet normal 1.41250239606747e-009 -1.99856661564156e-006 -0.999999999998003
  outer loop
    vertex -459.461353917614 148.558421206072 9.00000000000039
    vertex -457.461496774755 146.558421195867 9.00000000000043
    vertex -457.461496835787 136.258263599503 9.00003027709334
  endloop
endfacet
facet normal 1.41250239606747e-009 -1.99856661564156e-006 -0.999999999998003
  outer loop
    vertex -457.461496774755 146.558421195867 9.00000000000043
    vertex -459.461353917614 148.558421206072 9.00000000000039
    vertex -446.461480478933 148.558333021227 8.99997233397909
  endloop
endfacet
facet normal 1.41250239606747e-009 -1.99856661564156e-006 -0.999999999998003
  outer loop
    vertex -457.461496774755 146.558421195867 9.00000000000043
    vertex -446.461480478933 148.558333021227 8.99997233397909
    vertex -448.461496774755 146.558421195867 9.00000000000045
  endloop
endfacet
facet normal 1.41250239606747e-009 -1.99856661564156e-006 -0.999999999998003
  outer loop
    vertex -448.461496774755 146.558421195867 9.00000000000045
    vertex -446.461480478933 148.558333021227 8.99997233397909
    vertex -448.461496774755 144.558421195867 9.00000000000045
  endloop
endfacet
facet normal 1.41250239606747e-009 -1.99856661564156e-006 -0.999999999998003
  outer loop
    vertex -448.461496774755 144.558421195867 9.00000000000045
    vertex -446.461480478933 148.558333021227 8.99997233397909
    vertex -446.461355349222 144.558421195867 9.00000000000045
  endloop
endfacet
facet normal 1.41250239606747e-009 -1.99856661564156e-006 -0.999999999998003
  outer loop
    vertex -446.461355349222 144.558421195867 9.00000000000045
    vertex -446.461480478933 148.558333021227 8.99997233397909
    vertex -444.461480478971 150.5583262198 8.99995767042784
  endloop
endfacet
facet normal 1.41250239606747e-009 -1.99856661564156e-006 -0.999999999998003
  outer loop
    vertex -446.461355349222 144.558421195867 9.00000000000045
    vertex -444.461480478971 150.5583262198 8.99995767042784
    vertex -442.461351454341 148.566070427062 8.99996967164151
  endloop
endfacet
facet normal 1.41250239606747e-009 -1.99856661564156e-006 -0.999999999998003
  outer loop
    vertex -442.461351454341 148.566070427062 8.99996967164151
    vertex -444.461480478971 150.5583262198 8.99995767042784
    vertex -444.461351454341 152.558282243754 8.99995441371455
  endloop
endfacet
facet normal 1.41250239606747e-009 -1.99856661564156e-006 -0.999999999998003
  outer loop
    vertex -442.461351454341 148.566070427062 8.99996967164151
    vertex -444.461351454341 152.558282243754 8.99995441371455
    vertex -442.461351454341 150.558282243811 8.99996958489385
  endloop
endfacet
facet normal 1.41250239606747e-009 -1.99856661564156e-006 -0.999999999998003
  outer loop
    vertex -401.211496774777 143.558389038262 9.00000000000035
    vertex -451.461496774755 142.058389038262 9.0000000000004
    vertex -453.441496774755 143.558388977563 9.00000000000044
  endloop
endfacet
facet normal 1.41250239606747e-009 -1.99856661564156e-006 -0.999999999998003
  outer loop
    vertex -451.461496774755 142.058389038262 9.0000000000004
    vertex -401.211496774777 143.558389038262 9.00000000000035
    vertex -401.211496774777 142.058389038262 9.00000000000036
  endloop
endfacet
facet normal 1.41250239606747e-009 -1.99856661564156e-006 -0.999999999998003
  outer loop
    vertex -401.211496774777 140.058389038262 9.00000000000038
    vertex -451.461496774755 138.566177160813 8.99996967164144
    vertex -451.461496774755 140.058389038262 9.00000000000042
  endloop
endfacet
facet normal 1.41250239606747e-009 -1.99856661564156e-006 -0.999999999998003
  outer loop
    vertex -451.461496774755 138.566177160813 8.99996967164144
    vertex -401.211496774777 140.058389038262 9.00000000000038
    vertex -401.211496774777 138.558389038262 9.00000000000039
  endloop
endfacet
facet normal 1.41250239606747e-009 -1.99856661564156e-006 -0.999999999998003
  outer loop
    vertex -459.461496774755 134.258388977563 9.00000000000041
    vertex -457.461496835787 136.258263599503 9.00003027709334
    vertex -451.461496774755 134.266177160814 8.99996967164144
  endloop
endfacet
facet normal 1.41250239606747e-009 -1.99856661564156e-006 -0.999999999998003
  outer loop
    vertex -457.461496835787 136.258263599503 9.00003027709334
    vertex -459.461496774755 134.258388977563 9.00000000000041
    vertex -459.461353917614 148.558421206072 9.00000000000039
  endloop
endfacet
facet normal 1.41250239606747e-009 -1.99856661564156e-006 -0.999999999998003
  outer loop
    vertex -451.461496774755 134.266177160814 8.99996967164144
    vertex -457.461496835787 136.258263599503 9.00003027709334
    vertex -453.461496835787 136.258263599503 9.00003027709334
  endloop
endfacet
facet normal 1.41250239606747e-009 -1.99856661564156e-006 -0.999999999998003
  outer loop
    vertex -451.461496774755 134.266177160814 8.99996967164144
    vertex -453.461496835787 136.258263599503 9.00003027709334
    vertex -453.441496774755 143.558388977563 9.00000000000044
  endloop
endfacet
facet normal 1.41250239606747e-009 -1.99856661564156e-006 -0.999999999998003
  outer loop
    vertex -451.461496774755 134.266177160814 8.99996967164144
    vertex -453.441496774755 143.558388977563 9.00000000000044
    vertex -451.461496774755 142.058389038262 9.0000000000004
  endloop
endfacet
facet normal 1.41250239606747e-009 -1.99856661564156e-006 -0.999999999998003
  outer loop
    vertex -451.461496774755 134.266177160814 8.99996967164144
    vertex -451.461496774755 142.058389038262 9.0000000000004
    vertex -451.461496774755 140.058389038262 9.00000000000042
  endloop
endfacet
facet normal 1.41250239606747e-009 -1.99856661564156e-006 -0.999999999998003
  outer loop
    vertex -451.461496774755 134.266177160814 8.99996967164144
    vertex -451.461496774755 140.058389038262 9.00000000000042
    vertex -451.461496774755 138.566177160813 8.99996967164144
  endloop
endfacet
facet normal -0.999999999476055 3.22561501429578e-005 -2.72580477589116e-006
  outer loop
    vertex -444.46143940641 150.558370195851 17.599939307252
    vertex -444.461351454341 152.558282243754 8.99995441371455
    vertex -444.461480478971 150.5583262198 8.99995767042784
  endloop
endfacet
facet normal -0.999999999476055 3.22561501429578e-005 -2.72580477589116e-006
  outer loop
    vertex -444.461351454341 152.558282243754 8.99995441371455
    vertex -444.46143940641 150.558370195851 17.599939307252
    vertex -444.46143940641 152.558370195823 17.5999317251622
  endloop
endfacet
facet normal -0.707105578857449 0.707107983513561 -2.3874229816477e-007
  outer loop
    vertex -446.461480478933 148.558333021227 8.99997233397909
    vertex -444.46143940641 150.558370195851 17.599939307252
    vertex -444.461480478971 150.5583262198 8.99995767042784
  endloop
endfacet
facet normal -0.707105578857449 0.707107983513561 -2.3874229816477e-007
  outer loop
    vertex -444.46143940641 150.558370195851 17.599939307252
    vertex -446.461480478933 148.558333021227 8.99997233397909
    vertex -446.461439406371 148.558376997278 17.5999539708032
  endloop
endfacet
facet normal -5.51793571631941e-010 0.599975785222016 0.800018160510888
  outer loop
    vertex -401.211496774777 139.558177175988 17.5999697056913
    vertex -451.461496774755 143.558388977563 14.6000000000004
    vertex -451.461496774755 139.558177160814 17.5999696905167
  endloop
endfacet
facet normal -5.51793571631941e-010 0.599975785222016 0.800018160510888
  outer loop
    vertex -451.461496774755 143.558388977563 14.6000000000004
    vertex -401.211496774777 139.558177175988 17.5999697056913
    vertex -401.211496774777 143.558389038262 14.6000000000004
  endloop
endfacet
facet normal 3.19330364311282e-007 2.27666559162785e-006 0.999999999997357
  outer loop
    vertex -401.211496774777 134.258389038262 17.6000000000004
    vertex -451.461496774755 139.558177160814 17.5999696905167
    vertex -451.461496774755 134.266177160814 17.5999696716414
  endloop
endfacet
facet normal 3.19330364311282e-007 2.27666559162785e-006 0.999999999997357
  outer loop
    vertex -451.461496774755 139.558177160814 17.5999696905167
    vertex -401.211496774777 134.258389038262 17.6000000000004
    vertex -401.211496774777 139.558177175988 17.5999697056913
  endloop
endfacet
facet normal 3.19330364311282e-007 2.27666559162785e-006 0.999999999997357
  outer loop
    vertex -459.461496774755 134.258388977563 17.6000000000003
    vertex -457.461496774755 136.258388983607 17.6000000000003
    vertex -459.461353917613 148.558421206072 17.6000000000003
  endloop
endfacet
facet normal 3.19330364311282e-007 2.27666559162785e-006 0.999999999997357
  outer loop
    vertex -457.461496774755 136.258388983607 17.6000000000003
    vertex -459.461496774755 134.258388977563 17.6000000000003
    vertex -451.461496774755 134.266177160814 17.5999696716414
  endloop
endfacet
facet normal 3.19330364311282e-007 2.27666559162785e-006 0.999999999997357
  outer loop
    vertex -457.461496774755 136.258388983607 17.6000000000003
    vertex -451.461496774755 134.266177160814 17.5999696716414
    vertex -453.461496774755 136.258388983607 17.6000000000003
  endloop
endfacet
facet normal 3.19330364311282e-007 2.27666559162785e-006 0.999999999997357
  outer loop
    vertex -453.461496774755 136.258388983607 17.6000000000003
    vertex -451.461496774755 134.266177160814 17.5999696716414
    vertex -453.441496774755 143.558388977563 17.5999696716413
  endloop
endfacet
facet normal 3.19330364311282e-007 2.27666559162785e-006 0.999999999997357
  outer loop
    vertex -453.441496774755 143.558388977563 17.5999696716413
    vertex -451.461496774755 134.266177160814 17.5999696716414
    vertex -451.461496774755 143.558388977563 17.5999696716413
  endloop
endfacet
facet normal 3.19330364311282e-007 2.27666559162785e-006 0.999999999997357
  outer loop
    vertex -451.461496774755 143.558388977563 17.5999696716413
    vertex -451.461496774755 134.266177160814 17.5999696716414
    vertex -451.461496774755 139.558177160814 17.5999696905167
  endloop
endfacet
facet normal 3.19330364311282e-007 2.27666559162785e-006 0.999999999997357
  outer loop
    vertex -446.461355349222 144.558421195867 17.6000000000004
    vertex -448.461496774755 146.558421195867 17.6000000000004
    vertex -448.461496774755 144.558421195867 17.6000000000004
  endloop
endfacet
facet normal 3.19330364311282e-007 2.27666559162785e-006 0.999999999997357
  outer loop
    vertex -448.461496774755 146.558421195867 17.6000000000004
    vertex -446.461355349222 144.558421195867 17.6000000000004
    vertex -446.461439406371 148.558376997278 17.5999539708032
  endloop
endfacet
facet normal 3.19330364311282e-007 2.27666559162785e-006 0.999999999997357
  outer loop
    vertex -446.461439406371 148.558376997278 17.5999539708032
    vertex -446.461355349222 144.558421195867 17.6000000000004
    vertex -444.46143940641 150.558370195851 17.599939307252
  endloop
endfacet
facet normal 3.19330364311282e-007 2.27666559162785e-006 0.999999999997357
  outer loop
    vertex -444.46143940641 150.558370195851 17.599939307252
    vertex -446.461355349222 144.558421195867 17.6000000000004
    vertex -442.461351454341 148.566070427062 17.5999696716414
  endloop
endfacet
facet normal 3.19330364311282e-007 2.27666559162785e-006 0.999999999997357
  outer loop
    vertex -444.46143940641 150.558370195851 17.599939307252
    vertex -442.461351454341 148.566070427062 17.5999696716414
    vertex -444.46143940641 152.558370195823 17.5999317251622
  endloop
endfacet
facet normal 3.19330364311282e-007 2.27666559162785e-006 0.999999999997357
  outer loop
    vertex -444.46143940641 152.558370195823 17.5999317251622
    vertex -442.461351454341 148.566070427062 17.5999696716414
    vertex -442.46143940641 150.55837019588 17.5999468963415
  endloop
endfacet
facet normal 3.19330364311282e-007 2.27666559162785e-006 0.999999999997357
  outer loop
    vertex -442.46143940641 150.55837019588 17.5999468963415
    vertex -440.461439406467 152.558370195938 17.5999468963415
    vertex -444.46143940641 152.558370195823 17.5999317251622
  endloop
endfacet
facet normal 3.19330364311282e-007 2.27666559162785e-006 0.999999999997357
  outer loop
    vertex -440.461439406467 152.558370195938 17.5999468963415
    vertex -442.46143940641 150.55837019588 17.5999468963415
    vertex -440.461439406467 150.558370195995 17.599962060521
  endloop
endfacet
facet normal 3.19330364311282e-007 2.27666559162785e-006 0.999999999997357
  outer loop
    vertex -459.461353917613 148.558421206072 17.6000000000003
    vertex -457.461496774755 146.558421195867 17.6000000000003
    vertex -446.461439406371 148.558376997278 17.5999539708032
  endloop
endfacet
facet normal 3.19330364311282e-007 2.27666559162785e-006 0.999999999997357
  outer loop
    vertex -457.461496774755 146.558421195867 17.6000000000003
    vertex -459.461353917613 148.558421206072 17.6000000000003
    vertex -457.461496774755 136.258388983607 17.6000000000003
  endloop
endfacet
facet normal 3.19330364311282e-007 2.27666559162785e-006 0.999999999997357
  outer loop
    vertex -446.461439406371 148.558376997278 17.5999539708032
    vertex -457.461496774755 146.558421195867 17.6000000000003
    vertex -448.461496774755 146.558421195867 17.6000000000004
  endloop
endfacet
facet normal 1.0 1.24332992018548e-014 2.27946191822829e-014
  outer loop
    vertex -401.211496774777 138.558389038262 9.00000000000039
    vertex -401.211496774777 139.558177175988 17.5999697056913
    vertex -401.211496774777 134.258389038262 17.6000000000004
  endloop
endfacet
facet normal 1.0 1.24332992018548e-014 2.27946191822829e-014
  outer loop
    vertex -401.211496774777 139.558177175988 17.5999697056913
    vertex -401.211496774777 138.558389038262 9.00000000000039
    vertex -401.211496774777 140.058389038262 9.00000000000038
  endloop
endfacet
facet normal 1.0 1.24332992018548e-014 2.27946191822829e-014
  outer loop
    vertex -401.211496774777 139.558177175988 17.5999697056913
    vertex -401.211496774777 140.058389038262 9.00000000000038
    vertex -401.211496774777 143.558389038262 14.6000000000004
  endloop
endfacet
facet normal 1.0 1.24332992018548e-014 2.27946191822829e-014
  outer loop
    vertex -401.211496774777 143.558389038262 14.6000000000004
    vertex -401.211496774777 140.058389038262 9.00000000000038
    vertex -401.211496774777 141.058389038262 10.0000000000004
  endloop
endfacet
facet normal 1.0 1.24332992018548e-014 2.27946191822829e-014
  outer loop
    vertex -401.211496774777 143.558389038262 14.6000000000004
    vertex -401.211496774777 141.058389038262 10.0000000000004
    vertex -401.211496774777 142.058389038262 9.00000000000036
  endloop
endfacet
facet normal 1.0 1.24332992018548e-014 2.27946191822829e-014
  outer loop
    vertex -401.211496774777 143.558389038262 14.6000000000004
    vertex -401.211496774777 142.058389038262 9.00000000000036
    vertex -401.211496774777 143.558389038262 9.00000000000035
  endloop
endfacet
facet normal -0.000138355129474421 -0.89442718243929 -0.447213591219645
  outer loop
    vertex -401.211496774777 138.558389038262 9.00000000000039
    vertex -451.461496774755 134.266177160814 17.5999696716414
    vertex -451.461496774755 138.566177160813 8.99996967164144
  endloop
endfacet
facet normal -0.000138355129474421 -0.89442718243929 -0.447213591219645
  outer loop
    vertex -451.461496774755 134.266177160814 17.5999696716414
    vertex -401.211496774777 138.558389038262 9.00000000000039
    vertex -401.211496774777 134.258389038262 17.6000000000004
  endloop
endfacet
facet normal 1.0 0.0 0.0
  outer loop
    vertex -451.461496774755 142.058389038262 9.0000000000004
    vertex -451.461496774755 141.058389038262 10.0000000000004
    vertex -451.461496774755 140.058389038262 9.00000000000042
  endloop
endfacet
facet normal -0.0 -0.707106781186551 -0.707106781186544
  outer loop
    vertex -401.211496774777 141.058389038262 10.0000000000004
    vertex -451.461496774755 142.058389038262 9.0000000000004
    vertex -401.211496774777 142.058389038262 9.00000000000036
  endloop
endfacet
facet normal -0.0 -0.707106781186551 -0.707106781186544
  outer loop
    vertex -451.461496774755 142.058389038262 9.0000000000004
    vertex -401.211496774777 141.058389038262 10.0000000000004
    vertex -451.461496774755 141.058389038262 10.0000000000004
  endloop
endfacet
facet normal 0.0 0.707106781186545 -0.70710678118655
  outer loop
    vertex -401.211496774777 141.058389038262 10.0000000000004
    vertex -451.461496774755 140.058389038262 9.00000000000042
    vertex -451.461496774755 141.058389038262 10.0000000000004
  endloop
endfacet
facet normal 0.0 0.707106781186545 -0.70710678118655
  outer loop
    vertex -451.461496774755 140.058389038262 9.00000000000042
    vertex -401.211496774777 141.058389038262 10.0000000000004
    vertex -401.211496774777 140.058389038262 9.00000000000038
  endloop
endfacet
endsolid AltAzTrackerSketchup Nema 17
