solid AltAzTrackerSketchup Nema 17
facet normal 5.34429000937856e-016 0.707106781184964 0.707106781188131
  outer loop
    vertex -257.971077640377 -31.1162619013338 12.8994920780822
    vertex -255.571077640377 -59.1176904237396 40.9009206003627
    vertex -255.571077640377 -31.1162619013338 12.8994920780822
  endloop
endfacet
facet normal 5.34429000937856e-016 0.707106781184964 0.707106781188131
  outer loop
    vertex -255.571077640377 -59.1176904237396 40.9009206003627
    vertex -257.971077640377 -31.1162619013338 12.8994920780822
    vertex -257.971077640377 -59.1176904237396 40.9009206003627
  endloop
endfacet
facet normal -5.34429000385255e-016 -0.707106781184964 -0.707106781188131
  outer loop
    vertex -257.971077640377 -64.8452553513122 23.7182258175168
    vertex -255.571077640377 -42.5713917565302 1.44436222283451
    vertex -255.571077640377 -64.8452553513122 23.7182258175168
  endloop
endfacet
facet normal -5.34429000385255e-016 -0.707106781184964 -0.707106781188131
  outer loop
    vertex -255.571077640377 -42.5713917565302 1.44436222283451
    vertex -257.971077640377 -64.8452553513122 23.7182258175168
    vertex -257.971077640377 -42.5713917565302 1.44436222283451
  endloop
endfacet
facet normal 6.77102372808587e-016 0.707106781188131 -0.707106781184964
  outer loop
    vertex -257.971077640377 -31.1162619013338 12.8994920780822
    vertex -255.571077640377 -42.5713917565302 1.44436222283451
    vertex -257.971077640377 -42.5713917565302 1.44436222283451
  endloop
endfacet
facet normal 6.77102372808587e-016 0.707106781188131 -0.707106781184964
  outer loop
    vertex -255.571077640377 -42.5713917565302 1.44436222283451
    vertex -257.971077640377 -31.1162619013338 12.8994920780822
    vertex -255.571077640377 -31.1162619013338 12.8994920780822
  endloop
endfacet
facet normal -2.11841666872182e-016 -0.130526192222272 0.991444861373518
  outer loop
    vertex -255.571077640377 -45.3582086562042 21.3431632271722
    vertex -257.971077968205 -45.8240829373886 21.2818297144915
    vertex -255.571077640377 -45.8240829373886 21.2818297144915
  endloop
endfacet
facet normal -2.11841666872182e-016 -0.130526192222272 0.991444861373518
  outer loop
    vertex -257.971077968205 -45.8240829373886 21.2818297144915
    vertex -255.571077640377 -45.3582086562042 21.3431632271722
    vertex -257.971077968205 -45.3582086562042 21.3431632271722
  endloop
endfacet
facet normal -6.01552685640707e-016 -0.608761429010503 0.793353340289868
  outer loop
    vertex -255.571077640377 -44.551290731254 21.8090375083585
    vertex -257.971077968205 -44.9240829373892 21.5229839876815
    vertex -255.571077640377 -44.9240829373892 21.5229839876815
  endloop
endfacet
facet normal -6.01552685640707e-016 -0.608761429010503 0.793353340289868
  outer loop
    vertex -257.971077968205 -44.9240829373892 21.5229839876815
    vertex -255.571077640377 -44.551290731254 21.8090375083585
    vertex -257.971077968205 -44.551290731254 21.8090375083585
  endloop
endfacet
facet normal 1.17972249864067e-017 0.130526192217834 0.991444861374102
  outer loop
    vertex -257.971077968205 -45.8240829373886 21.2818297144915
    vertex -255.571077640377 -46.2899572185733 21.3431632271701
    vertex -255.571077640377 -45.8240829373886 21.2818297144915
  endloop
endfacet
facet normal 1.17972249864067e-017 0.130526192217834 0.991444861374102
  outer loop
    vertex -255.571077640377 -46.2899572185733 21.3431632271701
    vertex -257.971077968205 -45.8240829373886 21.2818297144915
    vertex -257.971077968205 -46.2899572185733 21.3431632271701
  endloop
endfacet
facet normal -7.41066650649469e-016 -0.793353340292594 0.608761429006949
  outer loop
    vertex -255.571077640377 -44.2652372105786 22.181829714495
    vertex -257.971077968205 -44.551290731254 21.8090375083585
    vertex -255.571077640377 -44.551290731254 21.8090375083585
  endloop
endfacet
facet normal -7.41066650649469e-016 -0.793353340292594 0.608761429006949
  outer loop
    vertex -257.971077968205 -44.551290731254 21.8090375083585
    vertex -255.571077640377 -44.2652372105786 22.181829714495
    vertex -257.971077968205 -44.2652372105786 22.181829714495
  endloop
endfacet
facet normal -4.21043899218332e-016 -0.382683432367154 0.923879532510432
  outer loop
    vertex -255.571077640377 -44.9240829373892 21.5229839876815
    vertex -257.971077968205 -45.3582086562042 21.3431632271722
    vertex -255.571077640377 -45.3582086562042 21.3431632271722
  endloop
endfacet
facet normal -4.21043899218332e-016 -0.382683432367154 0.923879532510432
  outer loop
    vertex -257.971077968205 -45.3582086562042 21.3431632271722
    vertex -255.571077640377 -44.9240829373892 21.5229839876815
    vertex -257.971077968205 -44.9240829373892 21.5229839876815
  endloop
endfacet
facet normal 8.62521191501446e-016 0.991444861374103 -0.130526192217832
  outer loop
    vertex -257.971077968205 -47.562749424714 23.5477039956721
    vertex -255.571077640377 -47.6240829373927 23.0818297144874
    vertex -257.971077968205 -47.6240829373927 23.0818297144874
  endloop
endfacet
facet normal 8.62521191501446e-016 0.991444861374103 -0.130526192217832
  outer loop
    vertex -255.571077640377 -47.6240829373927 23.0818297144874
    vertex -257.971077968205 -47.562749424714 23.5477039956721
    vertex -255.571077640377 -47.562749424714 23.5477039956721
  endloop
endfacet
facet normal 8.36184841098706e-016 0.991444861373518 0.130526192222274
  outer loop
    vertex -257.971077968205 -47.5627494247119 22.615955433303
    vertex -255.571077640377 -47.6240829373927 23.0818297144874
    vertex -255.571077640377 -47.5627494247119 22.615955433303
  endloop
endfacet
facet normal 8.36184841098706e-016 0.991444861373518 0.130526192222274
  outer loop
    vertex -255.571077640377 -47.6240829373927 23.0818297144874
    vertex -257.971077968205 -47.5627494247119 22.615955433303
    vertex -257.971077968205 -47.6240829373927 23.0818297144874
  endloop
endfacet
facet normal 8.30078148087026e-016 0.923879532512146 -0.382683432363016
  outer loop
    vertex -257.971077968205 -47.3829286642067 23.981829714488
    vertex -255.571077640377 -47.562749424714 23.5477039956721
    vertex -257.971077968205 -47.562749424714 23.5477039956721
  endloop
endfacet
facet normal 8.30078148087026e-016 0.923879532512146 -0.382683432363016
  outer loop
    vertex -255.571077640377 -47.562749424714 23.5477039956721
    vertex -257.971077968205 -47.3829286642067 23.981829714488
    vertex -255.571077640377 -47.3829286642067 23.981829714488
  endloop
endfacet
facet normal 7.41066650649469e-016 0.793353340292594 -0.608761429006949
  outer loop
    vertex -257.971077968205 -47.0968751435313 24.3546219206244
    vertex -255.571077640377 -47.3829286642067 23.981829714488
    vertex -257.971077968205 -47.3829286642067 23.981829714488
  endloop
endfacet
facet normal 7.41066650649469e-016 0.793353340292594 -0.608761429006949
  outer loop
    vertex -255.571077640377 -47.3829286642067 23.981829714488
    vertex -257.971077968205 -47.0968751435313 24.3546219206244
    vertex -255.571077640377 -47.0968751435313 24.3546219206244
  endloop
endfacet
facet normal 4.41477292283111e-016 0.608761429006945 0.793353340292598
  outer loop
    vertex -257.971077968205 -46.7240829373892 21.5229839876775
    vertex -255.571077640377 -47.0968751435256 21.8090375083528
    vertex -255.571077640377 -46.7240829373892 21.5229839876775
  endloop
endfacet
facet normal 4.41477292283111e-016 0.608761429006945 0.793353340292598
  outer loop
    vertex -255.571077640377 -47.0968751435256 21.8090375083528
    vertex -257.971077968205 -46.7240829373892 21.5229839876775
    vertex -257.971077968205 -47.0968751435256 21.8090375083528
  endloop
endfacet
facet normal 4.21043899218332e-016 0.382683432367154 -0.923879532510432
  outer loop
    vertex -257.971077968205 -46.2899572185811 24.8204962018107
    vertex -255.571077640377 -46.7240829373962 24.6406754413015
    vertex -257.971077968205 -46.7240829373962 24.6406754413015
  endloop
endfacet
facet normal 4.21043899218332e-016 0.382683432367154 -0.923879532510432
  outer loop
    vertex -255.571077640377 -46.7240829373962 24.6406754413015
    vertex -257.971077968205 -46.2899572185811 24.8204962018107
    vertex -255.571077640377 -46.2899572185811 24.8204962018107
  endloop
endfacet
facet normal 7.52863875635879e-016 0.923879532510432 0.382683432367155
  outer loop
    vertex -257.971077968205 -47.3829286642026 22.181829714488
    vertex -255.571077640377 -47.5627494247119 22.615955433303
    vertex -255.571077640377 -47.3829286642026 22.181829714488
  endloop
endfacet
facet normal 7.52863875635879e-016 0.923879532510432 0.382683432367155
  outer loop
    vertex -255.571077640377 -47.5627494247119 22.615955433303
    vertex -257.971077968205 -47.3829286642026 22.181829714488
    vertex -257.971077968205 -47.5627494247119 22.615955433303
  endloop
endfacet
facet normal 6.01552685640707e-016 0.608761429010502 -0.793353340289868
  outer loop
    vertex -257.971077968205 -46.7240829373962 24.6406754413015
    vertex -255.571077640377 -47.0968751435313 24.3546219206244
    vertex -257.971077968205 -47.0968751435313 24.3546219206244
  endloop
endfacet
facet normal 6.01552685640707e-016 0.608761429010502 -0.793353340289868
  outer loop
    vertex -255.571077640377 -47.0968751435313 24.3546219206244
    vertex -257.971077968205 -46.7240829373962 24.6406754413015
    vertex -255.571077640377 -46.7240829373962 24.6406754413015
  endloop
endfacet
facet normal 2.11841666872183e-016 0.130526192222274 -0.991444861373518
  outer loop
    vertex -257.971077968205 -45.8240829373967 24.8818297144915
    vertex -255.571077640377 -46.2899572185811 24.8204962018107
    vertex -257.971077968205 -46.2899572185811 24.8204962018107
  endloop
endfacet
facet normal 2.11841666872183e-016 0.130526192222274 -0.991444861373518
  outer loop
    vertex -255.571077640377 -46.2899572185811 24.8204962018107
    vertex -257.971077968205 -45.8240829373967 24.8818297144915
    vertex -255.571077640377 -45.8240829373967 24.8818297144915
  endloop
endfacet
facet normal -1.17972249864067e-017 -0.130526192217834 -0.991444861374102
  outer loop
    vertex -257.971077968205 -45.8240829373967 24.8818297144915
    vertex -255.571077640377 -45.358208656212 24.8204962018128
    vertex -255.571077640377 -45.8240829373967 24.8818297144915
  endloop
endfacet
facet normal -1.17972249864067e-017 -0.130526192217834 -0.991444861374102
  outer loop
    vertex -255.571077640377 -45.358208656212 24.8204962018128
    vertex -257.971077968205 -45.8240829373967 24.8818297144915
    vertex -257.971077968205 -45.358208656212 24.8204962018128
  endloop
endfacet
facet normal 2.34632155458002e-016 0.382683432363019 0.923879532512145
  outer loop
    vertex -257.971077968205 -46.2899572185733 21.3431632271701
    vertex -255.571077640377 -46.7240829373892 21.5229839876775
    vertex -255.571077640377 -46.2899572185733 21.3431632271701
  endloop
endfacet
facet normal 2.34632155458002e-016 0.382683432363019 0.923879532512145
  outer loop
    vertex -255.571077640377 -46.7240829373892 21.5229839876775
    vertex -257.971077968205 -46.2899572185733 21.3431632271701
    vertex -257.971077968205 -46.7240829373892 21.5229839876775
  endloop
endfacet
facet normal 6.18236481214842e-016 0.793353340289871 0.608761429010498
  outer loop
    vertex -257.971077968205 -47.0968751435256 21.8090375083528
    vertex -255.571077640377 -47.3829286642026 22.181829714488
    vertex -255.571077640377 -47.0968751435256 21.8090375083528
  endloop
endfacet
facet normal 6.18236481214842e-016 0.793353340289871 0.608761429010498
  outer loop
    vertex -255.571077640377 -47.3829286642026 22.181829714488
    vertex -257.971077968205 -47.0968751435256 21.8090375083528
    vertex -257.971077968205 -47.3829286642026 22.181829714488
  endloop
endfacet
facet normal -6.18236481214842e-016 -0.793353340289871 -0.608761429010498
  outer loop
    vertex -257.971077968205 -44.5512907312597 24.3546219206301
    vertex -255.571077640377 -44.2652372105827 23.981829714495
    vertex -255.571077640377 -44.5512907312597 24.3546219206301
  endloop
endfacet
facet normal -6.18236481214842e-016 -0.793353340289871 -0.608761429010498
  outer loop
    vertex -255.571077640377 -44.2652372105827 23.981829714495
    vertex -257.971077968205 -44.5512907312597 24.3546219206301
    vertex -257.971077968205 -44.2652372105827 23.981829714495
  endloop
endfacet
facet normal -7.52863875635878e-016 -0.923879532510431 -0.382683432367157
  outer loop
    vertex -257.971077968205 -44.2652372105827 23.981829714495
    vertex -255.571077640377 -44.0854164500734 23.5477039956799
    vertex -255.571077640377 -44.2652372105827 23.981829714495
  endloop
endfacet
facet normal -7.52863875635878e-016 -0.923879532510431 -0.382683432367157
  outer loop
    vertex -255.571077640377 -44.0854164500734 23.5477039956799
    vertex -257.971077968205 -44.2652372105827 23.981829714495
    vertex -257.971077968205 -44.0854164500734 23.5477039956799
  endloop
endfacet
facet normal -8.36184841098706e-016 -0.991444861373518 -0.130526192222274
  outer loop
    vertex -257.971077968205 -44.0854164500734 23.5477039956799
    vertex -255.571077640377 -44.0240829373926 23.0818297144955
    vertex -255.571077640377 -44.0854164500734 23.5477039956799
  endloop
endfacet
facet normal -8.36184841098706e-016 -0.991444861373518 -0.130526192222274
  outer loop
    vertex -255.571077640377 -44.0240829373926 23.0818297144955
    vertex -257.971077968205 -44.0854164500734 23.5477039956799
    vertex -257.971077968205 -44.0240829373926 23.0818297144955
  endloop
endfacet
facet normal -2.34632155458002e-016 -0.382683432363019 -0.923879532512145
  outer loop
    vertex -257.971077968205 -45.358208656212 24.8204962018128
    vertex -255.571077640377 -44.9240829373962 24.6406754413055
    vertex -255.571077640377 -45.358208656212 24.8204962018128
  endloop
endfacet
facet normal -2.34632155458002e-016 -0.382683432363019 -0.923879532512145
  outer loop
    vertex -255.571077640377 -44.9240829373962 24.6406754413055
    vertex -257.971077968205 -45.358208656212 24.8204962018128
    vertex -257.971077968205 -44.9240829373962 24.6406754413055
  endloop
endfacet
facet normal -4.41477292283111e-016 -0.608761429006945 -0.793353340292598
  outer loop
    vertex -257.971077968205 -44.9240829373962 24.6406754413055
    vertex -255.571077640377 -44.5512907312597 24.3546219206301
    vertex -255.571077640377 -44.9240829373962 24.6406754413055
  endloop
endfacet
facet normal -4.41477292283111e-016 -0.608761429006945 -0.793353340292598
  outer loop
    vertex -255.571077640377 -44.5512907312597 24.3546219206301
    vertex -257.971077968205 -44.9240829373962 24.6406754413055
    vertex -257.971077968205 -44.5512907312597 24.3546219206301
  endloop
endfacet
facet normal -8.62521191501445e-016 -0.991444861374102 0.130526192217834
  outer loop
    vertex -255.571077640377 -44.0240829373926 23.0818297144955
    vertex -257.971077968205 -44.0854164500713 22.6159554333108
    vertex -255.571077640377 -44.0854164500713 22.6159554333108
  endloop
endfacet
facet normal -8.62521191501445e-016 -0.991444861374102 0.130526192217834
  outer loop
    vertex -257.971077968205 -44.0854164500713 22.6159554333108
    vertex -255.571077640377 -44.0240829373926 23.0818297144955
    vertex -257.971077968205 -44.0240829373926 23.0818297144955
  endloop
endfacet
facet normal -8.30078148087026e-016 -0.923879532512146 0.382683432363016
  outer loop
    vertex -255.571077640377 -44.0854164500713 22.6159554333108
    vertex -257.971077968205 -44.2652372105786 22.181829714495
    vertex -255.571077640377 -44.2652372105786 22.181829714495
  endloop
endfacet
facet normal -8.30078148087026e-016 -0.923879532512146 0.382683432363016
  outer loop
    vertex -257.971077968205 -44.2652372105786 22.181829714495
    vertex -255.571077640377 -44.0854164500713 22.6159554333108
    vertex -257.971077968205 -44.0854164500713 22.6159554333108
  endloop
endfacet
facet normal 2.34632155458002e-016 0.382683432363019 0.923879532512145
  outer loop
    vertex -257.971077688061 -59.5835647049102 34.6367707134474
    vertex -255.571077640377 -60.017690423726 34.8165914739548
    vertex -255.571077640377 -59.5835647049102 34.6367707134474
  endloop
endfacet
facet normal 2.34632155458002e-016 0.382683432363019 0.923879532512145
  outer loop
    vertex -255.571077640377 -60.017690423726 34.8165914739548
    vertex -257.971077688061 -59.5835647049102 34.6367707134474
    vertex -257.971077688061 -60.017690423726 34.8165914739548
  endloop
endfacet
facet normal 4.41477292283111e-016 0.608761429006945 0.793353340292598
  outer loop
    vertex -257.971077688061 -60.017690423726 34.8165914739548
    vertex -255.571077640377 -60.3904826298625 35.1026449946302
    vertex -255.571077640377 -60.017690423726 34.8165914739548
  endloop
endfacet
facet normal 4.41477292283111e-016 0.608761429006945 0.793353340292598
  outer loop
    vertex -255.571077640377 -60.3904826298625 35.1026449946302
    vertex -257.971077688061 -60.017690423726 34.8165914739548
    vertex -257.971077688061 -60.3904826298625 35.1026449946302
  endloop
endfacet
facet normal 6.18236481214842e-016 0.793353340289871 0.608761429010498
  outer loop
    vertex -257.971077688061 -60.3904826298625 35.1026449946302
    vertex -255.571077640377 -60.6765361505395 35.4754372007653
    vertex -255.571077640377 -60.3904826298625 35.1026449946302
  endloop
endfacet
facet normal 6.18236481214842e-016 0.793353340289871 0.608761429010498
  outer loop
    vertex -255.571077640377 -60.6765361505395 35.4754372007653
    vertex -257.971077688061 -60.3904826298625 35.1026449946302
    vertex -257.971077688061 -60.6765361505395 35.4754372007653
  endloop
endfacet
facet normal 7.52863875635879e-016 0.923879532510432 0.382683432367155
  outer loop
    vertex -257.971077688061 -60.6765361505395 35.4754372007653
    vertex -255.571077640377 -60.8563569110488 35.9095629195804
    vertex -255.571077640377 -60.6765361505395 35.4754372007653
  endloop
endfacet
facet normal 7.52863875635879e-016 0.923879532510432 0.382683432367155
  outer loop
    vertex -255.571077640377 -60.8563569110488 35.9095629195804
    vertex -257.971077688061 -60.6765361505395 35.4754372007653
    vertex -257.971077688061 -60.8563569110488 35.9095629195804
  endloop
endfacet
facet normal 8.62521191501445e-016 0.9914448613741 -0.130526192217851
  outer loop
    vertex -257.971077688061 -60.8563569110509 36.8413114819494
    vertex -255.571077640377 -60.9176904237295 36.3754372007648
    vertex -257.971077688061 -60.9176904237295 36.3754372007648
  endloop
endfacet
facet normal 8.62521191501445e-016 0.9914448613741 -0.130526192217851
  outer loop
    vertex -255.571077640377 -60.9176904237295 36.3754372007648
    vertex -257.971077688061 -60.8563569110509 36.8413114819494
    vertex -255.571077640377 -60.8563569110509 36.8413114819494
  endloop
endfacet
facet normal 1.17972249864067e-017 0.130526192217834 0.991444861374102
  outer loop
    vertex -257.971077688061 -59.1176904237255 34.5754372007688
    vertex -255.571077640377 -59.5835647049102 34.6367707134474
    vertex -255.571077640377 -59.1176904237255 34.5754372007688
  endloop
endfacet
facet normal 1.17972249864067e-017 0.130526192217834 0.991444861374102
  outer loop
    vertex -255.571077640377 -59.5835647049102 34.6367707134474
    vertex -257.971077688061 -59.1176904237255 34.5754372007688
    vertex -257.971077688061 -59.5835647049102 34.6367707134474
  endloop
endfacet
facet normal -2.11841666872198e-016 -0.130526192222291 0.991444861373516
  outer loop
    vertex -255.571077640377 -58.6518161425411 34.6367707134496
    vertex -257.971077688061 -59.1176904237255 34.5754372007688
    vertex -255.571077640377 -59.1176904237255 34.5754372007688
  endloop
endfacet
facet normal -2.11841666872198e-016 -0.130526192222291 0.991444861373516
  outer loop
    vertex -257.971077688061 -59.1176904237255 34.5754372007688
    vertex -255.571077640377 -58.6518161425411 34.6367707134496
    vertex -257.971077688061 -58.6518161425411 34.6367707134496
  endloop
endfacet
facet normal 8.30078148087031e-016 0.923879532512154 -0.382683432362996
  outer loop
    vertex -257.971077688061 -60.6765361505435 37.2754372007653
    vertex -255.571077640377 -60.8563569110509 36.8413114819494
    vertex -257.971077688061 -60.8563569110509 36.8413114819494
  endloop
endfacet
facet normal 8.30078148087031e-016 0.923879532512154 -0.382683432362996
  outer loop
    vertex -255.571077640377 -60.8563569110509 36.8413114819494
    vertex -257.971077688061 -60.6765361505435 37.2754372007653
    vertex -255.571077640377 -60.6765361505435 37.2754372007653
  endloop
endfacet
facet normal 7.41066650649469e-016 0.793353340292594 -0.608761429006949
  outer loop
    vertex -257.971077688061 -60.3904826298681 37.6482294069017
    vertex -255.571077640377 -60.6765361505435 37.2754372007653
    vertex -257.971077688061 -60.6765361505435 37.2754372007653
  endloop
endfacet
facet normal 7.41066650649469e-016 0.793353340292594 -0.608761429006949
  outer loop
    vertex -255.571077640377 -60.6765361505435 37.2754372007653
    vertex -257.971077688061 -60.3904826298681 37.6482294069017
    vertex -255.571077640377 -60.3904826298681 37.6482294069017
  endloop
endfacet
facet normal -4.21043899218315e-016 -0.382683432367133 0.92387953251044
  outer loop
    vertex -255.571077640377 -58.217690423726 34.8165914739588
    vertex -257.971077688061 -58.6518161425411 34.6367707134496
    vertex -255.571077640377 -58.6518161425411 34.6367707134496
  endloop
endfacet
facet normal -4.21043899218315e-016 -0.382683432367133 0.92387953251044
  outer loop
    vertex -257.971077688061 -58.6518161425411 34.6367707134496
    vertex -255.571077640377 -58.217690423726 34.8165914739588
    vertex -257.971077688061 -58.217690423726 34.8165914739588
  endloop
endfacet
facet normal 8.36184841098706e-016 0.991444861373518 0.130526192222274
  outer loop
    vertex -257.971077688061 -60.8563569110488 35.9095629195804
    vertex -255.571077640377 -60.9176904237295 36.3754372007648
    vertex -255.571077640377 -60.8563569110488 35.9095629195804
  endloop
endfacet
facet normal 8.36184841098706e-016 0.991444861373518 0.130526192222274
  outer loop
    vertex -255.571077640377 -60.9176904237295 36.3754372007648
    vertex -257.971077688061 -60.8563569110488 35.9095629195804
    vertex -257.971077688061 -60.9176904237295 36.3754372007648
  endloop
endfacet
facet normal -6.01552685640707e-016 -0.608761429010503 0.793353340289868
  outer loop
    vertex -255.571077640377 -57.8448982175909 35.1026449946359
    vertex -257.971077688061 -58.217690423726 34.8165914739588
    vertex -255.571077640377 -58.217690423726 34.8165914739588
  endloop
endfacet
facet normal -6.01552685640707e-016 -0.608761429010503 0.793353340289868
  outer loop
    vertex -257.971077688061 -58.217690423726 34.8165914739588
    vertex -255.571077640377 -57.8448982175909 35.1026449946359
    vertex -257.971077688061 -57.8448982175909 35.1026449946359
  endloop
endfacet
facet normal -7.41066650649469e-016 -0.793353340292594 0.608761429006949
  outer loop
    vertex -255.571077640377 -57.5588446969155 35.4754372007723
    vertex -257.971077688061 -57.8448982175909 35.1026449946359
    vertex -255.571077640377 -57.8448982175909 35.1026449946359
  endloop
endfacet
facet normal -7.41066650649469e-016 -0.793353340292594 0.608761429006949
  outer loop
    vertex -257.971077688061 -57.8448982175909 35.1026449946359
    vertex -255.571077640377 -57.5588446969155 35.4754372007723
    vertex -257.971077688061 -57.5588446969155 35.4754372007723
  endloop
endfacet
facet normal 6.01552685640707e-016 0.608761429010502 -0.793353340289868
  outer loop
    vertex -257.971077688061 -60.017690423733 37.9342829275788
    vertex -255.571077640377 -60.3904826298681 37.6482294069017
    vertex -257.971077688061 -60.3904826298681 37.6482294069017
  endloop
endfacet
facet normal 6.01552685640707e-016 0.608761429010502 -0.793353340289868
  outer loop
    vertex -255.571077640377 -60.3904826298681 37.6482294069017
    vertex -257.971077688061 -60.017690423733 37.9342829275788
    vertex -255.571077640377 -60.017690423733 37.9342829275788
  endloop
endfacet
facet normal 4.21043899218315e-016 0.382683432367133 -0.92387953251044
  outer loop
    vertex -257.971077688061 -59.5835647049179 38.1141036880881
    vertex -255.571077640377 -60.017690423733 37.9342829275788
    vertex -257.971077688061 -60.017690423733 37.9342829275788
  endloop
endfacet
facet normal 4.21043899218315e-016 0.382683432367133 -0.92387953251044
  outer loop
    vertex -255.571077640377 -60.017690423733 37.9342829275788
    vertex -257.971077688061 -59.5835647049179 38.1141036880881
    vertex -255.571077640377 -59.5835647049179 38.1141036880881
  endloop
endfacet
facet normal 2.11841666872199e-016 0.130526192222293 -0.991444861373515
  outer loop
    vertex -257.971077688061 -59.1176904237336 38.1754372007688
    vertex -255.571077640377 -59.5835647049179 38.1141036880881
    vertex -257.971077688061 -59.5835647049179 38.1141036880881
  endloop
endfacet
facet normal 2.11841666872199e-016 0.130526192222293 -0.991444861373515
  outer loop
    vertex -255.571077640377 -59.5835647049179 38.1141036880881
    vertex -257.971077688061 -59.1176904237336 38.1754372007688
    vertex -255.571077640377 -59.1176904237336 38.1754372007688
  endloop
endfacet
facet normal -4.41477292283111e-016 -0.608761429006945 -0.793353340292598
  outer loop
    vertex -257.971077688061 -58.217690423733 37.9342829275828
    vertex -255.571077640377 -57.8448982175966 37.6482294069074
    vertex -255.571077640377 -58.217690423733 37.9342829275828
  endloop
endfacet
facet normal -4.41477292283111e-016 -0.608761429006945 -0.793353340292598
  outer loop
    vertex -255.571077640377 -57.8448982175966 37.6482294069074
    vertex -257.971077688061 -58.217690423733 37.9342829275828
    vertex -257.971077688061 -57.8448982175966 37.6482294069074
  endloop
endfacet
facet normal -1.17972249864067e-017 -0.130526192217834 -0.991444861374102
  outer loop
    vertex -257.971077688061 -59.1176904237336 38.1754372007688
    vertex -255.571077640377 -58.6518161425489 38.1141036880902
    vertex -255.571077640377 -59.1176904237336 38.1754372007688
  endloop
endfacet
facet normal -1.17972249864067e-017 -0.130526192217834 -0.991444861374102
  outer loop
    vertex -255.571077640377 -58.6518161425489 38.1141036880902
    vertex -257.971077688061 -59.1176904237336 38.1754372007688
    vertex -257.971077688061 -58.6518161425489 38.1141036880902
  endloop
endfacet
facet normal -6.18236481214842e-016 -0.793353340289871 -0.608761429010498
  outer loop
    vertex -257.971077688061 -57.8448982175966 37.6482294069074
    vertex -255.571077640377 -57.5588446969195 37.2754372007723
    vertex -255.571077640377 -57.8448982175966 37.6482294069074
  endloop
endfacet
facet normal -6.18236481214842e-016 -0.793353340289871 -0.608761429010498
  outer loop
    vertex -255.571077640377 -57.5588446969195 37.2754372007723
    vertex -257.971077688061 -57.8448982175966 37.6482294069074
    vertex -257.971077688061 -57.5588446969195 37.2754372007723
  endloop
endfacet
facet normal -2.34632155458002e-016 -0.382683432363019 -0.923879532512145
  outer loop
    vertex -257.971077688061 -58.6518161425489 38.1141036880902
    vertex -255.571077640377 -58.217690423733 37.9342829275828
    vertex -255.571077640377 -58.6518161425489 38.1141036880902
  endloop
endfacet
facet normal -2.34632155458002e-016 -0.382683432363019 -0.923879532512145
  outer loop
    vertex -255.571077640377 -58.217690423733 37.9342829275828
    vertex -257.971077688061 -58.6518161425489 38.1141036880902
    vertex -257.971077688061 -58.217690423733 37.9342829275828
  endloop
endfacet
facet normal -7.52863875635878e-016 -0.923879532510431 -0.382683432367157
  outer loop
    vertex -257.971077688061 -57.5588446969195 37.2754372007723
    vertex -255.571077640377 -57.3790239364102 36.8413114819572
    vertex -255.571077640377 -57.5588446969195 37.2754372007723
  endloop
endfacet
facet normal -7.52863875635878e-016 -0.923879532510431 -0.382683432367157
  outer loop
    vertex -255.571077640377 -57.3790239364102 36.8413114819572
    vertex -257.971077688061 -57.5588446969195 37.2754372007723
    vertex -257.971077688061 -57.3790239364102 36.8413114819572
  endloop
endfacet
facet normal -8.36184841098706e-016 -0.991444861373518 -0.130526192222274
  outer loop
    vertex -257.971077688061 -57.3790239364102 36.8413114819572
    vertex -255.571077640377 -57.3176904237295 36.3754372007728
    vertex -255.571077640377 -57.3790239364102 36.8413114819572
  endloop
endfacet
facet normal -8.36184841098706e-016 -0.991444861373518 -0.130526192222274
  outer loop
    vertex -255.571077640377 -57.3176904237295 36.3754372007728
    vertex -257.971077688061 -57.3790239364102 36.8413114819572
    vertex -257.971077688061 -57.3176904237295 36.3754372007728
  endloop
endfacet
facet normal -8.62521191501445e-016 -0.9914448613741 0.130526192217853
  outer loop
    vertex -255.571077640377 -57.3176904237295 36.3754372007728
    vertex -257.971077688061 -57.3790239364082 35.9095629195882
    vertex -255.571077640377 -57.3790239364082 35.9095629195882
  endloop
endfacet
facet normal -8.62521191501445e-016 -0.9914448613741 0.130526192217853
  outer loop
    vertex -257.971077688061 -57.3790239364082 35.9095629195882
    vertex -255.571077640377 -57.3176904237295 36.3754372007728
    vertex -257.971077688061 -57.3176904237295 36.3754372007728
  endloop
endfacet
facet normal -8.30078148087031e-016 -0.923879532512154 0.382683432362996
  outer loop
    vertex -255.571077640377 -57.3790239364082 35.9095629195882
    vertex -257.971077688061 -57.5588446969155 35.4754372007723
    vertex -255.571077640377 -57.5588446969155 35.4754372007723
  endloop
endfacet
facet normal -8.30078148087031e-016 -0.923879532512154 0.382683432362996
  outer loop
    vertex -257.971077688061 -57.5588446969155 35.4754372007723
    vertex -255.571077640377 -57.3790239364082 35.9095629195882
    vertex -257.971077688061 -57.3790239364082 35.9095629195882
  endloop
endfacet
facet normal 8.8337241964208e-014 -0.707106781184964 -0.707106781188131
  outer loop
    vertex -257.97107764038 -59.6833758613121 31.5671111013431
    vertex -255.571077640376 -50.632409062104 22.5161443021758
    vertex -255.571077640376 -59.6833758613121 31.5671111013434
  endloop
endfacet
facet normal 8.8337241964208e-014 -0.707106781184964 -0.707106781188131
  outer loop
    vertex -255.571077640376 -50.632409062104 22.5161443021758
    vertex -257.97107764038 -59.6833758613121 31.5671111013431
    vertex -257.97107764038 -50.6324090621041 22.5161443021756
  endloop
endfacet
facet normal -4.65015577142119e-014 -0.707106781188131 0.707106781184964
  outer loop
    vertex -255.571077640375 -54.1679429680288 18.9806103962352
    vertex -257.97107764038 -50.6324090621041 22.5161443021756
    vertex -257.971077640379 -54.1679429680289 18.9806103962349
  endloop
endfacet
facet normal -4.65015577142119e-014 -0.707106781188131 0.707106781184964
  outer loop
    vertex -257.97107764038 -50.6324090621041 22.5161443021756
    vertex -255.571077640375 -54.1679429680288 18.9806103962352
    vertex -255.571077640376 -50.632409062104 22.5161443021758
  endloop
endfacet
facet normal -8.8337241964208e-014 0.707106781184964 0.707106781188131
  outer loop
    vertex -257.971077640379 -54.1679429680289 18.9806103962349
    vertex -255.571077640376 -63.2189097672369 28.0315771954027
    vertex -255.571077640375 -54.1679429680288 18.9806103962352
  endloop
endfacet
facet normal -8.8337241964208e-014 0.707106781184964 0.707106781188131
  outer loop
    vertex -255.571077640376 -63.2189097672369 28.0315771954027
    vertex -257.971077640379 -54.1679429680289 18.9806103962349
    vertex -257.97107764038 -63.218909767237 28.0315771954025
  endloop
endfacet
facet normal 4.65015577142119e-014 0.707106781188131 -0.707106781184964
  outer loop
    vertex -257.97107764038 -59.6833758613121 31.5671111013431
    vertex -255.571077640376 -63.2189097672369 28.0315771954027
    vertex -257.97107764038 -63.218909767237 28.0315771954025
  endloop
endfacet
facet normal 4.65015577142119e-014 0.707106781188131 -0.707106781184964
  outer loop
    vertex -255.571077640376 -63.2189097672369 28.0315771954027
    vertex -257.97107764038 -59.6833758613121 31.5671111013431
    vertex -255.571077640376 -59.6833758613121 31.5671111013434
  endloop
endfacet
facet normal -1.0 -6.49457530156339e-016 -1.25280063031179e-015
  outer loop
    vertex -257.971077640377 -42.5713917565302 1.44436222283451
    vertex -257.971077640378 -47.7332712592096 9.29324749399365
    vertex -257.971077640377 -31.1162619013338 12.8994920780822
  endloop
endfacet
facet normal -1.0 -6.49457530156339e-016 -1.25280063031179e-015
  outer loop
    vertex -257.971077640378 -47.7332712592096 9.29324749399365
    vertex -257.971077640377 -42.5713917565302 1.44436222283451
    vertex -257.971077640377 -64.8452553513122 23.7182258175168
  endloop
endfacet
facet normal -1.0 -6.49457530156339e-016 -1.25280063031179e-015
  outer loop
    vertex -257.971077640378 -47.7332712592096 9.29324749399365
    vertex -257.971077640377 -64.8452553513122 23.7182258175168
    vertex -257.971077640379 -50.5616983839621 12.1216746187335
  endloop
endfacet
facet normal -1.0 -6.49457530156339e-016 -1.25280063031179e-015
  outer loop
    vertex -257.971077640379 -50.5616983839621 12.1216746187335
    vertex -257.971077640377 -64.8452553513122 23.7182258175168
    vertex -257.971077640379 -54.1679429680289 18.9806103962349
  endloop
endfacet
facet normal -1.0 -6.49457530156339e-016 -1.25280063031179e-015
  outer loop
    vertex -257.971077640379 -50.5616983839621 12.1216746187335
    vertex -257.971077640379 -54.1679429680289 18.9806103962349
    vertex -257.971077968205 -45.3582086562042 21.3431632271722
  endloop
endfacet
facet normal -1.0 -6.49457530156339e-016 -1.25280063031179e-015
  outer loop
    vertex -257.971077640379 -50.5616983839621 12.1216746187335
    vertex -257.971077968205 -45.3582086562042 21.3431632271722
    vertex -257.971077968205 -44.9240829373892 21.5229839876815
  endloop
endfacet
facet normal -1.0 -6.49457530156339e-016 -1.25280063031179e-015
  outer loop
    vertex -257.971077640379 -50.5616983839621 12.1216746187335
    vertex -257.971077968205 -44.9240829373892 21.5229839876815
    vertex -257.971077968205 -44.551290731254 21.8090375083585
  endloop
endfacet
facet normal -1.0 -6.49457530156339e-016 -1.25280063031179e-015
  outer loop
    vertex -257.971077968205 -45.3582086562042 21.3431632271722
    vertex -257.971077640379 -54.1679429680289 18.9806103962349
    vertex -257.971077968205 -45.8240829373886 21.2818297144915
  endloop
endfacet
facet normal -1.0 -6.49457530156339e-016 -1.25280063031179e-015
  outer loop
    vertex -257.971077968205 -45.8240829373886 21.2818297144915
    vertex -257.971077640379 -54.1679429680289 18.9806103962349
    vertex -257.971077968205 -46.2899572185733 21.3431632271701
  endloop
endfacet
facet normal -1.0 -6.49457530156339e-016 -1.25280063031179e-015
  outer loop
    vertex -257.971077968205 -46.2899572185733 21.3431632271701
    vertex -257.971077640379 -54.1679429680289 18.9806103962349
    vertex -257.971077968205 -46.7240829373892 21.5229839876775
  endloop
endfacet
facet normal -1.0 -6.49457530156339e-016 -1.25280063031179e-015
  outer loop
    vertex -257.971077968205 -46.7240829373892 21.5229839876775
    vertex -257.971077640379 -54.1679429680289 18.9806103962349
    vertex -257.971077968205 -47.0968751435256 21.8090375083528
  endloop
endfacet
facet normal -1.0 -6.49457530156339e-016 -1.25280063031179e-015
  outer loop
    vertex -257.971077968205 -47.0968751435256 21.8090375083528
    vertex -257.971077640379 -54.1679429680289 18.9806103962349
    vertex -257.971077968205 -47.3829286642026 22.181829714488
  endloop
endfacet
facet normal -1.0 -6.49457530156339e-016 -1.25280063031179e-015
  outer loop
    vertex -257.971077968205 -47.3829286642026 22.181829714488
    vertex -257.971077640379 -54.1679429680289 18.9806103962349
    vertex -257.971077968205 -47.5627494247119 22.615955433303
  endloop
endfacet
facet normal -1.0 -6.49457530156339e-016 -1.25280063031179e-015
  outer loop
    vertex -257.971077968205 -47.5627494247119 22.615955433303
    vertex -257.971077640379 -54.1679429680289 18.9806103962349
    vertex -257.971077968205 -47.6240829373927 23.0818297144874
  endloop
endfacet
facet normal -1.0 -6.49457530156339e-016 -1.25280063031179e-015
  outer loop
    vertex -257.971077968205 -47.6240829373927 23.0818297144874
    vertex -257.971077640379 -54.1679429680289 18.9806103962349
    vertex -257.971077968205 -47.562749424714 23.5477039956721
  endloop
endfacet
facet normal -1.0 -6.49457530156339e-016 -1.25280063031179e-015
  outer loop
    vertex -257.971077968205 -47.562749424714 23.5477039956721
    vertex -257.971077640379 -54.1679429680289 18.9806103962349
    vertex -257.971077968205 -47.3829286642067 23.981829714488
  endloop
endfacet
facet normal -1.0 -6.49457530156339e-016 -1.25280063031179e-015
  outer loop
    vertex -257.971077968205 -47.3829286642067 23.981829714488
    vertex -257.971077640379 -54.1679429680289 18.9806103962349
    vertex -257.971077968205 -47.0968751435313 24.3546219206244
  endloop
endfacet
facet normal -1.0 -6.49457530156339e-016 -1.25280063031179e-015
  outer loop
    vertex -257.971077640379 -54.1679429680289 18.9806103962349
    vertex -257.971077640377 -64.8452553513122 23.7182258175168
    vertex -257.97107764038 -63.218909767237 28.0315771954025
  endloop
endfacet
facet normal -1.0 -6.49457530156339e-016 -1.25280063031179e-015
  outer loop
    vertex -257.97107764038 -63.218909767237 28.0315771954025
    vertex -257.971077640377 -64.8452553513122 23.7182258175168
    vertex -257.971077640377 -64.8452553513379 35.1733556727389
  endloop
endfacet
facet normal -1.0 -6.49457530156339e-016 -1.25280063031179e-015
  outer loop
    vertex -257.97107764038 -63.218909767237 28.0315771954025
    vertex -257.971077640377 -64.8452553513379 35.1733556727389
    vertex -257.971077688061 -59.1176904237255 34.5754372007688
  endloop
endfacet
facet normal -1.0 -6.49457530156339e-016 -1.25280063031179e-015
  outer loop
    vertex -257.97107764038 -63.218909767237 28.0315771954025
    vertex -257.971077688061 -59.1176904237255 34.5754372007688
    vertex -257.971077688061 -58.6518161425411 34.6367707134496
  endloop
endfacet
facet normal -1.0 -6.49457530156339e-016 -1.25280063031179e-015
  outer loop
    vertex -257.97107764038 -63.218909767237 28.0315771954025
    vertex -257.971077688061 -58.6518161425411 34.6367707134496
    vertex -257.971077688061 -58.217690423726 34.8165914739588
  endloop
endfacet
facet normal -1.0 -6.49457530156339e-016 -1.25280063031179e-015
  outer loop
    vertex -257.97107764038 -63.218909767237 28.0315771954025
    vertex -257.971077688061 -58.217690423726 34.8165914739588
    vertex -257.971077688061 -57.8448982175909 35.1026449946359
  endloop
endfacet
facet normal -1.0 -6.49457530156339e-016 -1.25280063031179e-015
  outer loop
    vertex -257.971077688061 -59.1176904237255 34.5754372007688
    vertex -257.971077640377 -64.8452553513379 35.1733556727389
    vertex -257.971077688061 -59.5835647049102 34.6367707134474
  endloop
endfacet
facet normal -1.0 -6.49457530156339e-016 -1.25280063031179e-015
  outer loop
    vertex -257.971077688061 -59.5835647049102 34.6367707134474
    vertex -257.971077640377 -64.8452553513379 35.1733556727389
    vertex -257.971077688061 -60.017690423726 34.8165914739548
  endloop
endfacet
facet normal -1.0 -6.49457530156339e-016 -1.25280063031179e-015
  outer loop
    vertex -257.971077688061 -60.017690423726 34.8165914739548
    vertex -257.971077640377 -64.8452553513379 35.1733556727389
    vertex -257.971077688061 -60.3904826298625 35.1026449946302
  endloop
endfacet
facet normal -1.0 -6.49457530156339e-016 -1.25280063031179e-015
  outer loop
    vertex -257.971077688061 -60.3904826298625 35.1026449946302
    vertex -257.971077640377 -64.8452553513379 35.1733556727389
    vertex -257.971077688061 -60.6765361505395 35.4754372007653
  endloop
endfacet
facet normal -1.0 -6.49457530156339e-016 -1.25280063031179e-015
  outer loop
    vertex -257.971077688061 -60.6765361505395 35.4754372007653
    vertex -257.971077640377 -64.8452553513379 35.1733556727389
    vertex -257.971077688061 -60.8563569110488 35.9095629195804
  endloop
endfacet
facet normal -1.0 -6.49457530156339e-016 -1.25280063031179e-015
  outer loop
    vertex -257.971077688061 -60.8563569110488 35.9095629195804
    vertex -257.971077640377 -64.8452553513379 35.1733556727389
    vertex -257.971077688061 -60.9176904237295 36.3754372007648
  endloop
endfacet
facet normal -1.0 -6.49457530156339e-016 -1.25280063031179e-015
  outer loop
    vertex -257.971077688061 -60.9176904237295 36.3754372007648
    vertex -257.971077640377 -64.8452553513379 35.1733556727389
    vertex -257.971077688061 -60.8563569110509 36.8413114819494
  endloop
endfacet
facet normal -1.0 -6.49457530156339e-016 -1.25280063031179e-015
  outer loop
    vertex -257.971077688061 -60.8563569110509 36.8413114819494
    vertex -257.971077640377 -64.8452553513379 35.1733556727389
    vertex -257.971077688061 -60.6765361505435 37.2754372007653
  endloop
endfacet
facet normal -1.0 -6.49457530156339e-016 -1.25280063031179e-015
  outer loop
    vertex -257.971077688061 -60.6765361505435 37.2754372007653
    vertex -257.971077640377 -64.8452553513379 35.1733556727389
    vertex -257.971077688061 -60.3904826298681 37.6482294069017
  endloop
endfacet
facet normal -1.0 -6.49457530156339e-016 -1.25280063031179e-015
  outer loop
    vertex -257.971077688061 -60.3904826298681 37.6482294069017
    vertex -257.971077640377 -64.8452553513379 35.1733556727389
    vertex -257.971077640377 -59.1176904237396 40.9009206003627
  endloop
endfacet
facet normal -1.0 -6.49457530156339e-016 -1.25280063031179e-015
  outer loop
    vertex -257.971077640377 -31.1162619013338 12.8994920780822
    vertex -257.971077640378 -38.9651471725161 18.0613715807265
    vertex -257.971077640377 -59.1176904237396 40.9009206003627
  endloop
endfacet
facet normal -1.0 -6.49457530156339e-016 -1.25280063031179e-015
  outer loop
    vertex -257.971077640378 -38.9651471725161 18.0613715807265
    vertex -257.971077640377 -31.1162619013338 12.8994920780822
    vertex -257.971077640378 -47.7332712592096 9.29324749399365
  endloop
endfacet
facet normal -1.0 -6.49457530156339e-016 -1.25280063031179e-015
  outer loop
    vertex -257.971077640377 -59.1176904237396 40.9009206003627
    vertex -257.971077640378 -38.9651471725161 18.0613715807265
    vertex -257.971077968205 -44.5512907312597 24.3546219206301
  endloop
endfacet
facet normal -1.0 -6.49457530156339e-016 -1.25280063031179e-015
  outer loop
    vertex -257.971077968205 -44.5512907312597 24.3546219206301
    vertex -257.971077640378 -38.9651471725161 18.0613715807265
    vertex -257.971077640379 -41.7935742972686 20.8897987054663
  endloop
endfacet
facet normal -1.0 -6.49457530156339e-016 -1.25280063031179e-015
  outer loop
    vertex -257.971077968205 -44.5512907312597 24.3546219206301
    vertex -257.971077640379 -41.7935742972686 20.8897987054663
    vertex -257.971077968205 -44.2652372105827 23.981829714495
  endloop
endfacet
facet normal -1.0 -6.49457530156339e-016 -1.25280063031179e-015
  outer loop
    vertex -257.971077968205 -44.2652372105827 23.981829714495
    vertex -257.971077640379 -41.7935742972686 20.8897987054663
    vertex -257.971077968205 -44.0854164500734 23.5477039956799
  endloop
endfacet
facet normal -1.0 -6.49457530156339e-016 -1.25280063031179e-015
  outer loop
    vertex -257.971077968205 -44.0854164500734 23.5477039956799
    vertex -257.971077640379 -41.7935742972686 20.8897987054663
    vertex -257.971077968205 -44.0240829373926 23.0818297144955
  endloop
endfacet
facet normal -1.0 -6.49457530156339e-016 -1.25280063031179e-015
  outer loop
    vertex -257.971077968205 -44.0240829373926 23.0818297144955
    vertex -257.971077640379 -41.7935742972686 20.8897987054663
    vertex -257.971077968205 -44.0854164500713 22.6159554333108
  endloop
endfacet
facet normal -1.0 -6.49457530156339e-016 -1.25280063031179e-015
  outer loop
    vertex -257.971077968205 -44.0854164500713 22.6159554333108
    vertex -257.971077640379 -41.7935742972686 20.8897987054663
    vertex -257.971077968205 -44.2652372105786 22.181829714495
  endloop
endfacet
facet normal -1.0 -6.49457530156339e-016 -1.25280063031179e-015
  outer loop
    vertex -257.971077968205 -44.2652372105786 22.181829714495
    vertex -257.971077640379 -41.7935742972686 20.8897987054663
    vertex -257.971077640379 -50.5616983839621 12.1216746187335
  endloop
endfacet
facet normal -1.0 -6.49457530156339e-016 -1.25280063031179e-015
  outer loop
    vertex -257.971077968205 -44.2652372105786 22.181829714495
    vertex -257.971077640379 -50.5616983839621 12.1216746187335
    vertex -257.971077968205 -44.551290731254 21.8090375083585
  endloop
endfacet
facet normal -1.0 -6.49457530156339e-016 -1.25280063031179e-015
  outer loop
    vertex -257.971077640377 -59.1176904237396 40.9009206003627
    vertex -257.971077968205 -44.5512907312597 24.3546219206301
    vertex -257.971077968205 -44.9240829373962 24.6406754413055
  endloop
endfacet
facet normal -1.0 -6.49457530156339e-016 -1.25280063031179e-015
  outer loop
    vertex -257.971077640377 -59.1176904237396 40.9009206003627
    vertex -257.971077968205 -44.9240829373962 24.6406754413055
    vertex -257.971077968205 -45.358208656212 24.8204962018128
  endloop
endfacet
facet normal -1.0 -6.49457530156339e-016 -1.25280063031179e-015
  outer loop
    vertex -257.971077640377 -59.1176904237396 40.9009206003627
    vertex -257.971077968205 -45.358208656212 24.8204962018128
    vertex -257.971077968205 -45.8240829373967 24.8818297144915
  endloop
endfacet
facet normal -1.0 -6.49457530156339e-016 -1.25280063031179e-015
  outer loop
    vertex -257.971077640377 -59.1176904237396 40.9009206003627
    vertex -257.971077968205 -45.8240829373967 24.8818297144915
    vertex -257.971077968205 -46.2899572185811 24.8204962018107
  endloop
endfacet
facet normal -1.0 -6.49457530156339e-016 -1.25280063031179e-015
  outer loop
    vertex -257.971077640377 -59.1176904237396 40.9009206003627
    vertex -257.971077968205 -46.2899572185811 24.8204962018107
    vertex -257.971077968205 -46.7240829373962 24.6406754413015
  endloop
endfacet
facet normal -1.0 -6.49457530156339e-016 -1.25280063031179e-015
  outer loop
    vertex -257.971077640377 -59.1176904237396 40.9009206003627
    vertex -257.971077968205 -46.7240829373962 24.6406754413015
    vertex -257.971077968205 -47.0968751435313 24.3546219206244
  endloop
endfacet
facet normal -1.0 -6.49457530156339e-016 -1.25280063031179e-015
  outer loop
    vertex -257.971077640377 -59.1176904237396 40.9009206003627
    vertex -257.971077968205 -47.0968751435313 24.3546219206244
    vertex -257.97107764038 -50.6324090621041 22.5161443021756
  endloop
endfacet
facet normal -1.0 -6.49457530156339e-016 -1.25280063031179e-015
  outer loop
    vertex -257.97107764038 -50.6324090621041 22.5161443021756
    vertex -257.971077968205 -47.0968751435313 24.3546219206244
    vertex -257.971077640379 -54.1679429680289 18.9806103962349
  endloop
endfacet
facet normal -1.0 -6.49457530156339e-016 -1.25280063031179e-015
  outer loop
    vertex -257.971077640377 -59.1176904237396 40.9009206003627
    vertex -257.97107764038 -50.6324090621041 22.5161443021756
    vertex -257.971077688061 -57.5588446969195 37.2754372007723
  endloop
endfacet
facet normal -1.0 -6.49457530156339e-016 -1.25280063031179e-015
  outer loop
    vertex -257.971077688061 -57.5588446969195 37.2754372007723
    vertex -257.97107764038 -50.6324090621041 22.5161443021756
    vertex -257.971077688061 -57.3790239364102 36.8413114819572
  endloop
endfacet
facet normal -1.0 -6.49457530156339e-016 -1.25280063031179e-015
  outer loop
    vertex -257.971077688061 -57.3790239364102 36.8413114819572
    vertex -257.97107764038 -50.6324090621041 22.5161443021756
    vertex -257.971077688061 -57.3176904237295 36.3754372007728
  endloop
endfacet
facet normal -1.0 -6.49457530156339e-016 -1.25280063031179e-015
  outer loop
    vertex -257.971077688061 -57.3176904237295 36.3754372007728
    vertex -257.97107764038 -50.6324090621041 22.5161443021756
    vertex -257.971077688061 -57.3790239364082 35.9095629195882
  endloop
endfacet
facet normal -1.0 -6.49457530156339e-016 -1.25280063031179e-015
  outer loop
    vertex -257.971077688061 -57.3790239364082 35.9095629195882
    vertex -257.97107764038 -50.6324090621041 22.5161443021756
    vertex -257.971077688061 -57.5588446969155 35.4754372007723
  endloop
endfacet
facet normal -1.0 -6.49457530156339e-016 -1.25280063031179e-015
  outer loop
    vertex -257.971077688061 -57.5588446969155 35.4754372007723
    vertex -257.97107764038 -50.6324090621041 22.5161443021756
    vertex -257.97107764038 -59.6833758613121 31.5671111013431
  endloop
endfacet
facet normal -1.0 -6.49457530156339e-016 -1.25280063031179e-015
  outer loop
    vertex -257.971077688061 -57.5588446969155 35.4754372007723
    vertex -257.97107764038 -59.6833758613121 31.5671111013431
    vertex -257.97107764038 -63.218909767237 28.0315771954025
  endloop
endfacet
facet normal -1.0 -6.49457530156339e-016 -1.25280063031179e-015
  outer loop
    vertex -257.971077688061 -57.5588446969155 35.4754372007723
    vertex -257.97107764038 -63.218909767237 28.0315771954025
    vertex -257.971077688061 -57.8448982175909 35.1026449946359
  endloop
endfacet
facet normal -1.0 -6.49457530156339e-016 -1.25280063031179e-015
  outer loop
    vertex -257.971077640377 -59.1176904237396 40.9009206003627
    vertex -257.971077688061 -57.5588446969195 37.2754372007723
    vertex -257.971077688061 -57.8448982175966 37.6482294069074
  endloop
endfacet
facet normal -1.0 -6.49457530156339e-016 -1.25280063031179e-015
  outer loop
    vertex -257.971077640377 -59.1176904237396 40.9009206003627
    vertex -257.971077688061 -57.8448982175966 37.6482294069074
    vertex -257.971077688061 -58.217690423733 37.9342829275828
  endloop
endfacet
facet normal -1.0 -6.49457530156339e-016 -1.25280063031179e-015
  outer loop
    vertex -257.971077640377 -59.1176904237396 40.9009206003627
    vertex -257.971077688061 -58.217690423733 37.9342829275828
    vertex -257.971077688061 -58.6518161425489 38.1141036880902
  endloop
endfacet
facet normal -1.0 -6.49457530156339e-016 -1.25280063031179e-015
  outer loop
    vertex -257.971077640377 -59.1176904237396 40.9009206003627
    vertex -257.971077688061 -58.6518161425489 38.1141036880902
    vertex -257.971077688061 -59.1176904237336 38.1754372007688
  endloop
endfacet
facet normal -1.0 -6.49457530156339e-016 -1.25280063031179e-015
  outer loop
    vertex -257.971077640377 -59.1176904237396 40.9009206003627
    vertex -257.971077688061 -59.1176904237336 38.1754372007688
    vertex -257.971077688061 -59.5835647049179 38.1141036880881
  endloop
endfacet
facet normal -1.0 -6.49457530156339e-016 -1.25280063031179e-015
  outer loop
    vertex -257.971077640377 -59.1176904237396 40.9009206003627
    vertex -257.971077688061 -59.5835647049179 38.1141036880881
    vertex -257.971077688061 -60.017690423733 37.9342829275788
  endloop
endfacet
facet normal -1.0 -6.49457530156339e-016 -1.25280063031179e-015
  outer loop
    vertex -257.971077640377 -59.1176904237396 40.9009206003627
    vertex -257.971077688061 -60.017690423733 37.9342829275788
    vertex -257.971077688061 -60.3904826298681 37.6482294069017
  endloop
endfacet
facet normal -9.47190367907081e-015 0.707106781184964 0.707106781188131
  outer loop
    vertex -257.971077640378 -47.7332712592096 9.29324749399365
    vertex -255.571077640378 -50.5616983839622 12.1216746187336
    vertex -255.571077640377 -47.7332712592097 9.29324749399378
  endloop
endfacet
facet normal -9.47190367907081e-015 0.707106781184964 0.707106781188131
  outer loop
    vertex -255.571077640378 -50.5616983839622 12.1216746187336
    vertex -257.971077640378 -47.7332712592096 9.29324749399365
    vertex -257.971077640379 -50.5616983839621 12.1216746187335
  endloop
endfacet
facet normal 6.27163649888624e-014 0.707106781188131 -0.707106781184964
  outer loop
    vertex -257.971077640379 -41.7935742972686 20.8897987054663
    vertex -255.571077640378 -50.5616983839622 12.1216746187336
    vertex -257.971077640379 -50.5616983839621 12.1216746187335
  endloop
endfacet
facet normal 6.27163649888624e-014 0.707106781188131 -0.707106781184964
  outer loop
    vertex -255.571077640378 -50.5616983839622 12.1216746187336
    vertex -257.971077640379 -41.7935742972686 20.8897987054663
    vertex -255.571077640378 -41.7935742972687 20.8897987054664
  endloop
endfacet
facet normal 9.47190367907081e-015 -0.707106781184964 -0.707106781188131
  outer loop
    vertex -255.571077640378 -41.7935742972687 20.8897987054664
    vertex -257.971077640378 -38.9651471725161 18.0613715807265
    vertex -255.571077640378 -38.9651471725161 18.0613715807266
  endloop
endfacet
facet normal 9.47190367907081e-015 -0.707106781184964 -0.707106781188131
  outer loop
    vertex -257.971077640378 -38.9651471725161 18.0613715807265
    vertex -255.571077640378 -41.7935742972687 20.8897987054664
    vertex -257.971077640379 -41.7935742972686 20.8897987054663
  endloop
endfacet
facet normal -6.27163649888624e-014 -0.707106781188131 0.707106781184964
  outer loop
    vertex -255.571077640377 -47.7332712592097 9.29324749399378
    vertex -257.971077640378 -38.9651471725161 18.0613715807265
    vertex -257.971077640378 -47.7332712592096 9.29324749399365
  endloop
endfacet
facet normal -6.27163649888624e-014 -0.707106781188131 0.707106781184964
  outer loop
    vertex -257.971077640378 -38.9651471725161 18.0613715807265
    vertex -255.571077640377 -47.7332712592097 9.29324749399378
    vertex -255.571077640378 -38.9651471725161 18.0613715807266
  endloop
endfacet
facet normal -6.77102372808584e-016 -0.707106781188127 0.707106781184968
  outer loop
    vertex -255.571077640377 -59.1176904237396 40.9009206003627
    vertex -257.971077640377 -64.8452553513379 35.1733556727389
    vertex -255.571077640377 -64.8452553513379 35.1733556727389
  endloop
endfacet
facet normal -6.77102372808584e-016 -0.707106781188127 0.707106781184968
  outer loop
    vertex -257.971077640377 -64.8452553513379 35.1733556727389
    vertex -255.571077640377 -59.1176904237396 40.9009206003627
    vertex -257.971077640377 -59.1176904237396 40.9009206003627
  endloop
endfacet
facet normal 1.0 -8.56682049996589e-016 1.00885308742626e-016
  outer loop
    vertex -255.571077640377 -31.1162619013338 12.8994920780822
    vertex -255.571077640378 -38.9651471725161 18.0613715807266
    vertex -255.571077640377 -42.5713917565302 1.44436222283451
  endloop
endfacet
facet normal 1.0 -8.56682049996589e-016 1.00885308742626e-016
  outer loop
    vertex -255.571077640378 -38.9651471725161 18.0613715807266
    vertex -255.571077640377 -31.1162619013338 12.8994920780822
    vertex -255.571077640377 -59.1176904237396 40.9009206003627
  endloop
endfacet
facet normal 1.0 -8.56682049996589e-016 1.00885308742626e-016
  outer loop
    vertex -255.571077640378 -38.9651471725161 18.0613715807266
    vertex -255.571077640377 -59.1176904237396 40.9009206003627
    vertex -255.571077640377 -44.5512907312597 24.3546219206301
  endloop
endfacet
facet normal 1.0 -8.56682049996589e-016 1.00885308742626e-016
  outer loop
    vertex -255.571077640378 -38.9651471725161 18.0613715807266
    vertex -255.571077640377 -44.5512907312597 24.3546219206301
    vertex -255.571077640378 -41.7935742972687 20.8897987054664
  endloop
endfacet
facet normal 1.0 -8.56682049996589e-016 1.00885308742626e-016
  outer loop
    vertex -255.571077640378 -41.7935742972687 20.8897987054664
    vertex -255.571077640377 -44.5512907312597 24.3546219206301
    vertex -255.571077640377 -44.2652372105827 23.981829714495
  endloop
endfacet
facet normal 1.0 -8.56682049996589e-016 1.00885308742626e-016
  outer loop
    vertex -255.571077640378 -41.7935742972687 20.8897987054664
    vertex -255.571077640377 -44.2652372105827 23.981829714495
    vertex -255.571077640377 -44.0854164500734 23.5477039956799
  endloop
endfacet
facet normal 1.0 -8.56682049996589e-016 1.00885308742626e-016
  outer loop
    vertex -255.571077640378 -41.7935742972687 20.8897987054664
    vertex -255.571077640377 -44.0854164500734 23.5477039956799
    vertex -255.571077640377 -44.0240829373926 23.0818297144955
  endloop
endfacet
facet normal 1.0 -8.56682049996589e-016 1.00885308742626e-016
  outer loop
    vertex -255.571077640378 -41.7935742972687 20.8897987054664
    vertex -255.571077640377 -44.0240829373926 23.0818297144955
    vertex -255.571077640377 -44.0854164500713 22.6159554333108
  endloop
endfacet
facet normal 1.0 -8.56682049996589e-016 1.00885308742626e-016
  outer loop
    vertex -255.571077640378 -41.7935742972687 20.8897987054664
    vertex -255.571077640377 -44.0854164500713 22.6159554333108
    vertex -255.571077640377 -44.2652372105786 22.181829714495
  endloop
endfacet
facet normal 1.0 -8.56682049996589e-016 1.00885308742626e-016
  outer loop
    vertex -255.571077640378 -41.7935742972687 20.8897987054664
    vertex -255.571077640377 -44.2652372105786 22.181829714495
    vertex -255.571077640378 -50.5616983839622 12.1216746187336
  endloop
endfacet
facet normal 1.0 -8.56682049996589e-016 1.00885308742626e-016
  outer loop
    vertex -255.571077640378 -50.5616983839622 12.1216746187336
    vertex -255.571077640377 -44.2652372105786 22.181829714495
    vertex -255.571077640377 -44.551290731254 21.8090375083585
  endloop
endfacet
facet normal 1.0 -8.56682049996589e-016 1.00885308742626e-016
  outer loop
    vertex -255.571077640377 -44.5512907312597 24.3546219206301
    vertex -255.571077640377 -59.1176904237396 40.9009206003627
    vertex -255.571077640377 -44.9240829373962 24.6406754413055
  endloop
endfacet
facet normal 1.0 -8.56682049996589e-016 1.00885308742626e-016
  outer loop
    vertex -255.571077640377 -44.9240829373962 24.6406754413055
    vertex -255.571077640377 -59.1176904237396 40.9009206003627
    vertex -255.571077640377 -45.358208656212 24.8204962018128
  endloop
endfacet
facet normal 1.0 -8.56682049996589e-016 1.00885308742626e-016
  outer loop
    vertex -255.571077640377 -45.358208656212 24.8204962018128
    vertex -255.571077640377 -59.1176904237396 40.9009206003627
    vertex -255.571077640377 -45.8240829373967 24.8818297144915
  endloop
endfacet
facet normal 1.0 -8.56682049996589e-016 1.00885308742626e-016
  outer loop
    vertex -255.571077640377 -45.8240829373967 24.8818297144915
    vertex -255.571077640377 -59.1176904237396 40.9009206003627
    vertex -255.571077640377 -46.2899572185811 24.8204962018107
  endloop
endfacet
facet normal 1.0 -8.56682049996589e-016 1.00885308742626e-016
  outer loop
    vertex -255.571077640377 -46.2899572185811 24.8204962018107
    vertex -255.571077640377 -59.1176904237396 40.9009206003627
    vertex -255.571077640377 -46.7240829373962 24.6406754413015
  endloop
endfacet
facet normal 1.0 -8.56682049996589e-016 1.00885308742626e-016
  outer loop
    vertex -255.571077640377 -46.7240829373962 24.6406754413015
    vertex -255.571077640377 -59.1176904237396 40.9009206003627
    vertex -255.571077640377 -47.0968751435313 24.3546219206244
  endloop
endfacet
facet normal 1.0 -8.56682049996589e-016 1.00885308742626e-016
  outer loop
    vertex -255.571077640377 -47.0968751435313 24.3546219206244
    vertex -255.571077640377 -59.1176904237396 40.9009206003627
    vertex -255.571077640376 -50.632409062104 22.5161443021758
  endloop
endfacet
facet normal 1.0 -8.56682049996589e-016 1.00885308742626e-016
  outer loop
    vertex -255.571077640377 -47.0968751435313 24.3546219206244
    vertex -255.571077640376 -50.632409062104 22.5161443021758
    vertex -255.571077640375 -54.1679429680288 18.9806103962352
  endloop
endfacet
facet normal 1.0 -8.56682049996589e-016 1.00885308742626e-016
  outer loop
    vertex -255.571077640376 -50.632409062104 22.5161443021758
    vertex -255.571077640377 -59.1176904237396 40.9009206003627
    vertex -255.571077640377 -57.5588446969195 37.2754372007723
  endloop
endfacet
facet normal 1.0 -8.56682049996589e-016 1.00885308742626e-016
  outer loop
    vertex -255.571077640376 -50.632409062104 22.5161443021758
    vertex -255.571077640377 -57.5588446969195 37.2754372007723
    vertex -255.571077640377 -57.3790239364102 36.8413114819572
  endloop
endfacet
facet normal 1.0 -8.56682049996589e-016 1.00885308742626e-016
  outer loop
    vertex -255.571077640376 -50.632409062104 22.5161443021758
    vertex -255.571077640377 -57.3790239364102 36.8413114819572
    vertex -255.571077640377 -57.3176904237295 36.3754372007728
  endloop
endfacet
facet normal 1.0 -8.56682049996589e-016 1.00885308742626e-016
  outer loop
    vertex -255.571077640376 -50.632409062104 22.5161443021758
    vertex -255.571077640377 -57.3176904237295 36.3754372007728
    vertex -255.571077640377 -57.3790239364082 35.9095629195882
  endloop
endfacet
facet normal 1.0 -8.56682049996589e-016 1.00885308742626e-016
  outer loop
    vertex -255.571077640376 -50.632409062104 22.5161443021758
    vertex -255.571077640377 -57.3790239364082 35.9095629195882
    vertex -255.571077640377 -57.5588446969155 35.4754372007723
  endloop
endfacet
facet normal 1.0 -8.56682049996589e-016 1.00885308742626e-016
  outer loop
    vertex -255.571077640376 -50.632409062104 22.5161443021758
    vertex -255.571077640377 -57.5588446969155 35.4754372007723
    vertex -255.571077640376 -59.6833758613121 31.5671111013434
  endloop
endfacet
facet normal 1.0 -8.56682049996589e-016 1.00885308742626e-016
  outer loop
    vertex -255.571077640376 -59.6833758613121 31.5671111013434
    vertex -255.571077640377 -57.5588446969155 35.4754372007723
    vertex -255.571077640376 -63.2189097672369 28.0315771954027
  endloop
endfacet
facet normal 1.0 -8.56682049996589e-016 1.00885308742626e-016
  outer loop
    vertex -255.571077640376 -63.2189097672369 28.0315771954027
    vertex -255.571077640377 -57.5588446969155 35.4754372007723
    vertex -255.571077640377 -57.8448982175909 35.1026449946359
  endloop
endfacet
facet normal 1.0 -8.56682049996589e-016 1.00885308742626e-016
  outer loop
    vertex -255.571077640377 -57.5588446969195 37.2754372007723
    vertex -255.571077640377 -59.1176904237396 40.9009206003627
    vertex -255.571077640377 -57.8448982175966 37.6482294069074
  endloop
endfacet
facet normal 1.0 -8.56682049996589e-016 1.00885308742626e-016
  outer loop
    vertex -255.571077640377 -57.8448982175966 37.6482294069074
    vertex -255.571077640377 -59.1176904237396 40.9009206003627
    vertex -255.571077640377 -58.217690423733 37.9342829275828
  endloop
endfacet
facet normal 1.0 -8.56682049996589e-016 1.00885308742626e-016
  outer loop
    vertex -255.571077640377 -58.217690423733 37.9342829275828
    vertex -255.571077640377 -59.1176904237396 40.9009206003627
    vertex -255.571077640377 -58.6518161425489 38.1141036880902
  endloop
endfacet
facet normal 1.0 -8.56682049996589e-016 1.00885308742626e-016
  outer loop
    vertex -255.571077640377 -58.6518161425489 38.1141036880902
    vertex -255.571077640377 -59.1176904237396 40.9009206003627
    vertex -255.571077640377 -59.1176904237336 38.1754372007688
  endloop
endfacet
facet normal 1.0 -8.56682049996589e-016 1.00885308742626e-016
  outer loop
    vertex -255.571077640377 -59.1176904237336 38.1754372007688
    vertex -255.571077640377 -59.1176904237396 40.9009206003627
    vertex -255.571077640377 -59.5835647049179 38.1141036880881
  endloop
endfacet
facet normal 1.0 -8.56682049996589e-016 1.00885308742626e-016
  outer loop
    vertex -255.571077640377 -59.5835647049179 38.1141036880881
    vertex -255.571077640377 -59.1176904237396 40.9009206003627
    vertex -255.571077640377 -60.017690423733 37.9342829275788
  endloop
endfacet
facet normal 1.0 -8.56682049996589e-016 1.00885308742626e-016
  outer loop
    vertex -255.571077640377 -60.017690423733 37.9342829275788
    vertex -255.571077640377 -59.1176904237396 40.9009206003627
    vertex -255.571077640377 -60.3904826298681 37.6482294069017
  endloop
endfacet
facet normal 1.0 -8.56682049996589e-016 1.00885308742626e-016
  outer loop
    vertex -255.571077640377 -42.5713917565302 1.44436222283451
    vertex -255.571077640377 -47.7332712592097 9.29324749399378
    vertex -255.571077640377 -64.8452553513122 23.7182258175168
  endloop
endfacet
facet normal 1.0 -8.56682049996589e-016 1.00885308742626e-016
  outer loop
    vertex -255.571077640377 -47.7332712592097 9.29324749399378
    vertex -255.571077640377 -42.5713917565302 1.44436222283451
    vertex -255.571077640378 -38.9651471725161 18.0613715807266
  endloop
endfacet
facet normal 1.0 -8.56682049996589e-016 1.00885308742626e-016
  outer loop
    vertex -255.571077640377 -64.8452553513122 23.7182258175168
    vertex -255.571077640377 -47.7332712592097 9.29324749399378
    vertex -255.571077640378 -50.5616983839622 12.1216746187336
  endloop
endfacet
facet normal 1.0 -8.56682049996589e-016 1.00885308742626e-016
  outer loop
    vertex -255.571077640377 -64.8452553513122 23.7182258175168
    vertex -255.571077640378 -50.5616983839622 12.1216746187336
    vertex -255.571077640375 -54.1679429680288 18.9806103962352
  endloop
endfacet
facet normal 1.0 -8.56682049996589e-016 1.00885308742626e-016
  outer loop
    vertex -255.571077640375 -54.1679429680288 18.9806103962352
    vertex -255.571077640378 -50.5616983839622 12.1216746187336
    vertex -255.571077640377 -45.3582086562042 21.3431632271722
  endloop
endfacet
facet normal 1.0 -8.56682049996589e-016 1.00885308742626e-016
  outer loop
    vertex -255.571077640377 -45.3582086562042 21.3431632271722
    vertex -255.571077640378 -50.5616983839622 12.1216746187336
    vertex -255.571077640377 -44.9240829373892 21.5229839876815
  endloop
endfacet
facet normal 1.0 -8.56682049996589e-016 1.00885308742626e-016
  outer loop
    vertex -255.571077640377 -44.9240829373892 21.5229839876815
    vertex -255.571077640378 -50.5616983839622 12.1216746187336
    vertex -255.571077640377 -44.551290731254 21.8090375083585
  endloop
endfacet
facet normal 1.0 -8.56682049996589e-016 1.00885308742626e-016
  outer loop
    vertex -255.571077640375 -54.1679429680288 18.9806103962352
    vertex -255.571077640377 -45.3582086562042 21.3431632271722
    vertex -255.571077640377 -45.8240829373886 21.2818297144915
  endloop
endfacet
facet normal 1.0 -8.56682049996589e-016 1.00885308742626e-016
  outer loop
    vertex -255.571077640375 -54.1679429680288 18.9806103962352
    vertex -255.571077640377 -45.8240829373886 21.2818297144915
    vertex -255.571077640377 -46.2899572185733 21.3431632271701
  endloop
endfacet
facet normal 1.0 -8.56682049996589e-016 1.00885308742626e-016
  outer loop
    vertex -255.571077640375 -54.1679429680288 18.9806103962352
    vertex -255.571077640377 -46.2899572185733 21.3431632271701
    vertex -255.571077640377 -46.7240829373892 21.5229839876775
  endloop
endfacet
facet normal 1.0 -8.56682049996589e-016 1.00885308742626e-016
  outer loop
    vertex -255.571077640375 -54.1679429680288 18.9806103962352
    vertex -255.571077640377 -46.7240829373892 21.5229839876775
    vertex -255.571077640377 -47.0968751435256 21.8090375083528
  endloop
endfacet
facet normal 1.0 -8.56682049996589e-016 1.00885308742626e-016
  outer loop
    vertex -255.571077640375 -54.1679429680288 18.9806103962352
    vertex -255.571077640377 -47.0968751435256 21.8090375083528
    vertex -255.571077640377 -47.3829286642026 22.181829714488
  endloop
endfacet
facet normal 1.0 -8.56682049996589e-016 1.00885308742626e-016
  outer loop
    vertex -255.571077640375 -54.1679429680288 18.9806103962352
    vertex -255.571077640377 -47.3829286642026 22.181829714488
    vertex -255.571077640377 -47.5627494247119 22.615955433303
  endloop
endfacet
facet normal 1.0 -8.56682049996589e-016 1.00885308742626e-016
  outer loop
    vertex -255.571077640375 -54.1679429680288 18.9806103962352
    vertex -255.571077640377 -47.5627494247119 22.615955433303
    vertex -255.571077640377 -47.6240829373927 23.0818297144874
  endloop
endfacet
facet normal 1.0 -8.56682049996589e-016 1.00885308742626e-016
  outer loop
    vertex -255.571077640375 -54.1679429680288 18.9806103962352
    vertex -255.571077640377 -47.6240829373927 23.0818297144874
    vertex -255.571077640377 -47.562749424714 23.5477039956721
  endloop
endfacet
facet normal 1.0 -8.56682049996589e-016 1.00885308742626e-016
  outer loop
    vertex -255.571077640375 -54.1679429680288 18.9806103962352
    vertex -255.571077640377 -47.562749424714 23.5477039956721
    vertex -255.571077640377 -47.3829286642067 23.981829714488
  endloop
endfacet
facet normal 1.0 -8.56682049996589e-016 1.00885308742626e-016
  outer loop
    vertex -255.571077640375 -54.1679429680288 18.9806103962352
    vertex -255.571077640377 -47.3829286642067 23.981829714488
    vertex -255.571077640377 -47.0968751435313 24.3546219206244
  endloop
endfacet
facet normal 1.0 -8.56682049996589e-016 1.00885308742626e-016
  outer loop
    vertex -255.571077640377 -64.8452553513122 23.7182258175168
    vertex -255.571077640375 -54.1679429680288 18.9806103962352
    vertex -255.571077640376 -63.2189097672369 28.0315771954027
  endloop
endfacet
facet normal 1.0 -8.56682049996589e-016 1.00885308742626e-016
  outer loop
    vertex -255.571077640377 -64.8452553513122 23.7182258175168
    vertex -255.571077640376 -63.2189097672369 28.0315771954027
    vertex -255.571077640377 -64.8452553513379 35.1733556727389
  endloop
endfacet
facet normal 1.0 -8.56682049996589e-016 1.00885308742626e-016
  outer loop
    vertex -255.571077640377 -64.8452553513379 35.1733556727389
    vertex -255.571077640376 -63.2189097672369 28.0315771954027
    vertex -255.571077640377 -59.1176904237255 34.5754372007688
  endloop
endfacet
facet normal 1.0 -8.56682049996589e-016 1.00885308742626e-016
  outer loop
    vertex -255.571077640377 -59.1176904237255 34.5754372007688
    vertex -255.571077640376 -63.2189097672369 28.0315771954027
    vertex -255.571077640377 -58.6518161425411 34.6367707134496
  endloop
endfacet
facet normal 1.0 -8.56682049996589e-016 1.00885308742626e-016
  outer loop
    vertex -255.571077640377 -58.6518161425411 34.6367707134496
    vertex -255.571077640376 -63.2189097672369 28.0315771954027
    vertex -255.571077640377 -58.217690423726 34.8165914739588
  endloop
endfacet
facet normal 1.0 -8.56682049996589e-016 1.00885308742626e-016
  outer loop
    vertex -255.571077640377 -58.217690423726 34.8165914739588
    vertex -255.571077640376 -63.2189097672369 28.0315771954027
    vertex -255.571077640377 -57.8448982175909 35.1026449946359
  endloop
endfacet
facet normal 1.0 -8.56682049996589e-016 1.00885308742626e-016
  outer loop
    vertex -255.571077640377 -64.8452553513379 35.1733556727389
    vertex -255.571077640377 -59.1176904237255 34.5754372007688
    vertex -255.571077640377 -59.5835647049102 34.6367707134474
  endloop
endfacet
facet normal 1.0 -8.56682049996589e-016 1.00885308742626e-016
  outer loop
    vertex -255.571077640377 -64.8452553513379 35.1733556727389
    vertex -255.571077640377 -59.5835647049102 34.6367707134474
    vertex -255.571077640377 -60.017690423726 34.8165914739548
  endloop
endfacet
facet normal 1.0 -8.56682049996589e-016 1.00885308742626e-016
  outer loop
    vertex -255.571077640377 -64.8452553513379 35.1733556727389
    vertex -255.571077640377 -60.017690423726 34.8165914739548
    vertex -255.571077640377 -60.3904826298625 35.1026449946302
  endloop
endfacet
facet normal 1.0 -8.56682049996589e-016 1.00885308742626e-016
  outer loop
    vertex -255.571077640377 -64.8452553513379 35.1733556727389
    vertex -255.571077640377 -60.3904826298625 35.1026449946302
    vertex -255.571077640377 -60.6765361505395 35.4754372007653
  endloop
endfacet
facet normal 1.0 -8.56682049996589e-016 1.00885308742626e-016
  outer loop
    vertex -255.571077640377 -64.8452553513379 35.1733556727389
    vertex -255.571077640377 -60.6765361505395 35.4754372007653
    vertex -255.571077640377 -60.8563569110488 35.9095629195804
  endloop
endfacet
facet normal 1.0 -8.56682049996589e-016 1.00885308742626e-016
  outer loop
    vertex -255.571077640377 -64.8452553513379 35.1733556727389
    vertex -255.571077640377 -60.8563569110488 35.9095629195804
    vertex -255.571077640377 -60.9176904237295 36.3754372007648
  endloop
endfacet
facet normal 1.0 -8.56682049996589e-016 1.00885308742626e-016
  outer loop
    vertex -255.571077640377 -64.8452553513379 35.1733556727389
    vertex -255.571077640377 -60.9176904237295 36.3754372007648
    vertex -255.571077640377 -60.8563569110509 36.8413114819494
  endloop
endfacet
facet normal 1.0 -8.56682049996589e-016 1.00885308742626e-016
  outer loop
    vertex -255.571077640377 -64.8452553513379 35.1733556727389
    vertex -255.571077640377 -60.8563569110509 36.8413114819494
    vertex -255.571077640377 -60.6765361505435 37.2754372007653
  endloop
endfacet
facet normal 1.0 -8.56682049996589e-016 1.00885308742626e-016
  outer loop
    vertex -255.571077640377 -64.8452553513379 35.1733556727389
    vertex -255.571077640377 -60.6765361505435 37.2754372007653
    vertex -255.571077640377 -60.3904826298681 37.6482294069017
  endloop
endfacet
facet normal 1.0 -8.56682049996589e-016 1.00885308742626e-016
  outer loop
    vertex -255.571077640377 -64.8452553513379 35.1733556727389
    vertex -255.571077640377 -60.3904826298681 37.6482294069017
    vertex -255.571077640377 -59.1176904237396 40.9009206003627
  endloop
endfacet
facet normal -8.56682049996466e-016 -1.0 -2.237654506132e-012
  outer loop
    vertex -255.571077640377 -64.8452553513379 35.1733556727389
    vertex -257.971077640377 -64.8452553513122 23.7182258175168
    vertex -255.571077640377 -64.8452553513122 23.7182258175168
  endloop
endfacet
facet normal -8.56682049996466e-016 -1.0 -2.237654506132e-012
  outer loop
    vertex -257.971077640377 -64.8452553513122 23.7182258175168
    vertex -255.571077640377 -64.8452553513379 35.1733556727389
    vertex -257.971077640377 -64.8452553513379 35.1733556727389
  endloop
endfacet
endsolid AltAzTrackerSketchup Nema 17
