solid AltAzTrackerSketchup Nema 17
facet normal -5.44298853726279e-015 1.0 8.37545258720659e-013
  outer loop
    vertex -4.82962913143827 -10.0000000000214 60.2059047744619
    vertex -2.79999999999293 -10.0000000000246 59.8999999999913
    vertex -4.33012701891511 -10.0000000000203 58.9999999999745
  endloop
endfacet
facet normal -5.44298853726279e-015 1.0 8.37545258720659e-013
  outer loop
    vertex -2.79999999999293 -10.0000000000246 59.8999999999913
    vertex -4.82962913143827 -10.0000000000214 60.2059047744619
    vertex -2.79999999999293 -10.0000000000246 63.0999999999913
  endloop
endfacet
facet normal -5.44298853726279e-015 1.0 8.37545258720659e-013
  outer loop
    vertex -2.79999999999293 -10.0000000000246 63.0999999999913
    vertex -4.82962913143827 -10.0000000000214 60.2059047744619
    vertex -4.99999999999293 -10.0000000000223 61.4999999999745
  endloop
endfacet
facet normal -5.44298853726279e-015 1.0 8.37545258720659e-013
  outer loop
    vertex -2.79999999999293 -10.0000000000246 63.0999999999913
    vertex -4.99999999999293 -10.0000000000223 61.4999999999745
    vertex -4.82962913143827 -10.0000000000236 62.7940952254871
  endloop
endfacet
facet normal -5.44298853726279e-015 1.0 8.37545258720659e-013
  outer loop
    vertex -2.79999999999293 -10.0000000000246 63.0999999999913
    vertex -4.82962913143827 -10.0000000000236 62.7940952254871
    vertex -4.33012701891515 -10.0000000000245 63.9999999999745
  endloop
endfacet
facet normal -5.44298853726279e-015 1.0 8.37545258720659e-013
  outer loop
    vertex -2.79999999999293 -10.0000000000246 63.0999999999913
    vertex -4.33012701891515 -10.0000000000245 63.9999999999745
    vertex -1.59999999999294 -10.0000000000246 63.0999999999913
  endloop
endfacet
facet normal -5.44298853726279e-015 1.0 8.37545258720659e-013
  outer loop
    vertex -1.59999999999294 -10.0000000000246 63.0999999999913
    vertex -4.33012701891515 -10.0000000000245 63.9999999999745
    vertex -1.59999999999294 -10.0000000000246 64.2999999999913
  endloop
endfacet
facet normal -5.44298853726279e-015 1.0 8.37545258720659e-013
  outer loop
    vertex -1.59999999999294 -10.0000000000246 64.2999999999913
    vertex -4.33012701891515 -10.0000000000245 63.9999999999745
    vertex -3.53553390592569 -10.0000000000253 65.0355339059073
  endloop
endfacet
facet normal -5.44298853726279e-015 1.0 8.37545258720659e-013
  outer loop
    vertex -1.59999999999294 -10.0000000000246 64.2999999999913
    vertex -3.53553390592569 -10.0000000000253 65.0355339059073
    vertex 1.60000000000706 -10.0000000000246 64.2999999999913
  endloop
endfacet
facet normal -5.44298853726279e-015 1.0 8.37545258720659e-013
  outer loop
    vertex 1.60000000000706 -10.0000000000246 64.2999999999913
    vertex 2.80000000000706 -10.0000000000246 63.0999999999913
    vertex 1.60000000000706 -10.0000000000246 63.0999999999913
  endloop
endfacet
facet normal -5.44298853726279e-015 1.0 8.37545258720659e-013
  outer loop
    vertex 2.80000000000706 -10.0000000000246 63.0999999999913
    vertex 1.60000000000706 -10.0000000000246 64.2999999999913
    vertex 4.33012701892927 -10.0000000000244 63.9999999999745
  endloop
endfacet
facet normal -5.44298853726279e-015 1.0 8.37545258720659e-013
  outer loop
    vertex 4.33012701892927 -10.0000000000244 63.9999999999745
    vertex 1.60000000000706 -10.0000000000246 64.2999999999913
    vertex 3.53553390593981 -10.0000000000252 65.0355339059073
  endloop
endfacet
facet normal -5.44298853726279e-015 1.0 8.37545258720659e-013
  outer loop
    vertex 3.53553390593981 -10.0000000000252 65.0355339059073
    vertex 1.60000000000706 -10.0000000000246 64.2999999999913
    vertex -3.53553390592569 -10.0000000000253 65.0355339059073
  endloop
endfacet
facet normal -5.44298853726279e-015 1.0 8.37545258720659e-013
  outer loop
    vertex 3.53553390593981 -10.0000000000252 65.0355339059073
    vertex -3.53553390592569 -10.0000000000253 65.0355339059073
    vertex -2.49999999999296 -10.0000000000261 65.8301270188967
  endloop
endfacet
facet normal -5.44298853726279e-015 1.0 8.37545258720659e-013
  outer loop
    vertex 3.53553390593981 -10.0000000000252 65.0355339059073
    vertex -2.49999999999296 -10.0000000000261 65.8301270188967
    vertex 2.50000000000708 -10.0000000000261 65.8301270188967
  endloop
endfacet
facet normal -5.44298853726279e-015 1.0 8.37545258720659e-013
  outer loop
    vertex 2.50000000000708 -10.0000000000261 65.8301270188967
    vertex -2.49999999999296 -10.0000000000261 65.8301270188967
    vertex -1.29409522550556 -10.0000000000265 66.3296291314199
  endloop
endfacet
facet normal -5.44298853726279e-015 1.0 8.37545258720659e-013
  outer loop
    vertex 2.50000000000708 -10.0000000000261 65.8301270188967
    vertex -1.29409522550556 -10.0000000000265 66.3296291314199
    vertex 1.29409522551964 -10.0000000000263 66.3296291314199
  endloop
endfacet
facet normal -5.44298853726279e-015 1.0 8.37545258720659e-013
  outer loop
    vertex 1.29409522551964 -10.0000000000263 66.3296291314199
    vertex -1.29409522550556 -10.0000000000265 66.3296291314199
    vertex 7.06119607229994e-012 -10.0000000000265 66.4999999999745
  endloop
endfacet
facet normal -5.44298853726279e-015 1.0 8.37545258720659e-013
  outer loop
    vertex 3.53553390593981 -10.0000000000193 57.9644660940418
    vertex 1.60000000000706 -10.0000000000246 58.6999999999913
    vertex 4.33012701892927 -10.0000000000202 58.9999999999745
  endloop
endfacet
facet normal -5.44298853726279e-015 1.0 8.37545258720659e-013
  outer loop
    vertex 1.60000000000706 -10.0000000000246 58.6999999999913
    vertex 3.53553390593981 -10.0000000000193 57.9644660940418
    vertex -1.59999999999294 -10.0000000000246 58.6999999999913
  endloop
endfacet
facet normal -5.44298853726279e-015 1.0 8.37545258720659e-013
  outer loop
    vertex 4.33012701892927 -10.0000000000202 58.9999999999745
    vertex 1.60000000000706 -10.0000000000246 58.6999999999913
    vertex 1.60000000000706 -10.0000000000246 59.8999999999913
  endloop
endfacet
facet normal -5.44298853726279e-015 1.0 8.37545258720659e-013
  outer loop
    vertex 4.33012701892927 -10.0000000000202 58.9999999999745
    vertex 1.60000000000706 -10.0000000000246 59.8999999999913
    vertex 2.80000000000706 -10.0000000000246 59.8999999999913
  endloop
endfacet
facet normal -5.44298853726279e-015 1.0 8.37545258720659e-013
  outer loop
    vertex 4.33012701892927 -10.0000000000202 58.9999999999745
    vertex 2.80000000000706 -10.0000000000246 59.8999999999913
    vertex 4.82962913145239 -10.0000000000213 60.2059047744619
  endloop
endfacet
facet normal -5.44298853726279e-015 1.0 8.37545258720659e-013
  outer loop
    vertex 4.82962913145239 -10.0000000000213 60.2059047744619
    vertex 2.80000000000706 -10.0000000000246 59.8999999999913
    vertex 2.80000000000706 -10.0000000000246 63.0999999999913
  endloop
endfacet
facet normal -5.44298853726279e-015 1.0 8.37545258720659e-013
  outer loop
    vertex 4.82962913145239 -10.0000000000213 60.2059047744619
    vertex 2.80000000000706 -10.0000000000246 63.0999999999913
    vertex 5.00000000000705 -10.0000000000223 61.4999999999745
  endloop
endfacet
facet normal -5.44298853726279e-015 1.0 8.37545258720659e-013
  outer loop
    vertex 5.00000000000705 -10.0000000000223 61.4999999999745
    vertex 2.80000000000706 -10.0000000000246 63.0999999999913
    vertex 4.82962913145239 -10.0000000000235 62.7940952254871
  endloop
endfacet
facet normal -5.44298853726279e-015 1.0 8.37545258720659e-013
  outer loop
    vertex 4.82962913145239 -10.0000000000235 62.7940952254871
    vertex 2.80000000000706 -10.0000000000246 63.0999999999913
    vertex 4.33012701892927 -10.0000000000244 63.9999999999745
  endloop
endfacet
facet normal -5.44298853726279e-015 1.0 8.37545258720659e-013
  outer loop
    vertex -1.29409522550552 -10.0000000000184 56.6703708685292
    vertex 1.29409522551969 -10.0000000000183 56.6703708685292
    vertex 7.06119607229994e-012 -10.0000000000181 56.4999999999745
  endloop
endfacet
facet normal -5.44298853726279e-015 1.0 8.37545258720659e-013
  outer loop
    vertex 1.29409522551969 -10.0000000000183 56.6703708685292
    vertex -1.29409522550552 -10.0000000000184 56.6703708685292
    vertex -2.49999999999296 -10.0000000000188 57.1698729810523
  endloop
endfacet
facet normal -5.44298853726279e-015 1.0 8.37545258720659e-013
  outer loop
    vertex 1.29409522551969 -10.0000000000183 56.6703708685292
    vertex -2.49999999999296 -10.0000000000188 57.1698729810523
    vertex 2.50000000000708 -10.0000000000188 57.1698729810523
  endloop
endfacet
facet normal -5.44298853726279e-015 1.0 8.37545258720659e-013
  outer loop
    vertex 2.50000000000708 -10.0000000000188 57.1698729810523
    vertex -2.49999999999296 -10.0000000000188 57.1698729810523
    vertex -3.53553390592569 -10.0000000000194 57.9644660940418
  endloop
endfacet
facet normal -5.44298853726279e-015 1.0 8.37545258720659e-013
  outer loop
    vertex 2.50000000000708 -10.0000000000188 57.1698729810523
    vertex -3.53553390592569 -10.0000000000194 57.9644660940418
    vertex 3.53553390593981 -10.0000000000193 57.9644660940418
  endloop
endfacet
facet normal -5.44298853726279e-015 1.0 8.37545258720659e-013
  outer loop
    vertex 3.53553390593981 -10.0000000000193 57.9644660940418
    vertex -3.53553390592569 -10.0000000000194 57.9644660940418
    vertex -4.33012701891511 -10.0000000000203 58.9999999999745
  endloop
endfacet
facet normal -5.44298853726279e-015 1.0 8.37545258720659e-013
  outer loop
    vertex 3.53553390593981 -10.0000000000193 57.9644660940418
    vertex -4.33012701891511 -10.0000000000203 58.9999999999745
    vertex -1.59999999999294 -10.0000000000246 58.6999999999913
  endloop
endfacet
facet normal -5.44298853726279e-015 1.0 8.37545258720659e-013
  outer loop
    vertex -1.59999999999294 -10.0000000000246 58.6999999999913
    vertex -4.33012701891511 -10.0000000000203 58.9999999999745
    vertex -1.59999999999294 -10.0000000000246 59.8999999999913
  endloop
endfacet
facet normal -5.44298853726279e-015 1.0 8.37545258720659e-013
  outer loop
    vertex -1.59999999999294 -10.0000000000246 59.8999999999913
    vertex -4.33012701891511 -10.0000000000203 58.9999999999745
    vertex -2.79999999999293 -10.0000000000246 59.8999999999913
  endloop
endfacet
facet normal 0.606922722257598 -0.0776639517693813 0.790957090999878
  outer loop
    vertex 2.75771644663454 -24.0000000000246 64.2577164465903
    vertex 2.50000000000708 -10.0000000000261 65.8301270188967
    vertex 1.95000000000702 -24.0000000000251 64.8774990747221
  endloop
endfacet
facet normal 0.606922722257598 -0.0776639517693813 0.790957090999878
  outer loop
    vertex 2.50000000000708 -10.0000000000261 65.8301270188967
    vertex 2.75771644663454 -24.0000000000246 64.2577164465903
    vertex 3.53553390593981 -10.0000000000252 65.0355339059073
  endloop
endfacet
facet normal -0.921089041109048 -0.0776639517683951 -0.381527572980685
  outer loop
    vertex -4.82962913143827 -10.0000000000214 60.2059047744619
    vertex -3.37749907475222 -24.0000000000207 59.5499999999628
    vertex -3.76711072252031 -24.0000000000215 60.4906057240629
  endloop
endfacet
facet normal -0.921089041109048 -0.0776639517683951 -0.381527572980685
  outer loop
    vertex -3.37749907475222 -24.0000000000207 59.5499999999628
    vertex -4.82962913143827 -10.0000000000214 60.2059047744619
    vertex -4.33012701891511 -10.0000000000203 58.9999999999745
  endloop
endfacet
facet normal 0.790957090999944 -0.0776639517682072 -0.606922722257663
  outer loop
    vertex 2.75771644663459 -24.00000000002 58.7422835533353
    vertex 4.33012701892927 -10.0000000000202 58.9999999999745
    vertex 3.37749907476638 -24.0000000000207 59.5499999999628
  endloop
endfacet
facet normal 0.790957090999944 -0.0776639517682072 -0.606922722257663
  outer loop
    vertex 4.33012701892927 -10.0000000000202 58.9999999999745
    vertex 2.75771644663459 -24.00000000002 58.7422835533353
    vertex 3.53553390593981 -10.0000000000193 57.9644660940418
  endloop
endfacet
facet normal 0.130131950109105 -0.0776639517678858 -0.988450295238257
  outer loop
    vertex 1.29409522551969 -10.0000000000183 56.6703708685292
    vertex 7.06119607229994e-012 -24.000000000019 57.5999999999628
    vertex 7.06119607229994e-012 -10.0000000000181 56.4999999999745
  endloop
endfacet
facet normal 0.130131950109105 -0.0776639517678858 -0.988450295238257
  outer loop
    vertex 7.06119607229994e-012 -24.000000000019 57.5999999999628
    vertex 1.29409522551969 -10.0000000000183 56.6703708685292
    vertex 1.0093942759069 -24.0000000000193 57.7328892774354
  endloop
endfacet
facet normal 0.790957090999941 -0.0776639517692273 0.606922722257537
  outer loop
    vertex 3.37749907476634 -24.000000000024 63.4499999999628
    vertex 3.53553390593981 -10.0000000000252 65.0355339059073
    vertex 2.75771644663454 -24.0000000000246 64.2577164465903
  endloop
endfacet
facet normal 0.790957090999941 -0.0776639517692273 0.606922722257537
  outer loop
    vertex 3.53553390593981 -10.0000000000252 65.0355339059073
    vertex 3.37749907476634 -24.000000000024 63.4499999999628
    vertex 4.33012701892927 -10.0000000000244 63.9999999999745
  endloop
endfacet
facet normal -0.988450295238191 -0.0776639517688226 0.130131950109045
  outer loop
    vertex -4.82962913143827 -10.0000000000236 62.7940952254871
    vertex -3.89999999999295 -24.0000000000223 61.4999999999628
    vertex -3.76711072252031 -24.0000000000232 62.5093942758626
  endloop
endfacet
facet normal -0.988450295238191 -0.0776639517688226 0.130131950109045
  outer loop
    vertex -3.89999999999295 -24.0000000000223 61.4999999999628
    vertex -4.82962913143827 -10.0000000000236 62.7940952254871
    vertex -4.99999999999293 -10.0000000000223 61.4999999999745
  endloop
endfacet
facet normal 0.130131950109101 -0.0776639517695433 0.988450295238127
  outer loop
    vertex 1.0093942759069 -24.0000000000257 65.2671107224902
    vertex 7.06119607229994e-012 -10.0000000000265 66.4999999999745
    vertex 7.06119607229994e-012 -24.0000000000256 65.3999999999628
  endloop
endfacet
facet normal 0.130131950109101 -0.0776639517695433 0.988450295238127
  outer loop
    vertex 7.06119607229994e-012 -10.0000000000265 66.4999999999745
    vertex 1.0093942759069 -24.0000000000257 65.2671107224902
    vertex 1.29409522551964 -10.0000000000263 66.3296291314199
  endloop
endfacet
facet normal -0.790957090999961 -0.0776639517682067 -0.606922722257641
  outer loop
    vertex -4.33012701891511 -10.0000000000203 58.9999999999745
    vertex -2.75771644662047 -24.00000000002 58.7422835533352
    vertex -3.37749907475222 -24.0000000000207 59.5499999999628
  endloop
endfacet
facet normal -0.790957090999961 -0.0776639517682067 -0.606922722257641
  outer loop
    vertex -2.75771644662047 -24.00000000002 58.7422835533352
    vertex -4.33012701891511 -10.0000000000203 58.9999999999745
    vertex -3.53553390592569 -10.0000000000194 57.9644660940418
  endloop
endfacet
facet normal 0.606922722257601 -0.077663951768053 -0.790957091000007
  outer loop
    vertex 2.50000000000708 -10.0000000000188 57.1698729810523
    vertex 2.75771644663459 -24.00000000002 58.7422835533353
    vertex 1.95000000000707 -24.0000000000195 58.1225009252035
  endloop
endfacet
facet normal 0.606922722257601 -0.077663951768053 -0.790957091000007
  outer loop
    vertex 2.75771644663459 -24.00000000002 58.7422835533353
    vertex 2.50000000000708 -10.0000000000188 57.1698729810523
    vertex 3.53553390593981 -10.0000000000193 57.9644660940418
  endloop
endfacet
facet normal 0.921089041109056 -0.0776639517683941 -0.381527572980664
  outer loop
    vertex 3.37749907476638 -24.0000000000207 59.5499999999628
    vertex 4.82962913145239 -10.0000000000213 60.2059047744619
    vertex 3.76711072253447 -24.0000000000215 60.490605724063
  endloop
endfacet
facet normal 0.921089041109056 -0.0776639517683941 -0.381527572980664
  outer loop
    vertex 4.82962913145239 -10.0000000000213 60.2059047744619
    vertex 3.37749907476638 -24.0000000000207 59.5499999999628
    vertex 4.33012701892927 -10.0000000000202 58.9999999999745
  endloop
endfacet
facet normal -0.130131950109104 -0.0776639517695441 0.988450295238127
  outer loop
    vertex -1.00939427589278 -24.0000000000255 65.2671107224902
    vertex 7.06119607229994e-012 -10.0000000000265 66.4999999999745
    vertex -1.29409522550556 -10.0000000000265 66.3296291314199
  endloop
endfacet
facet normal -0.130131950109104 -0.0776639517695441 0.988450295238127
  outer loop
    vertex 7.06119607229994e-012 -10.0000000000265 66.4999999999745
    vertex -1.00939427589278 -24.0000000000255 65.2671107224902
    vertex 7.06119607229994e-012 -24.0000000000256 65.3999999999628
  endloop
endfacet
facet normal -0.988450295238191 -0.0776639517686045 -0.130131950109176
  outer loop
    vertex -4.99999999999293 -10.0000000000223 61.4999999999745
    vertex -3.76711072252031 -24.0000000000215 60.4906057240629
    vertex -3.89999999999295 -24.0000000000223 61.4999999999628
  endloop
endfacet
facet normal -0.988450295238191 -0.0776639517686045 -0.130131950109176
  outer loop
    vertex -3.76711072252031 -24.0000000000215 60.4906057240629
    vertex -4.99999999999293 -10.0000000000223 61.4999999999745
    vertex -4.82962913143827 -10.0000000000214 60.2059047744619
  endloop
endfacet
facet normal 0.988450295238193 -0.0776639517686037 -0.13013195010916
  outer loop
    vertex 3.76711072253447 -24.0000000000215 60.490605724063
    vertex 5.00000000000705 -10.0000000000223 61.4999999999745
    vertex 3.90000000000708 -24.0000000000223 61.4999999999628
  endloop
endfacet
facet normal 0.988450295238193 -0.0776639517686037 -0.13013195010916
  outer loop
    vertex 5.00000000000705 -10.0000000000223 61.4999999999745
    vertex 3.76711072253447 -24.0000000000215 60.490605724063
    vertex 4.82962913145239 -10.0000000000213 60.2059047744619
  endloop
endfacet
facet normal 0.988450295238191 -0.0776639517688234 0.130131950109045
  outer loop
    vertex 3.90000000000708 -24.0000000000223 61.4999999999628
    vertex 4.82962913145239 -10.0000000000235 62.7940952254871
    vertex 3.76711072253443 -24.0000000000232 62.5093942758626
  endloop
endfacet
facet normal 0.988450295238191 -0.0776639517688234 0.130131950109045
  outer loop
    vertex 4.82962913145239 -10.0000000000235 62.7940952254871
    vertex 3.90000000000708 -24.0000000000223 61.4999999999628
    vertex 5.00000000000705 -10.0000000000223 61.4999999999745
  endloop
endfacet
facet normal -0.381527572980596 -0.0776639517679436 -0.921089041109123
  outer loop
    vertex -1.29409522550552 -10.0000000000184 56.6703708685292
    vertex -1.9499999999929 -24.0000000000195 58.1225009252035
    vertex -2.49999999999296 -10.0000000000188 57.1698729810523
  endloop
endfacet
facet normal -0.381527572980596 -0.0776639517679436 -0.921089041109123
  outer loop
    vertex -1.9499999999929 -24.0000000000195 58.1225009252035
    vertex -1.29409522550552 -10.0000000000184 56.6703708685292
    vertex -1.00939427589278 -24.0000000000192 57.7328892774354
  endloop
endfacet
facet normal 0.381527572980595 -0.0776639517694877 0.921089041108993
  outer loop
    vertex 1.95000000000702 -24.0000000000251 64.8774990747221
    vertex 1.29409522551964 -10.0000000000263 66.3296291314199
    vertex 1.0093942759069 -24.0000000000257 65.2671107224902
  endloop
endfacet
facet normal 0.381527572980595 -0.0776639517694877 0.921089041108993
  outer loop
    vertex 1.29409522551964 -10.0000000000263 66.3296291314199
    vertex 1.95000000000702 -24.0000000000251 64.8774990747221
    vertex 2.50000000000708 -10.0000000000261 65.8301270188967
  endloop
endfacet
facet normal -0.130131950109098 -0.0776639517678863 -0.988450295238258
  outer loop
    vertex 7.06119607229994e-012 -10.0000000000181 56.4999999999745
    vertex -1.00939427589278 -24.0000000000192 57.7328892774354
    vertex -1.29409522550552 -10.0000000000184 56.6703708685292
  endloop
endfacet
facet normal -0.130131950109098 -0.0776639517678863 -0.988450295238258
  outer loop
    vertex -1.00939427589278 -24.0000000000192 57.7328892774354
    vertex 7.06119607229994e-012 -10.0000000000181 56.4999999999745
    vertex 7.06119607229994e-012 -24.000000000019 57.5999999999628
  endloop
endfacet
facet normal -0.606922722257588 -0.0776639517680535 -0.790957091000016
  outer loop
    vertex -2.49999999999296 -10.0000000000188 57.1698729810523
    vertex -2.75771644662047 -24.00000000002 58.7422835533352
    vertex -3.53553390592569 -10.0000000000194 57.9644660940418
  endloop
endfacet
facet normal -0.606922722257588 -0.0776639517680535 -0.790957091000016
  outer loop
    vertex -2.75771644662047 -24.00000000002 58.7422835533352
    vertex -2.49999999999296 -10.0000000000188 57.1698729810523
    vertex -1.9499999999929 -24.0000000000195 58.1225009252035
  endloop
endfacet
facet normal 0.381527572980604 -0.077663951767943 -0.921089041109119
  outer loop
    vertex 1.29409522551969 -10.0000000000183 56.6703708685292
    vertex 1.95000000000707 -24.0000000000195 58.1225009252035
    vertex 1.0093942759069 -24.0000000000193 57.7328892774354
  endloop
endfacet
facet normal 0.381527572980604 -0.077663951767943 -0.921089041109119
  outer loop
    vertex 1.95000000000707 -24.0000000000195 58.1225009252035
    vertex 1.29409522551969 -10.0000000000183 56.6703708685292
    vertex 2.50000000000708 -10.0000000000188 57.1698729810523
  endloop
endfacet
facet normal 0.921089041109056 -0.0776639517690366 0.381527572980535
  outer loop
    vertex 3.76711072253443 -24.0000000000232 62.5093942758626
    vertex 4.33012701892927 -10.0000000000244 63.9999999999745
    vertex 3.37749907476634 -24.000000000024 63.4499999999628
  endloop
endfacet
facet normal 0.921089041109056 -0.0776639517690366 0.381527572980535
  outer loop
    vertex 4.33012701892927 -10.0000000000244 63.9999999999745
    vertex 3.76711072253443 -24.0000000000232 62.5093942758626
    vertex 4.82962913145239 -10.0000000000235 62.7940952254871
  endloop
endfacet
facet normal -0.381527572980604 -0.0776639517694881 0.921089041108989
  outer loop
    vertex -1.94999999999295 -24.0000000000252 64.8774990747221
    vertex -1.29409522550556 -10.0000000000265 66.3296291314199
    vertex -2.49999999999296 -10.0000000000261 65.8301270188967
  endloop
endfacet
facet normal -0.381527572980604 -0.0776639517694881 0.921089041108989
  outer loop
    vertex -1.29409522550556 -10.0000000000265 66.3296291314199
    vertex -1.94999999999295 -24.0000000000252 64.8774990747221
    vertex -1.00939427589278 -24.0000000000255 65.2671107224902
  endloop
endfacet
facet normal -0.606922722257601 -0.0776639517693787 0.790957090999876
  outer loop
    vertex -2.75771644662047 -24.0000000000247 64.2577164465903
    vertex -2.49999999999296 -10.0000000000261 65.8301270188967
    vertex -3.53553390592569 -10.0000000000253 65.0355339059073
  endloop
endfacet
facet normal -0.606922722257601 -0.0776639517693787 0.790957090999876
  outer loop
    vertex -2.49999999999296 -10.0000000000261 65.8301270188967
    vertex -2.75771644662047 -24.0000000000247 64.2577164465903
    vertex -1.94999999999295 -24.0000000000252 64.8774990747221
  endloop
endfacet
facet normal -0.790957090999943 -0.077663951769224 0.606922722257533
  outer loop
    vertex -3.53553390592569 -10.0000000000253 65.0355339059073
    vertex -3.37749907475226 -24.000000000024 63.4499999999628
    vertex -2.75771644662047 -24.0000000000247 64.2577164465903
  endloop
endfacet
facet normal -0.790957090999943 -0.077663951769224 0.606922722257533
  outer loop
    vertex -3.37749907475226 -24.000000000024 63.4499999999628
    vertex -3.53553390592569 -10.0000000000253 65.0355339059073
    vertex -4.33012701891515 -10.0000000000245 63.9999999999745
  endloop
endfacet
facet normal -0.921089041109062 -0.0776639517690346 0.38152757298052
  outer loop
    vertex -4.33012701891515 -10.0000000000245 63.9999999999745
    vertex -3.76711072252031 -24.0000000000232 62.5093942758626
    vertex -3.37749907475226 -24.000000000024 63.4499999999628
  endloop
endfacet
facet normal -0.921089041109062 -0.0776639517690346 0.38152757298052
  outer loop
    vertex -3.76711072252031 -24.0000000000232 62.5093942758626
    vertex -4.33012701891515 -10.0000000000245 63.9999999999745
    vertex -4.82962913143827 -10.0000000000236 62.7940952254871
  endloop
endfacet
facet normal 0.0 0.0 1.0
  outer loop
    vertex 2.80000000000706 -10.0000000000246 63.0999999999913
    vertex 1.60000000000737 -0.400000000024612 63.0999999999913
    vertex 1.60000000000706 -10.0000000000246 63.0999999999913
  endloop
endfacet
facet normal 0.0 0.0 1.0
  outer loop
    vertex 1.60000000000737 -0.400000000024612 63.0999999999913
    vertex 2.80000000000706 -10.0000000000246 63.0999999999913
    vertex 2.80000000000737 -0.400000000024612 63.0999999999913
  endloop
endfacet
facet normal 0.0 0.0 1.0
  outer loop
    vertex 1.60000000000706 -10.0000000000246 64.2999999999913
    vertex -1.59999999999262 -0.400000000024612 64.2999999999913
    vertex -1.59999999999294 -10.0000000000246 64.2999999999913
  endloop
endfacet
facet normal 0.0 0.0 1.0
  outer loop
    vertex -1.59999999999262 -0.400000000024612 64.2999999999913
    vertex 1.60000000000706 -10.0000000000246 64.2999999999913
    vertex 1.60000000000737 -0.400000000024634 64.2999999999913
  endloop
endfacet
facet normal 1.0 -2.10942374678768e-015 -3.97610548134679e-028
  outer loop
    vertex 2.80000000000737 -0.400000000024634 59.8999999999913
    vertex 2.80000000000706 -10.0000000000246 63.0999999999913
    vertex 2.80000000000706 -10.0000000000246 59.8999999999913
  endloop
endfacet
facet normal 1.0 -2.10942374678768e-015 -3.97610548134679e-028
  outer loop
    vertex 2.80000000000706 -10.0000000000246 63.0999999999913
    vertex 2.80000000000737 -0.400000000024634 59.8999999999913
    vertex 2.80000000000737 -0.400000000024612 63.0999999999913
  endloop
endfacet
facet normal 0.0 0.0 -1.0
  outer loop
    vertex -2.79999999999262 -0.400000000024657 59.8999999999913
    vertex -1.59999999999294 -10.0000000000246 59.8999999999913
    vertex -2.79999999999293 -10.0000000000246 59.8999999999913
  endloop
endfacet
facet normal 0.0 0.0 -1.0
  outer loop
    vertex -1.59999999999294 -10.0000000000246 59.8999999999913
    vertex -2.79999999999262 -0.400000000024657 59.8999999999913
    vertex -1.59999999999262 -0.400000000024612 59.8999999999913
  endloop
endfacet
facet normal 1.0 -2.10942374678768e-015 0.0
  outer loop
    vertex 1.60000000000737 -0.400000000024634 58.6999999999913
    vertex 1.60000000000706 -10.0000000000246 59.8999999999913
    vertex 1.60000000000706 -10.0000000000246 58.6999999999913
  endloop
endfacet
facet normal 1.0 -2.10942374678768e-015 0.0
  outer loop
    vertex 1.60000000000706 -10.0000000000246 59.8999999999913
    vertex 1.60000000000737 -0.400000000024634 58.6999999999913
    vertex 1.60000000000737 -0.400000000024634 59.8999999999913
  endloop
endfacet
facet normal 0.0 0.0 -1.0
  outer loop
    vertex 1.60000000000737 -0.400000000024634 59.8999999999913
    vertex 2.80000000000706 -10.0000000000246 59.8999999999913
    vertex 1.60000000000706 -10.0000000000246 59.8999999999913
  endloop
endfacet
facet normal 0.0 0.0 -1.0
  outer loop
    vertex 2.80000000000706 -10.0000000000246 59.8999999999913
    vertex 1.60000000000737 -0.400000000024634 59.8999999999913
    vertex 2.80000000000737 -0.400000000024634 59.8999999999913
  endloop
endfacet
facet normal 1.0 -2.10942374678768e-015 1.06029479502581e-027
  outer loop
    vertex 1.60000000000706 -10.0000000000246 63.0999999999913
    vertex 1.60000000000737 -0.400000000024634 64.2999999999913
    vertex 1.60000000000706 -10.0000000000246 64.2999999999913
  endloop
endfacet
facet normal 1.0 -2.10942374678768e-015 1.06029479502581e-027
  outer loop
    vertex 1.60000000000737 -0.400000000024634 64.2999999999913
    vertex 1.60000000000706 -10.0000000000246 63.0999999999913
    vertex 1.60000000000737 -0.400000000024612 63.0999999999913
  endloop
endfacet
facet normal 0.0 0.0 -1.0
  outer loop
    vertex -1.59999999999262 -0.400000000024634 58.6999999999913
    vertex 1.60000000000706 -10.0000000000246 58.6999999999913
    vertex -1.59999999999294 -10.0000000000246 58.6999999999913
  endloop
endfacet
facet normal 0.0 0.0 -1.0
  outer loop
    vertex 1.60000000000706 -10.0000000000246 58.6999999999913
    vertex -1.59999999999262 -0.400000000024634 58.6999999999913
    vertex 1.60000000000737 -0.400000000024634 58.6999999999913
  endloop
endfacet
facet normal -1.0 2.10942374678768e-015 0.0
  outer loop
    vertex -1.59999999999262 -0.400000000024612 64.2999999999913
    vertex -1.59999999999294 -10.0000000000246 63.0999999999913
    vertex -1.59999999999294 -10.0000000000246 64.2999999999913
  endloop
endfacet
facet normal -1.0 2.10942374678768e-015 0.0
  outer loop
    vertex -1.59999999999294 -10.0000000000246 63.0999999999913
    vertex -1.59999999999262 -0.400000000024612 64.2999999999913
    vertex -1.59999999999262 -0.400000000024612 63.0999999999913
  endloop
endfacet
facet normal 0.0 0.0 1.0
  outer loop
    vertex -1.59999999999294 -10.0000000000246 63.0999999999913
    vertex -2.79999999999262 -0.400000000024657 63.0999999999913
    vertex -2.79999999999293 -10.0000000000246 63.0999999999913
  endloop
endfacet
facet normal 0.0 0.0 1.0
  outer loop
    vertex -2.79999999999262 -0.400000000024657 63.0999999999913
    vertex -1.59999999999294 -10.0000000000246 63.0999999999913
    vertex -1.59999999999262 -0.400000000024612 63.0999999999913
  endloop
endfacet
facet normal -1.0 2.10942374678768e-015 0.0
  outer loop
    vertex -2.79999999999262 -0.400000000024657 63.0999999999913
    vertex -2.79999999999293 -10.0000000000246 59.8999999999913
    vertex -2.79999999999293 -10.0000000000246 63.0999999999913
  endloop
endfacet
facet normal -1.0 2.10942374678768e-015 0.0
  outer loop
    vertex -2.79999999999293 -10.0000000000246 59.8999999999913
    vertex -2.79999999999262 -0.400000000024657 63.0999999999913
    vertex -2.79999999999262 -0.400000000024657 59.8999999999913
  endloop
endfacet
facet normal -1.0 2.10942374678768e-015 1.06029479502581e-027
  outer loop
    vertex -1.59999999999294 -10.0000000000246 59.8999999999913
    vertex -1.59999999999262 -0.400000000024634 58.6999999999913
    vertex -1.59999999999294 -10.0000000000246 58.6999999999913
  endloop
endfacet
facet normal -1.0 2.10942374678768e-015 1.06029479502581e-027
  outer loop
    vertex -1.59999999999262 -0.400000000024634 58.6999999999913
    vertex -1.59999999999294 -10.0000000000246 59.8999999999913
    vertex -1.59999999999262 -0.400000000024612 59.8999999999913
  endloop
endfacet
facet normal 2.10942374678768e-015 1.0 0.0
  outer loop
    vertex -1.59999999999262 -0.400000000024612 64.2999999999913
    vertex 1.60000000000737 -0.400000000024612 63.0999999999913
    vertex -1.59999999999262 -0.400000000024612 63.0999999999913
  endloop
endfacet
facet normal 2.10942374678768e-015 1.0 0.0
  outer loop
    vertex 1.60000000000737 -0.400000000024612 63.0999999999913
    vertex -1.59999999999262 -0.400000000024612 64.2999999999913
    vertex 1.60000000000737 -0.400000000024634 64.2999999999913
  endloop
endfacet
facet normal 2.10942374678768e-015 1.0 0.0
  outer loop
    vertex -2.79999999999262 -0.400000000024657 63.0999999999913
    vertex -1.59999999999262 -0.400000000024612 59.8999999999913
    vertex -2.79999999999262 -0.400000000024657 59.8999999999913
  endloop
endfacet
facet normal 2.10942374678768e-015 1.0 0.0
  outer loop
    vertex -1.59999999999262 -0.400000000024612 59.8999999999913
    vertex -2.79999999999262 -0.400000000024657 63.0999999999913
    vertex 1.60000000000737 -0.400000000024634 59.8999999999913
  endloop
endfacet
facet normal 2.10942374678768e-015 1.0 0.0
  outer loop
    vertex 1.60000000000737 -0.400000000024634 59.8999999999913
    vertex -2.79999999999262 -0.400000000024657 63.0999999999913
    vertex 2.80000000000737 -0.400000000024634 59.8999999999913
  endloop
endfacet
facet normal 2.10942374678768e-015 1.0 0.0
  outer loop
    vertex 2.80000000000737 -0.400000000024634 59.8999999999913
    vertex -2.79999999999262 -0.400000000024657 63.0999999999913
    vertex 2.80000000000737 -0.400000000024612 63.0999999999913
  endloop
endfacet
facet normal 2.10942374678768e-015 1.0 0.0
  outer loop
    vertex 2.80000000000737 -0.400000000024612 63.0999999999913
    vertex -2.79999999999262 -0.400000000024657 63.0999999999913
    vertex -1.59999999999262 -0.400000000024612 63.0999999999913
  endloop
endfacet
facet normal 2.10942374678768e-015 1.0 0.0
  outer loop
    vertex 2.80000000000737 -0.400000000024612 63.0999999999913
    vertex -1.59999999999262 -0.400000000024612 63.0999999999913
    vertex 1.60000000000737 -0.400000000024612 63.0999999999913
  endloop
endfacet
facet normal 2.10942374678768e-015 1.0 0.0
  outer loop
    vertex -1.59999999999262 -0.400000000024612 59.8999999999913
    vertex 1.60000000000737 -0.400000000024634 58.6999999999913
    vertex -1.59999999999262 -0.400000000024634 58.6999999999913
  endloop
endfacet
facet normal 2.10942374678768e-015 1.0 0.0
  outer loop
    vertex 1.60000000000737 -0.400000000024634 58.6999999999913
    vertex -1.59999999999262 -0.400000000024612 59.8999999999913
    vertex 1.60000000000737 -0.400000000024634 59.8999999999913
  endloop
endfacet
facet normal -6.74217618005454e-014 -1.0 -7.71270014815515e-013
  outer loop
    vertex 2.75771644663427 -26.0000000000249 64.2577164465887
    vertex -3.37749907475226 -26.0000000000238 63.4499999999613
    vertex 3.37749907476634 -26.0000000000243 63.4499999999612
  endloop
endfacet
facet normal -6.74217618005454e-014 -1.0 -7.71270014815515e-013
  outer loop
    vertex -3.37749907475226 -26.0000000000238 63.4499999999613
    vertex 2.75771644663427 -26.0000000000249 64.2577164465887
    vertex -2.75771644662078 -26.0000000000246 64.2577164465889
  endloop
endfacet
facet normal -6.74217618005454e-014 -1.0 -7.71270014815515e-013
  outer loop
    vertex -2.75771644662078 -26.0000000000246 64.2577164465889
    vertex 2.75771644663427 -26.0000000000249 64.2577164465887
    vertex 1.9500000000068 -26.0000000000253 64.8774990747205
  endloop
endfacet
facet normal -6.74217618005454e-014 -1.0 -7.71270014815515e-013
  outer loop
    vertex -2.75771644662078 -26.0000000000246 64.2577164465889
    vertex 1.9500000000068 -26.0000000000253 64.8774990747205
    vertex -1.94999999999322 -26.000000000025 64.8774990747206
  endloop
endfacet
facet normal -6.74217618005454e-014 -1.0 -7.71270014815515e-013
  outer loop
    vertex -1.94999999999322 -26.000000000025 64.8774990747206
    vertex 1.9500000000068 -26.0000000000253 64.8774990747205
    vertex 1.0093942759069 -26.0000000000255 65.2671107224886
  endloop
endfacet
facet normal -6.74217618005454e-014 -1.0 -7.71270014815515e-013
  outer loop
    vertex -1.94999999999322 -26.000000000025 64.8774990747206
    vertex 1.0093942759069 -26.0000000000255 65.2671107224886
    vertex -1.00939427589273 -26.0000000000254 65.2671107224886
  endloop
endfacet
facet normal -6.74217618005454e-014 -1.0 -7.71270014815515e-013
  outer loop
    vertex -1.00939427589273 -26.0000000000254 65.2671107224886
    vertex 1.0093942759069 -26.0000000000255 65.2671107224886
    vertex 7.06119607229994e-012 -26.0000000000256 65.3999999999613
  endloop
endfacet
facet normal 0.130526192220062 -7.73199878402595e-013 0.991444861373809
  outer loop
    vertex 1.0093942759069 -26.0000000000255 65.2671107224886
    vertex 7.06119607229994e-012 -24.0000000000256 65.3999999999628
    vertex 7.06119607229994e-012 -26.0000000000256 65.3999999999613
  endloop
endfacet
facet normal 0.130526192220062 -7.73199878402595e-013 0.991444861373809
  outer loop
    vertex 7.06119607229994e-012 -24.0000000000256 65.3999999999628
    vertex 1.0093942759069 -26.0000000000255 65.2671107224886
    vertex 1.0093942759069 -24.0000000000257 65.2671107224902
  endloop
endfacet
facet normal -0.991444861373809 1.60902805913348e-013 -0.130526192220066
  outer loop
    vertex -3.89999999999295 -24.0000000000223 61.4999999999628
    vertex -3.76711072252067 -31.0000000000216 60.4906057240577
    vertex -3.89999999999332 -31.0000000000224 61.4999999999575
  endloop
endfacet
facet normal -0.991444861373809 1.60902805913348e-013 -0.130526192220066
  outer loop
    vertex -3.76711072252067 -31.0000000000216 60.4906057240577
    vertex -3.89999999999295 -24.0000000000223 61.4999999999628
    vertex -3.76711072252031 -24.0000000000215 60.4906057240629
  endloop
endfacet
facet normal 0.991444861373797 -1.78420687611523e-013 0.130526192220153
  outer loop
    vertex 3.90000000000662 -31.0000000000227 61.4999999999573
    vertex 3.76711072253443 -24.0000000000232 62.5093942758626
    vertex 3.76711072253379 -31.0000000000237 62.5093942758571
  endloop
endfacet
facet normal 0.991444861373797 -1.78420687611523e-013 0.130526192220153
  outer loop
    vertex 3.76711072253443 -24.0000000000232 62.5093942758626
    vertex 3.90000000000662 -31.0000000000227 61.4999999999573
    vertex 3.90000000000708 -24.0000000000223 61.4999999999628
  endloop
endfacet
facet normal 0.382683432365152 -7.65808878352022e-013 0.923879532511261
  outer loop
    vertex 1.9500000000068 -26.0000000000253 64.8774990747205
    vertex 1.0093942759069 -24.0000000000257 65.2671107224902
    vertex 1.0093942759069 -26.0000000000255 65.2671107224886
  endloop
endfacet
facet normal 0.382683432365152 -7.65808878352022e-013 0.923879532511261
  outer loop
    vertex 1.0093942759069 -24.0000000000257 65.2671107224902
    vertex 1.9500000000068 -26.0000000000253 64.8774990747205
    vertex 1.95000000000702 -24.0000000000251 64.8774990747221
  endloop
endfacet
facet normal -0.608761429008712 -4.6801337103515e-013 0.793353340291242
  outer loop
    vertex -1.94999999999322 -26.000000000025 64.8774990747206
    vertex -2.75771644662047 -24.0000000000247 64.2577164465903
    vertex -2.75771644662078 -26.0000000000246 64.2577164465889
  endloop
endfacet
facet normal -0.608761429008712 -4.6801337103515e-013 0.793353340291242
  outer loop
    vertex -2.75771644662047 -24.0000000000247 64.2577164465903
    vertex -1.94999999999322 -26.000000000025 64.8774990747206
    vertex -1.94999999999295 -24.0000000000252 64.8774990747221
  endloop
endfacet
facet normal -0.608761429008723 6.49404469779757e-013 -0.793353340291233
  outer loop
    vertex -2.75771644662047 -24.00000000002 58.7422835533352
    vertex -1.9499999999934 -31.0000000000198 58.1225009251982
    vertex -2.75771644662093 -31.0000000000203 58.7422835533299
  endloop
endfacet
facet normal -0.608761429008723 6.49404469779757e-013 -0.793353340291233
  outer loop
    vertex -1.9499999999934 -31.0000000000198 58.1225009251982
    vertex -2.75771644662047 -24.00000000002 58.7422835533352
    vertex -1.9499999999929 -24.0000000000195 58.1225009252035
  endloop
endfacet
facet normal -0.130526192220045 -7.50609581558747e-013 0.991444861373811
  outer loop
    vertex -1.00939427589273 -26.0000000000254 65.2671107224886
    vertex 7.06119607229994e-012 -24.0000000000256 65.3999999999628
    vertex -1.00939427589278 -24.0000000000255 65.2671107224902
  endloop
endfacet
facet normal -0.130526192220045 -7.50609581558747e-013 0.991444861373811
  outer loop
    vertex 7.06119607229994e-012 -24.0000000000256 65.3999999999628
    vertex -1.00939427589273 -26.0000000000254 65.2671107224886
    vertex 7.06119607229994e-012 -26.0000000000256 65.3999999999613
  endloop
endfacet
facet normal 0.793353340291245 4.18010191781526e-013 -0.608761429008707
  outer loop
    vertex 2.75771644663418 -31.0000000000206 58.7422835533298
    vertex 3.37749907476638 -24.0000000000207 59.5499999999628
    vertex 3.37749907476588 -31.0000000000214 59.5499999999573
  endloop
endfacet
facet normal 0.793353340291245 4.18010191781526e-013 -0.608761429008707
  outer loop
    vertex 3.37749907476638 -24.0000000000207 59.5499999999628
    vertex 2.75771644663418 -31.0000000000206 58.7422835533298
    vertex 2.75771644663459 -24.00000000002 58.7422835533353
  endloop
endfacet
facet normal -0.382683432365114 7.3573258708728e-013 -0.923879532511277
  outer loop
    vertex -1.9499999999929 -24.0000000000195 58.1225009252035
    vertex -1.00939427589328 -31.0000000000197 57.7328892774301
    vertex -1.9499999999934 -31.0000000000198 58.1225009251982
  endloop
endfacet
facet normal -0.382683432365114 7.3573258708728e-013 -0.923879532511277
  outer loop
    vertex -1.00939427589328 -31.0000000000197 57.7328892774301
    vertex -1.9499999999929 -24.0000000000195 58.1225009252035
    vertex -1.00939427589278 -24.0000000000192 57.7328892774354
  endloop
endfacet
facet normal 0.608761429008744 -7.35861524316017e-013 0.793353340291218
  outer loop
    vertex 2.75771644663427 -26.0000000000249 64.2577164465887
    vertex 1.95000000000702 -24.0000000000251 64.8774990747221
    vertex 1.9500000000068 -26.0000000000253 64.8774990747205
  endloop
endfacet
facet normal 0.608761429008744 -7.35861524316017e-013 0.793353340291218
  outer loop
    vertex 1.95000000000702 -24.0000000000251 64.8774990747221
    vertex 2.75771644663427 -26.0000000000249 64.2577164465887
    vertex 2.75771644663454 -24.0000000000246 64.2577164465903
  endloop
endfacet
facet normal -0.991444861373826 -2.6255266735469e-014 0.130526192219936
  outer loop
    vertex -3.76711072252031 -24.0000000000232 62.5093942758626
    vertex -3.89999999999332 -31.0000000000224 61.4999999999575
    vertex -3.76711072252094 -31.0000000000232 62.5093942758573
  endloop
endfacet
facet normal -0.991444861373826 -2.6255266735469e-014 0.130526192219936
  outer loop
    vertex -3.89999999999332 -31.0000000000224 61.4999999999575
    vertex -3.76711072252031 -24.0000000000232 62.5093942758626
    vertex -3.89999999999295 -24.0000000000223 61.4999999999628
  endloop
endfacet
facet normal 0.130526192220052 7.54742766204156e-013 -0.99144486137381
  outer loop
    vertex 7.06119607229994e-012 -24.000000000019 57.5999999999628
    vertex 1.00939427590631 -31.0000000000198 57.73288927743
    vertex 6.64877597422731e-012 -31.0000000000196 57.5999999999574
  endloop
endfacet
facet normal 0.130526192220052 7.54742766204156e-013 -0.99144486137381
  outer loop
    vertex 1.00939427590631 -31.0000000000198 57.73288927743
    vertex 7.06119607229994e-012 -24.000000000019 57.5999999999628
    vertex 1.0093942759069 -24.0000000000193 57.7328892774354
  endloop
endfacet
facet normal -0.923879532511299 3.53719001521515e-013 -0.38268343236506
  outer loop
    vertex -3.76711072252031 -24.0000000000215 60.4906057240629
    vertex -3.37749907475272 -31.0000000000209 59.5499999999575
    vertex -3.76711072252067 -31.0000000000216 60.4906057240577
  endloop
endfacet
facet normal -0.923879532511299 3.53719001521515e-013 -0.38268343236506
  outer loop
    vertex -3.37749907475272 -31.0000000000209 59.5499999999575
    vertex -3.76711072252031 -24.0000000000215 60.4906057240629
    vertex -3.37749907475222 -24.0000000000207 59.5499999999628
  endloop
endfacet
facet normal -0.130526192220056 7.7088904000509e-013 -0.99144486137381
  outer loop
    vertex -1.00939427589278 -24.0000000000192 57.7328892774354
    vertex 6.64877597422731e-012 -31.0000000000196 57.5999999999574
    vertex -1.00939427589328 -31.0000000000197 57.7328892774301
  endloop
endfacet
facet normal -0.130526192220056 7.7088904000509e-013 -0.99144486137381
  outer loop
    vertex 6.64877597422731e-012 -31.0000000000196 57.5999999999574
    vertex -1.00939427589278 -24.0000000000192 57.7328892774354
    vertex 7.06119607229994e-012 -24.000000000019 57.5999999999628
  endloop
endfacet
facet normal 0.608761429008722 5.7520609889614e-013 -0.793353340291235
  outer loop
    vertex 1.95000000000707 -24.0000000000195 58.1225009252035
    vertex 2.75771644663418 -31.0000000000206 58.7422835533298
    vertex 1.95000000000666 -31.0000000000201 58.1225009251981
  endloop
endfacet
facet normal 0.608761429008722 5.7520609889614e-013 -0.793353340291235
  outer loop
    vertex 2.75771644663418 -31.0000000000206 58.7422835533298
    vertex 1.95000000000707 -24.0000000000195 58.1225009252035
    vertex 2.75771644663459 -24.00000000002 58.7422835533353
  endloop
endfacet
facet normal -0.793353340291298 -3.47661582554965e-013 0.608761429008638
  outer loop
    vertex -2.75771644662047 -24.0000000000247 64.2577164465903
    vertex -3.37749907475226 -26.0000000000238 63.4499999999613
    vertex -2.75771644662078 -26.0000000000246 64.2577164465889
  endloop
endfacet
facet normal -0.793353340291298 -3.47661582554965e-013 0.608761429008638
  outer loop
    vertex -3.37749907475226 -26.0000000000238 63.4499999999613
    vertex -2.75771644662047 -24.0000000000247 64.2577164465903
    vertex -3.37749907475226 -24.000000000024 63.4499999999628
  endloop
endfacet
facet normal -0.923879532511234 -2.27549807315454e-013 0.382683432365217
  outer loop
    vertex -3.37749907475226 -26.0000000000238 63.4499999999613
    vertex -3.76711072252094 -31.0000000000232 62.5093942758573
    vertex -3.37749907475254 -31.0000000000238 63.4499999999575
  endloop
endfacet
facet normal -0.923879532511234 -2.27549807315454e-013 0.382683432365217
  outer loop
    vertex -3.76711072252094 -31.0000000000232 62.5093942758573
    vertex -3.37749907475226 -26.0000000000238 63.4499999999613
    vertex -3.76711072252031 -24.0000000000232 62.5093942758626
  endloop
endfacet
facet normal -0.923879532511234 -2.27549807315454e-013 0.382683432365217
  outer loop
    vertex -3.76711072252031 -24.0000000000232 62.5093942758626
    vertex -3.37749907475226 -26.0000000000238 63.4499999999613
    vertex -3.37749907475226 -24.000000000024 63.4499999999628
  endloop
endfacet
facet normal -6.18386604321082e-014 -1.0 -7.70434626741804e-013
  outer loop
    vertex 1.00939427590631 -31.0000000000198 57.73288927743
    vertex -1.00939427589328 -31.0000000000197 57.7328892774301
    vertex 6.64877597422731e-012 -31.0000000000196 57.5999999999574
  endloop
endfacet
facet normal -6.18386604321082e-014 -1.0 -7.70434626741804e-013
  outer loop
    vertex -1.00939427589328 -31.0000000000197 57.7328892774301
    vertex 1.00939427590631 -31.0000000000198 57.73288927743
    vertex 1.95000000000666 -31.0000000000201 58.1225009251981
  endloop
endfacet
facet normal -6.18386604321082e-014 -1.0 -7.70434626741804e-013
  outer loop
    vertex -1.00939427589328 -31.0000000000197 57.7328892774301
    vertex 1.95000000000666 -31.0000000000201 58.1225009251981
    vertex -1.9499999999934 -31.0000000000198 58.1225009251982
  endloop
endfacet
facet normal -6.18386604321082e-014 -1.0 -7.70434626741804e-013
  outer loop
    vertex -1.9499999999934 -31.0000000000198 58.1225009251982
    vertex 1.95000000000666 -31.0000000000201 58.1225009251981
    vertex 2.75771644663418 -31.0000000000206 58.7422835533298
  endloop
endfacet
facet normal -6.18386604321082e-014 -1.0 -7.70434626741804e-013
  outer loop
    vertex -1.9499999999934 -31.0000000000198 58.1225009251982
    vertex 2.75771644663418 -31.0000000000206 58.7422835533298
    vertex -2.75771644662093 -31.0000000000203 58.7422835533299
  endloop
endfacet
facet normal -6.18386604321082e-014 -1.0 -7.70434626741804e-013
  outer loop
    vertex -2.75771644662093 -31.0000000000203 58.7422835533299
    vertex 2.75771644663418 -31.0000000000206 58.7422835533298
    vertex 3.37749907476588 -31.0000000000214 59.5499999999573
  endloop
endfacet
facet normal -6.18386604321082e-014 -1.0 -7.70434626741804e-013
  outer loop
    vertex -2.75771644662093 -31.0000000000203 58.7422835533299
    vertex 3.37749907476588 -31.0000000000214 59.5499999999573
    vertex -3.37749907475272 -31.0000000000209 59.5499999999575
  endloop
endfacet
facet normal -6.18386604321082e-014 -1.0 -7.70434626741804e-013
  outer loop
    vertex -3.37749907475272 -31.0000000000209 59.5499999999575
    vertex 3.37749907476588 -31.0000000000214 59.5499999999573
    vertex 3.76711072253406 -31.000000000022 60.4906057240575
  endloop
endfacet
facet normal -6.18386604321082e-014 -1.0 -7.70434626741804e-013
  outer loop
    vertex -3.37749907475272 -31.0000000000209 59.5499999999575
    vertex 3.76711072253406 -31.000000000022 60.4906057240575
    vertex -3.76711072252067 -31.0000000000216 60.4906057240577
  endloop
endfacet
facet normal -6.18386604321082e-014 -1.0 -7.70434626741804e-013
  outer loop
    vertex -3.76711072252067 -31.0000000000216 60.4906057240577
    vertex 3.76711072253406 -31.000000000022 60.4906057240575
    vertex 3.90000000000662 -31.0000000000227 61.4999999999573
  endloop
endfacet
facet normal -6.18386604321082e-014 -1.0 -7.70434626741804e-013
  outer loop
    vertex -3.76711072252067 -31.0000000000216 60.4906057240577
    vertex 3.90000000000662 -31.0000000000227 61.4999999999573
    vertex -3.89999999999332 -31.0000000000224 61.4999999999575
  endloop
endfacet
facet normal -6.18386604321082e-014 -1.0 -7.70434626741804e-013
  outer loop
    vertex -3.89999999999332 -31.0000000000224 61.4999999999575
    vertex 3.90000000000662 -31.0000000000227 61.4999999999573
    vertex 3.76711072253379 -31.0000000000237 62.5093942758571
  endloop
endfacet
facet normal -6.18386604321082e-014 -1.0 -7.70434626741804e-013
  outer loop
    vertex -3.89999999999332 -31.0000000000224 61.4999999999575
    vertex 3.76711072253379 -31.0000000000237 62.5093942758571
    vertex -3.76711072252094 -31.0000000000232 62.5093942758573
  endloop
endfacet
facet normal -6.18386604321082e-014 -1.0 -7.70434626741804e-013
  outer loop
    vertex -3.76711072252094 -31.0000000000232 62.5093942758573
    vertex 3.76711072253379 -31.0000000000237 62.5093942758571
    vertex 3.37749907476606 -31.0000000000243 63.4499999999573
  endloop
endfacet
facet normal -6.18386604321082e-014 -1.0 -7.70434626741804e-013
  outer loop
    vertex -3.76711072252094 -31.0000000000232 62.5093942758573
    vertex 3.37749907476606 -31.0000000000243 63.4499999999573
    vertex -3.37749907475254 -31.0000000000238 63.4499999999575
  endloop
endfacet
facet normal 0.923879532511259 2.33595195475073e-013 -0.382683432365157
  outer loop
    vertex 3.37749907476588 -31.0000000000214 59.5499999999573
    vertex 3.76711072253447 -24.0000000000215 60.490605724063
    vertex 3.76711072253406 -31.000000000022 60.4906057240575
  endloop
endfacet
facet normal 0.923879532511259 2.33595195475073e-013 -0.382683432365157
  outer loop
    vertex 3.76711072253447 -24.0000000000215 60.490605724063
    vertex 3.37749907476588 -31.0000000000214 59.5499999999573
    vertex 3.37749907476638 -24.0000000000207 59.5499999999628
  endloop
endfacet
facet normal -0.382683432365023 -6.52124174286993e-013 0.923879532511314
  outer loop
    vertex -1.00939427589273 -26.0000000000254 65.2671107224886
    vertex -1.94999999999295 -24.0000000000252 64.8774990747221
    vertex -1.94999999999322 -26.000000000025 64.8774990747206
  endloop
endfacet
facet normal -0.382683432365023 -6.52124174286993e-013 0.923879532511314
  outer loop
    vertex -1.94999999999295 -24.0000000000252 64.8774990747221
    vertex -1.00939427589273 -26.0000000000254 65.2671107224886
    vertex -1.00939427589278 -24.0000000000255 65.2671107224902
  endloop
endfacet
facet normal 0.38268343236505 6.86413794597709e-013 -0.923879532511303
  outer loop
    vertex 1.0093942759069 -24.0000000000193 57.7328892774354
    vertex 1.95000000000666 -31.0000000000201 58.1225009251981
    vertex 1.00939427590631 -31.0000000000198 57.73288927743
  endloop
endfacet
facet normal 0.38268343236505 6.86413794597709e-013 -0.923879532511303
  outer loop
    vertex 1.95000000000666 -31.0000000000201 58.1225009251981
    vertex 1.0093942759069 -24.0000000000193 57.7328892774354
    vertex 1.95000000000707 -24.0000000000195 58.1225009252035
  endloop
endfacet
facet normal 0.991444861373817 3.4431169932851e-014 -0.130526192220001
  outer loop
    vertex 3.76711072253406 -31.000000000022 60.4906057240575
    vertex 3.90000000000708 -24.0000000000223 61.4999999999628
    vertex 3.90000000000662 -31.0000000000227 61.4999999999573
  endloop
endfacet
facet normal 0.991444861373817 3.4431169932851e-014 -0.130526192220001
  outer loop
    vertex 3.90000000000708 -24.0000000000223 61.4999999999628
    vertex 3.76711072253406 -31.000000000022 60.4906057240575
    vertex 3.76711072253447 -24.0000000000215 60.490605724063
  endloop
endfacet
facet normal 2.65089445885579e-014 -7.70132846383832e-013 1.0
  outer loop
    vertex 3.37749907476606 -31.0000000000243 63.4499999999573
    vertex -3.37749907475226 -26.0000000000238 63.4499999999613
    vertex -3.37749907475254 -31.0000000000238 63.4499999999575
  endloop
endfacet
facet normal 2.65089445885579e-014 -7.70132846383832e-013 1.0
  outer loop
    vertex -3.37749907475226 -26.0000000000238 63.4499999999613
    vertex 3.37749907476606 -31.0000000000243 63.4499999999573
    vertex 3.37749907476634 -26.0000000000243 63.4499999999612
  endloop
endfacet
facet normal 0.923879532511332 -3.61704251375014e-013 0.382683432364981
  outer loop
    vertex 3.76711072253379 -31.0000000000237 62.5093942758571
    vertex 3.37749907476634 -26.0000000000243 63.4499999999612
    vertex 3.37749907476606 -31.0000000000243 63.4499999999573
  endloop
endfacet
facet normal 0.923879532511332 -3.61704251375014e-013 0.382683432364981
  outer loop
    vertex 3.37749907476634 -26.0000000000243 63.4499999999612
    vertex 3.76711072253379 -31.0000000000237 62.5093942758571
    vertex 3.76711072253443 -24.0000000000232 62.5093942758626
  endloop
endfacet
facet normal 0.923879532511332 -3.61704251375014e-013 0.382683432364981
  outer loop
    vertex 3.37749907476634 -26.0000000000243 63.4499999999612
    vertex 3.76711072253443 -24.0000000000232 62.5093942758626
    vertex 3.37749907476634 -24.000000000024 63.4499999999628
  endloop
endfacet
facet normal -0.79335334029124 5.2052391830375e-013 -0.608761429008714
  outer loop
    vertex -3.37749907475222 -24.0000000000207 59.5499999999628
    vertex -2.75771644662093 -31.0000000000203 58.7422835533299
    vertex -3.37749907475272 -31.0000000000209 59.5499999999575
  endloop
endfacet
facet normal -0.79335334029124 5.2052391830375e-013 -0.608761429008714
  outer loop
    vertex -2.75771644662093 -31.0000000000203 58.7422835533299
    vertex -3.37749907475222 -24.0000000000207 59.5499999999628
    vertex -2.75771644662047 -24.00000000002 58.7422835533352
  endloop
endfacet
facet normal 0.793353340291164 -5.79196999722875e-013 0.608761429008813
  outer loop
    vertex 3.37749907476634 -26.0000000000243 63.4499999999612
    vertex 2.75771644663454 -24.0000000000246 64.2577164465903
    vertex 2.75771644663427 -26.0000000000249 64.2577164465887
  endloop
endfacet
facet normal 0.793353340291164 -5.79196999722875e-013 0.608761429008813
  outer loop
    vertex 2.75771644663454 -24.0000000000246 64.2577164465903
    vertex 3.37749907476634 -26.0000000000243 63.4499999999612
    vertex 3.37749907476634 -24.000000000024 63.4499999999628
  endloop
endfacet
endsolid AltAzTrackerSketchup Nema 17
